<?xml version="1.0" encoding="UTF-8"?>
<svg width="16px" height="16px" viewBox="0 0 16 16" version="1.1" xmlns="http://www.w3.org/2000/svg" xmlns:xlink="http://www.w3.org/1999/xlink">
    <title>format-tiff</title>
    <g id="图标" stroke="none" stroke-width="1" fill="none" fill-rule="evenodd">
        <g id="Large" transform="translate(-984.000000, -743.000000)">
            <g id="format-tiff" transform="translate(984.000000, 743.000000)">
                <rect id="矩形" x="0" y="0" width="16" height="16"></rect>
                <path d="M10.1832,1 L13.2,4.10305882 L13.2,6.35294117 L14,6.35294117 L14,12.9411765 L13.2,12.9411765 L13.2,13.7647059 C13.2,14.44694 12.6627417,15 12,15 L4,15 C3.3372583,15 2.8,14.44694 2.8,13.7647059 L2.8,12.9411765 L2,12.9411765 L2,6.35294117 L2.8,6.35294117 L2.8,2.23529412 C2.8,1.55306001 3.3372583,1 4,1 L10.1832,1 Z M12,12.9411765 L4,12.9411765 L4,13.7647059 L12,13.7647059 L12,12.9411765 Z M6.264,8.04 L4,8.04 L4,8.532 L4.832,8.532 L4.832,11 L5.424,11 L5.424,8.532 L6.264,8.532 L6.264,8.04 Z M7.396,8.04 L6.804,8.04 L6.804,11 L7.396,11 L7.396,8.04 Z M9.824,8.04 L8,8.04 L8,11 L8.592,11 L8.592,9.8 L9.644,9.8 L9.644,9.304 L8.592,9.304 L8.592,8.532 L9.824,8.532 L9.824,8.04 Z M12.024,8.04 L10.2,8.04 L10.2,11 L10.792,11 L10.792,9.8 L11.844,9.8 L11.844,9.304 L10.792,9.304 L10.792,8.532 L12.024,8.532 L12.024,8.04 Z M9.13879999,2.23488235 L4,2.23529412 L4,6.35294117 L12,6.35294117 L12,5.50923529 L9.13919999,5.50923529 L9.13879999,2.23529412 Z M10.3388,2.90605882 L10.3388,4.27394117 L11.6684,4.27394117 L10.3388,2.90605882 Z" id="形状" fill="#6554C0" fill-rule="nonzero"></path>
            </g>
        </g>
    </g>
</svg>