<?xml version="1.0" encoding="UTF-8"?>
<svg width="16px" height="16px" viewBox="0 0 16 16" version="1.1" xmlns="http://www.w3.org/2000/svg" xmlns:xlink="http://www.w3.org/1999/xlink">
    <title>format-ai</title>
    <g id="图标" stroke="none" stroke-width="1" fill="none" fill-rule="evenodd">
        <g id="Large" transform="translate(-856.000000, -743.000000)">
            <g id="format-ai" transform="translate(856.000000, 743.000000)">
                <rect id="矩形" x="0" y="0" width="16" height="16"></rect>
                <path d="M10.1832,1 L13.2,4.10305882 L13.2,6.35294117 L14,6.35294117 L14,12.9411765 L13.2,12.9411765 L13.2,13.7647059 C13.2,14.44694 12.6627417,15 12,15 L4,15 C3.3372583,15 2.8,14.44694 2.8,13.7647059 L2.8,12.9411765 L2,12.9411765 L2,6.35294117 L2.8,6.35294117 L2.8,2.23529412 C2.8,1.55306001 3.3372583,1 4,1 L10.1832,1 Z M12,12.9411765 L4,12.9411765 L4,13.7647059 L12,13.7647059 L12,12.9411765 Z M7.144,8.04 L6.448,8.04 L5.5,11 L6.1,11 L6.308,10.24 L7.268,10.24 L7.476,11 L8.096,11 L7.144,8.04 Z M9.996,8.04 L9.404,8.04 L9.404,11 L9.996,11 L9.996,8.04 Z M6.792,8.488 C6.88,8.808 6.96,9.148 7.052,9.456 L7.14,9.78 L6.436,9.78 L6.524,9.456 C6.612,9.148 6.7,8.812 6.776,8.488 L6.792,8.488 Z M9.13879999,2.23488235 L4,2.23529412 L4,6.35294117 L12,6.35294117 L12,5.50923529 L9.13919999,5.50923529 L9.13879999,2.23529412 Z M10.3388,2.90605882 L10.3388,4.27394117 L11.6684,4.27394117 L10.3388,2.90605882 Z" id="形状" fill="#330000" fill-rule="nonzero"></path>
            </g>
        </g>
    </g>
</svg>