<?xml version="1.0" encoding="UTF-8"?>
<svg width="16px" height="16px" viewBox="0 0 16 16" version="1.1" xmlns="http://www.w3.org/2000/svg" xmlns:xlink="http://www.w3.org/1999/xlink">
    <title>format-bmp</title>
    <g id="图标" stroke="none" stroke-width="1" fill="none" fill-rule="evenodd">
        <g id="Large" transform="translate(-664.000000, -743.000000)">
            <g id="format-bmp" transform="translate(664.000000, 743.000000)">
                <rect id="矩形" x="0" y="0" width="16" height="16"></rect>
                <path d="M10.1832,1 L13.2,4.10305882 L13.2,6.35294117 L14,6.35294117 L14,12.9411765 L13.2,12.9411765 L13.2,13.7647059 C13.2,14.44694 12.6627417,15 12,15 L4,15 C3.3372583,15 2.8,14.44694 2.8,13.7647059 L2.8,12.9411765 L2,12.9411765 L2,6.35294117 L2.8,6.35294117 L2.8,2.23529412 C2.8,1.55306001 3.3372583,1 4,1 L10.1832,1 Z M12,12.9411765 L4,12.9411765 L4,13.7647059 L12,13.7647059 L12,12.9411765 Z M4.98,8.04 L4,8.04 L4,11 L5.056,11 C5.708,11 6.204,10.724 6.204,10.128 C6.204,9.728 5.968,9.504 5.648,9.428 L5.648,9.408 C5.9,9.32 6.052,9.04 6.052,8.768 C6.052,8.216 5.588,8.04 4.98,8.04 Z M7.356,8.04 L6.7,8.04 L6.7,11 L7.232,11 L7.232,9.764 C7.232,9.484 7.184,9.072 7.156,8.792 L7.172,8.792 L7.408,9.488 L7.868,10.732 L8.208,10.732 L8.664,9.488 L8.904,8.792 L8.92,8.792 C8.892,9.072 8.848,9.484 8.848,9.764 L8.848,11 L9.388,11 L9.388,8.04 L8.732,8.04 L8.24,9.424 C8.176,9.608 8.124,9.804 8.06,9.996 L8.04,9.996 C7.98,9.804 7.924,9.608 7.86,9.424 L7.356,8.04 Z M10.972,8.04 L10,8.04 L10,11 L10.592,11 L10.592,9.948 L10.988,9.948 C11.624,9.948 12.132,9.644 12.132,8.968 C12.132,8.268 11.628,8.04 10.972,8.04 Z M5.004,9.684 C5.412,9.684 5.628,9.804 5.628,10.092 C5.628,10.4 5.408,10.544 5.004,10.544 L4.592,10.544 L4.592,9.684 L5.004,9.684 Z M10.928,8.508 C11.336,8.508 11.552,8.624 11.552,8.968 C11.552,9.308 11.356,9.48 10.948,9.48 L10.592,9.48 L10.592,8.508 L10.928,8.508 Z M4.944,8.492 C5.3,8.492 5.476,8.596 5.476,8.856 C5.476,9.092 5.312,9.244 4.936,9.244 L4.592,9.244 L4.592,8.492 L4.944,8.492 Z M9.13879999,2.23488235 L4,2.23529412 L4,6.35294117 L12,6.35294117 L12,5.50923529 L9.13919999,5.50923529 L9.13879999,2.23529412 Z M10.3388,2.90605882 L10.3388,4.27394117 L11.6684,4.27394117 L10.3388,2.90605882 Z" id="形状" fill="#C9BE18" fill-rule="nonzero"></path>
            </g>
        </g>
    </g>
</svg>