<?xml version="1.0" encoding="UTF-8"?>
<svg width="16px" height="16px" viewBox="0 0 16 16" version="1.1" xmlns="http://www.w3.org/2000/svg" xmlns:xlink="http://www.w3.org/1999/xlink">
    <title>format-psd</title>
    <g id="图标" stroke="none" stroke-width="1" fill="none" fill-rule="evenodd">
        <g id="Large" transform="translate(-1112.000000, -743.000000)">
            <g id="format-psd" transform="translate(1112.000000, 743.000000)">
                <rect id="矩形" x="0" y="0" width="16" height="16"></rect>
                <path d="M10.1832,1 L13.2,4.10305882 L13.2,6.35294117 L14,6.35294117 L14,12.9411765 L13.2,12.9411765 L13.2,13.7647059 C13.2,14.44694 12.6627417,15 12,15 L4,15 C3.3372583,15 2.8,14.44694 2.8,13.7647059 L2.8,12.9411765 L2,12.9411765 L2,6.35294117 L2.8,6.35294117 L2.8,2.23529412 C2.8,1.55306001 3.3372583,1 4,1 L10.1832,1 Z M12,12.9411765 L4,12.9411765 L4,13.7647059 L12,13.7647059 L12,12.9411765 Z M7.984,7.984 C7.384,7.984 6.96,8.356 6.96,8.84 C6.96,9.272 7.26,9.512 7.56,9.636 L7.956,9.804 C8.22,9.916 8.4,9.984 8.4,10.204 C8.4,10.412 8.236,10.544 7.928,10.544 C7.668,10.544 7.388,10.412 7.176,10.216 L6.836,10.624 C7.124,10.9 7.52,11.056 7.916,11.056 C8.6,11.056 9.004,10.644 9.004,10.16 C9.004,9.732 8.768,9.504 8.408,9.356 L8.02,9.192 C7.768,9.092 7.556,9.016 7.556,8.804 C7.556,8.608 7.724,8.492 7.984,8.492 C8.228,8.492 8.424,8.58 8.612,8.736 L8.912,8.364 C8.672,8.12 8.328,7.984 7.984,7.984 Z M5.372,8.04 L4.4,8.04 L4.4,11 L4.992,11 L4.992,9.948 L5.388,9.948 C6.024,9.948 6.532,9.644 6.532,8.968 C6.532,8.268 6.028,8.04 5.372,8.04 Z M10.34,8.04 L9.528,8.04 L9.528,11 L10.372,11 C11.244,11 11.804,10.504 11.804,9.508 C11.804,8.508 11.244,8.04 10.34,8.04 Z M10.304,8.512 C10.856,8.512 11.2,8.784 11.2,9.508 C11.2,10.228 10.856,10.524 10.304,10.524 L10.12,10.524 L10.12,8.512 L10.304,8.512 Z M5.328,8.508 C5.736,8.508 5.952,8.624 5.952,8.968 C5.952,9.308 5.756,9.48 5.348,9.48 L4.992,9.48 L4.992,8.508 L5.328,8.508 Z M9.13879999,2.23488235 L4,2.23529412 L4,6.35294117 L12,6.35294117 L12,5.50923529 L9.13919999,5.50923529 L9.13879999,2.23529412 Z M10.3388,2.90605882 L10.3388,4.27394117 L11.6684,4.27394117 L10.3388,2.90605882 Z" id="形状" fill="#0367B1" fill-rule="nonzero"></path>
            </g>
        </g>
    </g>
</svg>