<?xml version="1.0" encoding="UTF-8"?>
<svg width="16px" height="16px" viewBox="0 0 16 16" version="1.1" xmlns="http://www.w3.org/2000/svg" xmlns:xlink="http://www.w3.org/1999/xlink">
    <title>format-jpg</title>
    <g id="图标" stroke="none" stroke-width="1" fill="none" fill-rule="evenodd">
        <g id="Large" transform="translate(-600.000000, -743.000000)">
            <g id="format-jpg" transform="translate(600.000000, 743.000000)">
                <rect id="矩形" x="0" y="0" width="16" height="16"></rect>
                <path d="M10.1832,1 L13.2,4.10305882 L13.2,6.35294117 L14,6.35294117 L14,12.9411765 L13.2,12.9411765 L13.2,13.7647059 C13.2,14.44694 12.6627417,15 12,15 L4,15 C3.3372583,15 2.8,14.44694 2.8,13.7647059 L2.8,12.9411765 L2,12.9411765 L2,6.35294117 L2.8,6.35294117 L2.8,2.23529412 C2.8,1.55306001 3.3372583,1 4,1 L10.1832,1 Z M12,12.9411765 L4,12.9411765 L4,13.7647059 L12,13.7647059 L12,12.9411765 Z M6.036,8.04 L5.444,8.04 L5.444,9.996 C5.444,10.404 5.308,10.544 5.048,10.544 C4.88,10.544 4.724,10.452 4.608,10.236 L4.2,10.536 C4.4,10.88 4.688,11.056 5.12,11.056 C5.756,11.056 6.036,10.6 6.036,10.044 L6.036,8.04 Z M10.49,7.984 C9.702,7.984 9.07,8.556 9.07,9.532 C9.07,10.52 9.682,11.056 10.49,11.056 C10.902,11.056 11.25,10.896 11.45,10.7 L11.45,9.364 L10.398,9.364 L10.398,9.848 L10.922,9.848 L10.922,10.432 C10.838,10.504 10.694,10.544 10.55,10.544 C9.97,10.544 9.674,10.156 9.674,9.512 C9.674,8.876 10.018,8.492 10.51,8.492 C10.778,8.492 10.946,8.6 11.09,8.74 L11.406,8.364 C11.214,8.168 10.918,7.984 10.49,7.984 Z M7.622,8.04 L6.65,8.04 L6.65,11 L7.242,11 L7.242,9.948 L7.638,9.948 C8.274,9.948 8.782,9.644 8.782,8.968 C8.782,8.268 8.278,8.04 7.622,8.04 Z M7.578,8.508 C7.986,8.508 8.202,8.624 8.202,8.968 C8.202,9.308 8.006,9.48 7.598,9.48 L7.242,9.48 L7.242,8.508 L7.578,8.508 Z M9.13879999,2.23488235 L4,2.23529412 L4,6.35294117 L12,6.35294117 L12,5.50923529 L9.13919999,5.50923529 L9.13879999,2.23529412 Z M10.3388,2.90605882 L10.3388,4.27394117 L11.6684,4.27394117 L10.3388,2.90605882 Z" id="形状" fill="#097467" fill-rule="nonzero"></path>
            </g>
        </g>
    </g>
</svg>