<?xml version="1.0" encoding="UTF-8"?>
<svg width="16px" height="16px" viewBox="0 0 16 16" version="1.1" xmlns="http://www.w3.org/2000/svg" xmlns:xlink="http://www.w3.org/1999/xlink">
    <title>format-jpeg</title>
    <g id="图标" stroke="none" stroke-width="1" fill="none" fill-rule="evenodd">
        <g id="Large" transform="translate(-536.000000, -743.000000)">
            <g id="format-jpeg" transform="translate(536.000000, 743.000000)">
                <rect id="矩形" x="0" y="0" width="16" height="16"></rect>
                <path d="M10.1832,1 L13.2,4.10305882 L13.2,6.35294117 L14,6.35294117 L14,12.9411765 L13.2,12.9411765 L13.2,13.7647059 C13.2,14.44694 12.6627417,15 12,15 L4,15 C3.3372583,15 2.8,14.44694 2.8,13.7647059 L2.8,12.9411765 L2,12.9411765 L2,6.35294117 L2.8,6.35294117 L2.8,2.23529412 C2.8,1.55306001 3.3372583,1 4,1 L10.1832,1 Z M12,12.9411765 L4,12.9411765 L4,13.7647059 L12,13.7647059 L12,12.9411765 Z M5.426,8.04 L4.834,8.04 L4.834,9.996 C4.834,10.404 4.698,10.544 4.438,10.544 C4.27,10.544 4.114,10.452 3.998,10.236 L3.59,10.536 C3.79,10.88 4.078,11.056 4.51,11.056 C5.146,11.056 5.426,10.6 5.426,10.044 L5.426,8.04 Z M11.64,7.984 C10.852,7.984 10.22,8.556 10.22,9.532 C10.22,10.52 10.832,11.056 11.64,11.056 C12.052,11.056 12.4,10.896 12.6,10.7 L12.6,9.364 L11.548,9.364 L11.548,9.848 L12.072,9.848 L12.072,10.432 C11.988,10.504 11.844,10.544 11.7,10.544 C11.12,10.544 10.824,10.156 10.824,9.512 C10.824,8.876 11.168,8.492 11.66,8.492 C11.928,8.492 12.096,8.6 12.24,8.74 L12.556,8.364 C12.364,8.168 12.068,7.984 11.64,7.984 Z M6.812,8.04 L5.84,8.04 L5.84,11 L6.432,11 L6.432,9.948 L6.828,9.948 C7.464,9.948 7.972,9.644 7.972,8.968 C7.972,8.268 7.468,8.04 6.812,8.04 Z M10.016,8.04 L8.2,8.04 L8.2,11 L10.06,11 L10.06,10.504 L8.792,10.504 L8.792,9.712 L9.832,9.712 L9.832,9.216 L8.792,9.216 L8.792,8.532 L10.016,8.532 L10.016,8.04 Z M6.768,8.508 C7.176,8.508 7.392,8.624 7.392,8.968 C7.392,9.308 7.196,9.48 6.788,9.48 L6.432,9.48 L6.432,8.508 L6.768,8.508 Z M9.13879999,2.23488235 L4,2.23529412 L4,6.35294117 L12,6.35294117 L12,5.50923529 L9.13919999,5.50923529 L9.13879999,2.23529412 Z M10.3388,2.90605882 L10.3388,4.27394117 L11.6684,4.27394117 L10.3388,2.90605882 Z" id="形状" fill="#097467" fill-rule="nonzero"></path>
            </g>
        </g>
    </g>
</svg>