<?xml version="1.0" encoding="UTF-8"?>
<svg width="16px" height="16px" viewBox="0 0 16 16" version="1.1" xmlns="http://www.w3.org/2000/svg" xmlns:xlink="http://www.w3.org/1999/xlink">
    <title>format-gif</title>
    <g id="图标" stroke="none" stroke-width="1" fill="none" fill-rule="evenodd">
        <g id="Large" transform="translate(-920.000000, -743.000000)">
            <g id="format-gif" transform="translate(920.000000, 743.000000)">
                <rect id="矩形" x="0" y="0" width="16" height="16"></rect>
                <path d="M10.1832,1 L13.2,4.10305882 L13.2,6.35294117 L14,6.35294117 L14,12.9411765 L13.2,12.9411765 L13.2,13.7647059 C13.2,14.44694 12.6627417,15 12,15 L4,15 C3.3372583,15 2.8,14.44694 2.8,13.7647059 L2.8,12.9411765 L2,12.9411765 L2,6.35294117 L2.8,6.35294117 L2.8,2.23529412 C2.8,1.55306001 3.3372583,1 4,1 L10.1832,1 Z M12,12.9411765 L4,12.9411765 L4,13.7647059 L12,13.7647059 L12,12.9411765 Z M6.42,7.984 C5.632,7.984 5,8.556 5,9.532 C5,10.52 5.612,11.056 6.42,11.056 C6.832,11.056 7.18,10.896 7.38,10.7 L7.38,9.364 L6.328,9.364 L6.328,9.848 L6.852,9.848 L6.852,10.432 C6.768,10.504 6.624,10.544 6.48,10.544 C5.9,10.544 5.604,10.156 5.604,9.512 C5.604,8.876 5.948,8.492 6.44,8.492 C6.708,8.492 6.876,8.6 7.02,8.74 L7.336,8.364 C7.144,8.168 6.848,7.984 6.42,7.984 Z M8.696,8.04 L8.104,8.04 L8.104,11 L8.696,11 L8.696,8.04 Z M11.224,8.04 L9.4,8.04 L9.4,11 L9.992,11 L9.992,9.8 L11.044,9.8 L11.044,9.304 L9.992,9.304 L9.992,8.532 L11.224,8.532 L11.224,8.04 Z M9.13879999,2.23488235 L4,2.23529412 L4,6.35294117 L12,6.35294117 L12,5.50923529 L9.13919999,5.50923529 L9.13879999,2.23529412 Z M10.3388,2.90605882 L10.3388,4.27394117 L11.6684,4.27394117 L10.3388,2.90605882 Z" id="形状" fill="#18A561" fill-rule="nonzero"></path>
            </g>
        </g>
    </g>
</svg>