<?xml version="1.0" encoding="UTF-8"?>
<svg width="16px" height="16px" viewBox="0 0 16 16" version="1.1" xmlns="http://www.w3.org/2000/svg" xmlns:xlink="http://www.w3.org/1999/xlink">
    <title>format-webp</title>
    <g id="图标" stroke="none" stroke-width="1" fill="none" fill-rule="evenodd">
        <g id="Large" transform="translate(-1048.000000, -743.000000)">
            <g id="format-webp" transform="translate(1048.000000, 743.000000)">
                <rect id="矩形" x="0" y="0" width="16" height="16"></rect>
                <path d="M10.1832,1 L13.2,4.10305882 L13.2,6.35294117 L14,6.35294117 L14,12.9411765 L13.2,12.9411765 L13.2,13.7647059 C13.2,14.44694 12.6627417,15 12,15 L4,15 C3.3372583,15 2.8,14.44694 2.8,13.7647059 L2.8,12.9411765 L2,12.9411765 L2,6.35294117 L2.8,6.35294117 L2.8,2.23529412 C2.8,1.55306001 3.3372583,1 4,1 L10.1832,1 Z M12,12.9411765 L4,12.9411765 L4,13.7647059 L12,13.7647059 L12,12.9411765 Z M3.676,8.04 L3.072,8.04 L3.644,11 L4.368,11 L4.692,9.536 C4.74,9.304 4.78,9.076 4.82,8.852 L4.836,8.852 C4.872,9.076 4.916,9.304 4.964,9.536 L5.296,11 L6.032,11 L6.58,8.04 L6.016,8.04 L5.784,9.484 C5.74,9.792 5.696,10.108 5.652,10.428 L5.632,10.428 C5.568,10.108 5.508,9.788 5.444,9.484 L5.1,8.04 L4.596,8.04 L4.252,9.484 C4.188,9.792 4.124,10.112 4.064,10.428 L4.048,10.428 C4.004,10.112 3.956,9.796 3.912,9.484 L3.676,8.04 Z M8.44,8.04 L6.624,8.04 L6.624,11 L8.484,11 L8.484,10.504 L7.216,10.504 L7.216,9.712 L8.256,9.712 L8.256,9.216 L7.216,9.216 L7.216,8.532 L8.44,8.532 L8.44,8.04 Z M9.664,8.04 L8.684,8.04 L8.684,11 L9.74,11 C10.392,11 10.888,10.724 10.888,10.128 C10.888,9.728 10.652,9.504 10.332,9.428 L10.332,9.408 C10.584,9.32 10.736,9.04 10.736,8.768 C10.736,8.216 10.272,8.04 9.664,8.04 Z M11.98,8.04 L11.008,8.04 L11.008,11 L11.6,11 L11.6,9.948 L11.996,9.948 C12.632,9.948 13.14,9.644 13.14,8.968 C13.14,8.268 12.636,8.04 11.98,8.04 Z M9.688,9.684 C10.096,9.684 10.312,9.804 10.312,10.092 C10.312,10.4 10.092,10.544 9.688,10.544 L9.276,10.544 L9.276,9.684 L9.688,9.684 Z M11.936,8.508 C12.344,8.508 12.56,8.624 12.56,8.968 C12.56,9.308 12.364,9.48 11.956,9.48 L11.6,9.48 L11.6,8.508 L11.936,8.508 Z M9.628,8.492 C9.984,8.492 10.16,8.596 10.16,8.856 C10.16,9.092 9.996,9.244 9.62,9.244 L9.276,9.244 L9.276,8.492 L9.628,8.492 Z M9.13879999,2.23488235 L4,2.23529412 L4,6.35294117 L12,6.35294117 L12,5.50923529 L9.13919999,5.50923529 L9.13879999,2.23529412 Z M10.3388,2.90605882 L10.3388,4.27394117 L11.6684,4.27394117 L10.3388,2.90605882 Z" id="形状" fill="#F7CF22" fill-rule="nonzero"></path>
            </g>
        </g>
    </g>
</svg>