<?xml version="1.0" encoding="UTF-8"?>
<svg width="16px" height="16px" viewBox="0 0 16 16" version="1.1" xmlns="http://www.w3.org/2000/svg" xmlns:xlink="http://www.w3.org/1999/xlink">
    <title>format-png</title>
    <g id="图标" stroke="none" stroke-width="1" fill="none" fill-rule="evenodd">
        <g id="Large" transform="translate(-792.000000, -743.000000)">
            <g id="format-png" transform="translate(792.000000, 743.000000)">
                <rect id="矩形" x="0" y="0" width="16" height="16"></rect>
                <path d="M10.1832,1 L13.2,4.10305882 L13.2,6.35294117 L14,6.35294117 L14,12.9411765 L13.2,12.9411765 L13.2,13.7647059 C13.2,14.44694 12.6627417,15 12,15 L4,15 C3.3372583,15 2.8,14.44694 2.8,13.7647059 L2.8,12.9411765 L2,12.9411765 L2,6.35294117 L2.8,6.35294117 L2.8,2.23529412 C2.8,1.55306001 3.3372583,1 4,1 L10.1832,1 Z M12,12.9411765 L4,12.9411765 L4,13.7647059 L12,13.7647059 L12,12.9411765 Z M11.22,7.984 C10.432,7.984 9.8,8.556 9.8,9.532 C9.8,10.52 10.412,11.056 11.22,11.056 C11.632,11.056 11.98,10.896 12.18,10.7 L12.18,9.364 L11.128,9.364 L11.128,9.848 L11.652,9.848 L11.652,10.432 C11.568,10.504 11.424,10.544 11.28,10.544 C10.7,10.544 10.404,10.156 10.404,9.512 C10.404,8.876 10.748,8.492 11.24,8.492 C11.508,8.492 11.676,8.6 11.82,8.74 L12.136,8.364 C11.944,8.168 11.648,7.984 11.22,7.984 Z M5.072,8.04 L4.1,8.04 L4.1,11 L4.692,11 L4.692,9.948 L5.088,9.948 C5.724,9.948 6.232,9.644 6.232,8.968 C6.232,8.268 5.728,8.04 5.072,8.04 Z M7.504,8.04 L6.9,8.04 L6.9,11 L7.46,11 L7.46,9.812 C7.46,9.472 7.416,9.1 7.388,8.78 L7.408,8.78 L7.708,9.416 L8.564,11 L9.164,11 L9.164,8.04 L8.604,8.04 L8.604,9.22 C8.604,9.556 8.648,9.948 8.68,10.256 L8.66,10.256 L8.364,9.616 L7.504,8.04 Z M5.028,8.508 C5.436,8.508 5.652,8.624 5.652,8.968 C5.652,9.308 5.456,9.48 5.048,9.48 L4.692,9.48 L4.692,8.508 L5.028,8.508 Z M9.13879999,2.23488235 L4,2.23529412 L4,6.35294117 L12,6.35294117 L12,5.50923529 L9.13919999,5.50923529 L9.13879999,2.23529412 Z M10.3388,2.90605882 L10.3388,4.27394117 L11.6684,4.27394117 L10.3388,2.90605882 Z" id="形状" fill="#C70019" fill-rule="nonzero"></path>
            </g>
        </g>
    </g>
</svg>