<?xml version="1.0" encoding="UTF-8"?>
<svg width="16px" height="16px" viewBox="0 0 16 16" version="1.1" xmlns="http://www.w3.org/2000/svg" xmlns:xlink="http://www.w3.org/1999/xlink">
    <title>format-svg</title>
    <g id="图标" stroke="none" stroke-width="1" fill="none" fill-rule="evenodd">
        <g id="Large" transform="translate(-728.000000, -743.000000)">
            <g id="format-svg" transform="translate(728.000000, 743.000000)">
                <rect id="矩形" x="0" y="0" width="16" height="16"></rect>
                <path d="M10.1832,1 L13.2,4.10305882 L13.2,6.35294117 L14,6.35294117 L14,12.9411765 L13.2,12.9411765 L13.2,13.7647059 C13.2,14.44694 12.6627417,15 12,15 L4,15 C3.3372583,15 2.8,14.44694 2.8,13.7647059 L2.8,12.9411765 L2,12.9411765 L2,6.35294117 L2.8,6.35294117 L2.8,2.23529412 C2.8,1.55306001 3.3372583,1 4,1 L10.1832,1 Z M12,12.9411765 L4,12.9411765 L4,13.7647059 L12,13.7647059 L12,12.9411765 Z M5.248,7.984 C4.648,7.984 4.224,8.356 4.224,8.84 C4.224,9.272 4.524,9.512 4.824,9.636 L5.22,9.804 C5.484,9.916 5.664,9.984 5.664,10.204 C5.664,10.412 5.5,10.544 5.192,10.544 C4.932,10.544 4.652,10.412 4.44,10.216 L4.1,10.624 C4.388,10.9 4.784,11.056 5.18,11.056 C5.864,11.056 6.268,10.644 6.268,10.16 C6.268,9.732 6.032,9.504 5.672,9.356 L5.284,9.192 C5.032,9.092 4.82,9.016 4.82,8.804 C4.82,8.608 4.988,8.492 5.248,8.492 C5.492,8.492 5.688,8.58 5.876,8.736 L6.176,8.364 C5.936,8.12 5.592,7.984 5.248,7.984 Z M10.956,7.984 C10.168,7.984 9.536,8.556 9.536,9.532 C9.536,10.52 10.148,11.056 10.956,11.056 C11.368,11.056 11.716,10.896 11.916,10.7 L11.916,9.364 L10.864,9.364 L10.864,9.848 L11.388,9.848 L11.388,10.432 C11.304,10.504 11.16,10.544 11.016,10.544 C10.436,10.544 10.14,10.156 10.14,9.512 C10.14,8.876 10.484,8.492 10.976,8.492 C11.244,8.492 11.412,8.6 11.556,8.74 L11.872,8.364 C11.68,8.168 11.384,7.984 10.956,7.984 Z M7.296,8.04 L6.676,8.04 L7.58,11 L8.284,11 L9.192,8.04 L8.592,8.04 L8.208,9.48 C8.116,9.808 8.048,10.104 7.956,10.436 L7.936,10.436 C7.84,10.104 7.78,9.808 7.688,9.48 L7.296,8.04 Z M9.13879999,2.23488235 L4,2.23529412 L4,6.35294117 L12,6.35294117 L12,5.50923529 L9.13919999,5.50923529 L9.13879999,2.23529412 Z M10.3388,2.90605882 L10.3388,4.27394117 L11.6684,4.27394117 L10.3388,2.90605882 Z" id="形状" fill="#F8AD39" fill-rule="nonzero"></path>
            </g>
        </g>
    </g>
</svg>