<svg xmlns="http://www.w3.org/2000/svg" xmlns:xlink="http://www.w3.org/1999/xlink" viewBox="0 0 243.47 89.28"><defs><style>.cls-1{isolation:isolate;}.cls-2{fill:#295da6;}.cls-3{fill:url(#未命名的渐变_18);}.cls-4{fill:url(#未命名的渐变_6);}.cls-5,.cls-8{mix-blend-mode:multiply;}.cls-5{opacity:0.21;fill:url(#未命名的渐变_8);}.cls-10,.cls-6{opacity:0.6;}.cls-6{fill:url(#未命名的渐变_7);}.cls-7{fill:url(#未命名的渐变_2);}.cls-8{opacity:0.29;fill:url(#未命名的渐变_33);}.cls-9{fill:url(#未命名的渐变_39);}.cls-11{fill:url(#未命名的渐变_16);}</style><linearGradient id="未命名的渐变_18" x1="75.34" y1="90.62" x2="135.58" y2="57.76" gradientUnits="userSpaceOnUse"><stop offset="0" stop-color="#002ab5"/><stop offset="1" stop-color="#28ede6"/></linearGradient><linearGradient id="未命名的渐变_6" x1="77.09" y1="95.04" x2="148" y2="35.4" gradientUnits="userSpaceOnUse"><stop offset="0" stop-color="#002ab5"/><stop offset="0.86" stop-color="#28ede6"/></linearGradient><linearGradient id="未命名的渐变_8" x1="77.09" y1="95.04" x2="148" y2="35.4" gradientUnits="userSpaceOnUse"><stop offset="0.09"/><stop offset="0.71" stop-opacity="0"/></linearGradient><linearGradient id="未命名的渐变_7" x1="77.24" y1="95" x2="148.02" y2="35.47" gradientUnits="userSpaceOnUse"><stop offset="0.17" stop-color="#fff" stop-opacity="0"/><stop offset="0.5" stop-color="#fff"/><stop offset="0.9" stop-color="#fff" stop-opacity="0"/></linearGradient><linearGradient id="未命名的渐变_2" x1="-17.57" y1="7.56" x2="116.07" y2="112.65" xlink:href="#未命名的渐变_18"/><linearGradient id="未命名的渐变_33" x1="14.38" y1="23.95" x2="80.93" y2="87.4" gradientUnits="userSpaceOnUse"><stop offset="0"/><stop offset="1" stop-opacity="0"/></linearGradient><linearGradient id="未命名的渐变_39" x1="5.72" y1="29.48" x2="92.99" y2="85.84" gradientUnits="userSpaceOnUse"><stop offset="0" stop-color="#002ab5"/><stop offset="0.86" stop-color="#28ede6"/></linearGradient><linearGradient id="未命名的渐变_16" x1="19.78" y1="69.96" x2="104.61" y2="69.96" gradientUnits="userSpaceOnUse"><stop offset="0" stop-color="#fff" stop-opacity="0"/><stop offset="0.5" stop-color="#fff"/><stop offset="1" stop-color="#fff" stop-opacity="0"/></linearGradient></defs><g class="cls-1"><g id="图层_2" data-name="图层 2"><g id="图层_1-2" data-name="图层 1"><path class="cls-2" d="M50,2.81V46.93h-8.1V2.81Z"/><path class="cls-2" d="M65.88,21.81V46.93H58V21.81H53.47V14.9H58V11.05L65.88,8.5v6.4h6.45v6.91Z"/><path class="cls-2" d="M75.81,14.9h7.86v3.33A9.06,9.06,0,0,1,91.1,14a12.09,12.09,0,0,1,6.12,1.91L93.83,22.7a8.13,8.13,0,0,0-4.11-1.52c-3.9-.43-6,1.73-6,4.75v21H75.81Z"/><path class="cls-2" d="M202.43,21.81V46.93h-7.67V21.81h-4V14.9h4s0-3.39,0-4.83C194.73,5.13,199,.25,205.29,0c2.41,0,5.49.92,8.48,2.08-1.19,2.15-3.5,6.51-3.5,6.51A22.2,22.2,0,0,0,207,7.33c-3.34-.5-4.6,2-4.56,4.56v3H214l-2.32,6.91Z"/><path class="cls-2" d="M29.46,2.81V29.06c-.26,8-6.06,11.12-10.65,11.16h0C14.19,40.18,8.3,37,8.13,29.06V2.81H0v26c.24,16.34,12.65,19,18.78,19h0c6.12,0,18.53-2.61,18.78-19v-26Z"/><path class="cls-2" d="M179.75,14.91V17.5c-2.81-2.11-5.34-3.34-9.09-3.34-9.28,0-15.4,7.52-15.4,16.81s6.12,16.81,15.4,16.81c3.75,0,6.28-1.23,9.09-3.34v2.48h7.41v-32ZM171.86,41.2c-5.65,0-9.16-4.59-9.16-10.23s3.51-10.22,9.16-10.22c4.11,0,8.91,3.13,8.91,10.22C180.77,37.61,176,41.2,171.86,41.2Z"/><path class="cls-2" d="M119.09,14.91V17.5c-2.81-2.11-5.33-3.34-9.09-3.34-9.27,0-15.39,7.52-15.39,16.81S100.73,47.78,110,47.78c3.76,0,6.28-1.23,9.09-3.34v2.48h7.42v-32ZM111.21,41.2c-5.66,0-9.16-4.59-9.16-10.23s3.5-10.22,9.16-10.22c4.1,0,8.9,3.13,8.9,10.22C120.11,37.61,115.33,41.2,111.21,41.2Z"/><path class="cls-2" d="M243.12,26.68A15.73,15.73,0,0,0,227.67,14.1c-9.32,0-16.18,7.55-16.18,16.87s6.86,17.11,16.18,17.11a16.13,16.13,0,0,0,14.94-9.71l-6.5-3.32a9.11,9.11,0,0,1-8.53,6.36c-4.57,0-8.2-3.95-8.6-8.3H243.3A21.14,21.14,0,0,0,243.12,26.68Zm-23.44,0a7.77,7.77,0,0,1,7.67-5.91,9.08,9.08,0,0,1,8.37,5.91Z"/><path class="cls-2" d="M144.25,27.11c4.15,2,9.81,4.6,9.81,10.87,0,6.07-4.93,10-11.93,10.33h-.24A17.37,17.37,0,0,1,128.7,43l4.55-6.08c1.5,1.2,4.79,4.27,8.69,4.14,2.09-.08,4.39-1.38,4.41-3.1,0-1.37-1.17-2.51-5.54-4.29l-2.19-.81c-4.27-1.73-9.23-4.57-9.31-9.95s5.37-10.18,12.18-9.88h0c5.86,0,9.93,3.46,10.56,3.8l-3.34,6.68c-2.93-2.05-5-3.42-7.05-3.69-2.47-.32-4.81.44-4.92,2.43C136.73,23.87,139.66,25,144.25,27.11Z"/><path class="cls-3" d="M153.88,48.92A92.49,92.49,0,0,1,116.25,80.8a70.31,70.31,0,0,1-24,4.17,71,71,0,0,1-14.68-1.53A70.92,70.92,0,0,0,122.84,52a67.1,67.1,0,0,0,9,.6A67.45,67.45,0,0,0,153.88,48.92Z"/><path class="cls-4" d="M137.66,52.34c-1.91.16-3.85.24-5.8.24a67.1,67.1,0,0,1-9-.6A70.92,70.92,0,0,1,77.59,83.44l.19,0c.59,0,1.18,0,1.78,0a64.17,64.17,0,0,0,21.54-3.29A45,45,0,0,0,108,77.42,87,87,0,0,0,137.66,52.34Z"/><path class="cls-5" d="M137.66,52.34c-1.91.16-3.85.24-5.8.24a67.1,67.1,0,0,1-9-.6A70.92,70.92,0,0,1,77.59,83.44l.19,0c.59,0,1.18,0,1.78,0a64.17,64.17,0,0,0,21.54-3.29A45,45,0,0,0,108,77.42,87,87,0,0,0,137.66,52.34Z"/><path class="cls-6" d="M137.66,52.34A87,87,0,0,1,108,77.42a45.69,45.69,0,0,1-6.87,2.82,64.34,64.34,0,0,1-21.53,3.28c-.61,0-1.2,0-1.79,0-.07,0,1.87,0,1.8,0A62.87,62.87,0,0,0,109,76.26C124.05,68.17,137.28,53.28,137.66,52.34Z"/><path class="cls-7" d="M116.25,80.8a91.64,91.64,0,0,1-38.66,8.48A92,92,0,0,1,39,80.83,92.52,92.52,0,0,1,1.31,48.91,67.12,67.12,0,0,0,19.1,52.45c1.4.09,2.82.13,4.23.13a67.1,67.1,0,0,0,9-.6A70.85,70.85,0,0,0,92.27,85c.51,0,1,0,1.58,0l1.56,0h0c.91,0,1.81-.1,2.72-.18.41,0,.81-.06,1.21-.11l.67-.07,1.53-.17.1,0c.47-.06.95-.13,1.42-.21l1.51-.24,1.52-.28,1.46-.31c.62-.14,1.24-.28,1.85-.44l1-.25q.84-.21,1.65-.45t1.38-.42C114.38,81.46,115.31,81.14,116.25,80.8Z"/><path class="cls-8" d="M116.25,80.8a91.64,91.64,0,0,1-38.66,8.48A92,92,0,0,1,39,80.83,92.52,92.52,0,0,1,1.31,48.91,67.12,67.12,0,0,0,19.1,52.45c1.4.09,2.82.13,4.23.13a67.1,67.1,0,0,0,9-.6A70.85,70.85,0,0,0,92.27,85c.51,0,1,0,1.58,0l1.56,0h0c.91,0,1.81-.1,2.72-.18.41,0,.81-.06,1.21-.11l.67-.07,1.53-.17.1,0c.47-.06.95-.13,1.42-.21l1.51-.24,1.52-.28,1.46-.31c.62-.14,1.24-.28,1.85-.44l1-.25q.84-.21,1.65-.45t1.38-.42C114.38,81.46,115.31,81.14,116.25,80.8Z"/><path class="cls-9" d="M116.25,80.8c-.49.21-1,.4-1.46.56C67.11,99.59,29.24,66.3,19.1,52.45c1.4.09,2.82.13,4.23.13a67.1,67.1,0,0,0,9-.6A70.85,70.85,0,0,0,92.27,85c.51,0,1,0,1.58,0s1,0,1.56,0h0c.91,0,1.81-.1,2.72-.18.4,0,.81-.06,1.21-.11l.67-.07c.52,0,1-.11,1.53-.17l.1,0c.47-.06.95-.13,1.42-.21s1-.15,1.51-.24l1.52-.28,1.46-.31c.62-.14,1.24-.28,1.85-.44l1-.25q.84-.21,1.65-.45t1.38-.42C114.38,81.46,115.31,81.14,116.25,80.8Z"/><g class="cls-10"><path class="cls-11" d="M56.45,80A96.17,96.17,0,0,1,19.78,53.28C30,66.56,62.2,94.72,104.61,84.44,104.72,84.42,83.68,91.24,56.45,80Z"/></g></g></g></g></svg>