<?xml version="1.0" encoding="UTF-8"?>
<svg width="1024px" height="153px" viewBox="0 0 1024 153" version="1.1" xmlns="http://www.w3.org/2000/svg" xmlns:xlink="http://www.w3.org/1999/xlink">
    <title>中国兵器工业集团有限公司@2x</title>
    <g id="页面-1" stroke="none" stroke-width="1" fill="none" fill-rule="evenodd">
        <g id="6.中国兵器工业集团有限公司" transform="translate(0.000000, -307.000000)">
            <g id="中国兵器工业集团有限公司" transform="translate(0.000000, 307.000000)">
                <path d="M133.682839,81.8590201 C142.079617,71.5770124 145.240869,60.5114531 140.904619,52.035616 C134.671194,39.8410685 114.943326,36.8880059 93.7933721,43.8241222 L86,0 L86,46.8066732 L86,55.7437947 L86,60.2070897 C86.3754053,60.0006702 86.7508106,59.7858254 87.1357602,59.5888844 C102.102131,52.035616 117.808708,52.8791977 122.1948,61.4729888 C126.105802,69.1147227 119.734516,80.2992891 107.751239,88 L112.434261,88 L127.954196,88 L190,88 L133.682839,81.8590201 Z" id="Fill-2" fill="#00A0E8"></path>
                <path d="M56.3271915,71.1410534 C47.9198948,81.422131 44.7586748,92.4888759 49.0959407,100.964814 C55.3388463,113.168986 75.0654526,116.112606 96.2162515,109.176407 L104,153 L104,106.19382 L104,97.2565913 L104,92.7932429 C103.624599,92.9986117 103.258741,93.2145122 102.863191,93.4114557 C87.8980331,100.964814 72.2011604,100.111744 67.8055694,91.5273286 C63.8935465,83.8844501 70.2658278,72.6913245 82.2574665,65 L77.5660083,65 L62.0462318,65 L0,65 L56.3271915,71.1410534 Z" id="Fill-4" fill="#00A0E8"></path>
                <path d="M39.5585994,101.605178 C36.3490538,94.0591998 37.23759,85.4616558 41.3664208,77 L24.7429466,77 C19.4891315,87.8951004 18.3821722,98.946995 22.521606,108.655687 C31.311541,129.298155 60.9916206,137.525664 94,130.582821 L94,118.665423 C68.8240994,123.757051 46.2745762,117.379711 39.5585994,101.605178" id="Fill-6" fill="#1E2087"></path>
                <path d="M111.517522,112.907478 C110.672015,113.257043 109.836007,113.587826 109,113.908174 L109,126 C111.310632,125.193391 113.631819,124.318957 115.951951,123.35687 C134.053834,115.842783 148.930966,104.974957 159,93 L141.546234,93 C133.966222,100.834435 123.680797,107.862261 111.517522,112.907478" id="Fill-8" fill="#1E2087"></path>
                <path d="M81.3096529,42.6086583 C81.5435981,42.5102358 81.7660548,42.4213381 82,42.3324404 L82,30 C80.3070308,30.6307504 78.6140616,31.3017164 76.9221368,32.0213646 C59.4096707,39.464431 44.9531132,50.170255 35,62 L52.3568508,62 C59.7793876,54.3791381 69.6740145,47.5572974 81.3096529,42.6086583" id="Fill-10" fill="#1E2087"></path>
                <path d="M153.644993,53.2859776 C156.732419,60.5628888 156.008804,68.8304016 152.2481,77 L168.688857,77 C173.564348,66.4044173 174.492464,55.6921706 170.506285,46.2517689 C161.645664,25.3116392 131.361826,17.1909979 98,24.8074845 L98,36.6749121 C123.625431,30.9104651 146.846152,37.1884416 153.644993,53.2859776" id="Fill-12" fill="#1E2087"></path>
                <path d="M260.128318,60.0079392 L276.14238,60.0079392 L276.14238,50.182764 L260.128318,50.182764 L260.128318,60.0079392 Z M232.895764,60.0079392 L248.584989,60.0079392 L248.584989,50.182764 L232.895764,50.182764 L232.895764,60.0079392 Z M222,70.0474132 L222,43.9302842 L248.270698,43.9302842 L248.270698,33 C258.516787,33 262.898928,33.0777358 261.405519,33.2248035 C261.405519,33.3718713 261.296889,33.6744106 261.091229,34.1156138 C260.442609,35.1524414 260.128318,36.5705945 260.128318,38.3616695 L260.128318,43.9302842 L288,43.9302842 L288,69.3814064 L276.14238,69.3814064 L276.14238,66.0356154 L260.128318,66.0356154 L260.128318,85 L248.584989,85 L248.584989,66.0356154 L232.895764,66.0356154 L232.895764,70.0474132 L222,70.0474132 Z" id="Fill-14" fill="#231916"></path>
                <path d="M342.427345,61.4297674 L347.243511,59.2181428 L340.834971,59.2181428 L340.834971,66.5215019 L347.243511,66.5215019 C345.316623,64.165143 343.714751,62.4678981 342.427345,61.4297674 L342.427345,61.4297674 Z M317.429503,53.6890814 L330.572655,53.6890814 L330.572655,48.8212166 L316.142097,48.8212166 L316.142097,43.2921552 L356.532886,43.2921552 L356.532886,48.8212166 L340.834971,48.8212166 L340.834971,53.6890814 L355.254977,53.6890814 L355.254977,59.2181428 L351.4012,59.2181428 C353.328089,61.2839918 354.823379,62.9812366 355.893404,64.3109186 L351.087791,66.5215019 L357.181865,66.5215019 L357.181865,72.2733918 L315.502615,72.2733918 L315.502615,66.5215019 L330.572655,66.5215019 L330.572655,59.2181428 L317.429503,59.2181428 L317.429503,53.6890814 Z M313.261261,75.5908286 L359.422163,75.5908286 L359.422163,39.9653471 L313.261261,39.9653471 L313.261261,75.5908286 Z M303,84 L303,34 L370,34 L370,83.5543431 L359.422163,83.5543431 L359.422163,81.11989 L313.261261,81.11989 L313.261261,84 L303,84 Z" id="Fill-16" fill="#231916"></path>
                <path d="M427.569147,68.3675153 C434.365708,70.7385158 442.34542,74.1322189 451.489388,78.574714 C450.843746,79.3135645 448.19399,81.3057475 443.509675,84.5523067 C436.496851,80.2653041 428.947566,76.7275878 420.870219,73.908894 C422.786148,72.585642 425.015974,70.7385158 427.569147,68.3675153 L427.569147,68.3675153 Z M405.877681,61.9422293 L423.109494,61.9422293 L423.109494,53.2899561 L405.877681,53.2899561 L405.877681,61.9422293 Z M415.452077,73.4716364 C414.592271,73.7721858 412.899955,74.5788686 410.347832,75.9115128 C402.690415,79.7508221 395.785722,82.7834485 389.615906,85 C386.427591,82.3367988 383.767336,80.3435722 381.644592,79.0119716 C391.209539,77.2431134 398.974038,73.7721858 404.919192,68.5908402 C409.819771,70.6612913 413.320934,72.2850926 415.452077,73.4716364 L415.452077,73.4716364 Z M395.355295,35.1108945 C412.791823,35.849745 427.041085,34.8103452 438.090483,32 C440.643656,34.372044 443.088696,37.1041211 445.425604,40.2150157 C440.526075,40.361116 432.986239,40.6522732 422.786148,41.0999665 C415.334497,41.5372241 409.711639,41.838817 405.877681,41.9838738 L405.877681,46.8646701 L446.70639,46.8646701 L446.70639,53.2899561 L434.580922,53.2899561 L434.580922,61.9422293 L455,61.9422293 L455,68.1535826 L381,68.1535826 L381,61.9422293 L395.355295,61.9422293 L395.355295,35.1108945 Z" id="Fill-17" fill="#231916"></path>
                <path d="M511.495388,43.4827652 L519.796999,43.4827652 L519.796999,39.0701475 L511.495388,39.0701475 L511.495388,43.4827652 Z M511.181108,76.3717248 L519.796999,76.3717248 L519.796999,71.5238701 L511.181108,71.5238701 L511.181108,76.3717248 Z M479.251753,43.4827652 L487.544955,43.4827652 L487.544955,39.0701475 L479.251753,39.0701475 L479.251753,43.4827652 Z M478.930115,76.1494319 L486.910089,76.1494319 L486.910089,71.3015772 L478.930115,71.3015772 L478.930115,76.1494319 Z M469.990485,48.5622615 L497.131014,48.5622615 L497.131014,34 L469.990485,34 L469.990485,48.5622615 Z M493.616126,49.443123 C499.363557,49.3070466 503.191674,49.5199907 505.110988,50.1100017 C505.531429,50.2554269 505.531429,50.5556262 505.110988,50.9908632 C504.680036,51.2910625 504.366807,51.6587806 504.151331,52.0940176 L512.777733,52.0940176 C512.777733,51.8042059 512.562257,51.4364877 512.140765,50.9908632 L511.495388,50.1100017 C511.495388,49.9656152 512.453993,49.7433223 514.373308,49.443123 C516.283162,49.1522725 517.771523,48.8624608 518.838393,48.5622615 L501.918788,48.5622615 L501.918788,34.2222929 L530.333255,34.2222929 L530.333255,48.5622615 L521.080396,48.5622615 C521.717364,49.7433223 522.246069,50.9233444 522.67597,52.0940176 L534.484061,52.0940176 L534.484061,57.8320826 L511.181108,57.8320826 C516.919079,60.1931654 525.869221,61.5861316 538,62.0317561 C536.296162,63.6480539 534.8078,65.9987493 533.534915,69.0952684 C532.889537,69.0952684 531.508388,68.9498431 529.384109,68.6496439 L529.384109,83 L519.79805,83 L519.79805,80.7843424 L511.181108,80.7843424 L511.181108,83 L501.60556,83 L501.60556,66.2210421 L516.919079,66.2210421 C510.545191,64.6057831 504.895512,61.9548885 500.000526,58.2777071 C497.023802,61.8094632 490.629943,64.4603578 480.848378,66.2210421 L496.808326,66.2210421 L496.808326,82.7766684 L486.910089,82.7766684 L486.910089,80.5610108 L478.930115,80.5610108 L478.930115,82.7766684 L469.352465,82.7766684 L469.352465,67.992114 L465.838628,68.6496439 C464.771759,66.1441745 463.488362,64.0926397 462,62.4669931 C474.561732,61.4417451 483.080921,59.8940049 487.544955,57.8320826 L465.515939,57.8320826 L465.515939,52.0940176 L492.980209,52.0940176 C492.980209,51.8042059 493.077961,51.3585814 493.293438,50.7779191 C493.293438,50.1879081 493.40065,49.7433223 493.616126,49.443123 L493.616126,49.443123 Z" id="Fill-18" fill="#231916"></path>
                <polygon id="Fill-19" fill="#231916" points="546 72.5414982 575.764551 72.5414982 575.764551 44.9085094 551.113511 44.9085094 551.113511 38 612.56413 38 612.56413 44.9085094 587.284172 44.9085094 587.284172 72.5414982 618 72.5414982 618 79 546 79"></polygon>
                <path d="M641.824916,44.4929402 C644.822784,50.1502594 647.831238,57.295462 650.838633,65.9190911 L650.838633,34 L656.941286,34 C661.231667,34 662.946549,34.3036711 662.089108,34.889998 C661.438088,36.231825 661.122635,37.797465 661.122635,39.5795626 L661.122635,76.1955737 L667.552385,76.1955737 L667.552385,34 L674.307116,34 C678.162425,34 679.878366,34.3036711 679.45388,34.889998 C678.812387,36.3778814 678.379432,38.0128719 678.162425,39.7949695 L678.162425,65.7036842 C682.02832,60.3395285 684.917156,54.0160242 686.849045,46.7247652 C687.056525,45.383989 687.27459,44.5706968 687.491597,44.2670257 C690.92242,44.5706968 695.319717,45.6088527 700.675019,47.3898995 C700.032468,48.1443489 699.067052,49.8465883 697.785125,52.5281408 C693.486275,59.8204505 689.629907,65.7814409 686.209669,70.3827412 L684.276722,69.9414198 C681.485274,69.0514218 679.561854,68.5323439 678.488464,68.3757799 L678.488464,75.9717607 L701,75.9717607 L701,82 L628,82 L628,75.9717607 L650.838633,75.9717607 L650.838633,68.3757799 C645.049318,69.8636632 641.716941,70.6076049 640.858442,70.6076049 C640.652021,70.1673343 640.425487,69.569449 640.218007,68.8255073 C637.210612,58.704538 633.887763,51.4122283 630.248401,46.9496289 C636.036658,45.754909 639.902554,44.9332107 641.824916,44.4929402" id="Fill-20" fill="#231916"></path>
                <path d="M731.343868,58.8384278 L746.338195,58.8384278 L746.338195,56.6025939 L731.343868,56.6025939 L731.343868,58.8384278 Z M731.344919,52.1309261 L746.339245,52.1309261 L746.339245,50.110886 L731.344919,50.110886 L731.344919,52.1309261 Z M731.343868,45.4139506 L746.338195,45.4139506 L746.338195,43.404437 L731.343868,43.404437 L731.343868,45.4139506 Z M709,49.6698246 C714.314365,45.9434348 719.639237,40.7949115 724.952551,34.2358339 C726.020047,32.745278 726.655712,32 726.871102,32 C731.119022,32.745278 734.212238,33.5684522 736.130789,34.4611015 C736.130789,34.7653181 735.807178,35.0495343 735.171514,35.3526982 C734.534799,35.7948122 734.094562,36.1769251 733.888627,36.4706151 C733.252963,37.2158931 732.616248,37.8148523 731.980583,38.2653876 L746.661805,38.2653876 C746.231025,36.6190391 745.48714,34.9021629 744.43015,33.1179169 C744.43015,32.9705456 746.02509,32.8231742 749.216021,32.666329 C750.4884,32.5200103 751.447676,32.4410614 752.084391,32.4410614 C752.504665,32.4410614 753.043666,32.372639 753.688787,32.2157938 C755.16605,32.0789489 755.803816,32.1473713 755.597882,32.4410614 C756.019207,32.8926493 756.340716,34.3832052 756.556107,36.9127292 C756.763092,37.5106358 756.870261,37.9622237 756.870261,38.2653876 L778.577414,38.2653876 L778.577414,43.404437 L755.920442,43.404437 L755.920442,45.4139506 L775.700639,45.4139506 L775.700639,50.110886 L755.920442,50.110886 L755.920442,52.1309261 L775.700639,52.1309261 L775.700639,56.6025939 L755.920442,56.6025939 L755.920442,58.8384278 L778.901025,58.8384278 L778.901025,63.7606308 L752.720055,63.7606308 L752.720055,66.6627937 L782.414516,66.6627937 L782.414516,72.0365846 L760.070648,72.0365846 C766.872783,75.6156031 774.849584,77.5566943 784,77.851437 C781.661175,79.6356829 779.64491,81.8715168 777.942801,84.557886 C776.670421,84.4105146 774.75187,83.9599793 772.196604,83.2147014 C771.56094,83.0683827 771.120703,82.9104848 770.913718,82.77364 C764.317517,80.8325488 758.249811,78.2240759 752.720055,74.9387475 L752.720055,85 L742.835211,85 L742.835211,75.6156031 C736.022569,79.0377763 727.820921,82.0967844 718.24918,84.7831536 C716.54602,82.9894338 714.098975,81.1262389 710.908044,79.1946215 C721.547281,77.5566943 729.739472,75.1640152 735.484618,72.0365846 L711.867319,72.0365846 L711.867319,66.6627937 L742.835211,66.6627937 L742.835211,63.7606308 L731.343868,63.7606308 L731.343868,65.1038154 L721.440111,65.1038154 L721.440111,48.5519077 C718.24918,51.3856482 716.016475,53.1014717 714.744095,53.6899045 C713.883584,52.6509365 712.2981,51.4540706 709.949819,50.110886 C709.528495,49.9635147 709.205934,49.817196 709,49.6698246 L709,49.6698246 Z" id="Fill-21" fill="#231916"></path>
                <path d="M850.651319,40.7906041 L839.319535,40.7906041 L839.319535,47.0309131 L848.060954,47.0309131 L848.060954,52.8215172 L839.319535,52.8215172 L839.319535,70.4071753 C839.757298,73.5320469 837.494989,75.3874722 832.523021,75.9828855 L850.651319,75.9828855 L850.651319,40.7906041 Z M807.620576,47.0309131 L828.97192,47.0309131 L828.97192,40.7906041 L805.031276,40.7906041 L805.031276,75.9828855 L824.764706,75.9828855 C824.329073,73.4639098 823.466328,71.4522933 822.175405,69.9679531 C827.562769,70.2709011 829.825079,69.596868 828.97192,67.965771 L828.97192,58.3867448 C825.30046,63.1427135 819.914161,67.7414428 812.789591,72.1944635 C811.281385,70.4071753 809.227838,68.7079411 806.638538,67.0674097 C813.117647,63.8073122 818.503946,59.0513435 822.820867,52.8215172 L807.620576,52.8215172 L807.620576,47.0309131 Z M795,83.7756717 L795,35 L861,35 L861,84 L850.323263,84 L850.323263,81.3237849 L805.031276,81.3237849 L805.031276,83.7756717 L795,83.7756717 Z" id="Fill-22" fill="#231916"></path>
                <path d="M939.297045,64.670432 C927.700174,59.0392218 918.889054,50.4449325 912.883835,38.8907018 C912.23167,37.263257 911.698273,36.2215249 911.27304,35.7728271 C913.852008,34.8858906 917.495648,34.2918105 922.22729,34 C924.163637,41.8527351 932.747824,49.4816442 948,56.8856814 C944.986256,58.9701914 942.082796,61.5630164 939.297045,64.670432 M882.922423,75.1149461 L883.565044,74.8900743 C890.657205,73.4101035 896.990098,66.0834641 902.570085,52.8913294 C903.864871,52.8913294 907.944348,53.6318377 914.809577,55.1128543 C915.244354,55.414078 915.353578,55.7069344 915.13619,55.9987449 C910.414091,60.7440644 905.257216,66.7455287 899.676169,74.0041837 C900.31773,74.1495659 904.714276,74.0041837 912.883835,73.5565317 C916.528535,73.4101035 919.106442,73.3316599 920.608012,73.3316599 C918.246433,70.9647526 915.569906,68.7432277 912.557222,66.6681309 L921.902798,62.6633197 C929.637581,69.3373078 935.6428,75.2613743 939.938605,80.4438866 L928.026786,84 C927.59201,82.5189834 926.406448,80.8141408 924.479645,78.8948855 C910.304867,79.3341701 898.491668,80.2974584 889.036867,81.7784751 C887.535297,81.9249033 886.676348,82.0033469 886.469564,82.0033469 C886.033727,81.8569187 884.95845,79.8592197 883.249036,76.0008367 C883.022104,75.563644 882.922423,75.2613743 882.922423,75.1149461 M871,59.5548583 C883.674269,51.4103127 890.765369,43.7719904 892.266939,36.6691769 C898.273219,37.8479239 902.461921,38.6668758 904.82244,39.1145278 C905.682449,39.4073842 905.790613,39.7776383 905.149052,40.215877 C896.130089,50.2995503 888.079298,58.4451417 880.987137,64.670432 C878.40923,62.7417634 875.079477,61.0463341 871,59.5548583" id="Fill-23" fill="#231916"></path>
                <path d="M975.402994,68.8106976 L993.09667,68.8106976 L993.09667,62.5676939 L975.402994,62.5676939 L975.402994,68.8106976 Z M993.09667,77.9603799 L993.09667,74.61355 L975.402994,74.61355 L975.402994,78.8606414 L965.115653,78.8606414 L965.115653,56.5400387 L1004.03518,56.5400387 L1004.03518,77.9603799 L993.09667,77.9603799 Z M1012.38808,42.703114 L962.866753,42.703114 L962.866753,36 L1023.65164,36 L1023.65164,76.6294215 C1025.58502,82.8724251 1019.47042,85.6320365 1005.31739,84.8788423 C1004.88222,82.3534879 1004.24164,80.1222681 1003.38295,78.1851826 C1010.03118,78.4887714 1013.03925,77.450897 1012.38808,75.0631556 L1012.38808,42.703114 Z M959,52.7436034 L1008.53192,52.7436034 L1008.53192,46.7148977 L959,46.7148977 L959,52.7436034 Z" id="Fill-24" fill="#231916"></path>
                <path d="M239.863713,112.468557 L243,113.241565 C242.34822,115.765393 241.155442,117.692661 239.4421,119.012866 C237.739513,120.344624 235.634673,121 233.160922,121 C230.606504,121 228.5221,120.491663 226.918464,119.47289 C225.306223,118.456216 224.093009,116.978469 223.251933,115.051201 C222.420538,113.114481 222,111.040173 222,108.828279 C222,106.411579 222.470013,104.308914 223.41219,102.50873 C224.364046,100.708547 225.706325,99.3389786 227.449782,98.4094788 C229.193239,97.4705265 231.117388,97 233.210397,97 C235.585198,97 237.588937,97.5976106 239.211933,98.7812787 C240.83493,99.9649468 241.957798,101.618091 242.598822,103.760667 L239.503406,104.474859 C238.951652,102.792307 238.150371,101.559275 237.098489,100.786268 C236.056287,100.01431 234.733367,99.6320074 233.151242,99.6320074 C231.317439,99.6320074 229.794469,100.062623 228.571575,100.914402 C227.340077,101.765131 226.478566,102.919391 225.987042,104.358278 C225.485839,105.805566 225.235237,107.283314 225.235237,108.809374 C225.235237,110.786005 225.536389,112.507418 226.117183,113.984114 C226.708732,115.452409 227.630474,116.558356 228.872727,117.282001 C230.114981,118.005645 231.45726,118.377445 232.91032,118.377445 C234.663457,118.377445 236.156312,117.878561 237.378131,116.880793 C238.601024,115.892477 239.42274,114.425233 239.863713,112.468557" id="Fill-25" fill="#231916"></path>
                <polygon id="Fill-26" fill="#231916" points="247 121 247 97 250.038786 97 250.038786 106.855902 261.961214 106.855902 261.961214 97 265 97 265 121 261.961214 121 261.961214 109.687545 250.038786 109.687545 250.038786 121"></polygon>
                <polygon id="Fill-27" fill="#231916" points="270 121 273 121 273 97 270 97"></polygon>
                <polygon id="Fill-28" fill="#231916" points="279 121 279 97 282.10327 97 294.108787 115.840695 294.108787 97 297 97 297 121 293.907074 121 281.900523 102.14084 281.900523 121"></polygon>
                <path d="M306.788298,111.134323 L314.755319,111.134323 L312.297872,104.497828 C311.555319,102.473208 311,100.824403 310.632979,99.5188269 C310.335106,101.056843 309.909574,102.585083 309.364894,104.102462 L306.788298,111.134323 Z M300,121 L309.02766,97 L312.37766,97 L322,121 L318.461702,121 L315.717021,113.735699 L305.88617,113.735699 L303.309574,121 L300,121 Z" id="Fill-29" fill="#231916"></path>
                <polygon id="Fill-30" fill="#231916" points="331 121 331 97 334.101488 97 346.100109 115.840695 346.100109 97 349 97 349 121 345.898512 121 333.898857 102.14084 333.898857 121"></polygon>
                <path d="M356.275761,109.352246 C356.275761,112.149219 357.056326,114.34984 358.618545,115.963559 C360.169877,117.567829 362.127278,118.379413 364.47986,118.379413 C366.872722,118.379413 368.850807,117.55733 370.402139,115.934162 C371.943674,114.310993 372.714441,112.01273 372.714441,109.019423 C372.714441,107.142176 372.390022,105.48961 371.730298,104.080625 C371.060775,102.672689 370.098405,101.576578 368.820325,100.803841 C367.552042,100.032154 366.112841,99.6405355 364.531027,99.6405355 C362.278601,99.6405355 360.341885,100.383875 358.71979,101.880003 C357.086808,103.366683 356.275761,105.86023 356.275761,109.352246 M353,109.31235 C353,105.459163 354.064704,102.437508 356.214796,100.266285 C358.355091,98.0856118 361.123539,97 364.52014,97 C366.740995,97 368.738676,97.5081587 370.52298,98.5349753 C372.298575,99.5628418 373.668102,100.989676 374.601079,102.818627 C375.532967,104.648629 376,106.72221 376,109.039372 C376,111.385931 375.503574,113.499409 374.51943,115.357758 C373.535287,117.205608 372.146164,118.614594 370.341175,119.572116 C368.536186,120.521239 366.588583,121 364.500544,121 C362.238321,121 360.210158,120.472943 358.425853,119.426178 C356.64046,118.368914 355.291617,116.931581 354.379325,115.102629 C353.456146,113.273678 353,111.347084 353,109.31235" id="Fill-31" fill="#231916"></path>
                <path d="M383.153558,107.593411 L389.932899,107.593411 C391.36898,107.593411 392.49348,107.441347 393.307475,107.138306 C394.120392,106.84504 394.743557,106.359522 395.166187,105.701303 C395.58774,105.044171 395.797977,104.326213 395.797977,103.546343 C395.797977,102.413469 395.386128,101.482621 394.572133,100.74294 C393.749512,100.015206 392.46437,99.6513396 390.696221,99.6513396 L383.153558,99.6513396 L383.153558,107.593411 Z M380,121 L380,97 L390.565767,97 C392.684311,97 394.30152,97.2128892 395.406613,97.647357 C396.511706,98.0829109 397.394702,98.8421434 398.048054,99.9239681 C398.710032,101.016655 399.042099,102.230992 399.042099,103.546343 C399.042099,105.246198 398.499795,106.683201 397.405483,107.85735 C396.310093,109.019551 394.622805,109.759232 392.333915,110.082911 C393.167317,110.47719 393.799107,110.882332 394.241144,111.276611 C395.155406,112.125996 396.028699,113.188269 396.853476,114.463432 L401,121 L397.033525,121 L393.879967,116.001448 C392.956002,114.564446 392.202382,113.461984 391.599702,112.692976 C391.007804,111.93483 390.475203,111.398262 390.004056,111.094135 C389.531831,110.791093 389.048824,110.578204 388.566896,110.446778 C388.205719,110.376177 387.623524,110.334902 386.809529,110.334902 L383.153558,110.334902 L383.153558,121 L380,121 Z" id="Fill-32" fill="#231916"></path>
                <polygon id="Fill-33" fill="#231916" points="408.48698 121 408.48698 99.8338161 401 99.8338161 401 97 419 97 419 99.8338161 411.49349 99.8338161 411.49349 121"></polygon>
                <polygon id="Fill-34" fill="#231916" points="423 121 423 97 426.038786 97 426.038786 106.855902 437.961214 106.855902 437.961214 97 441 97 441 121 437.961214 121 437.961214 109.687545 426.038786 109.687545 426.038786 121"></polygon>
                <polygon id="Fill-35" fill="#231916" points="456 121 459 121 459 97 456 97"></polygon>
                <polygon id="Fill-36" fill="#231916" points="465 121 465 97 468.102414 97 480.100345 115.840695 480.100345 97 483 97 483 121 479.897586 121 467.890345 102.14084 467.890345 121"></polygon>
                <path d="M491.194216,118.167142 L496.367839,118.167142 C497.95947,118.167142 499.213715,118.015071 500.12181,117.721792 C501.029905,117.428513 501.745208,117.013578 502.296199,116.478072 C503.050937,115.728581 503.642458,114.717312 504.071859,113.442091 C504.490306,112.177733 504.703911,110.628785 504.703911,108.818058 C504.703911,106.308893 504.285464,104.376511 503.459525,103.030686 C502.622631,101.684861 501.612663,100.784386 500.428524,100.32926 C499.570818,99.9947047 498.184029,99.8328581 496.284588,99.8328581 L491.194216,99.8328581 L491.194216,118.167142 Z M488,121 L488,97 L496.336072,97 C498.2147,97 499.654069,97.1107943 500.643225,97.3443313 C502.03111,97.6571623 503.214153,98.2339443 504.193449,99.0638153 C505.468507,100.136999 506.418228,101.502376 507.060138,103.162118 C507.684522,104.831636 508,106.733605 508,108.868024 C508,110.689613 507.7853,112.309165 507.356994,113.704956 C506.927593,115.121385 506.387556,116.285811 505.70402,117.205838 C505.041297,118.126952 504.306277,118.854718 503.509913,119.381534 C502.704787,119.918126 501.745208,120.312424 500.612553,120.586151 C499.489758,120.859878 498.194983,121 496.724942,121 L488,121 Z" id="Fill-37" fill="#231916"></path>
                <path d="M526.969435,97 L530,97 L530,110.632188 C530,113.00997 529.739941,114.891045 529.218788,116.283959 C528.706959,117.676874 527.761008,118.811287 526.409946,119.6872 C525.048524,120.563112 523.26334,121 521.053359,121 C518.910724,121 517.153514,120.621862 515.793127,119.855973 C514.431704,119.099697 513.457779,117.995193 512.878605,116.553142 C512.290105,115.110023 512,113.13922 512,110.632188 L512,97 L515.031601,97 L515.031601,110.621506 C515.031601,112.661741 515.213953,114.174292 515.580729,115.149546 C515.95683,116.1248 516.585736,116.871462 517.492316,117.398077 C518.38957,117.925761 519.489898,118.184262 520.792264,118.184262 C523.021931,118.184262 524.605077,117.66726 525.551027,116.622574 C526.496978,115.577889 526.969435,113.578245 526.969435,110.621506 L526.969435,97 Z" id="Fill-38" fill="#231916"></path>
                <path d="M534,113.152998 L536.822606,112.898818 C536.956675,114.063632 537.269843,115.012079 537.756993,115.755711 C538.24312,116.499344 539.005572,117.09593 540.034114,117.555974 C541.055492,118.014967 542.218103,118.250241 543.505572,118.250241 C544.639527,118.250241 545.650671,118.074836 546.526723,117.721926 C547.404821,117.379519 548.051626,116.900569 548.473277,116.293479 C548.902092,115.68744 549.120082,115.021532 549.120082,114.307309 C549.120082,113.583632 548.91028,112.937681 548.50091,112.399912 C548.09154,111.851641 547.414032,111.392648 546.461224,111.030284 C545.850239,110.785558 544.515693,110.403239 542.437116,109.89488 C540.359563,109.386521 538.910393,108.897068 538.080396,108.447527 C536.994542,107.869847 536.1932,107.14512 535.658972,106.283851 C535.133955,105.423632 534.868888,104.464683 534.868888,103.3986 C534.868888,102.233786 535.19229,101.12884 535.841142,100.111072 C536.48897,99.1027571 537.432568,98.3202626 538.681146,97.8024508 C539.920514,97.2730853 541.303161,97 542.828065,97 C544.497271,97 545.984307,97.2835886 547.261542,97.8413129 C548.538776,98.3895842 549.521264,99.2109409 550.206959,100.287527 C550.903912,101.353611 551.265181,102.576193 551.322493,103.936368 L548.452809,104.151685 C548.301342,102.693829 547.776325,101.587834 546.890039,100.834748 C545.993518,100.091116 544.687628,99.7098468 542.942688,99.7098468 C541.14146,99.7098468 539.816125,100.052254 538.986127,100.737068 C538.166363,101.412429 537.746759,102.233786 537.746759,103.192735 C537.746759,104.024595 538.042529,104.718862 538.624858,105.25663 C539.206163,105.795449 540.712645,106.34372 543.14328,106.901444 C545.574937,107.468621 547.242097,107.967527 548.147828,108.387659 C549.462929,109.004201 550.436207,109.797199 551.056402,110.746696 C551.684785,111.705646 552,112.801138 552,114.053129 C552,115.286214 551.656129,116.449978 550.970434,117.536018 C550.273482,118.63256 549.292017,119.483326 547.995338,120.089365 C546.708892,120.696455 545.259723,121 543.638617,121 C541.598931,121 539.882647,120.696455 538.5,120.089365 C537.118376,119.473873 536.030475,118.553786 535.249602,117.321751 C534.458494,116.088665 534.03889,114.699081 534,113.152998" id="Fill-39" fill="#231916"></path>
                <polygon id="Fill-40" fill="#231916" points="562.476702 121 562.476702 99.8338161 555 99.8338161 555 97 573 97 573 99.8338161 565.484239 99.8338161 565.484239 121"></polygon>
                <path d="M579.144229,107.593411 L585.926704,107.593411 C587.36345,107.593411 588.499255,107.441347 589.313627,107.138306 C590.117212,106.84504 590.739586,106.359522 591.162412,105.701303 C591.584159,105.044171 591.795572,104.326213 591.795572,103.546343 C591.795572,102.413469 591.383533,101.482621 590.569161,100.74294 C589.745082,100.015206 588.459346,99.6513396 586.69038,99.6513396 L579.144229,99.6513396 L579.144229,107.593411 Z M576,121 L576,97 L586.559864,97 C588.690174,97 590.298423,97.2128892 591.402948,97.647357 C592.508552,98.0829109 593.393035,98.8421434 594.055319,99.9239681 C594.718681,101.016655 595.049823,102.230992 595.049823,103.546343 C595.049823,105.246198 594.49756,106.683201 593.402743,107.85735 C592.306847,109.019551 590.619857,109.759232 588.32883,110.082911 C589.172325,110.47719 589.805486,110.882332 590.238019,111.276611 C591.151626,112.125996 592.025322,113.188269 592.849402,114.463432 L597,121 L593.030613,121 L589.875597,116.001448 C588.952283,114.564446 588.198315,113.461984 587.606143,112.692976 C587.002106,111.93483 586.470337,111.398262 585.997894,111.094135 C585.525451,110.791093 585.054086,110.578204 584.56007,110.446778 C584.208434,110.376177 583.616262,110.334902 582.811598,110.334902 L579.144229,110.334902 L579.144229,121 L576,121 Z" id="Fill-41" fill="#231916"></path>
                <polygon id="Fill-42" fill="#231916" points="600 121 603 121 603 97 600 97"></polygon>
                <polygon id="Fill-43" fill="#231916" points="609 121 609 97 625.4731 97 625.4731 99.8338161 612.014982 99.8338161 612.014982 107.178494 624.617274 107.178494 624.617274 109.991673 612.014982 109.991673 612.014982 118.16727 626 118.16727 626 121"></polygon>
                <path d="M630,113.152998 L632.822606,112.898818 C632.955652,114.063632 633.269843,115.012079 633.756993,115.755711 C634.24312,116.499344 635.005572,117.09593 636.034114,117.555974 C637.055492,118.014967 638.218103,118.250241 639.504549,118.250241 C640.639527,118.250241 641.650671,118.074836 642.526723,117.721926 C643.394587,117.379519 644.043439,116.900569 644.472254,116.293479 C644.901069,115.68744 645.120082,115.021532 645.120082,114.307309 C645.120082,113.583632 644.91028,112.937681 644.50091,112.399912 C644.09154,111.851641 643.404821,111.392648 642.4602,111.030284 C641.850239,110.785558 640.515693,110.403239 638.437116,109.89488 C636.359563,109.386521 634.910393,108.897068 634.071185,108.447527 C632.993518,107.869847 632.182966,107.14512 631.658972,106.283851 C631.125768,105.423632 630.858654,104.464683 630.858654,103.3986 C630.858654,102.233786 631.19229,101.12884 631.830907,100.111072 C632.48897,99.1027571 633.432568,98.3202626 634.670912,97.8024508 C635.920514,97.2730853 637.303161,97 638.818854,97 C640.496247,97 641.974073,97.2835886 643.251308,97.8413129 C644.538776,98.3895842 645.520241,99.2109409 646.206959,100.287527 C646.893678,101.353611 647.265181,102.576193 647.312258,103.936368 L644.452809,104.151685 C644.300318,102.693829 643.776325,101.587834 642.890039,100.834748 C641.993518,100.091116 640.678417,99.7098468 638.942688,99.7098468 C637.131226,99.7098468 635.816125,100.052254 634.986127,100.737068 C634.166363,101.412429 633.746759,102.233786 633.746759,103.192735 C633.746759,104.024595 634.042529,104.718862 634.623834,105.25663 C635.195929,105.795449 636.712645,106.34372 639.14328,106.901444 C641.574937,107.468621 643.241073,107.967527 644.137594,108.387659 C645.462929,109.004201 646.426996,109.797199 647.055379,110.746696 C647.684785,111.705646 648,112.801138 648,114.053129 C648,115.286214 647.656129,116.449978 646.969411,117.536018 C646.273482,118.63256 645.282806,119.483326 643.995338,120.089365 C642.708892,120.696455 641.249488,121 639.638617,121 C637.598931,121 635.882647,120.696455 634.498977,120.089365 C633.117353,119.473873 632.030475,118.553786 631.239368,117.321751 C630.457471,116.088665 630.03889,114.699081 630,113.152998" id="Fill-44" fill="#231916"></path>
                <path d="M671.922004,111.499781 L671.922004,108.780481 L682,108.769978 L682,117.380569 C680.445564,118.583195 678.851299,119.483326 677.206439,120.090416 C675.562656,120.696455 673.877966,121 672.153447,121 C669.816411,121 667.690366,120.511597 665.786074,119.542144 C663.869942,118.564289 662.434995,117.154748 661.462935,115.295667 C660.481186,113.456543 660,111.392648 660,109.112385 C660,106.852079 660.481186,104.749322 661.453247,102.79151 C662.415619,100.834748 663.809659,99.3768928 665.624602,98.4284464 C667.450311,97.4789497 669.53545,97 671.901551,97 C673.627147,97 675.181582,97.2741357 676.574546,97.822407 C677.958898,98.3601751 679.051524,99.1227133 679.834124,100.092166 C680.626413,101.060569 681.228165,102.322013 681.638303,103.887002 L678.801781,104.650591 C678.440084,103.466871 677.999804,102.53733 677.466947,101.86302 C676.945931,101.187659 676.183784,100.64884 675.202036,100.238162 C674.21921,99.8369365 673.125508,99.6321225 671.922004,99.6321225 C670.477369,99.6321225 669.244801,99.8474398 668.192005,100.267571 C667.139208,100.698206 666.296325,101.265383 665.65582,101.95965 C665.013162,102.654967 664.511523,103.428009 664.150903,104.250416 C663.549151,105.688315 663.239125,107.243851 663.239125,108.926477 C663.239125,110.991422 663.609434,112.723414 664.34144,114.122451 C665.073445,115.510985 666.126242,116.538206 667.52997,117.213567 C668.92401,117.888928 670.408475,118.231335 671.972599,118.231335 C673.335421,118.231335 674.65949,117.977155 675.963106,117.458293 C677.266722,116.948884 678.249547,116.411116 678.911582,115.823982 L678.911582,111.499781 L671.922004,111.499781 Z" id="Fill-45" fill="#231916"></path>
                <path d="M689.156094,107.593411 L695.93749,107.593411 C697.374236,107.593411 698.500334,107.441347 699.313627,107.138306 C700.127998,106.84504 700.750372,106.359522 701.162412,105.701303 C701.593867,105.044171 701.806359,104.326213 701.806359,103.546343 C701.806359,102.413469 701.394319,101.482621 700.579948,100.74294 C699.755868,100.015206 698.470132,99.6513396 696.701166,99.6513396 L689.156094,99.6513396 L689.156094,107.593411 Z M686,121 L686,97 L696.570651,97 C698.691253,97 700.308131,97.2128892 701.413735,97.647357 C702.519338,98.0829109 703.402743,98.8421434 704.066105,99.9239681 C704.71976,101.016655 705.050901,102.230992 705.050901,103.546343 C705.050901,105.246198 704.508347,106.683201 703.413529,107.85735 C702.317633,109.019551 700.630644,109.759232 698.339617,110.082911 C699.172325,110.47719 699.806564,110.882332 700.238019,111.276611 C701.162412,112.125996 702.036109,113.188269 702.860188,114.463432 L707,121 L703.041399,121 L699.886383,116.001448 C698.961991,114.564446 698.209102,113.461984 697.606143,112.692976 C697.012892,111.93483 696.480045,111.398262 696.00868,111.094135 C695.536237,110.791093 695.054086,110.578204 694.571935,110.446778 C694.209513,110.376177 693.627048,110.334902 692.812677,110.334902 L689.156094,110.334902 L689.156094,121 L686,121 Z" id="Fill-46" fill="#231916"></path>
                <path d="M712.275761,109.352246 C712.275761,112.149219 713.056326,114.34984 714.608747,115.963559 C716.169877,117.567829 718.126189,118.379413 720.478771,118.379413 C722.872722,118.379413 724.850807,117.55733 726.392342,115.934162 C727.943674,114.310993 728.714441,112.01273 728.714441,109.019423 C728.714441,107.142176 728.379136,105.48961 727.7205,104.080625 C727.060775,102.672689 726.097316,101.576578 724.819236,100.803841 C723.542245,100.032154 722.111753,99.6405355 720.529938,99.6405355 C718.279689,99.6405355 716.341885,100.383875 714.708903,101.880003 C713.086808,103.366683 712.275761,105.86023 712.275761,109.352246 M709,109.31235 C709,105.459163 710.064704,102.437508 712.204998,100.266285 C714.354002,98.0856118 717.12245,97 720.509254,97 C722.731197,97 724.738676,97.5081587 726.513182,98.5349753 C728.298575,99.5628418 729.657216,100.989676 730.590193,102.818627 C731.532967,104.648629 732,106.72221 732,109.039372 C732,111.385931 731.502485,113.499409 730.51943,115.357758 C729.535287,117.205608 728.146164,118.614594 726.330288,119.572116 C724.525299,120.521239 722.589672,121 720.489658,121 C718.228523,121 716.210158,120.472943 714.425853,119.426178 C712.64046,118.368914 711.291617,116.931581 710.379325,115.102629 C709.456146,113.273678 709,111.347084 709,109.31235" id="Fill-47" fill="#231916"></path>
                <path d="M750.968399,97 L754,97 L754,110.632188 C754,113.00997 753.738905,114.891045 753.217752,116.283959 C752.696598,117.676874 751.761008,118.811287 750.40891,119.6872 C749.047487,120.563112 747.26334,121 745.053359,121 C742.910724,121 741.153514,120.621862 739.793127,119.855973 C738.431704,119.099697 737.456743,117.995193 736.877569,116.553142 C736.289069,115.110023 736,113.13922 736,110.632188 L736,97 L739.030565,97 L739.030565,110.621506 C739.030565,112.661741 739.212917,114.174292 739.580729,115.149546 C739.95683,116.1248 740.5847,116.871462 741.481955,117.398077 C742.38957,117.925761 743.488862,118.184262 744.792264,118.184262 C747.020894,118.184262 748.605077,117.66726 749.549991,116.622574 C750.506303,115.577889 750.968399,113.578245 750.968399,110.621506 L750.968399,97 Z" id="Fill-48" fill="#231916"></path>
                <path d="M761.949288,108.413469 L767.706702,108.413469 C769.60433,108.413469 770.956465,108.028965 771.764116,107.259957 C772.562693,106.500724 772.967023,105.427589 772.967023,104.042723 C772.967023,103.030413 772.723013,102.170167 772.253144,101.461984 C771.783274,100.74294 771.163167,100.268284 770.392823,100.045619 C769.894721,99.9044171 768.984223,99.8338161 767.641163,99.8338161 L761.949288,99.8338161 L761.949288,108.413469 Z M759,121 L759,97 L767.406228,97 C768.880368,97 770.007651,97.0814627 770.788078,97.2335264 C771.886121,97.4246923 772.807711,97.8005069 773.538731,98.3566256 C774.280842,98.9029689 774.872716,99.6719768 775.324437,100.673425 C775.775148,101.665098 776,102.748009 776,103.940623 C776,105.975018 775.399051,107.705286 774.196145,109.121651 C772.985172,110.538016 770.806228,111.236423 767.659312,111.236423 L761.949288,111.236423 L761.949288,121 L759,121 Z" id="Fill-49" fill="#231916"></path>
                <path d="M805.855483,112.468557 L809,113.241565 C808.338845,115.765393 807.146616,117.692661 805.434064,119.012866 C803.732262,120.344624 801.639142,121 799.15578,121 C796.602539,121 794.519095,120.491663 792.917272,119.47289 C791.314375,118.456216 790.09312,116.978469 789.251357,115.051201 C788.420344,113.114481 788,111.040173 788,108.828279 C788,106.411579 788.469796,104.308914 789.411539,102.50873 C790.362957,100.708547 791.705693,99.3389786 793.447271,98.4094788 C795.189925,97.4705265 797.112112,97 799.205232,97 C801.588615,97 803.58283,97.5976106 805.205078,98.7812787 C806.826252,99.9649468 807.958278,101.618091 808.589331,103.760667 L805.494266,104.474859 C804.943842,102.792307 804.141855,101.559275 803.100133,100.786268 C802.049811,100.01431 800.727501,99.6320074 799.146104,99.6320074 C797.322822,99.6320074 795.790877,100.062623 794.568547,100.914402 C793.347292,101.765131 792.476503,102.919391 791.985205,104.358278 C791.485308,105.805566 791.244497,107.283314 791.244497,108.809374 C791.244497,110.786005 791.53476,112.507418 792.126037,113.984114 C792.716238,115.452409 793.62788,116.558356 794.868486,117.282001 C796.111242,118.005645 797.452903,118.377445 798.905293,118.377445 C800.657623,118.377445 802.150865,117.878561 803.371045,116.880793 C804.593376,115.892477 805.424388,114.425233 805.855483,112.468557" id="Fill-50" fill="#231916"></path>
                <path d="M814.275916,109.352246 C814.275916,112.149219 815.056518,114.34984 816.617722,115.963559 C818.169128,117.567829 820.12771,118.379413 822.479315,118.379413 C824.87229,118.379413 826.851557,117.55733 828.393165,115.934162 C829.944571,114.310993 830.715374,112.01273 830.715374,109.019423 C830.715374,107.142176 830.39094,105.48961 829.721386,104.080625 C829.06163,102.672689 828.098126,101.576578 826.819985,100.803841 C825.542933,100.032154 824.12326,99.6405355 822.530484,99.6405355 C820.280129,99.6405355 818.342232,100.383875 816.718972,101.880003 C815.087002,103.366683 814.275916,105.86023 814.275916,109.352246 M811,109.31235 C811,105.459163 812.064754,102.437508 814.21386,100.266285 C816.354255,98.0856118 819.122834,97 822.509798,97 C824.731847,97 826.728534,97.5081587 828.514011,98.5349753 C830.299489,99.5628418 831.658194,100.989676 832.601013,102.818627 C833.534034,104.648629 834,106.72221 834,109.039372 C834,111.385931 833.50355,113.499409 832.520449,115.357758 C831.536259,117.205608 830.14707,118.614594 828.341996,119.572116 C826.536921,120.521239 824.589227,121 822.501089,121 C820.22896,121 818.210499,120.472943 816.42611,119.426178 C814.640632,118.368914 813.292815,116.931581 812.37939,115.102629 C811.456168,113.273678 811,111.347084 811,109.31235" id="Fill-51" fill="#231916"></path>
                <path d="M841.153396,107.593411 L847.921608,107.593411 C849.368397,107.593411 850.492838,107.441347 851.306792,107.138306 C852.120745,106.84504 852.732019,106.359522 853.154628,105.701303 C853.585862,105.044171 853.797166,104.326213 853.797166,103.546343 C853.797166,102.413469 853.385338,101.482621 852.572463,100.74294 C851.747728,100.015206 850.462652,99.6513396 848.695672,99.6513396 L841.153396,99.6513396 L841.153396,107.593411 Z M838,121 L838,97 L848.565224,97 C850.683659,97 852.300785,97.2128892 853.405822,97.647357 C854.510858,98.0829109 855.393809,98.8421434 856.05683,99.9239681 C856.709071,101.016655 857.040043,102.230992 857.040043,103.546343 C857.040043,105.246198 856.497767,106.683201 855.403511,107.85735 C854.309256,109.019551 852.622055,109.759232 850.332204,110.082911 C851.165563,110.47719 851.798398,110.882332 852.23071,111.276611 C853.154628,112.125996 854.027876,113.188269 854.851532,114.463432 L859,121 L855.032651,121 L851.878176,116.001448 C850.955337,114.564446 850.201756,113.461984 849.599107,112.692976 C849.00616,111.93483 848.474665,111.398262 848.003542,111.094135 C847.530263,110.791093 847.04836,110.578204 846.566456,110.446778 C846.205298,110.376177 845.623133,110.334902 844.809179,110.334902 L841.153396,110.334902 L841.153396,121 L838,121 Z" id="Fill-52" fill="#231916"></path>
                <path d="M864.949947,108.413469 L870.706678,108.413469 C872.613154,108.413469 873.965129,108.028965 874.762602,107.259957 C875.562092,106.500724 875.965366,105.427589 875.965366,104.042723 C875.965366,103.030413 875.730459,102.170167 875.25258,101.461984 C874.782766,100.74294 874.162733,100.268284 873.39248,100.045619 C872.904519,99.9044171 871.984047,99.8338161 870.641146,99.8338161 L864.949947,99.8338161 L864.949947,108.413469 Z M862,121 L862,97 L870.406239,97 C871.880204,97 873.007354,97.0814627 873.795754,97.2335264 C874.884593,97.4246923 875.796999,97.8005069 876.539023,98.3566256 C877.280038,98.9029689 877.871842,99.6719768 878.323508,100.673425 C878.774167,101.665098 879,102.748009 879,103.940623 C879,105.975018 878.398114,107.705286 877.186277,109.121651 C875.983513,110.538016 873.814909,111.236423 870.659293,111.236423 L864.949947,111.236423 L864.949947,121 L862,121 Z" id="Fill-53" fill="#231916"></path>
                <path d="M885.285092,109.352246 C885.285092,112.149219 886.065288,114.34984 887.616975,115.963559 C889.177367,117.567829 891.133841,118.379413 893.48531,118.379413 C895.87704,118.379413 897.854189,117.55733 899.394995,115.934162 C900.945593,114.310993 901.715996,112.01273 901.715996,109.019423 C901.715996,107.142176 901.380849,105.48961 900.723613,104.080625 C900.063112,102.672689 899.100109,101.576578 897.823721,100.803841 C896.547334,100.032154 895.117519,99.6405355 893.535365,99.6405355 C891.286181,99.6405355 889.339499,100.383875 887.717084,101.880003 C886.095756,103.366683 885.285092,105.86023 885.285092,109.352246 M882,109.31235 C882,105.459163 883.07617,102.437508 885.224157,100.266285 C887.36235,98.0856118 890.130577,97 893.51469,97 C895.735582,97 897.732318,97.5081587 899.515778,98.5349753 C901.300326,99.5628418 902.658324,100.989676 903.59086,102.818627 C904.524483,104.648629 905,106.72221 905,109.039372 C905,111.385931 904.50272,113.499409 903.520131,115.357758 C902.536453,117.205608 901.137106,118.614594 899.334059,119.572116 C897.539717,120.521239 895.583243,121 893.495103,121 C891.235038,121 889.217628,120.472943 887.434168,119.426178 C885.649619,118.368914 884.302503,116.931581 883.379761,115.102629 C882.466812,113.273678 882,111.347084 882,109.31235" id="Fill-54" fill="#231916"></path>
                <path d="M911.155016,107.593411 L917.926704,107.593411 C919.374236,107.593411 920.499255,107.441347 921.313627,107.138306 C922.127998,106.84504 922.739586,106.359522 923.162412,105.701303 C923.584159,105.044171 923.806359,104.326213 923.806359,103.546343 C923.806359,102.413469 923.394319,101.482621 922.569161,100.74294 C921.755868,100.015206 920.459346,99.6513396 918.701166,99.6513396 L911.155016,99.6513396 L911.155016,107.593411 Z M908,121 L908,97 L918.559864,97 C920.691253,97 922.30921,97.2128892 923.413735,97.647357 C924.508552,98.0829109 925.393035,98.8421434 926.055319,99.9239681 C926.71976,101.016655 927.050901,102.230992 927.050901,103.546343 C927.050901,105.246198 926.498639,106.683201 925.413529,107.85735 C924.317633,109.019551 922.619857,109.759232 920.339617,110.082911 C921.173404,110.47719 921.805486,110.882332 922.238019,111.276611 C923.162412,112.125996 924.036109,113.188269 924.860188,114.463432 L929,121 L925.031691,121 L921.886383,116.001448 C920.961991,114.564446 920.198315,113.461984 919.606143,112.692976 C919.011814,111.93483 918.480045,111.398262 918.00868,111.094135 C917.535158,110.791093 917.054086,110.578204 916.570856,110.446778 C916.209513,110.376177 915.627048,110.334902 914.812677,110.334902 L911.155016,110.334902 L911.155016,121 L908,121 Z" id="Fill-55" fill="#231916"></path>
                <path d="M935.788298,111.134323 L943.745745,111.134323 L941.298936,104.497828 C940.555319,102.473208 940,100.824403 939.632979,99.5188269 C939.33617,101.056843 938.910638,102.585083 938.364894,104.102462 L935.788298,111.134323 Z M929,121 L938.02766,97 L941.37766,97 L951,121 L947.452128,121 L944.718085,113.735699 L934.88617,113.735699 L932.301064,121 L929,121 Z" id="Fill-56" fill="#231916"></path>
                <polygon id="Fill-57" fill="#231916" points="956.47773 121 956.47773 99.8338161 949 99.8338161 949 97 967 97 967 99.8338161 959.484239 99.8338161 959.484239 121"></polygon>
                <polygon id="Fill-58" fill="#231916" points="972 121 975 121 975 97 972 97"></polygon>
                <path d="M982.275761,109.352246 C982.275761,112.149219 983.056326,114.34984 984.617456,115.963559 C986.169877,117.567829 988.127278,118.379413 990.47986,118.379413 C992.872722,118.379413 994.850807,117.55733 996.392342,115.934162 C997.943674,114.310993 998.714441,112.01273 998.714441,109.019423 C998.714441,107.142176 998.379136,105.48961 997.7205,104.080625 C997.060775,102.672689 996.097316,101.576578 994.819236,100.803841 C993.542245,100.032154 992.112841,99.6405355 990.531027,99.6405355 C988.279689,99.6405355 986.333176,100.383875 984.708903,101.880003 C983.086808,103.366683 982.275761,105.86023 982.275761,109.352246 M979,109.31235 C979,105.459163 980.064704,102.437508 982.214796,100.266285 C984.354002,98.0856118 987.12245,97 990.510342,97 C992.731197,97 994.728878,97.5081587 996.513182,98.5349753 C998.298575,99.5628418 999.657216,100.989676 1000.59019,102.818627 C1001.53297,104.648629 1002,106.72221 1002,109.039372 C1002,111.385931 1001.50357,113.499409 1000.51943,115.357758 C999.535287,117.205608 998.146164,118.614594 996.331377,119.572116 C994.536186,120.521239 992.589672,121 990.500544,121 C988.228523,121 986.210158,120.472943 984.425853,119.426178 C982.64046,118.368914 981.292706,116.931581 980.368438,115.102629 C979.456146,113.273678 979,111.347084 979,109.31235" id="Fill-59" fill="#231916"></path>
                <polygon id="Fill-60" fill="#231916" points="1006 121 1006 97 1009.10081 97 1021.10184 115.840695 1021.10184 97 1024 97 1024 121 1020.89919 121 1008.89919 102.14084 1008.89919 121"></polygon>
            </g>
        </g>
    </g>
</svg>