<?xml version="1.0" encoding="UTF-8"?>
<svg width="1025px" height="316px" viewBox="0 0 1025 316" version="1.1" xmlns="http://www.w3.org/2000/svg" xmlns:xlink="http://www.w3.org/1999/xlink">
    <title>中国移动通信集团有限公司@2x</title>
    <defs>
        <polygon id="path-1" points="0 0 302 0 302 151 0 151"></polygon>
        <polygon id="path-3" points="0 0 302 0 302 151 0 151"></polygon>
    </defs>
    <g id="页面-1" stroke="none" stroke-width="1" fill="none" fill-rule="evenodd">
        <g id="25.中国移动通信集团有限公司" transform="translate(0.000000, -226.000000)">
            <g id="中国移动通信集团有限公司" transform="translate(0.000000, 226.000000)">
                <path d="M312.10856,195.347594 C283.93953,157.799904 241.864271,119.383539 230.238603,109.873055 C222.082065,103.215716 213.984954,99.8833024 205.984415,100.00312 C197.969019,100.085494 190.235907,103.432885 183.379363,109.431229 C182.005083,110.644378 180.029091,112.41168 177.599958,114.590854 C160.88574,128.811649 109.197948,176.686078 108.01681,177.809363 C104.101968,181.501228 99.0802741,183.927525 93.442011,183.732822 C88.4797453,183.530631 83.0271958,181.28406 77.4409326,176.064526 C73.6078051,172.470013 55.9501619,158.518807 35.3136735,135.132002 C22.618296,120.746459 12.1366239,107.933515 12.1366239,107.933515 C12.1366239,107.933515 9.81149045,112.763643 8.50406714,116.126011 C7.41207153,118.934225 8.35549631,120.701527 8.8903513,121.47285 C15.7691808,131.432648 47.2587683,169.399699 90.656308,207.10465 C98.6122759,214.0166 106.902528,217.109379 114.903068,216.997051 C122.925892,216.892211 130.659004,213.559797 137.515548,207.546475 C138.8824,206.355793 140.858392,204.573513 143.294953,202.394339 C160.009172,188.181033 191.327903,159.252686 206.170129,145.376366 C209.342116,142.470801 211.689535,140.306604 212.870673,139.183318 C216.785515,135.483965 221.814637,133.057668 227.4529,133.25986 C232.422595,133.462051 237.659716,135.933279 243.44655,140.928155 C252.724799,148.910971 267.760167,162.929574 285.581238,181.853191 C298.670328,195.781932 308.669145,208.789578 308.780573,208.931861 C308.780573,208.931861 311.217135,203.929496 312.509701,200.507219 C313.571982,197.684028 312.658272,196.096451 312.10856,195.347594" id="Fill-1" fill="#8EC31F"></path>
                <path d="M143.515733,56.7753905 C128.908599,67.4264562 68.7931894,123.23267 57,136.576337 C57,136.576337 65.4642258,145.899749 78.1531005,156.416558 C81.4372799,159.228499 85.4380074,158.6318 88.8640036,155.178409 C112.017468,131.914631 159.264866,90.2874621 165.616767,85.2080673 C183.425976,70.0892227 204.168554,68.7541101 223.17201,82.985366 C269.31473,117.534201 310.113194,171.863587 317.136859,182 C317.136859,182 318.181825,177.002651 318.816269,172.519955 C318.853589,172.251441 319.70449,168.216268 317.398101,164.822546 C274.121574,102.378063 228.075887,63.8462661 210.401031,54.2468812 C190.158544,43.2154203 166.796086,39.7844047 143.515733,56.7753905" id="Fill-3" fill="#0085CF"></path>
                <g id="编组" transform="translate(17.000000, 0.000000)">
                    <mask id="mask-2" fill="white">
                        <use xlink:href="#path-1"></use>
                    </mask>
                    <g id="Clip-6"></g>
                    <path d="M77.5693614,25.3289646 C47.8973283,49.4039904 9.69430589,84.8348778 0,95.5240694 C0,95.5240694 7.21852931,104.565313 18.5757815,115.718926 C20.7681861,117.599085 23.0799052,117.09721 25.003852,115.059747 C54.3477703,86.5951861 86.1525507,57.5388622 104.594103,43.2166938 C135.720282,19.0293079 172.223073,16.6922176 207.808633,45.2616477 C221.060003,55.913386 232.827399,66.4302921 250.001235,84.1981705 C271.970023,108.258215 286.317596,128.355693 302,151 C302,151 301.932886,144.947536 300.187911,136.895061 C299.897081,135.531758 299.285594,133.314519 298.331078,131.359453 C295.184157,124.999871 281.306386,101.119603 261.201887,77.5314708 C221.313546,30.7447218 196.13818,16.4824788 180.000889,7.98805461 C158.606302,-3.31537225 116.898415,-6.61126875 77.5693614,25.3289646" id="Fill-5" fill="#0085CF" mask="url(#mask-2)"></path>
                </g>
                <path d="M175.492715,259.223156 C190.084755,248.57158 250.214409,192.770148 262,179.425841 C262,179.425841 253.53587,170.087064 240.839676,159.584669 C237.555534,156.772593 233.554852,157.36932 230.128895,160.807959 C206.983158,184.087771 159.736298,225.716937 153.384469,230.796575 C135.567999,245.916145 114.825657,247.251321 95.8224169,233.019383 C49.6727584,198.468891 8.88968646,144.121981 1.85863709,134 C1.85863709,134 0.813682827,138.997588 0.186710271,143.4805 C0.149390476,143.734109 -0.708964809,147.784393 1.59739852,151.178278 C44.8734328,213.618297 90.9260598,252.159401 108.608179,261.759246 C128.842971,272.783777 152.197699,276.214957 175.492715,259.223156" id="Fill-7" fill="#0085CF"></path>
                <g id="编组" transform="translate(0.000000, 165.000000)">
                    <mask id="mask-4" fill="white">
                        <use xlink:href="#path-3"></use>
                    </mask>
                    <g id="Clip-10"></g>
                    <path d="M224.437904,125.665385 C254.095096,101.592876 292.298213,66.1731835 302,55.4851096 C302,55.4851096 294.773996,46.4448116 283.43163,35.2923645 C281.23922,33.412402 278.920038,33.9142247 276.996086,35.9514749 C247.652096,64.4130592 215.854694,93.458855 197.413095,107.779526 C166.28684,131.971872 129.776502,134.301228 94.1983115,105.734786 C80.9394512,95.0916511 69.1794834,84.5758447 51.9906909,66.8098242 C30.0367624,42.7522956 15.6891543,22.6569191 -0.00176052095,0 C-0.00176052095,0 -0.105146193,5.85709445 1.80389107,14.1184438 C2.12454967,15.474114 2.70620946,17.6836317 3.66818526,19.6459831 C6.83002822,26.0123901 20.6929199,49.8901613 40.7974685,73.4758268 C80.6859072,120.257684 105.861336,134.510945 122.006124,143.011971 C143.400764,154.314216 185.101297,157.609768 224.437904,125.665385" id="Fill-9" fill="#0085CF" mask="url(#mask-4)"></path>
                </g>
                <path d="M461.313024,109.068083 L503.322451,109.068083 L503.322451,58.4640759 L461.313024,58.4640759 L461.313024,109.068083 Z M404.626049,109.068083 L446.120474,109.068083 L446.120474,58.4640759 L404.626049,58.4640759 L404.626049,109.068083 Z M461.313024,17 L446.120474,17 L446.120474,44.8433499 L390,44.8433499 L390,122.733394 L446.120474,122.733394 L446.120474,165 L461.313024,165 L461.313024,122.733394 L518,122.733394 L518,44.8433499 L461.313024,44.8433499 L461.313024,17 Z" id="Fill-11" fill="#0085CF"></path>
                <path d="M642.804724,94 L632,102.087193 L633.092008,103.208719 C637.50618,107.809264 643.112332,114.553678 647.826421,120.863215 L648.733864,122 L660,113.485559 L659.107937,112.348774 C655.109036,107.290463 649.164515,100.584196 643.650645,94.9231608 L642.804724,94 Z" id="Fill-13" fill="#0085CF"></path>
                <polygon id="Fill-14" fill="#0085CF" points="666 124.248419 628.768366 124.248419 628.768366 93.7455113 660.666213 93.7455113 660.666213 81.0384388 628.768366 81.0384388 628.768366 61.7219085 663.640249 61.7219085 663.640249 49 580.329786 49 580.329786 61.7219085 615.044352 61.7219085 615.044352 81.0384388 583.168979 81.0384388 583.168979 93.7455113 615.044352 93.7455113 615.044352 124.248419 578 124.248419 578 137 666 137"></polygon>
                <path d="M569.024871,148.713399 L671.997343,148.713399 L671.997343,36.1750735 L569.024871,36.1750735 L569.024871,148.713399 Z M555,162 L686,161.910778 L686,23 L555,23 L555,162 Z" id="Fill-15" fill="#0085CF"></path>
                <path d="M775.98508,102.391855 C769.534698,96.7873744 752.010409,82.7092755 752.010409,82.7092755 L752.010409,75.3654732 L772.68471,75.3654732 L772.68471,62.1570352 L752.010409,62.1570352 L752.010409,40.82433 C766.62526,38.4680695 773.053088,36.5429229 773.053088,36.5429229 L770.203794,23 C770.203794,23 757.220333,26.2705193 743.876012,28.0544389 C726.765209,30.3289363 716.540828,31.3249581 716.540828,31.3249581 L718.059449,44.6374581 C718.059449,44.6374581 729.449109,43.4407454 738.237567,41.8946817 L738.237567,62.1570352 L714.713972,62.1570352 L714.713972,75.3654732 L736.207726,75.3654732 C730.411404,93.0931742 721.585357,110.255967 712,123.79889 C712,123.79889 722.043951,134.539573 722.164238,134.38348 C728.298867,125.835532 733.719292,116.232098 738.237567,105.811034 L738.237567,165 L752.010409,165 L752.010409,100.080193 C757.1226,104.666353 761.821305,108.992358 766.234328,113.073074 L767.24173,114.076528 L777,103.298681 L775.98508,102.391855 Z" id="Fill-16" fill="#0085CF"></path>
                <path d="M825.429,92.6701709 C827.852695,89.4551841 828.874375,85.8567585 828.874375,85.8567585 L815.301684,83.6003687 C817.881987,82.1993423 820.357884,80.7172039 822.781579,79.2055702 C839.016606,68.9264611 850.441531,56.7817747 857.556008,43.1254546 L857.720074,42.8157541 L857.720074,30.6120771 L809.932267,30.6120771 C811.438687,28.2155847 812.848159,25.7306063 814.145768,23.2530018 L814.839317,21.8962184 L801.73645,17 L801.214423,18.0765781 C793.838933,32.7726072 783.115015,45.8390215 769.40063,56.9439988 C769.266395,57.0693538 776.47782,62.5407304 780.713693,65.1953067 C788.984085,57.9247173 795.777889,50.7057446 800.908665,43.7079866 L841.127085,43.7079866 C834.042439,52.8441533 827.069655,60.2990882 819.052818,65.4828858 C813.743061,60.8226297 809.1716,57.0988491 802.340509,51.8044442 L801.363573,51.0670619 L792.720304,60.3433312 L793.84639,61.2281899 C799.939187,66.1760251 803.444222,69.2509093 807.45637,73.0189328 C796.933805,78.6599073 785.397017,83.1063226 772.219574,86.9775796 C772.219574,86.9775796 780.855386,98.5397339 781.108941,98.4512481 C788.916968,95.7524289 804.794034,88.79154 811.654955,85.7019082 C802.57915,103.458074 782.645191,117.660057 768.811486,125.129739 C768.811486,125.129739 774.777504,131.456479 779.453371,135.143391 C801.520181,125.129739 816.658953,105.729211 816.658953,105.729211 L847.108019,105.729211 C845.14669,116.111554 835.981395,128.978875 823.16937,136.743511 C818.060967,131.758806 813.101714,126.833093 807.046206,121.450202 L797.336511,129.812117 C802.661182,134.67884 807.374337,139.685666 811.349197,143.807633 C791.929807,152.125305 766,153.290369 766,153.290369 L771.384332,165 C771.384332,165 847.488352,163.097554 862.895595,105.235165 L863,92.6701709 L825.429,92.6701709 Z" id="Fill-17" fill="#0085CF"></path>
                <polygon id="Fill-18" fill="#0085CF" points="888 45 951 45 951 31 888 31"></polygon>
                <path d="M950.665601,139.624355 C946.28874,128.652875 939.553402,113.180081 934.53332,102.11091 L933.949246,100.863468 L921.402738,106.589679 L921.964632,107.874694 C925.284244,115.389407 928.293336,122.220281 931.332001,129.975464 L898.956539,137.738162 C906.105905,125.879946 915.029673,99.1125396 919.872315,84.8195564 L954,84.8195564 L954,71 L880.547108,71 L880.547108,84.8195564 L904.715956,84.8195564 C903.274253,92.6649163 894.838445,118.688366 883.400939,139.932458 C881.974023,142.540063 880,144.110638 880,144.110638 L884.051554,154 C884.051554,154 923.502448,143.186329 935.353981,141.360254 L936.766111,144.98986 L950.665601,139.624355 Z" id="Fill-19" fill="#0085CF"></path>
                <path d="M985.74084,47.4006744 C985.910156,37.8386889 986.050025,28.1269463 986.057387,18.4002281 L986.057387,17 L971.378451,17 L971.378451,18.3478132 C971.42262,28.3216305 971.378451,37.9884459 971.275389,47.4006744 L952.260499,47.4006744 L952.260499,61.4628583 L971.076627,61.4628583 L971.076627,80.1375583 C971.076627,108.56144 966.284256,123.065407 955.389158,139.935535 C948.896269,150.23133 937,157.210007 937,157.210007 L947.931906,168 C947.931906,168 985.196085,148.172171 985.196085,85.9106913 L985.468462,61.4628583 L1010.41676,61.4628583 C1010.13703,86.9140633 1009.23155,111.960924 1007.8255,135.937023 C1007.58257,143.432361 1004.46127,146.929188 997.983102,146.929188 C992.550276,146.809382 981.574201,146.779431 981.574201,146.779431 C982.428141,151.257166 984.055044,161.702717 984.055044,161.702717 L1001.62707,161.702717 C1014.05337,161.478082 1020.93642,153.930328 1022.05538,139.164286 C1023.3142,116.483586 1024.28593,86.0304969 1024.97792,48.8458296 L1025,47.4006744 L985.74084,47.4006744 Z" id="Fill-20" fill="#0085CF"></path>
                <path d="M522.469537,223.188812 C520.556574,221.621871 518.460376,220.550143 516.22492,219.914497 C511.885937,218.746682 507.36372,218.746682 503.589098,219.803628 C501.778745,220.276667 500.019698,220.956661 498.443885,221.806652 C496.853413,222.619688 495.372881,223.65446 494.038937,224.837057 C493.445259,225.420964 492.822263,225.975307 492.316537,226.566605 L492.316537,191 L481,191 L481,279 L492.316537,279 L492.316537,238.237359 C494.251489,235.465648 496.618873,233.203931 499.272103,231.585251 C502.005955,229.944398 504.886395,229.101797 507.869446,229.101797 C511.402199,229.101797 513.850206,230.107005 515.367384,232.124811 C516.91388,234.164791 517.705451,237.416933 517.705451,241.703847 L517.705451,279 L529,279 L529,240.210818 C529,235.946078 528.406322,232.435243 527.204306,229.707878 C525.987632,226.950949 524.419148,224.770536 522.469537,223.188812" id="Fill-21" fill="#0085CF"></path>
                <polygon id="Fill-22" fill="#0085CF" points="544 210 555 210 555 199 544 199"></polygon>
                <polygon id="Fill-23" fill="#0085CF" points="544 282 555 282 555 222 544 222"></polygon>
                <path d="M609.334402,223.814316 C607.575355,222.120506 605.44984,220.848298 603.075126,220.09385 C598.794778,218.740281 593.517636,218.658919 589.354558,219.761005 C587.456253,220.241781 585.689876,220.914867 584.084746,221.824643 C582.494274,222.697437 581.013743,223.732954 579.745763,224.923799 C578.96885,225.619075 578.228585,226.38092 577.517636,227.150162 L576.029776,220.478471 L567,220.478471 L567,279 L578.27989,279 L578.27989,238.208009 C580.280806,235.434301 582.640861,233.178353 585.360055,231.551111 C588.093907,229.909076 590.974347,229.065869 593.891434,229.065869 C597.16033,229.065869 599.542373,230.012628 601.19148,231.906145 C602.869904,233.829249 603.690792,237.105922 603.690792,241.676992 L603.690792,279 L615,279 L615,240.182889 C615,236.38106 614.494274,233.045215 613.519469,230.389852 C612.478699,227.7123 611.071461,225.493334 609.334402,223.814316" id="Fill-24" fill="#0085CF"></path>
                <path d="M660.376412,254.896054 L660.376412,265.067613 C659.962359,265.49206 659.40527,265.977141 658.712673,266.560756 C657.824341,267.364172 656.72522,268.114533 655.430364,268.895212 C654.165621,269.660731 652.690088,270.358037 651.06399,270.888595 C648.278545,271.83602 644.762861,272.025505 641.879548,271.138715 C640.712673,270.752166 639.636136,270.19129 638.80803,269.42577 C637.972396,268.66025 637.287327,267.682507 636.775408,266.515279 C636.286073,265.325313 636.030113,263.885226 636.030113,262.293551 C636.030113,259.102623 637.001255,256.85154 638.920954,255.358397 C640.991217,253.812199 643.882058,253.054259 647.563363,253.054259 C650.311167,253.061838 652.908407,253.304379 655.174404,253.743985 C657.131744,254.115375 658.878294,254.479187 660.376412,254.896054 M670.178168,230.929981 C668.499373,227.322185 665.646173,224.419273 661.791719,222.221246 C657.952321,220.106593 653.006274,219 647.043915,219 C645.387704,219 643.723965,219.083373 642.105395,219.242541 C640.441656,219.416867 638.860728,219.659408 637.377666,219.955005 C635.902133,220.280919 634.471769,220.629572 633.146801,221.084336 C631.761606,221.531521 630.579674,222.009023 629.570891,222.524423 L628.938519,222.820019 L628.938519,233.067372 L630.474279,232.476179 C632.943538,231.559071 635.457967,230.80871 637.949812,230.270573 C640.4266,229.762753 643.069009,229.459577 645.892095,229.459577 C649.558344,229.459577 652.50941,230.073508 654.647428,231.210419 C656.717691,232.400385 658.25345,233.878369 659.171895,235.606473 C659.608532,236.409889 659.917189,237.380053 660.097867,238.463908 C660.293601,239.631136 660.376412,240.980269 660.376412,242.480991 L660.376412,244.974615 C658.667503,244.413739 656.747804,243.974134 654.715182,243.549687 C652.132999,243.072185 649.279799,242.776588 646.238394,242.74627 C642.97867,242.74627 640.005019,243.193455 637.294856,244.057507 C634.614806,244.967036 632.228356,246.240375 630.248432,247.938162 C628.283563,249.598051 626.747804,251.705125 625.656211,254.085058 C624.59473,256.480149 624,259.246631 624,262.293551 C624,265.325313 624.51192,268.091795 625.475533,270.539942 C626.454203,272.98051 627.884567,275.087584 629.631117,276.79295 C631.415307,278.483157 633.560853,279.817132 636.007528,280.688763 C638.416562,281.560395 641.111669,282 644.025094,282 C646.140527,282 648.188206,281.757459 650.070263,281.279957 C651.959849,280.840351 653.713927,280.203681 655.287327,279.430582 C656.898369,278.657483 658.321205,277.732796 659.540778,276.755053 C660.165621,276.254812 660.700125,275.754572 661.204517,275.254331 L662.047679,280.491699 L672,280.491699 L672,240.821102 C672,238.918672 671.841907,237.129933 671.563363,235.530679 C671.322459,233.878369 670.825596,232.309432 670.178168,230.929981" id="Fill-25" fill="#0085CF"></path>
                <path d="M460.345359,255.372327 C454.604877,264.995531 444.13207,270.954171 432.921954,270.954171 C415.407088,270.954171 401.142404,256.854539 401.142404,239.477655 C401.142404,222.152909 415.407088,208.045829 432.921954,208.045829 C444.086929,208.045829 454.529641,213.915089 460.240029,223.448913 L460.586113,224.000088 L472.917241,224.000088 L472.232596,222.435945 C465.356055,206.98817 449.947788,197 432.921954,197 C409.267857,197 390,216.067648 390,239.477655 C390,262.902559 409.267857,282 432.921954,282 C450.0155,282 465.476432,271.952243 472.292785,256.422538 L473,254.865843 L460.653825,254.865843 L460.345359,255.372327 Z" id="Fill-26" fill="#0085CF"></path>
                <path d="M753.768327,245.342922 C752.08777,249.327223 749.964567,254.802813 747.488746,261.739564 C745.245503,255.465608 743.15231,249.967423 741.231673,245.365517 L722.02531,199 L706,199 L706,282 L718.0715,282 L718.0715,241.82559 C718.0715,234.128131 717.853928,225.707623 717.471301,216.729764 C719.647022,222.521688 721.822742,227.967151 723.930941,233.073684 L744.517762,282 L750.504746,282 L771.054054,233.073684 C773.102233,228.260889 775.262949,222.785299 777.521197,216.714701 C777.13857,225.805535 776.95851,234.263702 776.95851,241.82559 L776.95851,282 L789,282 L789,199 L772.989695,199 L753.768327,245.342922 Z" id="Fill-27" fill="#0085CF"></path>
                <path d="M905.437394,250.493928 C905.437394,253.711442 905.075383,256.650805 904.409284,259.28195 C903.764906,261.890541 902.772998,264.160843 901.469761,266.032714 C900.238927,267.874515 898.646082,269.280297 896.785349,270.310202 C894.895656,271.287485 892.687394,271.798678 890.211244,271.798678 C888.567717,271.798678 887.032794,271.558116 885.657155,271.039405 C884.281516,270.528211 882.978279,269.889219 881.863288,269.152499 C880.733816,268.430814 879.734668,267.626435 878.945486,266.769434 C878.221465,266.040231 877.606048,265.341099 877.142675,264.702107 L877.142675,235.631722 C878.880324,233.925238 880.842419,232.542007 883.036201,231.482032 C886.837308,229.595126 891.268313,229.174143 895.576235,230.640066 C897.212521,231.173812 898.805366,232.16613 900.289608,233.63957 C901.75937,235.097976 902.982964,237.187856 903.967632,239.849071 C904.930579,242.532838 905.437394,246.133746 905.437394,250.493928 M912.800681,231.339199 C911.490204,229.106485 909.977002,227.197026 908.268313,225.685998 C906.581346,224.174969 904.793015,222.957125 902.946763,222.032466 C901.143952,221.085254 899.247019,220.423709 897.357325,220.077902 C895.503833,219.686989 893.751704,219.506568 892.137138,219.506568 C888.640119,219.506568 885.46891,220.14556 882.695911,221.393474 C880.683135,222.348203 878.815162,223.55853 877.142675,225.03197 L877.142675,191 L866,191 L866,280.496489 L874.659284,280.496489 L876.208688,275.226683 C876.396934,275.42214 876.563458,275.602561 876.744463,275.82057 C877.548126,276.790335 878.626917,277.692441 879.959114,278.639653 C881.291312,279.556795 882.934838,280.353656 884.78109,281.022718 C886.706985,281.646675 888.922487,282 891.369676,282 C894.620528,282 897.835179,281.330938 900.897785,280.052953 C903.967632,278.752416 906.71167,276.737712 909.100937,274.084015 C911.468484,271.437836 913.416099,268.039901 914.835179,264.002974 C916.261499,260.04874 917,255.207435 917,249.764725 C917,245.840562 916.594549,242.337381 915.848807,239.277736 C915.095826,236.240644 914.089438,233.57943 912.800681,231.339199" id="Fill-28" fill="#0085CF"></path>
                <polygon id="Fill-29" fill="#0085CF" points="928 282 939 282 939 222 928 222"></polygon>
                <polygon id="Fill-30" fill="#0085CF" points="928 210 939 210 939 199 928 199"></polygon>
                <polygon id="Fill-31" fill="#0085CF" points="951 279 962 279 962 191 951 191"></polygon>
                <path d="M986.102839,243.234795 C986.380462,241.551988 986.845667,240.020785 987.468442,238.512323 C988.278799,236.685492 989.306753,235.093647 990.612329,233.714049 C991.880388,232.379931 993.40356,231.27322 995.106812,230.507619 C998.490805,228.946095 1002.91025,228.976416 1005.91908,230.462138 C1007.44976,231.204998 1008.71782,232.273808 1009.73827,233.585185 C1010.78873,234.934463 1011.59909,236.526307 1012.11682,238.345558 C1012.58202,239.884341 1012.82213,241.514087 1012.93468,243.234795 L986.102839,243.234795 Z M1023.15419,235.374115 C1021.94615,231.61433 1020.25791,228.491282 1018.11946,226.050454 C1015.95851,223.609626 1013.39238,221.813115 1010.47359,220.668503 C1004.46344,218.371699 997.170222,218.4096 990.867442,221.009613 C987.626011,222.366471 984.714727,224.413128 982.201118,227.119264 C979.717522,229.810239 977.706635,233.221335 976.19847,237.178206 C974.757834,241.157817 974,245.92577 974,251.300141 C974,256.742733 974.787848,261.510687 976.31102,265.406916 C977.826688,269.341046 980.017655,272.562636 982.756363,275.018625 C985.502575,277.474613 988.781521,279.271124 992.533176,280.362674 C996.194792,281.461805 1000.17155,282 1004.3659,282 C1007.83243,282 1011.1789,281.711952 1014.21774,281.105535 C1017.33162,280.506698 1019.96528,279.650134 1022.11123,278.619225 L1022.71149,278.285696 L1022.71149,268.166113 L1021.21833,268.681567 C1018.74224,269.583612 1016.22863,270.311313 1013.76004,270.781286 C1011.32147,271.274 1008.55274,271.539307 1005.56643,271.539307 C1002.69266,271.539307 999.991467,271.160297 997.545388,270.485658 C995.159335,269.780698 993.028395,268.689147 991.27262,267.188265 C989.479329,265.732865 988.083713,263.76959 987.040753,261.389403 C986.132853,259.206302 985.637634,256.613869 985.532588,253.589365 L1024.89495,253.589365 L1024.93997,252.482654 C1024.97749,251.254659 1025,250.435997 1025,250.079727 L1025,248.851732 C1025,243.644126 1024.38473,239.11116 1023.15419,235.374115 L1023.15419,235.374115 Z" id="Fill-32" fill="#0085CF"></path>
                <path d="M828.488599,271.747014 C816.745928,271.747014 807.237785,262.238871 807.237785,250.473398 C807.237785,238.745928 816.745928,229.237785 828.488599,229.237785 C840.238871,229.237785 849.739414,238.745928 849.739414,250.473398 C849.739414,262.238871 840.238871,271.747014 828.488599,271.747014 M828.488599,219 C811.098806,219 797,233.091205 797,250.473398 C797,267.901194 811.098806,282 828.488599,282 C845.901194,282 860,267.901194 860,250.473398 C860,233.091205 845.901194,219 828.488599,219" id="Fill-33" fill="#0085CF"></path>
            </g>
        </g>
    </g>
</svg>