<?xml version="1.0" encoding="UTF-8"?>
<svg width="1024px" height="353px" viewBox="0 0 1024 353" version="1.1" xmlns="http://www.w3.org/2000/svg" xmlns:xlink="http://www.w3.org/1999/xlink">
    <title>中国石油化工集团有限公司@2x</title>
    <defs>
        <polygon id="path-1" points="0 353 1024 353 1024 0 0 0"></polygon>
    </defs>
    <g id="页面-1" stroke="none" stroke-width="1" fill="none" fill-rule="evenodd">
        <g id="12.中国石油化工集团有限公司" transform="translate(0.000000, -207.000000)">
            <g id="中国石油化工集团有限公司" transform="translate(0.000000, 207.000000)">
                <polygon id="Fill-1" fill="#231916" points="251 288.706518 251 336.152325 269.452609 353 289.641407 334.47055 264.444257 334.47055 264.444257 320.061747 289.145353 320.061747 289.145353 305.515291 264.444257 305.515291 264.444257 289.930443 290 289.930443 270.160831 271"></polygon>
                <polygon id="Fill-2" fill="#231916" points="300 289.365943 300 337.349917 316.535144 353 336 334.092487 336 318.980301 322.552529 318.980301 322.588294 334.414023 312.604024 334.414023 312.604024 290.715192 322.749234 290.715192 322.823744 306.428381 336 306.428381 336 289.365943 317.575296 272"></polygon>
                <g id="编组">
                    <path d="M85.6569132,352.701923 L99.3269397,352.701923 L99.3269397,32.1402621 C99.3269397,32.1402621 91.8599423,33.4840037 85.6569132,38.751231 L85.6569132,352.701923 Z" id="Fill-3" fill="#231916"></path>
                    <path d="M141.788786,14.7850473 C138.55698,15.428487 134.908845,16.766243 134.908845,16.766243 L134.875898,155.833016 L121.184905,20.5191425 C115.622845,22.2160277 107.574782,27.8064713 107.574782,27.8064713 L107.595748,352.701624 L121.739014,352.701624 L121.739014,218.710542 L134.875898,352.701624 L148.270367,352.701624 L148.270367,13.5400663 C148.270367,13.5400663 144.999624,14.1595641 141.788786,14.7850473" id="Fill-5" fill="#231916"></path>
                    <path d="M63.9636834,187.076652 C50.4553969,192.266068 37.1687541,204.308865 27.1049309,216.378597 C17.0650692,228.418402 8.2262769,248.326127 7.60627351,259.794317 C7.00723641,271.268493 8.64260768,280.854248 15.9358843,286.274106 C23.2561176,291.702941 33.06535,295.524674 40.1968866,302.330171 C48.1251426,309.86889 46.8791454,319.876622 43.3957447,325.027132 C40.8767937,328.794995 35.2698065,331.503428 32.0230255,331.503428 C28.3119907,331.503428 24.247524,330.39312 24.247524,330.39312 L0.00149759274,352.701025 L54.2113595,352.701025 C54.2113595,352.701025 69.9151169,341.753572 70.4272936,325.455094 C71.0353163,306.160882 58.1590139,294.18991 45.6631001,287.019299 C38.2590016,282.805517 32.5052503,284.541307 28.1262892,278.472025 C22.7020083,270.963233 24.3643362,251.04653 28.0154673,241.691216 C31.675584,232.341887 36.6236304,221.325601 54.9511703,201.603426 C67.6537519,187.908635 77.199408,184.239532 77.199408,184.239532 C77.199408,184.239532 78.7718804,181.420368 63.9636834,187.076652" id="Fill-7" fill="#231916"></path>
                    <path d="M77.4363272,302.0707 L77.4363272,286.484495 C61.1455134,273.211681 47.6432173,256.667799 37.8669319,237.885345 C36.7167806,240.536915 35.6984176,243.104688 34.704016,245.621585 C33.8204363,247.869135 33.0147314,250.46085 32.2599447,253.26505 C43.9172065,272.400648 59.3124599,289.013363 77.4363272,302.0707" id="Fill-9" fill="#E50113"></path>
                    <path d="M174.892474,0.000897822843 C82.7276218,0.000897822843 8.01871055,74.65786 8.01871055,166.747549 C8.01871055,185.553945 11.2025927,203.597191 16.9443633,220.455311 C19.7149098,215.622032 22.6382108,210.944375 25.6933,206.571978 C22.2967597,193.855813 20.427764,180.532122 20.427764,166.747549 C20.427764,81.5172265 89.5836014,12.414795 174.892474,12.414795 C260.204342,12.414795 329.354189,81.5172265 329.354189,166.747549 C329.354189,208.460398 312.766852,246.279689 285.876077,274.052342 L294.867623,282.599616 C323.88498,252.60934 341.772228,211.776357 341.772228,166.747549 C341.772228,74.65786 267.063317,0.000897822843 174.892474,0.000897822843" id="Fill-11" fill="#E50113"></path>
                    <path d="M171.369237,163.393283 C171.713684,162.519402 173.124416,162.630133 174.010991,162.857582 C174.891575,163.073059 174.993412,163.830223 174.121813,164.156432 C173.253209,164.485634 172.477456,165.892223 172.477456,165.892223 C172.477456,165.892223 171.49204,167.322754 171.16257,165.892223 C170.979863,165.120095 171.051748,164.258186 171.369237,163.393283 M158.400084,173.951679 C158.525882,172.428373 159.340572,171.066675 160.311013,169.693006 C161.275462,168.32233 164.019052,165.817405 165.699351,165.138052 C167.328732,164.449721 168.550768,163.973875 168.700527,165.08119 C168.82333,166.176534 168.700527,168.483938 168.700527,168.483938 C168.700527,168.483938 167.442549,170.985871 166.457133,171.740043 C165.474712,172.51217 163.713543,173.475833 163.590741,174.463439 C163.512866,175.433087 163.782433,176.710988 164.698959,177.061139 C165.792202,177.49808 167.673178,176.75588 167.673178,176.75588 C167.673178,176.75588 167.328732,184.240729 167.442549,187.703333 C167.556366,191.165936 167.673178,196.816235 167.556366,198.453265 C167.442549,200.072339 167.20593,203.780347 167.442549,204.965473 C167.688154,206.204469 168.311153,206.494765 169.194733,206.494765 C170.084303,206.494765 170.943921,205.629862 170.848075,203.121944 C170.710297,200.631982 170.293966,193.575094 170.710297,192.602453 C171.16257,191.632804 171.369237,187.82005 171.16257,185.868781 C170.943921,183.905542 170.293966,181.526312 170.848075,180.424982 C171.369237,179.362558 170.848075,178.168454 170.848075,177.399319 C170.848075,176.648141 170.60846,175.433087 171.929337,174.906364 C173.253209,174.364678 172.809922,174.463439 175.670324,174.247961 C178.503769,174.041462 178.950052,173.377073 178.722418,172.069244 C178.503769,170.770394 176.547913,169.600231 176.547913,168.483938 C176.547913,167.406551 178.186279,166.107701 178.950052,165.464261 C179.716819,164.790894 180.603394,163.934969 182.020117,163.830223 C183.43684,163.713506 183.775296,163.830223 183.981963,163.073059 C184.206602,162.315895 184.658875,161.87297 185.198009,161.322305 C185.758108,160.801568 186.417049,159.709216 186.174439,158.401388 C185.973762,157.087574 185.758108,156.345374 183.116355,156.016172 C180.495567,155.68697 179.716819,155.779745 177.398546,156.114932 C175.101238,156.444134 173.897174,157.306044 173.124416,156.872096 C172.378615,156.444134 172.378615,155.58821 172.378615,154.609583 C172.378615,153.630956 172.165957,152.209403 172.255812,151.452239 C172.378615,150.701061 172.255812,149.396225 172.6991,147.980657 C173.124416,146.56509 172.6991,146.238881 172.6991,144.715575 C172.6991,143.195262 173.367026,142.117874 173.031565,141.345747 C172.6991,140.612525 171.49204,139.41842 170.407783,140.810046 C169.275603,142.207657 169.089901,142.207657 168.970094,144.829299 C168.856277,147.429993 169.275603,155.34879 169.089901,156.782314 C168.856277,158.179925 168.856277,158.500148 167.792986,159.164537 C166.678777,159.822941 165.474712,160.349663 164.698959,161.220552 C163.932192,162.079469 162.832959,162.079469 162.165032,162.743858 C161.509087,163.393283 160.859132,164.701111 160.535651,163.713506 C160.200191,162.743858 160.535651,161.977716 160.535651,160.999089 C160.535651,160.023454 159.493327,160.035425 159.493327,160.035425 C159.493327,160.035425 156.731766,160.035425 155.362966,164.120519 C153.982186,168.193642 154.524314,168.331308 154.12895,169.564319 C153.706629,170.815285 152.616381,171.345001 153.020731,172.299685 C153.434067,173.239407 154.832818,175.831122 155.9021,176.268062 C157.016309,176.672083 158.127522,176.405729 158.400084,173.951679" id="Fill-13" fill="#231916"></path>
                    <path d="M264.329611,173.599134 C265.398892,173.599134 268.36113,173.919358 269.133888,173.039491 C269.882685,172.192545 271.464143,170.00485 271.805594,169.60083 C272.129074,169.148926 273.533816,168.583297 273.533816,170.00485 C273.533816,171.44436 273.743479,176.648739 273.743479,176.648739 C273.743479,176.648739 273.11449,178.68979 271.90743,179.677395 C270.69438,180.662007 271.359311,181.182745 270.802207,181.625671 C270.245102,182.068597 268.52287,182.275096 268.936206,183.376425 C269.379494,184.462791 269.15785,185.088274 273.021639,184.241328 C276.831515,183.376425 277.595287,180.662007 277.71809,179.018992 C277.831907,177.399918 277.388619,174.24856 277.388619,172.74321 C277.388619,171.222897 277.496446,170.229306 277.056154,168.951405 C276.621852,167.628612 275.522619,166.222023 275.085322,165.892822 C274.642034,165.56362 274.309569,165.021933 274.962519,163.935568 C275.61547,162.85818 276.508035,160.909905 277.283788,160.02106 C278.04157,159.165136 279.898585,158.401986 280.458685,157.734605 C280.991828,157.08518 281.105645,156.77992 281.647773,156.342979 C282.198887,155.900053 282.983626,155.472091 282.654156,154.816681 C282.32169,154.164263 281.105645,153.966742 281.105645,153.966742 C281.105645,153.966742 278.823313,154.272001 277.283788,155.900053 C276.259435,156.977441 273.743479,162.077075 272.353713,163.714105 C270.913028,165.351135 268.304222,168.714978 266.869528,169.60083 C265.398892,170.450769 264.009126,169.915068 263.035691,171.44436 C262.038294,172.940731 263.287286,173.599134 264.329611,173.599134" id="Fill-15" fill="#231916"></path>
                    <path d="M309.386186,183.591304 C314.319256,181.191124 318.293867,177.49808 320.375521,174.463439 C321.540649,172.757575 322.331377,172.835386 322.981333,170.976893 C323.649259,169.148327 322.091763,168.483938 321.474754,166.436902 C320.782867,164.37191 320.138902,161.220552 320.567213,158.093135 C321.001515,154.929806 320.037065,154.807104 319.246336,154.807104 C318.49754,154.807104 317.401302,155.58821 317.934445,158.943074 C318.218988,160.556163 318.293867,161.450993 317.841594,164.156432 C317.401302,166.864865 317.730773,169.348841 318.177055,170.677619 C318.593386,171.970484 318.177055,173.921752 317.305456,174.906364 C316.412891,175.876013 313.013355,178.49167 310.943682,179.790521 C308.850048,181.092364 307.634002,181.625072 304.569928,181.738796 C301.508848,181.855513 298.771249,181.855513 296.246307,180.867908 C293.7004,179.898259 295.47954,179.736651 293.511703,179.230878 C293.050444,179.141096 291.307246,178.05473 291.307246,176.528431 C291.307246,175.005125 291.190434,171.099596 291.621741,169.791767 C292.077009,168.483938 291.750534,167.735753 293.7004,166.640409 C295.698188,165.566014 297.201771,164.593373 298.645451,163.393283 C300.071159,162.193193 300.172995,161.53479 301.05358,160.786604 C301.94315,160.023454 303.794175,158.73059 304.677754,157.734006 C305.546358,156.782314 306.334092,156.016172 305.112056,155.471493 C303.916977,154.929806 302.835715,154.708343 301.185368,155.267986 C299.526035,155.779745 299.079753,157.446703 297.651049,158.401388 C296.246307,159.388993 295.698188,160.349663 294.368326,160.250903 C293.050444,160.137179 293.161266,159.266291 293.161266,158.401388 C293.161266,157.536485 292.400489,156.985821 291.750534,157.446703 C291.082607,157.856709 289.776707,158.278685 289.096799,158.943074 C288.46182,159.577536 287.796889,160.580105 287.796889,160.580105 C287.796889,160.580105 287.680077,161.450993 288.033509,162.749843 C288.339018,164.042708 288.033509,165.350537 287.042102,166.221425 C286.053691,167.092313 284.391363,167.322754 283.441889,168.292403 C282.429517,169.256066 281.117625,169.791767 283.076477,170.35141 C285.059289,170.899082 286.053691,169.693006 286.27234,170.677619 C286.535916,171.916614 286.27234,180.867908 286.27234,180.867908 C286.27234,180.867908 285.391755,182.825162 288.13235,184.019266 C290.87594,185.213371 288.896122,185.102639 291.750534,185.102639 C294.592965,185.102639 295.470554,185.318117 298.327961,185.530601 C301.185368,185.755057 304.441135,185.991484 309.386186,183.591304" id="Fill-17" fill="#231916"></path>
                    <path d="M185.530474,182.397499 C185.844969,183.813066 185.368734,186.991359 186.482943,186.907562 C189.433201,186.686099 190.256877,183.253423 190.574367,179.593299 C190.885866,175.876312 191.017654,168.484238 190.775044,166.871149 C190.574367,165.219155 190.885866,164.372209 190.128084,163.935269 C189.370302,163.507306 188.573583,164.698418 188.573583,164.698418 C188.573583,164.698418 187.48633,167.092612 187.591162,173.164887 C187.684013,177.08538 186.965168,178.055029 186.300237,179.012707 C185.638301,180.012283 185.198009,180.999888 185.530474,182.397499" id="Fill-19" fill="#231916"></path>
                    <path d="M197.91347,157.735203 C199.012703,157.537682 201.489721,156.137079 203.184996,155.47269 C204.269253,155.029764 209.86426,154.814286 211.074315,155.152466 C212.266398,155.47269 213.039156,157.537682 213.263795,160.350861 C213.473458,163.170024 213.817904,163.292727 213.686116,166.222622 C213.575294,169.149524 214.360033,169.347045 214.47385,170.122166 C214.566701,170.900279 214.021577,175.335524 214.47385,176.526635 C214.887186,177.711762 215.456271,179.800696 215.003998,182.940083 C214.566701,186.067499 212.829493,186.740867 212.829493,186.740867 C212.829493,186.740867 211.17016,185.977717 210.196725,186.839627 C209.205319,187.70453 210.196725,188.674178 210.726873,188.910605 C211.269002,189.117104 211.397795,190.861873 211.592482,191.634001 C211.841082,192.367223 213.575294,192.825113 214.360033,192.253499 C215.108829,191.714805 216.315889,190.739171 216.531542,189.545067 C216.771157,188.353955 218.418509,184.783613 218.733004,183.377024 C219.053489,181.955471 219.601608,180.210702 219.931078,179.354777 C220.278519,178.483889 219.508757,177.711762 220.278519,177.176061 C221.039297,176.649338 220.817653,175.57195 220.182674,174.799823 C219.508757,174.042659 220.182674,172.94133 219.844218,171.74124 C219.508757,170.556114 219.16431,166.749345 218.969623,164.914793 C218.733004,163.071264 218.643148,157.857906 218.304692,155.349987 C217.975222,152.866011 217.310291,151.665921 216.220043,151.351683 C215.108829,151.022481 212.266398,151.56716 211.269002,151.022481 C210.298561,150.471817 209.639621,150.801018 208.528407,150.588533 C207.459126,150.358092 206.80917,150.166557 205.036021,151.022481 C202.825574,152.123811 202.091753,152.315346 199.45599,153.706971 C198.251926,154.386324 195.82882,155.152466 195.82882,155.152466 C194.555867,155.786928 193.849003,156.870301 194.507944,157.645421 C195.160894,158.402585 196.811241,157.974623 197.91347,157.735203" id="Fill-21" fill="#231916"></path>
                    <path d="M200.423135,168.178978 C199.674339,167.736052 201.094057,166.757425 201.094057,166.757425 C201.094057,166.757425 201.857829,166.96991 201.857829,167.520574 C201.857829,168.056275 201.207874,168.597962 200.423135,168.178978 M207.240178,189.223945 C208.150714,188.47576 208.531103,189.002482 208.971395,188.368021 C209.402702,187.703632 209.205019,185.210677 208.111777,184.462492 C207.000563,183.690364 205.58384,183.160648 204.496588,184.127304 C203.40035,185.102938 202.741409,185.31243 202.271165,184.585194 C201.857829,183.813066 201.857829,183.591603 202.423919,182.942178 C202.957062,182.274797 204.0533,180.868207 204.268954,180.012283 C204.496588,179.141395 204.790116,178.506933 205.58384,179.141395 C207.117375,180.335499 206.665102,182.603998 208.531103,183.902849 C210.400098,185.210677 211.074015,183.591603 210.627732,182.705751 C210.196426,181.861798 209.306856,181.526611 208.971395,180.335499 C208.641924,179.141395 208.863568,178.596716 208.216608,178.168753 C207.566653,177.704878 206.808871,176.406028 207.000563,175.005424 C207.240178,173.598835 207.117375,173.598835 208.111777,172.413709 C209.100188,171.222597 210.298262,168.597962 210.400098,167.849776 C210.51092,167.092612 209.100188,166.757425 208.531103,167.40685 C208.00994,168.056275 207.458826,168.951106 207.093414,169.792066 C206.754958,170.662954 205.691667,170.983178 205.490989,169.914769 C205.263355,168.828403 204.604414,166.757425 205.038716,165.686023 C205.490989,164.578708 206.134954,163.82753 205.490989,163.507306 C204.820068,163.172119 203.807695,163.172119 203.502186,162.429919 C203.184696,161.657791 202.19928,159.577835 201.522369,158.943374 C200.89338,158.278985 199.455691,159.164837 199.794147,160.020761 C200.117627,160.900627 201.420532,162.316195 200.98024,162.857881 C200.548933,163.393582 199.985838,163.713806 199.231052,163.713806 L197.02959,163.713806 C197.02959,163.713806 194.947936,163.713806 193.848703,165.686023 C193.132854,166.954946 192.761451,167.849776 194.306967,167.849776 C195.828521,167.849776 197.146403,168.056275 196.481471,169.34914 C195.828521,170.662954 194.507644,170.983178 194.947936,171.857059 C195.367262,172.733932 197.374037,173.25467 197.02959,174.24826 C196.721086,175.232873 195.064749,177.29188 194.507644,177.621081 C193.977496,177.941305 192.99208,178.369267 192.65662,179.231177 C192.318164,180.120022 191.13207,181.526611 191.889852,182.176036 C192.65662,182.825461 194.636437,182.505238 196.157991,181.403908 C197.685536,180.335499 199.231052,179.584321 200.321299,179.012707 C201.420532,178.482991 202.519765,176.406028 201.744012,176.214492 C200.98024,175.999015 200.321299,176.406028 199.123225,177.061439 C197.91317,177.704878 197.26621,177.411589 198.338486,175.999015 C199.455691,174.577462 200.117627,173.919059 200.423135,173.164887 C200.779563,172.413709 202.091454,170.893396 202.633582,170.770693 C203.184696,170.662954 204.0533,171.44406 203.807695,171.970783 C203.607018,172.512469 201.744012,173.042185 202.519765,173.706574 C203.295518,174.361985 204.0533,173.476133 204.268954,174.463738 C204.496588,175.433386 202.741409,179.362858 201.648166,180.661708 C200.548933,181.954573 199.794147,183.046924 198.251626,183.902849 C196.721086,184.782715 194.947936,185.991783 194.408803,186.641208 C193.848703,187.27567 194.507644,189.125185 195.930357,188.81394 C197.374037,188.47576 198.119838,188.673281 200.548933,189.002482 C202.957062,189.340662 202.19928,188.894744 203.607018,189.666871 C205.038716,190.41805 205.799493,190.41805 207.240178,189.223945" id="Fill-23" fill="#231916"></path>
                    <path d="M205.141152,158.271503 C205.033325,159.049616 205.141152,159.708019 205.141152,159.708019 C205.141152,159.708019 207.489377,161.13855 207.782905,162.314698 C207.782905,162.314698 209.630935,163.293325 209.541079,160.465183 C209.47219,158.699465 208.528706,157.637041 207.001162,157.535288 C205.491588,157.445506 205.263954,157.535288 205.141152,158.271503" id="Fill-25" fill="#231916"></path>
                    <path d="M236.834707,157.973426 C238.083699,158.613873 238.353266,159.921701 239.775979,160.250903 C241.219658,160.580105 244.271752,160.1282 246.476209,159.921701 C248.668685,159.709216 250.420868,158.82935 251.855562,158.2727 C253.272285,157.734006 253.098564,156.695524 253.931225,156.016172 C255.689399,154.615568 255.240121,154.04994 255.240121,152.981531 C255.240121,151.886187 253.490933,152.122613 251.514111,152.323127 C249.552264,152.529626 248.222402,153.080291 247.344813,153.30774 C246.476209,153.517232 245.251178,153.080291 244.703059,153.430442 C244.175906,153.705774 242.507588,153.430442 241.64797,153.517232 C240.755404,153.630956 239.775979,154.816082 239.027182,155.151269 C238.251429,155.474485 236.72089,155.151269 235.83731,155.779745 C234.971701,156.435156 236.834707,157.973426 236.834707,157.973426" id="Fill-27" fill="#231916"></path>
                    <path d="M258.081953,183.812169 C258.743889,183.162743 257.857315,181.732212 256.65325,181.627466 C255.455176,181.519728 253.717968,181.732212 253.717968,180.870302 C253.717968,180.011385 255.128701,177.497481 256.33576,176.30637 C257.527844,175.127229 258.743889,173.376474 258.743889,172.185363 C258.743889,170.976295 257.638666,169.464959 256.65325,169.913871 C255.691795,170.341833 254.48174,170.901476 253.930626,171.32046 C253.373522,171.739444 252.403082,171.969885 251.082205,172.742013 C249.761328,173.484213 249.887126,173.705676 248.221803,174.040863 C246.580441,174.364079 246.041308,174.364079 244.948065,174.684303 C243.839846,175.004526 243.294723,173.484213 241.970851,173.705676 C240.649974,173.921154 239.571707,175.127229 238.56832,174.250355 C237.59788,173.376474 237.717687,171.969885 238.032182,170.769795 C238.355662,169.599633 239.793351,167.405952 239.793351,166.337543 C239.793351,165.22125 239.997024,165.565416 240.548138,164.592774 C241.096257,163.629111 241.758193,161.98011 240.311518,162.07887 C238.921752,162.183616 236.034393,165.029715 236.034393,165.029715 C236.034393,165.029715 235.507241,167.573546 234.872261,170.02161 C234.162402,172.535514 233.380659,175.028468 232.661814,176.758274 C230.029046,183.162743 229.984118,185.395329 224.5209,193.978516 C219.030725,202.564695 216.999989,205.407801 215.110027,207.688271 C213.261998,209.950784 212.486245,211.378323 211.398993,212.787904 C210.296764,214.185515 211.398993,215.484366 212.486245,214.843919 C213.576492,214.185515 215.002201,211.378323 216.014573,210.929411 C216.999989,210.492471 217.859608,208.879382 218.287919,208.101269 C218.731207,207.359069 220.489381,205.835763 220.929673,205.171374 C221.357984,204.545891 222.022916,202.795136 223.113163,201.394533 C224.227372,199.97298 225.081,198.344928 226.632506,196.06745 C228.166041,193.78698 228.621309,191.395779 229.807403,189.98919 C231.020453,188.582601 232.431185,185.317518 232.898434,184.584296 C233.32375,183.812169 233.97071,181.863893 233.97071,181.863893 L233.764043,187.062287 C233.764043,187.062287 234.527815,187.382511 235.408399,187.274772 C236.285989,187.170026 237.151597,187.274772 237.92735,187.702734 C238.694118,188.14566 240.443306,186.182421 241.219059,185.317518 C241.970851,184.461594 241.848048,183.375228 241.428722,182.612079 C241.003406,181.863893 240.227653,180.334601 241.096257,179.670212 C241.970851,179.011809 243.09704,179.355974 244.271153,179.011809 C245.493189,178.703557 246.134159,178.589832 247.580833,178.703557 C248.997556,178.796332 250.093794,178.703557 249.318041,180.556064 C248.560259,182.396601 246.134159,183.252526 245.933481,184.584296 C245.705847,185.877161 245.933481,187.475286 248.452432,187.382511 C250.968388,187.274772 250.869547,185.990885 253.154873,185.655698 C255.455176,185.317518 257.440984,184.461594 258.081953,183.812169" id="Fill-29" fill="#231916"></path>
                    <mask id="mask-2" fill="white">
                        <use xlink:href="#path-1"></use>
                    </mask>
                    <g id="Clip-32"></g>
                    <path d="M169.524503,331.916127 L181.795777,331.916127 L181.795777,289.625678 L169.524503,289.625678 L169.524503,331.916127 Z M156.372643,288.249017 L156.372643,334.489886 L174.5654,352.700726 L195.501746,331.916127 L195.501746,287.904851 L176.440386,270.268618 L156.372643,288.249017 Z" id="Fill-31" fill="#231916" mask="url(#mask-2)"></path>
                    <path d="M217.270754,332.08372 L229.55401,332.08372 L229.55401,289.622685 L217.270754,289.622685 L217.270754,332.08372 Z M204.112904,288.249017 L204.112904,352.700726 L217.252783,352.700726 L217.240802,336.848167 L229.71575,348.726363 L243.233022,336.737436 L243.233022,287.904851 L224.15369,270.268618 L204.112904,288.249017 Z" id="Fill-33" fill="#231916" mask="url(#mask-2)"></path>
                    <path d="M488.661515,104.822912 L488.661515,134.956839 L463.217414,134.956839 L463.217414,108.767347 C463.217414,107.124331 463.660702,106.037965 464.583219,105.517228 C465.272111,105.014447 466.991348,104.792984 469.725952,104.822912 L488.661515,104.822912 Z M492.183853,64.8129332 C491.147519,64.8518389 490.398722,65.0882656 489.931473,65.5072496 C488.949053,66.1207618 488.520741,68.236631 488.661515,71.8937627 L488.661515,97.2512726 L463.852394,97.2512726 C461.827648,96.8143321 456.20868,96.2247618 450.341112,92.9088027 C448.175593,91.6069596 446.546212,91.3166636 445.479926,92.067842 C444.389678,92.8250059 443.85354,94.581746 443.85354,97.4039024 L443.85354,147.622127 C443.799627,151.177505 444.470548,153.454983 445.884276,154.418646 C447.196167,155.516982 450.556765,155.723482 454.258814,155.053107 C457.667336,154.502443 460.680492,153.607612 461.617985,152.377595 C462.735189,151.23736 463.265337,148.980832 463.217414,145.658888 L463.217414,142.525486 L488.661515,142.525486 L488.661515,190.379443 C488.619582,193.865989 489.176687,196.083611 490.344809,196.969463 C491.324235,197.939112 494.436232,198.175538 497.934609,197.687721 C505.06315,196.930557 509.379213,193.743286 509.196506,188.146857 L509.196506,142.525486 L534.335098,142.525486 L534.335098,146.781166 C534.092488,152.201023 536.698299,154.349813 541.535524,153.224541 C546.30985,152.491319 550.739729,151.291229 552.437999,149.654199 C554.121293,148.217683 554.915017,145.619982 554.816176,141.888032 L554.816176,106.645492 C554.768253,106.187603 555.325358,105.642923 556.505461,105.032404 C558.092909,104.254291 559.078325,103.428294 559.458714,102.593318 C556.056183,95.9434439 547.729568,91.0353457 537.623812,87.8630384 C536.368829,88.1443562 535.868633,88.9942951 533.858864,92.9716503 C532.427165,95.814756 531.393826,97.2512726 530.782808,97.2512726 L509.196506,97.2512726 L509.196506,73.0010776 C509.196506,72.7766218 509.624818,72.2588773 510.460475,71.4658005 C515.555285,67.6350897 510.819897,65.4384165 497.934609,64.8817663 C495.457591,64.7201582 492.980572,64.7201582 492.183853,64.8129332 L492.183853,64.8129332 Z M509.199502,134.956839 L534.335098,134.956839 L534.335098,104.822912 L509.199502,104.822912 L509.199502,134.956839 Z" id="Fill-34" fill="#231916" mask="url(#mask-2)"></path>
                    <path d="M607.989704,177.164389 L685.463172,177.164389 L685.463172,161.263946 L607.989704,161.263946 L607.989704,177.164389 Z M660.576175,143.792314 C660.81579,148.116827 663.445563,151.145483 668.441532,152.872296 C667.243458,155.900951 666.461715,157.226736 666.093307,157.271627 L653.531499,157.271627 L653.531499,133.700785 C658.368724,136.262573 660.255691,139.617438 660.576175,143.792314 L660.576175,143.792314 Z M685.076793,70.2785794 C683.752921,72.9900044 682.716586,74.3457169 681.991752,74.3457169 L610.574549,74.3457169 C609.78382,74.4205355 605.875103,73.1516125 600.618553,70.5000424 C599.788886,70.0870439 598.360183,69.410684 597.946847,69.2371049 C593.415132,66.9356857 592.130197,67.2559092 590.851253,67.6778859 C589.308732,67.9143126 588.571917,69.9942689 588.634816,73.2084746 L588.634816,191.792916 C588.22148,195.707423 590.521782,197.015252 595.535723,195.707423 C596.185678,195.563772 597.880953,195.3872 598.968205,195.132817 C605.407854,194.49237 609.026038,192.612927 607.989704,189.545366 L607.989704,184.733035 L685.463172,184.733035 L685.463172,192.062263 C685.085778,195.279461 688.961548,196.311957 695.122645,195.132817 C699.40576,194.432515 703.014958,193.675351 704.168105,192.840376 C705.408112,191.99343 705.995168,190.425232 705.959226,188.144762 L705.959226,84.5509699 C705.959226,84.1230077 706.501354,83.4526333 707.606578,82.5278757 C710.197413,80.429963 710.649686,78.3440213 708.981368,76.3029707 C701.442486,69.9044866 693.292586,66.6483824 688.317583,66.4957525 C687.29922,66.7710848 686.610328,67.2050326 685.076793,70.2785794 L685.076793,70.2785794 Z M685.463172,81.9412982 L685.463172,154.880426 C683.186831,153.407996 680.706817,151.97148 676.064279,149.837654 C681.120153,138.393406 674.078472,131.836306 653.531499,130.106501 L653.531499,127.41004 L677.475012,127.41004 C679.571642,127.41004 680.745754,127.026969 680.973388,126.314696 C681.195032,125.551546 679.62855,123.462612 677.966222,121.972226 C672.035755,116.812737 667.980274,114.23 665.81775,114.280877 C665.128857,114.427521 663.960735,115.917907 662.304397,118.769991 C660.234724,122.208653 658.734136,123.417721 657.826595,123.417721 L653.531499,123.417721 L653.531499,99.700234 L677.807477,99.700234 C680.985369,99.7391397 682.728567,99.5266549 683.052047,99.059787 C683.612147,98.6856942 682.626731,96.6835492 681.147109,95.2230907 C675.683891,89.7643279 671.751212,86.9302004 669.405982,86.6997592 C668.576316,86.6548681 667.054762,88.2739419 664.793397,91.57793 C662.726719,94.5646873 661.342943,95.7168933 660.722939,95.7168933 L614.731867,95.7168933 C612.659198,95.7617845 611.994267,96.5548613 612.674174,97.4018075 C613.623648,98.1440077 615.253029,99.6553429 617.502413,99.700234 L635.847924,99.700234 L635.847924,123.417721 L617.226856,123.417721 C615.429745,123.549401 614.920563,124.587883 615.702307,125.482713 C616.528978,126.138124 618.766381,127.41004 620.967843,127.41004 L635.847924,127.41004 L635.847924,157.271627 L607.989704,157.271627 L607.989704,89.0789898 C607.684195,84.0422036 610.595515,81.6569876 616.73265,81.9412982 L685.463172,81.9412982 Z" id="Fill-35" fill="#231916" mask="url(#mask-2)"></path>
                    <path d="M846.245327,75.1393923 C845.349766,76.5998508 844.765705,77.5246083 844.472177,77.9286286 L740.119915,77.9286286 C738.526476,77.9286286 736.72637,78.4643296 736.72637,80.2300478 C736.72637,82.2202218 741.350936,85.3566163 742.971332,85.3955219 L783.663921,85.3955219 C778.727856,113.00956 763.763909,138.477801 739.8803,159.058893 C737.265503,161.366298 736.48376,162.748945 737.517099,163.117053 C738.775077,163.3864 741.452773,162.605294 745.571153,160.755779 C753.882792,156.865213 760.514133,152.777126 766.624311,147.327342 L766.624311,191.248835 C766.68721,192.954699 766.956777,193.987195 767.424026,194.325375 C767.867313,194.78925 768.930604,195.034655 770.628874,195.034655 C780.599847,195.301009 786.716015,193.161198 786.257752,188.582301 L786.257752,181.812717 L834.150768,181.812717 L834.150768,189.010263 C834.150768,191.150075 834.399368,192.526736 834.91454,193.146234 C835.39377,193.780696 836.513969,194.139825 838.275138,194.163767 C847.99152,194.819177 854.485082,191.709718 854.254453,184.814438 L854.254453,137.149023 C854.329332,136.544489 855.030206,135.817253 856.31514,134.98527 C858.285972,133.629558 859.448104,132.225961 859.789555,130.711634 C855.901805,123.693652 848.329976,118.938183 838.652532,116.454207 C837.57127,116.597858 836.124595,118.172041 834.381397,121.224639 C832.692112,124.097672 831.383216,123.385399 830.38582,123.385399 L788.246555,123.385399 C793.188611,115.658137 798.256465,108.116425 805.573703,91.3570656 C806.750811,88.7204592 807.670333,86.709336 808.284346,85.3955219 L868.25994,85.3955219 C870.084008,85.3955219 871.138313,84.9256613 871.138313,83.9200997 C871.138313,82.0855484 868.370762,79.0479144 866.696453,77.4438043 C859.804531,71.0423274 855.437551,67.7862232 853.604497,67.6425716 C852.199755,67.5497965 850.237909,68.4356484 846.245327,75.1393923 L846.245327,75.1393923 Z M834.150768,130.954046 L834.150768,174.24407 L786.257752,174.24407 L786.257752,137.651804 C786.257752,136.167404 786.356593,135.090016 786.54529,134.371758 C786.716015,133.590652 787.078433,132.926263 787.5966,132.414504 C788.629939,131.441863 790.573814,130.954046 793.374313,130.954046 L834.150768,130.954046 Z" id="Fill-36" fill="#231916" mask="url(#mask-2)"></path>
                    <path d="M925.160077,64.3550436 C943.775155,68.9399256 949.609776,72.612021 942.672927,75.3713299 C941.001613,76.5115649 939.98325,77.4423079 939.611847,78.1515879 C938.512614,80.4619854 936.931156,83.7270678 934.876459,87.9378569 C931.560789,94.9049622 929.251501,99.7053217 927.948595,102.33295 C934.747666,105.208976 937.661982,107.51638 934.543994,109.237208 C933.235097,110.398392 932.606109,111.436873 932.606109,112.418493 L932.606109,159.98814 C941.714468,155.002231 948.564457,149.118498 957.484119,139.706322 L957.484119,74.1173706 C957.484119,71.0677657 957.517066,69.1613885 957.561994,68.4431303 C957.591946,67.3896848 957.714748,66.6235426 957.915426,66.1506893 C958.181997,65.1870261 959.233307,64.7740276 961.102303,64.9116937 C977.797467,65.6927996 985.26746,68.2306455 979.256122,72.5581516 C977.833409,73.9797045 977.111569,75.0421282 977.111569,75.7065171 L977.111569,120.39116 C981.784059,114.779767 986.789014,105.636938 994.148184,91.6847709 C995.909354,87.2644898 998.041926,85.738191 1000.53092,87.0819325 C1011.88567,91.5471048 1017.71131,95.2610986 1018.01981,98.304718 C1017.93595,99.3671417 1017.07333,100.405623 1015.47091,101.399214 C1013.13167,102.898578 1011.14287,104.544587 1009.41165,106.355196 C998.311492,118.6015 988.217717,128.654123 977.111569,137.802938 L977.111569,167.374229 C976.641325,175.164339 980.717773,178.99505 989.334921,178.881325 C992.105468,179.042934 993.860647,178.944173 996.65216,178.591029 C1002.57963,177.74109 1007.19521,170.363979 1010.52885,156.459696 C1011.24171,153.523816 1011.79881,152.018466 1012.25109,151.910727 C1012.62548,151.871822 1012.79321,153.278411 1012.75428,156.160422 C1013.6708,169.065129 1016.50724,176.298588 1021.28756,177.887735 C1023.21646,179.515787 1024.13598,180.862521 1023.98622,181.924945 C1022.64138,189.445708 1014.38366,193.949786 999.156135,195.44915 C998.227627,195.494041 994.714275,195.494041 988.610087,195.44915 L983.024066,195.44915 C972.181494,195.494041 965.397399,194.255045 962.617867,191.693257 C959.101519,189.224245 957.385278,183.971981 957.484119,176.014278 L957.484119,151.372034 C946.374976,157.228831 939.527982,159.880401 932.606109,161.996271 L932.606109,191.693257 C932.845723,195.051115 927.020088,197.268737 919.208644,198.331161 C915.551522,199.193071 913.877214,197.939112 914.191708,194.584247 L914.191708,125.466852 C907.206936,133.714851 901.803621,139.167628 896.016923,143.767474 C893.851404,145.365599 892.611397,145.955169 892.350816,145.566112 C892.108206,145.189027 892.862992,143.821343 894.633147,141.475033 C905.772242,125.733206 914.158761,102.479594 919.756763,71.6782852 C920.36179,68.0331245 921.005755,65.8155021 921.694648,65.0583381 C922.302671,64.1084056 923.461807,63.8642338 925.160077,64.3550436" id="Fill-37" fill="#231916" mask="url(#mask-2)"></path>
                    <path d="M526.374794,261.106036 L514.052601,256.425387 L513.189987,256.117134 C505.666081,253.438629 499.723633,251.325753 499.723633,245.917867 C499.723633,240.653632 504.971198,237.110224 512.785637,237.110224 C520.645004,237.110224 524.9401,240.174793 527.605815,247.683585 L527.77055,248.14746 L544.360882,245.750273 L544.211123,245.109826 C540.889462,231.017 528.522342,221.910084 512.710758,221.910084 C493.52959,221.910084 479.604972,232.438553 479.604972,246.94737 C479.604972,260.214199 490.174982,266.932907 499.037736,270.227916 L512.50409,275.363463 C520.216692,278.299344 525.311503,280.238641 525.311503,285.873976 C525.311503,293.400724 517.99127,294.977899 511.851139,294.977899 C502.266546,294.977899 495.985642,289.782498 493.185143,279.532354 L493.047365,279.014609 L475.435674,281.609317 L475.579443,282.240786 C479.853573,301.454195 491.5947,310.797538 511.467756,310.797538 C535.105759,310.797538 545.684754,297.647426 545.684754,284.620017 C545.684754,273.454093 539.547619,265.981214 526.374794,261.106036 L526.374794,261.106036 Z M865.477712,272.439553 L898.487651,272.439553 L898.487651,257.077805 L865.477712,257.077805 L865.477712,238.759226 L904.328263,238.759226 L904.328263,223.511201 L845.484849,223.511201 L845.484849,309.202406 L905.724019,309.202406 L905.724019,293.84365 L865.477712,293.84365 L865.477712,272.439553 Z M797.801496,264.613531 L787.105689,264.613531 L787.105689,238.073888 L797.169512,238.073888 C810.809587,238.073888 816.374642,241.704085 816.374642,250.601509 C816.374642,260.028649 810.29741,264.613531 797.801496,264.613531 L797.801496,264.613531 Z M798.565269,223.511201 L767.112826,223.511201 L767.112826,309.202406 L787.105689,309.202406 L787.105689,279.173225 L799.071455,279.173225 C822.188297,279.173225 835.990111,268.495118 835.990111,250.601509 C835.990111,232.627096 823.398351,223.511201 798.565269,223.511201 L798.565269,223.511201 Z M714.894763,294.980892 C701.37749,294.980892 692.646525,283.611462 692.646525,266.014135 C692.646525,248.494618 701.170823,237.615998 714.894763,237.615998 C728.618702,237.615998 737.148991,248.494618 737.148991,266.014135 C737.148991,283.611462 728.412035,294.980892 714.894763,294.980892 L714.894763,294.980892 Z M714.894763,221.910084 C688.998389,221.910084 672.267283,239.223101 672.267283,266.014135 C672.267283,293.218167 688.998389,310.800531 714.894763,310.800531 C740.788141,310.800531 757.522242,293.218167 757.522242,266.014135 C757.522242,239.223101 740.788141,221.910084 714.894763,221.910084 L714.894763,221.910084 Z M643.570411,257.796063 C643.570411,266.705458 644.783461,277.090276 645.756896,285.434043 L645.792838,285.739302 L637.073854,268.782422 L609.772738,223.801497 L609.599017,223.511201 L589.486347,223.511201 L589.486347,309.202406 L608.463842,309.202406 L608.463842,274.693089 C608.463842,267.013711 607.616204,258.948269 606.792528,251.152174 C606.633784,249.667773 606.481029,248.204322 606.334265,246.770798 L615.217985,263.700744 L642.390308,308.91211 L642.564029,309.202406 L662.550901,309.202406 L662.550901,223.511201 L643.570411,223.511201 L643.570411,257.796063 Z M556.182879,309.202406 L576.175743,309.202406 L576.175743,223.511201 L556.182879,223.511201 L556.182879,309.202406 Z M976.958516,276.252308 L976.790785,276.826914 C973.544004,288.193352 965.232364,294.980892 954.557523,294.980892 C940.839574,294.980892 931.626383,283.339123 931.626383,266.014135 C931.626383,248.760972 940.626916,237.615998 954.557523,237.615998 C963.066845,237.615998 970.048623,241.656201 974.220916,248.997399 L974.463526,249.419376 L990.460812,244.403539 L990.197235,243.793019 C984.22184,229.885743 971.501288,221.910084 955.288349,221.910084 C928.948688,221.910084 911.250137,239.633107 911.250137,266.014135 C911.250137,292.802175 928.948688,310.800531 955.288349,310.800531 C974.568358,310.800531 988.708628,299.802201 993.120536,281.384862 L993.25532,280.819233 L976.958516,276.252308 Z" id="Fill-38" fill="#231916" mask="url(#mask-2)"></path>
                </g>
            </g>
        </g>
    </g>
</svg>