<?xml version="1.0" encoding="UTF-8"?>
<svg width="767px" height="768px" viewBox="0 0 767 768" version="1.1" xmlns="http://www.w3.org/2000/svg" xmlns:xlink="http://www.w3.org/1999/xlink">
    <title>中国中煤能源集团有限公司@2x</title>
    <defs>
        <polygon id="path-1" points="0 0 767 0 767 571 0 571"></polygon>
    </defs>
    <g id="页面-1" stroke="none" stroke-width="1" fill="none" fill-rule="evenodd">
        <g id="56.中国中煤能源集团有限公司" transform="translate(-128.000000, 0.000000)">
            <g id="中国中煤能源集团有限公司" transform="translate(128.000000, -0.000000)">
                <g id="编组">
                    <mask id="mask-2" fill="white">
                        <use xlink:href="#path-1"></use>
                    </mask>
                    <g id="Clip-2"></g>
                    <path d="M289.33933,190.331198 L286.853989,190.331198 C234.318076,190.331198 191.339193,233.302186 191.339193,285.842683 C191.339193,336.854451 231.858357,378.845428 282.301802,381.243143 L289.33933,190.331198 Z M190.235309,95.6118347 L292.830336,95.6118347 L295.90712,12.1786004 C296.152665,5.4850674 301.385972,0 308.086142,0 L459.234988,0 C465.933023,0 471.183412,5.4872025 471.411875,12.1786004 L474.279411,95.6118347 L578.322086,95.6118347 C674.727249,95.6118347 754.975564,168.269228 767.000854,261.54313 L574.062417,261.54313 C563.243499,220.675215 525.850227,190.331198 481.703405,190.331198 L477.535549,190.331198 L480.084945,264.536538 L425.539834,264.536538 L425.539834,190.331198 L341.994813,190.331198 L341.994813,381.354168 L425.539834,381.354168 L425.539834,309.819837 L481.63935,309.819837 L484.096933,381.320007 C527.193251,380.246052 563.4378,350.267138 574.062417,310.142236 L767.000854,310.142236 C754.973429,403.414003 674.727249,476.073532 578.322086,476.073532 L487.350936,476.073532 L490.194985,558.8214 C490.425584,565.514933 484.716133,571 478.015963,571 L290.541432,571 C283.845532,571 275.644335,561.793456 275.892015,555.099923 L278.80439,476.073532 L190.235309,476.073532 C85.6033267,476.073532 0,390.485984 0,285.842683 C0,181.199383 85.6033267,95.6118347 190.235309,95.6118347 L190.235309,95.6118347 Z" id="Fill-1" fill="#0086D0" mask="url(#mask-2)"></path>
                </g>
                <path d="M2,629.018553 L26.829338,629.018553 L26.829338,644.405685 L41.8188221,629.018553 L73.748667,629.018553 L73.748667,618 L98.2083427,618 L98.2083427,629.018553 L170.935653,629.018553 L170.935653,737.49677 C170.935653,740.153772 170.446331,742.620835 169.49974,744.840338 C168.555285,747.061975 166.858684,749.061662 164.478316,750.843667 C162.09581,752.653416 158.770987,753.556156 154.499572,753.556156 L98.2083427,753.556156 L98.2083427,767.425917 L73.748667,767.425917 L73.748667,753.556156 L2,753.556156 L2,629.018553 Z M26.8507057,733.548616 L73.748667,733.548616 L73.748667,648.75079 L26.8507057,648.75079 L26.8507057,733.548616 Z M98.2083427,733.548616 L138.550675,733.548616 C142.104134,733.548616 144.258004,733.247702 144.975961,732.618132 C145.723832,732.014171 146.084947,730.616311 146.084947,728.424551 L146.084947,648.75079 L98.2083427,648.75079 L98.2083427,733.548616 Z M288.939112,729.766924 L311.571844,729.766924 L304.789717,757.557664 C304.332447,759.311926 303.843125,760.846371 303.255511,762.107646 C302.667898,763.341177 301.819598,764.301539 300.614456,764.903366 C299.439229,765.535071 297.808869,766.08141 295.721239,766.604274 C293.601557,767.095126 291.808802,767.342686 290.340837,767.342686 L275.827854,767.342686 L275.827854,750.732692 L279.742427,750.732692 C281.080049,750.732692 282.186899,750.459523 283.101439,749.885439 C283.981791,749.336966 284.699748,747.939106 285.186933,745.745212 L288.939112,729.766924 Z M313.757766,722.641038 L313.757766,768 L336.42255,768 L336.42255,722.641038 L372.328935,722.641038 L372.328935,706.086532 L336.42255,706.086532 L336.42255,699.263694 L347.869259,699.263694 C350.805189,699.263694 353.67488,698.796318 356.512518,697.891444 C359.350157,696.988703 361.437787,695.782916 362.773272,694.246336 C364.110894,692.711891 365.089537,690.712204 365.741254,688.191788 C366.395108,685.669237 366.687846,683.42199 366.687846,681.447913 L366.687846,642.009049 L371.286188,642.009049 L371.286188,625.401189 L366.687846,625.401189 L366.687846,618.574083 L343.760239,618.574083 L343.760239,625.401189 L307.757699,625.401189 L307.757699,619.122556 L285.186933,619.122556 L285.186933,625.401189 L280.622779,625.401189 L280.622779,642.009049 L285.186933,642.009049 L285.186933,699.263694 L313.757766,699.263694 L313.757766,706.086532 L277.851381,706.086532 L277.851381,722.641038 L313.757766,722.641038 Z M307.757699,642.009049 L307.757699,651.542242 L307.757699,653.576075 L307.757699,668.365649 L322.163843,653.576075 L343.760239,653.576075 L343.760239,642.009049 L307.757699,642.009049 Z M343.760239,670.183934 L307.757699,670.183934 L307.757699,682.736932 L336.03152,682.736932 C339.260188,682.736932 341.37987,682.327178 342.326462,681.52901 C343.305105,680.709501 343.760239,679.420482 343.760239,677.666221 L343.760239,670.183934 Z M373.110995,767.342686 L362.67498,767.342686 C357.196287,767.342686 353.414193,766.657627 351.262459,765.232023 C349.140641,763.806419 347.640624,761.369234 346.826512,757.888456 L340.042248,729.766924 L363.360886,729.766924 L368.318206,748.404348 C368.709236,749.966537 369.687879,750.732692 371.286188,750.732692 L373.110995,750.732692 L373.110995,767.342686 Z M199.677428,625.401189 L217.645578,625.401189 L217.645578,684.079305 C217.645578,686.271064 218.594307,687.368011 220.517405,687.368011 L220.810143,687.368011 L220.810143,701.346612 L212.690394,701.346612 C210.634816,701.346612 208.613426,701.015821 206.624087,700.38625 C204.602697,699.75668 203.070628,698.877415 202.025745,697.784737 C200.982998,696.68779 200.329145,695.426515 200.068458,694.000911 C199.807771,692.575307 199.677428,690.848789 199.677428,688.819224 L199.677428,625.401189 Z M237.410757,728.561136 L247.259158,759.092109 C247.910874,761.177162 248.727123,763.068008 249.705766,764.794525 C250.68441,766.493299 253.881027,767.342686 259.29348,767.342686 L272.306447,767.342686 L272.306447,751.281166 L270.285057,751.281166 C268.197426,751.281166 266.761513,750.047634 265.979453,747.527217 L249.737818,694.7692 L249.737818,619.122556 L227.203377,619.122556 L227.203377,694.7692 L206.75443,747.19856 C206.070662,748.925078 205.286465,749.994281 204.406113,750.406169 C203.55995,750.843667 201.993693,751.063483 199.677428,751.063483 L198.243651,751.063483 L198.243651,767.671343 L209.527966,767.671343 C213.602798,767.671343 216.70326,767.069516 218.788753,765.861594 C220.908435,764.65794 222.605035,762.519534 223.94052,759.395157 L237.410757,728.561136 Z M258.543472,625.401189 L275.827854,625.401189 L275.827854,690.355803 C275.827854,692.001224 275.567167,693.616766 275.013742,695.206698 C274.492369,696.796631 273.383382,698.166747 271.785073,699.291438 C270.154713,700.441738 267.152543,701.015821 262.750784,701.015821 L255.772073,701.015821 L255.772073,685.942407 L256.42379,685.942407 C257.075507,685.942407 257.599017,685.58814 257.957995,684.928691 C258.349025,684.271377 258.543472,683.530831 258.543472,682.736932 L258.543472,625.401189 Z M397.914691,767.671343 L397.914691,752.104943 L411.773821,752.104943 C415.297365,752.104943 417.840128,751.829639 419.472625,751.253422 C421.102985,750.707082 422.50471,749.63788 423.709852,748.075691 L432.222768,736.837322 L456.584152,736.837322 L446.376773,754.898529 C443.310499,760.381129 440.113882,763.861907 436.75487,765.396352 C433.430046,766.903053 429.810348,767.671343 425.927826,767.671343 L397.914691,767.671343 Z M398.305721,730.972711 L469.956097,730.972711 L469.956097,766.136898 L494.708511,766.136898 L494.708511,730.972711 L566.555469,730.972711 L566.555469,715.32308 L494.708511,715.32308 L494.708511,710.171272 L469.956097,710.171272 L469.956097,715.32308 L398.305721,715.32308 L398.305721,730.972711 Z M532.441839,735.714765 L538.867125,744.539425 C540.886378,747.44612 542.582979,749.198247 543.954789,749.802208 C545.322326,750.433913 548.324496,750.732692 552.88865,750.732692 L565.316139,750.732692 L565.316139,766.465555 L541.247494,766.465555 C538.375667,766.465555 534.659813,765.944825 530.125574,764.903366 C525.559284,763.861907 522.10198,761.012833 519.7558,756.351877 L509.157391,735.714765 L532.441839,735.714765 Z M407.859247,710.502063 L407.859247,654.069061 L396.871945,654.069061 L396.871945,637.512421 L401.566442,637.185898 C403.327145,637.074922 404.893402,636.637424 406.198972,635.869135 C407.500269,635.102979 409.231057,633.457559 411.382791,630.935008 L422.015389,618.492986 L447.714395,618.492986 L442.462199,625.070398 L478.075846,625.070398 L483.067355,618.492986 L508.080455,618.492986 L510.950146,625.070398 L567.337529,625.070398 L567.337529,640.803261 L507.426602,640.803261 L507.426602,647.325186 L567.337529,647.325186 L567.337529,663.058049 L507.426602,663.058049 L507.426602,669.225706 L567.337529,669.225706 L567.337529,684.984179 L507.426602,684.984179 L507.426602,690.684461 L567.337529,690.684461 L567.337529,706.334092 L434.34245,706.334092 L434.34245,710.502063 L407.859247,710.502063 Z M480.588694,640.803261 L434.34245,640.803261 L434.34245,643.857212 L434.34245,647.325186 L434.34245,660.678485 L447.351143,647.325186 L480.588694,647.325186 L480.588694,640.803261 Z M480.588694,663.058049 L434.34245,663.058049 L434.34245,665.508039 L434.34245,669.225706 L434.34245,682.329312 L447.109687,669.225706 L480.588694,669.225706 L480.588694,663.058049 Z M434.34245,690.684461 L480.588694,690.684461 L480.588694,684.984179 L434.34245,684.984179 L434.34245,690.684461 Z M629.985667,717.653558 L637.549854,717.653558 C640.355441,717.653558 642.408883,717.324901 643.746505,716.695331 C645.084127,716.035882 646.193114,714.776741 647.105517,712.913639 L662.304405,680.87383 L685.883729,680.87383 L666.50958,721.736164 C664.193315,726.614802 661.586448,729.877899 658.650518,731.495575 C655.716725,733.138861 651.637619,733.960504 646.419612,733.960504 L629.985667,733.960504 L629.985667,717.653558 Z M696.482138,655.656859 L696.482138,645.873972 L720.875574,645.873972 L720.875574,655.656859 L731.931254,655.656859 L731.931254,673.169593 L720.875574,673.169593 L720.875574,727.137666 C720.875574,729.958996 720.450356,732.372706 719.604192,734.344649 C718.787944,736.344336 717.41827,738.179694 715.460984,739.93609 C713.503697,741.660473 708.841251,742.537604 701.471511,742.537604 L679.197757,742.537604 L679.197757,725.684318 L689.437188,725.684318 C692.044055,725.684318 693.873135,725.216942 694.915882,724.286458 C695.960765,723.326096 696.482138,721.710554 696.482138,719.407819 L696.482138,673.169593 L630.276269,673.169593 L630.276269,655.656859 L696.482138,655.656859 Z M596.654097,620.575904 L621.406511,620.575904 L621.406511,635.32493 L635.774193,620.575904 L765,620.575904 L765,748.404348 C765,751.089093 764.60897,753.694875 763.794858,756.270779 C763.010661,758.846684 761.869623,760.820761 760.369606,762.163133 C758.869589,763.53325 756.715719,764.65794 753.880217,765.535071 C751.042579,766.439945 747.683567,766.877444 743.801045,766.877444 L596.654097,766.877444 L596.654097,620.575904 Z M739.595869,638.474917 L621.406511,638.474917 L621.406511,748.980565 L729.64704,748.980565 C733.463322,748.980565 736.072326,748.513189 737.476187,747.608315 C738.875776,746.705574 739.595869,744.594912 739.595869,741.33395 L739.595869,638.474917 Z" id="Fill-3" fill="#0086D0"></path>
            </g>
        </g>
    </g>
</svg>