<?xml version="1.0" encoding="UTF-8"?>
<svg width="781px" height="768px" viewBox="0 0 781 768" version="1.1" xmlns="http://www.w3.org/2000/svg" xmlns:xlink="http://www.w3.org/1999/xlink">
    <title>中国医药集团有限公司@2x</title>
    <defs>
        <polygon id="path-1" points="0 0 64 0 64 79 0 79"></polygon>
        <polygon id="path-3" points="0 768 781 768 781 0 0 0"></polygon>
    </defs>
    <g id="页面-1" stroke="none" stroke-width="1" fill="none" fill-rule="evenodd">
        <g id="78.中国医药集团有限公司" transform="translate(-122.000000, 0.000000)">
            <g id="中国医药集团有限公司" transform="translate(122.000000, 0.000000)">
                <g id="编组" transform="translate(0.000000, 689.000000)">
                    <mask id="mask-2" fill="white">
                        <use xlink:href="#path-1"></use>
                    </mask>
                    <g id="Clip-2"></g>
                    <path d="M21.7764433,10.353031 C22.9030579,9.36921549 24.3593675,8.55957746 26.1679796,7.9202888 C27.9784756,7.27908611 30.1883735,6.95369967 32.8070932,6.95369967 C35.6160938,6.95369967 38.0275766,7.32502302 40.0245858,8.05809953 C42.0310149,8.78351989 43.7529643,9.77307748 45.1697105,11.0248583 C46.5845726,12.272811 47.7884301,13.7102534 48.7511392,15.3505839 C49.7176163,16.9928284 50.5635193,18.7173766 51.292616,20.5395406 L64,20.5395406 C63.0730863,17.6512575 61.7354669,14.9658623 59.983374,12.4623007 C58.2369329,9.96448127 56.0797862,7.80161845 53.5175857,5.96988419 C50.9553852,4.1266657 48.0013188,2.67391094 44.6497345,1.60779183 C41.2962662,0.53593061 37.5415121,0 33.3873562,0 C28.3816454,0 23.9185183,0.53593061 19.9885549,1.60779183 C16.0642434,2.67391094 12.7409187,4.15537627 10.0298845,6.0464457 C7.31131442,7.93177303 5.24083036,10.1769395 3.81278039,12.7628047 C2.39038233,15.3371856 1.67447337,18.1508213 1.67447337,21.1807433 C1.67447337,23.9599263 2.30371967,26.4232931 3.55467637,28.5631875 C4.80940101,30.6992538 6.46729544,32.628604 8.52459171,34.3378398 C10.5856559,36.0566458 12.9311997,37.5897902 15.574411,38.9678975 C18.2100863,40.3402626 20.8947449,41.6571207 23.6302707,42.9222998 C26.3639125,44.1932209 29.0448032,45.4507438 31.6823625,46.6910404 C34.3199218,47.9447352 36.6711175,49.2941319 38.7340657,50.7296603 C40.7857101,52.1747589 42.4473724,53.7691525 43.7039811,55.5224112 C44.9511698,57.2641857 45.5747642,59.2815816 45.5747642,61.5612008 C45.5747642,63.3469981 45.1697105,64.8514319 44.3671388,66.0859863 C43.5551474,67.3128846 42.4907038,68.3081843 41.1587363,69.050831 C39.8305368,69.8030479 38.325244,70.3485487 36.6522778,70.6815913 C34.9698918,71.0242041 33.268666,71.1868973 31.5354128,71.1868973 C28.9562565,71.1868973 26.6841876,70.8423705 24.7248578,70.1456607 C22.7636441,69.452779 21.0699542,68.4976741 19.6362523,67.2841741 C18.2176222,66.0745021 17.0457923,64.6370597 16.1188786,62.9795028 C15.1919649,61.3257741 14.4779399,59.5495469 13.9881074,57.6623056 L-0.000376794187,57.6623056 C0.587422139,60.7611329 1.63679395,63.6149634 3.15339056,66.2237971 C4.67375511,68.8211465 6.73293534,71.0739691 9.33469921,72.9516403 C11.9326951,74.8465378 15.0808106,76.324175 18.7828135,77.3960362 C22.4753965,78.4678975 26.78969,79 31.712506,79 C36.9442933,79 41.5788618,78.4334448 45.6011398,77.3118186 C49.6290697,76.1901924 52.9938418,74.6398217 55.7142958,72.6587925 C58.427214,70.6815913 60.4788583,68.3598634 61.863577,65.7070068 C63.2501796,63.0560644 63.935945,60.1754373 63.935945,57.0651257 C63.935945,54.4314096 63.2953949,52.0541745 62.0086427,49.954475 C60.7200066,47.8509473 59.005593,45.9369094 56.8635181,44.2066192 C54.728979,42.478243 52.3043084,40.8972477 49.5876223,39.4789456 C46.8747042,38.0529874 44.099615,36.6748801 41.2755425,35.3522799 C38.4382823,34.0354218 35.6801488,32.7243059 32.9860704,31.4246741 C30.2825721,30.1231284 27.8710893,28.7660755 25.7327823,27.3592576 C23.5982432,25.9543538 21.8857136,24.4135533 20.5989615,22.7540825 C19.3065574,21.1003537 18.6584714,19.2571352 18.6584714,17.226341 C18.6584714,16.0434656 18.9015036,14.8529341 19.3819162,13.6413481 C19.8660968,12.427848 20.6649004,11.3330184 21.7764433,10.353031" id="Fill-1" fill="#727171" mask="url(#mask-2)"></path>
                </g>
                <mask id="mask-4" fill="white">
                    <use xlink:href="#path-3"></use>
                </mask>
                <g id="Clip-4"></g>
                <polygon id="Fill-3" fill="#727171" mask="url(#mask-4)" points="80 768 101 768 101 689 80 689"></polygon>
                <path d="M279.012224,741.387217 C277.950398,745.494742 276.38231,749.045283 274.300373,752.03501 C272.224125,755.034307 269.651094,757.369434 266.592658,759.051873 C263.538013,760.734312 260.001755,761.576489 256.000948,761.576489 C251.954634,761.576489 248.397519,760.734312 245.316329,759.051873 C242.237035,757.369434 239.669692,755.034307 237.604821,752.03501 C235.54943,749.045283 233.988926,745.494742 232.932789,741.387217 C231.878548,737.275864 231.349531,732.797015 231.349531,727.941101 C231.349531,723.161748 231.878548,718.778602 232.932789,714.799317 C233.988926,710.810462 235.54943,707.388162 237.604821,704.515191 C239.669692,701.646048 242.237035,699.416194 245.316329,697.819887 C248.397519,696.229321 251.954634,695.427339 256.000948,695.427339 C260.001755,695.427339 263.538013,696.229321 266.592658,697.819887 C269.651094,699.416194 272.224125,701.646048 274.300373,704.515191 C276.38231,707.388162 277.950398,710.810462 279.012224,714.799317 C280.064569,718.778602 280.593585,723.161748 280.593585,727.941101 C280.593585,732.797015 280.064569,737.275864 279.012224,741.387217 M296.699203,707.648471 C294.704488,704.781242 292.283147,702.193463 289.427595,699.896618 C286.579627,697.590202 283.426384,695.635969 279.960282,694.024349 C276.496077,692.41273 272.741765,691.172433 268.708724,690.30346 C264.656722,689.430659 260.422693,689 256.000948,689 C251.573515,689 247.335693,689.430659 243.29886,690.30346 C239.258235,691.172433 235.502027,692.405073 232.045406,694.003295 C228.575512,695.590032 225.412789,697.546179 222.566717,699.864079 C219.714957,702.189635 217.297408,704.781242 215.295108,707.648471 C213.290913,710.517614 211.745577,713.666206 210.647726,717.075108 C209.544186,720.497408 209,724.114939 209,727.941101 C209,731.84191 209.544186,735.532175 210.647726,739.021466 C211.745577,742.508843 213.290913,745.741653 215.295108,748.72181 C217.297408,751.690483 219.714957,754.364394 222.566717,756.739715 C225.412789,759.113122 228.575512,761.128604 232.045406,762.797645 C235.502027,764.462858 239.258235,765.743349 243.29886,766.648689 C247.335693,767.546373 251.573515,768 256.000948,768 C260.422693,768 264.656722,767.565513 268.708724,766.69654 C272.741765,765.833309 276.496077,764.575786 279.960282,762.925886 C283.426384,761.275985 286.579627,759.275815 289.427595,756.921549 C292.283147,754.569196 294.704488,751.899113 296.699203,748.932355 C298.709087,745.954112 300.254423,742.698333 301.352274,739.149707 C302.44823,735.612565 303,731.84191 303,727.837743 C303,724.05369 302.44823,720.449557 301.352274,717.055967 C300.254423,713.652808 298.709087,710.517614 296.699203,707.648471" id="Fill-5" fill="#727171" mask="url(#mask-4)"></path>
                <path d="M362.1403,717.160557 C361.563672,718.950139 360.679887,720.534924 359.504019,721.8996 C358.324382,723.273846 356.845126,724.347595 355.066249,725.139988 C353.294909,725.94195 351.233372,726.336233 348.868445,726.336233 L342.041251,726.336233 L342.041251,696.654052 L348.261667,696.654052 C350.300592,696.654052 352.226452,696.989001 354.027942,697.653156 C355.82001,698.317311 357.382181,699.281962 358.731414,700.545197 C360.065571,701.798861 361.115184,703.354936 361.87083,705.201938 C362.626476,707.045112 363.012779,709.160073 363.012779,711.525766 C363.012779,713.489522 362.720696,715.363319 362.1403,717.160557 M375.057887,694.606081 C371.978771,692.759079 368.34941,691.356124 364.17734,690.416354 C360.007155,689.472756 355.52039,689 350.728351,689 L321,689 L321,768 L342.041251,768 L342.041251,733.498389 L354.376557,733.498389 C358.213203,733.498389 361.968819,733.033289 365.64529,732.110745 C369.325531,731.178631 372.589318,729.794815 375.442305,727.942071 C378.300945,726.093156 380.607455,723.784882 382.363719,721.013422 C384.119984,718.238134 385,714.984349 385,711.244409 C385,707.548492 384.11433,704.310018 382.335453,701.538558 C380.552807,698.765185 378.131349,696.454997 375.057887,694.606081" id="Fill-6" fill="#727171" mask="url(#mask-4)"></path>
                <polygon id="Fill-7" fill="#727171" mask="url(#mask-4)" points="457.253708 723.616451 422.910272 723.616451 422.910272 689 402 689 402 768 422.910272 768 422.910272 730.395809 457.253708 730.395809 457.253708 768 478 768 478 689 457.253708 689"></polygon>
                <path d="M635.983248,716.986384 C635.066065,718.785536 633.802349,720.303331 632.210933,721.541684 C630.608217,722.776208 628.726768,723.725548 626.547752,724.397359 C624.378153,725.061514 622.010804,725.398377 619.451356,725.398377 L614.899341,725.398377 L614.899341,696.654052 L623.408237,696.654052 C625.43847,696.654052 627.312385,697.008141 629.011151,697.712489 C630.706151,698.414924 632.177033,699.398716 633.406849,700.679176 C634.646082,701.953895 635.615998,703.465948 636.314715,705.201938 C637.013431,706.939843 637.367498,708.840436 637.367498,710.913289 C637.367498,713.171799 636.902315,715.192974 635.983248,716.986384 M647.607176,726.914258 C650.004659,725.608916 652.051841,724.106432 653.773207,722.425948 C655.48139,720.739721 656.818556,718.894634 657.754572,716.877286 C658.696238,714.863767 659.153888,712.744979 659.153888,710.522835 C659.153888,707.422168 658.472122,704.555009 657.099172,701.930927 C655.71304,699.301102 653.656441,697.02728 650.899242,695.103719 C648.142043,693.180157 644.680478,691.681502 640.537146,690.605839 C636.380631,689.530176 631.549884,689 626.037369,689 L594,689 L594,768 L614.899341,768 L614.899341,732.212187 L618.617039,732.212187 L647.302077,768 L670,768 L639.638797,730.169958 C642.548545,729.316317 645.205928,728.23874 647.607176,726.914258" id="Fill-8" fill="#727171" mask="url(#mask-4)"></path>
                <polygon id="Fill-9" fill="#727171" mask="url(#mask-4)" points="761.031791 689 731.889407 742.974561 702.390617 689 682 689 682 768 695.249281 768 695.249281 715.906893 724.095602 768 732.189242 768 760.075716 716.513628 760.075716 768 781 768 781 689"></polygon>
                <polygon id="Fill-10" fill="#727171" mask="url(#mask-4)" points="180.730491 739.2602 131.51344 689 118 689 118 768 131.397192 768 131.397192 713.741569 183.678636 768 194 768 194 689 180.730491 689"></polygon>
                <path d="M519.7998,739.04201 L533.055205,713.519551 L545.884187,739.04201 L519.7998,739.04201 Z M531.357167,689 L490,768 L504.473479,768 L515.847273,746.420268 L549.469571,746.420268 L560.290738,768 L582,768 L542.308364,689 L531.357167,689 Z" id="Fill-11" fill="#727171" mask="url(#mask-4)"></path>
                <path d="M481.356105,513.401096 L436.358879,513.401096 L436.358879,511.999107 C436.888147,511.534935 437.424976,511.068869 437.973146,510.597118 C441.178998,506.872375 443.311191,504.070293 444.38674,502.204132 L481.356105,502.204132 L481.356105,513.401096 Z M436.358879,535.796918 L481.356105,535.796918 L481.356105,524.596165 L436.358879,524.596165 L436.358879,535.796918 Z M436.358879,559.602307 L481.356105,559.602307 L481.356105,547.694876 L436.358879,547.694876 L436.358879,559.602307 Z M508.681453,570.791693 L580.992686,570.791693 L580.992686,559.602307 L508.681453,559.602307 L508.681453,547.694876 L580.992686,547.694876 L580.992686,535.796918 L508.681453,535.796918 L508.681453,524.596165 L580.992686,524.596165 L580.992686,513.401096 L508.681453,513.401096 L508.681453,502.204132 L580.992686,502.204132 L580.992686,490.995801 L508.681453,490.995801 L508.681453,481 L481.356105,481 L481.356105,490.995801 L450.817345,490.995801 C452.431612,488.201296 453.758563,484.933147 454.837891,481.191353 L429.12492,481.191353 C424.314253,496.596177 414.921637,503.554967 401,511.019609 L401,528.099242 C404.215303,527.172793 407.432496,526.466115 410.640238,526.001943 L410.640238,570.791693 L481.356105,570.791693 L481.356105,584.093534 L402.614267,584.093534 L402.614267,596.692487 L432.241931,596.692487 C422.582791,613.470881 416.653099,622.953251 408.307678,636.550647 L439.521255,636.550647 C451.656613,615.380617 450.764418,617.170995 461.266606,596.692487 L481.356105,596.692487 L481.356105,638 L508.681453,638 L508.681453,596.692487 L528.861684,596.692487 C538.774116,617.307405 540.779663,621.538 548.994658,636.724948 L580.627869,636.760945 C571.025436,619.512695 566.052208,611.443682 557.886359,596.692487 L585,596.692487 L585,584.093534 L508.681453,584.093534 L508.681453,570.791693 Z" id="Fill-12" fill="#264A94" mask="url(#mask-4)"></path>
                <path d="M753.386884,526.713419 L729.2219,526.713419 L729.2219,509.978093 L704.251607,509.978093 L704.251607,526.713419 L641.435534,526.713419 L641.435534,540.659209 L673.647933,540.659209 C670.95346,564.83833 660.213468,582.838195 641.435534,598.631722 L641.435534,615.267017 C674.167121,599.941558 692.981057,575.065998 697.803442,540.659209 L704.251607,540.659209 L704.251607,589.585549 C704.251607,595.630801 700.763193,598.648709 693.786367,598.648709 L685.729477,598.648709 L685.729477,615.119802 L703.448192,615.119802 C721.174485,615.578434 729.760037,607.90438 729.2219,592.097641 L729.2219,540.659209 L753.386884,540.659209 L753.386884,614.578127 C753.915547,622.027583 749.888997,625.734382 741.314814,625.734382 L632.565755,625.734382 L632.565755,498.344333 L753.386884,498.344333 L753.386884,526.713419 Z M606,483 L606,638.981844 L750.171329,638.981844 C770.565567,639.44425 780.494565,631.073756 779.981062,613.883574 L779.981062,483 L606,483 Z" id="Fill-13" fill="#264A94" mask="url(#mask-4)"></path>
                <path d="M247.498302,521 L223.070192,521 C218.176522,532.606509 209.487097,544.690101 197,557.228148 L197,571.163502 C208.396847,571.163502 218.444773,570.924017 227.143779,570.467677 C220.071526,576.973356 211.378268,583.703434 201.073587,590.665454 L201.073587,606 C227.680281,606 251.895707,605.962286 272.811642,605.962286 L272.878705,590.610768 C259.893427,590.610768 244.507301,590.665454 227.143779,590.665454 C247.776134,577.674838 264.049406,560.714815 276,539.809899 L252.384308,539.809899 C248.588552,545.853581 244.026364,551.83692 239.686442,556.941521 C233.173684,557.414833 226.323696,557.228148 218.176522,557.228148 C229.582949,547.942941 239.353044,535.870663 247.498302,521" id="Fill-14" fill="#264A94" mask="url(#mask-4)"></path>
                <path d="M316.65415,528.951119 C317.182224,525.706762 317.729226,523.392855 318.268657,522 L294.138114,522 C291.986068,538.669151 283.938138,551.639059 270,560.885287 L270,574.789404 C288.764625,567.381519 301.374059,558.584538 307.815054,548.396582 L348.037672,548.396582 L348.037672,609.663418 C348.563854,617.080701 344.541782,620.774306 335.97524,620.774306 L314.536173,620.774306 L314.536173,637.98105 L345.628214,637.98105 C364.392839,638.439696 373.506383,630.573165 372.978308,614.36078 L372.978308,533.813894 L315.047213,533.813894 C315.047213,532.887204 315.57718,531.266905 316.65415,528.951119" id="Fill-15" fill="#264A94" mask="url(#mask-4)"></path>
                <polygon id="Fill-16" fill="#264A94" mask="url(#mask-4)" points="333.201311 481 308.301144 481 308.301144 491.565781 267.303672 491.565781 267.303672 481 241.592591 481 241.592591 491.565781 195 491.565781 195 506.865741 241.592591 506.865741 241.592591 518 267.303672 518 267.303672 506.865741 308.301144 506.865741 308.301144 518 333.201311 518 333.201311 506.865741 379 506.865741 379 491.565781 333.201311 491.565781"></polygon>
                <polygon id="Fill-17" fill="#264A94" mask="url(#mask-4)" points="199 638 274 638 274 621 199 621"></polygon>
                <polygon id="Fill-18" fill="#264A94" mask="url(#mask-4)" points="331 593.724391 307.601996 573 296 583.277491 319.394309 604"></polygon>
                <polygon id="Fill-19" fill="#264A94" mask="url(#mask-4)" points="139 593.968251 97.2502673 593.968251 97.2502673 563.094985 132.578563 563.094985 132.578563 549.07083 97.2502673 549.07083 97.2502673 528.033648 136.59692 528.033648 136.59692 514 35.4219719 514 35.4219719 528.033648 71.5531831 528.033648 71.5531831 549.07083 38.6260783 549.07083 38.6260783 563.094985 71.5531831 563.094985 71.5531831 593.968251 33 593.968251 33 608 139 608"></polygon>
                <path d="M112.213597,591 L132,591 C129.768336,582.506244 128.440055,577.130644 125.884933,569 L107,569 C109.074721,577.130644 110.579084,583.436119 112.213597,591" id="Fill-20" fill="#264A94" mask="url(#mask-4)"></path>
                <path d="M26.5676493,498.344161 L147.388776,498.344161 L147.388776,614.576656 C147.917439,622.02603 143.890889,625.732787 135.314811,625.732787 L26.5676493,625.732787 L26.5676493,498.344161 Z M0,638.981989 L144.171326,638.981989 C164.567459,639.442502 174.494562,631.072102 173.981059,613.882111 L173.981059,483 L0,483 L0,638.981989 Z" id="Fill-21" fill="#264A94" mask="url(#mask-4)"></path>
                <path d="M365,0 L365,78.5202119 C324.529315,93.8381883 279.238175,97 253.935028,97 C220.986747,97 189.815219,88.1718592 162.988333,72.3571345 C157.021767,68.8836747 153,62.4486136 153,55.0446102 C153,48.0976906 156.534624,41.9893878 161.900756,38.3931576 C186.237168,22.4537737 238.138735,0 365,0" id="Fill-22" fill="#47539E" mask="url(#mask-4)"></path>
                <path d="M595.155413,41.3567921 C566.44146,30.3092455 523.939815,42.5771934 494.679271,52.6205884 C463.879197,63.1923853 397.565889,97.5667087 336.109479,115.573739 C316.541928,121.309061 295.884979,124.51144 274.588765,125.485504 C258.559866,126.218873 229.74189,124.7747 211.626869,120.005921 C191.58838,115.079185 173.108335,106.243029 157,94.3981784 L199.804255,167.987061 C218.490453,182.505888 241.38672,191.913696 266.370999,194.068673 C276.707039,194.956238 287.205732,195.206335 297.838708,194.832129 C349.274927,193.021272 415.718736,166.892649 437.928455,156.317091 C468.605594,141.709884 517.201058,125.177113 540.110564,122.82281 C553.276012,121.470779 566.891593,121.935246 580.406934,125.675428 C586.782559,127.441155 592.762899,130.950044 597.774885,135.929432 C605.538736,143.652372 609.46889,153.729615 609.610738,163.848227 C621.353917,141.576373 628,116.230011 628,89.3398124 C627.992435,68.7866748 615.604318,49.2245256 595.155413,41.3567921" id="Fill-23" fill="#5BB647" mask="url(#mask-4)"></path>
                <path d="M535.891768,191.189953 C532.244314,189.841124 528.519454,189.142082 524.836129,189.018944 C524.696423,189.015155 523.916714,189 523.663733,189 C491.759831,189 459.534983,201.7381 425.046524,216.615003 C386.608543,233.196886 343.19779,246.186944 317.493806,248.329536 C310.180017,248.93954 302.934193,249.060784 295.777102,248.797459 C273.395851,248.060528 252.770363,240.319916 236,227.693588 L272.83514,291.60005 C284.209837,300.636447 298.002955,306.764905 313.121391,308.318332 C320.739134,309.102623 328.494696,309.138617 336.344653,308.786254 C374.582514,307.071801 417.273971,287.460736 442.943973,276.692836 C460.259943,269.427724 491.33505,257.57432 516.034662,259.468743 C528.528894,260.883877 538.855797,268.336537 544.511995,278.594837 C553.662727,262.687367 558.926238,244.250844 559,224.579156 C559.039513,210.105765 550.211615,196.484865 535.891768,191.189953" id="Fill-24" fill="#2EB6AA" mask="url(#mask-4)"></path>
                <path d="M483.183192,322.682524 C469.417326,316.661657 450.50647,321.886314 436.378493,327.469265 C415.525064,335.710042 384.830521,352.832356 351.418262,355.183072 C347.915972,355.429518 344.443858,355.514827 340.988718,355.490182 C325.783839,355.495869 311.857664,350.051307 301,341.010528 L336.962122,403.514936 C342.763438,408.013525 349.758588,411.003105 357.410063,411.712111 C361.385737,412.081781 365.431193,412.066615 369.523799,411.829647 C389.466293,410.669455 407.358713,402.550005 424.543885,395.495961 C435.252555,390.223911 448.522405,385.537644 461.052945,388.089309 C466.409167,389.179358 470.492342,392.978419 472.36702,397.763264 C486.555348,383.895934 495.543993,364.644705 495.983429,343.181149 C496.321022,334.608618 491.481563,326.312864 483.183192,322.682524" id="Fill-25" fill="#3497CE" mask="url(#mask-4)"></path>
            </g>
        </g>
    </g>
</svg>