<?xml version="1.0" encoding="UTF-8"?>
<svg width="1026px" height="648px" viewBox="0 0 1026 648" version="1.1" xmlns="http://www.w3.org/2000/svg" xmlns:xlink="http://www.w3.org/1999/xlink">
    <title>中国远洋海运集团有限公司@2x</title>
    <defs>
        <polygon id="path-1" points="0 648 1024 648 1024 0 0 0"></polygon>
    </defs>
    <g id="页面-1" stroke="none" stroke-width="1" fill="none" fill-rule="evenodd">
        <g id="38.中国远洋海运集团有限公司" transform="translate(1.000000, -60.000000)">
            <g id="中国远洋海运集团有限公司" transform="translate(0.000000, 60.000000)">
                <path d="M284.783701,197.196817 C260.351417,199.078156 235.916192,202.837889 217.121901,221.64539 C179.530378,261.135841 175.772697,372.087729 320.494912,358.9213 C376.880726,353.280228 416.349618,319.430849 405.07069,261.135841 C395.675016,204.719228 337.411833,191.555744 284.783701,197.196817 M284.783701,232.927535 C309.215984,225.405123 339.289202,232.927535 346.807507,261.135841 C350.565188,287.462809 346.807507,317.552454 316.734288,323.193527 C290.424636,330.715938 262.228787,323.193527 256.590794,293.103881 C252.833113,264.898519 254.710482,240.449946 284.783701,232.927535" id="Fill-1" fill="#0050A2"></path>
                <path d="M284.783701,197.196817 C260.351417,199.078156 235.916192,202.837889 217.121901,221.64539 C179.530378,261.135841 175.772697,372.087729 320.494912,358.9213 C376.880726,353.280228 416.349618,319.430849 405.07069,261.135841 C395.675016,204.719228 337.411833,191.555744 284.783701,197.196817 Z M284.783701,232.927535 C309.215984,225.405123 339.289202,232.927535 346.807507,261.135841 C350.565188,287.462809 346.807507,317.552454 316.734288,323.193527 C290.424636,330.715938 262.228787,323.193527 256.590794,293.103881 C252.833113,264.898519 254.710482,240.449946 284.783701,232.927535 Z" id="Stroke-3" stroke="#0050A2" stroke-width="0.216"></path>
                <path d="M892.573622,196.404172 C864.171552,202.030959 847.129124,205.784108 828.195399,226.417617 C792.219247,265.80806 799.79333,374.60239 941.800714,355.845456 C1068.6629,340.838734 1045.94065,172.017515 892.573622,196.404172 M869.851373,286.441568 C867.957111,256.428124 873.636932,232.044403 905.827526,230.167829 C936.120893,228.291254 960.737403,233.918041 962.631665,267.681697 C966.417225,295.821504 958.843142,322.081799 926.655513,323.958374 C894.467884,325.832011 873.636932,322.081799 869.851373,286.441568" id="Fill-5" fill="#0050A2"></path>
                <path d="M892.573622,196.404172 C864.171552,202.030959 847.129124,205.784108 828.195399,226.417617 C792.219247,265.80806 799.79333,374.60239 941.800714,355.845456 C1068.6629,340.838734 1045.94065,172.017515 892.573622,196.404172 Z M869.851373,286.441568 C867.957111,256.428124 873.636932,232.044403 905.827526,230.167829 C936.120893,228.291254 960.737403,233.918041 962.631665,267.681697 C966.417225,295.821504 958.843142,322.081799 926.655513,323.958374 C894.467884,325.832011 873.636932,322.081799 869.851373,286.441568 Z" id="Stroke-7" stroke="#0050A2" stroke-width="0.216"></path>
                <path d="M436.423497,322.890964 C434.546817,328.508512 432.667196,349.094465 436.423497,352.836566 C442.06236,356.584528 549.153702,354.709082 554.789624,352.836566 C588.611038,347.221949 611.154726,311.658799 586.728476,281.713197 C562.302225,249.892148 498.427463,272.353548 489.032299,257.382212 C485.273056,251.767595 485.273056,240.53543 494.66822,236.790398 C500.304142,233.048296 573.577011,234.917882 586.728476,234.917882 L586.728476,201.230178 C566.064409,199.357662 485.273056,199.357662 468.362349,203.099764 C421.395352,214.331929 421.395352,255.509696 438.303118,274.226064 C466.485669,306.044182 526.610014,283.585713 532.245936,300.429565 C545.394459,328.508512 496.5449,321.018448 466.485669,321.018448 L436.423497,322.890964 Z" id="Fill-9" fill="#0050A2"></path>
                <path d="M436.423497,322.890964 C434.546817,328.508512 432.667196,349.094465 436.423497,352.836566 C442.06236,356.584528 549.153702,354.709082 554.789624,352.836566 C588.611038,347.221949 611.154726,311.658799 586.728476,281.713197 C562.302225,249.892148 498.427463,272.353548 489.032299,257.382212 C485.273056,251.767595 485.273056,240.53543 494.66822,236.790398 C500.304142,233.048296 573.577011,234.917882 586.728476,234.917882 L586.728476,201.230178 C566.064409,199.357662 485.273056,199.357662 468.362349,203.099764 C421.395352,214.331929 421.395352,255.509696 438.303118,274.226064 C466.485669,306.044182 526.610014,283.585713 532.245936,300.429565 C545.394459,328.508512 496.5449,321.018448 466.485669,321.018448 L436.423497,322.890964 Z" id="Stroke-11" stroke="#0050A2" stroke-width="0.216"></path>
                <path d="M788.829508,322.345837 C779.42856,316.667432 728.67109,320.452047 711.749972,320.452047 C683.547126,318.558257 676.029899,305.307658 676.029899,276.912669 C674.149121,208.765881 751.228657,240.948449 785.067951,233.373291 C788.829508,231.482465 788.829508,229.588675 788.829508,229.588675 L788.829508,201.193686 C777.547781,195.515281 691.07024,197.409071 664.751116,206.875055 C627.150265,220.125655 610.229146,252.305259 617.749317,292.057058 C623.388708,333.70561 653.469389,348.847036 691.07024,352.631651 C713.627807,354.525441 734.310482,354.525441 756.870993,354.525441 C762.510384,354.525441 785.067951,356.422194 788.829508,352.631651 C792.588122,348.847036 790.710287,328.027205 788.829508,322.345837" id="Fill-13" fill="#0050A2"></path>
                <path d="M788.829508,322.345837 C779.42856,316.667432 728.67109,320.452047 711.749972,320.452047 C683.547126,318.558257 676.029899,305.307658 676.029899,276.912669 C674.149121,208.765881 751.228657,240.948449 785.067951,233.373291 C788.829508,231.482465 788.829508,229.588675 788.829508,229.588675 L788.829508,201.193686 C777.547781,195.515281 691.07024,197.409071 664.751116,206.875055 C627.150265,220.125655 610.229146,252.305259 617.749317,292.057058 C623.388708,333.70561 653.469389,348.847036 691.07024,352.631651 C713.627807,354.525441 734.310482,354.525441 756.870993,354.525441 C762.510384,354.525441 785.067951,356.422194 788.829508,352.631651 C792.588122,348.847036 790.710287,328.027205 788.829508,322.345837 Z" id="Stroke-15" stroke="#0050A2" stroke-width="0.216"></path>
                <path d="M173.646064,352.622962 C177.412362,345.130463 175.529213,330.148398 175.529213,320.782041 C119.058325,313.289542 60.7072357,343.259538 60.7072357,277.700904 C60.7072357,212.145203 119.058325,242.112267 175.529213,234.619768 C175.529213,225.256344 177.412362,210.271346 173.646064,202.778846 C156.706566,197.160205 73.8804362,200.907921 55.0577893,206.526562 C-18.3525964,227.130201 -18.3525964,330.148398 55.0577893,348.878179 C73.8804362,352.622962 158.586768,358.241604 173.646064,352.622962" id="Fill-17" fill="#0050A2"></path>
                <path d="M173.646064,352.622962 C177.412362,345.130463 175.529213,330.148398 175.529213,320.782041 C119.058325,313.289542 60.7072357,343.259538 60.7072357,277.700904 C60.7072357,212.145203 119.058325,242.112267 175.529213,234.619768 C175.529213,225.256344 177.412362,210.271346 173.646064,202.778846 C156.706566,197.160205 73.8804362,200.907921 55.0577893,206.526562 C-18.3525964,227.130201 -18.3525964,330.148398 55.0577893,348.878179 C73.8804362,352.622962 158.586768,358.241604 173.646064,352.622962 Z" id="Stroke-19" stroke="#0050A2" stroke-width="0.216"></path>
                <path d="M771.074914,437.497018 C782.394777,445.047168 788.054709,460.147468 795.605223,469.582939 C806.925086,482.794963 822.020206,480.906687 839,480.906687 L839,390.307842 L808.80976,390.307842 C806.925086,401.634545 810.697389,429.946868 806.925086,437.497018 C799.377526,433.723421 788.054709,414.846568 782.394777,405.411097 C771.074914,386.534245 759.755051,390.307842 739,390.307842 L739,480.906687 L771.074914,480.906687 L771.074914,437.497018 Z" id="Fill-21" fill="#0050A2"></path>
                <path d="M771.074914,437.497018 C782.394777,445.047168 788.054709,460.147468 795.605223,469.582939 C806.925086,482.794963 822.020206,480.906687 839,480.906687 L839,390.307842 L808.80976,390.307842 C806.925086,401.634545 810.697389,429.946868 806.925086,437.497018 C799.377526,433.723421 788.054709,414.846568 782.394777,405.411097 C771.074914,386.534245 759.755051,390.307842 739,390.307842 L739,480.906687 L771.074914,480.906687 L771.074914,437.497018 Z" id="Stroke-23" stroke="#0050A2" stroke-width="0.216"></path>
                <path d="M216.001467,445.694415 C227.354421,443.807586 244.37941,443.807586 253.836751,445.694415 L253.836751,481.5294 C263.297052,481.5294 276.539698,483.413276 286,479.642571 L286,391 L253.836751,391 L253.836751,424.951109 C244.37941,426.834985 227.354421,426.834985 216.001467,424.951109 L214.108814,391 L183.841179,391 C183.841179,406.088725 181.948526,470.214332 183.841179,481.5294 C193.298519,481.5294 206.544127,483.413276 216.001467,479.642571 L216.001467,445.694415 Z" id="Fill-25" fill="#0050A2"></path>
                <path d="M216.001467,445.694415 C227.354421,443.807586 244.37941,443.807586 253.836751,445.694415 L253.836751,481.5294 C263.297052,481.5294 276.539698,483.413276 286,479.642571 L286,391 L253.836751,391 L253.836751,424.951109 C244.37941,426.834985 227.354421,426.834985 216.001467,424.951109 L214.108814,391 L183.841179,391 C183.841179,406.088725 181.948526,470.214332 183.841179,481.5294 C193.298519,481.5294 206.544127,483.413276 216.001467,479.642571 L216.001467,445.694415 Z" id="Stroke-27" stroke="#0050A2" stroke-width="0.216"></path>
                <path d="M943.894581,460.414067 C904.105419,469.869026 896.526108,437.716837 906.000989,420.696135 C915.472904,403.672472 959.053204,411.238215 978,409.346039 L978,390.4302 C940.106408,388.543946 870,380.975241 870,435.824661 C870,458.521891 881.367484,473.653378 904.105419,479.326946 C921.159612,481.216161 960.948774,483.108337 978,481.216161 L978,435.824661 C930.631527,428.261878 951.476859,447.171795 943.894581,460.414067" id="Fill-29" fill="#0050A2"></path>
                <path d="M943.894581,460.414067 C904.105419,469.869026 896.526108,437.716837 906.000989,420.696135 C915.472904,403.672472 959.053204,411.238215 978,409.346039 L978,390.4302 C940.106408,388.543946 870,380.975241 870,435.824661 C870,458.521891 881.367484,473.653378 904.105419,479.326946 C921.159612,481.216161 960.948774,483.108337 978,481.216161 L978,435.824661 C930.631527,428.261878 951.476859,447.171795 943.894581,460.414067 Z" id="Stroke-31" stroke="#0050A2" stroke-width="0.216"></path>
                <path d="M80.4584071,412.984272 C91.7346339,405.478784 129.324018,411.107165 144.363892,409.232997 L144.363892,390.467809 C129.324018,390.467809 82.3387591,388.59364 71.0595896,392.347853 C48.507136,396.099128 37.2279666,420.492697 54.1452494,435.500735 C72.9399417,452.385879 112.409678,435.500735 114.29003,450.508773 C116.170382,463.645579 95.4923953,461.768473 87.9768725,461.768473 C76.6977031,461.768473 61.6637149,459.894304 50.3845454,461.768473 L52.2648974,478.653617 C61.6637149,482.40783 97.37569,480.530723 110.532269,480.530723 C165.038936,480.530723 159.39788,433.623629 123.685905,427.995247 C114.29003,426.121078 104.891213,426.121078 95.4923953,426.121078 C84.2161685,426.121078 78.5780551,426.121078 80.4584071,412.984272" id="Fill-33" fill="#0050A2"></path>
                <path d="M80.4584071,412.984272 C91.7346339,405.478784 129.324018,411.107165 144.363892,409.232997 L144.363892,390.467809 C129.324018,390.467809 82.3387591,388.59364 71.0595896,392.347853 C48.507136,396.099128 37.2279666,420.492697 54.1452494,435.500735 C72.9399417,452.385879 112.409678,435.500735 114.29003,450.508773 C116.170382,463.645579 95.4923953,461.768473 87.9768725,461.768473 C76.6977031,461.768473 61.6637149,459.894304 50.3845454,461.768473 L52.2648974,478.653617 C61.6637149,482.40783 97.37569,480.530723 110.532269,480.530723 C165.038936,480.530723 159.39788,433.623629 123.685905,427.995247 C114.29003,426.121078 104.891213,426.121078 95.4923953,426.121078 C84.2161685,426.121078 78.5780551,426.121078 80.4584071,412.984272 Z" id="Stroke-35" stroke="#0050A2" stroke-width="0.216"></path>
                <path d="M565.251667,454.968904 C576.511443,449.278695 649.705861,460.662084 630.938589,407.546529 C623.431092,384.78272 552.111345,388.581143 531.469402,390.47293 C531.469402,403.754046 529.591793,472.042504 533.347011,479.63044 C540.851569,483.422923 553.988953,481.525197 563.374058,481.525197 L565.251667,454.968904 Z M563.374058,409.444256 C576.511443,407.546529 600.911541,403.754046 599.033932,422.722402 C599.033932,437.898275 574.633834,436.000548 563.374058,434.105792 L563.374058,409.444256 Z" id="Fill-37" fill="#0050A2"></path>
                <path d="M565.251667,454.968904 C576.511443,449.278695 649.705861,460.662084 630.938589,407.546529 C623.431092,384.78272 552.111345,388.581143 531.469402,390.47293 C531.469402,403.754046 529.591793,472.042504 533.347011,479.63044 C540.851569,483.422923 553.988953,481.525197 563.374058,481.525197 L565.251667,454.968904 Z M563.374058,409.444256 C576.511443,407.546529 600.911541,403.754046 599.033932,422.722402 C599.033932,437.898275 574.633834,436.000548 563.374058,434.105792 L563.374058,409.444256 Z" id="Stroke-39" stroke="#0050A2" stroke-width="0.216"></path>
                <path d="M430.045902,452.822916 C448.896259,450.943659 465.863646,454.702172 482.828082,447.188087 C505.450281,439.674002 516.759905,390.833918 456.436992,390.833918 C439.472556,390.833918 413.078515,388.957602 398,390.833918 L398,481 L430.045902,481 L430.045902,452.822916 Z M430.045902,434.039173 L430.045902,409.620602 C441.358477,407.741345 465.863646,403.985773 465.863646,420.8932 C465.863646,439.674002 443.241447,435.918429 430.045902,434.039173 L430.045902,434.039173 Z" id="Fill-41" fill="#0050A2"></path>
                <path d="M430.045902,452.822916 C448.896259,450.943659 465.863646,454.702172 482.828082,447.188087 C505.450281,439.674002 516.759905,390.833918 456.436992,390.833918 C439.472556,390.833918 413.078515,388.957602 398,390.833918 L398,481 L430.045902,481 L430.045902,452.822916 Z M430.045902,434.039173 L430.045902,409.620602 C441.358477,407.741345 465.863646,403.985773 465.863646,420.8932 C465.863646,439.674002 443.241447,435.918429 430.045902,434.039173 Z" id="Stroke-43" stroke="#0050A2" stroke-width="0.216"></path>
                <path d="M327,481.528299 C336.118991,481.528299 350.705379,483.415104 358,479.641493 L358,391 L327,391 L327,481.528299 Z" id="Fill-45" fill="#0050A2"></path>
                <path d="M327,481.528299 C336.118991,481.528299 350.705379,483.415104 358,479.641493 L358,391 L327,391 L327,481.528299 Z" id="Stroke-47" stroke="#0050A2" stroke-width="0.216"></path>
                <mask id="mask-2" fill="white">
                    <use xlink:href="#path-1"></use>
                </mask>
                <g id="Clip-50"></g>
                <polygon id="Fill-49" fill="#0050A2" mask="url(#mask-2)" points="666 481 697 481 697 390 666 390"></polygon>
                <polygon id="Stroke-51" stroke="#0050A2" stroke-width="0.216" mask="url(#mask-2)" points="666 481 697 481 697 390 666 390"></polygon>
                <path d="M700,509 L653.101216,509.011839 C599.288019,578.67759 515.957982,623.385972 422.42011,623.385972 C328.935358,623.385972 245.646636,578.724948 191.827537,509.124313 L146,509.124313 C206.925333,593.062412 308.254092,648 422.954258,648 C537.713446,648 639.080569,593.012095 700,509" id="Fill-52" fill="#0050A2" mask="url(#mask-2)"></path>
                <path d="M700,509 L653.101216,509.011839 C599.288019,578.67759 515.957982,623.385972 422.42011,623.385972 C328.935358,623.385972 245.646636,578.724948 191.827537,509.124313 L146,509.124313 C206.925333,593.062412 308.254092,648 422.954258,648 C537.713446,648 639.080569,593.012095 700,509 Z" id="Stroke-53" stroke="#0050A2" stroke-width="0.567" mask="url(#mask-2)"></path>
                <path d="M897,169 C839.639259,69.4525671 728.808691,2 601.5,2 C474.191309,2 363.357791,69.4496197 306,169 L348.794151,169 C400.101704,81.6845161 493.837621,23.2305371 600.966069,23.2305371 C708.097466,23.2305371 801.830433,81.6845161 853.140936,169 L897,169 Z" id="Fill-54" fill="#CE141C" mask="url(#mask-2)"></path>
                <path d="M897,169 C839.639259,69.4525671 728.808691,2 601.5,2 C474.191309,2 363.357791,69.4496197 306,169 L348.794151,169 C400.101704,81.6845161 493.837621,23.2305371 600.966069,23.2305371 C708.097466,23.2305371 801.830433,81.6845161 853.140936,169 L897,169 Z" id="Stroke-55" stroke="#CE141C" stroke-width="0.567" mask="url(#mask-2)"></path>
                <path d="M878,508 L831.101216,508.011839 C777.288019,577.67759 693.957982,622.385972 600.42011,622.385972 C506.935358,622.385972 423.646636,577.701269 369.830488,508.100635 L324,508.124313 C384.925333,592.062412 486.254092,647 600.954258,647 C715.713446,647 817.080569,592.009135 878,508" id="Fill-56" fill="#CE141C" mask="url(#mask-2)"></path>
                <path d="M878,508 L831.101216,508.011839 C777.288019,577.67759 693.957982,622.385972 600.42011,622.385972 C506.935358,622.385972 423.646636,577.701269 369.830488,508.100635 L324,508.124313 C384.925333,592.062412 486.254092,647 600.954258,647 C715.713446,647 817.080569,592.009135 878,508 Z" id="Stroke-57" stroke="#CE141C" stroke-width="0.567" mask="url(#mask-2)"></path>
                <path d="M718,170 C660.639259,70.4525671 549.808691,3 422.5,3 C295.191309,3 184.357791,70.4496197 127,170 L169.794151,170 C221.101704,82.6845161 314.837621,24.2305371 421.966069,24.2305371 C529.097466,24.2305371 622.830433,82.6845161 674.140936,170 L718,170 Z" id="Fill-58" fill="#0050A2" mask="url(#mask-2)"></path>
                <path d="M718,170 C660.639259,70.4525671 549.808691,3 422.5,3 C295.191309,3 184.357791,70.4496197 127,170 L169.794151,170 C221.101704,82.6845161 314.837621,24.2305371 421.966069,24.2305371 C529.097466,24.2305371 622.830433,82.6845161 674.140936,170 L718,170 Z" id="Stroke-59" stroke="#0050A2" stroke-width="0.567" mask="url(#mask-2)"></path>
            </g>
        </g>
    </g>
</svg>