<?xml version="1.0" encoding="UTF-8"?>
<svg width="1024px" height="181px" viewBox="0 0 1024 181" version="1.1" xmlns="http://www.w3.org/2000/svg" xmlns:xlink="http://www.w3.org/1999/xlink">
    <title>中国南方电网有限责任公司@2x</title>
    <defs>
        <polygon id="path-1" points="0 0 238 0 238 181 0 181"></polygon>
        <polygon id="path-3" points="0 181 1024 181 1024 0 0 0"></polygon>
    </defs>
    <g id="页面-1" stroke="none" stroke-width="1" fill="none" fill-rule="evenodd">
        <g id="16.中国南方电网有限责任公司" transform="translate(0.000000, -293.000000)">
            <g id="中国南方电网有限责任公司" transform="translate(0.000000, 293.000000)">
                <g id="编组">
                    <mask id="mask-2" fill="white">
                        <use xlink:href="#path-1"></use>
                    </mask>
                    <g id="Clip-2"></g>
                    <path d="M238,68.8267844 L238,44.908774 L163.967742,44.908774 L163.967742,-0.00858430164 L163.217994,-0.00858430164 L136.162802,-0.00858430164 L136.162802,33.5774959 C116.412298,24.5210576 74.8334173,18.7051933 29.4308216,18.7051933 L-0.0021421371,18.7051933 L-0.0021421371,42.6553948 L29.4308216,42.6553948 C75.1011845,42.6553948 116.862147,48.5463718 136.162802,57.6457316 L136.162802,70.9728599 C116.412298,61.9378824 74.8334173,56.0790965 29.4308216,56.0790965 L-0.0021421371,56.0790965 L-0.0021421371,80.0507588 L29.4308216,80.0507588 C75.0690524,80.0507588 116.851436,85.9417358 136.162802,95.0518259 L136.162802,108.400415 C116.401588,99.3439768 74.8334173,93.4744605 29.4308216,93.4744605 L-0.0021421371,93.4744605 L-0.0021421371,117.456853 L29.4308216,117.456853 C75.0690524,117.456853 116.851436,123.34783 136.162802,132.479381 L136.162802,181.002146 L238,181.002146 L238,157.051945 L163.967742,157.051945 L163.967742,143.628243 L238,143.628243 L238,119.678041 L163.967742,119.678041 L163.967742,106.222148 L238,106.222148 L238,82.304138 L163.967742,82.304138 L163.967742,68.8267844 L238,68.8267844 Z" id="Fill-1" fill="#003779" mask="url(#mask-2)"></path>
                </g>
                <path d="M323,172.569128 C322.299257,174.637078 320.067658,181 309.179182,181 C300.155762,181 294,175.877848 294,167.690888 C294,160.437156 298.700372,154 309.534944,154 C311.421561,154 316.057249,154.106049 319.744238,156.979969 C321.404461,158.263158 322.245353,159.790259 322.902974,161.646112 L316.262082,162.876277 C315.410409,160.044776 312.672119,158.517675 309.233086,158.517675 C300.942751,158.517675 300.942751,165.665357 300.942751,167.319717 C300.942751,169.780047 301.309294,172.272192 302.7,173.894737 C303.928996,175.358209 306.160595,176.49293 309.136059,176.49293 C313.566914,176.49293 315.636803,173.799293 316.488476,170.946583 L323,172.569128 Z" id="Fill-3" fill="#231916"></path>
                <polygon id="Fill-5" fill="#231916" points="328 155 334.55542 155 334.55542 165.244021 347.434024 165.244021 347.434024 155 354 155 354 181 347.434024 181 347.434024 169.659911 334.55542 169.659911 334.55542 181 328 181"></polygon>
                <mask id="mask-4" fill="white">
                    <use xlink:href="#path-3"></use>
                </mask>
                <g id="Clip-8"></g>
                <polygon id="Fill-7" fill="#231916" mask="url(#mask-4)" points="361.0845 181 367.9155 181 367.9155 155 361.0845 155"></polygon>
                <polygon id="Fill-9" fill="#231916" mask="url(#mask-4)" points="376 155 382.393617 155 395.765957 172.379003 395.87234 172.379003 395.87234 155 402 155 402 181 395.361702 181 382.212766 164.042562 382.138298 164.042562 382.138298 181 376 181"></polygon>
                <path d="M438,181 L424.827642,155 L417.789626,155 L405,181 L412.048647,181 L414.759665,175.140251 L427.889497,175.140251 L430.728093,181 L438,181 Z M416.779639,170.703283 L421.255477,161.049453 L425.77384,170.703283 L416.779639,170.703283 Z" id="Fill-10" fill="#231916" mask="url(#mask-4)"></path>
                <path d="M459.504986,171.561665 C459.828081,172.919089 460.711209,176.588374 466.753091,176.588374 C471.448744,176.588374 473.301157,174.658288 473.301157,172.993323 C473.301157,170.776905 470.98564,170.299686 464.836059,169.143755 C461.551256,168.475648 454.195453,167.043991 454.195453,161.306756 C454.195453,158.422231 456.586358,154 466.322298,154 C472.848823,154 478.793777,155.972506 479.073793,161.890024 L472.342641,162.112726 C472.051855,160.787117 471.545672,158.294973 466.225369,158.294973 C464.254487,158.294973 460.62505,158.814611 460.62505,160.903771 C460.62505,162.611155 462.70363,163.321681 468.056243,164.307934 C473.1073,165.251767 480,166.534957 480,172.993323 C480,176.153574 477.436777,178.815397 474.561229,179.844069 C471.599521,180.925766 468.23933,181 466.710012,181 C463.112884,181 454.303151,180.734878 453,172.049489 L459.504986,171.561665 Z" id="Fill-11" fill="#231916" mask="url(#mask-4)"></path>
                <path d="M484,167.616654 C484,173.682639 487.751254,181 500.560682,181 C512.520562,181 517,174.371956 517,167.542419 C517,159.896308 511.615848,154 500.472417,154 C489.891675,154 484,159.260016 484,167.616654 M491.094283,167.489395 C491.094283,163.671642 492.705115,158.517675 500.51655,158.517675 C508.890672,158.517675 509.894684,164.435192 509.894684,167.436371 C509.894684,174.965829 504.124373,176.49293 500.51655,176.49293 C496.368104,176.49293 493.940822,174.711312 492.804413,173.216025 C491.998997,172.155538 491.094283,170.426944 491.094283,167.489395" id="Fill-12" fill="#231916" mask="url(#mask-4)"></path>
                <path d="M528.560649,154 L528.560649,168.366281 C528.560649,171.487047 528.560649,172.79992 529.393915,174.069749 C530.617444,175.974492 533.159432,176.415703 535.174037,176.415703 C541.449899,176.415703 541.449899,173.165803 541.449899,168.656835 L541.449899,154 L548,154 L548,167.968115 C548,172.724591 547.767951,175.339578 546.185801,177.341172 C543.707099,180.472698 538.992292,181 535.353347,181 C522,181 522,174.295735 522,168.18334 L522,154 L528.560649,154 Z" id="Fill-13" fill="#231916" mask="url(#mask-4)"></path>
                <polygon id="Fill-14" fill="#231916" mask="url(#mask-4)" points="562.69168 159.41589 553 159.41589 553 155 579 155 579 159.41589 569.297716 159.41589 569.297716 181 562.69168 181"></polygon>
                <polygon id="Fill-15" fill="#231916" mask="url(#mask-4)" points="584 155 590.560649 155 590.560649 165.244021 603.449899 165.244021 603.449899 155 610 155 610 181 603.449899 181 603.449899 169.659911 590.560649 169.659911 590.560649 181 584 181"></polygon>
                <polygon id="Fill-16" fill="#231916" mask="url(#mask-4)" points="617 155 642.379634 155 642.379634 159.41589 623.879421 159.41589 623.879421 165.191325 641.105667 165.191325 641.105667 169.575598 623.879421 169.575598 623.879421 176.615728 643 176.615728 643 181 617 181"></polygon>
                <path d="M648,181 L654.479279,181 L654.479279,170.165788 L655.764685,170.165788 C660.164324,170.165788 660.571892,170.661127 664.511712,175.329955 L669.183063,181 L677,181 L673.06018,175.930685 C669.820541,171.767734 668.566486,170.808675 665.849369,169.575598 L665.849369,169.512363 C667.103423,169.385894 668.336577,169.111877 669.486126,168.700851 C672.60036,167.64694 674.366486,165.117552 674.366486,162.303608 C674.366486,159.77422 672.840721,156.79165 669.078559,155.642886 C668.096216,155.421565 666.518198,155 661.67964,155 L648,155 L648,181 Z M654.479279,159.41589 L659.58955,159.41589 C663.957838,159.41589 664.762523,159.41589 665.985225,159.974463 C667.207928,160.564653 667.657297,161.565869 667.657297,162.619781 C667.657297,163.410215 667.427387,165.075395 665.17009,165.707742 C664.041441,166.023916 661.292973,166.023916 659.296937,166.023916 L654.479279,166.023916 L654.479279,159.41589 Z" id="Fill-17" fill="#231916" mask="url(#mask-4)"></path>
                <polygon id="Fill-18" fill="#231916" mask="url(#mask-4)" points="681 155 687.420278 155 700.771055 172.379003 700.856092 172.379003 700.856092 155 707 155 707 181 700.3565 181 687.228945 164.042562 687.154538 164.042562 687.154538 181 681 181"></polygon>
                <path d="M727,181 L733.835165,181 L733.835165,171.198622 L738.340659,171.198622 C741.362637,171.198622 745.010989,171.167004 747.450549,170.292258 C749.582418,169.533441 753,167.573166 753,162.98865 C753,158.604378 749.813187,156.623024 747.626374,155.811512 C745.846154,155.147548 743.978022,155 738,155 L727,155 L727,181 Z M737.142857,159.41589 C741.230769,159.41589 742.835165,159.41589 744.373626,160.438184 C745.538462,161.154844 745.923077,162.124443 745.923077,163.083502 C745.923077,166.814349 741.153846,166.814349 737.626374,166.814349 L733.835165,166.814349 L733.835165,159.41589 L737.142857,159.41589 Z" id="Fill-19" fill="#231916" mask="url(#mask-4)"></path>
                <path d="M757,167.616654 C757,173.682639 760.761029,181 773.555147,181 C785.522059,181 790,174.371956 790,167.542419 C790,159.896308 784.617647,154 773.466912,154 C762.911765,154 757,159.260016 757,167.616654 M764.102941,167.489395 C764.102941,163.671642 765.702206,158.517675 773.522059,158.517675 C781.882353,158.517675 782.875,164.435192 782.875,167.436371 C782.875,174.965829 777.139706,176.49293 773.522059,176.49293 C769.386029,176.49293 766.9375,174.711312 765.823529,173.216025 C764.996324,172.155538 764.102941,170.426944 764.102941,167.489395" id="Fill-20" fill="#231916" mask="url(#mask-4)"></path>
                <polygon id="Fill-21" fill="#231916" mask="url(#mask-4)" points="790 155 796.926829 155 801.945799 172.863802 802.03252 172.863802 808.113821 155 816.157182 155 822.02168 173.158897 822.097561 173.158897 827.138211 155 834 155 825.848238 181 818.639566 181 812.04878 161.576409 811.96206 161.576409 805.360434 181 798.01084 181"></polygon>
                <polygon id="Fill-22" fill="#231916" mask="url(#mask-4)" points="835 155 860.379898 155 860.379898 159.41589 841.887564 159.41589 841.887564 165.191325 859.084327 165.191325 859.084327 169.575598 841.887564 169.575598 841.887564 176.615728 861 176.615728 861 181 835 181"></polygon>
                <path d="M867,181 L873.487392,181 L873.487392,170.165788 L874.824568,170.165788 C879.191282,170.165788 879.57781,170.661127 883.505764,175.329955 L888.185879,181 L896,181 L892.061599,175.930685 C888.833573,171.767734 887.569524,170.808675 884.842939,169.575598 L884.842939,169.512363 C886.127882,169.385894 887.339697,169.111877 888.478386,168.700851 C891.622839,167.64694 893.388329,165.117552 893.388329,162.303608 C893.388329,159.77422 891.842219,156.79165 888.112752,155.642886 C887.10987,155.421565 885.532421,155 880.706052,155 L867,155 L867,181 Z M873.487392,159.41589 L878.585375,159.41589 C882.962536,159.41589 883.756484,159.41589 885.020533,159.974463 C886.190562,160.564653 886.67111,161.565869 886.67111,162.619781 C886.67111,163.410215 886.441282,165.075395 884.184798,165.707742 C883.056556,166.023916 880.309078,166.023916 878.313761,166.023916 L873.487392,166.023916 L873.487392,159.41589 Z" id="Fill-23" fill="#231916" mask="url(#mask-4)"></path>
                <path d="M929.573407,166.534957 L944,166.534957 L944,176.938335 C942.035665,178.444226 936.529086,181 929.798823,181 C917.862535,181 913,174.297722 913,167.436371 C913,161.009819 917.443906,154 929.455332,154 C934.822368,154 941.756579,155.21956 943.581371,161.646112 L936.894044,162.611155 C935.605956,158.984289 931.484072,158.517675 929.487535,158.517675 C926.675208,158.517675 923.648199,159.206991 921.705332,161.423409 C920.266967,163.077769 919.891274,165.198743 919.891274,167.224273 C919.891274,171.095051 921.61946,176.49293 929.401662,176.49293 C933.287396,176.49293 936.389543,174.764336 937.226801,174.265907 L937.226801,170.946583 L929.573407,170.946583 L929.573407,166.534957 Z" id="Fill-24" fill="#231916" mask="url(#mask-4)"></path>
                <path d="M951,181 L957.50018,181 L957.50018,170.165788 L958.816937,170.165788 C963.174775,170.165788 963.603243,170.661127 967.522162,175.329955 L972.203964,181 L980,181 L976.081081,175.930685 C972.841441,171.767734 971.576937,170.808675 968.85982,169.575598 L968.85982,169.512363 C970.134775,169.385894 971.326126,169.111877 972.475676,168.700851 C975.631712,167.64694 977.387387,165.117552 977.387387,162.303608 C977.387387,159.77422 975.861622,156.79165 972.089009,155.642886 C971.106667,155.421565 969.528649,155 964.700541,155 L951,155 L951,181 Z M957.50018,159.41589 L962.61045,159.41589 C966.957838,159.41589 967.772973,159.41589 968.985225,159.974463 C970.197477,160.564653 970.657297,161.565869 970.657297,162.619781 C970.657297,163.410215 970.437838,165.075395 968.190991,165.707742 C967.072793,166.023916 964.313874,166.023916 962.328288,166.023916 L957.50018,166.023916 L957.50018,159.41589 Z" id="Fill-25" fill="#231916" mask="url(#mask-4)"></path>
                <polygon id="Fill-26" fill="#231916" mask="url(#mask-4)" points="982.0735 181 988.9265 181 988.9265 155 982.0735 155"></polygon>
                <path d="M997,155 L997,181 L1009.20262,181 C1011.27634,181 1016.62215,181 1019.89425,178.080665 C1024,174.507904 1024,169.807458 1024,168.258208 C1024,163.157276 1022.39521,160.785975 1021.31146,159.41589 C1017.84137,155 1012.54766,155 1008.87958,155 L997,155 Z M1006.4203,159.41589 C1012.7144,159.41589 1017.2995,159.41589 1017.2995,168.068504 C1017.2995,176.415484 1013.32922,176.615728 1008.35855,176.615728 L1003.48167,176.615728 L1003.48167,159.41589 L1006.4203,159.41589 Z" id="Fill-27" fill="#231916" mask="url(#mask-4)"></path>
                <path d="M351.693328,90.6578051 L379.212598,90.6578051 L379.212598,72.0101066 L351.693328,72.0101066 L351.693328,90.6578051 Z M308.528802,105.256289 L308.216328,103.625947 L335.099876,103.625947 L335.099876,124.756454 L334.615002,137 L352.199751,137 L351.693328,124.756454 L351.693328,103.625947 L379.212598,103.625947 L379.040199,105.45875 L396,105.45875 L395.569001,92.8209382 L395.569001,69.505987 L396,58.9460617 L382.714463,59.3936065 L351.693328,59.3936065 L351.693328,52.8615841 L352.199751,40 L334.615002,40 L335.099876,52.8615841 L335.099876,59.3936065 L304.822213,59.3936065 L292,58.9460617 L292.366349,69.505987 L292.366349,92.8209382 L292,105.256289 L308.528802,105.256289 Z M308.216328,90.6578051 L335.099876,90.6578051 L335.099876,72.0101066 L308.216328,72.0101066 L308.216328,90.6578051 Z" id="Fill-28" fill="#231916" mask="url(#mask-4)"></path>
                <path d="M434.516854,123.749681 L507.164794,123.749681 L507.164794,55.5913356 L434.516854,55.5913356 L434.516854,123.749681 Z M420.371411,55.1712035 L420.371411,124.299085 L420,136.245917 L434.516854,136.245917 L434.516854,134.823931 L507.164794,134.823931 L507.164794,137 L522,137 L521.564919,125.02085 L521.564919,55.1712035 L522,44 L510.093633,44.3554964 L432.012484,44.3554964 L420,44 L420.371411,55.1712035 Z M436.533084,117.81397 L447.02809,117.533882 L493.99563,117.533882 L505.169788,117.81397 L505.169788,106.793583 L496.171036,107.041353 C498.166042,105.166918 500.04432,103.410981 501.752809,101.859724 L498.866417,99.3281594 L494.674782,95.9024673 C493.974407,95.2992007 493.019351,94.3943009 491.809613,93.1446774 L500.808365,93.5971273 L500.808365,82.2427893 L493.083021,82.447469 L478.15231,82.447469 L478.15231,72.3319819 L493.794007,72.3319819 L504.257179,72.8275223 L504.257179,61.2792772 L493.083021,61.5270474 L448.428839,61.5270474 L438.114232,61.2792772 L438.114232,72.6336152 L448.428839,72.3319819 L463.868914,72.3319819 L463.868914,82.447469 L451.538077,82.447469 L441.202247,82.2427893 L441.202247,93.4894011 L451.538077,93.1446774 L463.868914,93.1446774 L463.868914,107.041353 L447.155431,107.041353 L436.533084,106.793583 L436.533084,117.81397 Z M478.15231,107.041353 L478.15231,93.1446774 L486.387016,93.1446774 C484.094881,95.1268389 481.834582,96.7211861 479.6804,97.8523109 C483.808365,100.911734 486.333958,103.03394 487.289014,104.111201 C488.286517,105.188463 489.135456,106.168771 489.867665,107.041353 L478.15231,107.041353 Z" id="Fill-29" fill="#231916" mask="url(#mask-4)"></path>
                <path d="M540,63.4399913 L552.097628,63.0841865 L587.948441,63.0841865 L587.829837,69.930734 L557.100569,69.930734 L545.73613,69.5533653 L546.167418,79.2571335 L546.167418,123.204422 L545.73613,136.595622 L561.359537,136.595622 L561.111547,123.204422 L561.111547,81.1871052 L578.201333,81.1871052 C576.551657,82.3946853 574.686336,83.4728817 572.573025,84.4216946 C574.826505,86.3085384 576.42227,87.7533217 577.274064,88.7883903 C578.147422,89.812677 579.042345,90.8908734 580.00196,92.0121978 L575.548912,92.0121978 L566.103705,91.7857765 L566.103705,102.901982 L575.548912,102.621651 L588.509116,102.621651 L588.509116,108.142017 L578.945305,108.142017 L566.103705,107.894032 L566.103705,119.064147 L578.945305,118.740688 L588.509116,118.740688 L588.509116,123.58179 L588.271907,135.862448 L603.927661,135.862448 L603.62576,123.58179 L603.62576,118.740688 L612.15448,118.740688 L624.004117,119.064147 L624.004117,107.894032 L612.15448,108.142017 L603.62576,108.142017 L603.62576,102.621651 L614.55891,102.621651 L623.863948,102.901982 L623.863948,91.7857765 L614.55891,92.0121978 L612.650461,92.0121978 C613.566948,90.9663472 614.55891,89.5862557 615.669477,87.9042692 C616.790825,86.2007188 617.674966,84.7235896 618.375809,83.4728817 C616.52127,82.9445655 614.731425,82.1898279 612.952362,81.1871052 L628.554205,81.1871052 L628.554205,120.843171 C628.554205,122.557504 628.273868,123.678828 627.637718,124.314964 C627.023133,124.907972 625.556754,125.231431 623.260145,125.231431 C620.920408,125.263777 618.311115,125.05892 615.421486,124.541385 L616.898647,127.797539 C618.117036,130.471466 618.936483,132.757242 619.303078,134.590176 C619.65889,136.42311 619.971574,137.90024 620.176436,139 C631.61635,138.849052 638.376789,137.652254 640.479318,135.495861 C642.592629,133.307123 643.62772,130.902745 643.62772,128.239599 L643.62772,79.2571335 L644.059008,69.5533653 L631.648696,69.930734 L603.927661,69.930734 L604.06783,63.0841865 L636.08018,63.0841865 L650,63.4399913 L650,50.8574385 L636.08018,51.2024613 L604.207998,51.2024613 L604.488336,45.2615988 L604.790237,40.8517752 C601.070378,40.9595949 595.44207,40.6792638 587.948441,40 L588.271907,44.6901547 L587.948441,51.2024613 L552.097628,51.2024613 L540,50.8574385 L540,63.4399913 Z M604.207998,81.1871052 C603.140561,83.6669571 602.202509,85.5538009 601.286022,86.8799826 C600.369535,88.1522544 599.377573,89.4353082 598.320917,90.7399259 C599.679475,91.041821 600.973339,91.4407536 602.159381,92.0121978 L588.692413,92.0121978 C589.932366,90.9124374 591.560478,89.8881507 593.57675,88.8638641 L591.463439,86.7074711 L588.271907,83.4728817 C587.689669,82.9445655 586.848657,82.1898279 585.738091,81.1871052 L604.207998,81.1871052 Z" id="Fill-30" fill="#231916" mask="url(#mask-4)"></path>
                <path d="M694.166827,110.469737 C699.419181,103.811239 702.637325,97.669906 703.853546,92.0888349 C705.069767,86.475441 705.79089,80.2048167 706.049202,73.2230907 L706.232174,67.6851167 L681.466462,67.6851167 L667.915818,68.137636 L667.915818,54.8314144 L681.767826,55.1869652 L718.674226,55.1869652 C716.618489,51.2543572 713.454161,47.4402662 709.202768,43.6046266 C713.48645,42.214746 717.845474,39.9844724 722.247549,37 C724.088026,38.8531742 726.251393,41.3528045 728.705362,44.5096652 C731.170094,47.6665258 733.107438,50.3062216 734.517394,52.407204 C732.666154,53.3230168 730.987123,54.2603782 729.501826,55.1869652 L763.900442,55.1869652 L778,54.8314144 L778,68.137636 L762.544301,67.6851167 L722.129156,67.6851167 C721.827792,71.2944967 721.698635,73.4708989 721.698635,74.2466462 L721.386508,79.9893314 L753.976936,79.9893314 L764.384778,79.7307489 L763.900442,90.7528256 C763.64213,101.074575 763.426869,108.347206 763.265424,112.495299 C763.060926,116.708038 762.673458,120.241999 762.103017,123.151051 C761.521814,126.060104 760.165674,128.635154 757.98078,130.811556 C755.817413,133.04183 752.448587,134.798035 747.928118,136.155593 C743.364597,137.480828 737.186623,138.428964 729.361907,139 C729.082068,137.782508 728.716125,136.155593 728.264078,134.097708 C727.790505,132.061371 726.961753,130.1651 725.831636,128.430443 L723.431482,124.756417 C726.746492,124.853385 730.373631,124.831837 734.334422,124.724094 C738.262925,124.648674 741.104363,123.90525 742.837209,122.569241 C744.602345,121.222457 745.775514,119.843351 746.399769,118.388824 C747.024025,117.031267 747.389967,114.714799 747.519124,111.504067 L748.057275,98.8012042 L748.057275,91.7117355 L719.782818,91.7117355 C719.320008,93.6834266 718.835672,95.7628605 718.308284,97.8207457 C717.748607,99.9001796 716.403229,103.628076 714.207573,109.015211 C712.001153,114.359248 707.39458,119.617091 700.323275,124.777966 C693.262733,129.93884 685.44878,134.323967 676.892178,137.954896 C673.12512,132.847893 670.649625,129.766452 669.508745,128.710574 L666,125.510616 C679.550644,122.202915 688.957525,117.160558 694.166827,110.469737" id="Fill-31" fill="#231916" mask="url(#mask-4)"></path>
                <path d="M850.458247,100.75515 L877.030491,100.75515 L877.030491,88.9532504 L850.458247,88.9532504 L850.458247,100.75515 Z M850.458247,77.8153418 L877.030491,77.8153418 L877.030491,65.84209 L850.458247,65.84209 L850.458247,77.8153418 Z M812.363431,100.75515 L835.635782,100.75515 L835.635782,88.9532504 L812.363431,88.9532504 L812.363431,100.75515 Z M797.378676,62.9290985 L797.378676,103.046989 L797,113.724388 L812.363431,113.724388 L812.363431,112.160797 L835.635782,112.160797 L835.635782,127.229102 C835.635782,129.638746 835.927904,131.502203 836.533786,132.94799 C837.074752,134.372357 838.52454,135.636081 840.839874,136.856967 C843.155208,138.002887 846.671486,138.581201 851.410347,138.60262 C856.138389,138.634749 862.262123,138.699006 869.770729,138.848939 C877.582276,139.031001 883.359791,139.05242 887.135733,138.891777 C890.911675,138.699006 893.746336,138.324172 895.618078,137.681601 C897.500639,137.060448 899.253369,135.957367 900.854628,134.490162 C902.466706,132.969409 904.522376,128.62134 907,121.467376 C902.704731,120.267909 897.781942,118.275937 892.25327,115.470041 L891.506737,119.57179 C891.095603,122.238462 890.111046,124.080501 888.563883,125.130034 C887.016721,126.158149 885.015147,126.800721 882.515885,127.025621 C880.038261,127.229102 875.93774,127.293359 870.192682,127.175554 L856.830825,126.843559 C853.942067,126.779302 852.146061,126.37234 851.464444,125.654801 C850.782827,124.905134 850.458247,124.080501 850.458247,123.213029 L850.458247,112.160797 L877.019671,112.160797 L877.019671,114.099221 L892.372283,114.099221 L892.004426,103.818075 L892.004426,62.9290985 L892.372283,53.8152905 L882.472607,54.190124 L850.458247,54.190124 L850.458247,48.2891743 L850.750369,40 L835.322022,40 L835.635782,48.2891743 L835.635782,54.190124 L808.522573,54.190124 L797,53.8152905 L797.378676,62.9290985 Z M812.363431,77.8153418 L835.635782,77.8153418 L835.635782,65.84209 L812.363431,65.84209 L812.363431,77.8153418 Z" id="Fill-32" fill="#231916" mask="url(#mask-4)"></path>
                <path d="M940.869008,134.323216 L940.623721,120.683347 L940.623721,108.067268 C943.75913,110.69073 945.806744,112.525021 946.809221,113.644791 C947.811699,114.753897 948.803512,115.894996 949.773995,117.036095 C954.13584,111.92781 956.855327,108.557834 957.911128,106.851518 C958.998923,105.113208 959.937412,103.62018 960.705268,102.383101 L962.304966,105.209188 C962.592912,105.699754 963.083486,107.096801 963.808683,109.378999 L966.624152,107.11813 C968.298503,105.806399 971.380588,104.078753 975.902402,101.967186 C972.852311,96.9335521 969.844878,92.2198523 966.880103,87.804758 L968.106539,84.2534865 C968.54379,83.0164069 969.30098,80.2436423 970.410104,75.9565217 C974.260045,80.0196883 976.670257,82.6004922 977.608747,83.6882691 C978.547237,84.7973749 980.210923,87.314192 982.610471,91.2707137 L980.722827,95.685808 C979.432403,98.7678425 977.66207,101.839212 975.411828,104.835931 C973.17225,107.885972 969.994183,111.063987 965.90962,114.412633 C969.962189,116.374897 972.617688,117.76128 973.886782,118.678425 C975.155876,119.542248 976.563611,120.512715 978.109986,121.675144 C980.338899,119.59557 982.151891,117.707957 983.527631,116.001641 C984.914036,114.316653 987.686847,110.338802 991.824733,104.14274 L995.066789,109.848236 C995.365399,110.370796 996.143919,112.087777 997.402348,115.031173 C1001.49758,111.415915 1005.28353,108.461854 1008.74954,106.179655 L1006.66993,102.756358 C1006.46731,102.511075 1003.49187,98.1386382 997.700959,89.6923708 L999.417968,83.1657096 C1000.02585,80.7662018 1000.68706,77.5668581 1001.49758,73.4503692 L1002.57471,67.147662 C1002.71335,66.4544709 1002.89465,65.4413454 1003.18259,64.0549631 C998.308844,63.7776866 993.307121,63.2124692 988.230744,62.337982 L988.230744,65.6439705 C988.230744,67.3716161 987.804158,70.7735849 986.96165,75.9565217 C984.828719,73.4503692 982.919746,71.1894996 981.224065,69.2272354 L978.579231,71.1894996 C977.086179,72.3519278 974.441344,73.7169811 970.69805,75.1566858 L971.999138,69.707137 C971.999138,69.5791632 972.169773,68.7153404 972.479048,67.0730107 C972.798987,65.4413454 973.086933,64.0336341 973.342885,62.9138638 C967.519983,62.4446267 962.603576,61.6767842 958.572337,60.6316653 L958.380373,64.8441345 C958.295055,66.6251025 958.124421,68.3207547 957.868469,69.8777687 C957.591188,71.4454471 957.271249,73.0984413 956.855327,74.9114028 C954.455779,72.0853158 952.354842,69.4085316 950.499192,66.9770304 C947.363783,69.2272354 945.241517,70.5709598 944.079069,71.0721903 C942.905957,71.5627564 941.764839,72.0106645 940.623721,72.4585726 L940.623721,58.1788351 L1008.98416,58.1788351 L1008.98416,119.264971 C1008.98416,120.459393 1008.70688,121.429861 1008.17365,122.123052 C1007.61909,122.869565 1005.83809,123.168171 1002.84132,123.061526 C1000.3138,123.040197 997.615641,122.837572 994.778843,122.464315 L996.527847,125.770304 C998.234192,128.990976 999.226005,131.422477 999.481956,133.054143 C999.716579,134.696473 999.876549,136.008203 1000.02585,137 C1007.74706,136.573421 1013.33534,135.88023 1016.76936,134.845775 C1020.21405,133.779327 1022.219,132.339623 1022.81622,130.45201 C1023.40278,128.617719 1023.70139,126.580804 1023.70139,124.426579 L1023.70139,58.6160788 L1024,46 L1009.5174,46.3732568 L939.834536,46.3732568 L925,46 L925.362598,58.6160788 L925.362598,120.683347 L925,134.323216 L940.869008,134.323216 Z M940.623721,74.6127974 L943.684477,78.2067268 C944.505655,79.2411813 947.31046,82.8777687 951.981579,89.073831 C950.435204,93.3822806 948.803512,96.709598 947.097167,99.0344545 C945.380157,101.369975 943.236561,103.801477 940.623721,106.40361 L940.623721,74.6127974 Z" id="Fill-33" fill="#231916" mask="url(#mask-4)"></path>
            </g>
        </g>
    </g>
</svg>