<?xml version="1.0" encoding="UTF-8"?>
<svg width="1024px" height="336px" viewBox="0 0 1024 336" version="1.1" xmlns="http://www.w3.org/2000/svg" xmlns:xlink="http://www.w3.org/1999/xlink">
    <title>中国信息通信科技集团有限公司@2x</title>
    <defs>
        <polygon id="path-1" points="1 336 1024 336 1024 0 1 0"></polygon>
    </defs>
    <g id="页面-1" stroke="none" stroke-width="1" fill="none" fill-rule="evenodd">
        <g id="75.中国信息通信科技集团有限公司" transform="translate(0.000000, -216.000000)">
            <g id="中国信息通信科技集团有限公司" transform="translate(0.000000, 216.000000)">
                <path d="M0.870932195,150.940293 C-0.488201499,161.763474 -0.0741050569,177.631943 0.870932195,186.059707 C2.44786379,200.119031 12.3385059,211 33.1124998,211 L86,211 L86,188.704918 C73.6892773,188.692801 47.6470045,188.711443 35.7419655,188.711443 C29.2070937,188.711443 27.1029603,186.454904 27.1029603,182.293218 C27.096417,179.180109 27.096417,157.821756 27.1029603,154.706782 C27.1029603,150.544164 29.2070937,148.286693 35.7419655,148.286693 C47.6470045,148.286693 73.6892773,148.308131 86,148.296014 L86,126 L33.1124998,126 C12.3385059,126 2.63388003,136.900543 0.870932195,150.940293" id="Fill-1" fill="#0062B1"></path>
                <path d="M154.870932,150.940293 C153.511799,161.763474 153.925895,177.631943 154.870932,186.059707 C156.447864,200.119031 166.339441,211 187.1125,211 L240,211 L240,188.704918 C227.689277,188.692801 201.647005,188.711443 189.741966,188.711443 C183.207094,188.711443 181.10296,186.454904 181.10296,182.293218 C181.096417,179.180109 181.096417,157.821756 181.10296,154.706782 C181.10296,150.544164 183.207094,148.286693 189.741966,148.286693 C201.647005,148.286693 227.689277,148.308131 240,148.296014 L240,126 L187.1125,126 C166.339441,126 156.634815,136.900543 154.870932,150.940293" id="Fill-3" fill="#0062B1"></path>
                <mask id="mask-2" fill="white">
                    <use xlink:href="#path-1"></use>
                </mask>
                <g id="Clip-6"></g>
                <polygon id="Fill-5" fill="#0062B1" mask="url(#mask-2)" points="106 211 135 211 135 126 106 126"></polygon>
                <polygon id="Fill-7" fill="#0062B1" mask="url(#mask-2)" points="342 126 257 126 257 148.296259 285.097351 148.296259 285.097351 211 313.902649 211 313.902649 148.296259 342 148.296259"></polygon>
                <path d="M142.056691,104 C160.908379,76.1513627 192.995491,57.8161269 229.411419,57.8161269 C265.825497,57.8161269 297.911684,76.1513627 316.764296,104 L327,104 C306.110242,65.3207773 264.913826,39 217.498612,39 C170.086174,39 128.890683,65.3207773 108,104 L142.056691,104 Z" id="Fill-8" fill="#D70E19" mask="url(#mask-2)"></path>
                <path d="M53.837664,105 C78.0631559,56.6526319 127.768011,23.4977284 185.156869,23.4977284 C242.54665,23.4977284 292.252429,56.6526319 316.476997,105 L329,105 C303.1612,43.3002946 242.595622,0 171.999076,0 C101.404378,0 40.8397239,43.3002946 15,105 L53.837664,105 Z" id="Fill-9" fill="#D70E19" mask="url(#mask-2)"></path>
                <path d="M199.942671,232 C181.089292,259.847721 149.004302,278.183873 112.588681,278.183873 C76.1739858,278.183873 44.0889961,259.847721 25.2356171,232 L15,232 C35.8914321,270.679223 77.0875001,297 124.499537,297 C171.9125,297 213.108568,270.679223 234,232 L199.942671,232 Z" id="Fill-10" fill="#D70E19" mask="url(#mask-2)"></path>
                <path d="M288.161412,231 C263.93592,279.347797 214.231989,312.502063 156.842207,312.502063 C99.4533497,312.502063 49.7484948,279.347797 25.5230029,231 L13,231 C38.8397239,292.699321 99.4043775,336 170,336 C240.594698,336 301.160276,292.699321 327,231 L288.161412,231 Z" id="Fill-11" fill="#D70E19" mask="url(#mask-2)"></path>
                <path d="M493.425536,107 L493.425536,121.941512 L535.251054,121.941512 C540.35692,121.941512 544,125.608638 544,130.738557 L544,196.271843 C544,201.403607 540.35692,205.069811 535.251054,205.069811 L493.425536,205.069811 L493.425536,230 L471.742036,230 L471.742036,205.069811 L429.74802,205.069811 C424.64308,205.069811 421,201.403607 421,196.271843 L421,130.738557 C421,125.608638 424.64308,121.941512 429.74802,121.941512 L471.742036,121.941512 L471.742036,107 L493.425536,107 Z M440.225462,189.302827 L471.742036,189.302827 L471.742036,137.569226 L440.225462,137.569226 L440.225462,189.302827 Z M493.425536,189.302827 L525.303178,189.302827 L525.303178,137.569226 L493.425536,137.569226 L493.425536,189.302827 Z" id="Fill-12" fill="#D70E19" mask="url(#mask-2)"></path>
                <path d="M579,117.088463 L579,219.910614 C579,224.651267 582.812571,228 587.01961,228 L693.487074,228 C698.683516,228 702,224.651267 702,219.910614 L702,117.088463 C702,112.348733 698.683516,109 693.981313,109 L587.01961,109 C582.317408,109 579,112.348733 579,117.088463 L579,117.088463 Z M596.852663,213.905417 L684.139946,213.905417 L684.139946,123.236729 L596.852663,123.236729 L596.852663,213.905417 Z" id="Fill-13" fill="#D70E19" mask="url(#mask-2)"></path>
                <polygon id="Fill-14" fill="#D70E19" mask="url(#mask-2)" points="677 181.996482 663.496999 181.996482 663.496999 191.981265 649.215122 191.981265 649.215122 172.565273 673.741869 172.565273 673.741869 159.796809 649.215122 159.796809 649.215122 145.157361 676.15722 145.157361 676.15722 132 604.000445 132 604.000445 145.157361 630.628584 145.157361 630.628584 159.796809 606.424131 159.796809 606.424131 172.565273 630.628584 172.565273 630.628584 191.981265 602 191.981265 602 205 677 205"></polygon>
                <polygon id="Fill-15" fill="#D70E19" mask="url(#mask-2)" points="990 180 980.113855 157 963 157 973.10055 180"></polygon>
                <polygon id="Fill-16" fill="#D70E19" mask="url(#mask-2)" points="995 230 1013 230 1013 107 995 107"></polygon>
                <polygon id="Fill-17" fill="#D70E19" mask="url(#mask-2)" points="765 135 748 150.955665 748 229 765 229"></polygon>
                <polygon id="Fill-18" fill="#D70E19" mask="url(#mask-2)" points="990 142 980.075752 119 963 119 973.146256 142"></polygon>
                <path d="M957,152.840623 L957,138.346908 L937.5874,138.346908 L937.5874,125.652909 C941.941882,125.224669 947.464068,124.606305 954.534118,123.193297 L954.534118,108 C938.491337,110.970916 917.866916,113.065971 902.064434,113.377921 L902.064434,127.752578 C903.249033,127.752578 913.504924,127.326184 919.576231,126.85918 L919.576231,138.346908 L899.610755,138.346908 L899.610755,152.840623 L919.576231,152.840623 C913.458929,162.938415 904.988386,175.525354 898,184.19814 L898,208.706584 C908.664211,197.752311 919.576231,182.027406 919.576231,182.027406 L919.576231,229 L937.5874,229 L937.5874,179.815139 L957,192.271944 L957,173.364771 L937.5874,161.123009 L937.5874,152.840623 L957,152.840623 Z" id="Fill-19" fill="#D70E19" mask="url(#mask-2)"></path>
                <polygon id="Fill-20" fill="#D70E19" mask="url(#mask-2)" points="1024 203.474999 952 212 952 196.524084 1024 188"></polygon>
                <path d="M754.867045,107 C752.821146,124.680735 748.12333,143.434209 734,158.396969 L734,182 C758.62175,165.141883 770.078222,140.920036 773,107 L754.867045,107 Z" id="Fill-21" fill="#D70E19" mask="url(#mask-2)"></path>
                <path d="M776,187.716945 L776,221.281194 C776,225.264087 778.699059,228 782.634915,228 L852.366012,228 C856.300941,228 859,225.264087 859,221.281194 L859,187.716945 C859,183.734982 856.300941,181 852.366012,181 L782.634915,181 C778.699059,181 776,183.734982 776,187.716945 L776,187.716945 Z M793.071152,215.326397 L842.119981,215.326397 L842.119981,193.608462 L793.071152,193.608462 L793.071152,215.326397 Z" id="Fill-22" fill="#D70E19" mask="url(#mask-2)"></path>
                <polygon id="Fill-23" fill="#D70E19" mask="url(#mask-2)" points="777 174 858 174 858 161 777 161"></polygon>
                <polygon id="Fill-24" fill="#D70E19" mask="url(#mask-2)" points="777 152 858 152 858 139 777 139"></polygon>
                <polygon id="Fill-25" fill="#D70E19" mask="url(#mask-2)" points="775 131 860 131 860 118 775 118"></polygon>
                <polygon id="Fill-26" fill="#D70E19" mask="url(#mask-2)" points="808.07138 124 825 124 822.92862 107 806 107"></polygon>
            </g>
        </g>
    </g>
</svg>