<?xml version="1.0" encoding="UTF-8"?>
<svg width="1024px" height="519px" viewBox="0 0 1024 519" version="1.1" xmlns="http://www.w3.org/2000/svg" xmlns:xlink="http://www.w3.org/1999/xlink">
    <title>中国中化控股有限责任公司@2x</title>
    <g id="页面-1" stroke="none" stroke-width="1" fill="none" fill-rule="evenodd">
        <g id="42.中国中化控股有限责任公司" transform="translate(0.000000, -125.000000)">
            <g id="中国中化控股有限责任公司" transform="translate(0.000000, 125.000000)">
                <path d="M919.980758,42.0739856 L917.458231,42.1479713 L915.157917,42.2599773 L913.191951,42.3709557 L912.134383,42.4716584 L912.134383,206.488545 L913.711477,211.856613 L916.048826,217.562754 L918.867636,222.786962 L922.207001,227.530262 L926.064861,231.828622 L930.442247,235.681012 L935.376194,239.053524 L940.828637,242.018087 L946.801634,244.537708 L953.368228,246.612389 L960.528417,248.280148 L968.24311,249.502966 L976.516421,250.318863 L985.419335,250.725784 L994.916874,250.725784 L998.626593,250.651798 L1001.85279,250.54082 L1004.6356,250.392849 L1007.00998,250.28187 L1008.97595,250.095878 L1010.60859,249.910914 L1011.90689,249.68793 L1012.87084,249.465973 L1013.98396,249.021032 L1015.06005,248.354134 L1016.06207,247.353272 L1017.10112,246.057496 L1018.17514,244.278759 L1019.36337,242.055079 L1020.6987,239.313501 L1022.1832,235.940989 L1022.88791,234.311251 L1023.33233,233.05144 L1023.51751,232.161557 L1023.4064,231.531652 L1022.96198,231.160696 L1022.22024,230.975732 L1021.07008,230.938739 L1019.54854,231.012725 L1010.31231,231.494659 L1001.81576,231.790601 L994.025965,231.790601 L986.940875,231.568644 L980.448353,231.049717 L974.624526,230.271841 L969.393267,229.235014 L964.719597,227.863198 L960.565453,226.196466 L956.891741,224.231736 L953.739611,221.935099 L951.030879,219.303472 L948.731594,216.339936 L946.801634,213.004418 L945.243059,209.335964 L944.01986,205.260589 L942.906738,199.887383 L942.498319,196.996805 L942.202036,193.811313 L941.978794,190.253837 L941.793617,186.251421 L941.719546,181.768097 L941.68251,176.654868 L941.645475,166.39039 L943.797647,166.020462 L950.363211,164.648645 L957.076918,162.64795 L963.791653,160.091336 L970.321211,157.015795 L974.846739,154.496173 L979.187089,151.716574 L983.416334,148.64206 L987.497436,145.307569 L991.429368,141.67508 L995.176122,137.78467 L998.774734,133.635309 L1002.18714,129.224944 L1005.45243,124.593649 L1008.53049,119.702377 L1011.46144,114.552155 L1014.16914,109.215942 L1016.6927,103.620779 L1019.02902,97.8036589 L1023.14716,85.5384862 L1023.51751,84.2046897 L1023.77779,83.0938777 L1024,81.4631112 L1023.77779,80.3142789 L1023.11012,79.461389 L1022.81384,79.2024393 L1022.44245,79.0164477 L1021.73775,78.9054692 L1020.62463,78.8314836 L1018.80681,78.757498 L1017.61961,78.757498 L1016.21021,78.7205051 L1014.50349,78.7205051 L1012.57456,78.7205051 L1010.31231,78.7205051 L1007.75172,78.7205051 L1004.59856,78.7205051 L1001.88983,78.7205051 L999.590543,78.7205051 L997.624578,78.7205051 L995.991931,78.7944908 L994.657625,78.9054692 L993.58154,79.0534405 L992.727666,79.2764249 L991.503439,79.980316 L990.798736,81.0921555 L990.279211,82.722922 L989.72265,84.9455736 L988.053997,90.7257007 L986.273208,96.2468781 L984.343249,101.471085 L982.303212,106.474363 L980.076969,111.180671 L977.740649,115.663995 L975.255158,119.850348 L972.584489,123.814745 L969.801686,127.521219 L966.834734,131.003681 L963.717582,134.228222 L960.453318,137.22875 L957.039882,140.008349 L953.442299,142.52797 L949.658509,144.862628 L945.725548,146.937308 L941.793617,148.864017 L941.645475,96.1728924 L941.608439,85.575479 L941.608439,80.5362357 L941.571404,75.7189494 L941.571404,71.0876547 L941.534369,66.7523024 L941.534369,62.6758999 L941.534369,58.9334603 L941.497333,55.5249836 L941.497333,52.486435 L941.460298,49.8188421 L941.460298,47.595163 L941.460298,45.8164252 L941.422233,44.4836564 L941.422233,43.7047521 L941.422233,43.4088096 L941.200021,43.1858252 L940.717531,42.7408838 L940.198006,42.5559198 L939.122948,42.4079485 L937.565401,42.2599773 L935.635442,42.1859916 L933.336157,42.1109784 L930.850666,42.0369928 L925.397194,42 L919.980758,42.0739856 Z M862.072725,42.0369928 L859.402056,42.0739856 L857.027671,42.1859916 L854.913564,42.2969701 L853.243882,42.4449413 L852.056689,42.6299054 L851.426058,42.8158971 L850.869497,43.2598108 L850.424043,43.9277366 L849.904517,45.0015558 L849.274915,46.5943019 L843.488123,61.4911023 L837.478091,75.6819566 L831.20881,89.2069402 L824.716287,102.102018 L817.890446,114.441177 L810.767292,126.224415 L803.311847,137.52572 L795.48399,148.419076 L793.740237,150.717768 L792.478974,152.495478 L791.552059,153.940253 L790.995498,155.275077 L790.624115,156.682859 L790.475973,158.423577 L790.401902,160.647256 L790.364866,162.019073 L790.364866,163.611819 L790.327831,165.575521 L790.327831,167.280273 L790.364866,168.725048 L790.438937,169.947866 L790.550044,170.911734 L790.772257,171.652618 L791.032534,172.171545 L791.440952,172.467487 L792.554074,172.467487 L794.222727,171.652618 L796.523041,170.095837 L799.638135,167.836193 L804.275798,164.278717 L809.098638,160.277328 L813.958514,155.941975 L818.81839,151.383639 L823.49206,146.677331 L827.943516,141.972051 L832.024619,137.340756 L835.660267,132.894425 L836.43904,132.004542 L836.847459,131.633587 L836.884495,131.930557 L836.884495,132.857432 L836.92153,134.3392 L836.92153,136.376887 L836.92153,138.93453 L836.958565,141.935058 L836.958565,145.418548 L836.958565,149.308958 L836.995601,153.607318 L836.995601,158.238613 L836.995601,163.20387 L836.995601,168.46507 L836.995601,173.986248 L836.995601,179.729382 L836.958565,191.809591 L836.958565,198.998527 L836.958565,205.742523 L836.958565,212.041577 L836.958565,217.93371 L836.958565,223.342881 L836.958565,228.308139 L836.958565,232.828455 L836.995601,236.904858 L836.995601,240.499326 L837.032636,243.648853 L837.032636,246.316446 L837.069672,248.539098 L837.106707,250.28187 L837.106707,251.578674 L837.143743,252.392516 L837.180778,252.726479 L837.441055,253.245406 L837.848445,253.652326 L838.590183,253.949297 L839.851447,254.134261 L841.780377,254.246267 L843.042669,254.283259 L844.525116,254.320252 L846.268869,254.357245 L848.272899,254.357245 L850.572184,254.357245 L853.206846,254.357245 L855.580202,254.357245 L857.695339,254.357245 L859.587234,254.357245 L861.181816,254.320252 L863.816478,254.283259 L865.671337,254.209274 L866.968607,254.097268 L867.82248,253.912304 L868.342006,253.652326 L868.750424,253.356384 L868.824495,253.17142 L868.898566,252.763471 L868.972637,252.022588 L869.009673,250.83779 L869.046708,249.095017 L869.083744,246.76036 L869.120779,243.648853 L869.157814,241.795102 L869.157814,239.721449 L869.157814,237.423785 L869.19485,234.866143 L869.19485,232.050579 L869.19485,228.975037 L869.19485,225.602526 L869.19485,221.972092 L869.231885,218.007696 L869.231885,213.708309 L869.231885,209.077014 L869.231885,204.111756 L869.231885,198.812536 L869.231885,193.106394 L869.231885,187.06629 L869.231885,180.582272 L869.231885,173.727298 L869.231885,166.42841 L869.231885,80.0543016 L871.940618,74.3481601 L873.832513,70.2727852 L875.835514,65.7894617 L877.838516,61.1941322 L879.73041,56.7097812 L881.400093,52.5974134 L882.810526,49.0409655 L883.329023,47.5581702 L883.773449,46.3353522 L884.070761,45.3714839 L884.255938,44.7056133 L884.255938,43.7047521 L883.699378,42.8898827 L883.180881,42.703891 L882.068788,42.518927 L880.436142,42.3709557 L878.395076,42.2219569 L876.058756,42.1479713 L873.424094,42.0739856 L867.748409,42 L862.072725,42.0369928 Z M661.008223,42.0369928 L658.114313,42.0739856 L655.480681,42.1859916 L653.218431,42.2599773 L651.399578,42.4079485 L650.138315,42.5559198 L649.544719,42.7408838 L649.285471,43.0008611 L649.062229,43.3718168 L648.914087,44.1866863 L648.840016,45.556448 L648.802981,46.5203163 L648.765945,47.7431343 L648.765945,49.2259295 L648.72891,50.9666469 L648.72891,53.0423548 L648.72891,55.450998 L648.72891,58.2295693 L648.72891,61.4171167 L648.72891,79.461389 L622.612736,79.5127679 L622.612736,98.1365943 L623.354474,98.1365943 L649.025194,98.1365943 L649.025194,137.117771 L649.025194,176.098948 L623.503644,176.098948 L622.612736,176.098948 L622.612736,195.353708 L648.72891,195.404059 L648.72891,224.157751 L648.72891,229.124036 L648.72891,233.495353 L648.72891,237.274786 L648.72891,240.573312 L648.765945,243.351883 L648.765945,245.686541 L648.802981,247.61325 L648.802981,249.170031 L648.840016,250.429841 L648.877052,251.39371 L648.951123,252.096573 L648.988158,252.6155 L649.1363,253.208413 L649.322506,253.467362 L649.655825,253.764332 L650.138315,253.986289 L650.955153,254.171253 L652.364558,254.283259 L653.329537,254.320252 L654.515701,254.320252 L655.926135,254.357245 L657.632852,254.357245 L659.634825,254.357245 L661.935139,254.357245 L664.606836,254.320252 L667.647859,254.320252 L670.541769,254.283259 L673.064295,254.283259 L675.253503,254.246267 L677.107334,254.246267 L678.702945,254.209274 L680.039308,254.209274 L681.152429,254.171253 L682.04128,254.134261 L683.340608,254.060275 L684.082346,253.912304 L684.490765,253.72734 L684.787048,253.504355 L685.047325,253.208413 L685.232503,252.652493 L685.306574,252.170559 L685.343609,251.467695 L685.380644,250.503827 L685.454715,249.318002 L685.454715,247.761221 L685.491751,245.835539 L685.491751,243.499854 L685.528786,240.68429 L685.528786,237.386792 L685.528786,233.570367 L685.528786,229.124036 L685.528786,224.083765 L685.528786,195.367066 L701.926238,195.367066 L707.045362,195.367066 L711.626443,195.331101 L711.626443,176.054763 L711.051364,176.061956 L707.93627,176.061956 L701.332642,176.098948 L685.232503,176.098948 L685.232503,137.117771 L685.232503,98.1365943 L710.903222,98.1365943 L711.626443,98.1365943 L711.626443,79.5117403 L685.528786,79.461389 L685.528786,61.5280951 L685.528786,58.3775405 L685.528786,55.5999968 L685.528786,53.190326 L685.528786,51.151611 L685.491751,49.4108936 L685.491751,47.9291259 L685.454715,46.7063079 L685.454715,45.7424396 L685.343609,44.3716504 L685.232503,43.5567809 L685.047325,43.1488324 L684.824084,42.8528899 L684.267523,42.6668982 L683.043295,42.4819342 L681.300571,42.3709557 L679.037293,42.2219569 L676.439666,42.1479713 L673.546785,42.0739856 L667.277504,42 L661.008223,42.0369928 Z M911.633376,42.518927 L910.521283,42.6668982 L910.001758,42.8528899 L909.705474,43.222818 L909.593339,43.6677593 L909.519268,44.3716504 L909.408162,45.5194552 L909.371126,47.1872145 L909.297055,49.4848792 L909.26002,52.486435 L909.222984,54.3021656 L909.222984,56.3398531 L909.222984,58.600525 L909.185949,61.1201466 L909.185949,63.8987179 L909.185949,66.9752869 L909.185949,70.3467708 L909.148913,73.9772044 L909.148913,77.9426285 L909.148913,82.2409879 L909.148913,86.8722826 L909.148913,91.874533 L909.148913,97.2477392 L909.148913,102.990873 L909.148913,109.141956 L909.148913,115.700988 L909.148913,122.629947 L909.148913,129.113965 L909.148913,135.154069 L909.148913,140.823218 L909.148913,146.084418 L909.148913,150.976718 L909.148913,155.497034 L909.185949,159.683387 L909.185949,163.536806 L909.185949,167.095309 L909.185949,170.355814 L909.222984,173.320377 L909.222984,176.024963 L909.26002,178.507592 L909.297055,180.730243 L909.334091,182.768958 L909.408162,186.251421 L909.482233,189.031019 L909.593339,191.290664 L909.705474,193.143387 L909.890651,194.737161 L910.075829,196.144943 L910.262035,197.552725 L910.521283,199.03552 L911.893653,205.668537 L912.134383,206.488545 L912.134383,42.4716584 L911.633376,42.518927 Z M711.626443,98.1365943 L715.354679,98.1365943 L719.250604,98.1365943 L722.625975,98.1365943 L725.556921,98.1365943 L728.041383,98.1746147 L730.119484,98.1746147 L731.863237,98.2116075 L733.272642,98.2116075 L734.385764,98.2486003 L735.238608,98.2855931 L736.388765,98.3965715 L736.90829,98.5445428 L737.168567,98.7305344 L737.501886,99.1004626 L737.724099,99.730368 L737.79817,100.286288 L737.872241,101.064164 L737.946312,102.102018 L737.983347,103.5098 L738.020383,105.251545 L738.020383,107.437204 L738.020383,110.105825 L738.020383,113.329337 L738.020383,117.10877 L738.020383,121.5551 L738.020383,126.669357 L737.983347,132.523469 L737.983347,137.636698 L737.946312,142.194007 L737.946312,146.196424 L737.909277,149.716907 L737.909277,152.791421 L737.872241,155.423048 L737.872241,157.682693 L737.835206,159.572409 L737.79817,161.166183 L737.761135,162.462986 L737.724099,163.499813 L737.650028,164.352703 L737.538922,165.538528 L737.39078,166.279412 L736.612007,168.539056 L735.609992,170.4298 L734.348728,171.986581 L732.716082,173.209399 L730.676045,174.208205 L728.190554,174.913123 L725.148502,175.43205 L721.586925,175.801978 L720.437797,175.876992 L718.731079,175.913984 L716.504836,175.98797 L713.945274,176.024963 L711.626443,176.054763 L711.626443,195.331101 L711.756067,195.331101 L716.096417,195.256088 L720.103449,195.182102 L723.776132,195.071124 L727.188539,194.923153 L730.304661,194.737161 L733.161536,194.515204 L738.317695,193.959284 L739.782654,193.729107 L739.782654,79.5723674 L737.130503,79.5723674 L731.158535,79.5353746 L727.856206,79.5353746 L724.332693,79.5353746 L711.626443,79.5117403 L711.626443,98.1365943 Z M610.222316,79.5353746 L606.735838,79.5353746 L603.433509,79.5353746 L597.498577,79.5723674 L592.341388,79.5723674 L587.926967,79.6093602 L584.180212,79.6093602 L581.027054,79.6463531 L578.430457,79.6463531 L576.31532,79.7213663 L574.646667,79.7583591 L573.348368,79.7953519 L572.346353,79.8693375 L571.641651,79.9433231 L570.713706,80.16528 L570.083075,80.4252573 L568.451457,81.3141124 L567.079087,82.4629448 L565.92893,83.7977688 L565.000986,85.3535221 L564,87.3172239 L564,137.414741 L564,141.972051 L564,146.23239 L564,150.235834 L564,153.940253 L564,157.423743 L564,160.647256 L564,163.648812 L564,166.39039 L564.037035,171.281662 L564.037035,175.358065 L564.074071,178.730576 L564.111106,181.472155 L564.148142,183.62082 L564.222213,185.287552 L564.259248,186.547363 L564.370355,187.474239 L564.444426,188.142164 L564.555532,188.623071 L564.852844,189.290997 L565.780789,190.919708 L566.967981,192.328518 L568.340351,193.47735 L569.934933,194.404226 L570.6026,194.663175 L571.56758,194.885132 L572.309318,194.960145 L573.311333,195.034131 L574.609631,195.071124 L576.31532,195.145109 L578.430457,195.182102 L581.027054,195.219095 L584.180212,195.219095 L587.926967,195.256088 L592.341388,195.256088 L597.498577,195.293081 L603.433509,195.293081 L606.735838,195.330073 L610.222316,195.330073 L622.612736,195.353708 L622.612736,176.098948 L619.015152,176.098948 L615.082191,176.098948 L611.631721,176.098948 L608.701804,176.098948 L606.216313,176.061956 L604.138212,176.061956 L602.432523,176.024963 L601.023118,175.98797 L599.947032,175.950977 L599.093159,175.876992 L597.980038,175.727993 L597.424506,175.543029 L597.091186,175.246059 L596.793874,174.87613 L596.570632,174.171212 L596.496561,173.542334 L596.422491,172.616486 L596.34842,171.429633 L596.311384,169.836887 L596.274349,167.7992 L596.237313,165.316571 L596.237313,162.278022 L596.200278,158.646561 L596.200278,154.348202 L596.200278,149.345951 L596.200278,143.602817 L596.200278,137.006793 L596.200278,130.410769 L596.200278,124.667634 L596.200278,119.665384 L596.200278,115.367025 L596.237313,111.736591 L596.237313,108.697015 L596.274349,106.215414 L596.311384,104.213691 L596.34842,102.620945 L596.385455,101.3971 L596.422491,100.509272 L596.496561,99.8793668 L596.682768,99.211441 L596.942016,98.8785057 L597.239328,98.6185284 L597.757825,98.4335644 L598.870946,98.3225859 L599.686755,98.2855931 L600.799877,98.2486003 L602.173275,98.2116075 L603.915999,98.1746147 L605.993072,98.1746147 L608.516627,98.1365943 L611.446543,98.1365943 L614.895985,98.1365943 L618.828946,98.1365943 L622.612736,98.1365943 L622.612736,79.5127679 L610.222316,79.5353746 Z M739.782654,79.5723674 L739.782654,193.729107 L742.807217,193.255393 L746.850255,192.328518 L750.634044,191.216678 L754.86226,189.586939 L758.535972,187.697223 L761.651066,185.436551 L764.285728,182.842944 L766.399835,179.803368 L768.106553,176.320905 L769.404852,172.319516 L770.332796,167.762207 L770.480938,166.539389 L770.62908,164.908622 L770.666115,163.833776 L770.704179,162.499979 L770.741215,160.907233 L770.77825,158.979496 L770.815286,156.682859 L770.815286,153.940253 L770.815286,150.717768 L770.852321,146.974301 L770.852321,142.675942 L770.852321,137.747677 L770.852321,132.152514 L770.852321,125.85346 L770.852321,87.3172239 L769.887342,85.3535221 L768.960426,83.7977688 L767.809241,82.4629448 L766.436871,81.3141124 L764.805253,80.4252573 L764.174621,80.16528 L763.246677,79.9433231 L762.504939,79.8693375 L761.502924,79.7953519 L760.16759,79.7583591 L758.498937,79.7213663 L756.3838,79.6463531 L753.750167,79.6463531 L750.559974,79.6093602 L746.776184,79.6093602 L742.324727,79.5723674 L739.782654,79.5723674 Z M639.602754,286.149485 L637.859001,286.557434 L636.265448,287.187339 L633.518651,289.114048 L632.443594,290.336866 L631.626756,291.669635 L631.034188,293.115438 L630.737905,294.635226 L630.737905,296.116993 L630.997153,297.487783 L631.478614,298.710601 L632.183317,299.82244 L634.07624,301.527192 L636.524696,302.601012 L639.306471,302.971967 L642.200381,302.564019 L644.982155,301.342228 L646.31749,300.415353 L647.542746,299.26652 L648.468633,298.080695 L649.173335,296.857877 L649.655825,295.636087 L649.916102,294.375248 L649.804996,292.003598 L648.914087,289.854932 L647.393576,288.039202 L645.278439,286.742398 L642.644806,286.038507 L641.16133,286.000487 L639.602754,286.149485 Z M841.410022,287.557267 L835.288883,287.557267 L836.104692,290.151902 L836.661253,292.707489 L836.92153,295.599094 L836.847459,298.710601 L836.43904,301.935141 L836.327934,302.527026 L836.141728,303.452874 L835.845444,304.787698 L835.511096,306.455457 L835.066671,308.530137 L834.509081,310.975773 L833.916514,313.791338 L833.210782,316.978885 L832.396002,320.572326 L831.542129,324.53775 L830.577149,328.910095 L829.501063,333.652368 L828.388971,338.803617 L827.164743,344.324795 L825.829409,350.252893 L824.418975,356.589968 L824.085656,358.145721 L823.862414,359.479517 L823.714272,360.405365 L823.714272,360.813314 L823.937514,360.887299 L824.457039,360.924292 L825.235813,360.999305 L826.274863,361.036298 L828.796361,361.073291 L831.6913,361.110284 L834.621216,361.073291 L837.143743,361.036298 L838.182793,360.999305 L838.961567,360.924292 L839.480063,360.887299 L839.703305,360.813314 L839.814411,360.517371 L839.999588,359.77546 L840.259866,358.626627 L840.631249,357.145887 L841.038639,355.366122 L841.521129,353.328434 L842.560179,348.734133 L843.190811,345.955561 L843.784407,343.434912 L844.302904,341.17424 L844.822429,339.136553 L845.750373,335.728076 L846.603217,332.948477 L847.494126,330.724798 L848.421041,328.799116 L849.497127,327.057372 L850.757362,325.278634 L852.167796,323.611902 L853.652301,322.240085 L855.135777,321.165238 L856.619253,320.424355 L857.991622,320.053399 L859.253914,320.016406 L860.292965,320.387362 L861.107745,321.202231 L861.62727,322.388056 L861.701341,323.203953 L861.62727,324.315793 L861.405057,325.797561 L861.033674,327.798255 L860.515178,330.35487 L859.77344,333.652368 L859.142808,336.579938 L858.623283,339.248559 L858.177828,341.73016 L857.806445,343.990832 L857.360991,347.881243 L857.249884,351.142776 L857.510161,353.810369 L858.140793,355.997055 L859.142808,357.885744 L860.515178,359.51651 L862.072725,361.073291 L868.490147,361.073291 L870.976667,361.036298 L873.015675,360.999305 L874.352038,360.924292 L874.759428,360.887299 L874.871563,360.850307 L874.796464,360.591357 L874.611286,360.109423 L873.943619,358.700613 L873.387059,357.404837 L873.015675,356.034048 L872.904569,354.366288 L872.97864,352.327573 L873.312988,349.696973 L873.609271,348.14122 L873.943619,346.362482 L874.352038,344.324795 L874.796464,342.101116 L875.354053,339.581494 L875.983656,336.764902 L876.541246,334.320294 L877.022707,332.059622 L877.727409,328.169211 L878.171835,324.907678 L878.321005,322.203092 L878.171835,319.94242 L877.764445,317.979746 L877.022707,316.199981 L876.02172,314.495229 L874.091761,312.346563 L871.607299,310.753817 L868.750424,309.67897 L865.560231,309.197036 L862.220866,309.271021 L858.845495,309.900927 L855.543167,311.123745 L852.465108,312.939475 L851.239852,313.791338 L850.572184,314.199286 L850.349972,314.162293 L850.387007,313.82833 L851.426058,309.234029 L852.13076,305.08364 L852.465108,301.379221 L852.465108,298.117688 L852.093725,295.265131 L851.389022,292.782502 L850.312936,290.707822 L848.866496,288.929084 L847.531161,287.557267 L841.410022,287.557267 Z M591.414473,309.382 L586.258313,310.641811 L581.916934,312.680526 L580.063103,313.902316 L578.430457,315.311126 L577.058087,316.792893 L575.90793,318.42366 L575.055086,320.127384 L574.424454,321.906122 L574.090106,323.759873 L574.053071,325.648562 L574.313348,327.613291 L574.832873,329.54 L575.721724,331.503702 L576.908916,333.430411 L578.690734,335.61607 L580.878912,337.617792 L583.586616,339.507508 L586.961987,341.397225 L588.966017,342.471044 L590.598664,343.54589 L591.859927,344.583744 L592.786843,345.584606 L593.343403,346.585467 L593.602652,347.5853 L593.491545,348.585134 L593.046091,349.585995 L592.008069,350.734827 L590.450522,351.475711 L588.483527,351.88366 L586.073136,351.920652 L583.327368,351.62471 L580.211245,350.919791 L576.834846,349.882965 L573.163191,348.474155 L571.56758,347.84425 L570.528529,347.473294 L569.934933,347.399309 L569.638649,347.510287 L569.342366,348.029214 L568.896911,349.067068 L568.414421,350.400864 L567.894896,351.920652 L567.375371,353.439413 L566.967981,354.773209 L566.707704,355.77407 L566.670668,356.256005 L567.227229,356.774932 L568.525528,357.515815 L570.343352,358.367678 L572.569595,359.293526 L575.01805,360.220401 L577.540577,361.073291 L579.914962,361.814175 L582.066105,362.333102 L583.660687,362.629044 L585.442504,362.815036 L589.225266,363 L592.860913,362.889022 L594.419489,362.74105 L595.754823,362.481073 L598.796875,361.480212 L601.541615,360.035437 L603.915999,358.182714 L605.993072,356.034048 L607.625718,353.550391 L608.849946,350.845806 L609.591684,347.881243 L609.850932,344.768708 L609.665755,342.28608 L609.072159,339.95245 L608.034137,337.728771 L606.623703,335.61607 L604.731808,333.615375 L602.395488,331.725659 L599.612684,329.873963 L596.34842,328.095225 L594.752808,327.242336 L593.417474,326.464459 L592.304353,325.685555 L591.452537,324.981664 L590.338387,323.536889 L590.005068,322.018128 L590.116174,321.091253 L590.487558,320.276383 L591.859927,319.090558 L593.936999,318.386667 L596.534626,318.16471 L599.501578,318.497646 L602.617701,319.275522 L605.733823,320.609319 L608.664769,322.388056 L609.776861,323.129968 L610.18528,323.351925 L610.407493,323.42591 L610.704805,323.092975 L611.298402,322.1661 L612.003104,320.832303 L612.819942,319.312515 L613.598715,317.719769 L614.266382,316.311987 L614.710808,315.19912 L614.895985,314.569214 L614.784879,314.273272 L614.377489,313.865323 L613.635751,313.384417 L612.559665,312.791504 L607.588683,310.716824 L602.284381,309.455985 L596.793874,308.974051 L591.414473,309.382 Z M915.344123,309.234029 L912.134383,309.881403 L912.134383,319.873573 L913.080845,319.275522 L914.898669,318.572659 L916.605387,318.275689 L918.125898,318.497646 L919.424197,319.238529 L920.165935,320.20137 L920.500283,321.388223 L920.500283,322.759012 L920.165935,324.204815 L919.498268,325.685555 L918.534317,327.131357 L917.30906,328.465154 L915.826613,329.613986 L914.56535,330.317877 L912.931674,331.021768 L912.134383,331.287911 L912.134383,341.898683 L912.450213,341.878131 L917.680444,340.841305 L922.355142,339.173545 L926.436245,336.913901 L929.811616,334.134302 L932.445249,330.873797 L934.300108,327.131357 L934.893704,325.092642 L935.264059,322.980969 L935.339159,321.425216 L935.152952,319.94242 L934.744534,318.497646 L934.113902,317.089863 L932.297107,314.569214 L929.811616,312.421576 L926.732528,310.716824 L923.207987,309.566964 L919.387161,309.049064 L915.344123,309.234029 Z M1004.78477,309.345007 L1000.92588,310.345868 L997.105052,312.124606 L993.432369,314.607235 L992.431383,315.422104 L991.614545,316.05201 L991.020949,316.459958 L990.798736,316.570937 L990.724665,316.422965 L990.538459,316.125995 L989.944863,315.125134 L988.758699,313.495395 L987.274194,312.087613 L985.493406,310.938781 L983.453369,310.048898 L981.228155,309.455985 L978.85377,309.160043 L976.405315,309.197036 L973.844724,309.529971 L971.323226,310.197897 L968.836706,311.272744 L966.426315,312.717518 L963.940824,314.607235 L961.973829,316.273966 L961.010907,314.421243 L959.971857,312.754511 L959.377232,311.976635 L958.820671,311.346729 L957.596443,310.085891 L952.0689,310.085891 L949.955821,310.085891 L948.36021,310.122884 L947.247089,310.197897 L946.541357,310.345868 L946.171003,310.604818 L946.096932,310.975773 L946.504322,312.124606 L946.83867,312.977496 L947.023847,313.902316 L947.098947,315.162127 L947.135982,317.052871 L947.098947,318.497646 L947.061911,319.868435 L946.875705,321.425216 L946.504322,323.499896 L946.245074,324.833692 L945.94879,326.389446 L945.540371,328.243197 L945.057881,330.428855 L944.502349,332.948477 L943.871718,335.876047 L943.091915,339.248559 L942.239071,343.101977 L941.460298,346.547446 L940.754566,349.770959 L940.086899,352.735522 L939.530338,355.329129 L939.048877,357.478823 L938.678523,359.145554 L938.455281,360.220401 L938.38121,360.665342 L938.640459,360.887299 L939.085913,360.961285 L939.789587,360.999305 L940.828637,361.036298 L942.239071,361.036298 L944.093931,361.036298 L946.467286,361.036298 L954.55542,360.924292 L955.074945,358.849612 L955.223087,358.219706 L955.446329,357.256866 L955.742612,355.997055 L956.075932,354.440274 L956.891741,350.77182 L957.819685,346.696445 L958.7466,342.731021 L959.563438,339.322544 L960.342211,336.430939 L961.047943,333.949338 L961.751616,331.799645 L962.419283,329.984942 L963.123986,328.354175 L963.865724,326.946393 L965.165052,324.907678 L966.537421,323.203953 L967.983862,321.832137 L969.467338,320.79531 L970.877772,320.164377 L972.214135,319.979413 L973.437334,320.20137 L974.476384,320.906289 L974.92081,321.462208 L975.181087,322.240085 L975.218122,322.832998 L975.181087,323.611902 L975.068952,324.611736 L974.883774,325.871546 L974.587491,327.464292 L974.216107,329.392029 L973.733618,331.725659 L973.140021,334.505258 L972.399312,337.765763 L971.545439,341.545196 L970.543424,345.880548 L969.430302,350.845806 L968.873742,353.328434 L968.429316,355.403115 L968.057933,357.145887 L967.798685,358.515649 L967.612478,359.553503 L967.501372,360.294387 L967.501372,360.776321 L967.538408,360.999305 L967.761649,361.073291 L968.317181,361.147277 L969.096983,361.221262 L970.136034,361.258255 L972.65856,361.332241 L975.514406,361.406226 L978.408316,361.406226 L980.967878,361.369233 L982.006928,361.332241 L982.859773,361.258255 L983.416334,361.221262 L983.713646,361.147277 L983.824752,360.961285 L983.972894,360.591357 L984.380284,359.256533 L984.862774,357.330851 L985.419335,354.996194 L986.273208,351.179769 L987.014946,347.84425 L987.682613,344.917707 L988.239174,342.397058 L988.758699,340.248392 L989.204154,338.395669 L989.574508,336.838888 L989.944863,335.506119 L990.538459,333.393418 L991.132055,331.762652 L991.799722,330.242864 L992.579524,328.614152 L993.766717,326.427466 L995.065016,324.49973 L996.40035,322.906983 L997.809755,321.61018 L999.220189,320.646311 L1000.59256,320.090392 L1001.88983,319.94242 L1003.11509,320.20137 L1003.85682,320.609319 L1004.37635,321.165238 L1004.7107,321.944143 L1004.8218,323.092975 L1004.7107,324.611736 L1004.41338,326.575437 L1003.93089,329.133079 L1003.22619,332.318572 L1002.6326,335.061178 L1002.07603,337.543807 L1001.22216,341.952117 L1000.66663,345.584606 L1000.37035,348.659119 L1000.37035,351.216761 L1000.62959,353.40242 L1001.18513,355.366122 L1001.9639,357.219873 L1002.6326,358.478656 L1003.3373,359.442524 L1004.07904,360.183408 L1005.00698,360.702335 L1006.1201,361.036298 L1007.56654,361.258255 L1009.38437,361.332241 L1011.68468,361.369233 L1013.98396,361.332241 L1015.91392,361.295248 L1017.24926,361.221262 L1017.69368,361.184269 L1017.87886,361.147277 L1017.98997,360.924292 L1017.95293,360.554364 L1017.73072,359.924459 L1017.28629,359.034576 L1016.65566,357.626794 L1016.28428,356.145026 L1016.0991,354.403281 L1016.17317,352.254615 L1016.50752,349.549002 L1017.13815,346.140525 L1017.54554,344.10181 L1017.98997,341.878131 L1018.54653,339.39653 L1019.17716,336.616931 L1020.14214,332.207593 L1020.84684,328.539139 L1021.2923,325.500591 L1021.47747,322.945004 L1021.4034,320.79531 L1021.07008,318.904566 L1020.47649,317.126856 L1019.65965,315.385111 L1017.69368,312.717518 L1015.09709,310.790809 L1011.98096,309.566964 L1008.49346,309.086057 L1004.78477,309.345007 Z M802.235761,309.382 L799.489993,309.789948 L795.558061,310.901788 L791.960478,312.421576 L788.695184,314.421243 L785.764239,316.867907 L783.167641,319.757456 L780.905392,323.092975 L778.975433,326.908373 L777.379821,331.132746 L776.565041,334.060317 L776.008481,336.949866 L775.749232,339.766458 L775.712197,342.471044 L775.93441,345.065679 L776.379864,347.510287 L777.083538,349.882965 L777.974446,352.068624 L780.459938,355.922042 L783.761238,359.071569 L785.690168,360.294387 L787.84234,361.332241 L790.141625,362.073125 L792.628145,362.592051 L797.153673,362.889022 L802.013548,362.592051 L806.798324,361.740189 L811.249781,360.33138 L812.251796,359.961451 L812.993534,359.627489 L813.476024,359.293526 L813.773337,358.849612 L813.921479,358.256699 L813.958514,357.404837 L813.884443,356.256005 L813.736301,354.699224 L813.587131,353.068457 L813.438989,351.698696 L813.290847,350.734827 L813.178712,350.326879 L812.845393,350.326879 L812.14069,350.475878 L811.10164,350.77182 L809.87844,351.142776 L805.759274,352.291608 L802.198726,352.735522 L799.193709,352.54953 L796.745254,351.698696 L794.816323,350.141915 L793.443954,347.918236 L792.628145,345.028686 L792.367868,341.47121 L792.591109,337.98772 L793.184705,334.690222 L794.147627,331.540695 L795.446955,328.688138 L797.079602,326.093503 L799.008532,323.833859 L801.196711,321.944143 L803.645166,320.49834 L806.613147,319.571465 L809.803341,319.460486 L813.03057,320.164377 L816.183728,321.647173 L817.519062,322.388056 L818.001552,322.46307 L818.409971,322.314071 L818.855425,321.906122 L819.299851,321.165238 L819.893447,320.127384 L820.599178,318.68261 L821.303881,317.274828 L821.785342,316.199981 L822.081626,315.385111 L822.193761,314.755206 L821.822377,313.902316 L820.710285,313.014489 L818.74329,311.865656 L816.368905,310.901788 L813.773337,310.160904 L810.989504,309.603957 L808.059588,309.271021 L805.128642,309.197036 L802.235761,309.382 Z M742.435833,309.345007 L739.782654,309.647115 L739.782654,320.122247 L741.768166,319.460486 L744.030416,319.238529 L746.145552,319.534472 L747.926341,320.350369 L749.297681,321.61018 L750.262661,323.240946 L750.856257,325.352619 L751.079499,328.095225 L750.893293,332.800506 L750.114519,337.320822 L748.81622,341.434217 L747.035432,345.102671 L744.884289,348.14122 L742.398798,350.475878 L741.063463,351.32774 L739.782654,351.899073 L739.782654,362.50779 L741.026428,362.407087 L742.509904,362.148138 L745.440849,361.406226 L748.222624,360.405365 L753.342777,357.812786 L757.794234,354.477267 L761.53996,350.400864 L764.470905,345.732577 L765.621062,343.175962 L766.585013,340.545362 L767.289715,337.765763 L767.772205,334.876214 L767.995447,331.910623 L767.995447,328.873102 L767.73517,326.389446 L767.215644,324.018823 L766.473906,321.832137 L765.509956,319.757456 L762.876323,316.162988 L759.463916,313.236445 L755.34475,311.049759 L750.559974,309.715963 L748.000412,309.345007 L745.254643,309.234029 L742.435833,309.345007 Z M683.971239,309.826941 L681.040294,310.753817 L678.220455,312.013627 L675.624886,313.606374 L673.324572,315.385111 L672.507735,316.089002 L672.099316,316.311987 L671.988209,316.125995 L671.765997,315.718047 L671.172401,314.458236 L670.20845,312.828497 L669.651889,312.05062 L669.095328,311.420715 L667.834065,310.085891 L662.15838,310.085891 L659.895102,310.122884 L658.040243,310.197897 L656.816015,310.271882 L656.482696,310.345868 L656.333525,310.382861 L656.296489,310.641811 L656.37056,311.086752 L656.741944,312.458569 L657.187398,313.976302 L657.409611,315.644061 L657.409611,317.756762 L657.298504,319.016572 L657.113327,320.49834 L656.816015,322.203092 L656.482696,324.167822 L656.037241,326.427466 L655.517716,329.058066 L654.850049,332.022629 L654.144318,335.358148 L653.292502,339.136553 L652.327522,343.397919 L651.548749,346.844416 L650.843017,350.067929 L650.212386,353.031464 L649.655825,355.589106 L649.2114,357.7388 L648.877052,359.368539 L648.654839,360.405365 L648.616775,360.813314 L648.802981,360.850307 L649.285471,360.924292 L650.064244,360.961285 L651.029224,360.999305 L653.588786,361.036298 L656.630837,361.073291 L659.227435,361.073291 L661.193401,361.073291 L662.602806,361.036298 L663.53075,360.999305 L664.161382,360.924292 L664.49573,360.776321 L664.754978,360.405365 L664.866084,360.07243 L665.051261,359.368539 L665.31051,358.330685 L665.644858,356.996888 L666.016241,355.403115 L666.423631,353.624377 L667.31454,349.65998 L667.834065,347.399309 L668.279519,345.399641 L668.649874,343.582883 L669.021257,342.02713 L669.651889,339.39653 L670.134379,337.394808 L670.578804,335.839054 L670.949159,334.579244 L671.765997,332.392557 L673.101331,329.503008 L674.659907,326.908373 L676.365595,324.611736 L678.183419,322.722019 L680.002272,321.276217 L681.782032,320.313376 L683.451714,319.94242 L684.972226,320.20137 L685.714992,320.609319 L686.271553,321.202231 L686.567837,322.092114 L686.679972,323.314932 L686.530801,325.055649 L686.197482,327.316321 L685.603886,330.242864 L684.824084,333.949338 L684.193452,336.838888 L683.636891,339.507508 L683.191437,341.952117 L682.821082,344.138803 L682.375628,347.992221 L682.264522,351.142776 L682.52377,353.735355 L683.154402,355.885049 L684.156417,357.700779 L685.528786,359.368539 L687.198468,361.073291 L693.652927,361.073291 L696.138418,361.073291 L698.179483,361.036298 L699.550824,360.961285 L699.922208,360.887299 L700.070349,360.850307 L699.996279,360.62835 L699.811101,360.146415 L699.143434,358.849612 L698.549838,357.552808 L698.179483,356.182019 L697.994306,354.51426 L698.105412,352.439579 L698.401696,349.808979 L698.994264,346.473461 L699.402682,344.472766 L699.885172,342.249087 L700.404697,339.803451 L701.035329,337.061872 L701.665961,334.283301 L702.14845,331.725659 L702.891217,327.205343 L703.261572,323.42591 L703.187501,320.313376 L702.705011,317.682776 L701.778096,315.459097 L700.404697,313.569381 L698.586873,311.902649 L697.251539,311.012766 L695.693992,310.308875 L692.058344,309.418993 L688.051313,309.234029 L683.971239,309.826941 Z M739.504888,309.67897 L734.199558,310.938781 L729.303675,313.014489 L724.889254,315.79306 L721.030364,319.238529 L717.7661,323.277939 L715.169502,327.835248 L713.314643,332.874491 L712.238557,338.28469 L712.090415,342.58305 L712.572905,346.622459 L713.760097,350.289886 L715.502821,353.624377 L717.877206,356.515982 L720.771116,358.923597 L724.220558,360.850307 L728.116483,362.185131 L729.451817,362.44408 L731.121499,362.592051 L733.049401,362.704057 L735.127502,362.74105 L739.207575,362.555059 L739.782654,362.50779 L739.782654,351.899073 L739.65303,351.957645 L738.243624,352.365594 L736.760148,352.476572 L734.868253,352.402587 L733.383749,352.105616 L732.233592,351.513731 L731.121499,350.586856 L730.082449,349.290052 L729.303675,347.696279 L728.78415,345.880548 L728.523873,343.879853 L728.486837,341.73016 L728.634979,339.470516 L729.562923,334.802228 L731.232606,330.206899 L733.531891,326.019518 L734.905289,324.167822 L736.35173,322.574048 L737.946312,321.202231 L739.65303,320.164377 L739.782654,320.122247 L739.782654,309.647115 L739.504888,309.67897 Z M911.485234,310.011905 L907.73848,311.309736 L904.140896,313.088474 L900.764496,315.274133 L897.648373,317.830747 L894.828534,320.75729 L892.418143,323.98183 L890.451148,327.4273 L889.189885,330.317877 L888.188899,333.171461 L887.484196,335.950033 L887.038742,338.692639 L886.853565,341.360232 L886.927635,343.916846 L887.224948,346.399475 L887.781509,348.734133 L888.597318,350.957812 L889.672375,353.031464 L890.970674,354.959201 L892.492214,356.737939 L894.235967,358.330685 L896.201933,359.701474 L898.428176,360.887299 L900.838567,361.851168 L903.175916,362.44408 L905.88362,362.778043 L908.851601,362.852029 L911.967724,362.704057 L912.134383,362.684534 L912.134383,352.733467 L912.07883,352.735522 L910.150928,352.661536 L908.555317,352.439579 L907.367096,351.994638 L906.329074,351.290747 L905.365124,350.400864 L903.695441,348.066207 L902.58232,345.361621 L902.173901,342.58305 L902.471214,342.434051 L903.324058,342.323072 L904.734492,342.28608 L906.699429,342.249087 L912.134383,341.898683 L912.134383,331.287911 L911.040808,331.651673 L909.111878,332.244586 L907.25599,332.689527 L905.661407,332.98547 L904.475244,333.059455 L903.806548,332.874491 L903.769512,332.578549 L903.917654,331.947616 L904.177931,331.095754 L904.549315,330.09592 L905.439195,327.872241 L906.440181,325.871546 L907.850615,323.759873 L909.482233,321.906122 L911.263021,320.424355 L912.134383,319.873573 L912.134383,309.881403 L911.485234,310.011905 Z M639.380542,310.085891 L637.265405,310.085891 L634.780943,310.085891 L632.888019,310.085891 L631.552685,310.122884 L630.62577,310.197897 L630.032173,310.271882 L629.661819,310.419854 L629.290435,310.901788 L629.179329,311.235751 L628.993123,311.902649 L628.733875,312.791504 L628.474626,313.939309 L627.805931,316.755901 L627.064193,320.016406 L626.618738,322.018128 L626.062178,324.49973 L625.432575,327.353314 L624.727872,330.539834 L623.243367,337.320822 L622.612736,340.133303 L622.612736,361.073291 L623.577715,361.073291 L626.248384,361.036298 L634.335489,360.924292 L635.263433,356.774932 L636.895051,349.475016 L638.378527,343.026964 L639.63979,337.283829 L640.790976,332.281579 L641.754926,327.946227 L642.570735,324.204815 L643.275438,321.05426 L643.831999,318.42366 L644.277453,316.273966 L644.647808,314.532221 L644.908085,313.199453 L645.093262,312.198591 L645.167333,311.457708 L645.241404,310.975773 L645.167333,310.530832 L644.684843,310.308875 L644.203382,310.23489 L643.460615,310.160904 L642.459629,310.122884 L641.087259,310.085891 L639.380542,310.085891 Z M621.721827,344.10181 L621.017124,347.28833 L620.349457,350.289886 L619.719854,352.994472 L619.200329,355.403115 L618.754875,357.44183 L618.458591,358.997583 L618.23535,360.035437 L618.161279,360.480378 L618.309421,360.850307 L618.606733,360.961285 L619.200329,361.036298 L620.16428,361.073291 L621.573685,361.073291 L622.612736,361.073291 L622.612736,340.133303 L621.721827,344.10181 Z M926.250039,349.882965 L925.286088,350.141915 L923.98676,350.549863 L919.053842,351.920652 L914.231002,352.624543 L912.134383,352.733467 L912.134383,362.684534 L915.233017,362.333102 L918.459217,361.740189 L921.65044,360.924292 L924.654427,359.924459 L925.953755,359.442524 L926.88067,358.997583 L927.549366,358.626627 L927.956756,358.145721 L928.178969,357.515815 L928.216004,356.700946 L928.141933,355.552114 L927.993792,354.032325 L927.808614,352.476572 L927.623437,351.179769 L927.437231,350.252893 L927.289089,349.844945 L926.95577,349.770959 L926.250039,349.882965 Z" id="Fill-1" fill="#303F47"></path>
                <path d="M142.991969,0 L140.09163,0.185116623 L137.415028,0.556378296 L132.023677,1.81722819 L126.89318,3.5593813 L122.060657,5.82191781 L117.449808,8.56575754 L113.136933,11.8299807 L109.083882,15.5374553 L105.329835,19.7293184 L101.871699,24.4014563 L98.6744183,29.5559258 L95.7740794,35.1567321 L93.1717134,41.2007898 L90.8662893,47.7282077 L88.8588382,54.6618536 L87.148329,62.0428648 L85.7357928,69.8671274 L84.6573163,78.1366983 L84.0252836,85.0724012 L83.6169885,92.2672673 L83.4313998,107.285368 L84.0634324,122.675758 L85.5491731,137.917027 L85.8842638,140.587848 L86.29359,143.479781 L86.7771516,146.483813 L87.2235956,149.412769 L87.6690084,152.120614 L88.0783346,154.420174 L88.4134253,156.200378 L88.6732495,157.276112 L89.0083402,157.572298 L89.9362837,158.017607 L91.4240865,158.573985 L93.5068041,159.278457 L101.83355,162.282488 L109.97677,165.730799 L117.970488,169.699494 L125.814704,174.112469 L133.474362,179.006746 L140.909251,184.347361 L146.188218,188.511457 L146.188218,0.0771319264 L142.991969,0 Z M146.188218,188.511457 L148.196701,190.095232 L155.261444,196.325435 L162.102449,202.9269 L168.6826,209.973672 L175.077162,217.426673 L181.211899,225.288988 L187.085782,233.521535 L192.69984,242.125345 L198.016956,251.13641 L203.073217,260.482743 L204.635255,263.559793 L204.820844,250.060677 L204.895079,245.314493 L205.006433,241.123658 L205.155935,237.342137 L205.341523,233.817722 L205.825085,226.995146 L206.197293,223.397713 L206.605589,219.504093 L208.538804,205.188408 L211.104052,190.799704 L214.227098,176.449052 L217.945058,162.282488 L222.14658,148.376116 L226.86775,134.914024 L231.998247,121.971286 L237.575187,109.695997 L240.364173,103.948126 L239.509434,101.57452 L235.902827,92.1181455 L232.035365,82.9949813 L227.909109,74.2430787 L223.596234,65.824386 L219.059621,57.8520301 L214.338451,50.248879 L209.467779,43.129088 L204.485753,36.4546053 L199.318139,30.2614258 L194.076289,24.5876013 L188.722055,19.4321033 L183.331735,14.8329837 L177.82903,10.828294 L172.326325,7.41700605 L166.82362,4.63511457 L161.283797,2.52169978 L155.372797,1.03768152 L149.126706,0.148093299 L146.188218,0.0771319264 L146.188218,188.511457 Z M332.531645,42.1284298 L327.325882,42.8688963 L322.195386,43.9816529 L317.064889,45.5026945 L312.008628,47.3939693 L306.989485,49.6925007 L302.044577,52.4003456 L297.136787,55.4784236 L292.303233,58.9277634 L287.543913,62.7843597 L282.822743,67.0482126 L278.138691,71.6473323 L273.527842,76.6537085 L269.029379,82.030318 L264.529884,87.8152125 L260.143804,93.9343453 L255.830929,100.461763 L253.562623,104.059196 L255.013308,106.989181 L259.586007,116.667695 L264.009204,127.088733 L268.17464,138.06512 L272.078189,149.450821 L275.609529,161.13168 L278.807841,172.999712 L281.595796,184.829693 L283.90122,196.51158 L285.202403,204.559011 L286.391201,213.087745 L287.43256,221.802625 L288.28833,230.48048 L288.920363,238.824098 L289.366807,246.575342 L289.47816,250.172776 L289.552396,253.510017 L289.552396,256.551072 L289.47816,259.332963 L289.403925,260.815953 L289.403925,261.92871 L289.403925,262.707228 L289.47816,263.152536 L289.626631,263.263606 L289.813251,263.115513 L290.110193,262.670204 L290.445283,262.002756 L291.819671,259.221893 L293.455945,256.142787 L295.314925,252.805545 L297.322376,249.283187 L301.561016,242.199391 L303.716938,238.750051 L305.799655,235.52388 L310.557943,228.626229 L315.539969,221.950718 L320.707583,215.536427 L326.061817,209.380271 L331.638757,203.520301 L337.364169,197.920523 L343.239082,192.61796 L345.563065,190.672179 L345.563065,42.2909211 L345.209416,42.2394998 L340.971807,41.9052614 L336.695018,41.8692665 L332.531645,42.1284298 Z M345.563065,190.672179 L349.261435,187.574561 L355.470408,182.863343 L361.791766,178.450368 L368.223445,174.371632 L374.804627,170.589082 L381.49613,167.139742 L388.262901,163.988646 L395.141024,161.243778 L402.094414,158.796125 L403.134742,158.425892 L404.026599,158.091653 L404.658631,157.757415 L404.956604,157.535275 L405.142193,156.90485 L405.290664,155.829117 L405.439135,154.27208 L405.588637,152.380805 L405.69999,150.192316 L405.811343,147.707639 L405.959814,142.294006 L406.03405,136.508083 L405.996932,130.908306 L405.922696,128.312559 L405.848461,125.938953 L405.774225,123.825538 L405.625755,122.045333 L404.84422,115.10963 L403.84101,108.510223 L402.614062,102.204945 L401.127291,96.1968818 L399.416781,90.486034 L397.483566,85.1094245 L395.327644,80.0290016 L392.946953,75.2447653 L390.308501,70.7567156 L387.481366,66.6039327 L384.396469,62.7473364 L381.087835,59.1869267 L377.555464,55.9607553 L373.763268,53.0307705 L369.785484,50.3980007 L365.545813,48.0984409 L361.754648,46.3933111 L357.813981,44.9463162 L353.686695,43.7595129 L349.485173,42.8688963 L345.563065,42.2909211 L345.563065,190.672179 Z M52.9433007,165.545683 L49.7099331,165.730799 L46.8085631,165.989963 L41.9389219,166.731457 L37.3291048,167.733144 L32.9419941,168.995022 L28.8507944,170.552059 L25.0225119,172.369287 L21.4530226,174.445679 L18.1062397,176.782262 L15.0584609,179.378008 L12.3065929,182.196923 L9.81661115,185.312024 L7.58542256,188.649266 L5.6150892,192.283722 L3.94169777,196.103295 L2.56627929,200.219055 L1.450685,204.559011 L0.632032626,209.120079 L0.185588699,213.087745 L0,217.16751 L0.0371177399,221.358345 L0.335090707,225.660249 L0.817621326,230.073224 L1.52492048,234.560245 L3.60763811,243.720433 L6.50694601,253.10276 L10.1506708,262.633181 L14.5377815,272.163602 L19.5940425,281.695051 L25.2452184,291.114402 L31.4913091,300.310585 L38.2951971,309.211609 L45.5444979,317.777366 L53.2412737,325.862849 L61.3463446,333.463943 L69.7854752,340.43667 L78.5236098,346.703896 L85.995617,351.376034 L93.7666283,355.641943 L101.796433,359.535563 L110.013888,363.020898 L118.341665,366.062981 L126.707591,368.694722 L135.109604,370.883212 L143.401295,372.626394 L146.188218,373.056275 L146.188218,323.270188 L143.80959,320.633305 L139.274008,315.219672 L134.848749,309.545847 L129.979108,302.796289 L125.219789,295.601423 L120.609972,288.073347 L116.148625,280.17401 L111.83575,271.978485 L107.708464,263.522769 L103.804915,254.845942 L100.049837,245.944918 L96.5545829,236.896828 L93.2830666,227.661566 L90.2342567,218.391337 L87.4834197,209.009009 L84.9542582,199.625653 L82.7612184,190.206302 L80.8651205,180.862026 L79.2659646,171.552717 L78.5968142,167.362911 L74.5447942,166.731457 L71.2361602,166.287178 L67.6666708,165.952939 L60.1936325,165.545683 L56.4756723,165.508659 L52.9433007,165.545683 Z M431.540123,165.582706 L430.126556,165.582706 L428.973844,165.619729 L428.044869,165.656753 L427.412837,165.693776 L426.85504,165.767823 L425.963183,165.878893 L423.694876,166.138056 L420.832686,166.509318 L418.155054,166.917603 L417.03946,167.139742 L416.146572,167.325888 L415.589806,167.473981 L415.366068,167.585051 L415.32895,168.252499 L415.180479,169.254186 L414.994891,170.589082 L414.735066,172.183142 L414.401007,174.037394 L413.991681,176.07779 L413.098793,180.675881 L412.094552,185.571188 L411.016075,190.540541 L409.975747,195.212678 L408.972537,199.329466 L405.625755,211.715825 L401.944912,223.804969 L397.93001,235.560903 L393.578986,246.946604 L388.932051,257.961043 L383.987143,268.566169 L378.708176,278.728043 L373.205471,288.481632 L367.405824,297.75289 L361.345322,306.540787 L355.024996,314.84841 L348.51805,322.635649 L345.563065,325.794973 L345.563065,373.352462 L350.897709,372.58937 L361.866001,370.215764 L373.465295,366.877494 L384.805796,362.761734 L395.735939,357.903451 L406.294905,352.340697 L416.333191,346.110494 L425.814712,339.212843 L434.662138,331.758814 L442.842475,323.711383 L451.72805,313.735653 L459.83312,303.611831 L467.082421,293.376939 L473.55225,283.103994 L479.12919,272.868074 L483.85036,262.744251 L485.89596,257.700852 L487.717823,252.731499 L489.27883,247.836192 L490.654248,242.978938 L491.769842,238.194702 L492.699848,233.484512 L493.368998,228.886421 L493.777294,224.362376 L494,219.949401 L493.926796,215.647497 L493.666971,211.455634 L493.146292,207.376897 L492.364757,203.446254 L491.32443,199.662676 L490.059333,196.029248 L488.535444,192.543914 L486.787817,189.242667 L484.743248,186.090543 L482.437824,183.160558 L479.909694,180.379695 L477.009355,177.708873 L473.886309,175.336295 L470.540557,173.184829 L466.896833,171.330577 L462.993284,169.699494 L458.792793,168.326546 L454.25618,167.176766 L449.422625,166.250154 L448.754506,166.175079 L447.787383,166.064009 L446.560435,165.989963 L445.146868,165.915916 L441.912469,165.767823 L438.305862,165.656753 L434.737404,165.582706 L431.540123,165.582706 Z M146.188218,373.056275 L151.57957,373.887243 L159.53617,374.702785 L167.232946,375 L174.5936,374.813855 L181.584108,374.109383 L188.12714,372.885557 L194.113407,371.143404 L199.541876,368.843844 L200.880177,368.064297 L202.404067,367.099634 L205.489994,364.801102 L206.829326,363.651323 L207.942858,362.612613 L208.687275,361.797071 L208.947099,361.241721 L208.724393,361.204698 L208.129478,361.204698 L207.274739,361.204698 L206.197293,361.241721 L202.701009,361.167675 L198.946962,360.574273 L194.968146,359.49854 L190.767655,357.940475 L186.379513,355.901107 L181.843932,353.453453 L177.234115,350.597515 L172.474796,347.334321 L167.67939,343.700893 L162.881922,339.694146 L158.049398,335.39327 L153.252962,330.758155 L148.494674,325.825826 L146.188218,323.270188 L146.188218,373.056275 Z M341.75231,329.867539 L334.799952,336.54305 L327.660973,342.625159 L320.336406,348.113867 L315.726589,351.190917 L311.152858,353.861738 L306.692543,356.197293 L302.379668,358.088568 L298.25135,359.572586 L294.423068,360.611296 L290.853579,361.167675 L287.693415,361.241721 L286.689174,361.204698 L285.871553,361.204698 L285.314787,361.241721 L285.091049,361.314739 L285.23952,361.648978 L285.723082,362.205356 L287.209854,363.688346 L288.994598,365.320457 L290.630872,366.582336 L293.455945,368.287466 L296.542903,369.807479 L299.924742,371.10638 L303.568467,372.255132 L307.473047,373.181743 L311.599302,373.887243 L320.484877,374.776832 L330.07775,374.850878 L340.264508,374.109383 L345.563065,373.352462 L345.563065,325.794973 L341.75231,329.867539 Z" id="Fill-2" fill="#204E88"></path>
                <polygon id="Fill-3" fill="#2992C8" points="242 486.62743 242 491.397976 242 495.832641 242 499.894219 242 503.434923 242 506.379309 242.039301 508.614727 242.039301 509.472516 242.039301 510.068834 242.078603 510.478092 242.078603 510.626914 242.31441 510.813974 242.787118 510.925589 243.534934 510.962795 244.598253 511 247 511 246.920306 487.074927 246.802402 463.149855 244.441048 463.074411 242.078603 463"></polygon>
                <polygon id="Fill-4" fill="#2992C8" points="437.232208 463.149055 437.193507 463.298111 437.193507 463.671785 437.154805 464.269042 437.154805 465.127146 437.116104 467.367118 437.077403 470.278875 437.038701 473.861382 437.038701 477.930389 437 482.409299 437 487.186319 437 511 439.519888 511 442 511 441.922597 487.037264 441.806493 463.074528 439.635992 463 438.046012 463 437.503118 463.074528"></polygon>
                <polygon id="Fill-5" fill="#2992C8" points="632 487 632 511 634.500541 511 637 511 636.919896 487.084711 636.839792 463.169421 634.420437 463.084711 632 463"></polygon>
                <polygon id="Fill-6" fill="#2992C8" points="825 487 825 511 827.000462 511 829 511 829 487 829 463 827.000462 463 825 463"></polygon>
                <polygon id="Fill-7" fill="#2992C8" points="1022 463 1020 463 1020 487.000517 1020 511 1022 511 1024 511 1024 487.000517 1024 463"></polygon>
                <polygon id="Fill-8" fill="#2992C8" points="92.3814799 179.909722 95.0325957 191.921388 97.9829976 203.674761 101.268931 215.132941 104.891433 226.258005 108.774903 237.086852 112.994941 247.546708 117.475948 257.636549 122.256241 267.357399 127.260222 276.708234 132.562454 285.653179 138.12669 294.190184 143.914615 302.247502 149.964544 309.898931 156.238161 317.068621 162.735466 323.758624 169.457494 329.967915 175.731111 335.068184 181.967447 339.578068 188.054657 343.38482 193.8053 346.378768 196.493697 347.560563 199.032969 348.558887 201.423116 349.260994 203.626856 349.778606 205.643154 350 207.398482 350 208.929087 349.704808 210.198723 349.113398 210.870823 348.485089 211.431078 347.523664 211.916771 346.193248 212.326865 344.56764 212.626151 342.60789 212.849839 340.317074 212.962719 337.693141 213 334.772991 212.812558 329.118212 212.252302 323.277912 211.356515 317.254142 210.124161 311.043826 208.59252 304.723839 206.689102 298.293154 204.522643 291.787646 202.020652 285.209365 199.257693 278.556261 196.195447 271.940056 192.833915 265.287977 189.24973 258.671772 185.403541 252.092466 181.295347 245.587984 176.926184 239.194198 172.370615 232.911109 165.46218 224.225483 158.217177 216.056443 150.636643 208.442938 142.719541 201.383945 134.466908 194.915336 125.914988 188.965364 117.064818 183.605777 107.916397 178.837599 105.900099 177.877199 103.547234 176.841976 98.5432529 174.698756 96.1903877 173.73733 94.1368085 172.924526 92.5306051 172.333116 91.522974 172 91.0745626 172.036899 91 172.296217 91 172.850728 91.1491253 173.811128 91.4100945 175.215342 91.8212245 177.24889"></polygon>
                <polygon id="Fill-9" fill="#2992C8" points="245.536004 122.483036 242.164016 130.077903 238.901995 138.080666 235.864019 146.417348 233.010008 155.011918 230.342016 163.86746 227.859015 172.906914 225.635004 182.095347 223.63401 191.320768 221.855006 200.546189 220.33499 209.733595 219.113017 218.811064 218.149004 227.776542 217.445008 236.484132 217.073997 244.93075 217 253.081465 217.260016 260.825312 217.927014 270.865496 218.853001 280.386821 220.002005 289.316339 221.372999 297.688981 222.930013 305.431801 224.709017 312.545824 226.673013 318.992009 228.785002 324.77241 231.08301 329.847984 233.529012 334.182771 236.123008 337.775743 238.864996 340.55498 241.719008 342.555413 244.684015 343.704096 247.760016 344 249.353001 343.852048 250.947013 343.44518 253.393015 342.370474 255.76502 340.73992 258.062001 338.554546 260.249014 335.812297 262.324005 332.589205 264.324999 328.810265 266.178 324.549454 267.957004 319.770811 269.588014 314.50927 271.107002 308.803872 272.516023 302.653591 273.776022 296.058427 274.923998 289.019407 275.925009 281.535504 276.815025 273.680693 277.519021 265.419015 277.889005 258.82385 278 251.858806 277.852007 244.559843 277.482023 237.001964 276.852023 229.222156 276.036004 221.256382 273.737996 204.880976 270.624996 188.319604 266.734003 171.869195 262.176012 155.901685 259.656013 148.231814 256.988021 140.784899 255.652997 137.339879 254.208006 133.708891 252.650992 130.077903 251.169003 126.632883 249.798009 123.59473 248.649004 121.186401 248.166998 120.259647 247.797015 119.592835 247.536998 119.148979 247.352007 119 247.167015 119.296931 246.759005 120.037719 246.203002 121.149413"></polygon>
                <polygon id="Fill-10" fill="#2992C8" points="403.140962 172.184381 396.82615 174.54855 390.399426 177.355232 383.859752 180.5317 377.321114 184.114829 370.894389 187.956092 364.616882 192.056511 358.563202 196.378187 352.883602 200.884244 345.522194 207.385709 338.385649 214.403439 331.510235 221.938459 324.970561 229.843265 318.767663 238.116832 312.901541 246.686432 307.483072 255.514165 302.475988 264.453551 297.917594 273.539417 293.882498 282.663183 290.369664 291.786949 287.454737 300.799063 285.101449 309.701573 283.382336 318.381801 282.33574 326.839749 282 334.92996 282.037304 337.441633 282.111913 339.657273 282.261131 341.651656 282.485994 343.424783 282.784429 344.939777 283.15851 346.23249 284.20407 348.226873 285.699356 349.48271 287.642295 350 290.183142 349.926248 293.284591 349.298329 297.356991 348.042493 301.61695 346.269366 305.988822 344.015825 310.472608 341.356648 315.069343 338.217056 319.73965 334.707678 324.409958 330.82954 329.118606 326.618492 333.826218 322.038683 338.497562 317.162841 343.093261 311.991989 347.615387 306.598857 352.023528 300.947592 356.320791 295.074046 364.354715 282.773812 367.456164 277.492332 370.520308 271.951695 376.38643 260.279379 381.916812 247.794764 387.03581 234.682231 391.781762 221.015532 396.041721 206.942171 399.778382 192.573801 402.991744 177.98315 403.403129 175.804386 403.738869 174.21564 403.925391 173.144184 404 172.442513 403.962696 172.110628 403.776173 172"></polygon>
                <path d="M356.097825,473.310877 L356.018562,493.621754 L347.857615,493.621754 L347.267778,493.621754 L347.267778,501.384268 L347.857615,501.384268 L356.018562,501.384268 L356.096796,509.819533 L356.176058,518.253764 L360.848427,518.335529 L365.520796,518.418329 L365.599029,509.975819 L365.678292,501.533308 L369.761853,501.450508 L373.844386,501.367708 L373.844386,497.503011 L373.844386,493.638314 L369.761853,493.555514 L365.678292,493.472714 L365.53006,473.318122 L365.381829,453.164565 L360.779458,453.0828 L356.176058,453 L356.097825,473.310877 Z M336.613665,453.500941 L336.057799,453.649981 L334.498284,454.172657 L333.459636,454.507998 L332.08541,454.918893 L328.856236,455.81417 L325.255455,456.709447 L321.878049,457.493978 L320.616026,457.754799 L318.982395,458.091174 L315.233383,458.76289 L313.414463,459.099266 L311.892006,459.360087 L310.779243,459.509127 L310.222347,459.584682 L310.148231,459.845502 L310.111173,460.517219 L310.074116,461.561536 L310.074116,462.793188 L310.111173,463.83854 L310.111173,464.660331 L310.185289,465.220267 L310.222347,465.592868 L310.445723,465.966504 L310.891446,466.002729 L311.48437,465.966504 L312.561105,465.890948 L313.971359,465.817463 L315.567932,465.741908 L319.502234,465.555608 L319.502234,468.690629 L319.502234,471.824614 L314.750602,471.824614 L310,471.824614 L310,475.855947 L310,479.887279 L313.78607,479.887279 L317.535083,479.887279 L317.312736,481.716127 L316.570551,485.671904 L315.308528,489.776722 L313.637839,493.733534 L311.633631,497.241155 L310.705127,498.697403 L310.222347,499.854535 L310.074116,500.487956 L310.037058,501.309748 L310,502.31784 L310,503.661272 L310.037058,505.489085 L310.074116,506.720738 L310.185289,507.429714 L310.371607,507.654309 L311.002619,507.468009 L311.892006,506.945333 L312.894625,506.160802 L314.045475,505.19204 L316.310117,502.802221 L317.349794,501.570568 L318.203152,500.338916 L319.354002,498.548363 L319.465176,508.512326 L319.539291,518.440064 L324.215778,518.365544 L328.856236,518.253764 L329.004467,506.235322 L329.152698,494.18169 L330.118259,495.524087 L331.603659,497.203895 L333.422578,498.771923 L335.425758,500.003575 L337.393938,500.824332 L337.876718,500.898852 L338.099065,500.562476 L338.173181,500.115356 L338.210238,499.4809 L338.210238,498.548363 L338.210238,497.316711 L338.210238,496.084023 L338.173181,495.151487 L338.136123,494.40525 L338.062007,493.845314 L337.653342,492.987298 L336.874099,492.053726 L335.3887,490.224878 L333.868301,487.986169 L332.419959,485.671904 L331.306167,483.46942 L330.712213,482.201543 L330.303548,481.267971 L330.081202,480.633515 L330.155317,480.222619 L330.489867,479.999059 L331.120878,479.887279 L332.08541,479.887279 L333.459636,479.887279 L337.02233,479.887279 L337.02233,475.855947 L337.02233,471.824614 L333.013913,471.824614 L329.004467,471.824614 L329.004467,467.868837 L329.004467,463.8758 L332.643336,463.055043 L334.312995,462.681408 L335.53796,462.382292 L336.391319,462.046951 L336.911157,461.673316 L337.208649,461.11338 L337.319822,460.293658 L337.319822,459.173786 L337.282764,457.605758 L337.208649,455.92595 L337.133504,454.658073 L337.02233,453.799021 L336.874099,453.463681 L336.613665,453.500941 Z M922.095776,455.105194 L916.823277,455.105194 L916.747102,481.376647 L916.668869,507.647064 L905.165515,507.725725 L893.662161,507.80335 L893.662161,511.684607 L893.662161,515.566899 L924.330566,515.642454 L955,515.718009 L954.91662,511.761197 L954.834269,507.80335 L941.099213,507.725725 L927.366216,507.648099 L927.366216,494.813041 L927.366216,481.976948 L938.798543,481.976948 L950.231898,481.976948 L950.231898,478.094656 L950.231898,474.213399 L938.798543,474.213399 L927.366216,474.213399 L927.366216,464.660331 L927.366216,455.105194 L922.095776,455.105194 Z M554.169623,455.105194 L548.601691,455.105194 L547.487899,458.911931 L546.856887,461.07612 L546.338078,462.718668 L545.892355,463.83854 L545.446632,464.584776 L544.889736,464.995672 L544.221667,465.181972 L543.293163,465.257527 L542.068198,465.257527 L538.914169,465.257527 L537.948607,463.092303 L537.539942,462.195992 L537.131277,461.11338 L536.277919,458.800151 L535.981457,457.834494 L535.981457,473.318122 L536.018515,473.318122 L556.173832,473.318122 L556.173832,476.901298 L556.173832,480.484475 L560.777232,480.484475 L565.379603,480.484475 L565.379603,472.869966 L565.379603,465.257527 L560.183278,465.257527 L558.17804,465.257527 L556.508381,465.220267 L555.394589,465.181972 L554.985924,465.145747 L555.098127,464.921152 L555.394589,464.361216 L555.840312,463.614979 L556.397208,462.681408 L557.511,460.628999 L558.586705,458.426515 L559.403006,456.560406 L559.66344,455.88869 L559.737555,455.477795 L559.477121,455.291494 L558.549647,455.179714 L557.807462,455.142454 L556.842931,455.142454 L555.617965,455.105194 L554.169623,455.105194 Z M531.786721,455.105194 L530.33838,455.105194 L528.372258,455.105194 L526.960974,455.142454 L526.0335,455.291494 L525.587778,455.626835 L525.55072,456.262326 L525.921298,457.306643 L526.627454,458.76289 L527.629044,460.778039 L528.409316,462.345032 L529.077386,463.689499 L529.523108,464.623071 L529.708397,465.032932 L529.560166,465.145747 L529.00327,465.220267 L528.18594,465.257527 L527.147293,465.257527 L524.512073,465.257527 L523.583569,463.241344 L522.210372,459.733722 L521.616418,457.979394 L521.133638,456.374106 L520.836146,455.105194 L515.750995,455.105194 L510.665843,455.105194 L511.185682,456.523146 L511.557289,457.382198 L512.114185,458.61385 L513.598555,461.598796 L515.49159,465.257527 L511.03745,465.257527 L506.583311,465.257527 L506.583311,472.907226 L506.583311,480.521735 L511.111566,480.447215 L515.639821,480.3344 L515.750995,476.826778 L515.82511,473.318122 L535.981457,473.318122 L535.981457,457.834494 L535.646907,456.747742 L535.461618,456.00047 L535.387503,455.552315 L535.202214,455.328754 L534.460029,455.179714 L533.79093,455.142454 L532.900514,455.105194 L531.786721,455.105194 Z M701.458875,460.553444 L701.532991,464.510256 L707.843108,464.623071 L710.29201,464.660331 L712.297247,464.734851 L713.671474,464.846632 L714.042051,464.921152 L714.153225,464.958412 L713.967936,465.369307 L713.522213,466.115544 L712.780028,467.122601 L711.888582,468.242473 L709.810258,470.743037 L707.731934,472.944486 L704.947454,475.706906 L704.947454,479.737204 L704.947454,483.768536 L706.061246,483.768536 L710.217894,483.692981 L714.784237,483.43216 L719.647041,483.05956 L724.546904,482.536884 L729.334564,481.939688 L733.900906,481.267971 L737.983439,480.521735 L741.435989,479.737204 L742.994475,479.327343 L744.256498,478.990967 L745.147944,478.767407 L745.518522,478.691852 L745.630724,478.916447 L745.853071,479.550903 L746.150563,480.447215 L746.521141,481.528792 L747.486702,484.365732 L752.831258,484.365732 L754.872524,484.365732 L756.357924,484.365732 L757.285398,484.252917 L757.805236,483.992096 L757.880381,483.46942 L757.582889,482.686959 L756.951878,481.491532 L756.09749,479.887279 L754.576062,477.088634 L752.980518,474.400734 L751.421003,471.900169 L749.972662,469.810501 L748.637552,467.943357 L744.591048,467.943357 L743.031533,467.980617 L741.770539,468.017877 L740.916151,468.056172 L740.582631,468.130693 L740.656746,468.354253 L740.916151,468.802409 L741.659365,470.108581 L742.327435,471.490309 L742.475666,471.937429 L742.475666,472.16099 L741.770539,472.49633 L740.322197,472.869966 L738.316959,473.280862 L735.868057,473.691758 L733.083576,474.138878 L730.188952,474.512514 L727.25624,474.84889 L724.435731,475.10971 L722.541666,475.25875 L721.168469,475.370531 L720.203938,475.408826 L719.684099,475.370531 L719.461752,475.25875 L719.535868,475.03519 L720.203938,474.251694 L721.3167,472.869966 L722.653869,470.967633 L724.064123,468.839669 L725.289089,466.711705 L726.401852,464.697591 L742.327435,464.623071 L758.250959,464.510256 L758.250959,460.628999 L758.250959,456.747742 L729.817344,456.672187 L701.384759,456.597667 L701.458875,460.553444 Z M340.882516,461.972431 L340.882516,465.257527 L343.035985,466.339104 L345.448859,467.682537 L347.267778,468.854159 L347.267778,460.195333 L346.896171,460.031803 L344.484327,459.211046 L342.442031,458.800151 L340.882516,458.65111 L340.882516,461.972431 Z M347.267778,468.854159 L347.824675,469.213304 L349.902999,470.780297 L351.572658,472.27277 L352.797623,473.429902 L353.206288,473.803538 L353.429664,473.915318 L353.540838,473.504422 L353.614953,472.45907 L353.652011,470.855852 L353.652011,468.876929 L353.652011,463.83854 L351.461484,462.345032 L349.346102,461.11338 L347.267778,460.195333 L347.267778,468.854159 Z M340.882516,478.356511 L340.882516,481.604347 L342.813639,482.574144 L345.226512,483.917576 L347.267778,485.235134 L347.267778,476.585623 L344.854905,475.744166 L342.442031,475.22149 L340.882516,475.07245 L340.882516,478.356511 Z M347.267778,485.235134 L347.712472,485.522864 L350.014172,487.239932 L351.796034,488.844185 L353.652011,490.710294 L353.652011,485.522864 L353.652011,480.3344 L352.35293,479.364603 L350.126375,477.945615 L347.527183,476.677738 L347.267778,476.585623 L347.267778,485.235134 Z M535.981457,478.094656 L535.981457,486.284626 L536.463208,486.306361 L536.983046,486.380881 L537.169365,486.418141 L537.057162,486.717256 L536.686584,487.239932 L535.981457,487.991344 L535.981457,518.009503 L536.723642,517.768348 L538.39433,516.574991 L539.54518,514.857922 L540.250308,512.505363 L540.621915,509.408638 L540.69603,507.579789 L540.733088,505.527381 L540.733088,500.824332 L553.278178,500.749812 L565.825326,500.636997 L565.936499,496.681219 L566.010615,492.725442 L554.280797,492.725442 L549.715483,492.688182 L547.710245,492.688182 L545.966471,492.650922 L544.519158,492.613662 L543.442424,492.576402 L542.736267,492.539142 L542.513921,492.501882 L542.885528,492.165506 L543.775944,491.681125 L545.48369,490.747554 L547.413783,489.515901 L549.343876,488.097949 L551.051622,486.642736 L552.9076,484.925668 L552.9076,481.528792 L552.9076,478.094656 L535.981457,478.094656 Z M535.832196,478.094656 L518.758851,478.094656 L518.832967,482.051468 L518.906053,486.007245 L528.037709,486.12006 L531.601433,486.15732 L533.159918,486.19458 L534.497087,486.23184 L535.610879,486.2691 L535.981457,486.284626 L535.981457,478.094656 L535.832196,478.094656 Z M730.04072,484.962928 L724.843366,484.962928 L724.843366,488.097949 L724.843366,491.23297 L715.415248,491.30749 L705.98713,491.38201 L705.913015,495.337787 L705.83787,499.294599 L715.341133,499.294599 L724.843366,499.294599 L724.843366,504.221208 L724.843366,509.146782 L712.223132,509.146782 L699.601868,509.146782 L699.601868,513.028039 L699.601868,516.909296 L730.188952,516.909296 L760.775006,516.909296 L760.775006,513.066334 L760.775006,509.185077 L748.080656,509.110557 L735.385276,508.997742 L735.311161,504.146688 L735.237045,499.294599 L744.591048,499.294599 L746.484083,499.294599 L748.154771,499.294599 L749.526939,499.331859 L750.715876,499.294599 L752.46068,499.220079 L753.537414,498.958224 L754.093281,498.436583 L754.315628,497.577531 L754.2796,496.383139 L754.204455,494.666071 L754.093281,491.38201 L744.665163,491.30749 L735.237045,491.23297 L735.237045,488.097949 L735.237045,484.962928 L730.04072,484.962928 Z M535.461618,488.54507 L533.903133,490.038577 L532.343618,491.27023 L530.264264,492.725442 L518.12784,492.725442 L505.989357,492.725442 L506.063472,496.681219 L506.137588,500.636997 L518.12784,500.749812 L530.078975,500.824332 L530.005889,505.825461 L529.893686,510.78933 L526.478194,510.93837 L523.063731,511.087411 L522.989615,515.044223 L522.9155,519 L527.666102,519 L531.452172,518.88822 L534.422971,518.514584 L535.981457,518.009503 L535.981457,487.991344 L535.461618,488.54507 Z M339.694608,493.621754 L339.694608,497.503011 L339.694608,501.384268 L347.267778,501.384268 L347.267778,493.621754 L339.694608,493.621754 Z" id="Fill-11" fill="#204E88"></path>
            </g>
        </g>
    </g>
</svg>