<?xml version="1.0" encoding="UTF-8"?>
<svg width="1024px" height="168px" viewBox="0 0 1024 168" version="1.1" xmlns="http://www.w3.org/2000/svg" xmlns:xlink="http://www.w3.org/1999/xlink">
    <title>中国广核集团有限公司@2x</title>
    <defs>
        <polygon id="path-1" points="0 0 368.720157 0 368.720157 102 0 102"></polygon>
        <polygon id="path-3" points="0 0 238.465753 0 238.465753 168 0 168"></polygon>
    </defs>
    <g id="页面-1" stroke="none" stroke-width="1" fill="none" fill-rule="evenodd">
        <g id="91.中国广核集团有限公司" transform="translate(0.000000, -300.000000)">
            <g id="中国广核集团有限公司" transform="translate(0.000000, 300.000000)">
                <g id="编组" transform="translate(0.000000, 56.000000)">
                    <mask id="mask-2" fill="white">
                        <use xlink:href="#path-1"></use>
                    </mask>
                    <g id="Clip-2"></g>
                    <path d="M67.365352,0 L67.365352,12.2127864 L112.172149,12.2127864 L112.172149,78.9617891 C112.172149,82.6191774 109.264085,85.5473113 105.666686,85.5806613 L67.365352,85.5806613 L67.365352,102 L44.8056892,102 L44.8056892,85.5806613 L-0.00110825618,85.5806613 L-0.00110825618,12.2127864 L44.8056892,12.2127864 L44.8056892,0 L67.365352,0 Z M285.425838,17.5332302 L307.256269,17.5332302 C305.057488,22.7180504 299.935128,34.5417529 294.280805,46.1164418 L285.425838,17.5332302 Z M299.43863,62.8092508 L311.527488,62.8092508 C304.667382,75.7335048 296.335512,89.9561872 287.405184,102 L308.249266,102 C332.901317,64.925867 347.75195,24.9302701 347.75195,24.9302701 L329.674075,24.9302701 C329.674075,24.9302701 324.507384,37.2964666 316.310722,53.5646184 L309.645669,53.5646184 C316.842685,38.4036881 323.07995,23.4939948 325.546929,17.5332302 L368.720157,17.5332302 L368.720157,8.29082111 L338.493577,8.29082111 L338.493577,0 L320.032246,0 L320.032246,8.29082111 L284.780833,8.29082111 L284.780833,0 L267.518635,0 L267.518635,8.29082111 L254.90003,8.29082111 L254.90003,17.5332302 L266.623164,17.5332302 L248.866683,76.4227391 L262.819629,76.4227391 L267.518635,60.8238115 L267.518635,102 L284.780833,102 L284.780833,60.5503411 L287.990343,70.8933017 L301.941072,70.8933017 L299.43863,62.8092508 Z M367.037824,34.4061294 C363.704189,42.7102906 359.424104,52.9398609 354.219733,64.0187458 L368.720157,102 L350.447229,102 L344.119086,84.2222028 C340.949473,90.1385008 337.562642,96.1103821 333.938645,102 L314.628389,102 C327.790039,82.0210999 341.284167,53.4045382 349.675882,34.4061294 L367.037824,34.4061294 Z M156.207601,17.5332302 L156.207601,54.6940733 C156.207601,54.6940733 156.302911,83.1394381 151.038694,102 L128.405886,102 C133.18247,82.3612704 133.794228,61.0483685 133.794228,54.6940733 L133.794228,14.8452166 C133.827475,11.1811583 136.717807,8.29082111 140.306341,8.29082111 L179.325825,8.29082111 L179.325825,0 L203.749574,0 L203.749574,8.29082111 L239.355629,8.29082111 L239.355629,17.5332302 L156.207601,17.5332302 Z M67.365352,76.9163197 L90.1776973,76.9163197 L90.1776973,20.8749046 L67.365352,20.8749046 L67.365352,76.9163197 Z M21.9955604,76.9163197 L44.8056892,76.9163197 L44.8056892,20.8749046 L21.9955604,20.8749046 L21.9955604,76.9163197 Z" id="Fill-1" fill="#004A86" mask="url(#mask-2)"></path>
                </g>
                <path d="M759.799243,155.086539 C746.089878,157.138397 734.164457,158 721.767596,158 C677.217693,158 643.25636,143.825746 643.25636,107.00111 C643.25636,72.403762 676.263748,56 721.767596,56 C732.579713,56 747.506409,57.299066 759.799243,59.9127425 L759.799243,74.3290445 C744.252814,69.8056299 733.166245,69.4503298 723.642287,69.4503298 C699.501498,69.4503298 680.387182,83.5002286 680.387182,107.00111 C680.387182,130.328783 699.990644,144.556332 723.642287,144.556332 C730.226943,144.556332 741.993004,144.76063 759.799243,141.025537 L759.799243,155.086539 Z M936.752751,57.6987787 L936.912111,57.6987787 C942.531755,57.6987787 947.564867,59.9682581 950.991102,63.5590099 L1009.41637,123.011822 L1009.41637,57.6987787 L1024,57.6987787 L1024,156.305663 L1000.2731,156.305663 C994.551646,156.305663 989.511894,154.036183 986.094513,150.44099 L927.640472,90.5618183 L927.640472,156.305663 L913.043562,156.305663 L913.043562,57.6987787 L936.752751,57.6987787 Z M892.501647,100.010581 L838.511892,100.010581 L838.511892,112.721442 L858.872314,112.721442 L858.872314,142.977467 C855.722745,143.477108 851.085819,143.899027 846.535213,143.899027 C815.738942,143.899027 804.479733,128.561165 804.479733,107.00111 C804.479733,87.2486448 822.336878,69.7345699 854.388107,69.7345699 C862.606201,69.7345699 874.544902,71.1113578 888.942613,75.3816211 L888.942613,60.2169682 C875.545327,57.4700542 860.988257,56 849.529848,56 C802.432403,56 768.614936,71.9751812 768.614936,107.00111 C768.614936,145.573379 803.547921,158 842.062073,158 C856.322558,158 871.893333,156.982953 892.501647,154.251584 L892.501647,100.010581 Z" id="Fill-3" fill="#004A86"></path>
                <g id="编组" transform="translate(390.763209, 0.000000)">
                    <mask id="mask-4" fill="white">
                        <use xlink:href="#path-3"></use>
                    </mask>
                    <g id="Clip-6"></g>
                    <path d="M158.395645,23.4234537 L158.395645,23.4477393 C146.136874,30.6649758 135.204331,46.7442456 126.968452,62.9846835 L92.559456,131.655507 L104.415938,75.4343612 C104.473408,75.1407263 104.506564,74.8404681 104.506564,74.5247554 C104.506564,72.471519 103.08971,70.7494497 101.184362,70.2637379 L93.1695211,67.9808922 C92.7893356,67.8727109 92.3980982,67.8175164 91.984757,67.8175164 C91.021031,67.8175164 90.132458,68.1288135 89.4118739,68.6498499 L64.1008045,86.9302775 C63.8554523,87.0826144 63.6764114,87.3563792 63.6764114,87.6720919 C63.6764114,88.1445571 64.0565969,88.5265032 64.5362495,88.5265032 C64.6578205,88.5265032 64.7727603,88.5022176 64.8810689,88.4558542 L84.6816592,80.1545972 C85.1237353,79.9360269 85.6232814,79.8168067 86.1405105,79.8168067 C87.9972303,79.8168067 89.5002891,81.3247212 89.5002891,83.172634 C89.5002891,83.4221133 89.4781853,83.6627614 89.4273466,83.8923707 C88.3950988,88.4006597 88.1011181,89.4228624 86.8058351,94.3925777 C82.2016121,112.026125 71.401692,127.127348 67.6926732,150.461387 C67.4694247,151.461512 67.3544849,152.496961 67.3544849,153.565527 C67.3544849,161.540032 73.8309004,168 81.8103747,168 C88.0524898,168 93.3861384,164.048072 95.404216,158.513165 L120.768334,89.113773 C120.768334,89.113773 131.83129,58.5624979 143.369477,41.838556 C150.144294,32.0073067 158.517216,23.4234537 173.300242,22.9576119 C178.799669,23.0547543 183.952067,24.5295521 188.352935,27.525511 C204.101897,38.237665 204.654492,64.6361038 189.77421,87.0097576 C174.690572,109.685877 148.937426,120.486343 132.043486,110.593275 C129.547967,109.13614 127.384004,107.305889 125.56265,105.173173 C125.467604,105.040706 125.308456,104.952395 125.109522,104.952395 C124.815542,104.952395 124.561348,105.195251 124.561348,105.495509 C124.561348,105.581612 124.581241,105.652261 124.63208,105.758235 C127.235908,111.180545 131.112916,115.657925 136.24542,118.742196 C155.442577,130.29993 184.712438,117.678045 201.85394,91.1780483 C218.769984,65.03792 218.142235,34.1908022 200.246993,21.6770989 C188.863533,13.7136324 173.088046,14.9146653 158.395645,23.4234537 M206.96213,14.0138906 C192.977051,4.42991281 173.326767,6.40366912 155.413842,17.4977692 C155.325426,17.5485482 155.22817,17.5728338 155.122071,17.5728338 C154.82367,17.5728338 154.573897,17.3321856 154.573897,17.0275118 C154.573897,16.8530971 154.65126,16.6963447 154.772831,16.6014101 C176.724122,-0.83122959 202.578945,-5.38146647 220.290725,7.00860115 C243.742865,23.4124148 244.554074,63.8192248 222.403849,98.0751565 C199.930909,132.805761 161.576383,149.331003 136.426671,134.201079 C129.886155,130.26019 124.903957,124.597231 121.49776,117.755317 C121.460184,117.678045 121.43808,117.598565 121.43808,117.514669 C121.43808,117.212203 121.687853,116.964932 121.990675,116.964932 C122.169716,116.964932 122.331074,117.055451 122.42833,117.179087 C125.025528,120.490758 128.184162,123.31451 131.928547,125.51346 C154.434643,138.78664 188.741962,124.290349 208.843164,93.8428402 C228.668068,63.8192248 227.934222,28.393169 206.96213,14.0138906 M43.3431194,120.36933 C29.6299175,113.2956 27.3244905,91.4849299 38.3653421,72.0807417 C49.2713604,52.9525261 68.6630303,44.1214017 81.5296563,51.9214924 C82.7829422,52.6875924 83.9345505,53.5839515 84.982271,54.6061542 C85.0817381,54.7010888 85.2232025,54.7651144 85.3823499,54.7651144 C85.6829617,54.7651144 85.9261035,54.5222585 85.9261035,54.2153769 C85.9261035,54.1049879 85.8951582,53.9990144 85.8421091,53.9173265 C83.9146571,51.0229254 81.4655553,48.6142362 78.497014,46.8325569 C63.5791547,37.8777967 41.0796895,48.0225509 28.4341016,69.9833497 C15.6116831,92.2709 18.2972957,117.320385 34.2031952,125.445019 C44.0681243,130.476552 56.5545648,127.705787 67.3920614,119.497257 C67.5136323,119.397907 67.5998372,119.234531 67.5998372,119.062324 C67.5998372,118.75765 67.3544849,118.510379 67.0516628,118.510379 C66.9566164,118.510379 66.8704115,118.530249 66.7864171,118.574404 C58.8069428,122.987759 50.3146601,123.963598 43.3431194,120.36933 M61.3997193,128.937729 C61.4859242,128.889158 61.572129,128.862664 61.6804377,128.862664 C61.9788391,128.862664 62.2286121,129.112143 62.2286121,129.414609 C62.2286121,129.591232 62.1401968,129.745777 62.0142051,129.845127 C47.7528289,140.68754 31.2832823,144.348041 18.2906645,137.715866 C-2.65269257,127.02579 -6.18930169,94.045956 10.6869549,64.7067528 C27.3377527,35.7914435 56.9612749,22.4365756 76.598297,34.2283345 C83.2449118,38.2155872 87.9287085,44.6093213 90.5634822,52.4270742 C90.5877964,52.5065544 90.596638,52.5683722 90.596638,52.6301901 C90.596638,52.9326561 90.3490753,53.1843432 90.0506739,53.1843432 C89.8340566,53.1843432 89.650595,53.0584996 89.5511279,52.8885005 C87.1860205,48.3603414 83.8350834,44.6402302 79.5469448,42.0615419 C62.4562813,31.8086064 36.6788216,43.4215351 22.1941969,68.5858242 C7.50621712,94.1121894 10.5852774,122.815552 28.8076559,132.114726 C38.4913338,137.057948 50.3853923,135.428605 61.3997193,128.937729" id="Fill-5" fill="#EC6C00" mask="url(#mask-4)"></path>
                </g>
            </g>
        </g>
    </g>
</svg>