<?xml version="1.0" encoding="UTF-8"?>
<svg width="1020px" height="541px" viewBox="0 0 1020 541" version="1.1" xmlns="http://www.w3.org/2000/svg" xmlns:xlink="http://www.w3.org/1999/xlink">
    <title>中国民航信息集团有限公司@2x</title>
    <g id="页面-1" stroke="none" stroke-width="1" fill="none" fill-rule="evenodd">
        <g id="！84.中国民航信息集团有限公司" transform="translate(-2.000000, -114.000000)">
            <g id="中国民航信息集团有限公司" transform="translate(2.000000, 114.000000)">
                <polygon id="Fill-1" fill="#E50113" points="0 540.523 1019.343 540.523 1019.343 0 0 0"></polygon>
                <g id="编组" transform="translate(12.803000, 23.726000)">
                    <path d="M163.748,179.434 L206.964,179.434 L206.964,95.519 L163.748,95.519 L163.748,179.434 Z M95.37,179.434 L137.594,179.434 L137.594,95.519 L95.37,95.519 L95.37,179.434 Z M329.492,195.513 L328.975,78.004 L438.619,78.314 L439.136,195.823 L329.492,195.513 Z M301.333,56.873 L305.2,57.071 L464.242,56.873 L463.48,74.498 L464.221,218.775 L301.386,218.775 L301.498,217.223 L301.333,56.873 Z M339.541,166.962 L339.541,186.637 L422.047,186.637 L422.047,166.976 L394.294,166.984 L394.309,167.361 L394.309,147.142 L394.395,147.142 L394.395,147.021 L417.672,147.021 L417.672,127.651 L394.309,127.649 L394.309,109.622 L422.001,109.622 L422.001,90.051 L340.965,90.051 L340.988,109.622 L371.463,109.622 L371.463,127.651 L344.794,127.651 L344.794,147.055 L371.463,147.055 L371.463,166.976 L339.541,166.962 Z M673.003,123.603 L673.003,219.351 L702.574,219.351 L702.574,194.821 C697.85,194.821 694.412,195.707 694.432,191.878 L694.432,103.715 L621.666,103.715 C622.86,142.148 622.069,180.774 622.176,219.351 L645.225,219.351 C645.118,187.358 644.429,155.569 645.236,123.603 L673.003,123.603 Z M817.189,127.107 L817.189,146.846 C854.743,146.114 892.337,146.255 929.893,146.846 L929.893,127.107 L817.189,127.107 Z M816.791,97.462 L816.791,117.598 C854.341,116.519 891.945,116.857 929.497,117.598 L929.497,97.462 C891.938,97.986 854.349,98.226 816.791,97.462 L816.791,97.462 Z M845.162,195.485 L899.804,195.485 L899.804,177.462 L845.162,177.462 L845.162,195.485 Z M818.037,219.353 L845.36,219.353 L845.162,215.484 L899.805,215.484 L899.607,219.353 L928.527,219.353 L928.527,156.169 C891.71,157.312 854.853,157.394 818.037,156.169 L818.037,219.353 Z M776.132,123.799 L775.337,219.353 L799.62,219.353 C797.97,178.283 800.014,144.657 798.809,98.074 C798.773,96.566 798.645,95.384 799.282,93.342 C799.779,91.747 800.683,89.621 802.235,86.412 C805.437,79.807 808.758,65.965 811.869,56.172 C803.745,55.086 790.806,56.278 783.342,55.879 C780.362,70.962 773.815,94.505 761.072,104.284 C763.53,112.014 765.551,114.492 765.863,127.649 C767.366,127.633 772.377,128.664 776.132,123.799 L776.132,123.799 Z M853.628,53.434 L888.011,53.434 L888.011,64.317 C903.29,64.317 918.407,64.123 933.678,63.522 L933.678,86.568 L812,86.568 L812,63.522 C825.95,64.06 839.673,64.317 853.628,64.317 L853.628,53.434 Z M644.141,51.858 L672.075,51.858 L672.075,64.377 L697.608,64.503 L697.608,85.632 L620.879,85.161 L620.879,64.377 L644.141,64.377 L644.141,51.858 Z M559.84,81.974 L559.84,95.819 L559.736,95.819 L559.736,100.12 L573.838,100.12 L573.838,117.089 L559.736,117.089 L559.736,124.198 L583.884,124.198 L583.884,81.974 L559.84,81.974 Z M528.994,193.205 L536.302,193.205 L536.337,147.877 L525.102,147.877 L525.102,124.186 L536.302,124.198 L536.302,95.819 L529.827,95.819 L529.827,70.568 C541.737,70.568 540.565,61.712 540.565,51.858 L569.349,51.858 L569.349,64.376 L607.819,64.377 C607.289,73.04 607.283,122.479 607.283,214.731 C607.283,217.309 606.072,219.376 602.621,219.374001 L577.383,219.353 L576.957,197.203 C581.331,196.975 581.616,196.315 582.695,195.215 C583.49,194.19 583.891,192.695 583.886,190.75 L583.696,147.877 L559.578,147.877 C559.578,153.825 559.765,159.052 559.736,165.001 L573.838,165.001 L573.838,181.293 L559.736,181.293 L559.736,219.348 L528.804,219.348 L528.994,193.205 Z M99.097,204.175 L137.594,204.175 L137.594,214.284 L136.834,219.362 L164.543,219.362 L163.748,214.284 L163.748,204.175 L204.86,204.175 L204.86,204.164 L233.04,204.164 L232.525,181.174 L232.525,90.856 L233.118,71.118 L212.587,71.878 L163.748,71.878 C163.748,58.584 164.014,65.802 164.543,55.189 L136.834,55.189 L137.594,71.878 L89.948,71.878 L69.777,71.118 L70.374,90.856 L70.374,181.174 L69.851,204.164 L99.097,204.164 L99.097,204.175 Z" id="Fill-2" fill="#FEFEFE"></path>
                    <polygon id="Fill-4" fill="#FEFEFE" points="0.013 503.714 994.764 503.714 994.764 253.911 0.013 253.911"></polygon>
                    <path d="M10.872,248.916 L983.908,248.916 L983.908,10.872 L10.872,10.872 L10.872,248.916 Z M5.436,0 L989.344,0 L994.779,0 L994.779,5.436 L994.779,254.352 L994.779,259.788 L989.344,259.788 L5.436,259.788 L3.55271368e-15,259.788 L3.55271368e-15,254.352 L3.55271368e-15,5.436 L3.55271368e-15,0 L5.436,0 Z" id="Fill-5" fill="#FEFEFE"></path>
                    <path d="M832.57,395.0541 L853.707,326.8691 L822.993,326.8691 L805.032,362.1451 L805.068,292.5071 L764.548,292.5071 L764.251,472.2831 L804.773,472.2831 L805.032,411.8261 L814.877,472.2831 L853.813,472.2831 L832.57,395.0541 Z M691.134,467.8501 C707.966,469.5011 721.727,463.4571 732.188,454.5761 C735.083,452.0261 740.785,448.4051 742.504,445.5601 L742.504,413.6491 C742.504,402.2401 741.972,398.6571 733.486,390.1301 C716.249,372.8151 692.565,361.7611 683.28,352.7811 L683.28,329.9471 L702.872,329.9471 L702.872,352.7811 L701.794,352.7811 L701.794,353.6461 L742.504,352.7181 L742.504,324.7241 C741.799,321.9751 740.616,319.5141 738.7,317.3551 C728.334,305.6641 710.374,300.3661 690.858,300.3661 C673.398,300.3661 659.624,304.7601 649.577,313.6411 C644.179,318.8151 643.938,321.4371 643.938,328.4481 L643.938,363.3531 C649.809,374.4791 664.947,384.2631 684.877,394.2691 C708.076,405.2741 702.1,413.9401 702.1,436.3291 L682.508,436.3291 L682.508,413.4951 L682.524,407.0101 L643.938,407.0101 L643.938,445.8281 C649.3,457.8821 661.797,464.9741 691.134,467.8501 L691.134,467.8501 Z M580.173,292.5451 L579.927,463.2281 L619.394,462.7081 L619.386,292.5111 L580.173,292.5451 Z M498.128,378.5551 L516.399,378.5551 L516.399,348.6021 L498.128,348.6021 L498.128,378.5551 Z M553.262,394.8261 L553.262,374.1161 C553.144,361.9001 549.235,351.2321 541.611,342.1801 C532.894,331.6961 520.891,326.3951 505.646,326.2481 C489.461,326.2481 476.56,332.7241 466.944,345.6381 C464.841,348.5831 462.995,351.8861 461.409,355.5421 L461.409,438.3641 C463.651,443.2061 466.408,447.4331 469.679,451.0431 C489.522,472.7561 517.509,469.2161 535.833,453.3251 C546.463,444.1041 551.792,426.7351 555.753,413.6341 L518.937,414.2741 L516.4,441.4651 L498.128,441.4651 L498.128,394.8241 C517.999,394.8241 533.093,395.2291 553.262,394.8261 L553.262,394.8261 Z M396.431,413.9571 L386.212,326.2481 L348.831,326.2481 L368.877,463.5671 L426.511,462.7081 L445.058,326.2481 L409.679,326.2481 L404.405,413.9991 L396.431,413.9571 Z M332.011,463.1121 L332.011,360.5021 C332.011,330.5061 310.063,325.2701 287.784,324.6971 C265.263,324.1161 242.57,338.9661 242.596,348.4651 L242.596,376.6311 L279.525,376.6311 C280.133,373.8531 278.939,364.8561 280.128,358.6901 C282.384,346.9821 296.345,349.3611 296.345,360.5021 L296.345,376.6771 C275.608,398.7431 259.01,396.9711 246.38,402.2431 C241.425,404.3131 242.587,406.6351 242.562,412.5181 L242.399994,451.7391 C242.393,453.7341 248.414,463.6171 257.358,463.9171 C280.786,464.7081 324.203,463.1321 332.011,463.1121 L332.011,463.1121 Z M282.914997,407.1981 C282.909,405.9641 291.674,404.9561 296.345,406.8331 L296.345,441.9021 L283.082,441.9551 L282.914997,407.1981 Z M216.555,326.2481 C204.852,326.2481 198.606,329.8191 189.334,337.0291 C189.472,331.0951 189.4,329.1901 189.628,326.2481 L157.411,326.2481 C157.411,371.7411 158.06,417.2081 158.06,462.7081 L195.96,462.7081 L195.96,402.9961 C195.96,387.7631 198.148,384.9351 202.618,375.8481 C206.71,368.5271 211.371,364.8851 216.555,364.8851 C217.284,364.8851 218.007,364.8711 218.73,364.8541 L218.73,326.2621 L216.555,326.2481 Z M102.211,327.9641 L141.148,327.9641 L141.148,290.2501 L30.984,290.2501 L30.984,327.9641 L69.791,328.3021 L69.791,465.6421 L102.211,465.3051 L102.211,327.9641 Z M914.608,420.5641 L897.322,326.2481 L862.468,326.2481 C869.449,366.5431 878.807,416.7571 888.713,456.4181 C891.325,466.8701 894.075,465.5611 875.921,465.5611 L875.921,487.3181 C890.467,487.3181 911.684,489.3471 924.976,484.8711 C931.497,482.6731 937.498,475.7581 939.388,470.8611 L954.537,326.2481 L923.883,326.2481 L914.608,420.5641 Z" id="Fill-6" fill="#003C82"></path>
                </g>
            </g>
        </g>
    </g>
</svg>