<?xml version="1.0" encoding="UTF-8"?>
<svg width="1024px" height="707px" viewBox="0 0 1024 707" version="1.1" xmlns="http://www.w3.org/2000/svg" xmlns:xlink="http://www.w3.org/1999/xlink">
    <title>中国电子科技集团有限公司@2x</title>
    <defs>
        <polygon id="path-1" points="0 5.68434189e-14 243.156775 5.68434189e-14 243.156775 242.567871 0 242.567871"></polygon>
        <polygon id="path-3" points="0 707 1024 707 1024 0 0 0"></polygon>
        <polygon id="path-5" points="84 0 0 41.6380268 0 105 84 63.0011103"></polygon>
        <path d="M177.973144,0 L177.973144,0.126540547 C155.680332,0.109792533 133.38938,0.23633308 111.113307,0.822513554 L111.113307,0.822513554 C55.5393679,2.28703429 10.9500237,43.1540482 3.13470607,97.5292656 L3.13470607,97.5292656 C-1.33278391,128.607996 -0.707856085,159.764884 3.01009249,190.891998 L3.01009249,190.891998 C8.91900826,240.36563 51.5145351,284.526419 101.188858,287.072118 L101.188858,287.072118 C126.745802,288.382184 152.351103,288.774832 177.973144,288.847407 L177.973144,288.847407 L177.973144,289 L274,289 L274,229.756693 L273.388092,229.756693 L273.388092,229.635736 C268.667655,229.635736 265.025962,229.635736 261.386129,229.633875 L261.386129,229.633875 C252.24656,229.632014 243.11071,229.633875 233.974861,229.633875 L233.974861,229.633875 C205.652239,229.637596 177.327757,229.641318 149.006996,229.525943 L149.006996,229.525943 C142.850712,229.499891 136.608874,229.043972 130.558605,227.947908 L130.558605,227.947908 C106.999198,223.686469 87.1224018,198.689128 89.9271374,175.422416 L89.9271374,175.422416 L246.689166,175.422416 C246.689166,175.176778 246.689166,174.936723 246.689166,174.692947 L246.689166,174.692947 L247.434988,174.692947 L247.434988,114.307053 L240.958801,114.307053 C239.751723,114.098634 238.356795,114.016754 236.738678,114.029781 L236.738678,114.029781 C209.690091,114.271696 182.641504,114.243783 155.591057,114.217731 L155.591057,114.217731 C146.109265,114.208426 136.629333,114.199122 127.147541,114.200983 L127.147541,114.200983 C114.794057,114.204704 102.440573,114.202843 89.5421372,114.202843 L89.5421372,114.202843 C88.4894314,84.091776 112.162293,60.6389744 142.653563,60.4807987 L142.653563,60.4807987 C157.222193,60.408224 171.790822,60.3989195 186.361312,60.3858933 L186.361312,60.3858933 L214.669055,60.3858933 C231.220343,60.4119458 274,60.3858933 274,60.3858933 L274,60.3858933 L274,0 L177.973144,0 Z" id="path-7"></path>
        <linearGradient x1="49.9999883%" y1="99.9998758%" x2="49.9999883%" y2="0.000228264929%" id="linearGradient-9">
            <stop stop-color="#F42D04" offset="0%"></stop>
            <stop stop-color="#8E0B0B" offset="100%"></stop>
        </linearGradient>
        <path d="M0,0 L0,60.081793 L51.4169707,60.081793 C53.0518564,60.0892358 54.6886042,60.0985392 56.3197659,60.0966785 L56.3197659,60.0966785 C76.7055622,60.0780716 87.0101838,70.3974777 87.0381147,90.9637229 L87.0381147,90.9637229 C87.1088728,141.596914 87.1703207,192.230106 87.2317686,242.865158 L87.2317686,242.865158 L87.2317686,288 L87.2745959,288 L175.442979,288 L176,288 L176,241.681757 L175.893597,241.681757 C175.966217,180.11513 176.055596,118.546643 175.955044,56.9800169 L175.955044,56.9800169 C175.901045,25.223561 151.509965,0.614028854 119.436039,0.243750848 L119.436039,0.243750848 C111.6694,0.152576867 103.902762,0.119084384 96.1361235,0.0930346748 L96.1361235,0.0930346748 L96.1361235,0 L0,0 Z" id="path-10"></path>
        <linearGradient x1="50.0000504%" y1="99.9997363%" x2="50.0000504%" y2="-0.00026747469%" id="linearGradient-12">
            <stop stop-color="#F42D04" offset="0%"></stop>
            <stop stop-color="#8E0B0B" offset="100%"></stop>
        </linearGradient>
        <path d="M110.544249,0.762969974 C54.8056448,2.5829325 10.5319593,41.4720704 2.8849571,96.4114912 L2.8849571,96.4114912 C-0.91248313,123.69232 -0.260961521,151.851495 0.909915885,179.504504 L0.909915885,179.504504 C3.51227934,240.971971 52.1213758,287.654568 113.894932,288.672481 L113.894932,288.672481 C136.914121,289.053966 159.942618,289.029774 182.969253,288.953477 L182.969253,288.953477 L182.969253,289 L253.705885,289 L253.705885,215.112871 L182.969253,215.112871 L182.969253,215.455277 C170.716924,215.451555 158.462733,215.429225 146.210404,215.328736 L146.210404,215.328736 C130.81774,215.204055 117.228861,209.708811 105.857017,199.220765 L105.857017,199.220765 C84.7123482,179.72223 81.9182512,154.968506 85.8627492,128.428317 L85.8627492,128.428317 C90.6095495,96.4952318 116.491711,74.1402116 148.719693,74.0713582 L148.719693,74.0713582 C160.234872,74.0471665 171.748189,74.0527492 183.261507,74.056471 L183.261507,74.056471 L183.261507,74.0694973 L221.870677,74.0694973 C228.782391,74.07508 235.692243,74.0825236 242.603956,74.0862454 L242.603956,74.0862454 C246.146372,74.0862454 249.69065,74.0862454 253.545796,74.0862454 L253.545796,74.0862454 L253.545796,74.0694973 L254,74.0694973 L254,0.184229335 L201.371946,0.184229335 C188.963252,0.0856015093 176.552696,0 164.145863,0 L164.145863,0 C146.269971,0 128.401526,0.178646628 110.544249,0.762969974" id="path-13"></path>
        <linearGradient x1="49.9998131%" y1="99.9998856%" x2="49.9998131%" y2="-0.000386153341%" id="linearGradient-15">
            <stop stop-color="#F42D04" offset="0%"></stop>
            <stop stop-color="#8E0B0B" offset="100%"></stop>
        </linearGradient>
        <path d="M117.852013,0.0519992312 C112.907445,0.0612848082 107.966601,0.69456116 103.02762,1.07898405 L103.02762,1.07898405 C55.9210612,4.74307273 12.3920981,43.9319219 4.11017887,90.4619483 L4.11017887,90.4619483 C-1.55326085,122.302192 -0.579246064,154.265005 2.34279831,186.350388 L2.34279831,186.350388 C6.53124814,232.375279 43.8604115,275.313644 89.2629097,284.537936 L89.2629097,284.537936 C99.1986055,286.558478 109.482563,287.678318 119.621256,287.769317 L119.621256,287.769317 C143.195021,287.975457 166.770649,288.014456 190.346276,287.995885 L190.346276,287.995885 L255,287.995885 L255,269.094164 L254.977652,269.094164 C255.027935,251.427426 254.970202,233.547119 254.970202,214.63797 L254.970202,214.63797 C249.960451,214.63797 246.306499,214.63797 242.654409,214.63797 L242.654409,214.63797 C233.169405,214.632398 223.682538,214.647255 214.197533,214.662112 L214.197533,214.662112 C191.748634,214.699254 169.299735,214.738254 146.854561,214.480115 L146.854561,214.480115 C127.091186,214.253547 111.248081,205.668102 98.9881588,190.187188 L98.9881588,190.187188 C86.5997335,174.546562 85.2420724,156.361688 85.8827246,137.549109 L85.8827246,137.549109 C87.1826525,99.3036747 113.723159,73.5621981 151.890385,73.608626 L151.890385,73.608626 C182.89497,73.6476254 213.897693,73.6253401 244.900416,73.5900549 L244.900416,73.5900549 C248.165135,73.5863406 251.427992,73.3077733 254.426393,73.1703468 L254.426393,73.1703468 L254.426393,0.0055713462 C233.821231,0.0055713462 213.381819,0 193.042975,0 L193.042975,0 C167.880616,0 142.869108,0.009285577 117.852013,0.0519992312" id="path-16"></path>
        <linearGradient x1="49.9999677%" y1="99.999881%" x2="49.9999677%" y2="-0.000311002346%" id="linearGradient-18">
            <stop stop-color="#F42D04" offset="0%"></stop>
            <stop stop-color="#8E0B0B" offset="100%"></stop>
        </linearGradient>
    </defs>
    <g id="页面-1" stroke="none" stroke-width="1" fill="none" fill-rule="evenodd">
        <g id="8.中国电子科技集团有限公司" transform="translate(0.000000, -30.000000)">
            <g id="中国电子科技集团有限公司" transform="translate(0.000000, 30.000000)">
                <g id="编组">
                    <g transform="translate(0.000000, 463.680961)">
                        <mask id="mask-2" fill="white">
                            <use xlink:href="#path-1"></use>
                        </mask>
                        <g id="Clip-2"></g>
                        <path d="M198.592526,174.194819 L143.780683,174.194819 C143.778825,174.155773 143.775108,174.116727 143.773249,174.079541 L143.083757,174.079541 L143.083757,47.7215006 L198.475442,47.7215006 L198.475442,47.9130113 L198.592526,47.9130113 L198.592526,174.194819 Z M43.9622832,174.079541 L100.149393,174.079541 L100.149393,48.7924733 L43.9622832,48.7924733 L43.9622832,174.079541 Z M243.006231,41.0520927 C242.98393,28.4997725 237.027535,21.3711107 225.767068,19.9561625 L165.173526,19.9561625 C163.697901,19.9580218 162.224135,19.9673184 160.750369,19.9691778 C159.319347,19.9710371 158.06488,19.9673184 156.888469,19.9561625 L143.083757,19.9561625 L143.083757,5.68434189e-14 L100.283203,5.68434189e-14 L100.283203,19.8315875 C96.0681942,19.8315875 92.754543,19.8315875 89.4408918,19.8315875 C67.1689926,19.8427435 44.8970934,19.7163092 22.6270527,19.9133979 C6.36730255,20.0602848 0.0392137077,26.4898394 0.0280628903,42.3368881 C-0.00353109216,88.3812752 -0.0109649704,134.423803 0.0187705425,180.46819 C0.0280628903,195.839251 7.20918926,202.776402 22.9095401,202.770824 C37.446489,202.765246 51.9852963,202.742934 66.5222452,202.733638 C77.552262,202.72806 88.5822788,202.731778 100.565691,202.731778 L100.565691,242.567871 L143.814136,242.567871 L143.814136,202.755949 C169.076312,202.755949 193.173229,202.830323 217.270145,202.731778 C235.05384,202.657405 243.16606,194.351789 243.156775,176.399982 C243.138183,131.283399 243.086146,86.1668161 243.006231,41.0520927 L243.006231,41.0520927 Z" id="Fill-1" fill="#191A1A" mask="url(#mask-2)"></path>
                    </g>
                    <mask id="mask-4" fill="white">
                        <use xlink:href="#path-3"></use>
                    </mask>
                    <g id="Clip-4"></g>
                    <path d="M306.569421,678.472338 L461.389228,678.472338 L461.389228,498.530337 L306.569421,498.530337 L306.569421,678.472338 Z M383.056594,706.923768 C350.594707,706.936783 318.132819,706.973969 285.67279,706.920049 C269.712253,706.892159 262.254215,699.512488 262.26906,683.862528 C262.33227,621.7833 262.378732,559.702213 262.538561,497.622985 C262.596173,475.889306 268.37973,470.222075 290.073645,470.207201 C353.75968,470.164436 417.445715,470.149561 481.13175,470.164436 C499.183065,470.168155 505.721161,476.694394 505.728594,494.666654 C505.754613,556.130445 505.756472,617.594235 505.732311,679.056166 C505.724878,699.391632 498.203651,706.864269 477.65827,706.897737 C446.125617,706.948404 414.591106,706.912612 383.056594,706.923768 L383.056594,706.923768 Z" id="Fill-3" fill="#191A1A" mask="url(#mask-4)"></path>
                    <path d="M325.732658,606.169225 L325.732658,575.254186 L362.162379,575.254186 L362.162379,547.540909 L320.493633,547.540909 L320.493633,514.952476 L447.404802,514.952476 L447.404802,546.999845 L407.031409,546.999845 L407.031409,574.681513 L441.71231,574.681513 L441.71231,605.897764 L406.905033,605.897764 L406.905033,632.344838 L417.758496,632.344838 C417.232549,627.220532 416.719611,622.224519 416.149061,616.648395 L439.443118,616.648395 C440.528465,621.464054 441.678857,626.681327 442.942616,632.298355 L453.732891,632.298355 L453.732891,665.76997 L316.282341,665.76997 L316.282341,633.320985 L362.219991,633.320985 L362.219991,606.169225 L325.732658,606.169225 Z" id="Fill-5" fill="#191A1A" mask="url(#mask-4)"></path>
                    <path d="M663.059379,535.456582 C663.059379,534.212692 663.057521,532.966942 663.059379,531.724912 L663.059379,510.788883 L710.277515,510.788883 L710.277515,510.820492 L710.277515,550.221502 L710.277515,550.909453 L663.059379,550.909453 L663.059379,535.456582 Z M663.901266,618.235703 L711.095242,618.235703 L711.095242,578.115134 L663.901266,578.115134 L663.901266,618.235703 Z M618.41894,618.235703 L570.044836,618.235703 L570.044836,618.02374 L569.626681,618.02374 L569.626681,579.492895 L570.044836,579.492895 L570.044836,578.113274 L618.41894,578.113274 L618.41894,618.235703 Z M569.22711,511.424774 L569.22711,510.788883 L617.601214,510.788883 L617.601214,511.424774 L617.601214,550.909453 C608.669409,550.909453 599.795217,550.94664 590.945185,550.909453 L569.22711,550.909453 L569.22711,536.525695 C569.14162,528.281437 569.22711,519.968384 569.22711,511.424774 L569.22711,511.424774 Z M760.43575,669.406256 L671.392757,669.406256 C667.105267,669.406256 663.628071,665.927455 663.628071,661.636127 L663.628071,646.136772 L664.100122,646.136772 L664.101981,646.112601 C668.105124,646.112601 672.041363,646.125616 675.986893,646.136772 L718.742844,646.136772 C722.643772,646.108882 726.540982,646.084711 730.434476,646.023353 C745.954555,645.776063 753.7211,637.857187 753.801014,622.307631 C754.005445,582.746719 754.527675,542.648461 754.356696,503.087549 C754.299084,489.776623 746.815027,482.5959 733.430329,482.497356 C713.630194,482.350469 663.442224,482.415545 663.442224,482.415545 C663.063096,475.779605 662.737864,470.103078 662.433075,464.776105 L618.168047,464.776105 L618.168047,483.079325 C594.004226,483.079325 570.879289,483.045857 547.756211,483.090481 C533.616975,483.118371 526.32434,489.637173 525.586528,502.989004 L525.495463,502.989004 L525.495463,627.158616 L525.608829,627.158616 C526.354075,637.894373 532.193387,644.448503 542.355498,645.880185 L618.024945,645.880185 L618.024945,659.051661 C618.036096,667.37773 618.03052,675.705658 618.177339,684.028008 C618.43195,698.616292 625.860253,706.299034 640.406494,706.843816 C648.745447,707.156184 657.10856,706.903315 665.460522,706.903315 L670.294401,706.903315 L678.094398,706.903315 L690.743142,706.903315 L728.945842,706.903315 L769.728098,706.903315 L760.43575,669.406256 Z" id="Fill-6" fill="#191A1A" mask="url(#mask-4)"></path>
                    <polygon id="Fill-7" fill="#191A1A" mask="url(#mask-4)" points="905.188413 540.943829 905.188413 513.159898 866.554548 513.159898 866.554548 492.562267 898.916078 492.562267 898.916078 464.776477 795.285957 464.776477 795.285957 489.650561 795.285957 492.562267 827.283227 492.562267 827.283227 513.159898 789.013622 513.159898 789.013622 538.033982 789.013622 540.943829 827.283227 540.943829 827.283227 547.127953 803.64907 547.127953 778.19733 687.183659 810.921262 687.183659 827.283227 591.874529 827.283227 707.000372 866.554548 707.000372 866.554548 610.750422 877.826166 666.448438 906.914931 666.448438 875.727953 540.943829"></polygon>
                    <polygon id="Fill-8" fill="#191A1A" mask="url(#mask-4)" points="1024 623.159203 1010.54654 623.159203 1010.54654 461.639419 968.366714 461.639419 968.366714 623.159203 903.279393 623.159203 910.913986 657.354095 968.366714 657.354095 968.366714 707 1010.54654 707 1010.54654 657.354095 1024 657.354095"></polygon>
                    <polygon id="Fill-9" fill="#191A1A" mask="url(#mask-4)" points="963.639696 530.505007 944.367367 474.371908 909.097332 474.371908 928.367803 530.505007"></polygon>
                    <polygon id="Fill-10" fill="#191A1A" mask="url(#mask-4)" points="963.639696 606.181869 944.367367 550.04877 909.097332 550.04877 928.367803 606.181869"></polygon>
                </g>
                <g id="编组" transform="translate(739.000000, 0.000000)">
                    <mask id="mask-6" fill="white">
                        <use xlink:href="#path-5"></use>
                    </mask>
                    <g id="Clip-12"></g>
                    <polygon id="Fill-11" mask="url(#mask-6)" points="84 0 0 41.6380268 0 105 84 63.0011103"></polygon>
                </g>
                <g id="编组" transform="translate(272.000000, 78.000000)">
                    <mask id="mask-8" fill="white">
                        <use xlink:href="#path-7"></use>
                    </mask>
                    <g id="Clip-14"></g>
                    <path d="M177.973144,0 L177.973144,0.126540547 C155.680332,0.109792533 133.38938,0.23633308 111.113307,0.822513554 L111.113307,0.822513554 C55.5393679,2.28703429 10.9500237,43.1540482 3.13470607,97.5292656 L3.13470607,97.5292656 C-1.33278391,128.607996 -0.707856085,159.764884 3.01009249,190.891998 L3.01009249,190.891998 C8.91900826,240.36563 51.5145351,284.526419 101.188858,287.072118 L101.188858,287.072118 C126.745802,288.382184 152.351103,288.774832 177.973144,288.847407 L177.973144,288.847407 L177.973144,289 L274,289 L274,229.756693 L273.388092,229.756693 L273.388092,229.635736 C268.667655,229.635736 265.025962,229.635736 261.386129,229.633875 L261.386129,229.633875 C252.24656,229.632014 243.11071,229.633875 233.974861,229.633875 L233.974861,229.633875 C205.652239,229.637596 177.327757,229.641318 149.006996,229.525943 L149.006996,229.525943 C142.850712,229.499891 136.608874,229.043972 130.558605,227.947908 L130.558605,227.947908 C106.999198,223.686469 87.1224018,198.689128 89.9271374,175.422416 L89.9271374,175.422416 L246.689166,175.422416 C246.689166,175.176778 246.689166,174.936723 246.689166,174.692947 L246.689166,174.692947 L247.434988,174.692947 L247.434988,114.307053 L240.958801,114.307053 C239.751723,114.098634 238.356795,114.016754 236.738678,114.029781 L236.738678,114.029781 C209.690091,114.271696 182.641504,114.243783 155.591057,114.217731 L155.591057,114.217731 C146.109265,114.208426 136.629333,114.199122 127.147541,114.200983 L127.147541,114.200983 C114.794057,114.204704 102.440573,114.202843 89.5421372,114.202843 L89.5421372,114.202843 C88.4894314,84.091776 112.162293,60.6389744 142.653563,60.4807987 L142.653563,60.4807987 C157.222193,60.408224 171.790822,60.3989195 186.361312,60.3858933 L186.361312,60.3858933 L214.669055,60.3858933 C231.220343,60.4119458 274,60.3858933 274,60.3858933 L274,60.3858933 L274,0 L177.973144,0 Z" id="Fill-13" fill="url(#linearGradient-9)" mask="url(#mask-8)"></path>
                </g>
                <g id="编组" transform="translate(563.000000, 79.000000)">
                    <mask id="mask-11" fill="white">
                        <use xlink:href="#path-10"></use>
                    </mask>
                    <g id="Clip-16"></g>
                    <path d="M0,0 L0,60.081793 L51.4169707,60.081793 C53.0518564,60.0892358 54.6886042,60.0985392 56.3197659,60.0966785 L56.3197659,60.0966785 C76.7055622,60.0780716 87.0101838,70.3974777 87.0381147,90.9637229 L87.0381147,90.9637229 C87.1088728,141.596914 87.1703207,192.230106 87.2317686,242.865158 L87.2317686,242.865158 L87.2317686,288 L87.2745959,288 L175.442979,288 L176,288 L176,241.681757 L175.893597,241.681757 C175.966217,180.11513 176.055596,118.546643 175.955044,56.9800169 L175.955044,56.9800169 C175.901045,25.223561 151.509965,0.614028854 119.436039,0.243750848 L119.436039,0.243750848 C111.6694,0.152576867 103.902762,0.119084384 96.1361235,0.0930346748 L96.1361235,0.0930346748 L96.1361235,0 L0,0 Z" id="Fill-15" fill="url(#linearGradient-12)" mask="url(#mask-11)"></path>
                </g>
                <g id="编组" transform="translate(1.000000, 78.000000)">
                    <mask id="mask-14" fill="white">
                        <use xlink:href="#path-13"></use>
                    </mask>
                    <g id="Clip-18"></g>
                    <path d="M110.544249,0.762969974 C54.8056448,2.5829325 10.5319593,41.4720704 2.8849571,96.4114912 L2.8849571,96.4114912 C-0.91248313,123.69232 -0.260961521,151.851495 0.909915885,179.504504 L0.909915885,179.504504 C3.51227934,240.971971 52.1213758,287.654568 113.894932,288.672481 L113.894932,288.672481 C136.914121,289.053966 159.942618,289.029774 182.969253,288.953477 L182.969253,288.953477 L182.969253,289 L253.705885,289 L253.705885,215.112871 L182.969253,215.112871 L182.969253,215.455277 C170.716924,215.451555 158.462733,215.429225 146.210404,215.328736 L146.210404,215.328736 C130.81774,215.204055 117.228861,209.708811 105.857017,199.220765 L105.857017,199.220765 C84.7123482,179.72223 81.9182512,154.968506 85.8627492,128.428317 L85.8627492,128.428317 C90.6095495,96.4952318 116.491711,74.1402116 148.719693,74.0713582 L148.719693,74.0713582 C160.234872,74.0471665 171.748189,74.0527492 183.261507,74.056471 L183.261507,74.056471 L183.261507,74.0694973 L221.870677,74.0694973 C228.782391,74.07508 235.692243,74.0825236 242.603956,74.0862454 L242.603956,74.0862454 C246.146372,74.0862454 249.69065,74.0862454 253.545796,74.0862454 L253.545796,74.0862454 L253.545796,74.0694973 L254,74.0694973 L254,0.184229335 L201.371946,0.184229335 C188.963252,0.0856015093 176.552696,0 164.145863,0 L164.145863,0 C146.269971,0 128.401526,0.178646628 110.544249,0.762969974" id="Fill-17" fill="url(#linearGradient-15)" mask="url(#mask-14)"></path>
                </g>
                <g id="编组" transform="translate(766.000000, 79.000000)">
                    <mask id="mask-17" fill="white">
                        <use xlink:href="#path-16"></use>
                    </mask>
                    <g id="Clip-20"></g>
                    <path d="M117.852013,0.0519992312 C112.907445,0.0612848082 107.966601,0.69456116 103.02762,1.07898405 L103.02762,1.07898405 C55.9210612,4.74307273 12.3920981,43.9319219 4.11017887,90.4619483 L4.11017887,90.4619483 C-1.55326085,122.302192 -0.579246064,154.265005 2.34279831,186.350388 L2.34279831,186.350388 C6.53124814,232.375279 43.8604115,275.313644 89.2629097,284.537936 L89.2629097,284.537936 C99.1986055,286.558478 109.482563,287.678318 119.621256,287.769317 L119.621256,287.769317 C143.195021,287.975457 166.770649,288.014456 190.346276,287.995885 L190.346276,287.995885 L255,287.995885 L255,269.094164 L254.977652,269.094164 C255.027935,251.427426 254.970202,233.547119 254.970202,214.63797 L254.970202,214.63797 C249.960451,214.63797 246.306499,214.63797 242.654409,214.63797 L242.654409,214.63797 C233.169405,214.632398 223.682538,214.647255 214.197533,214.662112 L214.197533,214.662112 C191.748634,214.699254 169.299735,214.738254 146.854561,214.480115 L146.854561,214.480115 C127.091186,214.253547 111.248081,205.668102 98.9881588,190.187188 L98.9881588,190.187188 C86.5997335,174.546562 85.2420724,156.361688 85.8827246,137.549109 L85.8827246,137.549109 C87.1826525,99.3036747 113.723159,73.5621981 151.890385,73.608626 L151.890385,73.608626 C182.89497,73.6476254 213.897693,73.6253401 244.900416,73.5900549 L244.900416,73.5900549 C248.165135,73.5863406 251.427992,73.3077733 254.426393,73.1703468 L254.426393,73.1703468 L254.426393,0.0055713462 C233.821231,0.0055713462 213.381819,0 193.042975,0 L193.042975,0 C167.880616,0 142.869108,0.009285577 117.852013,0.0519992312" id="Fill-19" fill="url(#linearGradient-18)" mask="url(#mask-17)"></path>
                </g>
            </g>
        </g>
    </g>
</svg>