<?xml version="1.0" encoding="UTF-8"?>
<svg width="1015px" height="414px" viewBox="0 0 1015 414" version="1.1" xmlns="http://www.w3.org/2000/svg" xmlns:xlink="http://www.w3.org/1999/xlink">
    <title>中国一重集团有限公司@2x</title>
    <defs>
        <polygon id="path-1" points="0 0 219 0 219 311 0 311"></polygon>
        <polygon id="path-3" points="0 0 376 0 376 266 0 266"></polygon>
        <polygon id="path-5" points="0 414 1015 414 1015 0 0 0"></polygon>
    </defs>
    <g id="页面-1" stroke="none" stroke-width="1" fill="none" fill-rule="evenodd">
        <g id="30.中国一重集团有限公司" transform="translate(-5.000000, -174.000000)">
            <g id="中国一重集团有限公司" transform="translate(5.000000, 174.000000)">
                <g id="编组" transform="translate(151.000000, 0.000000)">
                    <mask id="mask-2" fill="white">
                        <use xlink:href="#path-1"></use>
                    </mask>
                    <g id="Clip-2"></g>
                    <path d="M113.356479,126.737863 C133.25939,127.062006 163.532823,124.232104 158.962194,153.561476 C155.995704,171.376143 117.944379,197.283213 117.944379,197.283213 L113.356479,197.554518 L113.356479,126.737863 Z M0,-0.000101612293 L0,310.987369 C0,310.987369 98.2426203,314.224736 194.866878,217.043756 C194.866878,217.043756 223.724118,193.237012 218.327545,161.9262 C213.188,111.936 150.602179,114.681564 113.62773,114.965063 L113.62773,72.8599768 L0,-0.000101612293 Z" id="Fill-1" fill="#00479C" mask="url(#mask-2)"></path>
                </g>
                <g id="编组" transform="translate(0.000000, 148.000000)">
                    <mask id="mask-4" fill="white">
                        <use xlink:href="#path-3"></use>
                    </mask>
                    <g id="Clip-4"></g>
                    <path d="M150.527529,0 L150.527529,24.9444988 C150.527529,24.9444988 44.2942482,80.7963777 73.5631529,154.537921 C73.5631529,154.537921 101.747722,212.015483 223.152523,171.348899 C223.152523,171.348899 293.617005,151.284512 375.460382,73.7466458 L376,130.136337 C376,130.136337 371.120999,188.160897 221.530609,248.891868 C221.530609,248.891868 88.1940349,297.692994 19.9033244,230.451124 C19.9033244,230.451124 -35.3835178,172.976623 38.3309117,85.1325547 C38.3309117,85.1325547 93.0730357,22.2319644 150.527529,0" id="Fill-3" fill="#009944" mask="url(#mask-4)"></path>
                </g>
                <mask id="mask-6" fill="white">
                    <use xlink:href="#path-5"></use>
                </mask>
                <g id="Clip-6"></g>
                <path d="M961.455148,237.595819 L981.428918,237.595819 L981.428918,232.86548 L961.455148,232.86548 L961.455148,237.595819 Z M923.637845,237.595819 L944.168081,237.595819 L944.168081,232.86548 L923.637845,232.86548 L923.637845,237.595819 Z M923.636828,221.832767 L944.167064,221.832767 L944.167064,217.102428 L923.636828,217.102428 L923.636828,221.832767 Z M961.455148,221.832767 L981.428918,221.832767 L981.428918,217.102428 L961.455148,217.102428 L961.455148,221.832767 Z M961.455148,182.408869 C978.363777,181.355423 991.498205,180.661938 1000.87776,180.30096 L1003.02529,180.30096 C1002.67941,178.554029 998.8991,173.464745 991.685389,165.054463 C967.925209,168.912353 937.673605,170.836214 900.96313,170.836214 C902.759691,174.696138 904.374154,179.248531 905.823814,184.493391 C909.422022,184.493391 914.102643,184.337814 919.860591,183.97887 C931.380555,183.622976 939.465079,183.463332 944.168081,183.463332 L944.168081,188.197738 L890.685295,188.197738 L890.685295,200.800451 L944.168081,200.800451 L944.168081,205.014236 L907.96931,205.014236 L907.96931,249.684011 L944.168081,249.684011 L944.168081,254.418417 L907.438277,254.418417 L907.438277,266.505593 L944.168081,266.505593 L944.168081,271.235932 L896.102445,271.235932 L896.102445,283.838645 L1010.04876,283.838645 L1010.04876,271.235932 L961.455148,271.235932 L961.455148,266.505593 L999.796363,266.505593 L999.796363,254.418417 L961.455148,254.418417 L961.455148,249.684011 L999.240914,249.684011 L999.240914,205.014236 L961.455148,205.014236 L961.455148,200.800451 L1016,200.800451 L1016,188.197738 L961.455148,188.197738 L961.455148,182.408869 Z M747.45076,230.759604 L868.42564,230.759604 L868.42564,213.425535 L747.45076,213.425535 L747.45076,230.759604 Z M672.287166,232.327571 C675.164105,236.187495 677.863016,240.22435 680.37169,244.415763 L669.591307,244.415763 L669.591307,227.081694 L680.37169,227.081694 L672.287166,232.327571 Z M630.158524,213.941073 L652.30424,213.941073 L652.30424,202.370452 L627.99675,202.370452 L627.99675,189.227797 L696.044294,189.227797 L696.044294,202.370452 L669.591307,202.370452 L669.591307,213.941073 L693.874382,213.941073 L693.874382,227.081694 L687.399235,227.081694 C691.731937,234.074502 694.243664,238.111356 694.955777,239.165819 L686.871253,244.415763 L697.125689,244.415763 L697.125689,258.094293 L626.912303,258.094293 L626.912303,244.415763 L652.30424,244.415763 L652.30424,227.081694 L630.158524,227.081694 L630.158524,213.941073 Z M623.130979,265.9626 L700.907013,265.9626 L700.907013,181.355423 L623.130979,181.355423 L623.130979,265.9626 Z M605.848999,286.462092 L623.130979,286.462092 L623.130979,279.646214 L700.907013,279.646214 L700.907013,285.407629 L718.71494,285.407629 L718.71494,167.160338 L605.848999,167.160338 L605.848999,286.462092 Z M525.272324,227.598249 L552.277708,227.598249 L552.277708,204.477344 L525.272324,204.477344 L525.272324,227.598249 Z M479.363376,227.597232 L505.818397,227.597232 L505.818397,204.476327 L479.363376,204.476327 L479.363376,227.597232 Z M461,251.251978 L479.363376,251.251978 L479.363376,241.792317 L505.818397,241.792317 L505.818397,287 L525.272324,287 L525.272324,241.792317 L552.277708,241.792317 L552.277708,249.684011 L572.256564,249.684011 L572.256564,189.765705 L525.272324,189.765705 L525.272324,176.625084 C525.272324,172.767193 525.801323,169.450262 526.882718,166.6448 C527.250983,165.929962 527.433081,165.413407 527.433081,165.054463 C527.433081,164.715855 526.165518,164.359961 523.657861,164 L505.289399,164 L505.289399,189.765705 L461,189.765705 L461,251.251978 Z" id="Fill-5" fill="#00479C" mask="url(#mask-6)"></path>
                <path d="M608.649931,310 L551.06305,310.177468 C551.06305,310.177468 515.600539,309.648124 507.172498,340.000255 L507,347.058179 C507,347.058179 507.350069,374.5902 545.097669,381.648124 L609,382 L608.826487,366.469508 L549.662774,366.117632 C549.662774,366.117632 532.631149,362.411202 532.981218,344.587905 C532.981218,344.587905 534.56211,327.290893 552.643942,325.70388 L608.649931,325.530492 L608.649931,310 Z" id="Fill-7" fill="#004DA1" mask="url(#mask-6)"></path>
                <path d="M608.649931,310 L551.06305,310.177468 C551.06305,310.177468 515.600539,309.648124 507.172498,340.000255 L507,347.058179 C507,347.058179 507.350069,374.5902 545.097669,381.648124 L609,382 L608.826487,366.469508 L549.662774,366.117632 C549.662774,366.117632 532.631149,362.411202 532.981218,344.587905 C532.981218,344.587905 534.56211,327.290893 552.643942,325.70388 L608.649931,325.530492 L608.649931,310 Z" id="Stroke-8" stroke="#FEFEFE" stroke-width="0.508" mask="url(#mask-6)"></path>
                <polygon id="Fill-9" fill="#00479C" mask="url(#mask-6)" points="641 309.559598 641.263668 382 668.317187 381.825381 668.40712 351.962441 744 352.256536 744 336.239568 668.329451 336.323304 668.370329 325.108873 743.866122 325.063942 743.822178 309"></polygon>
                <polygon id="Stroke-10" stroke="#FEFEFE" stroke-width="0.508" mask="url(#mask-6)" points="641 309.559598 641.263668 382 668.317187 381.825381 668.40712 351.962441 744 352.256536 744 336.239568 668.329451 336.323304 668.370329 325.108873 743.866122 325.063942 743.822178 309"></polygon>
                <polygon id="Fill-11" fill="#004DA1" mask="url(#mask-6)" points="857.953566 309 885 309 885 382 857.953566 382 857.953566 353.432434 804.045419 353.432434 804.045419 382 777 382 777 309 804.045419 309 804.045419 337.567566 857.953566 337.567566"></polygon>
                <polygon id="Stroke-12" stroke="#FEFEFE" stroke-width="0.508" mask="url(#mask-6)" points="857.953566 309 885 309 885 382 857.953566 382 857.953566 353.432434 804.045419 353.432434 804.045419 382 777 382 777 309 804.045419 309 804.045419 337.567566 857.953566 337.567566"></polygon>
                <polygon id="Fill-13" fill="#004DA1" mask="url(#mask-6)" points="917 382 944 382 944 309 917 309"></polygon>
                <polygon id="Stroke-14" stroke="#FEFEFE" stroke-width="0.508" mask="url(#mask-6)" points="917 382 944 382 944 309 917 309"></polygon>
            </g>
        </g>
    </g>
</svg>