<?xml version="1.0" encoding="UTF-8"?>
<svg width="1023px" height="236px" viewBox="0 0 1023 236" version="1.1" xmlns="http://www.w3.org/2000/svg" xmlns:xlink="http://www.w3.org/1999/xlink">
    <title>中国宝武钢铁集团有限公司@2x</title>
    <defs>
        <polygon id="path-1" points="0 0 229 0 229 185 0 185"></polygon>
    </defs>
    <g id="页面-1" stroke="none" stroke-width="1" fill="none" fill-rule="evenodd">
        <g id="35.中国宝武钢铁集团有限公司" transform="translate(0.000000, -265.000000)">
            <g id="中国宝武钢铁集团有限公司" transform="translate(0.000000, 265.000000)">
                <g id="编组">
                    <mask id="mask-2" fill="white">
                        <use xlink:href="#path-1"></use>
                    </mask>
                    <g id="Clip-2"></g>
                    <path d="M187.678847,69.6137354 C156.36367,57.015264 114.335963,57.4445843 86.435701,64.3411132 C38.82087,76.1093623 18.851698,101.351978 11.9450823,111.254764 C2.67126344,124.55253 -2.58649375,140.522638 1.28509071,158.480002 C6.50748636,182.7026 36.4132536,185.268373 49.1797832,184.98013 C85.2091604,184.166146 130.901334,162.781325 164.538249,134.946548 C224.106294,85.6548891 240.411,37.7689243 221.580469,14.0477067 C204.929221,-6.92606372 159.205728,-3.43567918 114.359201,18.0161288 C70.1299856,39.1736037 35.290777,71.4517948 14.2557069,105.894857 C31.5667007,83.9264434 57.648369,67.9583655 96.5460731,60.758369 C122.251899,40.9822298 179.369893,18.7052742 192.382944,34.1384778 C225.250998,73.1193441 64.4650654,184.892845 34.4572548,149.048148 C21.7836756,133.909278 53.952582,98.8450716 97.3199858,89.7917915 C121.885149,84.6622761 151.777782,88.1567204 168.257274,92.5311192 C175.648848,84.8916529 182.212962,77.2521867 187.678847,69.6137354" id="Fill-1" fill="#00479C" mask="url(#mask-2)"></path>
                </g>
                <path d="M627.7239,76.0947324 C649.564971,76.0947324 667.375307,94.6653828 667.375307,117.436465 C667.375307,140.206529 649.564971,158.777179 627.7239,158.777179 C605.88283,158.777179 588.071482,140.206529 588.071482,117.436465 C588.071482,94.6653828 605.88283,76.0947324 627.7239,76.0947324 L627.7239,76.0947324 Z M627.7239,44.2459551 C589.057402,44.2459551 557.522123,77.1247389 557.522123,117.436465 C557.522123,157.747173 589.057402,190.625957 627.7239,190.625957 C666.389387,190.625957 697.924665,157.747173 697.924665,117.436465 C697.924665,77.1247389 666.389387,44.2459551 627.7239,44.2459551 L627.7239,44.2459551 Z M294,175.176877 L294,60.8349625 C294,51.3705058 296.797827,45.8662815 309.282777,45.8662815 L371.129537,45.8662815 C399.642272,45.8662815 411.953116,60.5235179 413.160717,80.4712421 C414.55963,103.575142 393.672089,111.641152 393.672089,113.592261 C411.788121,121.921878 422.044122,139.537839 416.855387,158.673364 C412.418746,175.036422 398.101645,189.041253 374.886967,189.041253 L310.880089,189.041253 C298.412348,189.041253 294,185.144124 294,175.176877 L294,175.176877 Z M325.841987,74.769566 L325.841987,100.727358 L364.391066,100.727358 C375.546946,100.727358 380.915859,96.2002146 380.915859,87.1143768 C380.915859,79.2946735 376.291954,74.769566 363.668327,74.769566 L325.841987,74.769566 Z M325.236668,128.827604 L325.236668,159.33493 L367.61707,159.33493 C379.881351,159.33493 385.785739,154.014926 385.785739,143.33726 C385.785739,134.14659 380.701265,128.827604 366.822463,128.827604 L325.236668,128.827604 Z M429.298835,169.85382 L465.506607,64.0684908 C469.556573,52.2366476 480.707392,44.4973499 491.801526,44.7171932 C502.89566,44.9360187 513.917925,53.0641133 517.273496,63.1504415 L552.779786,169.85382 C559.432218,189.844292 531.68676,198.566777 524.174938,180.329963 L514.947372,157.929358 L466.545163,157.929358 L458.40879,180.329963 C452.102544,197.696564 428.494106,191.785223 428.494106,171.46804 C429.030592,170.918431 429.298835,170.403428 429.298835,169.85382 L429.298835,169.85382 Z M491.091947,85.4736945 L475.933675,131.131887 L506.275525,131.131887 L491.091947,85.4736945 Z M729.646196,165.271716 L702.648782,64.9885756 C702.021195,62.6568119 701.563663,60.4604147 701.846077,57.7408719 C702.680162,49.7257524 707.240296,44.6032004 716.56605,44.0342541 C725.269276,43.503984 731.007656,49.1537527 733.728553,59.3540738 L754.388341,136.820332 L769.431218,75.0097651 L770.973869,68.6719683 C773.72817,57.3551284 781.104352,44.0342541 795.049962,44.0342541 C811.452275,44.0342541 817.366784,61.4161223 820.303288,73.8912106 L835.179145,137.088011 L857.174076,59.3540738 C859.82108,50.0005565 863.720222,43.7441831 873.533875,44.0342541 C882.321117,44.2958269 887.413689,49.6707915 888.253847,57.7408719 C888.530188,60.4044361 887.998763,62.8308545 887.416726,64.9885756 L860.34137,165.271716 C856.189168,180.650568 851.909423,186.165988 842.722347,189.456512 C831.943019,193.318019 818.734319,189.462619 814.315898,172.303648 L795.049962,97.4948472 L775.354838,172.303648 C771.77455,185.902379 761.010406,191.213223 752.373987,190.602547 C740.100595,189.73437 733.409698,182.067336 729.646196,165.271716 L729.646196,165.271716 Z M898.891461,128.812337 L898.891461,60.6599021 C898.891461,50.6773888 903.966825,44.8963248 914.126663,44.8963248 C923.741917,44.8963248 929.328461,50.6631397 929.328461,60.6599021 L929.328461,125.97473 C929.328461,147.005386 941.054232,159.32577 961.372895,159.045877 C980.092222,158.787357 992.596404,146.552468 992.596404,125.97473 L992.596404,60.6599021 C992.596404,50.6773888 997.638364,44.8963248 1007.7982,44.8963248 C1017.41346,44.8963248 1023,50.6651753 1023,60.6599021 L1023,128.812337 C1023,208.928927 905.266539,214.483024 898.891461,128.812337 L898.891461,128.812337 Z" id="Fill-3" fill="#00479C"></path>
                <path d="M2,162.843452 C8.78116099,182.642715 34.3476839,186.416893 53.0107808,185.613919 C70.9817163,199.624492 96.9645466,207.416571 127.982472,207.416571 C181.935697,207.416571 225.937964,180.157947 225.937964,146.739485 C225.937964,129.929629 215.996101,115.278903 198.065584,104.271896 C204.72347,96.6557831 210.319367,89.2004676 214.878539,82 C240.838128,98.7279402 256,121.170746 256,147.240079 C256,196.127411 198.493006,236 127.982472,236 C51.5456216,236 10.3200834,194.625628 2,162.843452" id="Fill-5" fill="#DE0112"></path>
            </g>
        </g>
    </g>
</svg>