<?xml version="1.0" encoding="UTF-8"?>
<svg width="1022px" height="280px" viewBox="0 0 1022 280" version="1.1" xmlns="http://www.w3.org/2000/svg" xmlns:xlink="http://www.w3.org/1999/xlink">
    <title>中国航空集团有限公司副本@2x</title>
    <defs>
        <polygon id="path-1" points="0 0 104 0 104 112 0 112"></polygon>
    </defs>
    <g id="页面-1" stroke="none" stroke-width="1" fill="none" fill-rule="evenodd">
        <g id="39.中国航空集团有限公司" transform="translate(-2.000000, -241.000000)">
            <g id="中国航空集团有限公司副本" transform="translate(2.000000, 241.000000)">
                <path d="M0,102.425836 L32.7978048,102.425836 C32.7978048,96.5293297 37.7501828,85.2896822 50.5633663,85.2896822 C55.6304712,85.2896822 56.4265149,86.3450056 62.8351194,85.0255994 C71.1930749,82.1479029 75.0978151,77.3258714 76.8026166,73.5208612 C76.8026166,73.5208612 80.0592504,87.3761382 66.8727013,94.577939 C59.4295419,98.7710098 47.9427623,95.499205 47.9427623,95.499205 C47.9427623,95.499205 38.7887632,94.1939101 37.6213666,102.425836 C42.7216819,102.425836 50.8069094,107.789136 50.8069094,116.809278 L50.8069094,193.098977 C50.8069094,198.577184 55.2379844,204.324513 62.0491395,204.324513 C67.912288,204.324513 73.1524896,199.479299 73.1524896,193.098977 L73.1524896,139.447829 C73.1524896,60.4336419 134.541446,27.609759 170.332214,24.9759863 C199.828098,22.7736162 219.691954,25.3882378 256,0 C256,0 244.648075,44.2227864 193.452704,54.9503954 C183.916282,56.9078338 155.693464,53.6360289 129.0416,81.3707737 C108.018398,103.352141 105.801351,123.631082 105.801351,150.295384 L105.801351,197.405946 C105.801351,218.064884 89.2142559,239 63.8736998,239 C39.4459269,239 22.2016684,219.369171 22.2016684,197.405946 L22.2016684,117.341476 C22.2016684,110.787787 17.521012,104.786454 10.0637634,104.786454 L0,104.786454 L0,102.425836 Z" id="Fill-1" fill="#E50113"></path>
                <path d="M29,233.347131 C29,233.347131 55.9058828,260.651609 91.460912,240.020418 C114.836058,226.405946 115.488444,198.067139 115.488444,198.067139 L115.488444,134.666889 C115.488444,134.666889 114.572285,102.769869 143.338676,80.014627 C163.330074,64.2197052 181.873739,65.251013 194.682852,63.6929728 C227.468262,59.6473055 241.973779,39 241.973779,39 C242.366419,42.504835 238.834676,80.5474022 197.820949,91.4043337 C189.449671,93.6240625 144.3686,89.3135183 144.3686,141.473118 L144.3686,204.202615 C144.3686,217.394089 141.248625,240.69117 116.417691,257.142745 C91.1981455,273.881354 50.0263559,271.388691 29,233.347131" id="Fill-3" fill="#E50113"></path>
                <path d="M67,272.715176 C107.092289,283.924819 153.050319,255.856968 153.050319,209.151969 L153.050319,154.328602 C153.050319,138.155221 166.358407,117 190.513589,117 C215.845943,117 228,139.710914 228,154.328602 C228,163.441527 224.211919,181.994204 206.843087,181.994204 C192.998731,181.994204 184.11963,167.912512 188.443979,156.397161 C187.525381,160.187342 189.613102,163.978528 193.654729,163.978528 C197.696355,163.978528 199.932983,160.187342 199.271955,155.515233 C199.147195,154.443242 197.958955,145.703402 188.161256,145.703402 C180.078003,145.703402 177.334285,153.140965 177.334285,156.682757 L177.334285,205.619227 C177.334285,258.078382 120.399371,296.713284 67,272.715176" id="Fill-5" fill="#E50113"></path>
                <polygon id="Fill-7" fill="#2B2E83" points="435 163 405.905681 163 381 275 409.965237 275"></polygon>
                <polygon id="Fill-9" fill="#2B2E83" points="822 163 792.898671 163 768 275 796.959205 275"></polygon>
                <path d="M497.710465,222.344862 L476.313392,222.344862 L484.844036,178.548762 L505.819325,178.548762 L497.710465,222.344862 Z M521.145498,163.019839 L459.0652,163.019839 L434,275 L462.920232,275 L470.958127,239.486527 C476.020542,239.486527 477.331872,243.566585 477.331872,243.566585 L485.593653,275 L514.232029,275 L503.217653,237.451017 C518.731731,237.40382 521.286426,226.406844 521.286426,226.406844 L532.864514,175.699851 C533.169358,173.109019 532.864514,171.061459 532.864514,171.061459 C531.59816,162.202422 521.532301,163.019839 521.145498,163.019839 L521.145498,163.019839 Z" id="Fill-11" fill="#2B2E83"></path>
                <path d="M656.506837,208.193916 L627.733595,208.193916 L633.408309,182.765119 C633.408309,182.765119 634.984898,178.25547 629.616463,178.25547 L615.230344,178.25547 C615.230344,178.25547 612.040012,177.96621 611.169374,181.158118 L594.768836,255.229859 C594.768836,255.229859 593.755602,260.027764 599.289729,260.027764 L611.910471,260.027764 C611.910471,260.027764 615.678216,260.934716 616.713542,256.254322 L621.234435,237.072746 L650.997815,237.072746 L644.898326,262.359925 C644.898326,262.359925 640.543126,275 625.00218,275 L579.0863,275 C579.0863,275 567.196613,273.987589 568.043151,258.861683 L585.891739,178.555779 C585.891739,178.555779 589.801076,163 602.162735,163 L651.420582,163 C651.420582,163 665.219246,163 661.298863,183.053375 C657.519067,203.106751 656.506837,208.193916 656.506837,208.193916" id="Fill-13" fill="#2B2E83"></path>
                <polygon id="Fill-15" fill="#2B2E83" points="741.138475 163 731.062315 208.416512 709.706561 208.416512 719.793688 163 690.781608 163 666 275 694.850558 275 706.538942 222.657776 727.882732 222.657776 716.357863 275 745.207424 275 770 163"></polygon>
                <polygon id="Fill-17" fill="#2B2E83" points="895.146181 163 882.186155 225.423182 872.057363 163 845.063877 163 822 275 848.829877 275 861.110526 216.122756 871.929668 275 898.923154 275 922 163"></polygon>
                <path d="M341.695308,210.537103 L321.190586,210.537103 L328.417799,179.721831 L349.214006,179.721831 L341.695308,210.537103 Z M320.904093,163 C305.029179,163 300.973355,180.587914 300.973355,180.587914 L278,275 L306.17615,275 L318.738923,224.495909 L339.096905,224.495909 L335.1998,240.78068 L326.971358,275 L356.868463,275 L382,163 L320.904093,163 Z" id="Fill-19" fill="#2B2E83"></path>
                <g id="编组" transform="translate(918.000000, 163.000000)">
                    <mask id="mask-2" fill="white">
                        <use xlink:href="#path-1"></use>
                    </mask>
                    <g id="Clip-22"></g>
                    <path d="M63.7103284,47.5371035 L43.2033761,47.5371035 L50.4147547,16.7218315 L71.2012564,16.7218315 L63.7103284,47.5371035 Z M42.8988668,0 C27.0274442,0 22.964991,17.5879145 22.964991,17.5879145 L0,112 L28.1745956,112 L40.7453373,61.4959093 L61.1115164,61.4959093 L57.2028155,77.7806804 L48.9630941,112 L78.8808804,112 L104.000399,0 L42.8988668,0 Z" id="Fill-21" fill="#2B2E83" mask="url(#mask-2)"></path>
                </g>
            </g>
        </g>
    </g>
</svg>