<?xml version="1.0" encoding="UTF-8"?>
<svg width="1024px" height="203px" viewBox="0 0 1024 203" version="1.1" xmlns="http://www.w3.org/2000/svg" xmlns:xlink="http://www.w3.org/1999/xlink">
    <title>中国检验认证（集团）有限公司@2x</title>
    <g id="页面-1" stroke="none" stroke-width="1" fill="none" fill-rule="evenodd">
        <g id="98.中国检验认证（集团）有限公司" transform="translate(0.000000, -283.000000)">
            <g id="中国检验认证（集团）有限公司" transform="translate(0.000000, 283.000000)">
                <path d="M0.197706501,103.256576 C1.17159408,159.165675 47.1127268,203.954691 102.492514,202.984532 C153.976752,202.08787 195.941787,162.245195 200.803902,111.679322 L192.031592,111.679322 C187.059639,157.320902 148.975509,193.393185 102.346065,194.209001 C61.6404934,194.921921 26.507316,168.565929 13.8833898,131.633733 L25.4602038,131.427941 L0.197706501,103.256576 Z M100.002877,64.4796069 C75.5019158,64.905889 55.8264578,81.8763253 56.1852585,102.242319 C56.5367367,122.608312 76.7906693,138.880528 101.29163,138.446896 C116.712738,138.174958 130.208037,131.354444 138.021105,121.255969 L168.21162,121.255969 C158.890124,145.554047 132.734287,162.869919 101.730978,163.413796 C62.4825767,164.104667 30.0220982,136.822614 29.4289787,102.712699 C28.8358592,68.5954338 60.3297725,40.1962282 99.5708517,39.5053573 C122.424259,39.1011243 142.978412,48.1926919 156.268683,62.5907364 L156.041686,49.1334523 L162.258457,49.1334523 L169.756659,86.0142013 L169.676112,86.0142013 C169.683435,86.0656491 169.69808,85.9554037 169.712725,86.0142013 L141.45534,86.0142013 C134.499,72.7700583 118.455484,64.1488709 100.002877,64.4796069 L100.002877,64.4796069 Z M110.635093,95.3630081 C110.635093,95.3630081 108.584804,94.9881739 102.624319,94.0621128 C92.4827075,92.3055367 88.3528384,98.266136 88.7628963,104.028294 C89.312081,111.671972 93.1417292,113.318303 99.89304,113.715186 C102.551094,113.86953 110.510611,111.671972 110.510611,111.671972 L109.551369,115.199824 C103.019732,116.96375 94.8405406,117.728118 89.2754687,115.7584 C71.9798111,110.694463 77.1787599,91.6220154 91.098762,90.9605433 C95.7924608,89.8433902 109.133988,91.4676719 109.133988,91.4676719 L110.635093,95.3630081 Z M119.385437,116.390474 L128.194359,116.390474 L128.194359,90.8061997 L119.385437,90.8061997 L119.385437,116.390474 Z M169.427149,94.9955236 C169.427149,94.9955236 167.369536,94.6206893 161.416374,93.6872786 C151.274763,91.9233528 147.144894,97.8986515 147.554952,103.653459 C148.104136,111.304488 151.933784,112.943469 158.685095,113.347702 C161.335827,113.502045 169.302667,111.297138 169.302667,111.297138 L168.336102,114.82499 C161.811787,116.588915 153.632596,117.353283 148.067524,115.383566 C130.771866,110.319629 135.970815,91.2471812 149.883495,90.585709 C154.584516,89.4759057 167.926044,91.1001874 167.926044,91.1001874 L169.427149,94.9955236 Z M200.598873,99.7434239 C199.632308,43.8343252 153.683853,-0.954691125 98.311388,0.015468074 C46.8271508,0.919480055 4.86211542,40.9091482 0,91.4750216 L8.77231066,91.4750216 C13.744263,45.8334411 51.828393,9.61416439 98.4578373,8.79099901 C139.170731,8.07807899 174.296586,34.4414202 186.920513,71.373617 L175.343699,71.5720587 L200.598873,99.7434239 Z" id="Fill-1" fill="#0075C1"></path>
                <path d="M1008.98419,46.9550018 L1008.98419,100.727501 L989.70703,100.727501 C994.9818,99.8126569 997.391445,96.9809968 996.935963,92.2179993 L996.935963,65.3244891 L1006.2366,65.3244891 L1006.2366,56.4809968 L996.935963,56.4809968 L996.935963,46.9550018 L1008.98419,46.9550018 Z M963.186246,56.4809968 L963.186246,65.3244891 L979.363189,65.3244891 C974.551247,75.3151667 968.813648,82.5758336 962.157739,87.1064898 C964.44984,89.1539978 966.506854,91.6516673 968.343473,94.599498 C968.578561,94.817318 968.696104,94.9334887 968.696104,94.9334887 C976.277669,88.5876658 982.007921,81.5448189 985.916247,73.8339907 L985.916247,88.4714952 C985.916247,90.0543205 985.563616,90.9691646 984.873047,91.1869846 C984.417566,91.4193259 982.360552,91.5354966 978.687314,91.5354966 C980.053758,94.033166 980.972068,97.0971674 981.434896,100.727501 L960.423971,100.727501 L960.423971,46.9550018 L985.916247,46.9550018 L985.916247,56.4809968 L963.186246,56.4809968 Z M949.749539,112.968985 L960.423971,112.968985 L960.423971,109.237003 L1008.64625,109.237003 L1008.64625,113.317497 L1020.0039,113.317497 L1020.0039,38.0969882 L949.749539,38.0969882 L949.749539,112.968985 Z M869.430501,73.8339907 L885.622138,73.8339907 L885.622138,70.4359986 L869.430501,70.4359986 L869.430501,73.8339907 Z M869.430501,63.625493 L885.622138,63.625493 L885.622138,60.5614916 L869.430501,60.5614916 L869.430501,63.625493 Z M869.430501,53.4169953 L885.622138,53.4169953 L885.622138,50.3529939 L869.430501,50.3529939 L869.430501,53.4169953 Z M870.128417,42.525995 C870.811639,41.8434923 871.502208,40.9431696 872.192777,39.7959842 C872.413171,39.3458229 872.875999,38.8956615 873.559222,38.4455002 C874.249791,37.9808175 874.602422,37.5306561 874.602422,37.0804948 C874.139594,36.1656508 870.811639,34.8151667 864.618559,33 C864.376125,33 863.8031,33.9003227 862.892137,35.7154894 C857.147191,45.9239871 851.299395,53.9833274 845.326709,59.8789889 C845.55445,60.1113302 845.789537,60.3291502 846.009932,60.5614916 C848.772207,62.6089996 850.608826,64.540337 851.51979,66.3555038 C852.445446,65.8908211 854.862437,63.1753317 858.748723,58.1799928 L858.748723,83.3599857 L869.430501,83.3599857 L869.430501,81.3269989 L881.831355,81.3269989 L881.831355,85.7414844 L848.426923,85.7414844 L848.426923,93.9169953 L873.911853,93.9169953 C867.020857,99.1301542 858.183045,102.760488 847.391069,104.807996 C850.836567,107.755826 853.473953,110.587487 855.310572,113.317497 C866.565375,108.77232 875.395841,104.125493 881.831355,99.3624955 L881.831355,114 L892.505787,114 L892.505787,98.3460022 C898.478473,103.559161 905.016838,107.639656 912.128228,110.587487 C914.655416,111.734672 917.182605,112.634995 919.717139,113.317497 C921.553759,109.004661 923.728316,105.606669 926.248158,103.109 C915.683923,102.194156 907.088545,99.1301542 900.42529,93.9169953 L924.529082,93.9169953 L924.529082,85.7414844 L892.505787,85.7414844 L892.505787,81.3269989 L920.7383,81.3269989 L920.7383,73.8339907 L895.951285,73.8339907 L895.951285,70.4359986 L917.307495,70.4359986 L917.307495,63.625493 L895.951285,63.625493 L895.951285,60.5614916 L917.307495,60.5614916 L917.307495,53.4169953 L895.951285,53.4169953 L895.951285,50.3529939 L920.400362,50.3529939 L920.400362,42.525995 L896.979792,42.525995 C896.979792,42.0758336 896.862248,41.3933309 896.641854,40.4784869 C896.406767,36.6303335 896.068829,34.350484 895.598654,33.6825027 C895.841088,33.21782 894.570147,33.21782 891.807872,33.6825027 C886.533101,34.350484 883.785518,34.8151667 883.550431,35.0329867 C884.696482,37.7629975 885.504594,40.2606669 885.960076,42.525995 L870.128417,42.525995 Z M758.454614,89.4879885 L758.454614,69.7534959 L747.787529,69.7534959 L747.787529,60.2275009 L769.47433,60.2275009 L769.47433,84.724991 C770.627727,83.592327 771.891321,82.111151 773.265112,80.2959842 C773.963028,79.3956615 774.528706,78.7131588 774.984188,78.2629975 C775.909844,80.0781642 777.511376,83.025995 779.810824,87.1064898 C778.209292,89.3718179 774.528706,94.250986 768.791107,101.743994 C764.206906,107.639656 761.44463,111.269989 760.533667,112.634995 C758.924788,110.587487 756.735538,107.073324 753.987956,102.077985 C753.987956,102.310326 753.870412,102.077985 753.635325,101.410004 C755.707031,99.5948369 756.970625,97.8813195 757.433453,96.2984941 C758.124022,94.7156687 758.454614,92.4358193 758.454614,89.4879885 L758.454614,89.4879885 Z M791.183171,99.6964862 L791.183171,68.7370025 C791.183171,66.2393331 791.403565,64.191825 791.866393,62.6089996 C792.094134,61.926497 792.204331,61.4763356 792.204331,61.2439943 C792.204331,60.7938329 791.513762,60.5614916 790.147317,60.5614916 L780.163455,60.5614916 L780.163455,99.6964862 L773.963028,99.6964862 L773.963028,109.237003 L827.335186,109.237003 L827.335186,99.6964862 L808.733905,99.6964862 L808.733905,75.1989961 L823.206466,75.1989961 L823.206466,65.3244891 L808.733905,65.3244891 L808.733905,49.6704912 L825.954048,49.6704912 L825.954048,40.1444962 L778.77497,40.1444962 L778.77497,49.6704912 L797.714189,49.6704912 L797.714189,99.6964862 L791.183171,99.6964862 Z M755.023809,40.1444962 C758.454614,46.7226605 760.871605,52.1681606 762.252743,56.4809968 C767.755254,54.66583 771.553383,53.3008247 773.617743,52.400502 C771.553383,45.3576551 769.356786,39.9121549 767.064685,36.0640014 L755.023809,40.1444962 Z M661.958633,69.4049839 L649.91041,69.4049839 L649.91041,59.5449982 L673.316287,59.5449982 L673.316287,85.7414844 C676.761785,82.3434923 679.869345,78.9455002 682.609581,75.5329867 C683.542584,78.9455002 685.144116,82.111151 687.42887,85.073503 C677.797638,94.599498 669.540198,103.109 662.641855,110.587487 C658.285394,104.691825 655.758206,101.061492 655.060291,99.6964862 C655.060291,99.6964862 655.295378,99.4786662 655.758206,99.0285048 C659.87958,95.6159914 661.958633,92.1018286 661.958633,88.4714952 L661.958633,69.4049839 Z M668.489651,55.4645034 C666.204897,48.8718179 663.677709,43.8910004 660.930126,40.4784869 C664.603365,39.1280029 668.151713,37.6468268 671.589865,36.0640014 C674.572535,41.0448189 677.099723,46.0401578 679.17143,51.0354966 C674.814969,53.0684833 671.251927,54.5496594 668.489651,55.4645034 L668.489651,55.4645034 Z M694.327212,58.5139835 C695.017781,82.5758336 687.098279,98.7961635 670.568705,107.189494 C674.462338,109.454823 677.562551,111.734672 679.869345,114 C692.255506,105.374328 699.837071,95.16583 702.599346,83.3599857 C705.582016,96.5308354 712.120381,106.623162 722.214441,113.651488 C722.449528,113.433668 722.677269,112.968985 722.90501,112.301004 C725.667285,108.205988 727.95204,105.258157 729.788659,103.44299 C714.867963,93.0021513 707.301092,77.5804948 707.058658,57.1634995 L707.058658,43.8910004 C707.058658,42.525995 707.183548,40.9431696 707.418635,39.1280029 C707.631683,37.7629975 707.756573,36.8481535 707.756573,36.3979921 C707.984314,35.7154894 704.773903,35.3814987 698.117995,35.3814987 L694.327212,35.3814987 L694.327212,58.5139835 Z M609.872108,94.250986 L603.333743,95.2820007 C603.098656,94.599498 602.635828,92.2179993 601.952606,88.1375045 C600.571468,81.7771603 599.542961,77.0141628 598.852392,73.8339907 C600.689011,73.6161707 603.436594,73.2676587 607.109833,72.8174973 C606.647005,72.8174973 607.006982,72.7013266 608.145686,72.4689853 C608.373427,73.3838293 608.608514,74.632664 608.843601,76.2154894 C609.982305,81.8933309 610.900615,85.9738257 611.591184,88.4714952 C612.046666,87.3388311 612.51684,85.7414844 612.972322,83.7084977 C614.353459,78.7131588 615.492163,74.9666547 616.410473,72.4689853 C623.066382,74.284152 626.73962,75.4313374 627.430189,75.8814987 C623.52921,84.507171 620.201255,93.118322 617.453673,101.743994 L630.185118,101.743994 L630.185118,111.269989 L585.423031,111.269989 L585.423031,101.743994 L607.462464,101.743994 C608.373427,99.4786662 609.181539,96.9809968 609.872108,94.250986 L609.872108,94.250986 Z M586.106254,75.8814987 C590.007233,74.5164934 592.879706,73.71782 594.716325,73.5 C597.25086,80.9784869 599.087479,88.5876658 600.226183,96.2984941 C599.763355,96.5308354 596.677835,97.3149875 590.932889,98.6799928 C589.331357,90.9691646 587.715132,83.3599857 586.106254,75.8814987 L586.106254,75.8814987 Z M550.644807,89.1539978 C558.894901,88.7038365 565.793244,87.9051631 571.303102,86.7724991 C571.538189,90.8529939 571.64104,93.8008247 571.64104,95.6159914 C570.494989,95.8483327 568.540826,96.2984941 565.793244,96.9809968 C558.446766,98.5638222 553.745021,99.5948369 551.673314,100.044998 C551.438227,99.1301542 551.217833,97.2133381 550.982745,94.250986 C550.762351,91.7678379 550.644807,90.0543205 550.644807,89.1539978 L550.644807,89.1539978 Z M597.133316,61.2439943 C600.115986,57.8460022 602.635828,54.2156687 604.700188,50.3529939 C604.935275,50.8031553 605.508301,51.6018286 606.433957,52.7344926 C609.181539,56.5971674 611.47364,59.4288275 613.31026,61.2439943 L597.133316,61.2439943 Z M619.855971,67.0234851 C623.301469,69.3033345 625.476026,70.6538186 626.401682,71.1185013 C628.928871,65.8908211 631.103428,62.2604876 632.940047,60.2275009 C623.301469,56.8149875 615.830101,50.4691646 610.562677,41.1609896 C610.320243,40.9431696 610.562677,40.1444962 611.245899,38.7867515 C611.708728,37.8791682 611.943815,37.4144855 611.943815,37.4144855 C610.562677,36.9715848 608.035489,36.2818214 604.36225,35.3814987 C601.599975,34.6989961 599.660505,34.2488347 598.514454,34.0164934 C595.289351,47.1728218 589.904383,56.4809968 582.322818,61.926497 L583.013387,39.7959842 L552.363883,39.7959842 L552.363883,49.3365005 L572.676893,49.3365005 C572.449152,57.7298315 572.111214,66.0069918 571.64104,74.1825027 L566.483813,74.1825027 C566.704207,72.367336 566.939294,69.4049839 567.167035,65.3244891 C567.394776,61.2439943 567.629863,58.2961635 567.86495,56.4809968 C568.085345,55.5661527 568.320432,54.66583 568.540826,53.750986 L568.540826,53.0684833 C568.085345,52.400502 567.291925,52.05199 566.131182,52.05199 C563.383599,51.83417 560.393583,51.7179993 557.183172,51.7179993 C556.948085,62.3766583 556.610147,72.8174973 556.154665,83.025995 L574.403315,83.025995 C574.403315,87.7889925 574.168228,92.55199 573.712746,97.3149875 C573.712746,100.50242 573.014831,102.426497 571.64104,103.109 C570.730077,103.791502 567.629863,104.009322 562.355092,103.791502 C563.030968,105.374328 563.839081,107.639656 564.764737,110.587487 C564.985131,111.734672 565.220219,112.634995 565.455306,113.317497 C572.801783,113.085156 577.723923,112.184833 580.251111,110.587487 C583.013387,109.004661 584.394525,106.05683 584.394525,101.743994 L585.423031,73.8339907 L581.632249,73.8339907 L581.98488,66.3555038 C585.187944,69.5211545 586.90702,71.0023306 587.142107,70.7699892 L590.242321,68.0544998 L590.242321,69.7534959 L619.855971,69.7534959 L619.855971,67.0234851 Z M518.526008,101.743994 L530.926862,101.743994 L530.926862,110.587487 L477.547357,110.587487 L477.547357,101.743994 L507.866269,101.743994 C510.606505,95.16583 512.898606,85.1751524 514.735226,71.8010039 C515.2054,71.3363213 519.334121,72.018824 527.13608,73.8339907 C527.591561,74.066332 527.709105,74.4003227 527.488711,74.850484 C523.580385,85.2913231 520.597715,94.250986 518.526008,101.743994 L518.526008,101.743994 Z M518.18807,66.0069918 L518.18807,68.7370025 L491.329349,68.7370025 L491.329349,66.0069918 C489.257642,68.5046612 487.083085,70.7699892 484.776291,72.8174973 C481.573227,69.8696665 478.575864,67.7059878 475.828281,66.3555038 C485.011378,59.7628182 491.674633,49.2203299 495.803354,34.6989961 C504.758709,35.1564181 509.004973,35.4976694 508.534799,35.7154894 C509.004973,36.1656508 509.004973,36.6303335 508.534799,37.0804948 C508.314405,37.5306561 508.204207,38.0969882 508.204207,38.7867515 C515.99882,50.1206526 524.270953,57.1634995 532.998569,59.8789889 C530.47138,63.2915023 528.524564,67.1396558 527.13608,71.4597526 C524.608891,70.7699892 521.633568,68.9548225 518.18807,66.0069918 L518.18807,66.0069918 Z M484.438353,77.2465041 L494.084278,75.1989961 C495.002587,78.5969882 496.266182,85.6398351 497.867714,96.2984941 L488.236482,98.3460022 C487.303479,89.4879885 486.039885,82.459663 484.438353,77.2465041 L484.438353,77.2465041 Z M509.915937,93.2344926 C509.004973,84.6088204 507.866269,77.8128361 506.477785,72.8174973 L497.177145,75.1989961 C498.558283,79.7296522 499.821877,86.5401578 500.975274,95.6159914 L509.915937,93.2344926 Z M495.803354,60.2275009 C497.639973,57.7298315 500.042271,53.533166 503.024941,47.6229831 C504.193031,50.5853352 506.69818,54.4334887 510.606505,59.2037469 C510.841593,59.6611689 511.061987,59.9951596 511.297074,60.2275009 L495.803354,60.2275009 Z M482.028708,60.5614916 L482.028708,52.05199 L473.425983,52.05199 L473.425983,40.8269989 C473.425983,39.4619935 473.639031,38.2131588 474.109206,37.0804948 C474.3296,36.6303335 474.447144,36.2818214 474.447144,36.0640014 C474.226749,35.1564181 472.272586,34.6989961 468.599348,34.6989961 L463.780058,34.6989961 L463.780058,52.05199 L453.105627,52.05199 L453.105627,60.5614916 L462.04629,60.5614916 C459.754189,70.5521692 456.08095,80.0781642 451.026574,89.1539978 C453.788849,90.7368232 456.653975,92.6681606 459.643992,94.9334887 C459.871733,94.033166 460.452104,92.7843313 461.370414,91.1869846 C462.288724,88.4714952 463.08949,86.2061671 463.780058,84.3910004 L463.780058,113.651488 L473.425983,113.651488 L473.425983,78.5969882 C473.874118,79.2794909 474.3296,80.2959842 474.807121,81.6609896 C475.020169,83.025995 475.3728,84.0424883 475.828281,84.724991 L483.747784,81.3269989 L479.273779,70.0874866 L473.425983,72.4689853 L473.425983,60.5614916 L482.028708,60.5614916 Z M399.990595,78.5969882 C401.827215,81.0946576 403.538944,83.7084977 405.147822,86.4239871 L398.271519,86.4239871 L398.271519,75.1989961 L405.147822,75.1989961 L399.990595,78.5969882 Z M373.124527,66.6894944 L387.251803,66.6894944 L387.251803,59.2037469 L371.750736,59.2037469 L371.750736,50.6869846 L415.139032,50.6869846 L415.139032,59.2037469 L398.271519,59.2037469 L398.271519,66.6894944 L413.757894,66.6894944 L413.757894,75.1989961 L409.629174,75.1989961 C412.391449,79.7296522 413.985635,82.3434923 414.441116,83.025995 L409.291236,86.4239871 L415.822254,86.4239871 L415.822254,95.2820007 L371.060167,95.2820007 L371.060167,86.4239871 L387.251803,86.4239871 L387.251803,75.1989961 L373.124527,75.1989961 L373.124527,66.6894944 Z M368.643176,100.378989 L418.231899,100.378989 L418.231899,45.5972571 L368.643176,45.5972571 L368.643176,100.378989 Z M357.630806,113.651488 L368.643176,113.651488 L368.643176,109.237003 L418.231899,109.237003 L418.231899,112.968985 L429.589553,112.968985 L429.589553,36.3979921 L357.630806,36.3979921 L357.630806,113.651488 Z M300.724992,75.5329867 L317.945135,75.5329867 L317.945135,60.5614916 L300.724992,60.5614916 L300.724992,75.5329867 Z M271.44928,75.5329867 L288.316792,75.5329867 L288.316792,60.5614916 L271.44928,60.5614916 L271.44928,75.5329867 Z M259.746341,90.8529939 L271.44928,90.8529939 L271.44928,84.724991 L288.324139,84.724991 L288.324139,114 L300.724992,114 L300.724992,84.724991 L317.945135,84.724991 L317.945135,89.8365005 L330.683927,89.8365005 L330.683927,51.0354966 L300.724992,51.0354966 L300.724992,42.525995 C300.724992,40.0283256 301.06293,37.8791682 301.753499,36.0640014 C301.988587,35.5993188 302.10613,35.2653281 302.10613,35.0329867 C302.10613,34.8151667 301.298018,34.5828254 299.696486,34.350484 L287.986201,34.350484 L287.986201,51.0354966 L259.746341,51.0354966 L259.746341,90.8529939 Z" id="Fill-3" fill="#231916"></path>
                <path d="M1008.4795,146.096138 L1014.84349,146.096138 C1016.94523,146.096138 1018.43702,145.718707 1019.32621,144.963846 C1020.20071,144.201863 1020.64163,143.133662 1020.64163,141.759244 C1020.64163,140.755136 1020.38443,139.907697 1019.86267,139.195563 C1019.34826,138.483429 1018.66483,138.020542 1017.81238,137.785538 C1017.26122,137.650233 1016.25445,137.579019 1014.77,137.579019 L1008.4795,137.579019 L1008.4795,146.096138 Z M1005.23136,158.601205 L1005.23136,134.766091 L1014.50545,134.766091 C1016.13687,134.766091 1017.38615,134.844426 1018.24595,134.993974 C1019.45114,135.18625 1020.46526,135.563681 1021.28097,136.112024 C1022.10403,136.653246 1022.75072,137.42235 1023.25778,138.405094 C1023.75014,139.39496 1024,140.477403 1024,141.659545 C1024,143.689126 1023.33127,145.405368 1022.0085,146.808272 C1020.67103,148.204054 1018.268,148.916187 1014.79205,148.916187 L1008.4795,148.916187 L1008.4795,158.601205 L1005.23136,158.601205 Z M996.552521,134.766091 L999.808005,134.766091 L999.808005,148.538757 C999.808005,150.931526 999.528754,152.832922 998.970251,154.242947 C998.411748,155.652972 997.397624,156.792386 995.942577,157.675431 C994.48753,158.565598 992.569513,159 990.203225,159 C987.895726,159 986.007104,158.622569 984.544708,157.846343 C983.082313,157.08436 982.031445,155.966311 981.406804,154.513558 C980.774814,153.053684 980.466167,151.066831 980.466167,148.538757 L980.466167,134.766091 L983.729,134.766091 L983.729,148.524514 C983.729,150.589701 983.920067,152.120789 984.316898,153.096412 C984.713729,154.079156 985.39716,154.834018 986.359843,155.368118 C987.329874,155.895097 988.513019,156.165708 989.916625,156.165708 C992.304959,156.165708 994.009863,155.631608 995.031336,154.57765 C996.052808,153.530813 996.552521,151.515475 996.552521,148.524514 L996.552521,134.766091 Z M956.06106,147.043276 C956.06106,149.913174 956.86207,152.17776 958.449394,153.822788 C960.044067,155.48206 962.050268,156.308135 964.453301,156.308135 C966.900425,156.308135 968.913975,155.474938 970.493951,153.808546 C972.081275,152.135031 972.874937,149.763626 972.874937,146.69433 C972.874937,144.764448 972.529547,143.06957 971.860813,141.623939 C971.177382,140.171186 970.185304,139.053136 968.884581,138.248425 C967.583857,137.457957 966.121461,137.059162 964.504742,137.059162 C962.197243,137.059162 960.220437,137.821145 958.552277,139.359354 C956.891465,140.897562 956.06106,143.454122 956.06106,147.043276 L956.06106,147.043276 Z M952.710042,146.986305 C952.710042,143.033963 953.805002,139.936182 955.994921,137.700082 C958.18484,135.463982 961.014099,134.345933 964.490044,134.345933 C966.753451,134.345933 968.803745,134.872912 970.626228,135.919748 C972.448711,136.973706 973.83762,138.440701 974.792953,140.320734 C975.748287,142.200767 976.218606,144.330047 976.218606,146.708573 C976.218606,149.136949 975.726241,151.294714 974.719466,153.203232 C973.712691,155.11175 972.27969,156.55026 970.44251,157.533005 C968.590632,158.515749 966.606476,159 964.467998,159 C962.145802,159 960.080811,158.4659 958.258328,157.376335 C956.435844,156.293892 955.054285,154.812654 954.120997,152.939743 C953.18036,151.066831 952.710042,149.079978 952.710042,146.986305 L952.710042,146.986305 Z M932.192409,145.291427 L939.188392,145.291427 C940.665486,145.291427 941.841281,145.141879 942.679036,144.835661 C943.51679,144.536565 944.156129,144.059436 944.589704,143.411394 C945.023278,142.756231 945.24374,142.044098 945.24374,141.267872 C945.24374,140.142701 944.824863,139.216927 943.97976,138.490551 C943.127308,137.764174 941.804538,137.400986 939.974706,137.400986 L932.192409,137.400986 L932.192409,145.291427 Z M928.944273,158.601205 L928.944273,134.766091 L939.842429,134.766091 C942.032348,134.766091 943.700508,134.986853 944.83956,135.414133 C945.978612,135.841413 946.889854,136.596275 947.580634,137.671597 C948.256716,138.761161 948.602106,139.957546 948.602106,141.267872 C948.602106,142.96275 948.028906,144.387017 946.904551,145.540674 C945.772848,146.701452 944.023852,147.442071 941.664912,147.755409 C942.532061,148.161326 943.186098,148.552999 943.63437,148.944673 C944.582355,149.792112 945.486248,150.84607 946.3387,152.113667 L950.608307,158.601205 L946.515069,158.601205 L943.266934,153.637634 C942.3116,152.213366 941.532635,151.11668 940.915342,150.361819 C940.305398,149.599836 939.746895,149.065735 939.26188,148.766639 C938.784213,148.460422 938.2845,148.253903 937.777438,148.125719 C937.410002,148.054506 936.807406,148.018899 935.969652,148.018899 L932.192409,148.018899 L932.192409,158.601205 L928.944273,158.601205 Z M913.673628,149.25089 L913.673628,146.459326 L924.094116,146.445084 L924.094116,155.282662 C922.492095,156.514654 920.845981,157.447549 919.141077,158.074226 C917.443522,158.693783 915.694526,159 913.908787,159 C911.498406,159 909.293789,158.501506 907.324331,157.504519 C905.354874,156.500411 903.863083,155.047658 902.856308,153.153383 C901.842184,151.259107 901.342471,149.136949 901.342471,146.80115 C901.342471,144.479595 901.842184,142.314708 902.848959,140.306491 C903.848386,138.291153 905.288735,136.795672 907.162659,135.820049 C909.043932,134.851548 911.211806,134.367297 913.65893,134.367297 C915.429972,134.367297 917.046691,134.637907 918.479692,135.200493 C919.912693,135.755957 921.044396,136.532183 921.860105,137.52917 C922.675813,138.533279 923.293105,139.829362 923.72668,141.431663 L920.779842,142.21501 C920.419755,140.997261 919.956785,140.043002 919.41298,139.352232 C918.861826,138.661463 918.075512,138.098877 917.061389,137.685839 C916.047265,137.272802 914.915562,137.059162 913.673628,137.059162 C912.181837,137.059162 910.903159,137.279923 909.815548,137.721446 C908.727937,138.155848 907.860788,138.732676 907.192054,139.451931 C906.523321,140.164065 906.00891,140.947412 905.634125,141.809093 C905.016832,143.276089 904.700837,144.878389 904.700837,146.601753 C904.700837,148.731033 905.075622,150.504245 905.832541,151.935634 C906.589459,153.367023 907.684419,154.428102 909.124768,155.118872 C910.572467,155.816763 912.101001,156.165708 913.71772,156.165708 C915.136023,156.165708 916.510235,155.895097 917.847702,155.368118 C919.199867,154.848261 920.206642,154.285675 920.897422,153.687483 L920.897422,149.25089 L913.673628,149.25089 Z M867.780855,158.601205 L867.780855,134.766091 L871.117175,134.766091 L884.028881,153.480964 L884.028881,134.766091 L887.152088,134.766091 L887.152088,158.601205 L883.815768,158.601205 L870.896713,139.87209 L870.896713,158.601205 L867.780855,158.601205 Z M843.456583,147.043276 C843.456583,149.913174 844.250245,152.17776 845.844918,153.822788 C847.439591,155.48206 849.431095,156.308135 851.848824,156.308135 C854.295949,156.308135 856.309499,155.474938 857.889474,153.808546 C859.46945,152.135031 860.263112,149.763626 860.263112,146.69433 C860.263112,144.764448 859.917722,143.06957 859.241639,141.623939 C858.572906,140.171186 857.580828,139.053136 856.280104,138.248425 C854.972031,137.457957 853.516984,137.059162 851.892917,137.059162 C849.585418,137.059162 847.601263,137.821145 845.9478,139.359354 C844.27964,140.897562 843.456583,143.454122 843.456583,147.043276 L843.456583,147.043276 Z M840.098217,146.986305 C840.098217,143.033963 841.193177,139.936182 843.383096,137.700082 C845.580364,135.463982 848.409622,134.345933 851.870871,134.345933 C854.148975,134.345933 856.191919,134.872912 858.014403,135.919748 C859.836886,136.973706 861.225794,138.440701 862.188477,140.320734 C863.143811,142.200767 863.614129,144.330047 863.614129,146.708573 C863.614129,149.136949 863.121765,151.294714 862.107641,153.203232 C861.100866,155.11175 859.675214,156.55026 857.830685,157.533005 C855.986155,158.515749 854.002,159 851.863522,159 C849.541325,159 847.476334,158.4659 845.653851,157.376335 C843.831368,156.293892 842.442459,154.812654 841.501823,152.939743 C840.568535,151.066831 840.098217,149.079978 840.098217,146.986305 L840.098217,146.986305 Z M832.102807,158.601205 L835.350942,158.601205 L835.350942,134.766091 L832.102807,134.766091 L832.102807,158.601205 Z M816.817464,158.601205 L816.817464,137.579019 L808.711823,137.579019 L808.711823,134.766091 L828.207984,134.766091 L828.207984,137.579019 L820.065599,137.579019 L820.065599,158.601205 L816.817464,158.601205 Z M803.295814,150.247877 L806.551298,151.038346 C805.875216,153.630512 804.64063,155.603122 802.869588,156.970419 C801.091197,158.323473 798.930673,159 796.365969,159 C793.71308,159 791.559904,158.480142 789.899093,157.440427 C788.238282,156.393591 786.974301,154.876746 786.107152,152.897015 C785.247351,150.910162 784.806428,148.773761 784.806428,146.502054 C784.806428,144.023829 785.298793,141.858943 786.283521,140.014517 C787.253553,138.162969 788.64981,136.760066 790.457596,135.798685 C792.258033,134.837305 794.249537,134.367297 796.41741,134.367297 C798.879232,134.367297 800.951572,134.965489 802.619732,136.183237 C804.302589,137.393865 805.471036,139.102985 806.132421,141.303478 L802.928378,142.036976 C802.355178,140.29937 801.532121,139.038893 800.437161,138.248425 C799.356899,137.457957 797.997385,137.059162 796.351271,137.059162 C794.455301,137.059162 792.882674,137.493563 791.611345,138.376609 C790.340016,139.259655 789.443472,140.434675 788.943759,141.915913 C788.429348,143.39003 788.172143,144.913996 788.172143,146.487812 C788.172143,148.517392 788.473441,150.283484 789.083385,151.793207 C789.693329,153.302931 790.633965,154.435223 791.919992,155.190085 C793.213367,155.937825 794.602275,156.308135 796.101415,156.308135 C797.923898,156.308135 799.46713,155.795399 800.73111,154.784169 C801.99509,153.758696 802.847542,152.248973 803.295814,150.247877 L803.295814,150.247877 Z M762.907235,158.601205 L762.907235,134.766091 L780.683795,134.766091 L780.683795,137.579019 L766.15537,137.579019 L766.15537,144.878389 L779.765204,144.878389 L779.765204,147.677075 L766.15537,147.677075 L766.15537,155.781156 L781.256995,155.781156 L781.256995,158.601205 L762.907235,158.601205 Z M743.168566,146.096138 L749.539908,146.096138 C751.634294,146.096138 753.133434,145.718707 754.01528,144.963846 C754.889778,144.201863 755.33805,143.133662 755.33805,141.759244 C755.33805,140.755136 755.080845,139.907697 754.551737,139.195563 C754.037327,138.483429 753.353895,138.020542 752.501444,137.785538 C751.957638,137.650233 750.943514,137.579019 749.466421,137.579019 L743.168566,137.579019 L743.168566,146.096138 Z M739.92043,158.601205 L739.92043,134.766091 L749.194518,134.766091 C750.825935,134.766091 752.075218,134.844426 752.942367,134.993974 C754.147557,135.18625 755.154332,135.563681 755.977389,136.112024 C756.793098,136.653246 757.447134,137.42235 757.946847,138.405094 C758.44656,139.39496 758.696417,140.477403 758.696417,141.659545 C758.696417,143.689126 758.027683,145.405368 756.697564,146.808272 C755.367445,148.204054 752.964413,148.916187 749.488467,148.916187 L743.168566,148.916187 L743.168566,158.601205 L739.92043,158.601205 Z M715.904805,150.945768 L718.976571,150.682279 C719.116197,151.878663 719.454238,152.847165 719.983346,153.61627 C720.512454,154.385374 721.34286,154.997809 722.459866,155.467817 C723.569523,155.937825 724.833503,156.172829 726.237109,156.172829 C727.479043,156.172829 728.566654,155.994796 729.514639,155.638729 C730.469973,155.282662 731.182799,154.79129 731.63842,154.171734 C732.108738,153.545056 732.343897,152.868529 732.343897,152.12791 C732.343897,151.38017 732.123436,150.732128 731.667815,150.169543 C731.219543,149.614078 730.477322,149.14407 729.455849,148.766639 C728.787116,148.517392 727.332069,148.125719 725.08336,147.59874 C722.819953,147.071761 721.232629,146.580389 720.328736,146.110381 C719.15294,145.51931 718.278442,144.778691 717.705242,143.895645 C717.132042,143.012599 716.838093,142.022733 716.838093,140.926048 C716.838093,139.729663 717.190831,138.604492 717.896309,137.557655 C718.601786,136.510819 719.630607,135.713229 720.982772,135.172008 C722.342286,134.637907 723.841425,134.367297 725.494888,134.367297 C727.317371,134.367297 728.926741,134.645029 730.31565,135.214736 C731.711907,135.784443 732.777472,136.617639 733.534391,137.728568 C734.28396,138.825253 734.680791,140.08573 734.739581,141.481512 L731.616374,141.709395 C731.447353,140.206793 730.881502,139.060257 729.918819,138.298274 C728.948788,137.522049 727.523135,137.144618 725.634514,137.144618 C723.657707,137.144618 722.232055,137.493563 721.328162,138.191454 C720.431618,138.889345 719.968649,139.736784 719.968649,140.719529 C719.968649,141.574089 720.291992,142.279102 720.931331,142.827445 C721.563321,143.382909 723.194738,143.952616 725.832929,144.529444 C728.478469,145.113394 730.300953,145.619008 731.278333,146.05341 C732.718682,146.687209 733.76955,147.506163 734.452981,148.474664 C735.136412,149.46453 735.474453,150.589701 735.474453,151.871542 C735.474453,153.13914 735.099668,154.328403 734.350099,155.453574 C733.600529,156.571624 732.527616,157.447549 731.12401,158.074226 C729.713055,158.693783 728.140428,159 726.384083,159 C724.164769,159 722.298194,158.693783 720.799054,158.059984 C719.285217,157.433306 718.102073,156.49329 717.249621,155.225692 C716.397169,153.965215 715.941549,152.533826 715.904805,150.945768 L715.904805,150.945768 Z M692.161082,158.601205 L692.161082,134.766091 L695.504751,134.766091 L708.423805,153.480964 L708.423805,134.766091 L711.539664,134.766091 L711.539664,158.601205 L708.203344,158.601205 L695.284289,139.87209 L695.284289,158.601205 L692.161082,158.601205 Z M683.202989,158.601205 L686.451125,158.601205 L686.451125,134.766091 L683.202989,134.766091 L683.202989,158.601205 Z M658.724394,152.911257 C657.342835,150.810463 656.064157,149.222405 654.888361,148.161326 C653.719914,147.086004 652.228124,146.224322 650.427687,145.562038 C648.605203,146.274171 647.30448,147.107368 646.518166,148.054506 C645.739202,149.008765 645.342371,150.183785 645.342371,151.586689 C645.342371,153.060805 645.86413,154.20734 646.907649,155.047658 C647.943818,155.887976 649.295983,156.308135 650.971492,156.308135 C654.035909,156.308135 656.615311,155.175842 658.724394,152.911257 L658.724394,152.911257 Z M651.015584,142.877294 C653.910981,141.915913 655.35868,140.491646 655.35868,138.618735 C655.35868,137.657354 655.027987,136.88825 654.373951,136.318543 C653.712566,135.748836 652.889509,135.463982 651.919477,135.463982 C650.758379,135.463982 649.839789,135.7702 649.156358,136.389756 C648.472926,136.99507 648.134885,137.79266 648.134885,138.789647 C648.134885,140.491646 649.097568,141.858943 651.015584,142.877294 L651.015584,142.877294 Z M660.274975,155.190085 C657.717619,157.732402 654.601761,159 650.934749,159 C648.201024,159 646.040499,158.35908 644.431129,157.062996 C642.821759,155.766913 642.028097,153.979458 642.028097,151.707751 C642.028097,148.282388 644.034298,145.73295 648.061398,144.052314 C646.047848,142.563955 645.048422,140.804985 645.048422,138.768283 C645.048422,137.009313 645.673063,135.613531 646.944392,134.559573 C648.201024,133.519858 649.861835,133 651.919477,133 C653.85954,133 655.424818,133.491372 656.630009,134.488359 C657.82785,135.478225 658.430446,136.767187 658.430446,138.362366 C658.430446,140.961654 656.784332,142.912901 653.492104,144.208984 C655.99067,145.141879 658.356958,147.264037 660.59097,150.568337 C662.553079,147.954807 663.530459,144.878389 663.530459,141.339085 C663.530459,140.484525 663.420228,139.686935 663.199767,138.910709 L666.308276,138.910709 C666.484646,139.565872 666.565481,140.342098 666.565481,141.253629 C666.565481,143.147905 666.183348,145.141879 665.419081,147.214188 C664.647465,149.286497 663.5819,151.209258 662.222386,152.975349 C663.148325,154.200219 663.92729,155.033416 664.55928,155.489181 C665.19127,155.937825 665.918794,156.165708 666.734502,156.165708 C667.403236,156.165708 668.196898,155.987675 669.115488,155.638729 L669.115488,158.480142 C668.174852,158.829088 667.20482,159 666.198045,159 C665.139829,159 664.191844,158.764996 663.35409,158.287866 C662.508987,157.810737 661.480165,156.778143 660.274975,155.190085 L660.274975,155.190085 Z M607.584634,158.601205 L607.584634,134.766091 L610.920954,134.766091 L623.840008,153.480964 L623.840008,134.766091 L626.963215,134.766091 L626.963215,158.601205 L623.626895,158.601205 L610.707841,139.87209 L610.707841,158.601205 L607.584634,158.601205 Z M583.267711,147.043276 C583.267711,149.913174 584.061373,152.17776 585.656046,153.822788 C587.250718,155.48206 589.249571,156.308135 591.652603,156.308135 C594.099728,156.308135 596.120627,155.474938 597.700602,153.808546 C599.280577,152.135031 600.074239,149.763626 600.074239,146.69433 C600.074239,144.764448 599.736198,143.06957 599.052767,141.623939 C598.376684,140.171186 597.391956,139.053136 596.091232,138.248425 C594.783159,137.457957 593.328112,137.059162 591.704044,137.059162 C589.403894,137.059162 587.41239,137.821145 585.758928,139.359354 C584.090768,140.897562 583.267711,143.454122 583.267711,147.043276 L583.267711,147.043276 Z M579.909345,146.986305 C579.909345,143.033963 581.004304,139.936182 583.194224,137.700082 C585.391492,135.463982 588.22075,134.345933 591.681998,134.345933 C593.960102,134.345933 596.003047,134.872912 597.82553,135.919748 C599.648014,136.973706 601.044271,138.440701 601.999605,140.320734 C602.94759,142.200767 603.425257,144.330047 603.425257,146.708573 C603.425257,149.136949 602.925544,151.294714 601.918769,153.203232 C600.911994,155.11175 599.486342,156.55026 597.641812,157.533005 C595.797283,158.515749 593.805779,159 591.667301,159 C589.352453,159 587.287462,158.4659 585.464979,157.376335 C583.635147,156.293892 582.253587,154.812654 581.320299,152.939743 C580.379663,151.066831 579.909345,149.079978 579.909345,146.986305 L579.909345,146.986305 Z M571.913934,158.601205 L575.16207,158.601205 L575.16207,134.766091 L571.913934,134.766091 L571.913934,158.601205 Z M556.628591,158.601205 L559.876727,158.601205 L559.876727,137.579019 L568.019111,137.579019 L568.019111,134.766091 L548.530299,134.766091 L548.530299,137.579019 L556.628591,137.579019 L556.628591,158.601205 Z M534.398706,148.809367 L542.739506,148.809367 L540.167453,142.21501 C539.388488,140.213914 538.807939,138.561764 538.425806,137.272802 C538.117159,138.803889 537.676236,140.313613 537.095687,141.823336 L534.398706,148.809367 Z M527.29984,158.601205 L536.750297,134.766091 L540.255637,134.766091 L550.323387,158.601205 L546.612283,158.601205 L543.738932,151.38017 L533.458069,151.38017 L530.761088,158.601205 L527.29984,158.601205 Z M522.736283,150.247877 L525.999116,151.038346 C525.315684,153.630512 524.081099,155.603122 522.317406,156.970419 C520.539015,158.323473 518.37849,159 515.813786,159 C513.160897,159 511.007722,158.480142 509.34691,157.440427 C507.686099,156.393591 506.422119,154.876746 505.554969,152.897015 C504.695169,150.910162 504.254245,148.773761 504.254245,146.502054 C504.254245,144.023829 504.74661,141.858943 505.72399,140.014517 C506.70137,138.162969 508.090279,136.760066 509.905413,135.798685 C511.70585,134.837305 513.690005,134.367297 515.857878,134.367297 C518.327049,134.367297 520.39204,134.965489 522.067549,136.183237 C523.750406,137.393865 524.918853,139.102985 525.57289,141.303478 L522.376195,142.036976 C521.802995,140.29937 520.979938,139.038893 519.892327,138.248425 C518.804716,137.457957 517.445203,137.059162 515.79174,137.059162 C513.903118,137.059162 512.330492,137.493563 511.059163,138.376609 C509.787834,139.259655 508.898638,140.434675 508.384228,141.915913 C507.869817,143.39003 507.612612,144.913996 507.612612,146.487812 C507.612612,148.517392 507.913909,150.283484 508.523853,151.793207 C509.133797,153.302931 510.081782,154.435223 511.367809,155.190085 C512.653835,155.937825 514.050093,156.308135 515.549232,156.308135 C517.364367,156.308135 518.907598,155.795399 520.171579,154.784169 C521.442908,153.758696 522.295359,152.248973 522.736283,150.247877 L522.736283,150.247877 Z M496.207394,158.601205 L499.45553,158.601205 L499.45553,134.766091 L496.207394,134.766091 L496.207394,158.601205 Z M474.82996,158.601205 L474.82996,134.766091 L491.423376,134.766091 L491.423376,137.579019 L478.092793,137.579019 L478.092793,144.963846 L489.630287,144.963846 L489.630287,147.769652 L478.092793,147.769652 L478.092793,158.601205 L474.82996,158.601205 Z M465.673452,158.601205 L468.928936,158.601205 L468.928936,134.766091 L465.673452,134.766091 L465.673452,158.601205 Z M450.395458,158.601205 L450.395458,137.579019 L442.297165,137.579019 L442.297165,134.766091 L461.778629,134.766091 L461.778629,137.579019 L453.650942,137.579019 L453.650942,158.601205 L450.395458,158.601205 Z M423.249276,145.291427 L430.24526,145.291427 C431.729702,145.291427 432.898149,145.141879 433.735903,144.835661 C434.573658,144.536565 435.212997,144.059436 435.646571,143.411394 C436.080146,142.756231 436.300608,142.044098 436.300608,141.267872 C436.300608,140.142701 435.88173,139.216927 435.029279,138.490551 C434.191524,137.764174 432.854057,137.400986 431.031573,137.400986 L423.249276,137.400986 L423.249276,145.291427 Z M419.993792,158.601205 L419.993792,134.766091 L430.899296,134.766091 C433.089216,134.766091 434.757376,134.986853 435.896428,135.414133 C437.03548,135.841413 437.946721,136.596275 438.637501,137.671597 C439.313584,138.761161 439.651625,139.957546 439.651625,141.267872 C439.651625,142.96275 439.093122,144.387017 437.961419,145.540674 C436.829716,146.701452 435.08072,147.442071 432.72178,147.755409 C433.588929,148.161326 434.242965,148.552999 434.683889,148.944673 C435.639223,149.792112 436.535767,150.84607 437.395567,152.113667 L441.672524,158.601205 L437.579285,158.601205 L434.323801,153.637634 C433.368467,152.213366 432.589503,151.11668 431.97221,150.361819 C431.354917,149.599836 430.811112,149.065735 430.318747,148.766639 C429.833732,148.460422 429.341367,148.253903 428.834305,148.125719 C428.466869,148.054506 427.864274,148.018899 427.019171,148.018899 L423.249276,148.018899 L423.249276,158.601205 L419.993792,158.601205 Z M397.102521,158.601205 L397.102521,134.766091 L414.879081,134.766091 L414.879081,137.579019 L400.350657,137.579019 L400.350657,144.878389 L413.960491,144.878389 L413.960491,147.677075 L400.350657,147.677075 L400.350657,155.781156 L415.452282,155.781156 L415.452282,158.601205 L397.102521,158.601205 Z M389.768496,150.247877 L393.02398,151.038346 C392.340549,153.630512 391.105964,155.603122 389.34227,156.970419 C387.563879,158.323473 385.403355,159 382.838651,159 C380.185762,159 378.032586,158.480142 376.371775,157.440427 C374.710963,156.393591 373.446983,154.876746 372.579834,152.897015 C371.720033,150.910162 371.286459,148.773761 371.286459,146.502054 C371.286459,144.023829 371.764126,141.858943 372.748855,140.014517 C373.733583,138.162969 375.115143,136.760066 376.930278,135.798685 C378.730715,134.837305 380.722219,134.367297 382.890092,134.367297 C385.351914,134.367297 387.416905,134.965489 389.092414,136.183237 C390.767922,137.393865 391.943718,139.102985 392.597754,141.303478 L389.40106,142.036976 C388.82786,140.29937 387.997454,139.038893 386.909843,138.248425 C385.829581,137.457957 384.470067,137.059162 382.816604,137.059162 C380.927983,137.059162 379.355356,137.493563 378.084027,138.376609 C376.812698,139.259655 375.916154,140.434675 375.416441,141.915913 C374.894682,143.39003 374.637476,144.913996 374.637476,146.487812 C374.637476,148.517392 374.938774,150.283484 375.548718,151.793207 C376.158662,153.302931 377.106647,154.435223 378.392673,155.190085 C379.686049,155.937825 381.074957,156.308135 382.574097,156.308135 C384.39658,156.308135 385.932463,155.795399 387.203792,154.784169 C388.467772,153.758696 389.320224,152.248973 389.768496,150.247877 L389.768496,150.247877 Z M346.050945,148.809367 L354.391745,148.809367 L351.819693,142.21501 C351.040728,140.213914 350.460179,138.561764 350.078045,137.272802 C349.769399,138.803889 349.328476,140.313613 348.755275,141.823336 L346.050945,148.809367 Z M338.959428,158.601205 L348.402537,134.766091 L351.907877,134.766091 L361.975627,158.601205 L358.264522,158.601205 L355.391172,151.38017 L345.110309,151.38017 L342.413328,158.601205 L338.959428,158.601205 Z M316.810378,158.601205 L316.810378,134.766091 L320.154047,134.766091 L333.073101,153.480964 L333.073101,134.766091 L336.18896,134.766091 L336.18896,158.601205 L332.85264,158.601205 L319.933585,139.87209 L319.933585,158.601205 L316.810378,158.601205 Z M307.859634,158.601205 L311.115118,158.601205 L311.115118,134.766091 L307.859634,134.766091 L307.859634,158.601205 Z M282.587377,158.601205 L282.587377,134.766091 L285.85021,134.766091 L285.85021,144.557929 L298.629638,144.557929 L298.629638,134.766091 L301.885122,134.766091 L301.885122,158.601205 L298.629638,158.601205 L298.629638,147.370857 L285.85021,147.370857 L285.85021,158.601205 L282.587377,158.601205 Z M275.231306,150.247877 L278.48679,151.038346 C277.803359,153.630512 276.568773,155.603122 274.80508,156.970419 C273.026689,158.323473 270.866164,159 268.30146,159 C265.648571,159 263.495396,158.480142 261.834584,157.440427 C260.173773,156.393591 258.909793,154.876746 258.042643,152.897015 C257.182843,150.910162 256.749268,148.773761 256.749268,146.502054 C256.749268,144.023829 257.226935,141.858943 258.211664,140.014517 C259.189044,138.162969 260.577953,136.760066 262.393087,135.798685 C264.193524,134.837305 266.185028,134.367297 268.352901,134.367297 C270.814723,134.367297 272.879714,134.965489 274.555223,136.183237 C276.230732,137.393865 277.406528,139.102985 278.060564,141.303478 L274.86387,142.036976 C274.290669,140.29937 273.460263,139.038893 272.380001,138.248425 C271.29239,137.457957 269.932877,137.059162 268.279414,137.059162 C266.390792,137.059162 264.818166,137.493563 263.546837,138.376609 C262.275508,139.259655 261.378964,140.434675 260.871902,141.915913 C260.357491,143.39003 260.100286,144.913996 260.100286,146.487812 C260.100286,148.517392 260.401583,150.283484 261.011527,151.793207 C261.621471,153.302931 262.569457,154.435223 263.855483,155.190085 C265.14151,155.937825 266.537767,156.308135 268.036906,156.308135 C269.859389,156.308135 271.395272,155.795399 272.666601,154.784169 C273.930582,153.758696 274.783034,152.248973 275.231306,150.247877 L275.231306,150.247877 Z" id="Fill-5" fill="#231916"></path>
            </g>
        </g>
    </g>
</svg>