<?xml version="1.0" encoding="UTF-8"?>
<svg width="1024px" height="641px" viewBox="0 0 1024 641" version="1.1" xmlns="http://www.w3.org/2000/svg" xmlns:xlink="http://www.w3.org/1999/xlink">
    <title>国航空发动机集团有限公司@2x</title>
    <defs>
        <polygon id="path-1" points="0 0 1024 0 1024 168 0 168"></polygon>
    </defs>
    <g id="页面-1" stroke="none" stroke-width="1" fill="none" fill-rule="evenodd">
        <g id="9.中国航空发动机集团有限公司" transform="translate(0.000000, -63.000000)">
            <g id="国航空发动机集团有限公司" transform="translate(0.000000, 63.000000)">
                <path d="M455.65132,108.06467 C441.705055,116.469271 431.161023,126.87864 423.932482,138.309669 C394.227997,185.238574 422.226546,244.331019 475.303314,254.056068 C502.434438,259.019795 531.897971,245.468339 544.109387,220.466577 C553.90165,200.38035 551.704174,175.580993 532.264217,158.877811 C520.428686,148.699762 503.301863,144.834802 483.380004,153.480361 C507.446226,149.96238 524.92002,162.781324 530.61611,180.747124 C539.965023,210.230697 517.354147,239.588973 485.934088,236.456524 C448.384227,232.716862 422.708449,193.373303 428.356349,157.383874 C430.871881,141.442118 439.218437,124.604 455.65132,108.06467 M505.393321,203.175459 C501.721222,205.083843 497.56722,206.153695 493.162629,206.153695 C478.464596,206.153695 466.474856,194.173282 466.474856,179.474868 C466.474856,172.236501 469.385548,165.663178 474.088919,160.853664 C465.520688,165.296922 459.651113,174.260545 459.651113,184.544616 C459.651113,199.233392 471.631215,211.223443 486.329248,211.223443 C493.779465,211.223443 500.545379,208.129547 505.393321,203.175459 M524.900744,107.910457 C510.125606,107.910457 496.314273,112.151311 484.604037,119.476422 C492.651812,116.575293 501.316424,114.994611 510.337643,114.994611 C552.340286,114.994611 586.613208,149.268422 586.613208,191.262514 C586.613208,218.500363 572.204316,242.470826 550.624712,255.974091 C580.040055,245.381594 601.176309,217.170277 601.176309,184.17836 C601.176309,142.184268 566.903386,107.910457 524.900744,107.910457 M468.93256,79.9015442 C410.641604,79.9015442 363.087442,127.456939 363.087442,185.749404 C363.087442,244.032231 410.641604,291.587626 468.93256,291.587626 C483.563127,291.587626 497.499754,288.590113 510.183434,283.192662 C502.164572,285.207068 493.779465,286.286558 485.153406,286.286558 C428.317797,286.286558 381.958753,239.926314 381.958753,183.089232 C381.958753,128.970152 424.009586,84.3448026 477.10563,80.2099699 C474.406975,80.0075656 471.679405,79.9015442 468.93256,79.9015442 M484.459466,33.6858742 C400.579475,33.6858742 332.158924,102.117836 332.158924,186 C332.158924,269.891802 400.579475,338.323764 484.459466,338.323764 C568.349094,338.323764 636.779283,269.891802 636.779283,186 C636.779283,102.117836 568.349094,33.6858742 484.459466,33.6858742 M516.004819,0 C618.438065,0 702,83.5640999 702,186 C702,288.445538 618.438065,372 516.004819,372 C413.561935,372 330,288.445538 330,186 C330,83.5640999 413.561935,0 516.004819,0" id="Fill-1" fill="#007DC7"></path>
                <g id="编组" transform="translate(0.000000, 473.000000)">
                    <mask id="mask-2" fill="white">
                        <use xlink:href="#path-1"></use>
                    </mask>
                    <g id="Clip-4"></g>
                    <path d="M882.392625,83.9874212 C881.70848,84.9356663 880.706352,86.3773859 879.376606,88.3029039 C877.353079,90.1993941 876.013697,91.6411137 875.319917,92.5893587 L909.700602,92.5893587 C915.742275,101.684771 922.814983,109.590038 930.928363,116.295486 C942.414287,107.200074 951.510522,96.4210429 958.245976,83.9874212 L882.392625,83.9874212 Z M843.993793,165.826777 L843.993793,148.584198 C868.237572,144.297743 887.788697,139.02434 902.63753,132.802691 C889.166622,123.22348 877.690334,112.463802 868.237572,100.494626 C852.068629,118.68545 825.791687,136.634375 789.377839,154.3414 L789.377839,132.076993 C824.442669,107.693548 847.009812,79.9138378 857.108175,48.8249456 L794.417384,48.8249456 L794.417384,27.9925818 C798.474074,21.2871344 801.846619,13.4205707 804.563926,4.3154827 L847.009812,4.3154827 C846.325667,5.75720226 845.333175,8.1471669 843.993793,11.4853766 C839.937104,19.6325435 836.574195,25.1188186 833.856887,27.9925818 L864.180883,27.9925818 C866.214046,20.3388893 867.890682,11.4853766 869.278243,1.44171956 L915.790454,1.44171956 C913.757292,10.5371315 911.386874,19.3906443 908.70811,27.9925818 L956.212813,27.9925818 L956.212813,4.3154827 L994.659824,4.3154827 L994.659824,27.9925818 L1024.00096,27.9925818 L1024.00096,48.8249456 L901.635402,48.8249456 C900.951257,51.2149102 899.264985,54.7950192 896.547677,59.5749485 C895.89244,61.5004665 895.208295,62.9421861 894.562694,63.8904312 L1003.76569,63.8904312 L1003.76569,84.722795 C992.289407,104.810109 977.440573,120.833516 959.277011,132.802691 C975.45559,139.972585 995.315061,145.245989 1018.91324,148.584198 L1018.91324,165.826777 C981.150373,161.511294 951.510522,155.289646 929.945507,147.171507 C907.677075,154.825199 879.029716,161.046848 843.993793,165.826777 L843.993793,165.826777 Z M583.883866,99.0819347 C587.237139,107.229102 589.270301,114.398996 589.954446,120.620644 L589.954446,91.1863431 L564.669996,91.1863431 L564.669996,99.0819347 L583.883866,99.0819347 Z M582.881738,38.7812885 C585.550866,44.5288148 587.584029,52.1921832 588.97159,61.7520417 C589.607556,63.1840853 589.954446,64.3839056 589.954446,65.3321507 L568.726686,65.3321507 C568.726686,64.3839056 568.379795,63.1840853 567.69565,61.7520417 C567.69565,58.4041561 566.703159,52.6566298 564.669996,44.5288148 L564.669996,72.5310725 L589.954446,72.5310725 L589.954446,32.3177404 L564.669996,32.3177404 L564.669996,38.7812885 L582.881738,38.7812885 Z M627.370422,14.3688157 L664.776762,14.3688157 L664.776762,1.44171956 L710.296481,1.44171956 L710.296481,14.3688157 L750.718839,14.3688157 L750.718839,35.1915036 L627.370422,35.1915036 L627.370422,14.3688157 Z M732.507097,138.569569 C732.507097,141.443332 734.19337,142.885052 737.565915,142.885052 C740.283222,142.885052 741.622604,141.443332 741.622604,138.569569 L741.622604,132.106021 L761.848237,132.106021 L761.848237,142.885052 C762.542018,155.318673 753.734858,161.288747 735.532752,160.833976 L722.408735,160.833976 C702.828703,161.288747 693.424121,154.370428 694.069722,140.011289 L694.069722,71.089353 L676.898651,71.089353 L676.898651,84.0164491 C676.898651,107.480677 673.535742,124.936127 666.800289,136.421504 C660.035927,146.958635 646.218129,157.002292 625.337259,166.562151 L625.337259,145.768491 C634.09624,135.68613 638.152929,115.598816 637.459149,85.4581687 L637.459149,51.0020389 L732.507097,51.0020389 L732.507097,138.569569 Z M596.044299,1.44171956 C594.666373,6.25067674 592.980101,10.2952323 590.956574,13.6624699 L622.321241,13.6624699 L622.321241,143.591398 C623.005385,158.414984 612.868479,165.613906 591.987609,165.120431 L572.783375,165.120431 L572.783375,147.171507 L580.858211,147.171507 C587.584029,147.664981 590.648227,145.033117 589.954446,139.266239 L589.954446,127.084192 L568.726686,127.084192 C568.042541,118.92735 566.703159,111.525232 564.669996,104.810109 L564.669996,106.987202 C567.396939,136.634375 553.203344,156.973264 522.214475,168.00387 L522.214475,148.613226 C529.643709,140.959534 533.006618,128.032438 532.322473,109.831938 L532.322473,91.1863431 L522.214475,91.1863431 L522.214475,72.5310725 L532.322473,72.5310725 L532.322473,13.6624699 L554.571633,13.6624699 C555.22687,12.2207503 556.257906,10.0823609 557.597288,7.19892182 C558.291068,4.80895718 558.93667,2.88343912 559.63045,1.44171956 L596.044299,1.44171956 Z M423.899975,92.6280626 L395.589871,92.6280626 C399.608017,99.7882806 402.325324,106.493728 403.664707,112.715377 L433.998338,112.715377 C431.965175,105.545483 428.602266,98.8400355 423.899975,92.6280626 L423.899975,92.6280626 Z M317.712993,70.3539792 L317.712993,89.7446235 L350.079787,89.7446235 L350.079787,115.598816 L311.632777,115.598816 L311.632777,134.98946 L435.029373,134.98946 L435.029373,115.598816 L392.525673,115.598816 L392.525673,89.7446235 L428.939521,89.7446235 L428.939521,70.3539792 L392.525673,70.3539792 L392.525673,53.8467741 L432.996211,53.8467741 L432.996211,35.1915036 L313.665939,35.1915036 L313.665939,53.8467741 L350.079787,53.8467741 L350.079787,70.3539792 L317.712993,70.3539792 Z M442.111717,24.4124728 L305.600739,24.4124728 L305.600739,144.326771 L425.923502,144.326771 C436.715646,144.326771 442.111717,140.495087 442.111717,132.841395 L442.111717,24.4124728 Z M262.104547,162.982042 L262.104547,4.3154827 L485.598274,4.3154827 L485.598274,134.98946 C486.292054,154.128529 473.129494,163.46584 446.168407,162.982042 L262.104547,162.982042 Z M171.893791,47.383226 L130.430762,47.383226 L130.430762,101.23 L157.738739,101.23 C167.837102,101.23 172.539393,97.1564167 171.893791,89.0382777 L171.893791,47.383226 Z M42.4555213,101.23 L83.9185508,101.23 L83.9185508,47.383226 L42.4555213,47.383226 L42.4555213,101.23 Z M0,122.052688 L0,26.5508622 L83.9185508,26.5508622 L83.9185508,0 L130.430762,0 L130.430762,26.5508622 L214.349312,26.5508622 L214.349312,88.3029039 C215.688695,112.221902 201.880532,123.494408 172.886283,122.052688 L130.430762,122.052688 L130.430762,167.258821 L83.9185508,167.258821 L83.9185508,122.052688 L0,122.052688 Z" id="Fill-3" fill="#007DC7" mask="url(#mask-2)"></path>
                </g>
            </g>
        </g>
    </g>
</svg>