<?xml version="1.0" encoding="UTF-8"?>
<svg width="1024px" height="225px" viewBox="0 0 1024 225" version="1.1" xmlns="http://www.w3.org/2000/svg" xmlns:xlink="http://www.w3.org/1999/xlink">
    <title>中国五矿集团有限公司@2x</title>
    <defs>
        <polygon id="path-1" points="0 0 197 0 197 167 0 167"></polygon>
        <polygon id="path-3" points="0 0 204 0 204 127 0 127"></polygon>
        <polygon id="path-5" points="0 225 1024 225 1024 0 0 0"></polygon>
    </defs>
    <g id="页面-1" stroke="none" stroke-width="1" fill="none" fill-rule="evenodd">
        <g id="44.中国五矿集团有限公司" transform="translate(0.000000, -271.000000)">
            <g id="中国五矿集团有限公司" transform="translate(0.000000, 271.000000)">
                <g id="编组" transform="translate(4.000000, 0.000000)">
                    <mask id="mask-2" fill="white">
                        <use xlink:href="#path-1"></use>
                    </mask>
                    <g id="Clip-2"></g>
                    <path d="M98.5070671,98.6799515 L169.5302,167 C186.527742,149.272709 197,125.208343 197,98.6799515 C197,44.1775602 152.89779,-0.000236017717 98.5070671,-0.000236017717 C44.0974984,-0.000236017717 0,44.1775602 0,98.6799515 C0,125.208343 10.4757913,149.272709 27.4721561,167 L98.5070671,98.6799515 Z" id="Fill-1" fill="#B91B21" mask="url(#mask-2)"></path>
                </g>
                <polygon id="Fill-3" fill="#FFFFFF" points="150.891747 116.615186 138.674072 67 110.141609 67 102.003508 76.0439159 93.8595604 67 65.330605 67 53.1164378 116.615186 47 116.615186 47 129 157 129 157 116.615186"></polygon>
                <polygon id="Fill-5" fill="#FFFFFF" points="20 95.952937 20.8618189 89.8072883 30.6941788 88.7045948 21.5260895 85.1344991 22.3809768 79 38 81.0225339 37.4558757 84.8635643 25.5463706 83.2992782 37.0399846 87.7925591 36.5547783 91.2455842 24.2501765 92.6125227 36.1527501 94.1846136 35.6167127 98"></polygon>
                <polygon id="Fill-7" fill="#FFFFFF" points="29 62.4698147 31.2105113 58 45 65.511058 42.7815126 70"></polygon>
                <polygon id="Fill-9" fill="#FFFFFF" points="41 44.522449 44.3129577 41.3492711 54.7432877 43.5568513 48.6485196 37.2093294 51.9871591 34 63 45.477551 59.6613605 48.6868805 49.2823941 46.5014577 55.3479784 52.8151603 52.0198451 56"></polygon>
                <polygon id="Fill-11" fill="#FFFFFF" points="66 24.4117484 72.3004294 22.0850711 78.1359447 30.6872062 77.092899 20.3084241 83.3704441 18 89 33.5809503 85.1060432 35.0229548 80.7893276 23.1376735 82.0949413 36.1303169 78.56593 37.4421152 71.2537704 26.6654129 75.5620549 38.5543448 71.648827 40"></polygon>
                <polygon id="Fill-13" fill="#FFFFFF" points="98.6770948 16 112 16.5444878 111.865055 19.8431762 103.525662 19.5062744 103.413207 21.9519319 111.161918 22.2593407 111.026972 25.4253102 103.27471 25.1133641 103.140949 28.1602269 111.737211 28.498263 111.573856 32 98 31.4657214"></polygon>
                <polygon id="Fill-15" fill="#FFFFFF" points="126.616154 21 140 26.7067641 138.483861 30.2108578 134.004773 28.2949994 129.392711 39 125 37.1272201 129.612062 26.4210858 125.101152 24.4961582"></polygon>
                <path d="M149.784698,52.5427469 L153.498723,56 L160,40.6279392 L156.103394,37 L141,44.3532497 L144.63429,47.7417702 L146.968556,46.3980465 L150.993431,50.1428313 L149.784698,52.5427469 Z M150.080525,44.6396358 L155.214755,41.7104787 L152.577728,46.9742554 L150.080525,44.6396358 Z" id="Fill-17" fill="#FFFFFF"></path>
                <polygon id="Fill-19" fill="#FFFFFF" points="172.90229 58 175 62.3292302 164.518259 67.5275209 167.820818 74.3123924 164.393462 76 159 64.8939346"></polygon>
                <path d="M171.696689,84.0484257 L172.435776,88.5327598 C171.711381,88.7091481 171.185883,88.9590315 170.835552,89.301632 C170.26033,89.8522801 170.028659,90.5770553 170.117937,91.4850029 C170.185744,92.1532433 170.410634,92.6643172 170.742884,92.9967413 C171.099996,93.3325576 171.493271,93.4705023 171.914799,93.4320587 C172.300163,93.390223 172.643714,93.186698 172.911548,92.8033926 C173.204245,92.4212179 173.404272,91.5890268 173.568137,90.2875975 C173.829191,88.1686761 174.297053,86.6252783 174.971723,85.6562731 C175.661085,84.6883987 176.60472,84.1524496 177.803757,84.0224197 C178.575617,83.9376176 179.347476,84.0947842 180.089953,84.4701747 C180.84373,84.8704405 181.450595,85.5036294 181.95123,86.3640879 C182.447344,87.2392453 182.776204,88.4909241 182.919727,90.0840725 C183.133316,92.0390431 182.919727,93.5722648 182.29026,94.6758225 C181.668704,95.7737268 180.575896,96.5098089 179.005055,96.8671083 L178.28292,92.4212179 C178.972282,92.2210849 179.443535,91.9316272 179.72267,91.5144009 C180.005195,91.1130044 180.101254,90.5770553 180.033448,89.9020307 C179.969032,89.3513825 179.822119,88.9375484 179.565586,88.6944491 C179.307922,88.4434349 179.008446,88.3405417 178.676196,88.3586328 C178.429834,88.4015992 178.221895,88.5180607 178.046729,88.7622907 C177.872694,89.0189584 177.729171,89.5662145 177.639893,90.4164967 C177.404832,92.5286338 177.107615,94.0652475 176.740332,94.9969397 C176.371919,95.9410696 175.864503,96.6522764 175.229386,97.1339522 C174.611221,97.6099746 173.872134,97.8915175 173.022298,97.9740582 C172.03572,98.0712979 171.099996,97.8960402 170.228687,97.4335862 C169.335907,96.9666094 168.636374,96.2768858 168.107487,95.3338867 C167.58199,94.4010638 167.236179,93.1968742 167.085875,91.7201873 C166.828212,89.1094139 167.150291,87.2392453 168.053242,86.1492559 C168.953933,85.0309991 170.160881,84.3310993 171.696689,84.0484257" id="Fill-21" fill="#FFFFFF"></path>
                <g id="编组" transform="translate(0.000000, 98.000000)">
                    <mask id="mask-4" fill="white">
                        <use xlink:href="#path-3"></use>
                    </mask>
                    <g id="Clip-24"></g>
                    <polygon id="Fill-23" fill="#221714" mask="url(#mask-4)" points="204 98.3197208 204 127.00047 0 127.00047 0 98.3197208 102.002927 0"></polygon>
                </g>
                <polygon id="Fill-25" fill="#FFFFFF" points="16 214.69771 16 221 4 221 4 200 9.99770511 200 9.99770511 214.69771"></polygon>
                <polygon id="Fill-27" fill="#DADBDA" points="188 214.811338 188 221 200 221 200 200 188 200 188 206.303133 194.000574 206.303133 194.000574 214.811338"></polygon>
                <mask id="mask-6" fill="white">
                    <use xlink:href="#path-5"></use>
                </mask>
                <g id="Clip-30"></g>
                <polygon id="Fill-29" fill="#DADBDA" mask="url(#mask-6)" points="18 221 39 221 39 200 18 200"></polygon>
                <path d="M51.4963835,214.69771 C49.1842135,214.69771 47.297589,212.820279 47.297589,210.500603 C47.297589,208.177311 49.1842135,206.303495 51.4963835,206.303495 C53.8085534,206.303495 55.695178,208.177311 55.695178,210.500603 C55.695178,212.820279 53.8085534,214.69771 51.4963835,214.69771 M51.4963835,200 C45.7051091,200 41,204.704424 41,210.500603 C41,216.296781 45.7051091,221 51.4963835,221 C57.2948909,221 62,216.296781 62,210.500603 C62,204.704424 57.2948909,200 51.4963835,200" id="Fill-31" fill="#FFFFFF" mask="url(#mask-6)"></path>
                <path d="M186,210.500603 C186,216.296781 181.317796,221 175.496383,221 C169.700287,221 165,216.296781 165,210.500603 C165,204.703219 169.700287,200 175.496383,200 C181.317796,200 186,204.703219 186,210.500603" id="Fill-32" fill="#FFFFFF" mask="url(#mask-6)"></path>
                <polygon id="Fill-33" fill="#DADBDA" mask="url(#mask-6)" points="64 221 80 221 80 214.698072 75.0134194 214.698072 75.0134194 206.304338 80 206.304338 80 200 64 200 64 206.304338 68.9934697 206.304338 68.9934697 214.698072 64 214.698072"></polygon>
                <polygon id="Fill-34" fill="#DADBDA" mask="url(#mask-6)" points="117.020871 221 117.020871 206.304338 122 206.304338 122 200 106 200 106 206.304338 111.014703 206.304338 111.014703 221"></polygon>
                <polygon id="Fill-35" fill="#DADBDA" mask="url(#mask-6)" points="147 221 163 221 163 214.698072 157.997991 214.698072 157.997991 206.304338 163 206.304338 163 200 147 200 147 206.304338 152.008895 206.304338 152.008895 214.698072 147 214.698072"></polygon>
                <polygon id="Fill-36" fill="#FFFFFF" mask="url(#mask-6)" points="87.0026958 221 81 210.501205 87.0026958 200 99.0032949 200 105 210.501205 99.0032949 221"></polygon>
                <polygon id="Fill-37" fill="#FFFFFF" mask="url(#mask-6)" points="130.133639 221 124 214.853512 124 206.144078 130.133639 200 138.850689 200 145 206.144078 145 214.853512 138.850689 221"></polygon>
                <polygon id="Fill-38" fill="#FFFFFF" mask="url(#mask-6)" points="102 99 4 197 10.1249268 197"></polygon>
                <polygon id="Fill-39" fill="#DADBDA" mask="url(#mask-6)" points="102 99 18 197 38.4746399 197"></polygon>
                <polygon id="Fill-40" fill="#FFFFFF" mask="url(#mask-6)" points="102 99 47 197 55.1445973 197"></polygon>
                <polygon id="Fill-41" fill="#DADBDA" mask="url(#mask-6)" points="102 99 63 197 79.4173942 197"></polygon>
                <polygon id="Fill-42" fill="#FFFFFF" mask="url(#mask-6)" points="102 99 87 197 98.690919 197"></polygon>
                <polygon id="Fill-43" fill="#DADBDA" mask="url(#mask-6)" points="102 99 106.188666 197 123 197"></polygon>
                <polygon id="Fill-44" fill="#FFFFFF" mask="url(#mask-6)" points="102 99 130.501318 197 139 197"></polygon>
                <polygon id="Fill-45" fill="#DADBDA" mask="url(#mask-6)" points="101 99 146.461368 197 163 197"></polygon>
                <polygon id="Fill-46" fill="#FFFFFF" mask="url(#mask-6)" points="101 99 170.786001 197 179 197"></polygon>
                <polygon id="Fill-47" fill="#DADBDA" mask="url(#mask-6)" points="102 99 187.754248 197 200 197"></polygon>
                <polygon id="Fill-48" fill="#B91B21" mask="url(#mask-6)" points="90.5330845 108 82 108 90.202354 85 98.401177 85 100.442055 91.2631249 104.549706 91.2631249 106.58823 85 114.81177 85 123 108 114.455146 108 105.799656 100.409352 102.499412 105.90549 99.2121143 100.409352"></polygon>
                <path d="M313.358583,130.962069 L334.255463,130.962069 L334.255463,114.080138 L313.358583,114.080138 L313.358583,130.962069 Z M280.556361,144.204117 L280.323771,142.735662 L300.754302,142.735662 L300.754302,161.939994 L300.37795,173 L313.731429,173 L313.358583,161.939994 L313.358583,142.735662 L334.255463,142.735662 L334.115208,144.345655 L347,144.345655 L346.673906,132.901138 L346.673906,111.761275 L347,102.214545 L336.926159,102.5908 L313.358583,102.5908 L313.358583,96.6815934 L313.731429,85 L300.37795,85 L300.754302,96.6815934 L300.754302,102.5908 L277.748916,102.5908 L268,102.214545 L268.277004,111.761275 L268.277004,132.901138 L268,144.204117 L280.556361,144.204117 Z M280.323771,130.962069 L300.754302,130.962069 L300.754302,114.080138 L280.323771,114.080138 L280.323771,130.962069 Z" id="Fill-49" fill="#221714" mask="url(#mask-6)"></path>
                <path d="M376.246316,160.19346 L432.520144,160.19346 L432.520144,99.3474365 L376.246316,99.3474365 L376.246316,160.19346 Z M365.27931,98.9721045 L365.27931,160.663798 L365,171.33965 L376.246316,171.33965 L376.246316,170.072904 L432.520144,170.072904 L432.520144,172 L444,172 L443.669053,161.327667 L443.669053,98.9721045 L444,89 L434.774571,89.3307614 L374.318141,89.3307614 L365,89 L365.27931,98.9721045 Z M377.800122,154.836767 L385.937652,154.599839 L422.308916,154.599839 L430.961644,154.836767 L430.961644,145.010104 L424.001203,145.242341 C425.539753,143.548655 426.983243,142.014485 428.332848,140.635139 L426.070206,138.377282 L422.828807,135.274928 C422.291313,134.775267 421.553137,133.977686 420.614282,132.872803 L427.575896,133.25048 L427.575896,123.094229 L421.601254,123.283068 L410.023991,123.283068 L410.023991,114.249293 L422.164567,114.249293 L430.257502,114.675061 L430.257502,104.426149 L421.601254,104.658386 L387.017336,104.658386 L379.020634,104.426149 L379.020634,114.534311 L387.017336,114.249293 L398.974835,114.249293 L398.974835,123.283068 L389.420806,123.283068 L381.424104,123.094229 L381.424104,133.109731 L389.420806,132.872803 L398.974835,132.872803 L398.974835,145.242341 L386.030364,145.242341 L377.800122,145.010104 L377.800122,154.836767 Z M410.023991,145.242341 L410.023991,132.872803 L416.426986,132.872803 C414.638466,134.633345 412.895716,136.027938 411.203429,137.057755 C414.401405,139.787123 416.37887,141.640326 417.131128,142.606806 C417.884559,143.582669 418.544105,144.461181 419.108592,145.242341 L410.023991,145.242341 Z" id="Fill-50" fill="#221714" mask="url(#mask-6)"></path>
                <path d="M458,169 L466.595298,168.667325 L534.881545,168.667325 L545,169 L545,156.942317 L534.881545,157.318641 L527.712283,157.318641 L528.188417,128.799467 L528.517685,121.090147 L520.113078,121.420462 L501.168364,121.420462 L503.541931,111.586509 C503.729069,110.760721 504.444455,108.0368 505.6798,103.40531 L528.188417,103.40531 L538.684701,103.781633 L538.684701,92 L528.188417,92.3362136 L472.535138,92.3362136 L464.457429,92 L464.457429,103.781633 L472.535138,103.40531 L492.85851,103.40531 L491.383914,110.213341 C491.032143,111.789416 490.162782,115.523157 488.774648,121.420462 L477.664838,121.420462 L469.918765,121.182164 L469.918765,132.868242 L477.664838,132.721959 L486.063523,132.721959 C483.978953,140.798165 481.916887,148.997058 479.891538,157.318641 L466.595298,157.318641 L458,156.942317 L458,169 Z M498.461976,132.721959 L516.219906,132.721959 L515.699948,157.318641 L492.188131,157.318641 C494.280992,148.997058 496.3703,140.798165 498.461976,132.721959 L498.461976,132.721959 Z" id="Fill-51" fill="#221714" mask="url(#mask-6)"></path>
                <path d="M581.747492,167.491819 C580.873334,168.167015 579.874297,168.860999 578.772764,169.589037 C582.548607,170.779731 585.132202,171.767278 586.502344,172.552854 C587.868951,173.337256 589.213175,174.153363 590.535014,175 L594.02811,170.90655 C596.983988,167.547009 599.136395,163.929132 600.47355,160.057616 C601.813061,156.183751 602.681328,152.176022 603.093666,148.052041 C603.507183,143.925712 603.753408,140.729392 603.853547,138.470127 C603.950152,136.209688 604.017304,132.476734 604.069141,127.265394 C604.113909,122.055229 604.139828,118.540686 604.158677,116.718244 C604.177527,114.899324 604.184596,111.322546 604.184596,105.989083 L632.241285,105.989083 L644,106.270904 L644,95.3937881 L632.241285,95.7237535 L624.067558,95.7237535 C625.103116,95.1601115 626.204649,94.6258258 627.374512,94.1244193 C624.257233,89.9194152 621.684241,86.5422602 619.67792,84 C616.870484,85.7261536 613.485774,87.2961314 609.516722,88.7087592 C611.691513,91.1887839 613.016886,92.774027 613.485774,93.466837 C613.966443,94.1537757 614.442399,94.9076468 614.953699,95.7237535 L602.859222,95.7237535 L592.802876,95.3937881 L593.137459,107.210308 L593.137459,134.134781 L593.040854,138.046222 C592.977236,139.898021 592.784026,142.848921 592.44473,146.896575 C592.117216,150.943055 591.517558,153.866948 590.657537,155.656511 C589.786914,157.4449 588.992868,158.929158 588.270687,160.125723 L588.029174,151.84136 L588.029174,126.935429 L588.41206,118.035757 L579.580948,118.366896 L572.677223,118.366896 L575.183063,112.105773 C575.782721,110.632084 576.817102,107.574326 578.299164,102.927803 L581.36814,102.927803 L590.304104,103.165002 L590.304104,92.7106173 L581.36814,92.898498 L563.994553,92.898498 L555.486243,92.7106173 L555.486243,103.165002 L563.994553,102.927803 L567.345098,102.927803 L566.351951,106.270904 C565.781746,108.18259 564.92526,110.383142 563.774246,112.863167 C562.624411,115.337321 561.119965,117.998181 559.269154,120.837527 C557.40774,123.680396 554.652141,126.277847 551,128.631052 C553.174791,131.047667 554.663922,133.136665 555.486243,134.892175 C556.305029,136.651208 556.982442,138.15895 557.519661,139.411879 C558.934571,137.6869 560.25641,135.960746 561.488713,134.23107 L561.488713,152.921673 L561.250735,163.706024 L571.311794,163.706024 L571.217545,162.147788 L577.786686,162.147788 L577.786686,163.706024 L585.668242,163.706024 C583.944667,165.550777 582.63343,166.816623 581.747492,167.491819 L581.747492,167.491819 Z M571.217545,152.643375 L577.785508,152.643375 L577.785508,127.922977 L571.217545,127.922977 L571.217545,152.643375 Z" id="Fill-52" fill="#221714" mask="url(#mask-6)"></path>
                <path d="M678.120656,130.518296 L694.684197,130.518296 L694.684197,127.748843 L678.120656,127.748843 L678.120656,130.518296 Z M678.120656,119.165527 L694.684197,119.165527 L694.684197,116.399583 L678.120656,116.399583 L678.120656,119.165527 Z M676.08341,83 L674.289311,86.1438619 C672.486951,89.3977062 669.521967,92.8364148 665.410885,96.4599877 C661.296262,100.091751 658.352525,102.318312 656.587934,103.14669 C654.812721,103.97858 653.286557,104.640815 652,105.139246 L653.988852,108.189506 C654.864656,109.565457 656.126426,112.006133 657.770623,115.504513 C661.334033,113.348154 664.803016,110.960129 668.178754,108.334589 L668.178754,133.33221 L667.80223,141.16788 L678.120656,141.16788 L678.120656,139.288817 L693.07541,139.288817 L693.07541,142.669024 L660.139541,142.669024 L654.600262,142.432678 L654.600262,152.517139 L659.66623,152.283134 L684.79423,152.283134 L678.590426,156.129012 C676.509508,157.471032 673.293115,158.831773 668.962492,160.212405 C664.627148,161.587186 661.524066,162.371104 659.66623,162.578199 C657.79659,162.781784 655.797115,162.929207 653.648918,163.025149 C656.368393,166.679143 657.983082,169.020366 658.502426,170.033609 C659.024131,171.053873 659.602492,172.311651 660.237508,173.809286 C665.940852,172.373663 671.148459,170.661914 675.848525,168.676378 C680.545049,166.686163 686.297967,163.569212 693.07541,159.317334 L693.07541,165.506776 L692.885377,173.246503 L704.284984,173.246503 L704.043016,165.980637 L704.043016,157.256917 C709.944656,161.75684 715.100328,165.185019 719.505311,167.548473 C723.904393,169.910757 729.115541,172.060096 735.136393,174 C736.942295,170.809337 738.296131,168.606177 739.206164,167.385839 C740.124459,166.169011 741.048656,164.977924 742,163.819597 L737.93377,163.025149 C735.849311,162.678821 732.682492,161.631647 728.425049,159.881287 C724.161705,158.129757 721.251016,156.780716 719.684721,155.825975 C718.125508,154.867723 716.353836,153.689506 714.361443,152.283134 L734.62177,152.283134 L741.198557,152.517139 L741.198557,142.432678 L735.091541,142.669024 L704.043016,142.669024 L704.043016,139.288817 L728.514754,139.288817 L736.702689,139.521652 L736.702689,130.333432 L730.455213,130.518296 L705.512525,130.518296 L705.512525,127.748843 L725.008,127.748843 L732.252852,127.932537 L732.252852,118.977152 L725.486033,119.165527 L705.512525,119.165527 L705.512525,116.399583 L724.586623,116.399583 L732.156066,116.632419 L732.156066,107.627893 L724.68341,107.860728 L705.512525,107.860728 L705.512525,104.954382 L727.943475,104.954382 L735.431475,105.139246 L735.431475,95.292301 L729.086033,95.5251363 L705.942164,95.5251363 L707.784656,94.3047984 L705.990557,91.5388552 L702.673836,86.5206105 C702.234754,85.8923061 701.60682,84.9083136 700.77941,83.5616128 C698.163803,85.2476214 696.362623,86.3029855 695.388852,86.7054747 C694.408,87.1161541 693.339803,87.4893926 692.17718,87.8298704 C693.747016,90.3021369 695.261377,92.8516252 696.708459,95.4771652 L680.959344,95.5251363 C682.913967,93.4319584 684.887475,91.2720891 686.879869,89.0537184 L683.559607,87.5970351 C682.608262,87.2179464 680.123672,85.6887215 676.08341,83 L676.08341,83 Z M678.120656,107.860728 L694.684197,107.860728 L694.684197,105.046814 L678.120656,105.046814 L678.120656,107.860728 Z" id="Fill-53" fill="#221714" mask="url(#mask-6)"></path>
                <path d="M752.287064,100.018915 L752.428825,160.132121 L752.138216,172 L763.790904,172 L763.790904,170.630855 L820.675724,170.630855 L820.675724,172 L832,172 L831.668045,161.59403 L831.668045,97.851298 L832,89 L823.84997,89.3311311 L761.188423,89.3311311 L752,89 L752.287064,100.018915 Z M764.313054,145.446106 L767.487301,148.553102 C768.719433,149.714409 769.932664,151.710589 771.138807,154.535771 C776.033077,151.110561 780.109864,147.186305 783.399882,142.764179 C786.688718,138.336182 789.81453,133.601712 792.782044,128.543156 L792.782044,145.588187 C792.782044,147.220358 791.610159,148.034095 789.272298,148.034095 C788.45127,148.066973 786.558771,147.881446 783.593621,147.47399 L784.675724,149.399717 C785.121087,150.155917 785.463674,151.23268 785.72593,152.627658 C785.976373,154.02381 786.118133,155.169852 786.144123,156.064611 C786.1772,156.959369 786.211459,157.830643 786.240992,158.672561 C790.720614,158.926194 794.435913,158.735969 797.377437,158.112457 C800.308328,157.481899 802.160662,156.676381 802.911991,155.686511 C803.676314,154.698988 804.049616,153.325147 804.049616,151.56616 L804.049616,122.237575 L810.7785,122.237575 L818.401654,122.471246 L818.401654,111.972512 L810.7785,112.209705 L803.862965,112.209705 L803.862965,109.148504 L804.094507,101.05458 L792.53987,101.05458 L792.782044,109.148504 L792.782044,112.209705 L775.30065,112.209705 L765.918488,111.972512 L765.918488,122.471246 L775.775546,122.237575 L784.158299,122.237575 C780.151211,130.427785 776.660366,135.867964 773.688128,138.551065 C770.724158,141.23534 767.598346,143.535644 764.313054,145.446106 L764.313054,145.446106 Z M763.790904,160.700446 L820.675724,160.700446 L820.675724,99.3590012 L763.790904,99.3590012 L763.790904,160.700446 Z" id="Fill-54" fill="#221714" mask="url(#mask-6)"></path>
                <path d="M893.787708,88 C897.713347,88.5710758 901.913441,88.756353 906.398546,88.5710758 C906.295332,89.8785697 906.264837,91.0641089 906.276566,92.1171399 C906.291813,93.1666529 906.424349,94.4858731 906.676519,96.0642469 C906.932207,97.6473112 907.781375,100.363146 909.238095,104.198852 C910.698335,108.039249 912.781375,111.204205 915.495426,113.694893 C918.204785,116.185581 920.418015,118.016072 922.126906,119.172295 C923.828759,120.332037 925.340605,121.225588 926.646024,121.851778 C927.936195,122.481486 930.396904,123.278881 934,124.249828 C933.180155,125.284096 932.402533,126.317192 931.671827,127.351461 C930.930565,128.382212 929.343655,131.365408 926.897021,136.283462 C921.812573,133.933491 917.300493,131.125017 913.359606,127.84866 C909.404645,124.568786 906.309407,121.277185 904.066854,117.971512 C901.820783,114.665839 900.029791,111.322642 898.658691,107.938402 C897.298147,104.551817 896.337556,101.73748 895.793338,99.4930469 C895.24091,97.2579946 894.577058,93.4293243 893.787708,88 M861.463054,152.76492 C862.95027,151.557101 864.799906,149.714883 867.008445,147.242957 C869.229885,144.762823 871.446634,142.028226 873.67042,139.033303 C875.895379,136.03838 877.929158,132.718635 879.783486,129.067034 C881.624912,125.417777 882.760263,123.026764 883.170772,121.898684 L884.01642,119.498289 C887.901009,122.289173 891.963875,124.735301 896.189772,126.833154 C894.962937,128.49713 894.058644,129.734266 893.461647,130.550424 L888.709125,137.177013 C886.3962,140.345487 884.031668,143.376762 881.614356,146.279047 C879.197044,149.176641 876.098288,152.490522 872.306357,156.218346 C884.18297,155.873589 895.844945,155.454957 907.284072,154.950722 C904.497302,150.781985 902.617171,148.117747 901.642505,146.956833 L897.739151,142.254546 C902.228947,140.438126 905.082571,139.040339 906.295332,138.069393 L908.229416,136.614146 C916.629604,147.961786 923.302135,157.285448 928.258738,164.583961 C922.960826,168.500579 920.251466,170.523384 920.121276,170.646511 L917.545625,173 C916.970913,171.714786 916.437251,170.579671 915.943467,169.591135 C915.436782,168.604944 914.375323,166.795561 912.741497,164.160638 C906.913441,164.47256 898.607084,165.102268 887.816561,166.04038 C877.036594,166.98201 870.41567,167.6082 867.95027,167.922468 C865.49308,168.233217 862.6981,168.785531 859.561811,169.568855 C858.249355,165.087024 857.056533,162.000635 855.988037,160.307342 L854.246305,157.48597 C857.574947,155.548768 859.973493,153.969222 861.463054,152.76492 M853.216514,134.923199 C850.113066,130.783779 847.818907,128.089052 846.346939,126.833154 L844,124.813868 C847.72273,123.308197 851.573305,120.707281 855.536477,117.007601 C859.503167,113.312612 863.024161,109.347915 866.097115,105.119375 C869.170068,100.886144 871.524044,96.5614463 873.147314,92.13942 L874.181797,89.4118588 C878.048792,91.7653478 881.940418,93.5700411 885.895379,94.818903 C882.377903,100.71142 879.39057,105.652926 876.914614,109.629349 C874.433967,113.60929 870.861365,117.982066 866.186254,122.74533 C861.522871,127.509767 857.189069,131.569448 853.216514,134.923199" id="Fill-55" fill="#221714" mask="url(#mask-6)"></path>
                <path d="M954.094345,134.198273 L954.094345,150.15598 L953.669259,159.155107 L963.043586,158.836163 L991.256306,158.836163 L1001.48199,159.155107 L1001.10177,150.15598 L1001.10177,134.198273 L1001.48199,125.839364 L991.256306,126.167621 L963.043586,126.167621 L953.669259,125.839364 L954.094345,134.198273 Z M960.90871,100.686973 L1014.40578,100.686973 L1014.40578,157.293821 C1014.40578,159.03754 1014.17789,160.189931 1013.71974,160.745174 C1013.26041,161.308565 1012.0808,161.601901 1010.19271,161.632166 C1009.4984,161.664759 1008.32587,161.649627 1006.68457,161.587933 C1005.05389,161.525075 1003.50114,161.461053 1002.04995,161.404016 L1003.56491,164.762247 C1004.41154,166.594432 1004.96415,168.268309 1005.22156,169.77573 C1005.47543,171.285479 1005.67262,172.693957 1005.83676,174 C1013.37613,173.469202 1018.33192,172.624115 1020.70178,171.457755 C1023.06809,170.291396 1024.48504,169.210011 1024.96326,168.217092 C1025.43676,167.212533 1025.6682,165.31749 1025.6682,162.519158 L1025.6682,99.70453 L1026,90 L1015.49211,90.3270928 L960.90871,90.3270928 L948.698115,90 L948.698115,101.014065 L960.90871,100.686973 Z M996.227451,109.413716 L956.59881,109.413716 L946,109.088951 L946,119.961005 L956.59881,119.589679 L996.227451,119.589679 L1007.91259,119.91328 L1007.91259,109.088951 L996.227451,109.413716 Z M965.13005,148.707925 L989.925551,148.707925 L989.925551,136.294694 L965.13005,136.294694 L965.13005,148.707925 Z" id="Fill-56" fill="#221714" mask="url(#mask-6)"></path>
                <path d="M288.951683,212.651742 L297,215.015001 C296.452785,217.221325 295.599984,219.056081 294.435672,220.533118 C293.267808,222.010155 291.819229,223.122548 290.09349,223.87376 C288.359459,224.621509 286.165863,225 283.493751,225 C280.255473,225 277.604681,224.540734 275.553218,223.625664 C273.49465,222.710593 271.723901,221.098546 270.233867,218.789522 C268.740279,216.481652 268,213.531041 268,209.931918 C268,205.13501 269.309998,201.444727 271.937102,198.870298 C274.568943,196.290099 278.278631,195 283.08867,195 C286.848105,195 289.800931,195.743134 291.957809,197.217863 C294.108765,198.698361 295.707768,200.962382 296.752451,204.026079 L288.633066,205.769675 C288.344061,204.890376 288.045581,204.253404 287.730518,203.848373 C287.217652,203.169859 286.581604,202.648281 285.84014,202.279021 C285.088017,201.915532 284.252982,201.728595 283.329113,201.728595 C281.239748,201.728595 279.637192,202.54558 278.521443,204.17609 C277.679301,205.391184 277.2529,207.294023 277.2529,209.879991 C277.2529,213.092546 277.762212,215.296561 278.760701,216.485114 C279.765112,217.677129 281.179342,218.272559 282.999837,218.272559 C284.75874,218.272559 286.08769,217.790215 286.990239,216.834757 C287.891603,215.875837 288.546602,214.478421 288.951683,212.651742" id="Fill-57" fill="#717071" mask="url(#mask-6)"></path>
                <polygon id="Fill-58" fill="#717071" mask="url(#mask-6)" points="300 195 309.010385 195 309.010385 205.195448 318.90471 205.195448 318.90471 195 328 195 328 224 318.90471 224 318.90471 212.302308 309.010385 212.302308 309.010385 224 300 224"></polygon>
                <polygon id="Fill-59" fill="#717071" mask="url(#mask-6)" points="334 224 343 224 343 195 334 195"></polygon>
                <polygon id="Fill-60" fill="#717071" mask="url(#mask-6)" points="349 195 357.47445 195 368.466224 211.033925 368.466224 195 377 195 377 224 368.466224 224 357.536103 208.049021 357.536103 224 349 224"></polygon>
                <path d="M400.491322,224 L410,224 L399.030877,195 L389.065005,195 L378,224 L387.271312,224 L388.765667,219.176459 L399.030877,219.176459 L400.491322,224 Z M390.693828,212.935923 L393.916396,202.514678 L397.105054,212.935923 L390.693828,212.935923 Z" id="Fill-61" fill="#717071" mask="url(#mask-6)"></path>
                <polygon id="Fill-62" fill="#717071" mask="url(#mask-6)" points="424 195 436.353353 195 441.022262 212.659437 445.704406 195 458 195 458 224 450.325181 224 450.325181 201.917928 444.4722 224 437.515767 224 431.678429 201.917928 431.678429 224 424 224"></polygon>
                <polygon id="Fill-63" fill="#717071" mask="url(#mask-6)" points="463 224 472 224 472 195 463 195"></polygon>
                <polygon id="Fill-64" fill="#717071" mask="url(#mask-6)" points="478 195 486.475475 195 497.465216 211.033925 497.465216 195 506 195 506 224 497.465216 224 486.538273 208.049021 486.538273 224 478 224"></polygon>
                <polygon id="Fill-65" fill="#717071" mask="url(#mask-6)" points="512 195 524.34854 195 529.018652 212.659437 533.700796 195 546 195 546 224 538.325181 224 538.325181 201.917928 532.47581 224 525.512157 224 519.667599 201.917928 519.667599 224 512 224"></polygon>
                <polygon id="Fill-66" fill="#717071" mask="url(#mask-6)" points="550 195 574.590858 195 574.590858 201.164502 559.200997 201.164502 559.200997 205.744965 573.464541 205.744965 573.464541 211.672149 559.200997 211.672149 559.200997 217.439201 575 217.439201 575 224 550 224"></polygon>
                <polygon id="Fill-67" fill="#717071" mask="url(#mask-6)" points="577 195 605 195 605 202.187502 595.555504 202.187502 595.555504 224 586.366168 224 586.366168 202.187502 577 202.187502"></polygon>
                <path d="M624.491322,224 L634,224 L623.027369,195 L613.070852,195 L602,224 L611.271312,224 L612.765667,219.176459 L623.023861,219.176459 L624.491322,224 Z M614.686813,212.935923 L617.919904,202.514678 L621.113239,212.935923 L614.686813,212.935923 Z" id="Fill-68" fill="#717071" mask="url(#mask-6)"></path>
                <polygon id="Fill-69" fill="#717071" mask="url(#mask-6)" points="635 195 644.348613 195 644.348613 216.889683 659 216.889683 659 224 635 224"></polygon>
                <path d="M660,214.927302 L668.754488,214.395338 C668.949558,215.773136 669.330239,216.824371 669.909537,217.546734 C670.865969,218.716824 672.214905,219.303023 673.974078,219.303023 C675.289912,219.303023 676.294816,219.000692 677.015982,218.399492 C677.721779,217.797138 678.084727,217.101315 678.084727,216.306254 C678.084727,215.558505 677.740695,214.890376 677.069183,214.289176 C676.384666,213.698361 674.811104,213.136395 672.356774,212.607893 C668.321788,211.721671 665.451309,210.546965 663.733514,209.08493 C662.002715,207.62174 661.129039,205.754673 661.129039,203.486037 C661.129039,201.998615 661.577108,200.590815 662.462606,199.26379 C663.344557,197.943688 664.678124,196.897069 666.460942,196.136626 C668.227209,195.383106 670.670899,195 673.776644,195 C677.581093,195 680.468123,195.690053 682.470838,197.06439 C684.459366,198.435264 685.643971,200.616201 686.028199,203.610662 L677.351738,204.106854 C677.117655,202.808678 676.638848,201.863605 675.898765,201.27279 C675.166959,200.678514 674.150232,200.386568 672.860408,200.386568 C671.799939,200.386568 670.996015,200.605816 670.451003,201.050081 C669.913083,201.492038 669.648262,202.032079 669.648262,202.662128 C669.648262,203.124856 669.868158,203.544888 670.309134,203.909532 C670.735923,204.2961 671.75856,204.650358 673.387687,204.978075 C677.404939,205.828525 680.286058,206.681283 682.022769,207.54558 C683.752386,208.413339 685.030388,209.481883 685.811849,210.761597 C686.60395,212.042465 687,213.479114 687,215.058851 C687,216.918994 686.472721,218.639511 685.412252,220.212324 C684.36124,221.783983 682.885804,222.972536 680.987127,223.777983 C679.093178,224.591507 676.701506,225 673.821569,225 C668.762764,225 665.250328,224.052619 663.306726,222.15555 C661.356029,220.258481 660.254182,217.852527 660,214.927302" id="Fill-70" fill="#717071" mask="url(#mask-6)"></path>
                <path d="M723.959118,212.651742 L732,215.015001 C731.452808,217.221325 730.60241,219.056081 729.435777,220.533118 C728.275066,222.010155 726.826547,223.122548 725.093772,223.87376 C723.366919,224.621509 721.166306,225 718.493118,225 C715.25971,225 712.605473,224.540734 710.561201,223.625664 C708.499163,222.710593 706.724934,221.098546 705.238513,218.789522 C703.744987,216.481652 703,213.531041 703,209.931918 C703,205.13501 704.309945,201.444727 706.938125,198.870298 C709.569859,196.290099 713.286502,195 718.089238,195 C721.847335,195 724.808332,195.743134 726.956831,197.217863 C729.117174,198.698361 730.716112,200.962382 731.752461,204.026079 L723.633408,205.769675 C723.347968,204.890376 723.048315,204.253404 722.730896,203.848373 C722.218052,203.169859 721.589136,202.648281 720.840596,202.279021 C720.088503,201.915532 719.257055,201.728595 718.336778,201.728595 C716.240392,201.728595 714.637901,202.54558 713.52575,204.17609 C712.683643,205.391184 712.260813,207.294023 712.260813,209.879991 C712.260813,213.092546 712.762998,215.296561 713.766183,216.485114 C714.761078,217.677129 716.176435,218.272559 717.999224,218.272559 C719.75924,218.272559 721.095242,217.790215 721.997754,216.834757 C722.899081,215.875837 723.554054,214.478421 723.959118,212.651742" id="Fill-71" fill="#717071" mask="url(#mask-6)"></path>
                <path d="M735.995102,218.487191 C737.319813,220.744288 739.064667,222.396723 741.200964,223.436418 C743.341854,224.478421 746.045228,225 749.306497,225 C752.513813,225 755.198821,224.395338 757.35693,223.191784 C759.50815,221.980152 761.151986,220.295407 762.287289,218.122548 C763.426035,215.951996 764,213.175629 764,209.781906 C764,205.117701 762.6971,201.485114 760.085559,198.892222 C757.487794,196.298177 753.771945,195 748.947195,195 C744.245274,195 740.584526,196.323563 737.954619,198.961459 C735.320119,201.597046 734,205.285022 734,210.018463 C734,213.414493 734.671539,216.237018 735.995102,218.487191 M744.550624,203.72721 C745.649193,202.450958 747.115099,201.80937 748.93342,201.80937 C750.826356,201.80937 752.33244,202.435957 753.442489,203.6949 C754.552537,204.95615 755.103543,206.94438 755.103543,209.664205 C755.103543,212.9033 754.570904,215.150012 753.507921,216.397415 C752.448381,217.648281 750.945741,218.271405 749.009183,218.271405 C747.130022,218.271405 745.637713,217.633279 744.542588,216.360489 C743.447463,215.084237 742.899901,212.980614 742.899901,210.06462 C742.899901,207.116317 743.447463,205.002308 744.550624,203.72721" id="Fill-72" fill="#717071" mask="url(#mask-6)"></path>
                <path d="M778.153517,224 L778.153517,212.225122 L778.964247,212.225122 C779.797237,212.225122 780.541187,212.45092 781.197269,212.897906 C781.670585,213.241211 782.229427,213.986573 782.848018,215.133993 L787.728801,224 L798,224 L793.567931,215.607476 C793.353533,215.185834 792.934109,214.587932 792.297944,213.805705 C791.660607,213.022326 791.175575,212.513129 790.846362,212.275811 C790.346099,211.915227 789.561144,211.55925 788.477437,211.202121 C789.831778,210.90029 790.897911,210.513209 791.675837,210.055853 C792.894275,209.32662 793.852624,208.384261 794.545025,207.214953 C795.245627,206.050252 795.593585,204.663211 795.593585,203.053828 C795.593585,201.203671 795.137842,199.638065 794.222842,198.353553 C793.312528,197.071346 792.119864,196.183133 790.627278,195.709649 C789.139377,195.239622 786.988365,195 784.177756,195 L769,195 L769,224 L778.153517,224 Z M778.153517,200.846542 L782.141559,200.846542 C783.795823,200.846542 784.928736,201.102292 785.533269,201.604576 C786.13663,202.105708 786.428352,202.82803 786.428352,203.773845 C786.428352,204.412068 786.243243,204.971954 785.865996,205.460414 C785.480548,205.951178 784.992001,206.257617 784.38864,206.377428 C783.192462,206.640091 782.396962,206.77027 781.982224,206.77027 L778.153517,206.77027 L778.153517,200.846542 Z" id="Fill-73" fill="#717071" mask="url(#mask-6)"></path>
                <path d="M799,224 L808.165612,224 L808.165612,213.255035 L813.138182,213.255035 C816.804895,213.255035 819.536175,212.429031 821.32147,210.779327 C823.106766,209.130775 824,206.837087 824,203.912088 C824,201.058515 823.177099,198.86275 821.540676,197.315576 C819.894875,195.775315 817.435551,195 814.134571,195 L799,195 L799,224 Z M808.165612,200.927184 L810.755052,200.927184 C812.455948,200.927184 813.615276,201.240535 814.230693,201.877607 C814.853144,202.511222 815.15675,203.283081 815.15675,204.196639 C815.15675,205.132086 814.800394,205.903945 814.09706,206.505303 C813.383176,207.10551 812.148825,207.405037 810.396352,207.405037 L808.165612,207.405037 L808.165612,200.927184 Z" id="Fill-74" fill="#717071" mask="url(#mask-6)"></path>
                <path d="M828.99556,218.487191 C830.320576,220.744288 832.057792,222.396723 834.192284,223.436418 C836.33711,224.478421 839.043402,225 842.310012,225 C845.524954,225 848.210579,224.395338 850.355404,223.191784 C852.507119,221.980152 854.158221,220.295407 855.293784,218.122548 C856.432792,215.951996 857,213.175629 857,209.781906 C857,205.117701 855.704838,201.485114 853.094994,198.892222 C850.489743,196.298177 846.769596,195 841.950628,195 C837.247627,195 833.582593,196.323563 830.952082,198.961459 C828.313533,201.597046 827,205.285022 827,210.018463 C827,213.414493 827.6671,216.237018 828.99556,218.487191 M837.545009,203.72721 C838.651868,202.450958 840.111222,201.80937 841.933405,201.80937 C843.823331,201.80937 845.33665,202.435957 846.435472,203.6949 C847.557257,204.95615 848.108389,206.94438 848.108389,209.664205 C848.108389,212.9033 847.568739,215.150012 846.5124,216.397415 C845.449173,217.648281 843.942743,218.271405 842.01263,218.271405 C840.125,218.271405 838.641534,217.633279 837.53812,216.360489 C836.446188,215.084237 835.901944,212.980614 835.901944,210.06462 C835.901944,207.116317 836.446188,205.002308 837.545009,203.72721" id="Fill-75" fill="#717071" mask="url(#mask-6)"></path>
                <path d="M871.153517,224 L871.153517,212.225122 L871.971276,212.225122 C872.790207,212.225122 873.537672,212.45092 874.197269,212.897906 C874.6741,213.241211 875.229427,213.986573 875.840989,215.133993 L880.728801,224 L891,224 L886.564416,215.607476 C886.353533,215.185834 885.935281,214.587932 885.289743,213.805705 C884.657092,213.022326 884.175575,212.513129 883.842847,212.275811 C883.346099,211.915227 882.56583,211.55925 881.483295,211.202121 C882.831778,210.90029 883.890882,210.513209 884.668808,210.055853 C885.890761,209.32662 886.845594,208.384261 887.553226,207.214953 C888.245627,206.050252 888.593585,204.663211 888.593585,203.053828 C888.593585,201.203671 888.137842,199.638065 887.222842,198.353553 C886.312528,197.071346 885.112835,196.183133 883.627278,195.709649 C882.132348,195.239622 879.981336,195 877.177756,195 L862,195 L862,224 L871.153517,224 Z M871.153517,200.846542 L875.141559,200.846542 C876.795823,200.846542 877.921706,201.102292 878.525068,201.604576 C879.1296,202.105708 879.428352,202.82803 879.428352,203.773845 C879.428352,204.412068 879.243243,204.971954 878.858967,205.460414 C878.473518,205.951178 877.984972,206.257617 877.38161,206.377428 C876.192462,206.640091 875.396962,206.77027 874.982224,206.77027 L871.153517,206.77027 L871.153517,200.846542 Z" id="Fill-76" fill="#717071" mask="url(#mask-6)"></path>
                <path d="M911.488856,224 L921,224 L910.036756,195 L900.0673,195 L889,224 L898.27848,224 L899.771502,219.176459 L910.036756,219.176459 L911.488856,224 Z M901.693606,212.935923 L904.922835,202.514678 L908.11582,212.935923 L901.693606,212.935923 Z" id="Fill-77" fill="#717071" mask="url(#mask-6)"></path>
                <polygon id="Fill-78" fill="#717071" mask="url(#mask-6)" points="918 195 946 195 946 202.187502 936.555504 202.187502 936.555504 224 927.35074 224 927.35074 202.187502 918 202.187502"></polygon>
                <polygon id="Fill-79" fill="#717071" mask="url(#mask-6)" points="950 224 959 224 959 195 950 195"></polygon>
                <path d="M964.988671,218.487191 C966.320576,220.744288 968.050903,222.396723 970.192284,223.436418 C972.33022,224.478421 975.029623,225 978.303123,225 C981.518065,225 984.1968,224.395338 986.348515,223.191784 C988.50023,221.980152 990.151332,220.295407 991.29034,218.122548 C992.425903,215.951996 993,213.175629 993,209.781906 C993,205.117701 991.693356,201.485114 989.088105,198.892222 C986.482854,196.298177 982.762707,195 977.943739,195 C973.244182,195 969.575704,196.323563 966.945193,198.961459 C964.313533,201.597046 963,205.285022 963,210.018463 C963,213.414493 963.660211,216.237018 964.988671,218.487191 M973.546157,203.72721 C974.644979,202.450958 976.107777,201.80937 977.925367,201.80937 C979.823331,201.80937 981.329761,202.435957 982.43662,203.6949 C983.543478,204.95615 984.098056,206.94438 984.098056,209.664205 C984.098056,212.9033 983.568739,215.150012 982.505511,216.397415 C981.442284,217.648281 979.942743,218.271405 978.005741,218.271405 C976.126148,218.271405 974.627756,217.633279 973.53812,216.360489 C972.439299,215.084237 971.8985,212.980614 971.8985,210.06462 C971.8985,207.116317 972.442743,205.002308 973.546157,203.72721" id="Fill-80" fill="#717071" mask="url(#mask-6)"></path>
                <polygon id="Fill-81" fill="#717071" mask="url(#mask-6)" points="998 195 1006.48386 195 1017.47194 211.033925 1017.47194 195 1026 195 1026 224 1017.47194 224 1006.53155 208.049021 1006.53155 224 998 224"></polygon>
            </g>
        </g>
    </g>
</svg>