<?xml version="1.0" encoding="UTF-8"?>
<svg width="1024px" height="154px" viewBox="0 0 1024 154" version="1.1" xmlns="http://www.w3.org/2000/svg" xmlns:xlink="http://www.w3.org/1999/xlink">
    <title>中国有色矿业集团有限公司@2x</title>
    <defs>
        <linearGradient x1="49.8277777%" y1="99.9598765%" x2="49.8277777%" y2="0.483821335%" id="linearGradient-1">
            <stop stop-color="#CB5219" offset="0%"></stop>
            <stop stop-color="#FDD000" offset="100%"></stop>
        </linearGradient>
        <linearGradient x1="79.2304785%" y1="36.3152239%" x2="32.3123738%" y2="63.6271642%" id="linearGradient-2">
            <stop stop-color="#CB5219" offset="0%"></stop>
            <stop stop-color="#FDD000" offset="100%"></stop>
        </linearGradient>
        <linearGradient x1="50.0245894%" y1="28.3384875%" x2="50.2102119%" y2="71.4245525%" id="linearGradient-3">
            <stop stop-color="#797D80" offset="0%"></stop>
            <stop stop-color="#FEFEFE" offset="100%"></stop>
        </linearGradient>
        <linearGradient x1="51.6556766%" y1="83.1302115%" x2="48.8140617%" y2="16.105136%" id="linearGradient-4">
            <stop stop-color="#797D80" offset="0%"></stop>
            <stop stop-color="#FEFEFE" offset="100%"></stop>
        </linearGradient>
    </defs>
    <g id="页面-1" stroke="none" stroke-width="1" fill="none" fill-rule="evenodd">
        <g id="64.中国有色矿业集团有限公司" transform="translate(0.000000, -307.000000)">
            <g id="中国有色矿业集团有限公司" transform="translate(0.000000, 307.000000)">
                <path d="M53.6831096,111 L86.1345295,79.4934438 C69.4230198,77.3541098 57.5695072,71.5195623 57.1808674,63.9346507 C56.5979078,53.4324653 78.5560542,43.5137346 106.538117,41.9578553 C112.950673,41.5688855 118.974589,41.7633704 124.609866,42.1523402 L166,1.89396293 C151.814649,0.1435987 136.657698,-0.439856044 120.723468,0.338083615 C52.1285506,4.03329699 -1.89237596,33.595004 0.0508228337,66.0739847 C0.828102352,85.7169611 22.0089692,102.053694 53.6831096,111 Z" id="路径" fill="url(#linearGradient-1)"></path>
                <path d="M56.9272586,63.7671642 C56.7308212,57.2716418 61.8381947,53.2597015 81.8748137,46 C81.8748137,46 30.2117665,53.2597015 28.0509547,82.4895522 C26.6758926,101.59403 53.5878221,110 53.5878221,110 L86,79.241791 C86,79.241791 57.1236961,74.8477612 56.9272586,63.7671642 Z" id="路径" fill="url(#linearGradient-2)"></path>
                <path d="M123.462177,45 L91.2533168,75.8995963 C108.040965,78.0239435 119.753278,83.6244953 120.143688,91.1562719 C120.729304,101.584886 98.8663201,111.241009 71.1471798,112.785989 C64.9006129,113.172234 58.8492513,112.979112 53.1883001,112.592867 L12,152.182975 C26.0547754,153.921077 41.2807821,154.500444 57.0924044,153.534832 C125.219024,149.672382 178.900458,120.704011 176.948406,88.8388022 C175.97238,69.5265545 154.890216,53.6905114 123.462177,45 Z" id="路径" fill="url(#linearGradient-3)"></path>
                <path d="M120.474525,91.0181269 C120.669556,97.3987915 115.59875,101.459215 96.0956509,109 C96.0956509,109 146.80371,101.652568 148.949051,72.4561934 C150.314268,53.3141994 123.790052,45 123.790052,45 L92,75.9365559 C92,75.7432024 120.279494,79.9969789 120.474525,91.0181269 Z" id="路径" fill="url(#linearGradient-4)"></path>
                <g transform="translate(222.000000, 26.000000)" fill="#000000" fill-rule="nonzero" id="形状">
                    <path d="M23.3795918,0.13104189 L23.3795918,11.924812 L0,11.924812 L0,42.7196563 L4.70204082,42.7196563 L4.70204082,38.5918367 L23.3795918,38.5918367 L23.3795918,60.9344791 L28.2122449,60.9344791 L28.2122449,38.5918367 L46.955102,38.5918367 L46.955102,42.7196563 L51.6571429,42.7196563 L51.6571429,11.924812 L28.2122449,11.924812 L28.2122449,0.13104189 L23.3795918,0.13104189 Z M4.70204082,34.0053706 L4.70204082,16.5112782 L23.3795918,16.5112782 L23.3795918,34.0053706 L4.70204082,34.0053706 Z M28.2122449,34.0053706 L28.2122449,16.5112782 L46.955102,16.5112782 L46.955102,34.0053706 L28.2122449,34.0053706 Z"></path>
                    <path d="M74.9061224,13.8249194 L74.9061224,18.0837809 L88.6857143,18.0837809 L88.6857143,27.518797 L76.9959184,27.518797 L76.9959184,31.7121375 L88.6857143,31.7121375 L88.6857143,42.1299678 L73.1428571,42.1299678 L73.1428571,46.4543502 L109.126531,46.4543502 L109.126531,42.1299678 L93.5183673,42.1299678 L93.5183673,31.7121375 L105.208163,31.7121375 L105.208163,27.518797 L93.5183673,27.518797 L93.5183673,18.0837809 L107.232653,18.0837809 L107.232653,13.8249194 L74.9061224,13.8249194 Z M117.942857,3.40708915 L64.2612245,3.40708915 L64.2612245,60.3447905 L69.0285714,60.3447905 L69.0285714,57.5273899 L113.17551,57.5273899 L113.17551,60.3447905 L117.942857,60.3447905 L117.942857,3.40708915 Z M69.0285714,53.0719656 L69.0285714,7.86251343 L113.17551,7.86251343 L113.17551,53.0719656 L69.0285714,53.0719656 Z M101.22449,33.0880773 L97.5020408,34.3329753 C99.0693878,36.4951665 100.506122,39.0504834 101.812245,41.9989259 L105.469388,40.2953813 C104.293878,37.7400644 102.857143,35.3157895 101.22449,33.0880773 Z"></path>
                    <path d="M146.612245,23.980666 L172.538776,23.980666 L172.538776,31.122449 L146.612245,31.122449 L146.612245,23.980666 Z M172.538776,35.2502685 L172.538776,42.1954887 L146.612245,42.1954887 L146.612245,35.2502685 L172.538776,35.2502685 Z M172.538776,46.3233083 L172.538776,53.792696 C172.538776,55.3651987 171.689796,56.1514501 169.991837,56.1514501 C167.836735,56.1514501 165.485714,56.0204082 163.004082,55.8893663 L164.179592,60.2137487 L171.493878,60.2137487 C175.15102,60.0827068 176.979592,58.4446831 176.979592,55.2341568 L176.979592,19.8528464 L146.677551,19.8528464 C148.244898,17.4285714 149.616327,14.8732546 150.922449,12.2524168 L185.338776,12.2524168 L185.338776,7.66595059 L152.881633,7.66595059 C153.795918,5.37271751 154.579592,3.01396348 155.363265,0.589688507 L150.595918,0 C149.812245,2.55531686 148.832653,5.11063373 147.722449,7.66595059 L128.261224,7.66595059 L128.261224,12.2524168 L145.567347,12.2524168 C141.061224,20.7046187 134.726531,28.1740064 126.497959,34.726101 L129.567347,38.7228786 C134.269388,34.9226638 138.514286,30.6638024 142.171429,26.0773362 L142.171429,60.3447905 L146.612245,60.3447905 L146.612245,46.3233083 L172.538776,46.3233083 Z"></path>
                    <path d="M220.538776,23.4564984 L220.538776,35.3157895 L204.930612,35.3157895 L204.930612,23.4564984 L220.538776,23.4564984 Z M225.306122,35.3157895 L225.306122,23.4564984 L240.653061,23.4564984 L240.653061,35.3157895 L225.306122,35.3157895 Z M210.02449,10.810956 L231.314286,10.810956 C228.767347,13.9559613 226.220408,16.707841 223.608163,19.0665951 L201.077551,19.0665951 C204.277551,16.5767991 207.281633,13.8249194 210.02449,10.810956 Z M200.163265,19.7218045 L200.163265,53.5306122 C200.163265,57.461869 202.187755,59.4274973 206.302041,59.4274973 L241.110204,59.4274973 C244.897959,59.2964554 247.379592,57.8549946 248.685714,54.972073 C249.469388,53.1374866 250.057143,50.0580021 250.514286,45.7336198 L245.877551,44.292159 C245.420408,48.7475832 244.897959,51.5649839 244.244898,52.67884 C243.395918,54.0547798 241.893878,54.7755102 239.673469,54.8410311 L208.130612,54.8410311 C206.040816,54.8410311 204.930612,53.792696 204.930612,51.8270677 L204.930612,39.7712137 L245.420408,39.7712137 L245.420408,19.0665951 L229.942857,19.0665951 C232.42449,16.5767991 234.906122,13.6283566 237.387755,10.0902256 L237.387755,6.48657358 L213.616327,6.48657358 C214.922449,4.783029 216.163265,2.94844253 217.338776,1.04833512 L212.636735,0 C207.216327,8.05907626 200.293878,14.5456498 191.934694,19.5252417 L195.069388,23.3254565 C196.767347,22.2116004 198.465306,21.0322234 200.163265,19.7218045 Z"></path>
                    <path d="M266.122449,8.64876477 C264.620408,18.3458647 261.485714,26.9946294 256.653061,34.5950591 L259.2,38.7228786 C260.636735,36.5606874 262.008163,34.2674544 263.314286,31.9087003 L263.314286,58.3136412 L267.755102,58.3136412 L267.755102,53.5306122 L278.726531,53.5306122 L278.726531,23.5220193 L266.971429,23.5220193 C268.604082,18.9355532 269.844898,13.9559613 270.759184,8.64876477 L280.946939,8.64876477 L280.946939,4.0622986 L259.2,4.0622986 L259.2,8.64876477 L266.122449,8.64876477 Z M267.755102,49.1407089 L267.755102,27.8464017 L274.416327,27.8464017 L274.416327,49.1407089 L267.755102,49.1407089 Z M300.277551,0.262083781 L295.510204,1.04833512 C296.816327,3.60365199 297.926531,6.42105263 298.971429,9.566058 L284.995918,9.566058 L284.995918,28.3705693 C284.8,40.9505908 282.318367,50.7132116 277.616327,57.7894737 L281.142857,61 C286.563265,52.8098818 289.436735,41.9334049 289.697959,28.3705693 L289.697959,14.1525242 L316.146939,14.1525242 L316.146939,9.566058 L303.542857,9.566058 C302.497959,6.02792696 301.453061,2.94844253 300.277551,0.262083781 Z"></path>
                    <path d="M342.857143,1.04833512 L342.857143,53.1374866 L323.395918,53.1374866 L323.395918,57.7239527 L381.257143,57.7239527 L381.257143,53.1374866 L361.665306,53.1374866 L361.665306,1.04833512 L356.897959,1.04833512 L356.897959,53.1374866 L347.62449,53.1374866 L347.62449,1.04833512 L342.857143,1.04833512 Z M375.314286,12.9731472 C372.506122,24.9634801 369.17551,34.8571429 365.387755,42.5886144 L369.632653,44.0955961 C373.616327,35.5123523 376.881633,25.5531686 379.493878,14.1525242 L375.314286,12.9731472 Z M329.012245,12.8421053 L325.028571,14.1525242 C328.555102,23.8496241 331.493878,33.9398496 333.844898,44.4232009 L338.155102,43.3093448 C335.477551,31.8431794 332.408163,21.6874329 329.012245,12.8421053 Z"></path>
                    <path d="M409.6,44.5542427 C405.812245,48.4199785 398.889796,51.8925886 388.832653,54.972073 L391.314286,59.0343716 C402.481633,54.972073 410.122449,50.1235231 414.236735,44.5542427 L415.477551,44.5542427 L415.477551,60.5413534 L420.179592,60.5413534 L420.179592,44.5542427 L421.420408,44.5542427 C425.991837,50.3856069 433.632653,55.1031149 444.473469,58.7722879 L446.497959,54.5789474 C437.289796,52.0891515 430.432653,48.7475832 425.991837,44.5542427 L445.779592,44.5542427 L445.779592,40.2953813 L420.179592,40.2953813 L420.179592,36.8882922 L415.477551,36.8882922 L415.477551,40.2953813 L389.485714,40.2953813 L389.485714,44.5542427 L409.6,44.5542427 Z M395.885714,16.707841 L395.885714,35.1192266 L443.885714,35.1192266 L443.885714,31.122449 L421.877551,31.122449 L421.877551,26.4704619 L440.228571,26.4704619 L440.228571,22.8012889 L421.877551,22.8012889 L421.877551,18.4769066 L440.228571,18.4769066 L440.228571,14.8077336 L421.877551,14.8077336 L421.877551,10.3523093 L442.644898,10.3523093 L442.644898,6.42105263 L421.55102,6.42105263 C420.702041,4.0622986 419.853061,1.90010741 418.938776,0 L414.106122,0.786251343 C415.15102,2.48979592 416.065306,4.38990333 416.979592,6.42105263 L402.873469,6.42105263 C403.657143,4.783029 404.440816,3.07948443 405.093878,1.3104189 L400.718367,0.196562836 C397.844898,7.27282492 393.534694,13.4317938 387.722449,18.6734694 L390.4,22.3426423 C392.359184,20.5080559 394.187755,18.6734694 395.885714,16.707841 Z M417.240816,31.122449 L400.261224,31.122449 L400.261224,26.4704619 L417.240816,26.4704619 L417.240816,31.122449 Z M417.240816,22.8012889 L400.261224,22.8012889 L400.261224,18.4769066 L417.240816,18.4769066 L417.240816,22.8012889 Z M417.240816,14.8077336 L400.261224,14.8077336 L400.261224,10.8764769 L400.587755,10.3523093 L417.240816,10.3523093 L417.240816,14.8077336 Z"></path>
                    <path d="M466.02449,18.9355532 L466.02449,23.1944146 L484.310204,23.1944146 C479.542857,30.4017186 473.077551,36.1675618 464.914286,40.3609023 L467.395918,44.5542427 C476.016327,39.50913 482.873469,32.6294307 487.967347,23.8496241 L487.967347,41.867884 C487.967347,43.8335124 487.053061,44.8163265 485.355102,44.8163265 C483.2,44.8163265 480.914286,44.6852846 478.497959,44.4887218 L479.477551,48.8786251 L486.922449,48.8786251 C490.579592,48.8786251 492.473469,46.9129968 492.473469,43.047261 L492.473469,23.1944146 L500.571429,23.1944146 L500.571429,18.9355532 L492.473469,18.9355532 L492.473469,10.9419979 L487.967347,10.9419979 L487.967347,18.9355532 L466.02449,18.9355532 Z M509.387755,3.27604726 L456.489796,3.27604726 L456.489796,60.5413534 L461.061224,60.5413534 L461.061224,57.5929108 L504.816327,57.5929108 L504.816327,60.5413534 L509.387755,60.5413534 L509.387755,3.27604726 Z M461.061224,53.2685285 L461.061224,7.60042965 L504.816327,7.60042965 L504.816327,53.2685285 L461.061224,53.2685285 Z"></path>
                    <path d="M538.44898,23.980666 L564.37551,23.980666 L564.37551,31.122449 L538.44898,31.122449 L538.44898,23.980666 Z M564.37551,35.2502685 L564.37551,42.1954887 L538.44898,42.1954887 L538.44898,35.2502685 L564.37551,35.2502685 Z M564.37551,46.3233083 L564.37551,53.792696 C564.37551,55.3651987 563.526531,56.1514501 561.828571,56.1514501 C559.673469,56.1514501 557.322449,56.0204082 554.840816,55.8893663 L556.016327,60.2137487 L563.330612,60.2137487 C566.987755,60.0827068 568.816327,58.4446831 568.816327,55.2341568 L568.816327,19.8528464 L538.514286,19.8528464 C540.081633,17.4285714 541.453061,14.8732546 542.759184,12.2524168 L577.17551,12.2524168 L577.17551,7.66595059 L544.718367,7.66595059 C545.632653,5.37271751 546.416327,3.01396348 547.2,0.589688507 L542.432653,0 C541.64898,2.55531686 540.669388,5.11063373 539.559184,7.66595059 L520.097959,7.66595059 L520.097959,12.2524168 L537.404082,12.2524168 C532.897959,20.7046187 526.563265,28.1740064 518.334694,34.726101 L521.404082,38.7228786 C526.106122,34.9226638 530.35102,30.6638024 534.008163,26.0773362 L534.008163,60.3447905 L538.44898,60.3447905 L538.44898,46.3233083 L564.37551,46.3233083 Z"></path>
                    <path d="M586.383673,3.01396348 L586.383673,60.5413534 L590.955102,60.5413534 L590.955102,7.5349087 L601.730612,7.5349087 C600.032653,12.9731472 597.616327,19.132116 594.546939,25.9462943 C599.118367,31.4500537 601.404082,36.4951665 601.404082,40.9505908 C601.404082,42.3265306 600.946939,43.3093448 600.163265,43.8990333 C599.314286,44.4232009 597.681633,44.7508056 595.265306,44.8818475 C594.612245,44.8818475 593.763265,44.7508056 592.718367,44.6197637 L594.285714,49.4027927 C598.987755,49.3372718 602.253061,48.5510204 604.081633,47.0440387 C605.387755,45.7991407 606.106122,43.7679914 606.106122,40.9505908 C605.844898,36.2330827 603.559184,30.9914071 599.379592,25.2255639 C602.122449,18.8045113 604.473469,12.7110634 606.432653,6.8141783 L606.432653,3.01396348 L586.383673,3.01396348 Z M614.138776,19.3941998 L633.404082,19.3941998 L633.404082,26.7980666 L614.138776,26.7980666 L614.138776,19.3941998 Z M633.404082,15.0698174 L614.138776,15.0698174 L614.138776,7.5349087 L633.404082,7.5349087 L633.404082,15.0698174 Z M621.64898,31.122449 C623.869388,43.3748657 630.465306,53.0064447 641.306122,59.9516649 L643.918367,55.8238453 C638.955102,52.8754028 635.036735,49.3372718 632.032653,45.2094522 C635.755102,43.3093448 639.085714,40.5574651 642.089796,37.019334 L639.020408,33.9398496 C636.081633,37.4779807 633.012245,40.0988185 629.877551,41.867884 C627.983673,38.5918367 626.677551,34.9881847 625.893878,31.122449 L637.97551,31.122449 L637.97551,3.07948443 L609.502041,3.07948443 L609.502041,53.792696 C609.502041,54.4479055 608.979592,54.972073 608.065306,55.2996778 L609.17551,59.3619764 C616.293878,57.461869 622.171429,55.4962406 626.873469,53.4650913 L625.828571,49.075188 C621.97551,50.8442535 618.057143,52.3512352 614.138776,53.5306122 L614.138776,31.122449 L621.64898,31.122449 Z"></path>
                    <path d="M667.689796,1.04833512 C663.510204,13.5628357 657.371429,23.5220193 649.208163,30.9914071 L652.865306,34.2019334 C660.832653,26.9946294 667.167347,16.5112782 672,2.7518797 L667.689796,1.04833512 Z M689.959184,35.7744361 L685.714286,37.2158969 C688.457143,41.1471536 691.069388,45.471536 693.616327,50.189044 C684.277551,51.6960258 674.285714,52.8098818 663.640816,53.4650913 C669.257143,46.3888292 674.873469,36.6262084 680.489796,24.1772288 L675.918367,22.6047261 C668.016327,40.5574651 661.485714,50.9097744 656.261224,53.6616541 L657.110204,58.2481203 C671.346939,57.3308271 684.212245,56.0204082 695.706122,54.1858217 C696.685714,56.1514501 697.665306,58.2481203 698.644898,60.4758324 L703.020408,58.5102041 C699.363265,50.4511278 695.053061,42.8506982 689.959184,35.7744361 Z M688.979592,0.589688507 L684.995918,2.81740064 C688.783673,15.6595059 695.57551,26.2083781 705.306122,34.3329753 L708.636735,30.4672395 C699.297959,22.735768 692.767347,12.7765843 688.979592,0.589688507 Z"></path>
                    <path d="M721.17551,28.3705693 L721.17551,48.5510204 L749.97551,48.5510204 L749.97551,28.3705693 L721.17551,28.3705693 Z M745.469388,44.3576799 L725.746939,44.3576799 L725.746939,32.6294307 L745.469388,32.6294307 L745.469388,44.3576799 Z M761.338776,60.0171858 C765.779592,60.0171858 768,57.6584318 768,53.0064447 L768,3.14500537 L718.889796,3.14500537 L718.889796,7.73147154 L763.297959,7.73147154 L763.297959,51.6960258 C763.297959,54.3168636 762.253061,55.6272825 760.293878,55.6272825 L751.15102,55.4962406 L752.326531,60.0171858 L761.338776,60.0171858 Z M716.277551,16.0526316 L716.277551,20.311493 L756.440816,20.311493 L756.440816,16.0526316 L716.277551,16.0526316 Z"></path>
                </g>
                <g id="C" transform="translate(216.000000, 104.000000)" fill="#000000" fill-rule="nonzero">
                    <path d="M13.1427475,0 C16.7114351,0 19.4806856,0.950226244 21.4504988,2.85067873 C23.4203121,4.75113122 24.5139422,6.91014867 24.7313891,9.32773109 L21.0092095,9.32773109 C20.5871067,7.49191984 19.7460987,6.03749192 18.4861857,4.96444732 C17.2262727,3.89140271 15.4579176,3.35488041 13.1811205,3.35488041 C10.4054745,3.35488041 8.16385265,4.34065934 6.4562548,6.31221719 C4.74865695,8.28377505 3.89485802,11.3057531 3.89485802,15.3781513 C3.89485802,18.7136393 4.66551548,21.4188752 6.20683039,23.4938591 C7.74814531,25.5688429 10.0473267,26.6063348 13.1043745,26.6063348 C15.9183935,26.6063348 18.0608851,25.5138979 19.5318496,23.3290239 C20.3121003,22.1784098 20.8940906,20.6658048 21.2778204,18.7912088 L25,18.7912088 C24.6674341,21.7905624 23.5674085,24.3051067 21.6999233,26.3348416 C19.4614991,28.7782805 16.4428243,30 12.6438987,30 C9.36940394,30 6.61933998,28.9980608 4.39370683,26.9941823 C1.46456894,24.3438914 0,20.2521008 0,14.7188106 C0,10.5171299 1.10002558,7.07175178 3.30007675,4.38267615 C5.67920184,1.46089205 8.9600921,0 13.1427475,0 Z" id="路径"></path>
                </g>
                <g id="hin" transform="translate(245.000000, 104.000000)" fill="#000000" fill-rule="nonzero">
                    <path d="M0,0 L3.42926632,0 L3.42926632,10.7815468 C4.24212944,9.71913161 4.97243616,8.97150611 5.62018646,8.53867028 C6.72517227,7.79104478 8.10322929,7.41723202 9.75435752,7.41723202 C12.7136873,7.41723202 14.7204432,8.48620534 15.7746251,10.624152 C16.3461694,11.7914971 16.6319416,13.4113523 16.6319416,15.4837178 L16.6319416,29 L13.1074179,29 L13.1074179,15.71981 C13.1074179,14.1720941 12.9169031,13.0375396 12.5358735,12.3161465 C11.9135252,11.1619177 10.7450345,10.5848033 9.0304013,10.5848033 C7.60789083,10.5848033 6.31874071,11.0897784 5.16295095,12.0997286 C4.00716119,13.1096789 3.42926632,15.0180914 3.42926632,17.8249661 L3.42926632,29 L0,29 L0,0 Z" id="路径"></path>
                    <path d="M21.6996352,8.02713704 L25.1860559,8.02713704 L25.1860559,29 L21.6996352,29 L21.6996352,8.02713704 Z M21.6996352,0.0983717775 L25.1860559,0.0983717775 L25.1860559,4.1119403 L21.6996352,4.1119403 L21.6996352,0.0983717775 Z" id="形状"></path>
                    <path d="M30.3680584,7.92876526 L33.6258614,7.92876526 L33.6258614,10.9192673 C34.5911363,9.68634102 35.6135657,8.80099502 36.6931496,8.26322931 C37.7727334,7.72546359 38.9729766,7.45658073 40.2938792,7.45658073 C43.1897041,7.45658073 45.145656,8.49932157 46.1617349,10.5848033 C46.7205783,11.7259159 47,13.3588874 47,15.4837178 L47,29 L43.5135792,29 L43.5135792,15.71981 C43.5135792,14.4344188 43.3294149,13.3982361 42.9610863,12.6112619 C42.351439,11.2996382 41.2464532,10.6438263 39.6461289,10.6438263 C38.8332658,10.6438263 38.166464,10.7290819 37.6457236,10.8995929 C36.7058506,11.1881502 35.8802864,11.7652646 35.1690312,12.6309362 C34.5974868,13.3260968 34.225983,14.0442108 34.0545197,14.7852782 C33.8830563,15.5263455 33.7973247,16.5854817 33.7973247,17.9626866 L33.7973247,29 L30.3680584,29 L30.3680584,7.92876526 Z" id="路径"></path>
                </g>
                <g id="a" transform="translate(296.000000, 112.000000)" fill="#000000" fill-rule="nonzero">
                    <path d="M3.71174729,15.7669903 C3.71174729,16.776699 4.08687068,17.5728155 4.83711747,18.1553398 C5.58736426,18.7378641 6.47581441,19.0291262 7.50246792,19.0291262 C8.75287924,19.0291262 9.96380388,18.7443366 11.1352419,18.1747573 C13.1095755,17.2297735 14.0967423,15.6828479 14.0967423,13.5339806 L14.0967423,10.7184466 C13.6623889,10.9902913 13.1029944,11.2168285 12.4185587,11.3980583 C11.7341231,11.579288 11.0628496,11.7087379 10.4047384,11.7864078 L8.25271471,12.0582524 C6.96281672,12.2265372 5.99539322,12.4919094 5.35044423,12.8543689 C4.2579796,13.4627832 3.71174729,14.433657 3.71174729,15.7669903 Z M12.3198421,8.69902913 C13.1359,8.59546926 13.6821323,8.25889968 13.958539,7.68932039 C14.1164857,7.37864078 14.195459,6.93203883 14.195459,6.34951456 C14.195459,5.15857605 13.7643962,4.29449838 12.9022705,3.75728155 C12.0401448,3.22006472 10.8061862,2.95145631 9.20039487,2.95145631 C7.34452122,2.95145631 6.02829878,3.4433657 5.25172754,4.42718447 C4.81737414,4.97087379 4.53438631,5.77993528 4.40276407,6.85436893 L1.08588351,6.85436893 C1.15169464,4.29126214 1.99736756,2.50809061 3.62290227,1.50485437 C5.24843699,0.501618123 7.13392563,0 9.27936821,0 C11.7670286,0 13.7874301,0.466019417 15.3405726,1.39805825 C16.8805528,2.33009709 17.6505429,3.77993528 17.6505429,5.74757282 L17.6505429,17.7281553 C17.6505429,18.0906149 17.7262257,18.381877 17.8775913,18.6019417 C18.0289569,18.8220065 18.3481408,18.9320388 18.8351431,18.9320388 C18.9930898,18.9320388 19.1707799,18.9223301 19.3682132,18.9029126 C19.5656466,18.8834951 19.7762422,18.8543689 20,18.815534 L20,21.3980583 C19.4471866,21.5533981 19.0259954,21.6504854 18.7364265,21.6893204 C18.4468575,21.7281553 18.0519908,21.7475728 17.5518263,21.7475728 C16.3277394,21.7475728 15.4392892,21.3203883 14.8864758,20.4660194 C14.5969069,20.012945 14.3928924,19.3721683 14.2744324,18.5436893 C13.55051,19.4757282 12.5106943,20.2847896 11.1549852,20.9708738 C9.79927608,21.6569579 8.30536361,22 6.67324778,22 C4.71207634,22 3.10957552,21.4142395 1.86574531,20.2427184 C0.621915104,19.0711974 0,17.605178 0,15.8446602 C0,13.9158576 0.612043435,12.420712 1.83613031,11.3592233 C3.06021718,10.2977346 4.66600856,9.64401294 6.65350444,9.39805825 L12.3198421,8.69902913 Z" id="形状"></path>
                </g>
                <g id="Nonferrou" transform="translate(329.000000, 104.000000)" fill="#000000" fill-rule="nonzero">
                    <polygon id="路径" points="0 0.398299542 4.5387412 0.398299542 18.8695751 22.9686069 18.8695751 0.398299542 22.5198818 0.398299542 22.5198818 28.2603009 18.2129062 28.2603009 3.66962054 5.7089601 3.66962054 28.2603009 0 28.2603009"></polygon>
                    <path d="M36.3099296,26.06017 C38.6147088,26.06017 40.1952208,25.2035099 41.0514656,23.4901897 C41.9077104,21.7768694 42.3358328,19.8707216 42.3358328,17.7717462 C42.3358328,15.8750818 42.0268121,14.3324613 41.4087707,13.1438849 C40.4302053,11.2725093 38.7434674,10.3368215 36.3485571,10.3368215 C34.22404,10.3368215 32.6789366,11.1334205 31.713247,12.7266187 C30.7475574,14.3198169 30.2647126,16.2417702 30.2647126,18.4924787 C30.2647126,20.6546763 30.7475574,22.4565075 31.713247,23.8979725 C32.6789366,25.3394375 34.2111641,26.06017 36.3099296,26.06017 Z M36.4451261,7.35905821 C39.1104294,7.35905821 41.3637052,8.23152387 43.2049534,9.9764552 C45.0462016,11.7213865 45.9668257,14.2882058 45.9668257,17.676913 C45.9668257,20.9518204 45.1556464,23.6577284 43.5332879,25.794637 C41.9109293,27.9315457 39.3936984,29 35.9815951,29 C33.1360297,29 30.876316,28.0548289 29.202454,26.1644866 C27.528592,24.2741443 26.691661,21.735775 26.691661,18.5493787 C26.691661,15.1353826 27.5736575,12.4168302 29.3376505,10.3937214 C31.1016436,8.3706126 33.4708021,7.35905821 36.4451261,7.35905821 Z" id="形状"></path>
                    <path d="M50.0999773,7.9470242 L53.4026358,7.9470242 L53.4026358,10.8299542 C54.3812012,9.64137781 55.4177081,8.78787879 56.5121563,8.26945716 C57.6066046,7.75103554 58.8233735,7.49182472 60.1624631,7.49182472 C63.0981595,7.49182472 65.0810422,8.4970569 66.1111111,10.5075213 C66.677649,11.6075867 66.960918,13.1818182 66.960918,15.2302158 L66.960918,28.2603009 L63.426494,28.2603009 L63.426494,15.4578156 C63.426494,14.2186614 63.239794,13.2197515 62.866394,12.4610857 C62.2483526,11.1966427 61.1281527,10.5644212 59.5057941,10.5644212 C58.681739,10.5644212 58.0057563,10.64661 57.4778459,10.8109876 C56.5250322,11.089165 55.6881012,11.6455199 54.9670529,12.4800523 C54.3876392,13.1502071 54.0110202,13.8424896 53.8371961,14.5568999 C53.663372,15.2713102 53.5764599,16.2923479 53.5764599,17.6200131 L53.5764599,28.2603009 L50.0999773,28.2603009 L50.0999773,7.9470242 Z" id="路径"></path>
                    <path d="M72.9675074,4.85546109 C73.0190108,3.43928494 73.2700901,2.40244168 73.7207453,1.74493133 C74.5319246,0.581643776 76.0963417,0 78.4139968,0 C78.6328865,0 78.858214,0.00632221496 79.0899796,0.0189666449 C79.3217451,0.0316110748 79.5857002,0.0505777196 79.881845,0.0758665795 L79.881845,3.18639634 C79.5213209,3.16110748 79.2605847,3.14530194 79.0996364,3.13897973 C78.9386882,3.13265751 78.7873968,3.1294964 78.6457623,3.1294964 C77.5899417,3.1294964 76.9590245,3.39819054 76.7530107,3.93557881 C76.5469969,4.47296708 76.44399,5.84172662 76.44399,8.04185742 L79.881845,8.04185742 L79.881845,10.735121 L76.4053624,10.735121 L76.4053624,28.2603009 L72.9675074,28.2603009 L72.9675074,10.735121 L70.0897523,10.735121 L70.0897523,8.04185742 L72.9675074,8.04185742 L72.9675074,4.85546109 Z" id="路径"></path>
                    <path d="M91.7018859,7.49182472 C93.1697342,7.49182472 94.5925169,7.83006322 95.970234,8.50654022 C97.3479512,9.18301722 98.3973339,10.058644 99.1183822,11.1334205 C99.8136787,12.1576194 100.27721,13.352518 100.508975,14.7181164 C100.714989,15.6538042 100.817996,17.145847 100.817996,19.1942446 L85.6566689,19.1942446 C85.7210482,21.2552867 86.2167689,22.9085459 87.1438309,24.1540222 C88.070893,25.3994986 89.5065515,26.0222368 91.4508066,26.0222368 C93.2663031,26.0222368 94.7148375,25.4342708 95.7964099,24.2583388 C96.4144513,23.5755396 96.8522306,22.7852627 97.1097478,21.8875082 L100.528289,21.8875082 C100.438158,22.6335295 100.138794,23.4649008 99.6301977,24.381622 C99.1216012,25.2983431 98.5518443,26.0475256 97.9209271,26.6291694 C96.8651064,27.6407238 95.5582065,28.323523 94.0002272,28.677567 C93.1632962,28.8798779 92.2169204,28.9810334 91.1610998,28.9810334 C88.5859274,28.9810334 86.4034689,28.0611511 84.6137242,26.2213865 C82.8239794,24.381622 81.929107,21.8053194 81.929107,18.4924787 C81.929107,15.2302158 82.8304173,12.5812078 84.6330379,10.5454545 C86.4356586,8.50970133 88.7919412,7.49182472 91.7018859,7.49182472 Z M97.2449443,16.4820144 C97.1033099,15.0026161 96.7749754,13.8203619 96.2599409,12.9352518 C95.3071272,11.2914759 93.7169583,10.469588 91.4894342,10.469588 C89.8928274,10.469588 88.5537378,11.0354262 87.4721654,12.1671027 C86.390593,13.2987792 85.8176172,14.7370831 85.7532379,16.4820144 L97.2449443,16.4820144 Z" id="形状"></path>
                    <path d="M105.182913,7.9470242 L108.485571,7.9470242 L108.485571,11.4558535 C108.755965,10.7730543 109.419071,9.94168302 110.474892,8.9617397 C111.530713,7.98179638 112.747482,7.49182472 114.125199,7.49182472 C114.189578,7.49182472 114.299023,7.49814694 114.453533,7.51079137 C114.608044,7.5234358 114.871999,7.54872466 115.245399,7.58665795 L115.245399,11.1903205 C115.039385,11.1523872 114.849466,11.1270983 114.675642,11.1144539 C114.501818,11.1018095 114.311899,11.0954872 114.105885,11.0954872 C112.354768,11.0954872 111.00924,11.6486811 110.069302,12.7550687 C109.129365,13.8614563 108.659396,15.1353826 108.659396,16.5768476 L108.659396,28.2603009 L105.182913,28.2603009 L105.182913,7.9470242 Z" id="路径"></path>
                    <path d="M118.354919,7.9470242 L121.657578,7.9470242 L121.657578,11.4558535 C121.927971,10.7730543 122.591078,9.94168302 123.646898,8.9617397 C124.702719,7.98179638 125.919488,7.49182472 127.297205,7.49182472 C127.361584,7.49182472 127.471029,7.49814694 127.62554,7.51079137 C127.78005,7.5234358 128.044005,7.54872466 128.417405,7.58665795 L128.417405,11.1903205 C128.211391,11.1523872 128.021472,11.1270983 127.847648,11.1144539 C127.673824,11.1018095 127.483905,11.0954872 127.277891,11.0954872 C125.526774,11.0954872 124.181247,11.6486811 123.241309,12.7550687 C122.301371,13.8614563 121.831402,15.1353826 121.831402,16.5768476 L121.831402,28.2603009 L118.354919,28.2603009 L118.354919,7.9470242 Z" id="路径"></path>
                    <path d="M139.638718,26.06017 C141.943498,26.06017 143.52401,25.2035099 144.380254,23.4901897 C145.236499,21.7768694 145.664622,19.8707216 145.664622,17.7717462 C145.664622,15.8750818 145.355601,14.3324613 144.73756,13.1438849 C143.758994,11.2725093 142.072256,10.3368215 139.677346,10.3368215 C137.552829,10.3368215 136.007726,11.1334205 135.042036,12.7266187 C134.076346,14.3198169 133.593501,16.2417702 133.593501,18.4924787 C133.593501,20.6546763 134.076346,22.4565075 135.042036,23.8979725 C136.007726,25.3394375 137.539953,26.06017 139.638718,26.06017 Z M139.773915,7.35905821 C142.439218,7.35905821 144.692494,8.23152387 146.533742,9.9764552 C148.374991,11.7213865 149.295615,14.2882058 149.295615,17.676913 C149.295615,20.9518204 148.484435,23.6577284 146.862077,25.794637 C145.239718,27.9315457 142.722487,29 139.310384,29 C136.464819,29 134.205105,28.0548289 132.531243,26.1644866 C130.857381,24.2741443 130.02045,21.735775 130.02045,18.5493787 C130.02045,15.1353826 130.902446,12.4168302 132.666439,10.3937214 C134.430432,8.3706126 136.799591,7.35905821 139.773915,7.35905821 Z" id="形状"></path>
                    <path d="M156.905249,7.9470242 L156.905249,21.4323087 C156.905249,22.469152 157.072635,23.3163288 157.407407,23.9738391 C158.025449,25.1877044 159.177838,25.794637 160.864576,25.794637 C163.285238,25.794637 164.933348,24.7325049 165.808907,22.6082407 C166.285314,21.470242 166.523517,19.9086549 166.523517,17.9234794 L166.523517,7.9470242 L170,7.9470242 L170,28.2603009 L166.716655,28.2603009 L166.755283,25.263571 C166.304628,26.0348812 165.744528,26.6860693 165.074983,27.2171354 C163.748769,28.2792675 162.139287,28.8103336 160.246535,28.8103336 C157.297963,28.8103336 155.289328,27.8430347 154.220632,25.9084369 C153.641218,24.8715936 153.351511,23.4870286 153.351511,21.7547417 L153.351511,7.9470242 L156.905249,7.9470242 Z" id="路径"></path>
                </g>
                <g id="s" transform="translate(504.000000, 112.000000)" fill="#000000" fill-rule="nonzero">
                    <path d="M3.32692308,14.7245614 C3.42948718,15.8824561 3.71794872,16.7701754 4.19230769,17.3877193 C5.06410256,18.5070175 6.57692308,19.0666667 8.73076923,19.0666667 C10.0128205,19.0666667 11.1410256,18.7868421 12.1153846,18.227193 C13.0897436,17.6675439 13.5769231,16.8023392 13.5769231,15.6315789 C13.5769231,14.7438596 13.1858974,14.0684211 12.4038462,13.6052632 C11.9038462,13.3222222 10.9166667,12.994152 9.44230769,12.6210526 L6.69230769,11.9263158 C4.93589744,11.4888889 3.64102564,11 2.80769231,10.4596491 C1.32051282,9.52046784 0.576923077,8.22105263 0.576923077,6.56140351 C0.576923077,4.60584795 1.27884615,3.02339181 2.68269231,1.81403509 C4.08653846,0.604678363 5.97435897,0 8.34615385,0 C11.4487179,0 13.6858974,0.913450292 15.0576923,2.74035088 C15.9166667,3.89824561 16.3333333,5.14619883 16.3076923,6.48421053 L13.0384615,6.48421053 C12.974359,5.6994152 12.6987179,4.98538012 12.2115385,4.34210526 C11.4166667,3.42865497 10.0384615,2.97192982 8.07692308,2.97192982 C6.76923077,2.97192982 5.77884615,3.22280702 5.10576923,3.7245614 C4.43269231,4.22631579 4.09615385,4.88888889 4.09615385,5.7122807 C4.09615385,6.6128655 4.53846154,7.33333333 5.42307692,7.87368421 C5.93589744,8.19532164 6.69230769,8.47836257 7.69230769,8.72280702 L9.98076923,9.28245614 C12.4679487,9.8871345 14.1346154,10.4725146 14.9807692,11.0385965 C16.3269231,11.9263158 17,13.3222222 17,15.2263158 C17,17.0660819 16.3044872,18.6549708 14.9134615,19.9929825 C13.5224359,21.3309942 11.4038462,22 8.55769231,22 C5.49358974,22 3.32371795,21.3020468 2.04807692,19.9061404 C0.772435897,18.5102339 0.0897435897,16.7830409 0,14.7245614 L3.32692308,14.7245614 Z" id="路径"></path>
                </g>
                <g id="Meta" transform="translate(534.000000, 105.000000)" fill="#000000" fill-rule="nonzero">
                    <path d="M0,0 L5.49334557,0 L13.627352,23.9004645 L21.7035337,0 L27.1390546,0 L27.1390546,28.2687459 L23.4960991,28.2687459 L23.4960991,11.5846052 C23.4960991,11.0072993 23.5089491,10.0515373 23.5346489,8.71731918 C23.5603488,7.38310108 23.5731987,5.95266534 23.5731987,4.42601194 L15.497017,28.2687459 L11.6998623,28.2687459 L3.5658559,4.42601194 L3.5658559,5.2919708 C3.5658559,5.98473789 3.58191831,7.0399248 3.61404314,8.45753152 C3.64616797,9.87513824 3.66223038,10.9174961 3.66223038,11.5846052 L3.66223038,28.2687459 L0,28.2687459 L0,0 Z" id="路径"></path>
                    <path d="M41.1133547,7.19708029 C42.5782469,7.19708029 43.9981643,7.54025658 45.3731069,8.22660916 C46.7480496,8.91296173 47.795319,9.80137138 48.5149151,10.8918381 C49.2088114,11.9309887 49.6714089,13.1433311 49.9027077,14.5288653 C50.1083066,15.4782128 50.211106,16.9920372 50.211106,19.0703384 L35.0803121,19.0703384 C35.1445617,21.1614687 35.6392841,22.8388631 36.5644791,24.1025216 C37.4896742,25.36618 38.9224415,25.9980093 40.8627811,25.9980093 C42.6746214,25.9980093 44.1202386,25.4014599 45.1996329,24.208361 C45.8164296,23.5155939 46.2533272,22.7137801 46.5103258,21.8029197 L49.9219826,21.8029197 C49.832033,22.5598319 49.5332721,23.40334 49.0256999,24.3334439 C48.5181276,25.2635479 47.9495181,26.0236673 47.3198715,26.6138023 C46.2661771,27.6401239 44.9619091,28.332891 43.4070675,28.6921035 C42.5718219,28.8973678 41.627352,29 40.5736576,29 C38.0036714,29 35.8256081,28.0666888 34.0394676,26.2000664 C32.2533272,24.3334439 31.360257,21.7195311 31.360257,18.3583278 C31.360257,15.0484406 32.2597522,12.3607609 34.0587425,10.2952887 C35.8577329,8.22981641 38.2092703,7.19708029 41.1133547,7.19708029 Z M46.6452501,16.3185136 C46.5039009,14.8175182 46.1762276,13.6180049 45.6622304,12.7199735 C44.7113355,11.0522008 43.124369,10.2183145 40.9013309,10.2183145 C39.3079394,10.2183145 37.9715466,10.7924132 36.8921524,11.9406105 C35.8127581,13.0888078 35.2409362,14.5481088 35.1766866,16.3185136 L46.6452501,16.3185136 Z" id="形状"></path>
                    <path d="M55.1647545,1.90510949 L58.6727857,1.90510949 L58.6727857,7.65892502 L61.968793,7.65892502 L61.968793,10.487724 L58.6727857,10.487724 L58.6727857,23.9389516 C58.6727857,24.6573767 58.9169344,25.1384649 59.4052318,25.3822163 C59.6750803,25.5233355 60.1248279,25.5938952 60.7544745,25.5938952 C60.9215236,25.5938952 61.1014227,25.5906879 61.2941716,25.5842734 C61.4869206,25.5778589 61.7117944,25.5618226 61.968793,25.5361646 L61.968793,28.2687459 C61.5704452,28.384207 61.1560349,28.4675957 60.7255622,28.5189117 C60.2950895,28.5702278 59.8292795,28.5958859 59.3281322,28.5958859 C57.7090408,28.5958859 56.6103717,28.18215 56.0321248,27.3546782 C55.4538779,26.5272064 55.1647545,25.4527759 55.1647545,24.1313869 L55.1647545,10.487724 L52.3698944,10.487724 L52.3698944,7.65892502 L55.1647545,7.65892502 L55.1647545,1.90510949 Z" id="路径"></path>
                    <path d="M68.0982102,22.7843397 C68.0982102,23.7850033 68.4644332,24.5739881 69.1968793,25.151294 C69.9293254,25.7285999 70.7966957,26.0172528 71.7989904,26.0172528 C73.0197338,26.0172528 74.2019275,25.7350144 75.3455714,25.1705375 C77.273061,24.234019 78.2368059,22.7009511 78.2368059,20.5713338 L78.2368059,17.7810219 C77.8127581,18.0504313 77.2666361,18.2749392 76.5984397,18.4545455 C75.9302432,18.6341517 75.2748967,18.7624419 74.6324002,18.8394161 L72.5314364,19.1088255 C71.2721432,19.2756027 70.3276732,19.5385977 69.6980266,19.8978102 C68.6314823,20.5007742 68.0982102,21.4629507 68.0982102,22.7843397 Z M76.5020652,15.7796948 C77.2987609,15.6770626 77.832033,15.3435081 78.1018816,14.7790312 C78.2560808,14.4711347 78.3331804,14.0285335 78.3331804,13.4512276 C78.3331804,12.2709578 77.9123451,11.4146207 77.0706746,10.8822163 C76.2290041,10.349812 75.0243231,10.0836098 73.4566315,10.0836098 C71.6447912,10.0836098 70.3597981,10.5711126 69.6016521,11.5461181 C69.1776044,12.084937 68.9013309,12.8867507 68.7728316,13.9515594 L65.5346489,13.9515594 C65.5988986,11.4114134 66.4245067,9.64421588 68.0114732,8.64996682 C69.5984397,7.65571776 71.4391923,7.15859323 73.5337311,7.15859323 C75.9623681,7.15859323 77.9348325,7.62043796 79.4511244,8.54412741 C80.9545663,9.46781685 81.7062873,10.9046671 81.7062873,12.8546782 L81.7062873,24.7279363 C81.7062873,25.0871489 81.7801744,25.3758018 81.9279486,25.5938952 C82.0757228,25.8119885 82.3873336,25.9210352 82.8627811,25.9210352 C83.0169803,25.9210352 83.1904543,25.9114134 83.3832033,25.8921699 C83.5759523,25.8729263 83.7815512,25.844061 84,25.805574 L84,28.3649635 C83.4603029,28.5189117 83.0491051,28.6151294 82.7664066,28.6536165 C82.4837081,28.6921035 82.0982102,28.711347 81.6099128,28.711347 C80.4148692,28.711347 79.5474989,28.2879894 79.0078017,27.4412741 C78.7251033,26.9922583 78.5259293,26.3572219 78.4102799,25.5361646 C77.7035337,26.459854 76.6883892,27.2616678 75.3648463,27.9416058 C74.0413034,28.6215439 72.5828362,28.9615129 70.9894447,28.9615129 C69.074805,28.9615129 67.5103258,28.3809998 66.2960073,27.2199735 C65.0816888,26.0589471 64.4745296,24.6060606 64.4745296,22.8613139 C64.4745296,20.9497899 65.0720514,19.468038 66.267095,18.4160584 C67.4621386,17.3640787 69.0298302,16.7162132 70.9701698,16.4724618 L76.5020652,15.7796948 Z" id="形状"></path>
                </g>
                <g id="l" transform="translate(623.000000, 105.000000)" fill="#000000" fill-rule="nonzero">
                    <polygon id="路径" points="0 0 4 0 4 28 0 28"></polygon>
                </g>
                <g id="Mining(Group" transform="translate(640.000000, 104.000000)" fill="#000000" fill-rule="nonzero">
                    <path d="M0,0.736734694 L5.47626868,0.736734694 L13.5849893,24.8163265 L21.636065,0.736734694 L27.0546888,0.736734694 L27.0546888,29.2173469 L23.423058,29.2173469 L23.423058,12.4081633 C23.423058,11.8265306 23.435868,10.8636054 23.4614879,9.51938776 C23.4871079,8.17517007 23.4999179,6.73401361 23.4999179,5.19591837 L15.4488422,29.2173469 L11.6634915,29.2173469 L3.5547709,5.19591837 L3.5547709,6.06836735 C3.5547709,6.76632653 3.57078338,7.82942177 3.60280834,9.25765306 C3.63483331,10.6858844 3.65084579,11.7360544 3.65084579,12.4081633 L3.65084579,29.2173469 L0,29.2173469 L0,0.736734694 Z" id="路径"></path>
                    <path d="M32.4156676,8.55 L35.9320085,8.55 L35.9320085,29.2173469 L32.4156676,29.2173469 L32.4156676,8.55 Z M32.4156676,0.736734694 L35.9320085,0.736734694 L35.9320085,4.69183673 L32.4156676,4.69183673 L32.4156676,0.736734694 Z" id="形状"></path>
                    <path d="M41.1584825,8.45306122 L44.4442437,8.45306122 L44.4442437,11.4 C45.4178026,10.185034 46.4490064,9.31258503 47.5378551,8.78265306 C48.6267039,8.25272109 49.8372475,7.9877551 51.169486,7.9877551 C54.0901626,7.9877551 56.0629003,9.01530612 57.0876991,11.0704082 C57.6513385,12.194898 57.9331582,13.8040816 57.9331582,15.8979592 L57.9331582,29.2173469 L54.4168172,29.2173469 L54.4168172,16.1306122 C54.4168172,14.8639456 54.2310724,13.8428571 53.8595829,13.0673469 C53.2447036,11.7748299 52.1302348,11.1285714 50.5161767,11.1285714 C49.6963377,11.1285714 49.0238134,11.212585 48.498604,11.3806122 C47.5506651,11.664966 46.7180161,12.2336735 46.0006569,13.0867347 C45.4242076,13.7717687 45.0495155,14.4794218 44.8765807,15.2096939 C44.7036459,15.939966 44.6171785,16.9836735 44.6171785,18.3408163 L44.6171785,29.2173469 L41.1584825,29.2173469 L41.1584825,8.45306122 Z" id="路径"></path>
                    <path d="M63.0443423,8.55 L66.5606832,8.55 L66.5606832,29.2173469 L63.0443423,29.2173469 L63.0443423,8.55 Z M63.0443423,0.736734694 L66.5606832,0.736734694 L66.5606832,4.69183673 L63.0443423,4.69183673 L63.0443423,0.736734694 Z" id="形状"></path>
                    <path d="M71.7871572,8.45306122 L75.0729184,8.45306122 L75.0729184,11.4 C76.0464773,10.185034 77.0776811,9.31258503 78.1665298,8.78265306 C79.2553786,8.25272109 80.4659222,7.9877551 81.7981606,7.9877551 C84.7188372,7.9877551 86.691575,9.01530612 87.7163738,11.0704082 C88.2800131,12.194898 88.5618328,13.8040816 88.5618328,15.8979592 L88.5618328,29.2173469 L85.0454919,29.2173469 L85.0454919,16.1306122 C85.0454919,14.8639456 84.8597471,13.8428571 84.4882575,13.0673469 C83.8733782,11.7748299 82.7589095,11.1285714 81.1448514,11.1285714 C80.3250123,11.1285714 79.6524881,11.212585 79.1272787,11.3806122 C78.1793398,11.664966 77.3466908,12.2336735 76.6293316,13.0867347 C76.0528822,13.7717687 75.6781902,14.4794218 75.5052554,15.2096939 C75.3323206,15.939966 75.2458532,16.9836735 75.2458532,18.3408163 L75.2458532,29.2173469 L71.7871572,29.2173469 L71.7871572,8.45306122 Z" id="路径"></path>
                    <path d="M100.936279,8.08469388 C102.550337,8.08469388 103.959435,8.48537415 105.163574,9.28673469 C105.816883,9.73911565 106.483002,10.3982993 107.161931,11.2642857 L107.161931,8.64693878 L110.351618,8.64693878 L110.351618,27.5306122 C110.351618,30.1673469 109.967318,32.2482993 109.198719,33.7734694 C107.764001,36.5911565 105.054689,38 101.070783,38 C98.8546559,38 96.9908031,37.4991497 95.4792248,36.497449 C93.9676466,35.4957483 93.1221876,33.9285714 92.9428478,31.7959184 L96.4591887,31.7959184 C96.6257185,32.7265306 96.9587781,33.4438776 97.4583675,33.9479592 C98.2397766,34.7234694 99.4695352,35.1112245 101.147643,35.1112245 C103.79931,35.1112245 105.535063,34.1676871 106.354902,32.2806122 C106.841682,31.1690476 107.065856,29.185034 107.027427,26.3285714 C106.335687,27.3884354 105.503038,28.1768707 104.529479,28.6938776 C103.555921,29.2108844 102.268517,29.4693878 100.667269,29.4693878 C98.4383314,29.4693878 96.4880112,28.6712585 94.8163081,27.075 C93.144605,25.4787415 92.3087535,22.8387755 92.3087535,19.155102 C92.3087535,15.6782313 93.15101,12.9639456 94.8355231,11.0122449 C96.5200361,9.06054422 98.5536213,8.08469388 100.936279,8.08469388 Z M107.161931,18.7479592 C107.161931,16.1758503 106.636722,14.2693878 105.586303,13.0285714 C104.535884,11.7877551 103.197241,11.1673469 101.570373,11.1673469 C99.1364756,11.1673469 97.4711775,12.3176871 96.5744786,14.6183673 C96.1005091,15.8462585 95.8635244,17.4554422 95.8635244,19.4459184 C95.8635244,21.7853741 96.3342913,23.5658163 97.2758253,24.7872449 C98.2173592,26.0086735 99.4823452,26.6193878 101.070783,26.6193878 C103.555921,26.6193878 105.304483,25.4884354 106.316472,23.2265306 C106.880112,21.9469388 107.161931,20.4540816 107.161931,18.7479592 Z" id="形状"></path>
                    <path d="M124.666776,0.271428571 C122.655608,4.21360544 121.34899,7.11530612 120.746921,8.97653061 C119.837412,11.8071429 119.382657,15.0772109 119.382657,18.7867347 C119.382657,22.535034 119.901462,25.9602041 120.93907,29.0622449 C121.57957,30.9751701 122.841353,33.7282313 124.724421,37.3214286 L122.399409,37.3214286 C120.529151,34.3744898 119.369847,32.4938776 118.921498,31.6795918 C118.473148,30.8653061 117.986369,29.7602041 117.461159,28.3642857 C116.7438,26.4513605 116.244211,24.4091837 115.962391,22.2377551 C115.821481,21.1132653 115.751026,20.0404762 115.751026,19.0193878 C115.751026,15.1935374 116.346691,11.7877551 117.538019,8.80204082 C118.293809,6.90204082 119.869437,4.0585034 122.264904,0.271428571 L124.666776,0.271428571 Z" id="路径"></path>
                    <path d="M141.326162,0 C143.977829,0 146.270816,0.517006803 148.205124,1.55102041 C151.010511,3.03741497 152.727049,5.64183673 153.354738,9.36428571 L149.569387,9.36428571 C149.108228,7.28333333 148.153884,5.76785714 146.706356,4.81785714 C145.258827,3.86785714 143.433404,3.39285714 141.230087,3.39285714 C138.61685,3.39285714 136.416735,4.38163265 134.629742,6.35918367 C132.842749,8.33673469 131.949253,11.2836735 131.949253,15.2 C131.949253,18.5863946 132.685827,21.3426871 134.158975,23.4688776 C135.632124,25.595068 138.033996,26.6581633 141.364592,26.6581633 C143.913779,26.6581633 146.024224,25.9117347 147.695927,24.4188776 C149.36763,22.9260204 150.222697,20.5122449 150.261127,17.177551 L141.422237,17.177551 L141.422237,13.9785714 L153.815898,13.9785714 L153.815898,29.2173469 L151.35638,29.2173469 L150.434061,25.5530612 C149.140253,26.9877551 147.993759,27.9829932 146.99458,28.5387755 C145.316472,29.4952381 143.18361,29.9734694 140.595993,29.9734694 C137.252587,29.9734694 134.376745,28.8812925 131.968468,26.6969388 C129.342421,23.9568027 128.029397,20.1955782 128.029397,15.4132653 C128.029397,10.6438776 129.310396,6.85034014 131.872393,4.03265306 C134.30629,1.34421769 137.457546,0 141.326162,0 Z" id="路径"></path>
                    <path d="M159.369026,8.45306122 L162.654787,8.45306122 L162.654787,12.0397959 C162.923797,11.3418367 163.583511,10.4920068 164.63393,9.49030612 C165.684349,8.48860544 166.894892,7.9877551 168.265561,7.9877551 C168.329611,7.9877551 168.438496,7.99421769 168.592215,8.00714286 C168.745935,8.02006803 169.00854,8.04591837 169.38003,8.08469388 L169.38003,11.7683673 C169.17507,11.7295918 168.986123,11.7037415 168.813188,11.6908163 C168.640253,11.6778912 168.451306,11.6714286 168.246346,11.6714286 C166.504188,11.6714286 165.165544,12.2369048 164.230416,13.3678571 C163.295287,14.4988095 162.827722,15.8010204 162.827722,17.2744898 L162.827722,29.2173469 L159.369026,29.2173469 L159.369026,8.45306122 Z" id="路径"></path>
                    <path d="M180.543932,26.9683673 C182.836919,26.9683673 184.409345,26.0926871 185.261209,24.3413265 C186.113073,22.589966 186.539005,20.6414966 186.539005,18.4959184 C186.539005,16.5571429 186.231565,14.9802721 185.616686,13.7653061 C184.643127,11.852381 182.965019,10.8959184 180.582362,10.8959184 C178.468714,10.8959184 176.931516,11.7102041 175.970767,13.3387755 C175.010018,14.9673469 174.529644,16.9319728 174.529644,19.2326531 C174.529644,21.4428571 175.010018,23.2846939 175.970767,24.7581633 C176.931516,26.2316327 178.455904,26.9683673 180.543932,26.9683673 Z M180.678437,7.85204082 C183.330103,7.85204082 185.571851,8.74387755 187.403679,10.527551 C189.235507,12.3112245 190.151421,14.935034 190.151421,18.3989796 C190.151421,21.7465986 189.344392,24.512585 187.730333,26.6969388 C186.116275,28.8812925 183.611923,29.9734694 180.217277,29.9734694 C177.38627,29.9734694 175.138118,29.0073129 173.47282,27.075 C171.807522,25.1426871 170.974873,22.5479592 170.974873,19.2908163 C170.974873,15.8010204 171.852357,13.0221088 173.607325,10.9540816 C175.362293,8.88605442 177.71933,7.85204082 180.678437,7.85204082 Z" id="形状"></path>
                    <path d="M197.722122,8.45306122 L197.722122,22.2377551 C197.722122,23.297619 197.888652,24.1636054 198.221711,24.8357143 C198.836591,26.0765306 199.983084,26.6969388 201.661192,26.6969388 C204.06947,26.6969388 205.709148,25.6112245 206.580227,23.4397959 C207.054196,22.2765306 207.291181,20.6802721 207.291181,18.6510204 L207.291181,8.45306122 L210.749877,8.45306122 L210.749877,29.2173469 L207.483331,29.2173469 L207.521761,26.1540816 C207.073411,26.942517 206.516177,27.6081633 205.850057,28.1510204 C204.530629,29.2367347 202.929381,29.7795918 201.046313,29.7795918 C198.112826,29.7795918 196.114469,28.7908163 195.05124,26.8132653 C194.474791,25.7534014 194.186566,24.3380952 194.186566,22.5673469 L194.186566,8.45306122 L197.722122,8.45306122 Z" id="路径"></path>
                    <path d="M224.834456,26.8714286 C226.448514,26.8714286 227.79036,26.1896259 228.859993,24.8260204 C229.929627,23.462415 230.464444,21.4234694 230.464444,18.7091837 C230.464444,17.0547619 230.227459,15.6329932 229.75349,14.4438776 C228.856791,12.1561224 227.217113,11.0122449 224.834456,11.0122449 C222.438988,11.0122449 220.79931,12.2207483 219.915421,14.6377551 C219.441452,15.9302721 219.204467,17.5717687 219.204467,19.5622449 C219.204467,21.164966 219.441452,22.5285714 219.915421,23.6530612 C220.81212,25.7986395 222.451798,26.8714286 224.834456,26.8714286 Z M215.880276,8.55 L219.242897,8.55 L219.242897,11.3030612 C219.934636,10.3595238 220.690425,9.6292517 221.510264,9.1122449 C222.675973,8.33673469 224.046641,7.94897959 225.62227,7.94897959 C227.953687,7.94897959 229.93283,8.8505102 231.559698,10.6535714 C233.186566,12.4566327 234,15.0319728 234,18.3795918 C234,22.9034014 232.827886,26.1346939 230.483659,28.0734694 C228.997701,29.3013605 227.268353,29.9153061 225.295615,29.9153061 C223.745607,29.9153061 222.445393,29.5727891 221.394975,28.8877551 C220.780095,28.5 220.094761,27.8343537 219.338972,26.8908163 L219.338972,37.4959184 L215.880276,37.4959184 L215.880276,8.55 Z" id="形状"></path>
                </g>
                <g id=")" transform="translate(878.000000, 104.000000)" fill="#000000" fill-rule="nonzero">
                    <path d="M0.0578158458,37 C2.1006424,32.9986046 3.41755889,30.0814582 4.00856531,28.248561 C4.90792291,25.4733996 5.35760171,22.2206524 5.35760171,18.4903192 C5.35760171,14.759986 4.8372591,11.3458922 3.79657388,8.24803768 C3.15417559,6.33769405 1.88865096,3.58834816 0,0 L2.33190578,0 C4.31049251,3.17530089 5.50856531,5.13404849 5.9261242,5.8762428 C6.34368308,6.61843712 6.79657388,7.6413745 7.28479657,8.94505495 C7.90149893,10.5585208 8.34154176,12.1526252 8.60492505,13.7273679 C8.86830835,15.3021106 9,16.8187685 9,18.2773417 C9,22.098029 8.39614561,25.5056689 7.18843683,28.5002616 C6.43040685,30.423513 4.85653105,33.2567591 2.46680942,37 L0.0578158458,37 Z" id="路径"></path>
                </g>
                <g id="Co.,Lt" transform="translate(900.000000, 104.000000)" fill="#000000" fill-rule="nonzero">
                    <path d="M13.2472775,0 C16.8443485,0 19.635624,0.918918919 21.621104,2.75675676 C23.6065841,4.59459459 24.7089123,6.6824784 24.9280886,9.02040816 L21.1763049,9.02040816 C20.7508449,7.24508182 19.9031481,5.83857327 18.6332144,4.80088252 C17.3632808,3.76319176 15.5808612,3.24434639 13.2859557,3.24434639 C10.4882338,3.24434639 8.22878333,4.19764663 6.50760421,6.1042471 C4.78642508,8.01084758 3.92583552,10.9332598 3.92583552,14.8714837 C3.92583552,18.0970767 4.70262236,20.7131826 6.25619602,22.7198014 C7.80976968,24.7264203 10.1272375,25.7297297 13.2085993,25.7297297 C16.0449994,25.7297297 18.2045312,24.6732855 19.6871949,22.5603971 C20.4736513,21.4476926 21.0602704,19.9849237 21.4470522,18.1720905 L25.1988359,18.1720905 C24.863625,21.0726236 23.7548504,23.5043206 21.8725122,25.4671815 C19.6162849,27.8301158 16.5736012,29.011583 12.7444611,29.011583 C9.44392289,29.011583 6.67198648,28.0426549 4.4286519,26.1047987 C1.4762173,23.5418275 0,19.5848502 0,14.2338665 C0,10.1706196 1.10877457,6.83875712 3.3263237,4.2382791 C5.72437101,1.4127597 9.03135561,0 13.2472775,0 Z" id="路径"></path>
                    <path d="M37.6338716,26.1235521 C39.9416698,26.1235521 41.5242521,25.2765214 42.3816185,23.58246 C43.2389849,21.8883986 43.667668,20.0036771 43.667668,17.9282956 C43.667668,16.0529509 43.3582426,14.5276705 42.7393917,13.3524545 C41.7595444,11.5021144 40.0705971,10.5769443 37.6725498,10.5769443 C35.5452497,10.5769443 33.9981224,11.3645891 33.0311679,12.9398787 C32.0642133,14.5151682 31.580736,16.4155176 31.580736,18.6409266 C31.580736,20.7788196 32.0642133,22.5603971 33.0311679,23.9856591 C33.9981224,25.4109211 35.532357,26.1235521 37.6338716,26.1235521 Z M37.7692452,7.63265306 C40.4380398,7.63265306 42.6942671,8.49531164 44.5379271,10.2206288 C46.3815872,11.9459459 47.3034172,14.4839125 47.3034172,17.8345284 C47.3034172,21.0726236 46.4911754,23.7481155 44.8666917,25.8610039 C43.242208,27.9738923 40.7216798,29.0303365 37.305107,29.0303365 C34.4558142,29.0303365 32.1931406,28.0957897 30.517086,26.2266961 C28.8410314,24.3576025 28.0030041,21.8477661 28.0030041,18.697187 C28.0030041,15.3215665 28.886156,12.6335723 30.6524596,10.6332046 C32.4187633,8.63283692 34.7910252,7.63265306 37.7692452,7.63265306 Z" id="形状"></path>
                    <polygon id="路径" points="52.2735637 24.2107005 56.3154337 24.2107005 56.3154337 28.298952 52.2735637 28.298952"></polygon>
                    <path d="M63.1808111,32.2184225 C64.0704093,32.0683949 64.6957066,31.4620335 65.056703,30.3993381 C65.2500939,29.8367347 65.3467893,29.2928847 65.3467893,28.7677882 C65.3467893,28.6802721 65.3435662,28.6021327 65.3371198,28.5333701 C65.3306734,28.4646075 65.3145575,28.3864681 65.2887721,28.298952 L63.1808111,28.298952 L63.1808111,24.2107005 L67.3193766,24.2107005 L67.3193766,27.9988969 C67.3193766,29.4866703 67.0099512,30.7931605 66.3911003,31.9183673 C65.7722493,33.0435742 64.702153,33.7374517 63.1808111,34 L63.1808111,32.2184225 Z" id="路径"></path>
                    <polygon id="路径" points="73.9140068 0.750137893 77.7624859 0.750137893 77.7624859 25.0170987 92.1507698 25.0170987 92.1507698 28.298952 73.9140068 28.298952"></polygon>
                    <path d="M96.1733008,2.60672918 L99.6930154,2.60672918 L99.6930154,8.21400993 L103,8.21400993 L103,10.9707667 L99.6930154,10.9707667 L99.6930154,24.0794264 C99.6930154,24.7795551 99.9379772,25.2483912 100.427901,25.4859349 C100.698648,25.6234602 101.149894,25.6922228 101.781637,25.6922228 C101.949243,25.6922228 102.129741,25.6890973 102.323132,25.6828461 C102.516523,25.676595 102.742145,25.6609671 103,25.6359625 L103,28.298952 C102.600325,28.4114727 102.184535,28.4927376 101.752629,28.5427468 C101.320722,28.592756 100.853361,28.6177606 100.350544,28.6177606 C98.7260608,28.6177606 97.6237326,28.2145615 97.0435599,27.4081633 C96.4633872,26.601765 96.1733008,25.5546976 96.1733008,24.2669608 L96.1733008,10.9707667 L93.3691326,10.9707667 L93.3691326,8.21400993 L96.1733008,8.21400993 L96.1733008,2.60672918 Z" id="路径"></path>
                </g>
                <g id="d" transform="translate(1006.000000, 105.000000)" fill="#000000" fill-rule="nonzero">
                    <path d="M3.60379347,18.2400794 C3.60379347,20.4393739 4.06533193,22.2806437 4.98840885,23.7638889 C5.91148577,25.247134 7.39093783,25.9887566 9.42676502,25.9887566 C11.0073762,25.9887566 12.3066386,25.3014771 13.3245522,23.926918 C14.3424658,22.5523589 14.8514226,20.5800265 14.8514226,18.0099206 C14.8514226,15.4142416 14.3266596,13.4930556 13.2771338,12.2463624 C12.227608,10.9996693 10.9315068,10.3763228 9.38883035,10.3763228 C7.6691254,10.3763228 6.27502634,11.0412257 5.20653319,12.3710317 C4.13804004,13.7008377 3.60379347,15.6571869 3.60379347,18.2400794 Z M8.74394099,7.36507937 C10.2992624,7.36507937 11.601686,7.69753086 12.6512118,8.36243386 C13.2581665,8.74603175 13.947313,9.41732804 14.7186512,10.3763228 L14.7186512,0 L18,0 L18,28.271164 L14.9272919,28.271164 L14.9272919,25.4133598 C14.1306639,26.6792328 13.1886196,27.5934744 12.1011591,28.1560847 C11.0136986,28.7186949 9.76817703,29 8.36459431,29 C6.10115911,29 4.14120126,28.0378086 2.48472076,26.1134259 C0.828240253,24.1890432 0,21.6285273 0,18.4318783 C0,15.4398148 0.755532139,12.8473325 2.26659642,10.6544312 C3.7776607,8.46152998 5.93677555,7.36507937 8.74394099,7.36507937 Z" id="形状"></path>
                </g>
            </g>
        </g>
    </g>
</svg>