<?xml version="1.0" encoding="UTF-8"?>
<svg width="1024px" height="117px" viewBox="0 0 1024 117" version="1.1" xmlns="http://www.w3.org/2000/svg" xmlns:xlink="http://www.w3.org/1999/xlink">
    <title>中国机械工业集团有限公司@2x</title>
    <g id="页面-1" stroke="none" stroke-width="1" fill="none" fill-rule="evenodd">
        <g id="31.中国机械工业集团有限公司" transform="translate(0.000000, -327.000000)">
            <g id="中国机械工业集团有限公司" transform="translate(0.000000, 327.000000)">
                <g id="编组-2" transform="translate(0.000000, 0.070175)">
                    <polygon id="Fill-2" fill="#005BAB" points="6.21052632 92.122807 34.5466261 0 72.3403387 0 90.0526316 14.6904339 106.185157 0 143.18951 0 173.894737 92.122807 90.0526316 43.2835202"></polygon>
                    <polygon id="Fill-3" fill="#1E2087" points="89.8848832 60 0 115.894737 177 115.894737"></polygon>
                </g>
                <g id="编组" transform="translate(205.000000, 0.000000)" fill="#1E2087">
                    <path d="M29.3590524,35.7565502 L47.0225564,35.7565502 L47.0225564,19.740833 L29.3590524,19.740833 L29.3590524,35.7565502 Z M5.97849783,35.7565502 L23.6514898,35.7565502 L23.6514898,19.740833 L5.97849783,19.740833 L5.97849783,35.7565502 Z M29.6299877,1 C29.4465529,6.06469142 29.3590524,10.8681425 29.3590524,15.3913923 L53,15.3913923 C52.8165652,19.0161018 52.7290647,23.9944154 52.7290647,30.3242263 C52.7290647,36.4812815 52.8165652,41.101443 53,44.1752303 L47.0225564,44.1752303 L47.0225564,40.1059909 L29.3590524,40.1059909 L29.3590524,51.7828013 C29.3590524,53.956995 29.4465529,58.0262344 29.6299877,64 L23.1001313,64 C23.4680551,60.7418697 23.6514898,56.9433511 23.6514898,52.5949638 L23.6514898,40.1059909 L5.97849783,40.1059909 L5.97849783,44.1752303 L0,44.1752303 C0.184489,41.459595 0.271989498,36.848914 0.271989498,30.3242263 C0.271989498,23.6362633 0.184489,18.6484692 0,15.3913923 L23.6514898,15.3913923 C23.6514898,10.50051 23.5555556,5.70653937 23.3805546,1 L29.6299877,1 Z" id="Fill-4"></path>
                    <path d="M111.678015,39.5974763 C109.85908,40.6784809 108.319575,41.672206 107.053175,42.5786516 C106.511185,41.8551776 104.972735,39.964471 102.437825,36.8865521 C103.879265,35.806599 105.15621,34.8118223 106.24019,33.9043252 C107.13964,34.8118223 108.958575,36.7035805 111.678015,39.5974763 L111.678015,39.5974763 Z M105.427205,14.3852506 C108.14559,14.3852506 111.039015,14.297971 114.125405,14.1149994 L114.125405,18.997397 C111.40702,18.8144253 108.504105,18.7176817 105.427205,18.7176817 L98.6259697,18.7176817 L98.6259697,27.6717234 L103.521805,27.6717234 C106.78218,27.6717234 109.85908,27.5749797 112.76094,27.4014722 L112.76094,32.2744057 C109.85908,32.1008981 106.78218,32.0041545 103.521805,32.0041545 L98.6259697,32.0041545 L98.6259697,44.2096226 L106.24019,44.2096226 C109.500565,44.2096226 112.577465,44.112879 115.479325,43.9299074 L115.479325,48.812305 C112.76094,48.6387974 109.68404,48.5420538 106.24019,48.5420538 L87.7503201,48.5420538 C84.6744747,48.5420538 81.5870302,48.6387974 78.5111848,48.812305 L78.5111848,43.9299074 C81.5870302,44.112879 84.6744747,44.2096226 87.7503201,44.2096226 L93.7301348,44.2096226 L93.7301348,32.0041545 L89.9277698,32.0041545 C86.8413798,32.0041545 83.9479551,32.1008981 81.2295699,32.2744057 L81.2295699,27.4014722 C83.9479551,27.5749797 86.8413798,27.6717234 89.9277698,27.6717234 L93.7301348,27.6717234 L93.7301348,18.7176817 L89.6567749,18.7176817 C86.3963998,18.7176817 83.22249,18.8144253 80.1455901,18.997397 L80.1455901,14.1149994 C83.22249,14.297971 86.3963998,14.3852506 89.6567749,14.3852506 L105.427205,14.3852506 Z M74.4378248,55.8651244 L119.56323,55.8651244 L119.56323,7.06218001 L74.4378248,7.06218001 L74.4378248,55.8651244 Z M124.729005,18.1771794 L124.729005,47.190798 C124.729005,52.7872054 124.816525,58.3068489 125,63.7286973 L119.56323,63.7286973 L119.56323,59.9273044 L74.4378248,59.9273044 L74.4378248,64 L69,64 C69.1739851,58.3941285 69.270995,52.6136979 69.270995,46.6408316 L69.270995,18.1771794 C69.270995,12.7542795 69.1739851,7.69942595 69,3 L125,3 C124.816525,7.51540278 124.729005,12.5818235 124.729005,18.1771794 L124.729005,18.1771794 Z" id="Fill-6"></path>
                    <path d="M187.035755,17.6624404 L187.035755,53.1728893 C187.035755,55.5353793 187.578002,56.8077337 188.662496,56.9920715 C189.756484,57.1774687 190.656361,57.2262017 191.38217,57.1287357 C192.107979,57.0408045 192.611192,56.4093946 192.882316,55.223912 C193.153439,54.0373699 193.289528,52.2586163 193.289528,49.8961263 C194.924709,50.8103993 196.821518,51.5297404 199,52.0742785 C198.274191,55.9040548 197.548382,58.4508826 196.821518,59.7242964 C196.096764,60.9977103 194.924709,61.6386549 193.289528,61.6386549 L187.578002,61.6386549 C185.400575,61.6386549 183.811812,61.1343745 182.815935,60.1321703 C181.817947,59.1310254 181.41179,57.0800027 181.595352,53.9886369 L181.595352,9.1956154 L171.256792,9.1956154 C171.256792,19.5778583 171.122813,27.63575 170.850635,33.3714095 C170.579511,39.1060096 169.767196,44.297131 168.402084,48.9341797 C167.046467,53.5807631 164.365826,58.2665448 160.377041,63 C159.46767,61.9109239 157.840929,60.4531723 155.489434,58.6352203 C158.024491,56.6329306 160.058445,54.1729747 161.607119,51.2574714 C163.145243,48.3504434 164.191758,45.3470089 164.73295,42.2461084 C165.275197,39.155802 165.633882,35.8695043 165.817444,32.4084035 C166.002061,28.9578969 166.088568,24.5835825 166.088568,19.3055893 C166.088568,13.8421988 166.002061,8.92334638 165.817444,4.55856672 L187.306878,4.55856672 C187.123316,9.6522222 187.035755,14.0265366 187.035755,17.6624404 M161.742153,36.2392393 C160.474097,37.327256 158.925423,38.513798 157.11512,39.7872119 C156.030626,37.4247219 154.124322,34.2369496 151.404648,30.2313108 L151.404648,50.1694547 C151.404648,53.8138339 151.491155,57.9063445 151.674717,62.455462 L145.693122,62.455462 C145.876684,57.9063445 145.964245,53.8138339 145.964245,50.1694547 L145.964245,32.6912667 C145.053819,35.4224322 144.056886,38.0084582 142.972393,40.4673547 C141.888954,42.9273106 140.34028,45.7072091 138.346415,48.7985749 C136.719674,46.9795636 135.268056,45.5218119 134,44.4337953 C135.451618,42.7906464 137.348427,39.6124088 139.710472,34.8683594 C142.063021,30.1338448 143.882819,24.8558515 145.150875,19.0333202 L143.515694,19.0333202 C140.979583,19.0333202 138.442416,19.217658 135.906304,19.5778583 L135.906304,14.3867368 C138.442416,14.5710746 140.892021,14.6590059 143.243516,14.6590059 L145.964245,14.6590059 L145.964245,9.1956154 C145.964245,6.28858739 145.876684,3.55742187 145.693122,1 L151.946895,1 C151.58821,2.82854604 151.404648,5.55971157 151.404648,9.1956154 L151.404648,14.6590059 L154.395446,14.6590059 C156.389311,14.6590059 158.654299,14.5710746 161.199906,14.3867368 L161.199906,19.3055893 C157.202681,19.1201921 153.939705,19.0333202 151.404648,19.0333202 L151.404648,29.9590417 C152.488087,29.0458281 153.756143,28.0436239 155.208816,26.9556072 C158.112052,30.9601866 160.290535,34.0515524 161.742153,36.2392393" id="Fill-7"></path>
                    <path d="M260.73602,4.47479392 C261.453656,5.65458893 262.353831,6.88178641 263.42507,8.14795927 C261.989797,8.87269049 260.649445,9.59742171 259.396711,10.3126724 C258.86057,9.23084254 258.228466,8.18588125 257.51083,7.19042921 C256.793194,6.19603056 255.89302,5.06469142 254.821781,3.79851857 C255.89302,2.89997826 257.146797,1.99090407 258.583112,1.08288327 C259.300748,2.16471316 260.018384,3.3055328 260.73602,4.47479392 L260.73602,4.47479392 Z M246.217449,12.2171987 C246.217449,9.86919591 246.169467,7.82983597 246.083935,6.10859933 C245.987972,4.38736268 245.949378,2.34800274 245.949378,0 C247.557801,0.183289581 249.528171,0.357098667 251.864661,0.541441637 C251.327477,2.34800274 251.012468,4.06923939 250.925893,5.70304479 C250.82993,7.32631632 250.792379,9.50050997 250.792379,12.2171987 L255.089851,12.2171987 C258.315041,12.2171987 261.81769,12.1297674 265.579021,11.9464778 L265.579021,16.5666394 C261.989797,16.3833498 258.496537,16.2959185 255.089851,16.2959185 L250.792379,16.2959185 C250.792379,17.5620914 250.82993,19.0505292 250.925893,20.7707125 C251.012468,22.4919491 251.145982,24.4828532 251.327477,26.7444781 C251.500627,29.0155835 251.816679,31.2772084 252.266245,33.5388332 C252.715811,35.8004581 253.299933,38.468691 254.017569,41.5519588 C255.089851,38.284348 256.036964,34.9408932 256.841175,31.5005267 C257.645387,28.0591068 258.142934,24.531309 258.315041,20.9065996 C260.104959,21.2731787 262.171293,21.718762 264.507782,22.2696842 C263.789103,23.535857 263.204981,25.0716973 262.755415,26.8803652 C262.305849,28.6964068 261.769708,30.638855 261.138648,32.7171903 C260.515931,34.8050061 259.836889,37.1150869 259.127598,39.6474326 C258.411004,42.1797783 257.414867,44.896467 256.171521,47.7953918 C257.24276,50.144448 258.180485,51.8267092 258.995127,52.8211079 C259.798295,53.8176133 260.554525,54.4938887 261.272161,54.8520407 C261.989797,55.2186199 262.525938,53.4120588 262.889972,49.4186634 C264.325244,50.144448 266.028587,50.781748 268,51.324243 C267.282364,55.1227615 266.564728,57.7509656 265.847092,59.2014814 C265.129455,60.6509439 264.238669,61.4146505 263.158042,61.5105088 C262.08576,61.5989934 260.602507,60.9216647 258.727056,59.4711489 C256.841175,58.0216864 254.908356,55.5767719 252.9359,52.1364054 C251.500627,53.9535004 250.208257,55.5377966 249.041055,56.8914007 C247.87281,58.2534319 246.484476,59.8293009 244.877096,61.6463959 C243.260329,60.3802231 241.374448,59.2878593 239.22154,58.389319 C242.456117,56.2140719 244.782176,54.4075108 246.217449,52.956995 C247.652721,51.5075326 249.174569,49.5166285 250.792379,46.9842828 C250.0737,44.6257462 249.442639,42.27669 248.906498,39.9181534 C248.3714,37.5690973 247.920791,35.0757269 247.557801,32.4475229 C247.203155,29.8277459 246.935085,27.1500326 246.75359,24.4343973 L246.217449,16.2959185 L237.345046,16.2959185 C234.291963,16.2959185 230.798703,16.3833498 226.855876,16.5666394 L226.855876,11.9464778 C230.444057,12.1297674 233.938361,12.2171987 237.345046,12.2171987 L246.217449,12.2171987 Z M229.276855,26.8803652 C229.276855,25.0716973 229.181935,23.2651362 229.008785,21.4480412 C230.444057,21.6313308 232.05248,21.718762 233.851785,21.718762 C233.67029,23.177705 233.535733,24.8494323 233.439771,26.7444781 C233.354238,28.6490043 233.306257,30.1374421 233.306257,31.2287525 L237.345046,31.2287525 L237.345046,28.5131172 C237.345046,25.7974819 237.249083,23.4484258 237.076976,21.4480412 L242.188047,21.4480412 C241.824014,23.4484258 241.642518,25.5267611 241.642518,27.7009547 L241.642518,31.2287525 C243.260329,31.2287525 244.877096,31.1423746 246.484476,30.9590851 L246.484476,35.2979919 C244.695601,35.1241828 243.077791,35.0272711 241.642518,35.0272711 L241.642518,41.8226796 C241.642518,45.8044878 241.738481,49.6904376 241.910589,53.4984366 L237.076976,53.4984366 C237.249083,50.4246493 237.345046,46.887371 237.345046,42.9045095 L237.345046,35.0272711 L233.306257,35.0272711 C233.306257,37.2025181 233.1717,39.464143 232.90363,41.8226796 C232.636602,44.1717357 232.100461,46.5302724 231.29625,48.8782751 C230.482651,51.2368117 229.008785,54.13679 226.855876,57.567676 C225.238066,56.1276941 223.897713,55.2186199 222.825431,54.8520407 C224.969995,52.1364054 226.4908,49.5545505 227.390974,47.1191165 C228.291149,44.674202 228.912822,40.6428846 229.276855,35.0272711 C228.023078,35.0272711 226.673338,35.1241828 225.238066,35.2979919 L225.238066,30.9590851 C226.4908,31.1423746 227.84054,31.2287525 229.276855,31.2287525 L229.276855,26.8803652 Z M213.140473,7.32631632 C213.140473,4.97831358 213.04451,2.80306653 212.872402,0.812162456 L218.251544,0.812162456 C217.887511,2.98635611 217.71436,5.16160316 217.71436,7.32631632 L217.71436,15.2035548 L220.404453,15.2035548 C221.112701,15.2035548 222.549016,15.1171769 224.701925,14.9328339 L224.701925,19.5529955 C222.549016,19.3697059 221.112701,19.2822747 220.404453,19.2822747 L217.71436,19.2822747 L217.71436,30.1374421 C218.787685,29.5960005 219.772349,28.9671276 220.672523,28.2423964 C221.380772,29.5085692 222.146389,30.8716538 222.959988,32.3116358 C223.7642,33.7610982 224.433854,35.1241828 224.969995,36.3903556 C223.716218,37.1150869 222.549016,37.9272493 221.476735,38.8363235 C220.940594,37.7439597 220.30849,36.5736452 219.590854,35.2979919 C218.873217,34.0328724 218.251544,32.8530774 217.71436,31.7701941 L217.71436,54.0398783 C217.71436,56.7555136 217.800936,59.7429231 217.983474,63 L212.872402,63 C213.04451,60.2833113 213.140473,57.2969552 213.140473,54.0398783 L213.140473,31.5005267 C212.604332,33.4903774 211.800121,35.8499674 210.718451,38.5656027 C209.647212,41.4550471 208.5645,44.0843045 207.493261,46.4333606 C206.420979,44.6257462 205.253777,43.0888525 204,41.8226796 C205.071239,40.1888742 206.104927,38.284348 207.091677,36.1196348 C208.077383,33.9454412 208.929576,31.7701941 209.647212,29.5960005 C210.355461,27.4302339 210.986522,25.4393298 211.522662,23.6222349 C212.068191,21.8146204 212.421794,20.3651579 212.604332,19.2822747 L210.451424,19.2822747 C209.551249,19.2822747 207.579836,19.3697059 204.536141,19.5529955 L204.536141,14.9328339 C206.8622,15.1171769 208.5645,15.2035548 209.647212,15.2035548 L213.140473,15.2035548 L213.140473,7.32631632 Z" id="Fill-8"></path>
                    <path d="M319.225709,6.26851907 C323.537444,6.26851907 327.484734,6.18146015 331.079065,6 L331.079065,11.4081419 C327.484734,11.2256328 323.537444,11.1385739 319.225709,11.1385739 L308.187916,11.1385739 L308.187916,53.8614261 L325.69279,53.8614261 C329.813426,53.8614261 333.588414,53.7743672 337,53.5918581 L337,59 C333.588414,58.8174909 329.908454,58.7314809 325.961164,58.7314809 L284.23267,58.7314809 C280.275982,58.7314809 276.864396,58.8174909 274,59 L274,53.5918581 C277.046096,53.7743672 280.543312,53.8614261 284.501044,53.8614261 L302.265937,53.8614261 L302.265937,11.1385739 L291.495475,11.1385739 C286.829736,11.1385739 282.795773,11.2256328 279.384187,11.4081419 L279.384187,6 C282.795773,6.18146015 286.829736,6.26851907 291.495475,6.26851907 L319.225709,6.26851907 Z" id="Fill-9"></path>
                    <path d="M392.871452,43.7339589 C391.077109,42.6591483 389.187611,41.8522555 387.211323,41.304908 C390.981954,34.2940455 393.859596,25.8441718 395.836928,15.9437748 C397.813216,16.6638037 400.058236,17.3838326 402.570944,18.1038614 C400.24018,24.2209672 397.007016,32.7671238 392.871452,43.7339589 L392.871452,43.7339589 Z M359.443965,41.0359437 C357.468723,41.4011909 355.39519,42.1212198 353.245324,43.1960303 C350.013206,32.7671238 347.134518,24.6730783 344.620765,18.9107542 C346.415108,18.2011909 348.391395,17.3838326 350.549626,16.4806568 C352.699492,22.0608805 355.67438,30.24179 359.443965,41.0359437 L359.443965,41.0359437 Z M369.960113,3 C369.59518,8.03078311 369.422647,12.3520029 369.422647,15.9437748 L369.422647,55.6133887 L378.316985,55.6133887 L378.316985,12.7078311 C378.316985,9.83608805 378.133996,6.59072537 377.779519,3 L384.515626,3 C384.149647,5.86964995 383.978159,8.93395886 383.978159,12.1699026 L383.978159,55.6133887 L394.493262,55.6133887 C397.362539,55.6133887 400.864436,55.4302418 405,55.0660411 L405,61 C400.864436,60.6452183 397.458739,60.4620715 394.761996,60.4620715 L353.783836,60.4620715 C351.260672,60.4620715 347.671985,60.6452183 343,61 L343,55.0660411 C347.671985,55.4302418 351.173882,55.6133887 353.515103,55.6133887 L363.484374,55.6133887 L363.484374,15.6748105 C363.484374,11.9009383 363.215641,7.67495489 362.677129,3 L369.960113,3 Z" id="Fill-10"></path>
                    <path d="M450.067251,2.71172178 C451.062719,3.79304451 452.107698,5.05739268 453.189546,6.50476629 C452.107698,7.41253041 450.561298,8.40654789 448.569307,9.48681875 C447.487459,8.03944514 446.577317,6.87186904 445.863107,5.96515679 C445.128883,5.05739268 444.229275,4.15909539 443.147427,3.25238314 C444.587433,2.34461903 445.949487,1.26434817 447.216734,0 C448.12477,0.723686806 449.072836,1.62093222 450.067251,2.71172178 L450.067251,2.71172178 Z M427.662358,34.4371836 L443.958549,34.4371836 L443.958549,30.6441391 L427.662358,30.6441391 L427.662358,34.4371836 Z M427.662358,26.5702452 L443.958549,26.5702452 L443.958549,22.2365393 L427.662358,22.2365393 L427.662358,26.5702452 Z M427.662358,18.1636973 L443.958549,18.1636973 L443.958549,13.8299915 L427.662358,13.8299915 L427.662358,18.1636973 Z M442.055045,43.9240024 C442.055045,43.2097824 441.967612,41.6656367 441.784319,39.3210177 L447.487459,39.3210177 C447.303113,41.849714 447.216734,43.383341 447.216734,43.9240024 L464.594773,43.9240024 C467.852958,43.9240024 471.022657,43.837749 474.105976,43.6536717 L474.105976,47.9968444 L454.823379,47.9968444 C457.355767,50.1689567 460.157827,51.8382749 463.2422,53.0153179 C466.316039,54.1934127 470.568639,55.4093748 476,56.673723 C474.376701,58.4787325 473.19794,60.2932089 472.473197,62.0982184 C468.847373,60.8338702 465.909424,59.7052133 463.647761,58.710144 C461.386098,57.7161265 459.298248,56.6358556 457.404224,55.4577608 C455.499666,54.2807179 453.91429,53.1026231 452.648096,51.9255802 C451.381901,50.7569522 450.018794,49.4452699 448.569307,47.9968444 L447.216734,47.9968444 L447.216734,54.23128 C447.216734,58.0348432 447.400027,61.2872263 447.758185,64 L441.784319,64 C441.967612,61.460785 442.055045,58.2084018 442.055045,54.23128 L442.055045,47.9968444 L440.972143,47.9968444 C439.705949,49.8018539 438.255409,51.4333048 436.62263,52.8806785 C434.998278,54.3291039 433.230662,55.6313194 431.326104,56.8094142 C429.431027,57.9864572 427.391633,59.1161659 425.217403,60.1964368 C423.04212,61.2872263 420.422299,62.271777 417.340033,63.1795411 C416.614236,61.3745316 415.532388,59.5695221 414.082901,57.7550457 C417.889911,56.8578003 421.776979,55.6313194 425.758854,54.0976925 C429.740728,52.5619617 432.727134,50.5255407 434.727552,47.9968444 L415.17423,47.9968444 L415.17423,43.6536717 C417.340033,43.837749 420.596111,43.9240024 424.945624,43.9240024 L442.055045,43.9240024 Z M431.731666,6.37012688 C431.006922,7.36414437 430.379092,8.49385313 429.837642,9.75714943 L463.2422,9.75714943 C465.95788,9.75714943 468.944287,9.67089606 472.202471,9.48681875 L472.202471,13.8299915 L449.389911,13.8299915 L449.389911,18.1636973 L459.985068,18.1636973 C462.149818,18.1636973 464.682206,18.0763921 467.581179,17.8933666 L467.581179,22.50687 C464.682206,22.3238446 462.149818,22.2365393 459.985068,22.2365393 L449.389911,22.2365393 L449.389911,26.5712971 L460.525466,26.5712971 C462.874561,26.5712971 465.590242,26.4839918 468.673561,26.2999145 L468.673561,30.9144698 C465.590242,30.7303925 462.874561,30.6441391 460.525466,30.6441391 L449.389911,30.6441391 L449.389911,34.4371836 L462.700749,34.4371836 C465.590242,34.4371836 468.490269,34.3498784 471.390295,34.1668529 L471.390295,38.7803563 C468.673561,38.596279 465.860967,38.5100256 462.971474,38.5100256 L427.662358,38.5100256 L427.662358,40.6716192 L422.229943,40.6716192 C422.588102,37.4192361 422.771394,34.4371836 422.771394,31.72441 L422.771394,19.2544869 C421.689546,20.876471 420.741481,22.1408191 419.920878,23.0475314 C419.107648,23.9552955 418.161689,25.0355664 417.069307,26.2999145 C415.803113,25.0355664 414.449487,23.9552955 413,23.0475314 C414.266194,21.6001578 416.343511,19.0714614 419.243537,15.4519755 C422.13303,11.8419565 424.270391,8.85990402 425.622964,6.50476629 C426.986072,4.15909539 427.933084,2.07534021 428.474534,0.270330682 C430.108367,1.17704293 432.098251,2.25836566 434.447346,3.52271383 C433.365498,4.42942607 432.456409,5.37610939 431.731666,6.37012688 L431.731666,6.37012688 Z" id="Fill-11"></path>
                    <path d="M517.649208,18.415649 C517.649208,14.4045855 517.563159,11.3952267 517.379518,9.38014473 L523.060845,9.38014473 C522.877204,11.3952267 522.790106,14.4045855 522.790106,18.415649 C526.402061,18.415649 529.560686,18.3180253 532.26598,18.133389 L532.26598,23.3318547 C529.560686,23.1578297 526.402061,23.060206 522.790106,23.060206 L522.790106,43.5749922 C522.973747,46.31058 521.933814,48.0922138 519.681851,48.9103434 C517.42779,49.7380232 514.857866,50.234631 511.967882,50.4192673 C511.967882,48.774519 511.331959,46.7679261 510.081102,44.402672 C513.325775,44.5873082 515.396196,44.4907456 516.301808,44.1299621 C517.196927,43.7596284 517.649208,42.7568625 517.649208,41.1206033 L517.649208,25.5230839 C515.310147,30.0806283 512.642631,34.0524302 509.667647,37.4215113 C506.692664,40.8001426 503.12898,44.1299621 498.989188,47.4109696 C497.900984,45.5900741 496.457041,44.1299621 494.65631,43.0295724 C499.345976,40.4786209 503.177251,37.4215113 506.152235,33.8677939 C509.128268,30.3130153 511.5156,26.7115472 513.325775,23.060206 L506.017914,23.060206 C503.668359,23.060206 500.789918,23.1578297 497.361604,23.3318547 L497.361604,18.133389 C500.423686,18.3180253 503.39867,18.415649 506.287604,18.415649 L517.649208,18.415649 Z M491.681327,53.4296872 L536.319723,53.4296872 L536.319723,6.91726681 L491.681327,6.91726681 L491.681327,53.4296872 Z M541.73031,17.0425495 L541.73031,47.1382598 C541.73031,52.4258602 541.817408,57.7123995 542,63 L536.319723,63 L536.319723,58.3543819 L491.681327,58.3543819 L491.681327,63 L486,63 C486.173147,57.8970358 486.26969,52.6104965 486.26969,47.1382598 L486.26969,17.0425495 C486.26969,12.1157325 486.173147,7.10190307 486,2 L542,2 C541.817408,6.91726681 541.73031,11.9406464 541.73031,17.0425495 L541.73031,17.0425495 Z" id="Fill-12"></path>
                    <path d="M574.370477,44.0781833 L602.411723,44.0781833 L602.411723,37.3128996 L574.370477,37.3128996 L574.370477,44.0781833 Z M574.370477,32.9915091 L602.411723,32.9915091 L602.411723,25.417538 L574.370477,25.417538 L574.370477,32.9915091 Z M564.135071,29.0644979 C568.087046,25.0126698 571.685643,20.0084576 574.918316,14.0613013 L565.209841,14.0613013 C562.696469,14.0613013 559.549526,14.1473095 555.780513,14.3298149 L555.780513,9.19029702 C560.451789,9.37385123 563.95211,9.45985948 566.29402,9.45985948 L576.530471,9.45985948 C577.969074,5.13951785 578.774105,1.98238546 578.957067,0 C581.652356,0.721630261 583.810259,1.26075519 585.422414,1.61632592 C584.886075,2.16593966 583.983812,4.77345831 582.72608,9.45985948 L604.560217,9.45985948 C607.621429,9.45985948 610.768372,9.37385123 614,9.19029702 L614,14.3298149 C610.768372,14.1473095 607.890122,14.0613013 605.375704,14.0613013 L581.114971,14.0613013 C579.858285,16.3992575 578.505413,18.7477025 577.066811,21.0867075 L608.072038,21.0867075 C607.890122,25.6000433 607.803346,29.6518713 607.803346,33.2610715 L607.803346,55.1648575 C607.803346,57.6863679 607.082999,59.5344965 605.644396,60.7092435 C604.205794,61.8735016 601.145627,62.6433804 596.474352,63 C596.301845,61.0165657 595.668274,58.8516749 594.593504,56.5126698 C597.288793,56.8692894 599.265826,56.9657865 600.522512,56.7822323 C601.779198,56.599727 602.411723,55.6179742 602.411723,53.8086541 L602.411723,48.3995738 L574.370477,48.3995738 L574.370477,62.7304375 L568.442515,62.7304375 C568.624431,58.2254928 568.711207,54.347779 568.711207,51.1035895 L568.711207,31.9038193 C564.941149,36.2346497 560.988129,40.0169153 556.854238,43.2600559 C556.134936,41.9993007 554.523827,40.5560402 552,38.9397143 C556.134936,36.417155 560.183097,33.1257658 564.135071,29.0644979 L564.135071,29.0644979 Z" id="Fill-13"></path>
                    <path d="M654.726358,25.5342273 L672.841267,25.5342273 L672.841267,18.2000983 L654.726358,18.2000983 L654.726358,25.5342273 Z M654.726358,14.1328372 L672.841267,14.1328372 L672.841267,7.33897353 L654.726358,7.33897353 L654.726358,14.1328372 Z M677.708115,16.5771958 C677.708115,22.1915327 677.794087,26.6179176 677.977563,29.874254 L665.269449,29.874254 C665.269449,33.3233167 666.173202,36.9377238 667.972321,40.7353788 C672.65779,37.6622902 675.717131,34.859861 677.170266,32.3186127 C678.603481,34.4933652 679.959111,36.125746 681.219333,37.2083831 C677.977563,38.841817 674.014468,41.189286 669.329,44.2718528 C671.310547,46.9868707 673.379115,49.3353928 675.544139,51.3258443 C677.708115,53.3173489 680.853428,55.0371411 685,56.486274 C682.84546,57.568911 681.219333,59.2887032 680.142588,61.6467036 C675.813588,58.9316857 672.43657,56.168223 670.003145,53.3647406 C667.568673,50.5623113 665.587125,47.307028 664.057454,43.5851997 C662.518348,39.8854876 661.488782,35.3042898 660.949885,29.874254 L654.725309,29.874254 L654.725309,54.5832339 C657.611659,53.1435793 660.227511,51.422734 662.565527,49.4228042 C662.749004,51.0562382 663.105473,52.9592782 663.652757,55.1340308 C662.027679,56.0323668 659.911931,57.2118936 657.29503,58.6610265 C654.686517,60.1101594 652.474313,61.5498139 650.676242,63 C649.954917,61.5498139 648.963095,59.9269115 647.702873,58.1197079 C648.779618,57.0275925 649.501992,55.4036369 649.867897,53.2299375 L649.867897,14.9437618 C649.867897,11.3293548 649.771441,7.33897353 649.598448,3 L677.977563,3 C677.794087,6.25633645 677.708115,10.7785579 677.708115,16.5771958 L677.708115,16.5771958 Z M638.247012,24.7233027 C641.844202,29.0622762 643.923254,33.0431791 644.461103,36.6670645 C645,40.2909499 644.230447,43.2766271 642.161879,45.6251492 C640.083875,47.9831496 637.515202,49.6060521 634.455861,50.5138665 C634.273433,48.1663975 633.465087,46.0790564 632.022437,44.2718528 C635.264206,44.2718528 637.34221,43.6346977 638.247012,42.3688128 C639.141329,41.1018746 639.497798,39.0629783 639.323758,36.2616022 C639.141329,33.4591729 636.977354,29.6994313 632.840218,24.9939619 C635.716083,16.8478551 637.515202,10.9628589 638.247012,7.33897353 L630.137345,7.33897353 L630.137345,62.1880222 L625,62.1880222 C625.172992,57.1150039 625.269449,52.1378221 625.269449,47.25753 L625.269449,15.4850804 C625.269449,12.2287439 625.172992,8.06353998 625,3 L645,3 C641.757182,13.6778769 639.497798,20.9151162 638.247012,24.7233027 L638.247012,24.7233027 Z" id="Fill-14"></path>
                    <path d="M742.240657,20.9968262 C746.108352,25.7342569 750.035823,29.1799496 754,31.3635264 C751.469429,32.6351637 749.766301,34.1892695 748.861252,36.0036272 C743.452982,31.4608564 738.854327,26.1807053 735.07158,20.1811587 C731.290929,14.18267 728.221314,8.0963728 725.881611,1.91274559 C727.864748,1.54352645 729.664358,0.912997481 731.290929,0 C734.705575,9.2706801 738.363524,16.2689169 742.240657,20.9968262 M729.93388,42.0031738 C731.732442,40.9060957 733.273018,39.819597 734.532535,38.7320403 C737.237195,42.7310327 739.758327,46.6824181 742.106421,50.5946599 C744.445075,54.5058438 746.243637,57.6415617 747.513642,60.0007557 C745.522115,61.0978338 743.809548,62.0870025 742.375943,63 C741.288416,60.8248866 739.845371,58.1853401 738.045761,55.0982872 C725.968655,56.7285642 717.451967,57.9134509 712.497794,58.6413098 C707.541524,59.3691688 703.982155,60.1848363 701.815491,61.0978338 C701.276447,59.2728967 700.286451,57.2723426 698.842358,55.0982872 C700.641969,54.3693703 702.355584,53.0987909 703.982155,51.2738539 C705.606629,49.4584383 707.993525,45.6435264 711.150184,39.819597 C714.296356,34.004131 716.510213,28.9080605 717.770779,24.5493703 C720.474389,26.1807053 722.543522,27.1804534 723.986566,27.5486146 C722.004478,30.6356675 719.349109,35.2768262 716.008922,41.4593955 C712.680272,47.6430227 710.283938,51.6420151 708.849283,53.4584887 C717.136301,52.7295718 726.152182,51.8176322 735.881195,50.7290176 C734.437102,48.186801 732.455013,45.2743073 729.93388,42.0031738 M706.685766,23.7241814 C703.076057,29.1799496 699.381403,33.7322418 695.599704,37.363073 C694.155611,35.3635768 692.625522,33.9163224 691,33.0043829 C694.791137,30.0929471 698.755314,25.636927 702.903018,19.6373804 C707.041283,13.6378338 710.014416,7.81496222 711.823465,2.18357683 C713.084031,3.09657431 714.883642,3.91224181 717.230686,4.64010076 C713.806602,11.9112846 710.283938,18.2684131 706.685766,23.7241814" id="Fill-15"></path>
                    <path d="M773.251334,44.2718528 L795.583241,44.2718528 L795.583241,33.4107281 L773.251334,33.4107281 L773.251334,44.2718528 Z M801.30222,37.2083831 L801.30222,43.1797374 C801.30222,46.0790564 801.388839,49.0647336 801.573697,52.1483536 L795.583241,52.1483536 L795.583241,48.6108264 L773.251334,48.6108264 L773.251334,55.9449554 L767.260877,55.9449554 C767.62003,52.688619 767.803832,49.7893 767.803832,47.25753 L767.803832,37.2083831 C767.803832,34.859861 767.62003,32.1437899 767.260877,29.0622762 L801.573697,29.0622762 C801.388839,31.6035245 801.30222,34.3185424 801.30222,37.2083831 L801.30222,37.2083831 Z M819,3.27065927 C818.826762,7.25156217 818.728523,10.7890894 818.728523,13.8621779 L818.728523,56.2156147 C818.544721,58.5641368 817.323602,60.1491259 815.054601,60.9695289 C812.787714,61.7815067 809.471889,62.4586815 805.110296,63 C805.110296,61.3760444 804.209245,59.202345 802.387073,56.486274 C807.107819,56.486274 810.0159,56.3125044 811.110259,55.9449554 C812.195112,55.5879379 812.739123,54.2251632 812.739123,51.8671628 L812.739123,7.88977041 L775.161182,7.88977041 C771.893948,7.88977041 768.347843,7.97718177 764.537655,8.16042968 L764.537655,3 C768.347843,3.18324791 771.797822,3.27065927 774.889704,3.27065927 L819,3.27065927 Z M796.668093,16.3065365 C799.03322,16.3065365 802.212778,16.2096468 806.205711,16.0358773 L806.205711,21.4669662 C802.387073,21.2826652 799.304697,21.1868286 796.939571,21.1868286 L771.612964,21.1868286 C768.162985,21.1868286 764.62533,21.2826652 761,21.4669662 L761,16.0358773 C764.62533,16.2096468 768.162985,16.3065365 771.612964,16.3065365 L796.668093,16.3065365 Z" id="Fill-16"></path>
                    <path d="M22.2611818,98.3345782 L26,99.3030847 C25.2188484,102.457464 23.8129856,104.868496 21.7698123,106.52002 C19.7276889,108.18124 17.242493,109 14.2942758,109 C11.2505145,109 8.76531855,108.367616 6.85758683,107.093152 C4.94880517,105.817611 3.49464533,103.978633 2.50245685,101.567602 C1.50081895,99.1457967 1,96.5559306 1,93.7872302 C1,90.7632061 1.56801478,88.1227062 2.69564487,85.8700399 C3.81277561,83.625992 5.42127588,81.9162926 7.49279745,80.7495601 C9.57376843,79.5828276 11.8563269,79 14.3520222,79 C17.1847465,79 19.563899,79.7411929 21.4915795,81.213883 C23.4182101,82.6962689 24.7663265,84.7722555 25.5180799,87.4504615 L21.838058,88.3414012 C21.1828987,86.2363271 20.2285078,84.6936115 18.9853849,83.7240277 C17.7338625,82.7662944 16.1631599,82.2815025 14.2753769,82.2815025 C12.0978119,82.2815025 10.2866742,82.8158509 8.82201504,83.8931662 C7.36785519,84.9607857 6.33681912,86.3936151 5.74885557,88.1927317 C5.15249255,89.9918483 4.86271051,91.8491399 4.86271051,93.7689159 C4.86271051,96.2295041 5.21023897,98.3852121 5.91264542,100.232808 C6.6161018,102.071785 7.7048843,103.445362 9.18844232,104.355694 C10.6625509,105.264948 12.2616018,105.718498 13.9866448,105.718498 C16.0865146,105.718498 17.8588048,105.106582 19.3129646,103.861206 C20.758725,102.624448 21.7404141,100.776852 22.2611818,98.3345782" id="Fill-17"></path>
                    <path d="M30,109 L30,81 L33.3254468,81 L33.3254468,91.0455237 C34.8869872,89.1844714 36.8452051,88.2601834 39.2101686,88.2601834 C40.6609615,88.2601834 41.9265039,88.5554565 43.0067959,89.1470424 C44.0699723,89.739668 44.8462119,90.5599866 45.3073244,91.5996807 C45.7694437,92.6476923 46,94.1646058 46,96.1504214 L46,109 L42.6745532,109 L42.6745532,96.1504214 C42.6745532,94.4318072 42.3141203,93.1727377 41.5841933,92.4002451 C40.8643343,91.6079982 39.8484772,91.2170733 38.527561,91.2170733 C37.5388875,91.2170733 36.6146489,91.4842746 35.7467908,92.0082804 C34.877926,92.5437228 34.2587465,93.2579926 33.8801913,94.1646058 C33.5106972,95.0722587 33.3254468,96.311574 33.3254468,97.9043853 L33.3254468,109 L30,109 Z" id="Fill-18"></path>
                    <path d="M52,109 L55,109 L55,88.7168957 L52,88.7168957 L52,109 Z M52,84.9499443 L55,84.9499443 L55,81 L52,81 L52,84.9499443 Z" id="Fill-19"></path>
                    <path d="M61,109 L61,88.4632043 L64.0001892,88.4632043 L64.0001892,91.3813916 C65.4442763,89.1306397 67.5372438,88 70.2690003,88 C71.453737,88 72.5466414,88.2221275 73.5366131,88.6663826 C74.5376853,89.1106377 75.2874803,89.7001704 75.7779249,90.4149789 C76.2683696,91.1392621 76.6205613,91.9993483 76.8153264,92.9941849 C76.9354147,93.6310908 77,94.7617305 77,96.3745238 L77,109 L73.6667928,109 L73.6667928,96.5103268 C73.6667928,95.0901845 73.5285399,94.02692 73.2691895,93.3321135 C73.0098392,92.6267796 72.5557237,92.0667235 71.8896878,91.6414177 C71.231725,91.2255865 70.4536739,91.0129336 69.5646168,91.0129336 C68.1397036,91.0129336 66.9166194,91.4866653 65.8883002,92.4341287 C64.8519079,93.370012 64.3332072,95.1575597 64.3332072,97.7851915 L64.3332072,109 L61,109 Z" id="Fill-20"></path>
                    <path d="M95.3543811,98.4572731 C94.0838387,98.9669069 92.1833102,99.3921165 89.6422253,99.742168 C88.2057302,99.9501397 87.1878164,100.176644 86.5958832,100.422709 C86.005007,100.678041 85.5388595,101.046625 85.2185814,101.536697 C84.88879,102.019562 84.7344645,102.556994 84.7344645,103.153111 C84.7344645,104.059126 85.0832823,104.815855 85.7914882,105.420209 C86.499694,106.024562 87.527121,106.327254 88.8853964,106.327254 C90.2331015,106.327254 91.4264812,106.043095 92.4835049,105.467569 C93.5310153,104.891013 94.2973574,104.106486 94.7920445,103.115017 C95.170459,102.339756 95.3543811,101.206207 95.3543811,99.7051037 L95.3543811,98.4572731 Z M95.6450626,106.062656 C94.3554937,107.139579 93.1039777,107.895279 91.9116551,108.329754 C90.7087622,108.774526 89.4287065,109 88.0514047,109 C85.7809179,109 84.0452851,108.452272 82.8233658,107.375349 C81.6109597,106.298426 81,104.918812 81,103.246801 C81,102.264598 81.2325452,101.357553 81.6881224,100.554493 C82.1542698,99.7329019 82.7557163,99.0811884 83.501975,98.5900868 C84.2397775,98.0989851 85.0832823,97.7304015 86.0145202,97.4750699 C86.7026426,97.2948963 87.7406398,97.1260479 89.1274548,96.9654361 C91.9412517,96.6339168 94.0257024,96.2478306 95.3543811,95.7937932 C95.3638943,95.3304898 95.3744645,95.0288278 95.3744645,94.9052802 C95.3744645,93.5163995 95.0446732,92.5341962 94.3850904,91.9669069 C93.4919054,91.2019415 92.1632267,90.8148257 90.3979972,90.8148257 C88.7585535,90.8148257 87.5472045,91.0989851 86.7618359,91.6559788 C85.9754103,92.2222386 85.3940473,93.2147375 85.025146,94.6314164 L81.6014465,94.1887042 C81.9111544,92.7607001 82.4259249,91.6096485 83.1330737,90.729372 C83.8518498,89.8521841 84.8792768,89.180909 86.2280389,88.7083395 C87.5757441,88.23577 89.136968,88 90.9117107,88 C92.667427,88 94.1028651,88.1987057 95.1989986,88.6053831 C96.2951321,89.011031 97.1100974,89.5124283 97.6238108,90.1250184 C98.1480946,90.7396676 98.5064256,91.5138991 98.7199444,92.4394764 C98.836217,93.0263274 98.8943533,94.0641271 98.8943533,95.5858214 L98.8943533,100.120018 C98.8943533,103.284895 98.9620028,105.288425 99.107872,106.128548 C99.2632545,106.969701 99.553936,107.772761 100,108.537726 L96.3437552,108.537726 C95.9843672,107.837623 95.751822,107.007795 95.6450626,106.062656 L95.6450626,106.062656 Z" id="Fill-21"></path>
                    <polygon id="Fill-22" points="117 109 117 81 120.786273 81 135.460545 102.989529 135.460545 81 139 81 139 109 135.21269 109 120.540492 87.001114 120.540492 109"></polygon>
                    <path d="M157.361572,98.4572731 C156.090393,98.9669069 154.187855,99.3921165 151.645497,99.742168 C150.210397,99.9501397 149.190916,100.176644 148.598686,100.422709 C147.996939,100.678041 147.541133,101.046625 147.220695,101.536697 C146.891796,102.019562 146.72576,102.556994 146.72576,103.153111 C146.72576,104.059126 147.085328,104.815855 147.793888,105.420209 C148.492931,106.024562 149.530391,106.327254 150.889347,106.327254 C152.237727,106.327254 153.431704,106.043095 154.489257,105.467569 C155.537293,104.891013 156.304019,104.106486 156.797896,103.115017 C157.177558,102.339756 157.361572,101.206207 157.361572,99.7051037 L157.361572,98.4572731 Z M157.652399,106.062656 C156.352666,107.139579 155.110041,107.895279 153.906546,108.329754 C152.713626,108.774526 151.422353,109 150.054937,109 C147.78437,109 146.046811,108.452272 144.824279,107.375349 C143.611266,106.298426 143,104.918812 143,103.246801 C143,102.264598 143.232662,101.357553 143.689525,100.554493 C144.14533,99.7329019 144.74602,99.0811884 145.503228,98.5900868 C146.240343,98.0989851 147.085328,97.7304015 148.017032,97.4750699 C148.695981,97.2948963 149.734498,97.1260479 151.122008,96.9654361 C153.945675,96.6339168 156.02271,96.2478306 157.361572,95.7937932 C157.37109,95.3304898 157.380608,95.0288278 157.380608,94.9052802 C157.380608,93.5163995 157.050651,92.5341962 156.391796,91.9669069 C155.488645,91.2019415 154.168819,90.8148257 152.403763,90.8148257 C150.763498,90.8148257 149.539909,91.0989851 148.763665,91.6559788 C147.977903,92.2222386 147.395191,93.2147375 147.017644,94.6314164 L143.601748,94.1887042 C143.912668,92.7607001 144.426639,91.6096485 145.1352,90.729372 C145.853278,89.8521841 146.88122,89.180909 148.230658,88.7083395 C149.579038,88.23577 151.131526,88 152.907158,88 C154.673272,88 156.099911,88.1987057 157.206112,88.6053831 C158.302794,89.011031 159.118168,89.5124283 159.632138,90.1250184 C160.156685,90.7396676 160.515195,91.5138991 160.719303,92.4394764 C160.835634,93.0263274 160.903317,94.0641271 160.903317,95.5858214 L160.903317,100.120018 C160.903317,103.284895 160.971001,105.288425 161.116943,106.128548 C161.272403,106.969701 161.563231,107.772761 162,108.537726 L158.351442,108.537726 C157.982356,107.837623 157.759212,107.007795 157.652399,106.062656 L157.652399,106.062656 Z" id="Fill-23"></path>
                    <path d="M173.49916,105.616658 L174,108.699797 C173.01722,108.903092 172.149937,109 171.369803,109 C170.117178,109 169.134397,108.806185 168.441411,108.410127 C167.747375,108.00459 167.255985,107.482131 166.97669,106.824844 C166.687946,106.177037 166.552499,104.804529 166.552499,102.716801 L166.552499,90.8877436 L164,90.8877436 L164,88.1806486 L166.552499,88.1806486 L166.552499,83.0866752 L170.00168,81 L170.00168,88.1806486 L173.49916,88.1806486 L173.49916,90.8877436 L170.00168,90.8877436 L170.00168,102.910616 C170.00168,103.896547 170.068879,104.5433 170.184376,104.824543 C170.310374,105.114213 170.51197,105.336468 170.782864,105.50079 C171.061109,105.675645 171.456951,105.752539 171.967241,105.752539 C172.362033,105.752539 172.862873,105.704085 173.49916,105.616658" id="Fill-24"></path>
                    <path d="M178,109 L181,109 L181,88.7168957 L178,88.7168957 L178,109 Z M178,84.9499443 L181,84.9499443 L181,81 L178,81 L178,84.9499443 Z" id="Fill-25"></path>
                    <path d="M188.529106,98.495367 C188.529106,101.064127 189.101871,103.001765 190.237006,104.276364 C191.362786,105.551993 192.793139,106.19547 194.509356,106.19547 C196.217256,106.19547 197.638254,105.551993 198.764033,104.267098 C199.899168,102.982203 200.470894,101.017797 200.470894,98.382115 C200.470894,95.8977791 199.899168,94.0167672 198.764033,92.742168 C197.619543,91.4572731 196.2079,90.8148257 194.509356,90.8148257 C192.793139,90.8148257 191.362786,91.4572731 190.237006,92.7329019 C189.101871,93.9992646 188.529106,95.9255773 188.529106,98.495367 M185,98.495367 C185,94.7734961 186.049896,92.0245624 188.128898,90.2300338 C189.87422,88.7464333 192.00104,88 194.509356,88 C197.295218,88 199.573805,88.8977791 201.349272,90.7108398 C203.122661,92.5249301 204,95.0185321 204,98.2122371 C204,100.800559 203.609148,102.831887 202.826403,104.314458 C202.044699,105.798059 200.909563,106.940874 199.412682,107.762465 C197.914761,108.585086 196.283784,109 194.509356,109 C191.66736,109 189.378378,108.092955 187.622661,106.288131 C185.877339,104.484336 185,101.886748 185,98.495367" id="Fill-26"></path>
                    <path d="M208,109 L208,88.4632043 L211.000189,88.4632043 L211.000189,91.3813916 C212.454368,89.1306397 214.537244,88 217.269,88 C218.453737,88 219.546641,88.2221275 220.546705,88.6663826 C221.537685,89.1106377 222.28748,89.7001704 222.778934,90.4149789 C223.269379,91.1392621 223.620561,91.9993483 223.815326,92.9941849 C223.945506,93.6310908 224,94.7617305 224,96.3745238 L224,109 L220.666793,109 L220.666793,96.5103268 C220.666793,95.0901845 220.537622,94.02692 220.26919,93.3321135 C220.018921,92.6267796 219.555724,92.0667235 218.889688,91.6414177 C218.231725,91.2255865 217.454683,91.0129336 216.565626,91.0129336 C215.139704,91.0129336 213.917629,91.4866653 212.889309,92.4341287 C211.851908,93.370012 211.334216,95.1575597 211.334216,97.7851915 L211.334216,109 L208,109 Z" id="Fill-27"></path>
                    <path d="M244.354381,98.4572731 C243.083839,98.9669069 241.18331,99.3921165 238.651739,99.742168 C237.20573,99.9501397 236.187816,100.176644 235.595883,100.422709 C235.005007,100.678041 234.53886,101.046625 234.219638,101.536697 C233.889847,102.019562 233.733408,102.556994 233.733408,103.153111 C233.733408,104.059126 234.083282,104.815855 234.791488,105.420209 C235.499694,106.024562 236.527121,106.327254 237.885396,106.327254 C239.233102,106.327254 240.426481,106.043095 241.483505,105.467569 C242.531015,104.891013 243.297357,104.106486 243.792045,103.115017 C244.170459,102.339756 244.354381,101.206207 244.354381,99.7051037 L244.354381,98.4572731 Z M244.645063,106.062656 C243.355494,107.139579 242.103978,107.895279 240.910598,108.329754 C239.707705,108.774526 238.428707,109 237.051405,109 C234.781975,109 233.045285,108.452272 231.832879,107.375349 C230.61096,106.298426 230,104.918812 230,103.246801 C230,102.264598 230.232545,101.357553 230.698693,100.554493 C231.15427,99.7329019 231.755716,99.0811884 232.501975,98.5900868 C233.23872,98.0989851 234.083282,97.7304015 235.01452,97.4750699 C235.702643,97.2948963 236.74064,97.1260479 238.127455,96.9654361 C240.940195,96.6339168 243.025702,96.2478306 244.354381,95.7937932 C244.363894,95.3304898 244.373408,95.0288278 244.373408,94.9052802 C244.373408,93.5163995 244.043616,92.5341962 243.38509,91.9669069 C242.491905,91.2019415 241.163227,90.8148257 239.397997,90.8148257 C237.759611,90.8148257 236.546147,91.0989851 235.760779,91.6559788 C234.97541,92.2222386 234.402503,93.2147375 234.025146,94.6314164 L230.601446,94.1887042 C230.912211,92.7607001 231.425925,91.6096485 232.143644,90.729372 C232.85185,89.8521841 233.879277,89.180909 235.228039,88.7083395 C236.575744,88.23577 238.136968,88 239.911711,88 C241.667427,88 243.102865,88.1987057 244.198999,88.6053831 C245.295132,89.011031 246.110097,89.5124283 246.623811,90.1250184 C247.148095,90.7396676 247.506426,91.5138991 247.719944,92.4394764 C247.836217,93.0263274 247.894353,94.0641271 247.894353,95.5858214 L247.894353,100.120018 C247.894353,103.284895 247.96306,105.288425 248.117385,106.128548 C248.263255,106.969701 248.563449,107.772761 249,108.537726 L245.343755,108.537726 C244.984367,107.837623 244.751822,107.007795 244.645063,106.062656 L244.645063,106.062656 Z" id="Fill-28"></path>
                    <polygon id="Fill-29" points="253 109 256 109 256 81 253 81"></polygon>
                    <path d="M272,109 L272,81 L277.628808,81 L284.32812,100.823846 C284.945839,102.674502 285.398623,104.057295 285.679118,104.974305 C286.006887,103.953325 286.506945,102.465523 287.191899,100.480747 L293.958445,81 L299,81 L299,109 L295.395588,109 L295.395588,85.570495 L287.163534,109 L283.789191,109 L275.605463,85.1691731 L275.605463,109 L272,109 Z" id="Fill-30"></path>
                    <path d="M318.360514,98.4572731 C317.089335,98.9669069 315.187855,99.3921165 312.645497,99.742168 C311.20934,99.9501397 310.189859,100.176644 309.589168,100.422709 C308.995881,100.678041 308.541133,101.046625 308.210119,101.536697 C307.890738,102.019562 307.72576,102.556994 307.72576,103.153111 C307.72576,104.059126 308.08427,104.815855 308.783313,105.420209 C309.491874,106.024562 310.520873,106.327254 311.889347,106.327254 C313.237727,106.327254 314.430647,106.043095 315.478682,105.467569 C316.527775,104.891013 317.302961,104.106486 317.788378,103.115017 C318.165925,102.339756 318.360514,101.206207 318.360514,99.7051037 L318.360514,98.4572731 Z M318.651341,106.062656 C317.351609,107.139579 316.110041,107.895279 314.906546,108.329754 C313.712568,108.774526 312.422353,109 311.05388,109 C308.783313,109 307.036235,108.452272 305.823222,107.375349 C304.610208,106.298426 304,104.918812 304,103.246801 C304,102.264598 304.223144,101.357553 304.688467,100.554493 C305.144273,99.7329019 305.74602,99.0811884 306.492653,98.5900868 C307.240343,98.0989851 308.074752,97.7304015 309.006457,97.4750699 C309.695981,97.2948963 310.734498,97.1260479 312.122008,96.9654361 C314.944618,96.6339168 317.021652,96.2478306 318.360514,95.7937932 C318.37109,95.3304898 318.37109,95.0288278 318.37109,94.9052802 C318.37109,93.5163995 318.041133,92.5341962 317.380163,91.9669069 C316.487588,91.2019415 315.159301,90.8148257 313.401648,90.8148257 C311.752922,90.8148257 310.538851,91.0989851 309.753089,91.6559788 C308.967327,92.2222386 308.395191,93.2147375 308.017644,94.6314164 L304.60069,94.1887042 C304.911611,92.7607001 305.426639,91.6096485 306.134142,90.729372 C306.841645,89.8521841 307.871702,89.180909 309.2296,88.7083395 C310.568463,88.23577 312.130469,88 313.907158,88 C315.662696,88 317.099911,88.1987057 318.206112,88.6053831 C319.302794,89.011031 320.11711,89.5124283 320.631081,90.1250184 C321.146109,90.7396676 321.514138,91.5138991 321.719303,92.4394764 C321.834576,93.0263274 321.892742,94.0641271 321.892742,95.5858214 L321.892742,100.120018 C321.892742,103.284895 321.971001,105.288425 322.116943,106.128548 C322.261828,106.969701 322.563231,107.772761 323,108.537726 L319.351442,108.537726 C318.982356,107.837623 318.748636,107.007795 318.651341,106.062656 L318.651341,106.062656 Z" id="Fill-31"></path>
                    <path d="M340.551817,101.188058 L344,101.622512 C343.620986,103.926561 342.659687,105.731297 341.105517,107.03569 C339.551347,108.348318 337.657334,109 335.403364,109 C332.56711,109 330.302553,108.092999 328.583226,106.298559 C326.863898,104.504118 326,101.925189 326,98.5710364 C326,96.4080302 326.369486,94.5096088 327.107399,92.8850377 C327.845312,91.2501716 328.982355,90.0312286 330.487825,89.218943 C331.993295,88.4066575 333.635337,88 335.412893,88 C337.665804,88 339.502647,88.5487303 340.921303,89.6544269 C342.34843,90.759094 343.262087,92.3270419 343.660158,94.3572409 L340.260675,94.8678792 C339.939889,93.5171585 339.366075,92.497941 338.541348,91.8164036 C337.714504,91.1369252 336.724621,90.7961565 335.548406,90.7961565 C333.790966,90.7961565 332.353253,91.4107756 331.255382,92.6482498 C330.157511,93.875429 329.603811,95.8222375 329.603811,98.4763212 C329.603811,101.178792 330.138454,103.143102 331.197153,104.362045 C332.255852,105.580988 333.645924,106.194578 335.365251,106.194578 C336.734149,106.194578 337.88072,105.78895 338.803905,104.966369 C339.726032,104.144818 340.309375,102.887783 340.551817,101.188058" id="Fill-32"></path>
                    <path d="M348,109 L348,81 L351.326244,81 L351.326244,91.0455237 C352.88668,89.1844714 354.845781,88.2601834 357.209589,88.2601834 C358.670358,88.2601834 359.934814,88.5554565 361.005977,89.1470424 C362.078148,89.739668 362.844271,90.5599866 363.306361,91.5996807 C363.768452,92.6476923 364,94.1646058 364,96.1504214 L364,109 L360.673756,109 L360.673756,96.1504214 C360.673756,94.4318072 360.313345,93.1727377 359.593532,92.4002451 C358.872711,91.6079982 357.846851,91.2170733 356.527024,91.2170733 C355.537406,91.2170733 354.614233,91.4842746 353.746429,92.0082804 C352.877619,92.5437228 352.258479,93.2579926 351.889008,94.1646058 C351.519537,95.0722587 351.326244,96.311574 351.326244,97.9043853 L351.326244,109 L348,109 Z" id="Fill-33"></path>
                    <path d="M369,109 L372,109 L372,88.7168957 L369,88.7168957 L369,109 Z M369,84.9499443 L372,84.9499443 L372,81 L369,81 L369,84.9499443 Z" id="Fill-34"></path>
                    <path d="M378,109 L378,88.4632043 L381.000189,88.4632043 L381.000189,91.3813916 C382.444276,89.1306397 384.537244,88 387.269,88 C388.453737,88 389.546641,88.2221275 390.546705,88.6663826 C391.537685,89.1106377 392.277389,89.7001704 392.778934,90.4149789 C393.269379,91.1392621 393.611479,91.9993483 393.815326,92.9941849 C393.935415,93.6310908 394,94.7617305 394,96.3745238 L394,109 L390.657711,109 L390.657711,96.5103268 C390.657711,95.0901845 390.527531,94.02692 390.26818,93.3321135 C390.00883,92.6267796 389.555724,92.0667235 388.888679,91.6414177 C388.231725,91.2255865 387.453674,91.0129336 386.564617,91.0129336 C385.138694,91.0129336 383.916619,91.4866653 382.889309,92.4341287 C381.850899,93.370012 381.333207,95.1575597 381.333207,97.7851915 L381.333207,109 L378,109 Z" id="Fill-35"></path>
                    <path d="M401.801056,96.5680247 L413.3067,96.5680247 C413.151404,94.8764524 412.715096,93.6111193 411.989324,92.7607001 C410.873728,91.4572731 409.438032,90.7962936 407.665332,90.7962936 C406.055324,90.7962936 404.708368,91.325489 403.6139,92.3643183 C402.518376,93.4134432 401.916208,94.820856 401.801056,96.5680247 M413.267612,102.076188 L416.882736,102.509634 C416.311204,104.56979 415.254768,106.156347 413.723992,107.290925 C412.181596,108.43374 410.205004,109 407.819572,109 C404.80556,109 402.411676,108.084718 400.646372,106.279894 C398.88318,104.47507 398,101.934108 398,98.6652449 C398,95.2934255 398.88318,92.6670099 400.677009,90.7962936 C402.460272,88.9348434 404.77598,88 407.626244,88 C410.379316,88 412.628468,88.9070452 414.382152,90.7396676 C416.12844,92.57229 417,95.1410502 417,98.4572731 C417,98.6559788 416.990492,98.9669069 416.979928,99.3643183 L401.606672,99.3643183 C401.733445,101.57479 402.382096,103.266363 403.526216,104.438006 C404.679844,105.608619 406.114484,106.19547 407.839644,106.19547 C409.120044,106.19547 410.205004,105.863951 411.115652,105.212237 C412.027356,104.560524 412.74362,103.511399 413.267612,102.076188" id="Fill-36"></path>
                    <path d="M422,109 L422,88.4632043 L425.083443,88.4632043 L425.083443,91.5729898 C425.882048,90.1244235 426.604941,89.1580108 427.271827,88.6958592 C427.938714,88.2305494 428.671978,88 429.470583,88 C430.631152,88 431.801056,88.3758272 433,89.1201123 L431.811427,92.3562262 C430.973411,91.8445959 430.136432,91.5929918 429.299453,91.5929918 C428.546483,91.5929918 427.880634,91.8256467 427.282199,92.288851 C426.682727,92.7436334 426.262682,93.3805394 426.006506,94.1921997 C425.625872,95.4270604 425.436074,96.7808803 425.436074,98.2483958 L425.436074,109 L422,109 Z" id="Fill-37"></path>
                    <path d="M434.842411,116.588551 L434.452466,113.421513 C435.221731,113.61856 435.884744,113.721677 436.460631,113.721677 C437.240521,113.721677 437.864221,113.600182 438.332793,113.346983 C438.800302,113.093783 439.190247,112.747675 439.493066,112.297429 C439.707695,111.96051 440.067889,111.126381 440.565149,109.787894 C440.622525,109.599015 440.730903,109.319271 440.867968,108.952744 L433,89 L436.792137,89 L441.110223,100.530793 C441.666984,102.003026 442.164243,103.539581 442.611565,105.150665 C443.012135,103.594713 443.49027,102.086746 444.055531,100.606345 L448.491556,89 L452,89 L444.113969,109.252908 C443.266078,111.445943 442.611565,112.953911 442.144055,113.77783 C441.510793,114.893747 440.798904,115.708478 439.999888,116.224066 C439.190247,116.747821 438.225478,117 437.104519,117 C436.43088,117 435.671178,116.869316 434.842411,116.588551" id="Fill-38"></path>
                    <polygon id="Fill-39" points="466 109 470 109 470 81 466 81"></polygon>
                    <path d="M477,109 L477,88.4632043 L480.000189,88.4632043 L480.000189,91.3813916 C481.453359,89.1306397 483.537244,88 486.269,88 C487.453737,88 488.545632,88.2221275 489.546705,88.6663826 C490.536676,89.1106377 491.286471,89.7001704 491.778934,90.4149789 C492.269379,91.1392621 492.620561,91.9993483 492.815326,92.9941849 C492.945506,93.6310908 493,94.7617305 493,96.3745238 L493,109 L489.666793,109 L489.666793,96.5103268 C489.666793,95.0901845 489.52854,94.02692 489.278272,93.3321135 C489.018921,92.6267796 488.555724,92.0667235 487.89877,91.6414177 C487.231725,91.2255865 486.453674,91.0129336 485.564617,91.0129336 C484.147777,91.0129336 482.916619,91.4866653 481.889309,92.4341287 C480.851908,93.370012 480.343299,95.1575597 480.343299,97.7851915 L480.343299,109 L477,109 Z" id="Fill-40"></path>
                    <path d="M500.619565,98.5843682 C500.619565,101.135866 501.174622,103.050256 502.297495,104.317312 C503.419305,105.584368 504.736767,106.213294 506.267958,106.213294 C507.800213,106.213294 509.107042,105.602776 510.181002,104.401169 C511.253899,103.191381 511.790879,101.34244 511.790879,98.8655953 C511.790879,96.1341125 511.244329,94.1358656 510.151229,92.8596056 C509.059192,91.5751644 507.711957,90.9360117 506.112713,90.9360117 C504.541115,90.9360117 503.243856,91.5557341 502.191163,92.7757487 C501.136342,94.0049671 500.619565,95.9479912 500.619565,98.5843682 L500.619565,98.5843682 Z M511.732396,108.53981 L511.732396,106.025128 C510.425567,108.004967 508.483932,109 505.937264,109 C504.27741,109 502.755789,108.55924 501.370274,107.676698 C499.984759,106.80336 498.911862,105.575164 498.151583,104.007451 C497.380671,102.44076 497,100.629657 497,98.5843682 C497,96.5953251 497.350898,94.7842221 498.043124,93.160263 C498.726843,91.5465303 499.769967,90.2978817 501.145912,89.4357925 C502.531427,88.5716581 504.073251,88.1401023 505.780955,88.1401023 C507.029301,88.1401023 508.141541,88.393718 509.117675,88.899927 C510.092746,89.4061359 510.882798,90.0636961 511.497401,90.8807889 L511.497401,81 L515,81 L515,108.53981 L511.732396,108.53981 Z" id="Fill-41"></path>
                    <path d="M535.001897,108.527534 L535.001897,105.514907 C533.470477,107.842511 531.382729,109 528.737641,109 C527.576432,109 526.491086,108.768502 525.47958,108.294984 C524.468074,107.842511 523.725629,107.253244 523.233026,106.548229 C522.741434,105.843213 522.398533,104.984567 522.194209,103.970186 C522.063725,103.285163 522,102.203437 522,100.716591 L522,88 L525.339992,88 L525.339992,99.3844265 C525.339992,101.209049 525.40574,102.425465 525.544317,103.063136 C525.757744,103.979656 526.203818,104.694142 526.881527,105.216065 C527.567328,105.736934 528.403844,105.997895 529.405235,105.997895 C530.407637,105.997895 531.355418,105.727464 532.236439,105.196072 C533.108358,104.664679 533.739537,103.931252 534.101656,103.014732 C534.463775,102.087689 534.648881,100.754472 534.648881,98.997194 L534.648881,88 L538,88 L538,108.527534 L535.001897,108.527534 Z" id="Fill-42"></path>
                    <path d="M542,102.548044 L545.436929,102.018874 C545.619477,103.360329 546.159775,104.399108 547.034745,105.116678 C547.921254,105.835278 549.151876,106.194578 550.730807,106.194578 C552.329672,106.194578 553.503641,105.87234 554.273698,105.23919 C555.053197,104.607069 555.439274,103.851407 555.439274,103.00103 C555.439274,102.226836 555.092014,101.622512 554.418477,101.188058 C553.936929,100.876115 552.752469,100.498284 550.866144,100.025738 C548.324118,99.4018531 546.563688,98.8541524 545.571217,98.3919012 C544.590286,97.9286205 543.848556,97.2944406 543.337633,96.4831846 C542.83825,95.6708991 542.578067,94.773164 542.578067,93.7910089 C542.578067,92.8932739 542.779499,92.0614276 543.203345,91.2964997 C543.617749,90.5418668 544.185325,89.8984214 544.907122,89.3991078 C545.456863,89.012011 546.187053,88.6805079 547.121822,88.4066575 C548.0461,88.1328071 549.046964,88 550.114972,88 C551.723278,88 553.128055,88.2264928 554.341891,88.6805079 C555.56412,89.1334935 556.459022,89.747083 557.03709,90.5223061 C557.614108,91.2964997 558.009627,92.3363075 558.230992,93.6304049 L554.831832,94.0926561 C554.67866,93.0538778 554.23488,92.2508579 553.494199,91.6743308 C552.76296,91.0885381 551.713836,90.7961565 550.365712,90.7961565 C548.767897,90.7961565 547.631696,91.0607412 546.948716,91.5713795 C546.27413,92.0912835 545.927919,92.6956074 545.927919,93.393617 C545.927919,93.8280714 546.072698,94.2254633 546.350716,94.5847632 C546.640274,94.9430336 547.084053,95.254976 547.689398,95.4917639 C548.026166,95.6142759 549.056406,95.9066575 550.750741,96.3606726 C553.20569,97.002059 554.91786,97.5322581 555.891447,97.9378861 C556.853493,98.3435141 557.614108,98.9488675 558.173291,99.7230611 C558.720933,100.50755 559,101.480439 559,102.642759 C559,103.775223 558.66428,104.842828 557.989694,105.844544 C557.316157,106.846259 556.343619,107.620453 555.07313,108.168154 C553.79215,108.72615 552.357998,109 550.750741,109 C548.094359,109 546.062207,108.45127 544.666872,107.366163 C543.270489,106.288264 542.385028,104.672958 542,102.548044" id="Fill-43"></path>
                    <path d="M570.498686,105.616658 L571,108.699797 C570.01629,108.903092 569.148187,109 568.375723,109 C567.113505,109 566.130846,108.806185 565.436153,108.410127 C564.74041,108.00459 564.249606,107.482131 563.970047,106.824844 C563.689438,106.177037 563.545455,104.804529 563.545455,102.716801 L563.545455,90.8877436 L561,90.8877436 L561,88.1806486 L563.545455,88.1806486 L563.545455,83.0866752 L566.997898,81 L566.997898,88.1806486 L570.498686,88.1806486 L570.498686,90.8877436 L566.997898,90.8877436 L566.997898,102.910616 C566.997898,103.896547 567.06516,104.5433 567.180767,104.824543 C567.306884,105.114213 567.508671,105.336468 567.77877,105.50079 C568.05938,105.675645 568.454545,105.752539 568.965318,105.752539 C569.351025,105.752539 569.862848,105.704085 570.498686,105.616658" id="Fill-44"></path>
                    <path d="M573,109 L573,88.4632043 L576.086518,88.4632043 L576.086518,91.5729898 C576.875271,90.1244235 577.60902,89.1580108 578.276347,88.6958592 C578.933296,88.2305494 579.667044,88 580.475517,88 C581.627512,88 582.808567,88.3758272 584,89.1201123 L582.818945,92.3562262 C581.980376,91.8445959 581.142844,91.5929918 580.304274,91.5929918 C579.551845,91.5929918 578.876215,91.8256467 578.276347,92.288851 C577.685819,92.7436334 577.258232,93.3805394 577.009152,94.1921997 C576.618926,95.4270604 576.438343,96.7808803 576.438343,98.2483958 L576.438343,109 L573,109 Z" id="Fill-45"></path>
                    <path d="M587.73716,116.588551 L587.36858,113.421513 C588.089627,113.61856 588.726083,113.721677 589.270896,113.721677 C590.011078,113.721677 590.602216,113.600182 591.045317,113.346983 C591.489426,113.093783 591.859013,112.747675 592.135952,112.297429 C592.348439,111.96051 592.690836,111.126381 593.153072,109.787894 C593.216516,109.599015 593.318228,109.319271 593.448137,108.952744 L586,89 L589.586103,89 L593.669688,100.530793 C594.205438,102.003026 594.677744,103.539581 595.101712,105.150665 C595.480363,103.594713 595.942598,102.086746 596.469285,100.606345 L600.664653,89 L604,89 L596.52568,109.252908 C595.721047,111.445943 595.101712,112.953911 594.65861,113.77783 C594.067472,114.893747 593.382679,115.708478 592.617321,116.224066 C591.859013,116.747821 590.944612,117 589.881168,117 C589.233635,117 588.522659,116.869316 587.73716,116.588551" id="Fill-46"></path>
                    <path d="M638.254198,98.3345782 L642,99.3030847 C641.209698,102.457464 639.804366,104.868496 637.761965,106.52002 C635.721662,108.18124 633.237406,109 630.289253,109 C627.246641,109 624.762385,108.367616 622.855374,107.093152 C620.949412,105.817611 619.494752,103.978633 618.502939,101.567602 C617.501679,99.1457967 617,96.5559306 617,93.7872302 C617,90.7632061 617.5678,88.1227062 618.695004,85.8700399 C619.812762,83.625992 621.420655,81.9162926 623.491394,80.7495601 C625.571579,79.5828276 627.853275,79 630.348027,79 C633.178631,79 635.557935,79.7411929 637.483837,81.213883 C639.40974,82.6962689 640.758396,84.7722555 641.509866,87.4504615 L637.830185,88.3414012 C637.175273,86.2363271 636.221243,84.6936115 634.979639,83.7240277 C633.728589,82.7662944 632.167926,82.2815025 630.271411,82.2815025 C628.093619,82.2815025 626.284215,82.8158509 624.81906,83.8931662 C623.365449,84.9607857 622.334803,86.3936151 621.747061,88.1927317 C621.160369,89.9918483 620.862301,91.8491399 620.862301,93.7689159 C620.862301,96.2295041 621.208648,98.3852121 621.911839,100.232808 C622.615029,102.071785 623.703401,103.445362 625.186398,104.355694 C626.6589,105.264948 628.258396,105.718498 629.981738,105.718498 C632.080814,105.718498 633.853484,105.106582 635.307095,103.861206 C636.760705,102.624448 637.733627,100.776852 638.254198,98.3345782" id="Fill-47"></path>
                    <path d="M649.529106,98.495367 C649.529106,101.064127 650.101871,103.001765 651.227651,104.276364 C652.362786,105.551993 653.793139,106.19547 655.509356,106.19547 C657.217256,106.19547 658.638254,105.551993 659.764033,104.267098 C660.899168,102.982203 661.470894,101.017797 661.470894,98.382115 C661.470894,95.8977791 660.899168,94.0167672 659.754678,92.742168 C658.618503,91.4572731 657.2079,90.8148257 655.509356,90.8148257 C653.793139,90.8148257 652.362786,91.4572731 651.227651,92.7329019 C650.101871,93.9992646 649.529106,95.9255773 649.529106,98.495367 M646,98.495367 C646,94.7734961 647.039501,92.0245624 649.128898,90.2300338 C650.87422,88.7464333 653.00104,88 655.509356,88 C658.295218,88 660.574844,88.8977791 662.348233,90.7108398 C664.122661,92.5249301 665,95.0185321 665,98.2122371 C665,100.800559 664.609148,102.831887 663.826403,104.314458 C663.044699,105.798059 661.900208,106.940874 660.412682,107.762465 C658.914761,108.585086 657.273389,109 655.509356,109 C652.668399,109 650.377339,108.092955 648.623701,106.288131 C646.877339,104.484336 646,101.886748 646,98.495367" id="Fill-48"></path>
                    <path d="M669,109 L669,88.4632043 L672.091741,88.4632043 L672.091741,91.5729898 C672.882048,90.1244235 673.604941,89.1580108 674.271827,88.6958592 C674.938714,88.2305494 675.670941,88 676.470583,88 C677.631152,88 678.801056,88.3758272 680,89.1201123 L678.820762,92.3562262 C677.982746,91.8445959 677.145767,91.5929918 676.298416,91.5929918 C675.556855,91.5929918 674.880634,91.8256467 674.282199,92.288851 C673.68169,92.7436334 673.262682,93.3805394 673.005469,94.1921997 C672.624835,95.4270604 672.436074,96.7808803 672.436074,98.2483958 L672.436074,109 L669,109 Z" id="Fill-49"></path>
                    <path d="M684.178533,98.5202902 C684.178533,101.086812 684.715197,102.978525 685.797024,104.205637 C686.879915,105.432749 688.185972,106.042221 689.717322,106.042221 C691.278427,106.042221 692.622742,105.405185 693.734325,104.1403 C694.845909,102.876436 695.402763,100.909177 695.402763,98.239545 C695.402763,95.6995661 694.856536,93.7986655 693.773645,92.5439895 C692.682253,91.2791045 691.394261,90.642068 689.883103,90.642068 C688.381509,90.642068 687.05526,91.3158566 685.904357,92.6562876 C684.754516,94.0048857 684.178533,95.9619353 684.178533,98.5202902 L684.178533,98.5202902 Z M681,116 L681,88.4502133 L684.198725,88.4502133 L684.198725,91.0351114 C684.950053,90.0234076 685.807651,89.264885 686.753454,88.7585226 C687.70882,88.2531812 688.858661,88 690.214665,88 C691.979809,88 693.549416,88.4410253 694.894793,89.311846 C696.250797,90.1826667 697.264612,91.4199876 697.967056,93.011558 C698.649309,94.6143581 699,96.3559996 699,98.2569001 C699,100.299705 698.620616,102.135268 697.849097,103.766653 C697.089267,105.394976 695.987248,106.641485 694.534538,107.513326 C693.081828,108.384147 691.560043,108.824151 689.952179,108.824151 C688.781084,108.824151 687.738576,108.580158 686.802338,108.11259 C685.875664,107.634812 685.105207,107.034528 684.510096,106.30459 L684.510096,116 L681,116 Z" id="Fill-50"></path>
                    <path d="M706.530146,98.495367 C706.530146,101.064127 707.101871,103.001765 708.227651,104.276364 C709.362786,105.551993 710.793139,106.19547 712.510395,106.19547 C714.218295,106.19547 715.628898,105.551993 716.773389,104.267098 C717.899168,102.982203 718.470894,101.017797 718.470894,98.382115 C718.470894,95.8977791 717.899168,94.0167672 716.764033,92.742168 C715.619543,91.4572731 714.2079,90.8148257 712.510395,90.8148257 C710.793139,90.8148257 709.362786,91.4572731 708.227651,92.7329019 C707.101871,93.9992646 706.530146,95.9255773 706.530146,98.495367 M703,98.495367 C703,94.7734961 704.039501,92.0245624 706.128898,90.2300338 C707.87422,88.7464333 710.00104,88 712.510395,88 C715.295218,88 717.574844,88.8977791 719.349272,90.7108398 C721.122661,92.5249301 722,95.0185321 722,98.2122371 C722,100.800559 721.609148,102.831887 720.827443,104.314458 C720.045738,105.798059 718.909563,106.940874 717.412682,107.762465 C715.914761,108.585086 714.283784,109 712.510395,109 C709.668399,109 707.378378,108.092955 705.623701,106.288131 C703.877339,104.484336 703,101.886748 703,98.495367" id="Fill-51"></path>
                    <path d="M726,109 L726,88.4632043 L729.08419,88.4632043 L729.08419,91.5729898 C729.872348,90.1244235 730.597247,89.1580108 731.261997,88.6958592 C731.939191,88.2305494 732.671349,88 733.469878,88 C734.621005,88 735.801169,88.3758272 737,89.1201123 L735.81154,92.3562262 C734.973602,91.8445959 734.136702,91.5929918 733.298765,91.5929918 C732.546903,91.5929918 731.881116,91.8256467 731.281701,92.288851 C730.682285,92.7436334 730.253983,93.3805394 730.006128,94.1921997 C729.616197,95.4270604 729.426417,96.7808803 729.426417,98.2483958 L729.426417,109 L726,109 Z" id="Fill-52"></path>
                    <path d="M751.354381,98.4572731 C750.083839,98.9669069 748.182253,99.3921165 745.642225,99.742168 C744.20573,99.9501397 743.186759,100.176644 742.595883,100.422709 C742.00395,100.678041 741.53886,101.046625 741.218581,101.536697 C740.889847,102.019562 740.733408,102.556994 740.733408,103.153111 C740.733408,104.059126 741.083282,104.815855 741.791488,105.420209 C742.499694,106.024562 743.527121,106.327254 744.885396,106.327254 C746.233102,106.327254 747.435994,106.043095 748.483505,105.467569 C749.531015,104.891013 750.297357,104.106486 750.792045,103.115017 C751.170459,102.339756 751.354381,101.206207 751.354381,99.7051037 L751.354381,98.4572731 Z M751.645063,106.062656 C750.355494,107.139579 749.103978,107.895279 747.910598,108.329754 C746.707705,108.774526 745.428707,109 744.051405,109 C741.780918,109 740.045285,108.452272 738.823366,107.375349 C737.61096,106.298426 737,104.918812 737,103.246801 C737,102.264598 737.232545,101.357553 737.688122,100.554493 C738.15427,99.7329019 738.755716,99.0811884 739.501975,98.5900868 C740.23872,98.0989851 741.083282,97.7304015 742.01452,97.4750699 C742.702643,97.2948963 743.74064,97.1260479 745.127455,96.9654361 C747.949708,96.6339168 750.025702,96.2478306 751.354381,95.7937932 C751.363894,95.3304898 751.374465,95.0288278 751.374465,94.9052802 C751.374465,93.5163995 751.043616,92.5341962 750.384033,91.9669069 C749.491905,91.2019415 748.163227,90.8148257 746.40751,90.8148257 C744.758554,90.8148257 743.546147,91.0989851 742.760779,91.6559788 C741.97541,92.2222386 741.39299,93.2147375 741.025146,94.6314164 L737.600389,94.1887042 C737.911154,92.7607001 738.425925,91.6096485 739.133074,90.729372 C739.85185,89.8521841 740.879277,89.180909 742.226982,88.7083395 C743.576801,88.23577 745.136968,88 746.911711,88 C748.667427,88 750.102865,88.1987057 751.198999,88.6053831 C752.295132,89.011031 753.110097,89.5124283 753.623811,90.1250184 C754.148095,90.7396676 754.505369,91.5138991 754.719944,92.4394764 C754.836217,93.0263274 754.89541,94.0641271 754.89541,95.5858214 L754.89541,100.120018 C754.89541,103.284895 754.962003,105.288425 755.107872,106.128548 C755.262197,106.969701 755.553936,107.772761 756,108.537726 L752.343755,108.537726 C751.985424,107.837623 751.751822,107.007795 751.645063,106.062656 L751.645063,106.062656 Z" id="Fill-53"></path>
                    <path d="M768.497688,105.616658 L769,108.699797 C768.015343,108.903092 767.147331,109 766.375998,109 C765.112863,109 764.130307,108.806185 763.435687,108.410127 C762.741068,108.00459 762.258722,107.482131 761.969735,106.824844 C761.689155,106.177037 761.545187,104.804529 761.545187,102.716801 L761.545187,90.8877436 L759,90.8877436 L759,88.1806486 L761.545187,88.1806486 L761.545187,83.0866752 L764.997268,81 L764.997268,88.1806486 L768.497688,88.1806486 L768.497688,90.8877436 L764.997268,90.8877436 L764.997268,102.910616 C764.997268,103.896547 765.064523,104.5433 765.190626,104.824543 C765.306221,105.114213 765.507987,105.336468 765.788567,105.50079 C766.058638,105.675645 766.453762,105.752539 766.973939,105.752539 C767.359605,105.752539 767.861917,105.704085 768.497688,105.616658" id="Fill-54"></path>
                    <path d="M773,109 L776,109 L776,88.7168957 L773,88.7168957 L773,109 Z M773,84.9499443 L776,84.9499443 L776,81 L773,81 L773,84.9499443 Z" id="Fill-55"></path>
                    <path d="M783.53672,98.495367 C783.53672,101.064127 784.098813,103.001765 785.23339,104.276364 C786.367966,105.551993 787.798655,106.19547 789.514026,106.19547 C791.220047,106.19547 792.630995,105.551993 793.765571,104.267098 C794.900148,102.982203 795.46328,101.017797 795.46328,98.382115 C795.46328,95.8977791 794.900148,94.0167672 793.75622,92.742168 C792.621644,91.4572731 791.201345,90.8148257 789.514026,90.8148257 C787.798655,90.8148257 786.367966,91.4572731 785.23339,92.7329019 C784.098813,93.9992646 783.53672,95.9255773 783.53672,98.495367 M780,98.495367 C780,94.7734961 781.047301,92.0245624 783.13567,90.2300338 C784.880133,88.7464333 786.996555,88 789.514026,88 C792.297479,88 794.575983,88.8977791 796.349538,90.7108398 C798.112703,92.5249301 799,95.0185321 799,98.2122371 C799,100.800559 798.608301,102.831887 797.826981,104.314458 C797.045661,105.798059 795.900694,106.940874 794.40455,107.762465 C792.916717,108.585086 791.277191,109 789.514026,109 C786.673429,109 784.375185,108.092955 782.630721,106.288131 C780.875868,104.484336 780,101.886748 780,98.495367" id="Fill-56"></path>
                    <path d="M803,109 L803,88.4632043 L806.009272,88.4632043 L806.009272,91.3813916 C807.453359,89.1306397 809.537244,88 812.269,88 C813.462819,88 814.545632,88.2221275 815.546705,88.6663826 C816.537685,89.1106377 817.28748,89.7001704 817.778934,90.4149789 C818.278461,91.1392621 818.620561,91.9993483 818.815326,92.9941849 C818.945506,93.6310908 819,94.7617305 819,96.3745238 L819,109 L815.666793,109 L815.666793,96.5103268 C815.666793,95.0901845 815.537622,94.02692 815.277263,93.3321135 C815.017912,92.6267796 814.555724,92.0667235 813.89877,91.6414177 C813.231725,91.2255865 812.453674,91.0129336 811.564617,91.0129336 C810.147777,91.0129336 808.916619,91.4866653 807.8883,92.4341287 C806.850899,93.370012 806.343299,95.1575597 806.343299,97.7851915 L806.343299,109 L803,109 Z" id="Fill-57"></path>
                </g>
            </g>
        </g>
    </g>
</svg>