<?xml version="1.0" encoding="UTF-8"?>
<svg width="448px" height="768px" viewBox="0 0 448 768" version="1.1" xmlns="http://www.w3.org/2000/svg" xmlns:xlink="http://www.w3.org/1999/xlink">
    <title>中国中车集团有限公司@2x</title>
    <defs>
        <polygon id="path-1" points="0 0 431 0 431 90 0 90"></polygon>
        <polygon id="path-3" points="0 0 107 0 107 101 0 101"></polygon>
        <polygon id="path-5" points="0 0 105 0 105 101 0 101"></polygon>
        <polygon id="path-7" points="0 0 100 0 100 101 0 101"></polygon>
        <polygon id="path-9" points="0 0 98 0 98 101 0 101"></polygon>
        <polygon id="path-11" points="0 768 448 768 448 0 0 0"></polygon>
    </defs>
    <g id="页面-1" stroke="none" stroke-width="1" fill="none" fill-rule="evenodd">
        <g id="70.中国中车集团有限公司" transform="translate(-288.000000, 0.000000)">
            <g id="中国中车集团有限公司" transform="translate(288.000000, 0.000000)">
                <path d="M37.7471823,129.456424 C36.991481,132.264494 29.4401932,138.773079 26.9154639,140.900923 C22.5606398,144.573015 20.917562,150.031889 18.0741405,155.380866 C12.5953061,165.680915 9,177.726061 9,192.884338 L9,309.171057 C9,318.936777 10.5858277,327.306041 13.2574989,334.542223 C14.488376,337.878939 22.8411652,354.384407 22.8411652,354.62694 L23.5510665,357.054159 L33.3999916,366.285549 L32.4229232,367.312522 C38.5925754,367.822219 39.899786,372.360229 47.7544994,375.348304 C54.2065853,377.805839 59.2178772,380 67.5592164,380 L190,380 L190,328.198484 C190,322.720662 171.250593,325.026615 165.510317,325.026615 L137.827986,325.026615 L81.4003817,325.026615 C74.4368615,320.397656 65.4295128,317.203049 65.4295128,304.941898 L65.4295128,196.056207 C65.4295128,192.202215 68.5839932,185.16688 70.4064546,183.025773 C71.4922981,181.754373 79.259228,177.394474 81.4003817,175.97149 L136.765043,175.97149 L164.445465,175.97149 C170.275433,175.97149 190,178.300181 190,172.799621 L190,124.169975 C190,121.735176 189.259565,121 186.803536,121 L70.7518635,121 C52.9070081,121 46.3843137,129.26505 37.7471823,129.456424" id="Fill-1" fill="#C30D23"></path>
                <path d="M249,124.171869 L249,172.799621 C249,178.410078 275.541145,175.97149 282.00659,175.97149 L319.270678,175.97149 C329.795154,175.97149 346.741183,174.948307 356.488966,176.016965 C364.837939,176.930251 373.568579,187.253038 373.568579,196.058102 L373.568579,303.886503 C373.568579,316.4944 365.038314,320.083122 357.599618,325.02851 L302.234957,325.02851 L274.554535,325.02851 C268.722659,325.02851 249,322.699819 249,328.200379 L249,380 L372.505635,380 C391.188251,380 399.205173,367.397788 408.704872,365.199838 C408.895706,362.93557 421.265543,346.816638 423.486847,340.762801 C427.448554,329.956844 430,322.832454 430,308.113768 L430,191.828943 C430,182.137119 428.454247,175.973385 426.135618,168.178241 C423.891415,160.631314 418.403039,152.508373 418.288538,147.428455 C416.273335,146.896021 409.489198,139.582152 408.51213,138.106115 C404.966441,132.740085 403.663047,132.707874 398.044904,129.469687 C389.62914,124.622828 381.499626,121 368.246228,121 L252.194555,121 C249.742343,121 249,121.735176 249,124.171869" id="Fill-3" fill="#C30D23"></path>
                <g id="编组" transform="translate(4.000000, 0.000000)">
                    <mask id="mask-2" fill="white">
                        <use xlink:href="#path-1"></use>
                    </mask>
                    <g id="Clip-6"></g>
                    <path d="M184.873459,33.8818975 L3.18602874,33.8818975 C0.738899671,33.8818975 0,34.6201437 0,37.0588235 L0,86.8230739 C0,89.2636515 0.738899671,90 3.18602874,90 L428.184742,90 C432.875231,90 430.285274,85.5268729 430.298604,79.4235311 C430.310031,74.1248587 430.308126,68.8280841 430.308126,63.5294118 C430.308126,54.0650568 431.603105,39.9700568 430.308126,33.8818975 L246.499216,33.8818975 L246.499216,-0.00151824423 L184.873459,-0.00151824423 L184.873459,33.8818975 Z" id="Fill-5" fill="#C30D23" mask="url(#mask-2)"></path>
                </g>
                <path d="M5,463.999241 L188.706783,463.999241 L188.706783,494.705213 C188.706783,497.565157 189.213057,497.623988 189.768815,500 C191.063048,499.273153 190.903172,498.941043 192.953008,498.941043 L249.233088,498.941043 L249.233088,467.176113 C249.233088,464.735577 249.971562,463.999241 252.419184,463.999241 L434,463.999241 L434,410 L5,410 L5,463.999241 Z" id="Fill-7" fill="#C30D23"></path>
                <path d="M249,223.158391 L249,276.843495 C249,279.267948 249.735422,280 252.164772,280 L316.505684,280 C322.56488,280 326,274.645451 326,268.421119 L326,232.631678 C326,227.311091 324.3004,227.039401 323.888261,222.105594 C318.706278,221.675419 320.023988,220 315.45076,220 L252.164772,220 C249.735422,220 249,220.732052 249,223.158391" id="Fill-9" fill="#C30D23"></path>
                <path d="M113,230.52764 L113,269.474247 C113,275.424816 115.678902,273.130621 116.164772,278.947236 C119.463773,279.22269 119.911832,280 123.54735,280 L186.833337,280 C189.264578,280 190,279.267971 190,276.841708 L190,223.160179 C190,220.733916 189.264578,220 186.833337,220 L123.54735,220 C117.813327,220 113,224.858185 113,230.52764" id="Fill-11" fill="#C30D23"></path>
                <g id="编组" transform="translate(113.000000, 667.000000)">
                    <mask id="mask-4" fill="white">
                        <use xlink:href="#path-3"></use>
                    </mask>
                    <g id="Clip-14"></g>
                    <path d="M29.0164973,18.035951 L59.8477158,18.035951 C68.618551,18.035951 76.1706857,23.1566158 76.1706857,32.4643331 L76.1706857,39.679471 C76.1706857,50.1745613 51.5662651,53.3995954 41.711929,48.6955527 L41.711929,55.9106906 L71.5358153,100.464641 L107,101.000568 L83.0411098,65.1824269 C95.030076,59.3913792 105.187183,57.7987464 105.187183,39.679471 L105.187183,30.6596017 C105.187183,8.80587696 90.3495044,0 68.9156093,0 L0,0 L0,101.000568 L29.0164973,101.000568 L29.0164973,18.035951 Z" id="Fill-13" fill="#030000" mask="url(#mask-4)"></path>
                </g>
                <g id="编组" transform="translate(232.000000, 667.000000)">
                    <mask id="mask-6" fill="white">
                        <use xlink:href="#path-5"></use>
                    </mask>
                    <g id="Clip-16"></g>
                    <path d="M27.1552707,18.035951 L56.1201325,18.035951 C68.2835497,18.035951 76.0351382,21.9559866 76.0351382,34.2671707 C76.0351382,48.1937124 66.7495791,51.6914446 53.0978113,51.6914446 L41.6377016,50.5002841 L42.150926,57.7835965 L70.6025634,101.000568 L105,101.000568 L82.2432521,65.5971553 C92.5913757,60.0182061 105,56.4882804 105,41.4823086 L105,28.8567641 C105,10.5443275 88.1415304,0 70.6025634,0 L0,0 L0,101.000568 L27.1552707,101.000568 L27.1552707,18.035951 Z" id="Fill-15" fill="#030000" mask="url(#mask-6)"></path>
                </g>
                <g id="编组" transform="translate(348.000000, 667.000000)">
                    <mask id="mask-8" fill="white">
                        <use xlink:href="#path-7"></use>
                    </mask>
                    <g id="Clip-18"></g>
                    <path d="M29.0903121,39.6792478 C29.0903121,26.1883414 44.3475489,18.0358496 58.1825332,18.0358496 L100.000573,18.0358496 L100.000573,0 L45.4548058,0 C23.9415674,0 0,14.0230435 0,34.2688716 L0,66.7311284 C0,87.8556456 24.2107454,101 47.2722344,101 L100.000573,101 L100.000573,82.9641504 L58.1825332,82.9641504 C44.3475489,82.9641504 29.0903121,74.8116586 29.0903121,61.322646 L29.0903121,39.6792478 Z" id="Fill-17" fill="#030000" mask="url(#mask-8)"></path>
                </g>
                <g id="编组" transform="translate(0.000000, 667.000000)">
                    <mask id="mask-10" fill="white">
                        <use xlink:href="#path-9"></use>
                    </mask>
                    <g id="Clip-20"></g>
                    <path d="M27.2217353,48.6971725 C27.2217353,26.9912814 38.3270477,18.0377433 59.8878938,18.0377433 L98,18.0377433 L98,0 L45.3698128,0 C25.4000677,0 -0.000381102006,12.0706116 -0.000381102006,30.661323 L-0.000381102006,70.3405707 C-0.000381102006,89.4122886 24.6359581,101 45.3698128,101 L98,101 L98,82.9660442 L59.8878938,82.9660442 C35.7870029,82.9660442 27.2217353,72.8630142 27.2217353,48.6971725" id="Fill-19" fill="#030000" mask="url(#mask-10)"></path>
                </g>
                <polygon id="Fill-21" fill="#030000" points="373.609368 554.267746 353.302239 554.05664 353.302239 566.736316 367.272473 566.736316 351.040155 598.310934 351 600.437209 393.367706 601.150405 393.367706 612.017612 351.481864 612.017612 351.481864 624.697288 393.367706 624.697288 393.367706 641 409.756821 641 409.756821 624.697288 448 624.697288 448 612.017612 409.756821 612.017612 409.756821 601.150405 444.359249 601.150405 444.359249 588.470729 409.756821 588.470729 409.756821 575.791053 398.830744 575.791053 393.335199 575.791053 393.367706 588.470729 373.685854 588.470729 385.051727 566.736316 446.179625 566.736316 446.179625 554.05664 390.566393 554.26204 395.650824 545 378.798967 545"></polygon>
                <path d="M116,640 L212,640 L212,556.115807 C212,550.222412 205.425283,547 199.322226,547 L116,547 L116,640 Z M132.302712,557.942415 L190.263684,557.942415 C194.504824,557.942415 197.509757,560.967615 197.509757,565.235444 L197.509757,629.057585 L132.302712,629.057585 L132.302712,557.942415 Z" id="Fill-23" fill="#030000"></path>
                <path d="M132,629 L198,629 L198,565.282934 C198,561.020219 194.958525,558 190.667736,558 L132,558 L132,629 Z M139.334189,598.052311 L139.334189,587.129823 L155.833226,587.129823 L155.833226,576.205422 L135.667094,576.205422 L135.667094,565.282934 L192.500321,565.282934 L192.500321,576.205422 L172.334189,576.205422 L172.334189,587.129823 L190.667736,587.129823 L190.667736,598.052311 L172.334189,598.052311 L172.334189,610.796489 L179.666453,610.796489 C180.097649,605.656382 179.624103,603.513556 185.168057,603.513556 L192.500321,603.513556 L194.45803,621.703686 L135.667094,621.718978 L135.667094,610.796489 L155.833226,610.796489 L155.833226,598.052311 L139.334189,598.052311 Z" id="Fill-25" fill="#FFFFFF"></path>
                <polygon id="Fill-27" fill="#030000" points="136 575.837731 155.870478 575.837731 155.870478 586.677358 139.613332 586.677358 139.613332 597.515089 155.870478 597.515089 155.870478 610.160373 136 610.160373 136 621 191.986723 620.98293 192 602.933954 180.634602 603.024996 180.369056 610.160373 172.129522 610.160373 172.129522 597.515089 190.194283 597.515089 190.194283 586.677358 172.129522 586.677358 172.129522 575.837731 192 575.837731 192 565 136 565"></polygon>
                <path d="M37.9613925,556.02881 L37.950004,561.452099 L0,561.452099 L0,615.690685 L37.9613925,615.690685 L37.9613925,641 L55.2452144,641 L55.2452144,615.690685 L94,615.690685 L94,569.711368 C94,563.075099 90.6935627,562.494236 88.5772151,561.452099 L55.2774816,560.56372 L55.2490106,545 L37.9613925,545.182232 L37.9613925,556.02881 Z M16.2702528,604.842208 L37.9613925,604.842208 L37.9613925,572.300575 L16.2702528,572.300575 L16.2702528,604.842208 Z M56.0386075,604.842208 L75.924683,604.842208 L75.924683,572.300575 L56.0386075,572.300575 L56.0386075,604.842208 Z" id="Fill-29" fill="#030000"></path>
                <mask id="mask-12" fill="white">
                    <use xlink:href="#path-11"></use>
                </mask>
                <g id="Clip-32"></g>
                <polygon id="Fill-31" fill="#FFFFFF" mask="url(#mask-12)" points="16 606 38 606 38 573 16 573"></polygon>
                <polygon id="Fill-33" fill="#FFFFFF" mask="url(#mask-12)" points="55 606 76 606 76 573 55 573"></polygon>
                <path d="M272.961392,556.02881 L272.950004,561.452099 L235,561.452099 L235,615.690685 L272.961392,615.690685 L272.961392,641 L290.245214,641 L290.245214,615.690685 L329,615.690685 L329,569.711368 C329,563.075099 325.691665,562.494236 323.579113,561.452099 L290.275584,560.56372 L290.249011,545 L272.961392,545.182232 L272.961392,556.02881 Z M251.268355,604.842208 L272.961392,604.842208 L272.961392,572.300575 L251.268355,572.300575 L251.268355,604.842208 Z M291.038608,604.842208 L310.924683,604.842208 L310.924683,572.300575 L291.038608,572.300575 L291.038608,604.842208 Z" id="Fill-34" fill="#030000" mask="url(#mask-12)"></path>
                <polygon id="Fill-35" fill="#FFFFFF" mask="url(#mask-12)" points="250 606 272 606 272 573 250 573"></polygon>
                <polygon id="Fill-36" fill="#FFFFFF" mask="url(#mask-12)" points="289 606 310 606 310 573 289 573"></polygon>
            </g>
        </g>
    </g>
</svg>