<?xml version="1.0" encoding="UTF-8"?>
<svg width="1024px" height="121px" viewBox="0 0 1024 121" version="1.1" xmlns="http://www.w3.org/2000/svg" xmlns:xlink="http://www.w3.org/1999/xlink">
    <title>中国东方电气集团有限公司@2x</title>
    <defs>
        <polygon id="path-1" points="0 0 211 0 211 112 0 112"></polygon>
    </defs>
    <g id="页面-1" stroke="none" stroke-width="1" fill="none" fill-rule="evenodd">
        <g id="33.中国东方电气集团有限公司" transform="translate(0.000000, -323.000000)">
            <g id="中国东方电气集团有限公司" transform="translate(0.000000, 323.000000)">
                <g id="编组" transform="translate(0.000000, 2.000000)">
                    <mask id="mask-2" fill="white">
                        <use xlink:href="#path-1"></use>
                    </mask>
                    <g id="Clip-2"></g>
                    <path d="M5.57669455,37.6699723 C44.0164469,-14.1602887 180.15081,-11.2475064 207.130907,38.6659845 C218.502428,66.0430395 165.026973,95.6511619 142.673924,71.9637787 C126.452816,50.0293769 153.662062,24.8988826 178.621681,34.9298321 C180.913171,35.5650665 181.728413,35.9900317 183.444827,34.1839296 L183.71584,32.4530818 L187.104602,32.4530818 L185.125988,48.4800246 L182.030273,48.3383695 C177.374581,27.9555334 147.717407,38.7722258 149.909746,61.8597883 C157.940979,91.4568439 224.526404,62.6853718 191.72504,33.7102705 C165.223072,9.00916817 65.6335746,3.5775817 27.8878795,29.9497711 C-24.9397889,60.5561191 43.4017105,120.651068 162.87209,91.9393565 C184.857179,84.7924157 200.280672,72.9664309 207.161753,62.3400876 L211,63.8031188 C198.546631,82.884499 188.827627,92.5148302 159.725698,103.663527 C70.8114616,131.410213 -24.2060712,84.8875902 5.57669455,37.6699723" id="Fill-1" fill="#22418D" mask="url(#mask-2)"></path>
                </g>
                <g id="编组-2" transform="translate(248.000000, 0.000000)" fill="#22418D" fill-rule="nonzero">
                    <g id="中国东方电气集团有限公司" transform="translate(2.712282, 0.000000)">
                        <path d="M23.2562638,0.328535692 L23.2562638,11.5644564 L0,11.5644564 L0,43.62954 L6.89804435,43.62954 L6.89804435,40.0156473 L23.2562638,40.0156473 L23.2562638,61.9618316 L30.3513952,61.9618316 L30.3513952,40.0156473 L46.7753103,40.0156473 L46.7753103,43.62954 L53.6733546,43.62954 L53.6733546,11.5644564 L30.3513952,11.5644564 L30.3513952,0.328535692 L23.2562638,0.328535692 Z M6.89804435,33.3135192 L6.89804435,18.2665845 L23.2562638,18.2665845 L23.2562638,33.3135192 L6.89804435,33.3135192 Z M30.3513952,33.3135192 L30.3513952,18.2665845 L46.7753103,18.2665845 L46.7753103,33.3135192 L30.3513952,33.3135192 Z" id="形状"></path>
                        <path d="M76.1099633,13.4042563 L76.1099633,19.5807273 L88.9206171,19.5807273 L88.9206171,27.0713411 L78.2122244,27.0713411 L78.2122244,33.1163978 L88.9206171,33.1163978 L88.9206171,41.7240329 L74.3361804,41.7240329 L74.3361804,47.900504 L110.534489,47.900504 L110.534489,41.7240329 L104.359097,41.7240329 L107.578185,40.2784759 C106.527054,37.8473118 105.213141,35.6132691 103.767836,33.5763478 L98.3150965,35.3504405 C99.6290097,37.1902404 100.811532,39.2928688 101.862662,41.7240329 L95.8843571,41.7240329 L95.8843571,33.1163978 L106.59275,33.1163978 L106.59275,27.0713411 L95.8843571,27.0713411 L95.8843571,19.5807273 L108.629315,19.5807273 L108.629315,13.4042563 L76.1099633,13.4042563 Z M120.257447,2.95682123 L64.547527,2.95682123 L64.547527,61.3704673 L71.511267,61.3704673 L71.511267,58.9393032 L113.293707,58.9393032 L113.293707,61.3704673 L120.257447,61.3704673 L120.257447,2.95682123 Z M71.511267,52.5000036 L71.511267,9.3961208 L113.293707,9.3961208 L113.293707,52.5000036 L71.511267,52.5000036 Z" id="形状"></path>
                        <path d="M129.752011,7.81914948 L129.752011,14.5212776 L142.694056,14.5212776 C139.60636,20.3035058 136.255881,25.1001269 132.708315,28.9111409 L134.285011,35.087612 L155.898884,35.087612 L155.898884,52.7628322 C155.898884,54.2740964 154.979144,55.062582 153.205361,55.062582 C151.365883,55.062582 149.329318,54.8654606 147.227056,54.6026321 L148.738057,61.3047602 L155.570405,61.3047602 C160.366188,61.3047602 162.796928,59.0050104 162.796928,54.4712178 L162.796928,35.087612 L182.965496,35.087612 L182.965496,28.7140195 L162.796928,28.7140195 L162.796928,19.9749701 L155.898884,19.9749701 L155.898884,28.7140195 L141.511534,28.7140195 C144.664926,24.5744698 147.555535,19.8435558 150.249057,14.5212776 L185.659018,14.5212776 L185.659018,7.81914948 L153.336753,7.81914948 C154.125101,5.84793533 154.979144,3.74530689 155.767492,1.64267846 L148.935144,0.0657071385 C147.949709,2.75969982 146.898578,5.32227822 145.847447,7.81914948 L129.752011,7.81914948 Z M143.153925,38.9643331 C139.080794,44.2209042 134.087924,48.7546968 128.043923,52.6314179 L132.445533,58.4136461 C138.555229,54.0112678 143.679491,48.9518182 147.884013,43.16959 L143.153925,38.9643331 Z M173.571016,38.7015046 L168.97232,43.16959 C175.082016,48.6232825 179.746408,53.7484393 183.031191,58.4793533 L188.024062,53.4199036 C184.082322,48.5575753 179.286539,43.62954 173.571016,38.7015046 Z" id="形状"></path>
                        <path d="M194.365233,9.65894936 L194.365233,16.2953703 L212.234453,16.2953703 C212.168757,18.3322916 212.037366,20.9605772 211.905975,24.2459341 C211.577496,30.4224051 210.329279,36.0075119 208.161322,40.9355473 C205.92767,45.8635827 201.328973,51.251568 194.365233,57.0337962 L199.358104,61.8961245 C205.205017,57.1652105 209.738018,51.9086394 212.957105,46.1921184 C215.256453,42.0525686 216.833149,37.5187761 217.752889,32.5250335 L238.644109,32.5250335 C238.512717,41.5926187 238.31563,47.1120183 237.921456,49.1489396 C237.133108,52.8285393 235.490717,54.7340464 232.928586,54.8654606 C230.497847,54.8654606 227.541542,54.7340464 224.059672,54.5369249 L226.096237,60.7791031 C228.986846,60.9762245 231.483282,61.1076388 233.651238,61.1076388 C238.7755,60.9762245 242.125979,58.4136461 243.636979,53.2884893 C244.688109,49.7403038 245.345066,40.6070116 245.607849,26.0200268 L218.541236,26.0200268 C218.804019,22.0118914 218.93541,18.7922416 219.066802,16.2953703 L253.097154,16.2953703 L253.097154,9.65894936 L228.855455,9.65894936 C227.410151,6.04505674 225.767759,2.89111409 224.059672,0.262828554 L217.555802,2.69399268 C219.198193,4.92803539 220.577802,7.22778523 221.760324,9.65894936 L194.365233,9.65894936 Z" id="路径"></path>
                        <path d="M270.737979,29.436798 L284.665459,29.436798 L284.665459,36.993119 L270.737979,36.993119 L270.737979,29.436798 Z M284.665459,43.3667114 L284.665459,50.4630824 C284.665459,57.0995033 287.753155,60.4505674 293.994243,60.4505674 L310.812332,60.4505674 C314.097115,60.4505674 316.330768,59.8592032 317.578985,58.7421818 C318.761507,57.4937462 319.549855,54.0112678 320.009725,48.3604539 L313.440159,46.1921184 C313.243072,50.0688395 312.914593,52.3685894 312.389028,53.0913679 C311.797767,53.7484393 310.878028,54.076975 309.62981,54.076975 L295.570939,54.076975 C292.877417,54.076975 291.563504,52.5000036 291.563504,49.4117681 L291.563504,43.3667114 L312.717506,43.3667114 L312.717506,9.06758511 L291.563504,9.06758511 L291.563504,0.788485662 L284.665459,0.788485662 L284.665459,9.06758511 L263.905631,9.06758511 L263.905631,48.4261611 L270.737979,48.4261611 L270.737979,43.3667114 L284.665459,43.3667114 Z M291.563504,36.993119 L291.563504,29.436798 L305.950853,29.436798 L305.950853,36.993119 L291.563504,36.993119 Z M305.950853,23.1289127 L291.563504,23.1289127 L291.563504,15.5068847 L305.950853,15.5068847 L305.950853,23.1289127 Z M284.665459,15.5068847 L284.665459,23.1289127 L270.737979,23.1289127 L270.737979,15.5068847 L284.665459,15.5068847 Z" id="形状"></path>
                        <path d="M339.358637,12.5500635 L379.630077,12.5500635 L379.630077,5.9793496 L342.709116,5.9793496 C343.366073,4.59949969 343.957334,3.15394265 344.61429,1.57697132 L337.65055,0 C333.840202,9.13329225 329.438593,16.2296632 324.445722,21.2234057 L328.847332,26.5456839 C332.65768,22.6689628 336.205246,18.0037559 339.358637,12.5500635 Z M377.593512,61.4361745 C379.301599,61.4361745 380.878295,60.4505674 382.257904,58.4793533 C383.571817,56.5738462 384.820034,52.6314179 385.871165,46.7177755 L380.221338,43.9580756 C379.761468,46.3235326 379.301599,48.4918682 378.907425,50.3316681 C378.250468,52.5657108 377.593512,53.7484393 376.936555,53.7484393 C375.622642,53.7484393 374.702903,52.6971251 374.177337,50.7259109 C373.520381,48.6232825 373.191902,43.8923685 373.191902,36.533169 L373.191902,26.6113911 L330.424027,26.6113911 L330.424027,33.1163978 L366.950815,33.1163978 L366.950815,36.533169 C366.950815,46.5863612 367.804858,53.2227822 369.578641,56.5081391 C371.286728,59.7277889 373.98025,61.3704673 377.593512,61.4361745 Z M337.716246,16.4924918 L337.716246,22.8003771 L376.673772,22.8003771 L376.673772,16.4924918 L337.716246,16.4924918 Z" id="形状"></path>
                        <path d="M409.490295,46.1921184 C405.679947,49.0832324 399.504555,51.7772251 391.029815,54.2083892 L394.643076,60.1220317 C405.088686,56.1796034 412.380905,51.5801037 416.585427,46.1921184 L417.176688,46.1921184 L417.176688,61.5675888 L424.009036,61.5675888 L424.009036,46.1921184 L424.600297,46.1921184 C429.198994,51.7772251 436.622603,56.3110177 446.871126,59.8592032 L449.827431,53.7484393 C442.075343,51.8429323 436.031342,49.346061 431.761124,46.1921184 L448.973387,46.1921184 L448.973387,39.9499402 L424.009036,39.9499402 L424.009036,37.5844832 L417.176688,37.5844832 L417.176688,39.9499402 L391.818163,39.9499402 L391.818163,46.1921184 L409.490295,46.1921184 Z M397.599381,19.2521916 L397.599381,36.4017547 L447.068213,36.4017547 L447.068213,30.7509408 L425.717124,30.7509408 L425.717124,27.7284124 L443.126474,27.7284124 L443.126474,22.6032556 L425.717124,22.6032556 L425.717124,19.7778487 L443.126474,19.7778487 L443.126474,14.6526919 L425.717124,14.6526919 L425.717124,11.7615778 L445.819996,11.7615778 L445.819996,6.11076388 L425.32295,6.11076388 C424.534602,3.87672117 423.680558,1.90550702 422.826515,0.0657071385 L415.797079,1.24843563 C416.782514,2.75969982 417.702253,4.40237828 418.556297,6.11076388 L406.533991,6.11076388 C407.190947,4.66520683 407.847904,3.21964979 408.373469,1.7083856 L402.00099,0.328535692 C399.307468,7.09637096 395.234337,12.9443063 389.847293,17.8723417 L393.854728,23.0632056 C395.168641,21.81477 396.416859,20.5663343 397.599381,19.2521916 Z M418.950471,30.7509408 L403.906164,30.7509408 L403.906164,27.7284124 L418.950471,27.7284124 L418.950471,30.7509408 Z M418.950471,22.6032556 L403.906164,22.6032556 L403.906164,19.7778487 L418.950471,19.7778487 L418.950471,22.6032556 Z M418.950471,14.6526919 L403.906164,14.6526919 L403.906164,11.7615778 L418.950471,11.7615778 L418.950471,14.6526919 Z" id="形状"></path>
                        <path d="M468.716474,18.5951202 L468.716474,24.7058841 L485.403172,24.7058841 C480.935867,30.8823551 474.957562,35.8103905 467.468256,39.4899902 L471.147213,45.6007541 C478.899301,40.8698401 485.206085,34.5619548 490.067564,26.6770982 L490.067564,41.3297901 C490.067564,43.0381757 489.344911,43.9580756 487.965303,43.9580756 C485.73165,43.9580756 483.497998,43.7609542 481.132954,43.4981257 L482.578258,49.806011 L490.198955,49.806011 C494.403477,49.806011 496.571434,47.5062611 496.571434,43.0381757 L496.571434,24.7058841 L503.995044,24.7058841 L503.995044,18.5951202 L496.571434,18.5951202 L496.571434,11.4987492 L490.067564,11.4987492 L490.067564,18.5951202 L468.716474,18.5951202 Z M513.455219,2.89111409 L458.533647,2.89111409 L458.533647,61.5018816 L465.103213,61.5018816 L465.103213,59.2021318 L506.885653,59.2021318 L506.885653,61.5018816 L513.455219,61.5018816 L513.455219,2.89111409 Z M465.103213,53.0256608 L465.103213,9.06758511 L506.885653,9.06758511 L506.885653,53.0256608 L465.103213,53.0256608 Z" id="形状"></path>
                        <path d="M542.855567,25.4943697 L566.768788,25.4943697 L566.768788,30.7509408 L542.855567,30.7509408 L542.855567,25.4943697 Z M566.768788,36.6645833 L566.768788,41.7897401 L542.855567,41.7897401 L542.855567,36.6645833 L566.768788,36.6645833 Z M566.768788,47.7033825 L566.768788,53.0256608 C566.768788,54.4712178 565.98044,55.1939963 564.403744,55.1939963 C562.301483,55.1939963 560.002135,55.062582 557.571395,54.8654606 L559.213787,61.0419317 L566.571701,61.0419317 C570.97331,60.9105174 573.206963,59.0050104 573.206963,55.1939963 L573.206963,19.5807273 L543.512524,19.5807273 C544.62935,17.6752203 545.680481,15.7697132 546.731611,13.7984991 L580.959051,13.7984991 L580.959051,7.16207809 L549.62222,7.16207809 C550.344873,5.19086394 551.001829,3.15394265 551.658786,1.05131422 L544.62935,0.197121415 C543.906698,2.5625784 543.052654,4.86232825 542.06722,7.16207809 L522.949782,7.16207809 L522.949782,13.7984991 L538.782437,13.7984991 C534.446523,21.2891129 528.599609,27.991241 521.175999,33.8391763 L525.643304,39.6871116 C529.585044,36.4674619 533.198305,32.9849835 536.417393,29.3053838 L536.417393,61.3704673 L542.855567,61.3704673 L542.855567,47.7033825 L566.768788,47.7033825 Z" id="形状"></path>
                        <path d="M588.942614,2.69399268 L588.942614,61.5018816 L595.643571,61.5018816 L595.643571,9.13329225 L603.855529,9.13329225 C602.213137,14.3241562 599.913789,20.1720915 597.02318,26.6770982 C601.424789,32.1307907 603.658442,37.0588261 603.658442,41.4612044 C603.658442,42.5125186 603.395659,43.2352971 602.870094,43.62954 C602.344529,44.0237828 601.293398,44.2209042 599.716702,44.3523185 C598.731267,44.3523185 597.48305,44.2209042 596.037745,43.9580756 L598.271398,50.9230323 C603.132877,50.8573252 606.614747,49.9374252 608.585616,48.2290396 C609.89953,46.9148969 610.556486,44.615147 610.556486,41.4612044 C610.228008,36.993119 608.060051,31.7365479 603.98692,25.625784 C606.549051,19.449313 608.782703,13.6013777 610.753573,8.08197803 L610.753573,2.69399268 L588.942614,2.69399268 Z M619.359705,20.7634558 L635.980707,20.7634558 L635.980707,26.2171483 L619.359705,26.2171483 L619.359705,20.7634558 Z M635.980707,14.5869847 L619.359705,14.5869847 L619.359705,9.06758511 L635.980707,9.06758511 L635.980707,14.5869847 Z M624.943836,32.4593264 C627.111793,44.4837328 633.549967,54.0112678 644.192664,61.0419317 L648.003013,54.9968749 C643.667099,52.5000036 640.185229,49.4774753 637.491707,46.0607041 C640.77649,44.2209042 643.79849,41.7240329 646.492012,38.5700903 L642.156099,34.167712 C639.659664,37.1902404 637.031837,39.4899902 634.27262,41.1983758 C632.827315,38.5043832 631.776185,35.6132691 631.119228,32.4593264 L642.681664,32.4593264 L642.681664,2.62828554 L612.593052,2.62828554 L612.593052,52.5657108 C612.593052,53.4856107 612.001791,54.1426821 610.95066,54.4712178 L612.593052,60.5162745 C619.950966,58.6764747 626.060662,56.7052605 630.922141,54.6683392 L629.279749,48.2947468 C625.994966,49.8717181 622.710183,51.1201537 619.359705,52.171468 L619.359705,32.4593264 L624.943836,32.4593264 Z" id="形状"></path>
                        <path d="M669.914056,1.18272849 C666.169403,13.3385491 660.388185,23.1289127 652.570402,30.4881123 L658.023141,35.2190262 C665.578142,27.9255339 671.687839,17.4780988 676.286535,3.81101403 L669.914056,1.18272849 Z M695.535364,36.0075119 L689.359972,38.1101403 C691.527928,41.5269115 693.630189,45.3379256 695.666755,49.4774753 C687.25771,50.791618 678.585883,51.711518 669.782665,52.3028822 C675.169709,44.8122684 680.425362,35.7446833 685.549623,25.165834 L678.78297,22.8003771 C670.242534,41.6583258 663.738664,51.5801037 659.337055,52.5657108 L660.519577,59.2678389 C674.512752,58.347939 687.192015,57.0995033 698.491668,55.3911177 C699.345712,57.3623319 700.199756,59.3992532 701.053799,61.5018816 L707.491974,58.6107675 C704.141495,50.5944966 700.13406,43.0381757 695.535364,36.0075119 Z M694.418537,0.657071385 L688.505928,3.94242831 C692.250581,16.8210275 698.820147,27.2684625 708.214626,35.3504405 L713.141801,29.6339195 C704.207191,22.1433057 697.966103,12.4843563 694.418537,0.657071385 Z" id="形状"></path>
                        <path d="M724.541538,28.1883624 L724.541538,50.0031324 L755.024325,50.0031324 L755.024325,28.1883624 L724.541538,28.1883624 Z M748.454759,43.9580756 L731.045409,43.9580756 L731.045409,34.2334191 L748.454759,34.2334191 L748.454759,43.9580756 Z M765.798413,60.9762245 C770.791283,60.9762245 773.287718,58.347939 773.287718,53.0913679 L773.287718,2.69399268 L722.70206,2.69399268 L722.70206,9.26470653 L766.45537,9.26470653 L766.45537,51.1858609 C766.45537,53.4199036 765.732717,54.6026321 764.287413,54.6026321 L754.958629,54.4055107 L756.732412,60.9762245 L765.798413,60.9762245 Z M719.023103,15.638299 L719.023103,21.8804771 L761.00263,21.8804771 L761.00263,15.638299 L719.023103,15.638299 Z" id="形状"></path>
                    </g>
                    <g id="DONGFANG-ELECTRIC-CORPORATION" transform="translate(0.000000, 94.867343)">
                        <path d="M0,0.430663423 L11.5914342,0.430663423 C13.8764222,0.430663423 15.7222102,0.740741088 17.1287983,1.36089642 C18.5353864,1.98105175 19.6979746,2.87108949 20.6165627,4.03100964 C21.5351508,5.1909298 22.2011273,6.54034186 22.6144919,8.07924582 C23.0278566,9.61814979 23.2345389,11.2489286 23.2345389,12.9715823 C23.2345389,15.6704064 22.927386,17.7634307 22.3130802,19.250655 C21.6987744,20.7378794 20.8462097,21.9839322 19.7553863,22.9888135 C18.6645629,23.9936949 17.493363,24.6626587 16.2417867,24.9957051 C14.5309162,25.4550794 12.9807987,25.6847666 11.5914342,25.6847666 L0,25.6847666 L0,0.430663423 Z M7.80225806,6.14987369 L7.80225806,19.9483298 L9.71406964,19.9483298 C11.3445636,19.9483298 12.5042811,19.7674511 13.1932222,19.4056939 C13.8821634,19.0439366 14.4218339,18.4122969 14.8122339,17.5107748 C15.2026338,16.6092527 15.3978338,15.1478681 15.3978338,13.1266211 C15.3978338,10.4507657 14.9615044,8.61901065 14.0888457,7.63135586 C13.2161869,6.64370108 11.7694106,6.14987369 9.7485167,6.14987369 L7.80225806,6.14987369 Z" id="形状"></path>
                        <path d="M28.1156867,13.0749415 C28.1156867,8.95205703 29.2639219,5.74217898 31.5603922,3.44530739 C33.8568626,1.1484358 37.0546976,0 41.1538972,0 C45.3564379,0 48.5944612,1.12833817 50.8679668,3.38501451 C53.1414725,5.64169085 54.2782253,8.80276037 54.2782253,12.8682231 C54.2782253,15.8197031 53.7816136,18.2400315 52.7883902,20.1292084 C51.7951667,22.0183853 50.3598727,23.4883831 48.4825082,24.5392019 C46.6051437,25.5900206 44.2656145,26.11543 41.4639207,26.11543 C38.6162974,26.11543 36.2595447,25.6617979 34.3936625,24.7545336 C32.5277804,23.8472693 31.0149805,22.4117246 29.855263,20.4478993 C28.6955454,18.4840741 28.1156867,16.0264215 28.1156867,13.0749415 Z M35.9179447,13.1093946 C35.9179447,15.6589221 36.3915918,17.4906772 37.3388858,18.6046599 C38.2861798,19.7186426 39.5750738,20.275634 41.2055678,20.275634 C42.8819911,20.275634 44.1794969,19.730127 45.098085,18.639113 C46.0166732,17.548099 46.4759672,15.5900159 46.4759672,12.7648639 C46.4759672,10.3876018 45.9965791,8.65059263 45.0378027,7.55383645 C44.0790263,6.45708026 42.77865,5.90870217 41.1366736,5.90870217 C39.5635914,5.90870217 38.3005327,6.46569353 37.3474975,7.57967625 C36.3944623,8.69365897 35.9179447,10.5368984 35.9179447,13.1093946 Z" id="形状"></path>
                        <polygon id="路径" points="60.2961259 0.430663423 67.5816781 0.430663423 77.0890654 14.4013849 77.0890654 0.430663423 84.4435118 0.430663423 84.4435118 25.6847666 77.0890654 25.6847666 67.6333487 11.8174043 67.6333487 25.6847666 60.2961259 25.6847666"></polygon>
                        <path d="M104.085223,16.5374755 L104.085223,11.2833817 L116.141692,11.2833817 L116.141692,22.0499673 C113.83374,23.6233243 111.792751,24.6942407 110.018728,25.2627164 C108.244705,25.8311921 106.140564,26.11543 103.706305,26.11543 C100.709411,26.11543 98.266541,25.6043761 96.3776942,24.5822682 C94.4888473,23.5601603 93.0248474,22.0384829 91.9856946,20.0172359 C90.9465417,17.9959889 90.4269653,15.6761486 90.4269653,13.057715 C90.4269653,10.3014691 90.9953417,7.90410936 92.1320946,5.86563583 C93.2688474,3.82716229 94.9337884,2.27964505 97.1269176,1.22308412 C98.837788,0.407694707 101.14,0 104.033552,0 C106.823764,0 108.910681,0.252655875 110.294305,0.757967625 C111.677928,1.26327938 112.826163,2.04708681 113.73901,3.10938992 C114.651857,4.17169303 115.337928,5.518234 115.797222,7.14901283 L108.27054,8.49268271 C107.960517,7.539481 107.435199,6.81022427 106.694587,6.30491252 C105.953976,5.79960077 105.009552,5.54694489 103.861317,5.54694489 C102.150447,5.54694489 100.786917,6.14126042 99.7707291,7.32989147 C98.754541,8.51852251 98.2464469,10.3990861 98.2464469,12.9715823 C98.2464469,15.7048595 98.7602822,17.6572004 99.7879526,18.8286049 C100.815623,20 102.248047,20.5857116 104.085223,20.5857116 C104.957882,20.5857116 105.790352,20.4593837 106.582634,20.2067278 C107.374917,19.9540719 108.282022,19.5234085 109.303952,18.9147376 L109.303952,16.5374755 L104.085223,16.5374755 Z" id="路径"></path>
                        <polygon id="路径" points="122.572957 0.430663423 141.863309 0.430663423 141.863309 5.85702256 130.409663 5.85702256 130.409663 10.267016 140.192626 10.267016 140.192626 15.3660709 130.409663 15.3660709 130.409663 25.6847666 122.572957 25.6847666"></polygon>
                        <path d="M160.04102,21.5159446 L151.153679,21.5159446 L149.930809,25.6847666 L141.956316,25.6847666 L151.446479,0.430663423 L159.954902,0.430663423 L169.445066,25.6847666 L161.281114,25.6847666 L160.04102,21.5159446 Z M158.404785,16.0551324 L155.614573,6.97674746 L152.841585,16.0551324 L158.404785,16.0551324 Z" id="形状"></path>
                        <polygon id="路径" points="173.757837 0.430663423 181.043389 0.430663423 190.550777 14.4013849 190.550777 0.430663423 197.905223 0.430663423 197.905223 25.6847666 190.550777 25.6847666 181.09506 11.8174043 181.09506 25.6847666 173.757837 25.6847666"></polygon>
                        <path d="M217.546934,16.5374755 L217.546934,11.2833817 L229.603404,11.2833817 L229.603404,22.0499673 C227.295451,23.6233243 225.254463,24.6942407 223.480439,25.2627164 C221.706416,25.8311921 219.602275,26.11543 217.168017,26.11543 C214.171123,26.11543 211.728252,25.6043761 209.839405,24.5822682 C207.950559,23.5601603 206.486559,22.0384829 205.447406,20.0172359 C204.408253,17.9959889 203.888677,15.6761486 203.888677,13.057715 C203.888677,10.3014691 204.457053,7.90410936 205.593806,5.86563583 C206.730559,3.82716229 208.3955,2.27964505 210.588629,1.22308412 C212.299499,0.407694707 214.601711,0 217.495264,0 C220.285475,0 222.372392,0.252655875 223.756016,0.757967625 C225.139639,1.26327938 226.287874,2.04708681 227.200721,3.10938992 C228.113568,4.17169303 228.799639,5.518234 229.258933,7.14901283 L221.732251,8.49268271 C221.422228,7.539481 220.89691,6.81022427 220.156299,6.30491252 C219.415687,5.79960077 218.471263,5.54694489 217.323028,5.54694489 C215.612158,5.54694489 214.248629,6.14126042 213.23244,7.32989147 C212.216252,8.51852251 211.708158,10.3990861 211.708158,12.9715823 C211.708158,15.7048595 212.221993,17.6572004 213.249664,18.8286049 C214.277334,20 215.709758,20.5857116 217.546934,20.5857116 C218.419593,20.5857116 219.252063,20.4593837 220.044346,20.2067278 C220.836628,19.9540719 221.743734,19.5234085 222.765663,18.9147376 L222.765663,16.5374755 L217.546934,16.5374755 Z" id="路径"></path>
                        <polygon id="路径" points="249.510357 0.430663423 270.41972 0.430663423 270.41972 5.82256948 257.329839 5.82256948 257.329839 9.83635259 269.472426 9.83635259 269.472426 14.9870871 257.329839 14.9870871 257.329839 19.9655563 270.798637 19.9655563 270.798637 25.6847666 249.510357 25.6847666"></polygon>
                        <polygon id="路径" points="276.764867 0.430663423 284.567125 0.430663423 284.567125 19.4659867 296.744159 19.4659867 296.744159 25.6847666 276.764867 25.6847666"></polygon>
                        <polygon id="路径" points="302.038672 0.430663423 322.948034 0.430663423 322.948034 5.82256948 309.858153 5.82256948 309.858153 9.83635259 322.00074 9.83635259 322.00074 14.9870871 309.858153 14.9870871 309.858153 19.9655563 323.326952 19.9655563 323.326952 25.6847666 302.038672 25.6847666"></polygon>
                        <path d="M346.103345,15.3660709 L352.941086,17.4332554 C352.481792,19.3511432 351.758403,20.9532111 350.770921,22.2394592 C349.783439,23.5257073 348.557698,24.4961355 347.093698,25.1507439 C345.629698,25.8053523 343.766687,26.1326565 341.504663,26.1326565 C338.760381,26.1326565 336.518452,25.7335751 334.778876,24.9354122 C333.039299,24.1372493 331.537982,22.7332866 330.274923,20.7235239 C329.011864,18.7137613 328.380335,16.1412651 328.380335,13.0060354 C328.380335,8.82572909 329.491253,5.61297995 331.713088,3.36778797 C333.934923,1.12259599 337.078217,0 341.142969,0 C344.323581,0 346.823863,0.643124046 348.643816,1.92937214 C350.463768,3.21562023 351.815815,5.1909298 352.699956,7.85530084 L345.810545,9.38846263 C345.569416,8.61901065 345.316804,8.05627711 345.05271,7.70026201 C344.616381,7.1030754 344.082451,6.64370108 343.450922,6.32213905 C342.819393,6.00057703 342.113228,5.83979602 341.332428,5.83979602 C339.564146,5.83979602 338.209228,6.55182621 337.267675,7.9758866 C336.55577,9.03244753 336.199817,10.6919373 336.199817,12.9543558 C336.199817,15.7565391 336.624664,17.677298 337.474358,18.7166324 C338.324052,19.7559668 339.518216,20.275634 341.056852,20.275634 C342.549557,20.275634 343.677698,19.8564549 344.441275,19.0180968 C345.204851,18.1797386 345.758875,16.9623967 346.103345,15.3660709 Z" id="路径"></path>
                        <polygon id="路径" points="356.719928 0.430663423 380.436725 0.430663423 380.436725 6.66666979 372.479456 6.66666979 372.479456 25.6847666 364.677197 25.6847666 364.677197 6.66666979 356.719928 6.66666979"></polygon>
                        <path d="M385.834579,25.6847666 L385.834579,0.430663423 L398.838342,0.430663423 C401.249636,0.430663423 403.092554,0.637381867 404.367095,1.05081875 C405.641636,1.46425564 406.669306,2.23083653 407.450106,3.35056143 C408.230906,4.47028633 408.621306,5.83405384 408.621306,7.44186396 C408.621306,8.84295563 408.322765,10.0516843 407.725683,11.06805 C407.1286,12.0844157 406.307612,12.9084183 405.262718,13.540058 C404.596742,13.9420106 403.683895,14.2750569 402.524177,14.5391972 C403.454248,14.8492748 404.131707,15.1593525 404.556554,15.4694302 C404.843612,15.6761486 405.259848,16.1182964 405.805259,16.7958735 C406.350671,17.4734506 406.715236,17.9959889 406.898953,18.3634884 L410.670906,25.6847666 L401.85246,25.6847666 L397.684366,17.967278 C397.156178,16.9681389 396.685401,16.3192727 396.272037,16.0206793 C395.709402,15.6302112 395.072131,15.4349771 394.360225,15.4349771 L393.671284,15.4349771 L393.671284,25.6847666 L385.834579,25.6847666 Z M393.671284,10.6632264 L396.960978,10.6632264 C397.316931,10.6632264 398.005872,10.5483828 399.027801,10.3186956 C399.544507,10.2153364 399.966483,9.95119617 400.29373,9.52627492 C400.620978,9.10135368 400.784601,8.61326847 400.784601,8.06201929 C400.784601,7.24662987 400.526248,6.62073236 400.009542,6.18432676 C399.492836,5.74792116 398.522578,5.52971836 397.098766,5.52971836 L393.671284,5.52971836 L393.671284,10.6632264 Z" id="形状"></path>
                        <polygon id="路径" points="415.24203 0.430663423 423.061512 0.430663423 423.061512 25.6847666 415.24203 25.6847666"></polygon>
                        <path d="M447.233011,15.3660709 L454.070751,17.4332554 C453.611457,19.3511432 452.888069,20.9532111 451.900587,22.2394592 C450.913104,23.5257073 449.687363,24.4961355 448.223363,25.1507439 C446.759364,25.8053523 444.896352,26.1326565 442.634329,26.1326565 C439.890047,26.1326565 437.648117,25.7335751 435.908541,24.9354122 C434.168965,24.1372493 432.667647,22.7332866 431.404589,20.7235239 C430.14153,18.7137613 429.510001,16.1412651 429.510001,13.0060354 C429.510001,8.82572909 430.620918,5.61297995 432.842753,3.36778797 C435.064588,1.12259599 438.207882,0 442.272635,0 C445.453246,0 447.953528,0.643124046 449.773481,1.92937214 C451.593434,3.21562023 452.945481,5.1909298 453.829622,7.85530084 L446.940211,9.38846263 C446.699081,8.61901065 446.44647,8.05627711 446.182375,7.70026201 C445.746046,7.1030754 445.212117,6.64370108 444.580587,6.32213905 C443.949058,6.00057703 443.242893,5.83979602 442.462093,5.83979602 C440.693811,5.83979602 439.338894,6.55182621 438.397341,7.9758866 C437.685435,9.03244753 437.329482,10.6919373 437.329482,12.9543558 C437.329482,15.7565391 437.754329,17.677298 438.604023,18.7166324 C439.453717,19.7559668 440.647882,20.275634 442.186517,20.275634 C443.679223,20.275634 444.807364,19.8564549 445.57094,19.0180968 C446.334517,18.1797386 446.88854,16.9623967 447.233011,15.3660709 Z" id="路径"></path>
                        <path d="M489.961138,15.3660709 L496.798879,17.4332554 C496.339585,19.3511432 495.616197,20.9532111 494.628714,22.2394592 C493.641232,23.5257073 492.415491,24.4961355 490.951491,25.1507439 C489.487491,25.8053523 487.62448,26.1326565 485.362456,26.1326565 C482.618174,26.1326565 480.376245,25.7335751 478.636669,24.9354122 C476.897092,24.1372493 475.395775,22.7332866 474.132716,20.7235239 C472.869658,18.7137613 472.238128,16.1412651 472.238128,13.0060354 C472.238128,8.82572909 473.349046,5.61297995 475.570881,3.36778797 C477.792716,1.12259599 480.93601,0 485.000762,0 C488.181374,0 490.681656,0.643124046 492.501609,1.92937214 C494.321561,3.21562023 495.673608,5.1909298 496.557749,7.85530084 L489.668338,9.38846263 C489.427209,8.61901065 489.174597,8.05627711 488.910503,7.70026201 C488.474174,7.1030754 487.940244,6.64370108 487.308715,6.32213905 C486.677186,6.00057703 485.971021,5.83979602 485.190221,5.83979602 C483.421939,5.83979602 482.067021,6.55182621 481.125469,7.9758866 C480.413563,9.03244753 480.05761,10.6919373 480.05761,12.9543558 C480.05761,15.7565391 480.482457,17.677298 481.332151,18.7166324 C482.181845,19.7559668 483.376009,20.275634 484.914645,20.275634 C486.40735,20.275634 487.535491,19.8564549 488.299068,19.0180968 C489.062644,18.1797386 489.616668,16.9623967 489.961138,15.3660709 Z" id="路径"></path>
                        <path d="M501.370003,13.0749415 C501.370003,8.95205703 502.518238,5.74217898 504.814709,3.44530739 C507.111179,1.1484358 510.309014,0 514.408214,0 C518.610754,0 521.848777,1.12833817 524.122283,3.38501451 C526.395789,5.64169085 527.532542,8.80276037 527.532542,12.8682231 C527.532542,15.8197031 527.03593,18.2400315 526.042706,20.1292084 C525.049483,22.0183853 523.614189,23.4883831 521.736825,24.5392019 C519.85946,25.5900206 517.519931,26.11543 514.718237,26.11543 C511.870614,26.11543 509.513861,25.6617979 507.647979,24.7545336 C505.782097,23.8472693 504.269297,22.4117246 503.109579,20.4478993 C501.949862,18.4840741 501.370003,16.0264215 501.370003,13.0749415 Z M509.172261,13.1093946 C509.172261,15.6589221 509.645908,17.4906772 510.593202,18.6046599 C511.540496,19.7186426 512.82939,20.275634 514.459884,20.275634 C516.136307,20.275634 517.433813,19.730127 518.352401,18.639113 C519.270989,17.548099 519.730284,15.5900159 519.730284,12.7648639 C519.730284,10.3876018 519.250895,8.65059263 518.292119,7.55383645 C517.333343,6.45708026 516.032966,5.90870217 514.39099,5.90870217 C512.817908,5.90870217 511.554849,6.46569353 510.601814,7.57967625 C509.648779,8.69365897 509.172261,10.5368984 509.172261,13.1093946 Z" id="形状"></path>
                        <path d="M533.602113,25.6847666 L533.602113,0.430663423 L546.605876,0.430663423 C549.01717,0.430663423 550.860088,0.637381867 552.134629,1.05081875 C553.40917,1.46425564 554.43684,2.23083653 555.21764,3.35056143 C555.99844,4.47028633 556.38884,5.83405384 556.38884,7.44186396 C556.38884,8.84295563 556.090299,10.0516843 555.493217,11.06805 C554.896134,12.0844157 554.075146,12.9084183 553.030252,13.540058 C552.364276,13.9420106 551.451429,14.2750569 550.291711,14.5391972 C551.221782,14.8492748 551.89924,15.1593525 552.324087,15.4694302 C552.611146,15.6761486 553.027382,16.1182964 553.572793,16.7958735 C554.118205,17.4734506 554.48277,17.9959889 554.666487,18.3634884 L558.43844,25.6847666 L549.619994,25.6847666 L545.4519,17.967278 C544.923712,16.9681389 544.452935,16.3192727 544.039571,16.0206793 C543.476935,15.6302112 542.839665,15.4349771 542.127759,15.4349771 L541.438818,15.4349771 L541.438818,25.6847666 L533.602113,25.6847666 Z M541.438818,10.6632264 L544.728512,10.6632264 C545.084465,10.6632264 545.773406,10.5483828 546.795335,10.3186956 C547.312041,10.2153364 547.734017,9.95119617 548.061264,9.52627492 C548.388511,9.10135368 548.552135,8.61326847 548.552135,8.06201929 C548.552135,7.24662987 548.293782,6.62073236 547.777076,6.18432676 C547.26037,5.74792116 546.290112,5.52971836 544.8663,5.52971836 L541.438818,5.52971836 L541.438818,10.6632264 Z" id="形状"></path>
                        <path d="M562.665094,0.430663423 L575.63441,0.430663423 C578.459068,0.430663423 580.574692,1.10249836 581.98128,2.44616824 C583.387868,3.78983813 584.091162,5.70198373 584.091162,8.18260504 C584.091162,10.7321325 583.324715,12.7246686 581.791821,14.1602134 C580.258927,15.5957581 577.919398,16.3135305 574.773234,16.3135305 L570.501799,16.3135305 L570.501799,25.6847666 L562.665094,25.6847666 L562.665094,0.430663423 Z M570.501799,11.197249 L572.41361,11.197249 C573.917798,11.197249 574.974175,10.9359799 575.582739,10.4134416 C576.191304,9.89090329 576.495586,9.22193944 576.495586,8.40655002 C576.495586,7.61412932 576.231492,6.94229438 575.703304,6.3910452 C575.175116,5.83979602 574.181892,5.56417143 572.723634,5.56417143 L570.501799,5.56417143 L570.501799,11.197249 Z" id="形状"></path>
                        <path d="M588.955086,13.0749415 C588.955086,8.95205703 590.103321,5.74217898 592.399792,3.44530739 C594.696262,1.1484358 597.894097,0 601.993297,0 C606.195838,0 609.433861,1.12833817 611.707366,3.38501451 C613.980872,5.64169085 615.117625,8.80276037 615.117625,12.8682231 C615.117625,15.8197031 614.621013,18.2400315 613.62779,20.1292084 C612.634566,22.0183853 611.199272,23.4883831 609.321908,24.5392019 C607.444543,25.5900206 605.105014,26.11543 602.30332,26.11543 C599.455697,26.11543 597.098944,25.6617979 595.233062,24.7545336 C593.36718,23.8472693 591.85438,22.4117246 590.694663,20.4478993 C589.534945,18.4840741 588.955086,16.0264215 588.955086,13.0749415 Z M596.757344,13.1093946 C596.757344,15.6589221 597.230991,17.4906772 598.178285,18.6046599 C599.125579,19.7186426 600.414473,20.275634 602.044967,20.275634 C603.721391,20.275634 605.018896,19.730127 605.937485,18.639113 C606.856073,17.548099 607.315367,15.5900159 607.315367,12.7648639 C607.315367,10.3876018 606.835979,8.65059263 605.877202,7.55383645 C604.918426,6.45708026 603.61805,5.90870217 601.976073,5.90870217 C600.402991,5.90870217 599.139932,6.46569353 598.186897,7.57967625 C597.233862,8.69365897 596.757344,10.5368984 596.757344,13.1093946 Z" id="形状"></path>
                        <path d="M621.187196,25.6847666 L621.187196,0.430663423 L634.19096,0.430663423 C636.602253,0.430663423 638.445171,0.637381867 639.719712,1.05081875 C640.994253,1.46425564 642.021923,2.23083653 642.802723,3.35056143 C643.583523,4.47028633 643.973923,5.83405384 643.973923,7.44186396 C643.973923,8.84295563 643.675382,10.0516843 643.0783,11.06805 C642.481218,12.0844157 641.660229,12.9084183 640.615335,13.540058 C639.949359,13.9420106 639.036512,14.2750569 637.876794,14.5391972 C638.806865,14.8492748 639.484324,15.1593525 639.909171,15.4694302 C640.19623,15.6761486 640.612465,16.1182964 641.157876,16.7958735 C641.703288,17.4734506 642.067853,17.9959889 642.25157,18.3634884 L646.023523,25.6847666 L637.205077,25.6847666 L633.036983,17.967278 C632.508795,16.9681389 632.038019,16.3192727 631.624654,16.0206793 C631.062019,15.6302112 630.424748,15.4349771 629.712842,15.4349771 L629.023901,15.4349771 L629.023901,25.6847666 L621.187196,25.6847666 Z M629.023901,10.6632264 L632.313595,10.6632264 C632.669548,10.6632264 633.358489,10.5483828 634.380418,10.3186956 C634.897124,10.2153364 635.319101,9.95119617 635.646348,9.52627492 C635.973595,9.10135368 636.137218,8.61326847 636.137218,8.06201929 C636.137218,7.24662987 635.878865,6.62073236 635.362159,6.18432676 C634.845454,5.74792116 633.875195,5.52971836 632.451383,5.52971836 L629.023901,5.52971836 L629.023901,10.6632264 Z" id="形状"></path>
                        <path d="M665.820246,21.5159446 L656.932906,21.5159446 L655.710035,25.6847666 L647.735542,25.6847666 L657.225705,0.430663423 L665.734128,0.430663423 L675.224292,25.6847666 L667.06034,25.6847666 L665.820246,21.5159446 Z M664.184011,16.0551324 L661.393799,6.97674746 L658.620811,16.0551324 L664.184011,16.0551324 Z" id="形状"></path>
                        <polygon id="路径" points="675.282852 0.430663423 698.99965 0.430663423 698.99965 6.66666979 691.04238 6.66666979 691.04238 25.6847666 683.240122 25.6847666 683.240122 6.66666979 675.282852 6.66666979"></polygon>
                        <polygon id="路径" points="704.604186 0.430663423 712.423667 0.430663423 712.423667 25.6847666 704.604186 25.6847666"></polygon>
                        <path d="M718.803262,13.0749415 C718.803262,8.95205703 719.951497,5.74217898 722.247967,3.44530739 C724.544438,1.1484358 727.742273,0 731.841472,0 C736.044013,0 739.282036,1.12833817 741.555542,3.38501451 C743.829048,5.64169085 744.9658,8.80276037 744.9658,12.8682231 C744.9658,15.8197031 744.469189,18.2400315 743.475965,20.1292084 C742.482742,22.0183853 741.047448,23.4883831 739.170083,24.5392019 C737.292719,25.5900206 734.95319,26.11543 732.151496,26.11543 C729.303873,26.11543 726.94712,25.6617979 725.081238,24.7545336 C723.215356,23.8472693 721.702556,22.4117246 720.542838,20.4478993 C719.383121,18.4840741 718.803262,16.0264215 718.803262,13.0749415 Z M726.60552,13.1093946 C726.60552,15.6589221 727.079167,17.4906772 728.026461,18.6046599 C728.973755,19.7186426 730.262649,20.275634 731.893143,20.275634 C733.569566,20.275634 734.867072,19.730127 735.78566,18.639113 C736.704248,17.548099 737.163542,15.5900159 737.163542,12.7648639 C737.163542,10.3876018 736.684154,8.65059263 735.725378,7.55383645 C734.766601,6.45708026 733.466225,5.90870217 731.824249,5.90870217 C730.251167,5.90870217 728.988108,6.46569353 728.035073,7.57967625 C727.082038,8.69365897 726.60552,10.5368984 726.60552,13.1093946 Z" id="形状"></path>
                        <polygon id="路径" points="750.983701 0.430663423 758.269253 0.430663423 767.776641 14.4013849 767.776641 0.430663423 775.131087 0.430663423 775.131087 25.6847666 767.776641 25.6847666 758.320924 11.8174043 758.320924 25.6847666 750.983701 25.6847666"></polygon>
                    </g>
                </g>
                <path d="M48.5172127,81.4280581 C47.7512368,81.1777212 47.6855817,81.2348156 47.3201017,80.6375206 L52.6819333,48.4560563 C53.2947141,47.307581 53.5091874,47.2087638 54.7828959,46.9781903 C84.4852544,43.7238109 75.8406688,77.2996956 59.5078732,81.1996806 L48.5172127,81.4280581 Z M35.5590883,42.0329391 L35.1213878,45.9263363 L39.3298784,46.2162 C41.387071,47.729201 40.5379319,48.6185557 39.9492247,51.7477666 L35.4824907,78.4920896 C34.939742,80.5145481 34.5195495,81.1096472 32.4645455,81.6542397 L28.3939305,81.7838 L28,86 L59.9039922,85.4751709 C86.8860419,85.4641912 99.5509069,44.9008335 65.0229,42 L35.5590883,42.0329391 Z" id="Fill-3" fill="#22418D"></path>
                <path d="M91.2612624,42.1737131 L135,42 L133.615335,51.8752624 L130.600232,51.9126437 C130.222796,48.9045477 129.939719,46.7364318 126.14341,46.8507746 L110.277914,46.8507746 C108.906415,47.0002999 108.921776,47.3873063 108.722086,48.4097951 L106.64838,60.5367316 L122.206661,60.3630185 C124.001678,59.1646177 124.79605,58.0849575 125.48948,54.8195902 L128.631857,54.7976012 L126.18291,70.831984 L123.071253,70.7792104 C122.737705,67.1554223 123.003227,65.7811094 119.612882,65.04008 L105.783787,65.2137931 L103.323867,79.9376312 C103.767136,80.606097 104.695366,80.6170915 105.95495,80.6302849 L120.477475,80.6302849 C124.962824,79.9178411 125.267846,79.2361819 128.429973,74.3392304 L131.886149,74.3964018 L128.083258,86 L84,86 L84.1755518,81.3229385 L87.458371,81.3229385 C90.4208081,81.2525737 91.1010714,80.7116442 91.6079773,78.0311844 L96.2754615,50.8351824 C96.7011746,47.5698151 96.4246805,45.9844078 92.2992126,45.9844078 L90.5700271,45.9844078 L91.2612624,42.1737131 Z" id="Fill-5" fill="#22418D"></path>
            </g>
        </g>
    </g>
</svg>