<?xml version="1.0" encoding="UTF-8"?>
<svg width="1024px" height="512px" viewBox="0 0 1024 512" version="1.1" xmlns="http://www.w3.org/2000/svg" xmlns:xlink="http://www.w3.org/1999/xlink">
    <title>中国铁路通信信号集团有限公司@2x</title>
    <defs>
        <polygon id="path-1" points="0 0 1024 0 1024 205.767312 0 205.767312"></polygon>
    </defs>
    <g id="页面-1" stroke="none" stroke-width="1" fill="none" fill-rule="evenodd">
        <g id="71.中国铁路通信信号集团有限公司" transform="translate(0.000000, -128.000000)">
            <g id="中国铁路通信信号集团有限公司" transform="translate(0.000000, 128.000000)">
                <polygon id="Fill-1" fill="#FEFEFE" points="0 512 1024 512 1024 0 0 0"></polygon>
                <g id="编组">
                    <path d="M0.0871655352,2.50285467 L0.0871655352,1.60011519 C1.40909589,0.39445913 3.05609109,0.233384442 4.72957305,0.170877847 C6.53789672,0.102361002 8.34622039,0.12760405 10.1545441,0.12760405 C344.718502,0.126402 679.282461,0.1239979 1013.84522,0.164867597 C1017.2295,0.164867597 1020.82568,-0.717437036 1023.9138,1.60011519 L1023.9138,199.361366 C1022.43295,200.71247 1020.5861,200.611498 1018.78259,200.623519 C1013.6574,200.657176 1008.53341,200.636741 1003.40943,200.636741 C836.86908,200.637943 670.329934,200.637943 503.789584,200.639145 C500.776113,200.639145 497.761438,200.595872 494.75519,200.719683 C491.083161,200.45403 490.522123,197.209697 489.371153,194.773142 C480.114029,175.173718 470.135742,155.924091 460.90992,136.310242 C459.949173,134.266758 458.857196,132.286981 457.885613,130.248305 C455.193595,124.597468 456.027928,122.949458 462.136739,122.245056 C465.913511,121.808712 469.534974,120.841062 473.080589,119.545252 C488.824562,113.791039 497.238926,93.430718 494.975511,80.5952291 C493.855844,74.2460015 489.918947,69.7767799 484.233924,66.8762335 C478.200962,63.7989857 471.651507,62.5716927 464.986474,62.5440456 C433.635776,62.4154262 402.283874,62.5452476 370.93438,62.4202344 C366.72178,62.4034057 364.508932,63.8506738 363.681822,67.9941399 C363.037712,71.2276541 361.899985,74.3674085 360.809212,77.4951424 C359.891807,80.1252276 360.690022,81.5676875 363.630053,81.5628793 C364.986897,81.5604752 366.342538,81.5845162 367.699383,81.5845162 C395.734419,81.5857182 423.769456,81.5845162 451.804493,81.5869203 C453.462323,81.5869203 455.123766,81.5304239 456.777985,81.6446186 C463.145644,82.086973 466.632265,87.384407 464.549442,93.4559611 C462.194528,100.32207 457.178898,103.848885 450.145458,104.773261 C448.201089,105.028096 446.231437,104.925921 444.27262,104.925921 C416.38928,104.928325 388.504737,104.925921 360.620193,104.928325 C353.142498,104.929527 353.071465,104.915103 350.848985,111.927862 C345.800848,127.850215 341.00554,143.851904 335.992317,159.785075 C335.001472,162.938052 335.864699,163.840791 338.968467,163.791507 C345.899571,163.679717 352.834288,163.714576 359.766597,163.774679 C362.760805,163.799922 364.412616,162.621913 365.343265,159.688911 C368.48315,149.791232 371.476155,139.847875 374.617244,129.951398 C376.704883,123.378589 377.029948,123.1502 383.793704,123.132169 C393.591399,123.106926 403.390298,123.248768 413.184382,123.070865 C417.651013,122.989125 420.501952,124.590256 422.453545,128.680832 C432.955548,150.686759 443.958391,172.449873 454.38936,194.49066 C455.223693,196.255269 456.779189,198.274713 454.306288,200.112647 C452.25838,200.863929 450.127399,200.624721 448.030129,200.625923 C301.388563,200.639145 154.745793,200.639145 8.10422768,200.636741 C7.35055882,200.636741 6.59688997,200.643954 5.84322111,200.622317 C0.784249028,200.474464 0.556703639,200.253287 0.555499695,195.162606 C0.551887864,132.714911 0.557907583,70.2684183 0.530216874,7.82192552 C0.529012931,6.051306 0.991327372,4.20976554 0.0871655352,2.50285467" id="Fill-2" fill="#1064AA"></path>
                    <g transform="translate(0.000000, 249.232688)">
                        <mask id="mask-2" fill="white">
                            <use xlink:href="#path-1"></use>
                        </mask>
                        <g id="Clip-5"></g>
                        <path d="M1023.91332,1.60033527 C1023.91332,68.4234918 1023.88683,135.24785 1024.00004,202.069805 C1024.00004,205.162679 1023.3908,205.767312 1020.29546,205.767312 C681.432223,205.675955 342.568981,205.675955 3.70453525,205.767312 C0.609195591,205.767312 -2.79988684e-05,205.162679 -2.79988684e-05,202.069805 C0.114374666,135.24785 0.0866839577,68.4234918 0.0866839577,1.60033527 C1.40981826,0.394679216 3.05560951,0.233604528 4.73029541,0.171097933 C6.53741514,0.102581088 8.34694276,0.127824136 10.1552664,0.127824136 C344.718021,0.126622086 679.281979,0.124217986 1013.84594,0.163885633 C1017.22902,0.165087683 1020.8264,-0.71721695 1023.91332,1.60033527" id="Fill-4" fill="#FEFEFE" mask="url(#mask-2)"></path>
                    </g>
                    <path d="M1023.91332,250.833023 L0.0866839577,250.833023 L0.0866839577,215.615365 C1.40981826,214.408507 3.05560951,214.248634 4.73029541,214.186128 C6.53741514,214.117611 8.34694276,214.142854 10.1552664,214.142854 C344.718021,214.141652 679.281979,214.139248 1013.84594,214.180117 C1017.22902,214.180117 1020.8264,213.296611 1023.91332,215.615365 L1023.91332,250.833023 Z" id="Fill-6" fill="#1A8EC2"></path>
                    <path d="M1023.91332,215.615004 L0.0866839577,215.615004 L0.0866839577,200.263625 C1.64940308,199.412574 3.34214815,199.848918 4.96626841,199.848918 C153.430605,199.824877 301.896146,199.828483 450.360482,199.794825 C451.955708,199.793623 453.665308,200.394648 455.172646,199.315208 C448.342673,185.109382 441.537982,170.890333 434.675502,156.700134 C430.030686,147.096957 425.219727,137.573116 420.671227,127.925463 C419.427553,125.285762 418.011715,124.139006 414.907948,124.201513 C403.909921,124.42269 392.902262,124.397447 381.903031,124.215937 C378.912434,124.166653 377.440011,124.841003 376.540665,127.942292 C373.321319,139.038415 369.6216,149.996302 366.387806,161.09002 C365.465585,164.253816 364.066603,165.285175 360.77502,165.197425 C351.755073,164.955813 342.72429,165.114484 333.128857,165.114484 C335.983408,155.688008 338.683854,146.681048 341.439682,137.690917 C344.472416,127.789632 347.719453,117.948449 350.53307,107.987062 C351.584113,104.272727 353.392436,103.281036 357.148741,103.300269 C387.594073,103.461344 418.039406,103.348351 448.484738,103.42408 C455.26535,103.440909 460.048619,100.529544 462.881499,94.5048698 C466.028608,87.8094518 462.809262,82.7548319 455.426678,82.7476196 C424.528663,82.7175684 393.630648,82.6550618 362.735041,82.8305611 C358.658487,82.8534 357.855456,81.9230134 359.19665,78.1846382 C360.815954,73.6697387 362.117417,69.0310281 363.349052,64.3911155 C363.975103,62.0350977 364.932238,60.912383 367.63148,60.9254902 C400.184918,61.08067 432.73956,61.0770639 465.292998,61.2273201 C470.415779,61.2513611 475.448265,62.2562748 480.356744,63.848991 C493.108917,67.9864468 498.987775,78.1714156 496.109145,91.2917904 C491.724382,111.277072 480.661341,121.331018 460.367664,123.661792 C457.661198,123.973123 456.238136,124.195503 457.933289,127.60692 C469.63442,151.152674 481.116432,174.80541 492.679109,198.418478 C492.989727,199.054363 493.039088,199.918637 493.956493,200.109763 C495.577002,199.577254 497.246872,199.839301 498.891459,199.839301 C672.271414,199.826079 845.651369,199.824877 1019.03132,199.846514 C1020.65665,199.847716 1022.34699,199.435413 1023.91332,200.263625 L1023.91332,215.615004 Z" id="Fill-8" fill="#FEFEFE"></path>
                    <path d="M455.172044,199.315688 C455.737898,200.063363 455.275583,200.359068 454.61221,200.399937 C453.411878,200.473444 452.205526,200.473444 451.001583,200.473444 C302.19653,200.473444 153.391477,200.473444 4.58642412,200.46605 C3.08631008,200.464848 1.58619603,200.333825 0.0872859296,200.264106 L0.0872859296,2.50285467 C1.71862986,4.148461 0.954125506,6.22199709 0.95532945,8.08517445 C0.998671429,70.0496452 1.01793453,132.01652 0.925230854,193.982193 C0.919211135,197.778267 1.42847939,199.473157 5.96734773,199.469551 C154.94938,199.337325 303.931413,199.360164 452.913445,199.356558 C453.66591,199.356558 454.419579,199.330113 455.172044,199.315688" id="Fill-10" fill="#0F61A7"></path>
                    <path d="M1023.91332,200.263625 C1022.11222,200.334546 1020.31112,200.464367 1018.51002,200.465569 C845.447902,200.473984 672.385789,200.475186 499.322471,200.459559 C497.534615,200.458357 495.745554,200.23117 493.956493,200.109763 C495.694988,198.720193 497.736877,199.393341 499.624661,199.393341 C674.387947,199.358481 849.151234,199.360885 1023.91332,199.360885 L1023.91332,200.263625 Z" id="Fill-12" fill="#0F61A7"></path>
                    <path d="M491.336832,164.771418 C493.440122,158.78521 495.59157,153.041815 497.454071,147.204661 C498.435285,144.126211 500.731206,144.644295 502.924792,144.643093 C531.55578,144.633476 560.186769,144.580586 588.816554,144.67675 C595.706725,144.700791 600.752454,141.889196 603.923642,135.918615 C607.303112,129.55977 604.266766,124.088039 597.093668,123.347577 C595.151707,123.146834 593.183259,123.143228 591.22685,123.140824 C574.048979,123.126399 556.869904,123.113177 539.692033,123.140824 C531.485952,123.152844 523.880638,121.335345 517.293862,116.188167 C510.075014,110.549351 507.907915,103.385134 510.680598,94.6065632 C512.038647,90.3092348 513.338906,85.9950777 515.379591,81.957392 C522.451557,67.9667331 534.704094,61.676406 549.546314,61.4071468 C583.288044,60.7941013 617.049038,61.0849974 650.8004,60.9454495 C653.119196,60.9359432 653.7007,61.5537969 652.957867,63.7811954 C651.391536,68.4776044 649.797515,73.1812256 648.600794,77.9786068 C647.819435,81.1063407 646.471018,82.1953979 643.093955,82.1773672 C614.76636,82.0198986 586.436357,82.0884155 558.106354,82.0872134 C552.393641,82.0872134 547.331057,83.3493658 544.415105,88.9449082 C541.129542,95.252064 544.413901,101.244283 551.535229,101.832085 C552.88485,101.942674 554.24651,101.888582 555.602151,101.888582 C573.233909,101.894592 590.863259,101.860934 608.493813,101.921037 C614.700143,101.941472 620.777652,102.886283 626.584273,105.209845 C637.570261,109.60454 642.01161,117.915513 639.160671,129.357826 C638.074713,133.711651 636.563764,137.987342 634.905933,142.163264 C628.900661,157.276637 617.412629,164.836329 601.372485,164.945716 C565.360116,165.192136 529.34534,165.076739 493.331767,165.09477 C492.771933,165.09477 492.213303,164.919271 491.336832,164.771418" id="Fill-14" fill="#FEFEFE"></path>
                    <path d="M323.829956,144.292575 C321.635166,150.932699 319.489738,157.001849 317.656132,163.163557 C316.851898,165.865765 314.908732,165.044765 313.300263,165.049573 C293.116144,165.100059 272.930822,165.193819 252.746703,165.035148 C242.827409,164.955813 232.859958,165.946302 222.992434,164.188905 C218.358455,163.364299 214.007401,161.765572 210.157189,158.9672 C203.149032,153.872913 199.847818,145.159253 202.394159,136.093393 C206.652508,120.934341 210.827786,105.709177 216.084205,90.8818914 C222.076233,73.9810697 235.784338,65.8167467 252.595006,62.1072207 C257.470979,61.031386 262.449286,60.9712835 267.425186,60.9748896 C292.882579,60.9905163 318.338768,61.0398003 343.796161,60.9155866 C347.395953,60.8979584 348.614344,61.4725383 347.155164,65.2818345 C345.441952,69.751056 344.06464,74.3897666 343.016005,79.0597305 C342.352632,82.0107631 341.048761,82.8101262 338.136421,82.7957016 C314.336859,82.6863151 290.532481,83.0024542 266.738938,82.6081819 C256.596915,82.4398949 250.155816,87.234872 246.918411,95.8728026 C242.767212,106.94849 239.426268,118.367965 236.434468,129.819894 C234.299875,137.990227 240.417114,144.240887 249.831955,144.267332 C272.576862,144.333445 295.322973,144.291373 318.067881,144.292575 L323.829956,144.292575 Z" id="Fill-16" fill="#FEFEFE"></path>
                    <path d="M718.735942,165.078422 C706.077676,165.074816 693.41941,165.065199 680.761145,165.079624 C676.375177,165.084432 672.083117,164.624047 667.829584,163.423199 C653.084883,159.261703 646.669066,148.425223 650.833508,133.81671 C654.822174,119.820041 658.710913,105.763269 663.501405,92.0310511 C669.578914,74.6133479 683.25692,65.849202 700.664744,62.0964022 C705.69723,61.0121532 710.826031,60.9688794 715.953627,60.9736876 C741.271363,60.9917183 766.58669,61.0398003 791.903222,60.9132192 C795.333258,60.8967564 796.473393,61.4484973 795.169521,65.054647 C793.539381,69.5611321 792.269221,74.2154694 791.119454,78.8734128 C790.383845,81.8532945 788.98125,82.8389754 785.799226,82.8185406 C762.14173,82.6634762 738.481825,82.7343971 714.823124,82.7355991 C704.105616,82.7355991 696.900012,88.0101941 693.778186,98.1999712 C690.876681,107.668518 687.97638,117.138268 685.159152,126.632058 C682.013246,137.232936 687.182981,144.251705 698.213515,144.275746 C721.26904,144.326232 744.325768,144.373112 767.380089,144.214442 C771.339861,144.186795 771.915346,145.117181 770.45135,148.670441 C768.685164,152.958153 767.364438,157.445405 766.106317,161.919435 C765.421273,164.35599 764.264283,165.17098 761.683027,165.147453 C747.368135,165.012309 733.052038,165.082028 718.735942,165.078422" id="Fill-18" fill="#FEFEFE"></path>
                    <path d="M210.726173,366.094824 C210.726173,353.90724 210.681627,341.719656 210.74062,329.532072 C210.788778,319.351911 217.794527,312.233372 227.978688,312.125187 C238.676933,312.009791 249.37879,312.027821 260.077035,312.149228 C262.400647,312.176876 263.430019,311.560224 264.137938,309.225843 C265.748815,303.921197 269.316101,301.513491 274.867486,301.359628 C275.621155,301.337992 276.374823,301.337992 277.128492,301.358426 C279.973412,301.429347 283.443178,300.550649 285.486271,301.868096 C287.496857,303.165107 286.208637,306.855401 286.173723,309.469859 C286.129177,312.763476 288.317947,312.081914 290.161185,312.08552 C305.382647,312.103551 320.606517,312.263423 335.821959,311.980941 C339.846744,311.907616 340.334341,313.267135 340.311076,316.777121 C340.146526,340.096889 340.218762,363.419061 340.205519,386.741234 C340.199499,398.258074 332.808488,406.514955 321.150699,407.101555 C310.929216,407.61483 300.663187,407.47419 290.42244,407.295085 C286.988793,407.236184 286.09065,408.23629 286.130381,411.596019 C286.179742,415.868105 288.201164,421.613903 285.20816,424.034832 C282.640147,426.11558 277.128492,424.613018 272.918301,424.619028 C263.46373,424.632251 263.46373,424.61422 263.46373,415.351223 C263.46373,407.369612 263.46373,407.369612 255.437036,407.369612 C242.025101,407.369612 228.610759,407.263832 215.201232,407.442937 C211.827781,407.489817 210.582904,406.826285 210.662364,403.105941 C210.924824,390.774111 210.761087,378.432665 210.761087,366.094824 L210.726173,366.094824 Z" id="Fill-20" fill="#231917"></path>
                    <path d="M436.479251,303.274855 C454.567303,303.274855 472.657763,303.369817 490.744612,303.189687 C494.12649,303.155852 494.977679,303.999691 494.963411,307.391876 C494.82237,339.598399 494.886179,371.807326 494.874139,404.013849 C494.871732,412.050755 491.031151,417.313329 483.276548,419.725844 C479.681572,420.84375 475.983056,421.482039 472.173778,421.478432 C437.804793,421.454391 403.437011,421.409916 369.068026,421.551894 C365.618727,421.56498 364.82894,420.617765 364.84202,417.285682 C364.968597,385.379672 364.889137,353.472459 364.932479,321.566448 C364.94813,309.8104 371.661321,303.289279 383.56953,303.279663 C401.206103,303.264036 418.842677,303.274855 436.479251,303.274855" id="Fill-22" fill="#231917"></path>
                    <path d="M633.413404,327.313449 C637.65249,328.089973 642.487529,325.955132 644.489687,328.300332 C646.777181,330.978499 645.177139,335.771072 645.19881,339.638066 C645.27827,354.080696 645.232521,368.523326 645.228909,382.967157 C645.227705,394.55011 639.075552,401.106091 627.431007,401.604941 C621.729129,401.848957 616.006783,401.647013 609.460941,401.647013 C611.782144,398.307718 613.761428,395.393949 615.811745,392.531869 C617.138491,390.67951 619.175564,391.520945 620.837006,391.597876 C623.618117,391.730101 624.824468,391.11345 624.793166,387.944846 C624.635449,372.301369 624.678791,356.653083 624.765475,341.008403 C624.778718,338.541797 624.168319,337.49962 621.49436,337.623431 C617.133675,337.827779 612.748911,337.828981 608.389431,337.623431 C605.698616,337.498418 605.18092,338.563434 605.161657,341.009605 C605.103868,348.463517 605.000329,348.462315 612.334755,348.462315 L622.109575,348.462315 C619.68122,351.856904 617.865673,354.712974 615.719041,357.292573 C613.897474,359.482708 611.162113,358.364802 608.901107,358.271042 C605.887635,358.146029 605.136374,359.14373 605.14721,362.071924 C605.185736,371.660676 605.062934,371.661878 614.781169,371.661878 L621.701438,371.661878 C619.481365,374.959101 617.654983,377.805555 615.687738,380.551037 C613.919145,383.022452 611.222311,381.804775 608.997422,381.759097 C606.134444,381.700197 604.963006,382.378153 605.15323,385.474634 C605.421709,389.820044 605.070157,394.202718 605.277236,398.556543 C605.402446,401.177011 604.475409,401.883817 601.967594,401.773228 C597.605706,401.5809 593.222146,401.544839 588.862665,401.7564 C586.02497,401.894635 584.841493,401.208265 585.059407,398.10938 C585.342333,394.066886 585.130439,389.990735 585.126827,385.927806 C585.125624,385.026269 585.475971,383.698004 585.018473,383.290509 C581.617331,380.268555 577.449278,382.504368 573.66167,381.876898 C571.416315,381.504263 571.311572,383.032068 571.324815,384.686089 C571.359729,389.347638 571.2285,394.0164 571.380197,398.674344 C571.456045,401.018341 570.718027,401.838139 568.320975,401.760006 C563.354707,401.598931 558.376399,401.641003 553.405315,401.741975 C551.498268,401.780441 550.778309,401.250337 550.785533,399.221276 C550.858973,379.213156 550.740987,359.202631 550.908335,339.195712 C550.960105,333.032802 555.915538,328.723453 563.947047,327.297822 C562.440913,324.858863 561.003404,322.530492 559.163778,319.55061 L581.706423,319.55061 C584.769256,319.55061 585.504866,322.327346 586.705198,324.172492 C588.477403,326.893933 590.669785,327.323065 593.719375,327.772632 C604.203318,329.31967 612.079519,326.099378 617.346773,316.808734 C617.769357,316.065868 618.449586,315.469651 619.613799,314.089698 L614.641511,314.089698 C594.601866,314.089698 574.559812,314.09691 554.520167,314.083687 C550.456856,314.080081 549.868128,313.052329 551.767951,309.352419 C553.916991,305.162073 557.530026,303.351786 562.082138,303.34818 C588.753106,303.31933 615.425279,303.371019 642.095043,303.274765 C644.825588,303.264036 645.346895,304.229282 645.227705,306.682666 C644.983304,311.713245 643.058198,315.987734 639.930352,319.793424 C637.947456,322.207141 635.842962,324.521087 633.413404,327.313449" id="Fill-24" fill="#231917"></path>
                    <path d="M689.659012,421.450184 C692.228228,417.328355 694.437465,413.973434 696.440828,410.500712 C697.639956,408.422367 699.490418,408.940451 701.213261,408.936845 C717.188392,408.911602 733.165931,408.841883 749.138654,408.996947 C752.069054,409.024594 753.812364,408.304566 755.076505,405.569903 C757.444663,400.44316 760.142701,395.469077 762.7372,390.365174 C760.881923,389.35425 759.219276,389.799008 757.64211,389.797806 C730.664136,389.764149 703.686162,389.773765 676.708188,389.771361 C671.574571,389.771361 670.65837,388.575321 672.628022,383.708221 C674.669911,378.663218 678.403341,374.601491 681.170004,369.967589 C682.231882,368.188555 683.40332,366.475634 684.978078,364.023452 C680.533118,364.023452 676.694945,363.982582 672.859179,364.039079 C670.882304,364.06913 670.251437,363.567875 670.799232,361.389761 C672.042906,356.442123 675.761888,352.929733 680.943662,352.689323 C685.305551,352.487379 689.683091,352.600372 694.052203,352.59917 C727.509803,352.594361 760.968607,352.596765 794.42741,352.596765 L799.432205,352.596765 C797.855039,358.594994 792.032766,363.335879 785.247339,363.760203 C779.540645,364.11601 773.802648,364.007825 768.077895,364.01624 C749.841758,364.041483 731.60562,364.082352 713.369482,363.963349 C710.632918,363.945319 708.934153,364.689388 707.596572,367.125943 C705.675077,370.63112 703.383972,373.935555 700.933946,377.828995 L795.320737,377.828995 C795.885386,379.620049 794.793409,380.614145 794.229964,381.723637 C790.969684,388.144987 787.290431,394.38002 784.433472,400.973264 C778.407733,414.878577 766.877563,420.724146 752.923854,421.24824 C732.16425,422.02837 711.352876,421.450184 689.659012,421.450184" id="Fill-26" fill="#231917"></path>
                    <path d="M729.425639,345.75037 C712.71249,345.75037 695.999342,345.640983 679.288601,345.83812 C675.828466,345.878989 674.953199,344.910137 675.084429,341.570842 C675.348093,334.816524 675.104896,328.044175 675.175929,321.281442 C675.301139,309.571072 681.741034,303.167752 693.362705,303.161742 C726.035333,303.148519 758.706757,303.231461 791.378182,303.058121 C795.258493,303.039133 796.121721,304.149827 795.959188,307.806463 C795.650979,314.707431 795.517341,321.654077 795.948353,328.543026 C796.702022,340.582757 788.618742,345.495535 779.10879,345.638579 C762.55095,345.886202 745.987091,345.708298 729.425639,345.708298 L729.425639,345.75037 Z" id="Fill-28" fill="#231A17"></path>
                    <path d="M521.80516,423.282589 L521.80516,370.257764 C521.80516,361.532083 521.760614,352.806403 521.822015,344.081925 C521.870173,337.262696 525.9082,333.273092 532.765864,333.092784 C542.393803,332.839152 542.393803,332.839152 542.393803,342.200717 C542.393803,362.508148 542.520218,382.819185 542.293876,403.124212 C542.244514,407.460006 543.011427,408.916891 547.821182,408.882031 C579.761813,408.640419 611.704851,408.788271 643.646686,408.809908 C645.092622,408.81111 646.539763,408.809908 648.408284,408.809908 C642.996556,417.511547 636.307444,422.054094 626.020948,421.816088 C605.390166,421.338874 584.738917,421.552839 564.099707,421.734349 C556.148862,421.80527 549.258691,419.714905 543.721754,413.928237 C542.29508,412.437695 541.165781,412.436493 539.446549,413.434194 C533.879512,416.665304 528.212549,419.724521 521.80516,423.282589" id="Fill-30" fill="#231A17"></path>
                    <path d="M532.730107,325.243879 C532.429121,325.245081 532.129339,325.245081 531.828353,325.245081 C521.361265,325.245081 520.321058,324.371191 518.480228,314.023945 C517.631447,309.257818 520.851997,304.354656 525.731582,303.086493 C528.831737,302.282322 532.010149,302.783577 535.153646,302.666978 C536.992069,302.597259 537.241285,303.977212 537.667481,305.274224 C539.52637,310.945496 541.344326,316.633596 543.326017,322.263998 C544.25787,324.909709 543.144222,325.370095 540.837465,325.270324 C538.139427,325.154928 535.432961,325.243879 532.730107,325.243879" id="Fill-32" fill="#241A17"></path>
                    <path d="M317.518642,359.537522 C317.518642,370.059065 317.443997,380.583012 317.572819,391.103352 C317.602918,393.612031 316.967235,394.482315 314.331802,394.424616 C306.054688,394.244309 297.770351,394.226278 289.493237,394.366918 C286.869843,394.410192 286.181187,393.531493 286.190819,391.021613 C286.271483,369.978527 286.276299,348.933038 286.185885,327.88875 C286.175167,325.334394 286.907165,324.507383 289.493237,324.553061 C297.771554,324.693701 306.055892,324.709328 314.333006,324.545849 C317.061143,324.491757 317.530681,325.559177 317.505398,327.970489 C317.394635,338.49083 317.458444,349.014777 317.458444,359.537522 L317.518642,359.537522 Z" id="Fill-34" fill="#FEFEFE"></path>
                    <path d="M263.463368,359.576348 C263.463368,369.799782 263.293612,380.029227 263.556072,390.246651 C263.646368,393.779476 262.491786,394.482675 259.231506,394.378097 C251.709264,394.137687 244.171372,394.192981 236.645519,394.361268 C234.042592,394.418967 233.369588,393.611189 233.380423,391.070056 C233.476739,370.019758 233.502022,348.96946 233.358486,327.920364 C233.339489,324.957311 234.362841,324.496926 236.964564,324.549816 C244.64091,324.703678 252.326888,324.724113 260.00203,324.541401 C262.733778,324.477693 263.586171,325.150841 263.536809,328.002103 C263.352606,338.523646 263.463368,349.051199 263.463368,359.576348" id="Fill-36" fill="#FEFEFE"></path>
                    <path d="M388.074567,361.885366 C388.074567,347.447544 388.163659,333.009723 388.002331,318.573103 C387.96862,315.554756 388.888433,314.867183 391.783918,314.88022 C417.3906,314.987388 442.998486,314.978974 468.605168,314.887618 C471.240601,314.879204 472.218204,315.362428 472.207368,318.293026 C472.103829,347.470383 472.121888,376.646539 472.248426,405.822694 C472.260342,408.681169 471.39591,409.291935 468.69426,409.282194 C442.935881,409.184828 417.177502,409.174009 391.420327,409.291935 C388.470665,409.305033 387.998719,408.27127 388.019186,405.650801 C388.134765,391.062723 388.074567,376.474645 388.074567,361.885366" id="Fill-38" fill="#FEFEFE"></path>
                    <path d="M585.135737,365.033655 C585.135737,371.671374 585.135737,371.671374 576.756287,371.669059 C571.321685,371.667768 571.321685,371.667768 571.325297,363.844827 C571.327705,358.355065 571.327705,358.355065 579.95637,358.361076 C585.135737,358.364682 585.135737,358.364682 585.135737,365.033655" id="Fill-40" fill="#FBFCFC"></path>
                    <path d="M578.153103,348.464358 C578.00261,348.467964 577.850913,348.484793 577.702828,348.46556 C575.658531,348.211928 572.399455,349.450039 571.799891,347.864535 C570.807842,345.236854 570.321448,341.335 571.626523,339.177321 C573.711754,335.728639 578.102537,338.220489 581.460337,337.749285 C582.684748,337.577392 584.83138,336.80808 585.046886,339.131643 C585.294898,341.8038 585.140793,344.518028 585.078188,347.211822 C585.050497,348.471571 583.995843,348.439115 583.10372,348.45354 C581.454317,348.479985 579.80371,348.460752 578.153103,348.464358" id="Fill-42" fill="#FCFCFC"></path>
                    <path d="M735.252486,314.598045 C746.239678,314.598045 757.228074,314.685794 768.212857,314.535538 C770.95183,314.497072 771.904149,315.181039 771.742821,318.019079 C771.496012,322.363287 771.486381,326.742355 771.745229,331.085361 C771.922208,334.062839 770.688166,334.500385 768.085239,334.489566 C746.262553,334.400615 724.437459,334.387392 702.614772,334.500385 C699.669926,334.516012 698.604435,333.75271 698.795862,330.717534 C699.051098,326.676242 699.059526,322.594081 698.794658,318.553991 C698.588784,315.428661 699.515821,314.458607 702.743594,314.519911 C713.575477,314.72426 724.414584,314.598045 735.252486,314.598045" id="Fill-44" fill="#FEFEFE"></path>
                    <path d="M469.438899,323.12154 C466.734841,326.607485 464.412434,329.482788 462.232091,332.46267 C461.136502,333.962828 459.677322,333.768096 458.191656,333.766894 C452.919585,333.765692 447.643904,333.881089 442.376649,333.71761 C439.813453,333.638275 438.518009,334.056588 438.721476,337.08335 C439.001995,341.2761 438.943001,345.508518 438.737127,349.70848 C438.608305,352.314524 439.488388,353.018925 442.035933,352.976854 C450.718776,352.832608 459.405231,352.921559 468.976585,352.921559 C466.224369,356.407504 463.874271,359.246746 461.692724,362.207395 C460.607971,363.677502 459.213804,363.651057 457.692019,363.645047 C452.570442,363.62341 447.442845,363.768858 442.328491,363.58254 C439.685835,363.486376 438.617936,364.054946 438.71666,366.998766 C438.950225,373.909351 439.038113,380.845179 438.694989,387.746147 C438.503562,391.62997 440.81393,390.829405 442.981029,390.930377 C445.366042,391.04337 447.19724,391.229688 447.057583,387.621134 C446.64463,376.88803 454.556949,371.562949 465.942646,372.799859 C467.723279,372.992187 467.664286,374.099275 467.664286,375.334982 C467.661878,383.304573 467.605293,391.276568 467.700404,399.247361 C467.726891,401.38701 466.710762,401.667087 464.945781,401.663481 C441.597697,401.623813 418.24841,401.593762 394.900327,401.673133 C392.353986,401.68031 392.221552,400.576828 392.595979,398.645134 C393.418272,394.404302 397.415366,391.158767 402.47795,390.9436 C406.087373,390.79094 409.712448,390.795748 413.320668,390.94961 C415.54676,391.044572 416.115022,390.198329 416.083719,388.089934 C415.97416,380.871624 415.924799,373.648506 416.101778,366.433802 C416.166791,363.779676 414.943584,363.570519 412.852334,363.605379 C407.129989,363.699139 401.390788,363.399828 395.685298,363.721978 C391.966316,363.931134 391.933809,362.064351 392.781386,359.654241 C394.271868,355.415813 397.387675,353.065805 401.948214,352.946802 C405.711743,352.849436 409.482495,352.821789 413.243616,352.960025 C415.373392,353.03936 416.160772,352.391455 416.086127,350.179683 C415.935634,345.673198 415.8947,341.149885 416.098167,336.648208 C416.213745,334.095054 415.130196,333.685155 412.934202,333.728428 C407.061364,333.843825 401.180098,333.614234 395.31328,333.829401 C392.25767,333.942393 392.022901,332.483105 392.681459,330.280949 C393.922725,326.125463 396.850716,323.257372 401.080171,323.218906 C423.613184,323.010951 446.149809,323.12154 469.438899,323.12154" id="Fill-46" fill="#231917"></path>
                </g>
            </g>
        </g>
    </g>
</svg>