<?xml version="1.0" encoding="UTF-8"?>
<svg width="644px" height="768px" viewBox="0 0 644 768" version="1.1" xmlns="http://www.w3.org/2000/svg" xmlns:xlink="http://www.w3.org/1999/xlink">
    <title>中国储备粮管理集团有限公司@2x</title>
    <g id="页面-1" stroke="none" stroke-width="1" fill="none" fill-rule="evenodd">
        <g id="47.中国储备粮管理集团有限公司" transform="translate(-190.000000, 0.000000)" fill="#009844">
            <g id="中国储备粮管理集团有限公司" transform="translate(190.000000, 0.000000)">
                <path d="M418.0186,254.6266 L418.0186,254.6266 C417.16396,262.748487 410.317382,276.755196 400.825578,284.120679 C387.88685,294.165722 361.389212,301.644666 351.131635,308.05708 C340.872167,314.469494 331.25557,323.444226 330.830141,326.865063 L330.830141,267.449537 C331.25557,252.489759 342.292156,242.599778 347.726308,238.993622 C355.404837,233.89546 376.988292,223.636732 394.084884,217.010634 C402.661542,213.68813 417.80494,200.555068 418.0186,196.067702 L418.0186,254.6266 Z M312.686047,326.865063 L312.686047,326.865063 C312.258727,323.444226 302.64213,314.469494 292.386444,308.05708 C282.126976,301.644666 255.629338,294.165722 242.69061,284.120679 C233.198806,276.755196 226.352228,262.748487 225.497587,254.6266 L225.497587,196.067702 C225.711247,200.555068 240.854646,213.68813 249.431304,217.010634 C266.527896,223.636732 288.11135,233.89546 295.789879,238.993622 C301.224032,242.599778 312.258727,252.489759 312.686047,267.449537 L312.686047,326.865063 Z M494.195055,94.6812147 L418.0186,50.6963283 L418.0186,106.089676 L418.0186,109.724197 L418.0186,162.29805 C418.0186,172.343093 411.822457,183.029189 402.20586,190.510024 C392.587372,197.990858 358.458476,208.996535 347.711182,215.514846 C334.676023,223.423048 330.830141,233.89546 330.830141,233.89546 L330.830141,174.054457 C330.830141,167.855727 338.092694,147.052729 357.821277,138.692575 C374.42248,129.954219 398.072576,123.971064 400.825578,104.16652 L400.825578,40.7704182 L382.972667,30.4606332 L382.972667,97.7541055 L382.486732,97.7541055 C380.331222,107.177007 371.38775,109.281701 365.163244,112.146581 L365.163244,97.7541055 L365.163244,93.767857 L365.163244,20.1773222 L347.639332,10.0585292 L347.639332,121.690507 L330.830141,135.939265 L330.830141,121.690507 L330.830141,1.25398783 C325.144512,-0.372280536 318.434072,-0.41577376 312.686047,1.11783513 L312.686047,121.690507 L312.686047,135.939265 L295.876856,121.690507 L295.876856,9.76164062 L278.352944,19.8785427 L278.352944,93.767857 L278.352944,97.7541055 L278.352944,112.146581 C272.128438,109.281701 263.183075,107.177007 261.029456,97.7541055 L260.543521,97.7541055 L260.543521,30.1599626 L242.69061,40.4697477 L242.69061,104.16652 C245.443611,123.971064 269.091817,129.954219 285.694911,138.692575 C305.421602,147.052729 312.686047,167.855727 312.686047,174.054457 L312.686047,233.89546 C312.686047,233.89546 308.840165,223.423048 295.805006,215.514846 C285.057712,208.996535 250.926924,197.990858 241.312219,190.510024 C231.695622,183.029189 225.497587,172.343093 225.497587,162.29805 L225.497587,109.724197 L225.497587,106.089676 L225.497587,50.3975488 L148.804945,94.6812147 C140.66128,99.3841559 134,110.924988 134,120.32898 L134,300.657559 C134,310.06155 140.66128,321.602383 148.804945,326.303433 L306.696,417.472794 C314.837775,422.175735 328.164116,422.175735 336.304,417.472794 L494.195055,326.303433 C502.33872,321.602383 509,310.06155 509,300.657559 L509,120.32898 C509,110.924988 502.33872,99.3841559 494.195055,94.6812147 L494.195055,94.6812147 Z" id="Fill-1"></path>
                <path d="M149.445562,612.249598 L149.445562,612.249598 L109.12132,612.249598 L109.12132,528.514922 L149.445562,528.514922 L149.445562,612.249598 Z M73.2819552,612.249598 L73.2819552,612.249598 L33.556326,612.249598 L33.556326,528.514922 L73.2819552,528.514922 L73.2819552,612.249598 Z M183,624.692138 L183,515.418708 C183,511.14425 179.51407,507.646621 175.253908,507.646621 L109.12132,507.646621 L109.12132,487 L73.2819552,487 L73.2819552,507.646621 L7.74420332,507.646621 C3.4859301,507.646621 0,511.14425 0,515.418708 L0,624.692138 C0,628.966596 3.4859301,632.46233 7.74420332,632.46233 L73.2819552,632.46233 L73.2819552,660 L109.12132,660 L109.12132,632.46233 L175.253908,632.46233 C179.51407,632.46233 183,628.966596 183,624.692138 L183,624.692138 Z" id="Fill-3"></path>
                <path d="M228.999341,657 L258.02711,657 L257.812132,552.737522 L243.193612,553.143963 C247.489372,550.920826 250.285991,547.822423 251.790839,544.831775 C253.295687,541.839236 271,488 271,488 L246.056818,488 C242.008378,488 238.852193,494.408533 237.706911,497.826417 C236.559726,501.24241 222.011598,547.608806 219,552.841495 C223.944499,552.841495 228.784363,552.737522 228.784363,552.737522 L228.999341,657 Z" id="Fill-5"></path>
                <path d="M270.628852,532.180086 C271.050677,537.407334 272.949854,543.907204 277.451249,543.994578 C279.046095,544.023069 296,543.929997 296,543.929997 C294.041113,537.373144 292.471307,521.835758 291.743225,511.856121 C291.167309,503.897484 287.935242,501.000844 285.431257,501.000844 C283.834485,501.000844 270.049083,500.998945 267,501.000844 C268.65263,503.960165 269.613775,519.577328 270.628852,532.180086" id="Fill-7"></path>
                <path d="M306,638.997008 L295.808872,638.997008 L295.808872,570.843623 L295.793901,570.843623 L295.793901,553 L262,553 L262,571.938265 L268.746055,571.938265 L268.746055,639.109328 C268.688045,652.465869 267.945137,657.802013 276.929273,658 L306,658 L306,638.997008 Z" id="Fill-9"></path>
                <path d="M342.031931,621.010288 L342.031931,621.010288 L379.683514,621.010288 L379.683514,639.038951 L342.031931,639.038951 L342.031931,621.010288 Z M342.031931,584.149705 L342.031931,584.149705 L379.683514,584.149705 L379.683514,602.178368 L342.031931,602.178368 L342.031931,584.149705 Z M313.600798,584.723188 L313.954635,658 L400.527867,658 C403.294566,658 408.611523,656.047876 408.611523,649.393943 L408.611523,572.879416 C408.611523,568.697921 407.122775,565.046234 399.039119,564.833551 C390.955462,564.620868 342.244609,565.264614 342.244609,565.264614 L351.515876,549.810931 L414,549.810931 L414,531.009394 L400.24555,531.009394 L404.499116,518.618724 L379.115117,518.618724 L370.724677,531.009394 L364.366914,531.009394 L364.366914,513.755504 L410.738306,513.755504 L410.738306,495.198932 L364.366914,495.198932 L364.366914,488 L337.565687,488 L337.565687,495.198932 L303.956874,495.198932 L303.956874,513.755504 L337.565687,513.755504 L337.565687,531.009394 L300.269823,531.009394 L300.269823,549.810931 L320.007496,549.810931 L298,584.723188 L313.600798,584.723188 Z" id="Fill-11"></path>
                <path d="M465.687267,540 L482,540 C482,540 478.705724,510.51575 477.781833,502.920622 C477.033389,496.77984 476.339071,496 474.032144,496.020328 C469.603069,496.057287 460.6236,496 455,496 C455,496 459.5,528.817976 459.5,532.855775 C459.5,536.891726 462.099959,540 465.687267,540" id="Fill-13"></path>
                <path d="M537.498445,532.855475 C537.498445,528.81381 542,496 542,496 C536.37119,496 527.39794,496.053593 522.969171,496.016632 C520.660538,496 519.962535,496.779873 519.219741,502.917216 C518.295915,510.512663 515,540 515,540 L531.311606,540 C534.894933,540 537.498445,536.895292 537.498445,532.855475" id="Fill-15"></path>
                <polygon id="Fill-17" points="456 567.937275 485.83595 567.937275 485.83595 658 511.923608 658 511.923608 567.937275 541 567.937275 541 548.987738 511.923608 548.987738 511.923608 491 485.83595 491 485.83595 548.987738 456 548.987738"></polygon>
                <path d="M477.761583,645.892253 C478.639901,638.57974 482,576 482,576 C476.887143,576.215018 468.559604,576 466.368657,576 C460.012971,576 458.260213,576.641248 457.164739,593.84649 C456.069265,611.04983 453,656 453,656 L471.407836,656 C474.694257,656 476.887143,653.204767 477.761583,645.892253" id="Fill-19"></path>
                <path d="M529.633282,576 C527.440396,576 519.114796,576.215018 514,576 C514,576 517.362038,638.581643 518.238417,645.89035 C519.114796,653.204767 521.305743,656 524.592164,656 L543,656 C543,656 539.932674,611.053636 538.8372,593.850296 C537.741726,576.645054 535.987029,576 529.633282,576" id="Fill-21"></path>
                <path d="M574.878035,552.862303 L574.878035,552.862303 L612.528736,552.862303 L612.528736,572.539227 L574.878035,572.539227 L574.878035,552.862303 Z M574.878035,517.066805 L574.878035,517.066805 L612.528736,517.066805 L612.528736,536.743729 L574.878035,536.743729 L574.878035,517.066805 Z M595.663068,640.984489 L573.155803,640.984489 L573.155803,591.792178 L582.033976,591.792178 C586.008651,611.60538 601.995084,655.980668 613.175289,659.690438 C624.309719,659.921353 636.815451,660.108734 644,659.927031 C635.650131,651.091721 628.271043,638.788911 622.383413,626.87222 C624.092294,627.067173 626.749071,627.197772 629.196052,626.592095 C633.222222,625.594621 639.258617,602.633793 641.413791,598.212352 L622.442537,598.212352 C619.95169,598.212352 617.367388,606.517695 615.603197,611.883613 C612.029041,603.245148 609.549637,595.905102 608.424369,591.792178 L631.110914,591.792178 C635.432706,591.792178 638.968717,588.286824 638.968717,583.99409 L638.968717,505.186076 C638.968717,500.897128 635.432706,497.38231 631.110914,497.38231 L607.867457,497.38231 C607.876993,496.721743 607.867457,495.958969 607.821683,495.281368 C606.961521,488.331227 601.461059,487.047949 599.307792,487.047949 C597.152618,487.047949 580.338446,486.940063 576.890167,487.047949 C576.890167,487.047949 578.637193,489.474442 578.610492,497.38231 L554.861617,497.38231 C550.537919,497.38231 547,500.897128 547,505.186076 L547,578.67549 L547,583.99409 L547,640.984489 L547,644.559875 L547,651.981308 C547,655.520732 549.893274,658.395804 553.461708,658.395804 L595.663068,658.395804 L595.663068,640.984489 Z" id="Fill-23"></path>
                <path d="M43.2353673,719.1488 C38.1466932,716.560393 23.9727092,714.464471 26.0929901,704.108936 C28.2151473,693.753401 56.3829853,703.398842 56.3829853,703.398842 C56.5950134,698.86913 56.5950134,691.319611 56.5950134,691.319611 C50.0221426,688.944996 40.054946,687.650793 30.5118056,688.082194 C20.9686651,688.513595 1,692.829515 1.06992268,712.507895 C1.06992268,721.521506 8.88118764,727.347329 17.3623113,730.800447 C25.8453112,734.249747 37.8295892,739.191771 38.04537,747.19178 C38.1466932,750.862507 30.9602544,752.488851 25.6858211,752.481215 C15.091922,752.464036 7.11178508,750.969403 1.06241726,749.837452 C1.04553007,753.151223 0.979857651,763.590748 1.00612662,763.590748 C5.48873819,765.100652 20.9686651,767.690967 29.8757213,766.828165 C38.7809011,765.961545 60.1863564,763.943886 61.897592,745.038592 C63.3817886,728.641533 48.3240415,721.735297 43.2353673,719.1488" id="Fill-25"></path>
                <polygon id="Fill-27" points="74 764 96 764 96 692 74 692"></polygon>
                <path d="M163.950363,734.714819 L136.975973,692 L133.97945,692 L129.054696,692 L113,692 L113,763.905462 L133.97945,763.905462 L133.97945,717.48911 C140.095615,728.147399 159.088116,760.680627 164.806513,763.905462 C171.013596,764.118172 186,763.905462 186,763.905462 L186,692 L163.950363,692 L163.950363,734.714819 Z" id="Fill-29"></path>
                <path d="M235.97358,754.62859 L235.97358,754.62859 C226.107669,754.62859 218.109402,742.018078 218.109402,726.460268 C218.109402,710.904345 226.107669,698.293833 235.97358,698.293833 C245.839492,698.293833 253.837759,710.904345 253.837759,726.460268 C253.837759,742.018078 245.839492,754.62859 235.97358,754.62859 M235.172623,688 C213.086927,688 195.554439,705.906587 196.008629,727.999056 C196.466588,750.093413 214.741611,768 236.829192,768 C258.913003,768 276.447376,750.093413 275.991301,727.999056 C275.533342,705.906587 257.258319,688 235.172623,688" id="Fill-30"></path>
                <path d="M324.998744,753.779997 C317.118736,752.696547 301.45105,745.114317 302.425216,724.304413 C303.276905,706.098624 327.979655,697.647717 346.720582,704.36127 C347.359349,702.198205 346.720582,691.795171 346.720582,691.795171 C341.184604,688.326215 333.517518,687.791202 322.869521,688.059667 C312.221524,688.326215 281.555067,691.145101 279,731.673789 C279.638767,744.025115 291.351375,765.049791 316.054125,767 C333.943363,766.56662 348,767 348,767 L348,722.570894 L324.998744,722.570894 L324.998744,753.779997 Z" id="Fill-31"></path>
                <path d="M433.756802,714.758295 C433.756802,704.166126 426.625135,692.101768 413.182885,691.71425 C399.518063,691.321032 364,691 364,691 L364,766 L385.984166,766 L385.984166,704.310496 C385.984166,704.310496 401.064848,704.741705 402.75565,704.741705 C404.448322,704.741705 410.504535,707.173193 410.081834,716.618003 C409.799411,723.918165 403.17835,725.282078 400.49813,725.282078 C394.72434,725.567018 390.074635,725.282078 390.074635,725.282078 L412.337484,766 L437,766 L417.553907,732.793096 C422.484166,731.647637 433.756802,725.350464 433.756802,714.758295" id="Fill-32"></path>
                <path d="M472.294326,736.801251 L472.294326,736.801251 L480.795605,715.047034 L490.144944,736.801251 L472.294326,736.801251 Z M467.333836,691 L439,765.283851 L462.093167,766 L467.333836,749.255028 L495.105433,749.539968 C495.105433,749.539968 502.895922,764.425232 504.172712,764.854541 C508.847382,764.998911 525,764.569601 525,764.569601 L493.121614,691 L467.333836,691 Z" id="Fill-33"></path>
                <polygon id="Fill-34" points="530 764 552 764 552 692 530 692"></polygon>
                <polygon id="Fill-35" points="618.633345 735.073469 590.6656 692 587.221981 692 584.930043 692 567 692 567 763.433443 587.221981 763.433443 587.221981 720.105023 618.633345 764 639 764 639 692 618.633345 692"></polygon>
            </g>
        </g>
    </g>
</svg>