<?xml version="1.0" encoding="UTF-8"?>
<svg width="1024px" height="184px" viewBox="0 0 1024 184" version="1.1" xmlns="http://www.w3.org/2000/svg" xmlns:xlink="http://www.w3.org/1999/xlink">
    <title>中国电子信息产业集团有限公司@2x</title>
    <g id="页面-1" stroke="none" stroke-width="1" fill="none" fill-rule="evenodd">
        <g id="27.中国电子信息产业集团有限公司" transform="translate(0.000000, -292.000000)">
            <g id="中国电子信息产业集团有限公司" transform="translate(0.000000, 292.000000)">
                <path d="M151.569642,75.0340162 L108.269946,75.0340162 C111.585442,60.3324526 105.996012,52.7245006 91.4923502,52.2185462 C74.6030583,52.7245006 61.0190228,66.4132236 50.7402435,93.2856468 C41.5328103,118.631821 46.0304162,131.309567 64.2637773,131.309567 C77.9381001,131.309567 88.6422531,123.437922 96.3836827,107.72445 L140.441046,107.72445 C122.298902,143.72362 93.1901219,162.471887 53.1361122,164 C6.09647914,162.471887 -9.72146661,138.401315 5.72322998,91.7584658 C25.0176985,45.6215713 57.2595381,21.0347948 102.418033,18 C144.261963,18.5059544 160.656071,37.5169826 151.569642,75.0340162" id="Fill-2" fill="#1E2087"></path>
                <polygon id="Fill-4" fill="#1E2087" points="252.573929 162 136 162 186.703231 23 301 23 289.155982 55.4967403 221.02853 55.4967403 213.867764 75.126967 271.388563 75.126967 259.544545 107.612599 202.012615 107.612599 194.025393 129.52455 264.418875 129.52455"></polygon>
                <path d="M432.568458,75.0340162 L389.269356,75.0340162 C392.585736,60.3324526 387.006622,52.7245006 372.503159,52.2185462 C355.603859,52.7245006 342.030249,66.4132236 331.75161,93.2856468 C322.533134,118.631821 327.040917,131.309567 345.274959,131.309567 C358.939786,131.309567 369.642862,123.437922 377.385116,107.72445 L421.440945,107.72445 C403.288812,143.72362 374.190668,162.471887 334.136277,164 C287.08798,162.471887 271.28049,138.401315 286.724044,91.7584658 C306.028487,45.6215713 338.260577,21.0347948 383.418453,18 C425.272048,18.5059544 441.655694,37.5169826 432.568458,75.0340162" id="Fill-6" fill="#1E2087"></path>
                <path d="M508.368866,82.1965243 L542.142746,82.1965243 L542.142746,23.0186508 L508.368866,23.0186508 L508.368866,82.1965243 Z M595.351848,9.61737515 L561.323608,9.61737515 L561.323608,0 L561.071118,0 L542.142746,0 L542.142746,9.61737515 L505.301574,9.61737515 C505.301574,9.61737515 492,12.8992825 492,25.2974963 L492,78.4015301 C492,89.2734258 501.209358,94.33311 507.343007,94.33311 L542.142746,94.33311 L542.142746,109 L561.323608,109 L561.323608,94.33311 L578.97176,94.33311 L590.995919,82.1965243 L561.323608,82.1965243 L561.323608,23.5206439 L596.621782,23.5206439 L596.621782,94.33311 C605.83114,94.33311 613,83.7117485 613,78.6529889 L613,26.3014826 C613,15.6801211 603.536282,9.61737515 595.351848,9.61737515 L595.351848,9.61737515 Z" id="Fill-8" fill="#231916"></path>
                <path d="M641.44144,3 L731.30645,3 C735.507131,3 746,9.83629234 746,17.8178303 L746,90.9450496 C746,95.6899031 738.940586,105 729.215874,105 L729.215874,14.9625858 L646.02713,14.9625858 L646.02713,93.4188542 L725.589915,93.4188542 L714.714827,105 L644.69355,105 C640.108791,105 630,100.063501 630,90.1812439 L630,17.8178303 C630,6.41814617 641.44144,3 641.44144,3" id="Fill-10" fill="#231916"></path>
                <polygon id="Fill-11" fill="#231916" points="696.161209 56.9228125 714.272067 56.9228125 725 46.749 696.161209 46.749 696.161209 33.1747311 714.272067 33.1747311 725 23 662.727933 23 652 33.1747311 680.838791 33.1747311 680.838791 46.749 662.727933 46.749 652 56.9228125 680.838791 56.9228125 680.838791 74.8261874 662.727933 74.8261874 652 85 714.272067 85 725 75.2946458 725 65.780349 706.889142 65.780349 706.889142 74.8261874 696.161209 74.8261874"></polygon>
                <path d="M815.304133,37.5843787 L792.633234,37.5843787 L782.155025,49.1936605 L782.155025,19.2972983 L815.304133,19.2972983 L815.304133,37.5843787 Z M782.155025,69.6088307 L815.304133,69.6088307 L815.304133,49.4054477 L782.155025,49.4054477 L782.155025,69.6088307 Z M886,68.4588634 L886,22.1517808 C886,13.1944833 880.665234,6.52783135 870.751708,6.52783135 L833.981387,6.52783135 L833.981387,1 L815.304133,1 L815.304133,6.52783135 L778.533811,6.52783135 C778.533811,6.52783135 765,9.38231391 765,22.1517808 L765,66.7441303 C765,75.136662 772.624146,81.6119623 780.249221,81.6119623 L815.304133,81.6119623 L815.304133,94.1891488 C815.304133,94.1891488 816.070355,106 833.981387,106 L875.330468,106 L886,94.1891488 L833.981387,94.1891488 L833.981387,81.6119623 L852.468246,81.6119623 L864.276431,69.6088307 L833.981387,69.6088307 L833.981387,49.4054477 L857.994335,49.4054477 L868.663868,37.5843787 L833.981387,37.5843787 L833.981387,19.2972983 L869.037227,19.2972983 L869.037227,81.6119623 C873.80731,81.6119623 886,75.8927794 886,68.4588634 L886,68.4588634 Z" id="Fill-12" fill="#231916"></path>
                <path d="M918.666313,3 L1005.71449,3 C1008.76917,3 1020,8.99321842 1020,22.513987 C1020,36.0451163 1009.14149,43 1003.24382,43 L1003.24382,14.0144109 L908,14.0144109 L918.666313,3 Z" id="Fill-13" fill="#231916"></path>
                <path d="M973.806781,30 L998.51772,30 L986.16692,42.4503765 L978.399344,42.4503765 L978.399344,54.2313177 L1024,54.2313177 L1012.88652,65.625723 L978.024879,65.625723 L978.024879,92.8279516 C978.024879,97.4299693 974.952587,107 965.187555,107 L915.176433,107 L927.252688,94.5505572 L963.656078,94.7428914 L963.656078,65.625723 L901,65.625723 L911.921111,54.2313177 L963.656078,54.2313177 L963.656078,41.690376 L973.806781,30 Z" id="Fill-14" fill="#231916"></path>
                <path d="M509.494974,141 L509.494974,148.295019 C503.500457,148.681479 494.124886,150.60255 494.124886,162.113072 C494.124886,173.636694 503.312214,177.853133 514,176.318521 L508.37283,184 C508.37283,184 487,184 487,162.500468 C487,141 509.494974,141 509.494974,141" id="Fill-15" fill="#231916"></path>
                <path d="M785.504112,141 L785.504112,148.295019 C779.501371,148.681479 770.124886,150.60255 770.124886,162.113072 C770.124886,173.636694 779.313128,177.853133 790,176.318521 L784.373744,184 C784.373744,184 763,184 763,162.500468 C763,141 785.504112,141 785.504112,141" id="Fill-16" fill="#231916"></path>
                <path d="M982.504114,141 L982.504114,148.295019 C976.498019,148.681479 967.127781,150.60255 967.127781,162.113072 C967.127781,173.636694 976.3097,177.853133 987,176.318521 L981.372372,184 C981.372372,184 960,184 960,162.500468 C960,141 982.504114,141 982.504114,141" id="Fill-17" fill="#231916"></path>
                <polygon id="Fill-18" fill="#231916" points="546 184 552 184 552 141 546 141"></polygon>
                <polygon id="Fill-19" fill="#231916" points="560 184 566 184 566 141 560 141"></polygon>
                <polygon id="Fill-20" fill="#231916" points="829 184 835 184 835 141 829 141"></polygon>
                <polygon id="Fill-21" fill="#231916" points="947 184 953 184 953 141 947 141"></polygon>
                <polygon id="Fill-22" fill="#231916" points="544 157.632755 530.350724 157.632755 530.350724 141 524 141 524 184 530.350724 184 530.350724 164.034144 537.911066 164.034144"></polygon>
                <polygon id="Fill-23" fill="#231916" points="574 184 580 184 580 141 574 141"></polygon>
                <path d="M583,146.760408 C586.745431,140.978479 590.908895,141 594.175368,141 C599.274253,141 603,144.098231 603,147.552979 L603,184 L596.6592,184 L596.6592,146.760408 L583,146.760408 Z" id="Fill-24" fill="#231916"></path>
                <polygon id="Fill-25" fill="#231916" points="912 184 918 184 918 141 912 141"></polygon>
                <path d="M921,146.760408 C924.744669,140.978479 928.908328,141 932.174954,141 C937.274078,141 941,144.098231 941,147.552979 L941,184 L934.648592,184 L934.648592,146.760408 L921,146.760408 Z" id="Fill-26" fill="#231916"></path>
                <polygon id="Fill-27" fill="#231916" points="626.083354 141 633.550391 141 649 184 641.778888 184 631.315199 151.496181 629.317734 151.496181 620.346906 178.625117 637.289375 178.625117 633.056718 184 612 184"></polygon>
                <path d="M678.187006,147.146867 L690.313878,147.146867 L696,141 L677.162599,141 C677.162599,141 672,141 672,146.882989 L672,177.598612 C672,184 676.384389,184 677.931376,184 L691.154345,184 L696,179.397101 L678.187006,179.397101 L678.187006,147.146867 Z" id="Fill-28" fill="#231916"></path>
                <polygon id="Fill-29" fill="#231916" points="679 164 689.859138 164 696 158 685.130581 158"></polygon>
                <path d="M740.195983,147.146867 L752.324751,147.146867 L758,141 L739.162061,141 C739.162061,141 734,141 734,146.882989 L734,177.598612 C734,184 738.382847,184 739.940333,184 L753.165284,184 L758,179.397101 L740.195983,179.397101 L740.195983,147.146867 Z" id="Fill-30" fill="#231916"></path>
                <polygon id="Fill-31" fill="#231916" points="742 164 752.870952 164 759 158 748.140265 158"></polygon>
                <path d="M702,141 L707.994235,141 L707.994235,177.853133 L727,177.853133 L722.744781,184 L708.055468,184 C706.244856,184 702,184 702,175.94329 L702,141 Z" id="Fill-32" fill="#231916"></path>
                <polygon id="Fill-33" fill="#231916" points="802.553815 141 798 146.374883 805.833855 146.374883 805.833855 184 813.166145 184 813.166145 146.374883 816.446185 146.374883 821 141"></polygon>
                <path d="M838,147.23857 C838.789078,146.272888 842.71534,141 842.71534,141 L851.739525,141 C853.900164,141 857.233421,144.453812 857.233421,148.102257 L857.233421,159.431245 C857.233421,161.727548 853.900164,165.579048 852.134542,165.579048 L845.851567,165.579048 L845.851567,166.534437 L859,184 L850.566907,184 L838,165.579048 L842.518309,159.431245 L851.345464,159.431245 L851.345464,147.136574 L838,147.23857 Z" id="Fill-34" fill="#231916"></path>
                <path d="M906,163.030291 C906,151.422808 896.603292,142 885.005118,142 C873.406013,142 864,151.422808 864,163.030291 C864,172.017842 869.637653,179.668864 877.559583,182.684908 L883.682004,176.00506 C877.103658,175.347979 871.981479,169.791226 871.981479,163.030291 C871.981479,155.834099 877.811737,149.995872 885.005118,149.995872 C892.188263,149.995872 898.018521,155.834099 898.018521,163.030291 C898.018521,169.780973 892.896342,175.336795 886.338466,176.00506 L886.338466,184 C897.311372,183.301911 906,174.194128 906,163.030291" id="Fill-35" fill="#231916"></path>
                <path d="M1015.5049,146.760407 L1006.34274,146.760407 C1003.2924,146.760407 1000.49417,147.268513 1000.49417,151.108785 C1000.49417,157.958392 1002.70634,159.115901 1011.00987,159.115901 C1019.3227,159.105608 1021.6158,164.674189 1021.6158,171.583683 C1021.6158,178.493178 1017.54497,184 1009.52517,184 L994,184 L998.83737,177.598612 L1012.20153,177.598612 C1014.36347,177.598612 1015.637,173.636694 1015.637,170.821992 C1015.637,168.00729 1013.15226,165.588406 1006.72693,165.375993 C997.120104,165.060649 994,158.7912 994,153.029857 C994,147.268513 997.695937,141 1003.2924,141 L1022,141 L1015.5049,146.760407 Z" id="Fill-36" fill="#231916"></path>
            </g>
        </g>
    </g>
</svg>