<?xml version="1.0" encoding="UTF-8"?>
<svg width="805px" height="768px" viewBox="0 0 805 768" version="1.1" xmlns="http://www.w3.org/2000/svg" xmlns:xlink="http://www.w3.org/1999/xlink">
    <title>中国铝业集团有限公司@2x</title>
    <defs>
        <polygon id="path-1" points="0 0 177 0 177 173 0 173"></polygon>
    </defs>
    <g id="页面-1" stroke="none" stroke-width="1" fill="none" fill-rule="evenodd">
        <g id="37.中国铝业集团有限公司" transform="translate(-109.000000, 0.000000)">
            <g id="中国铝业集团有限公司" transform="translate(109.000000, 0.000000)">
                <g id="编组" transform="translate(0.000000, 593.000000)">
                    <mask id="mask-2" fill="white">
                        <use xlink:href="#path-1"></use>
                    </mask>
                    <g id="Clip-2"></g>
                    <path d="M100.812081,133.768464 L143.06126,133.768464 C146.796301,133.768464 149.031674,133.429791 149.772612,132.747203 C150.571109,132.007994 150.971927,130.357619 150.971927,127.826485 L150.971927,35.5973551 L100.812081,35.5973551 L100.812081,133.768464 Z M26.0306891,133.768464 L75.1848266,133.768464 L75.1848266,35.5973551 L26.0306891,35.5973551 L26.0306891,133.768464 Z M-0.000523261486,12.7269719 L75.1848266,12.7269719 L75.1848266,0 L100.812081,0 L100.812081,12.7269719 L177,12.7269719 L177,138.326394 C177,141.425828 176.499762,144.243209 175.497193,146.782731 C174.49881,149.388311 172.72914,151.717081 170.196554,153.750167 C167.721527,155.860843 164.25335,156.919852 159.785744,156.919852 L100.812081,156.919852 L100.812081,173 L75.1848266,173 L75.1848266,156.919852 L-0.000523261486,156.919852 L-0.000523261486,12.7269719 Z" id="Fill-1" fill="#231815" mask="url(#mask-2)"></path>
                </g>
                <path d="M229.539838,745.611914 L351.655367,745.611914 C354.402352,745.611914 356.158125,745.097718 356.913285,744.087093 C357.666356,743.063926 358.044459,741.233931 358.050725,738.633688 L358.050725,612.488417 L229.539838,612.488417 L229.539838,745.611914 Z M202,592 L202,766 L356.196771,766 C369.324856,766 377.164733,764.659119 379.709089,761.982581 C382.316115,759.295593 384.009219,756.453928 384.764379,753.459676 C385.590563,750.460199 386,747.143006 386,743.509145 L386,592 L202,592 Z M240.162212,666.65459 L277.603733,666.65459 L277.603733,645.503571 L240.162212,645.503571 L240.162212,625.784358 L347.634114,625.784358 L347.634114,645.503571 L304.209805,645.503571 L304.209805,666.65459 L346.910288,666.65459 L346.910288,686.178366 L304.209805,686.178366 L304.209805,714.217732 L319.269136,714.319108 L325.766854,702.066191 L342.166254,702.066191 L342.883813,714.319108 L350.522104,714.319108 L350.522104,733.835569 L240.162212,733.745689 L240.162212,714.217732 L277.603733,714.217732 L277.603733,686.178366 L240.162212,686.178366 L240.162212,666.65459 Z" id="Fill-3" fill="#231815"></path>
                <path d="M571.889358,614.987294 L517.656548,614.987294 L517.656548,648.554515 L562.550353,648.554515 C565.562127,648.554515 567.605458,648.178154 568.674085,647.416023 C569.813675,646.608937 570.617233,645.629353 571.088931,644.490861 C571.623245,643.29696 571.885183,639.946302 571.889358,634.46084 L571.889358,614.987294 Z M492.44781,669.74364 L492.44781,593.042311 L597,593.042311 L597,643.258279 C597,649.310373 596.127566,655.242241 594.388961,661.039246 C592.646181,666.837296 586.351301,669.74364 575.506409,669.74364 L492.44781,669.74364 Z M483.804873,688.089148 L483.804873,710.028904 L457.69448,710.028904 L457.69448,738.966884 C457.69448,742.36877 458.094172,744.4858 458.899816,745.304386 C459.769119,746.126107 461.279181,746.531741 463.417478,746.539059 L479.384265,746.539059 L479.384265,768 L451.468477,768 C446.378933,768 442.425849,767.27655 439.620704,765.826515 C436.866694,764.370207 434.99451,762.197768 433.988498,759.302924 C433.052406,756.397626 432.582795,752.591153 432.582795,747.86155 L432.582795,710.028904 L413,710.028904 L413,688.089148 L432.582795,688.089148 L432.582795,667.569109 L413,667.569109 L413,645.623081 L483.804873,645.623081 L483.804873,667.569109 L457.69448,667.569109 L457.69448,688.089148 L483.804873,688.089148 Z M413,616.685101 L416.918646,616.685101 C418.856576,616.685101 420.199664,616.533511 420.932258,616.209422 C421.737902,615.897879 422.439189,614.320299 423.045509,611.484 L427.259489,592 L453.373012,592 L450.76406,603.347285 L484.308923,603.347285 L484.308923,625.103042 L445.639034,625.103042 C444.304295,629.011969 442.898591,631.885904 441.422968,633.710209 C439.944214,635.470742 438.307879,636.640598 436.505615,637.20723 C434.692915,637.770726 432.208149,638.058224 429.071145,638.058224 L413,638.058224 L413,616.685101 Z M571.184941,703.697676 L516.850904,703.697676 L516.850904,744.262075 L561.843849,744.262075 C564.794052,744.262075 566.799814,743.850168 567.871571,743.03472 C569.008031,742.279907 569.846026,741.261641 570.385558,740.003968 C570.917784,738.807976 571.18181,735.469863 571.184941,729.984401 L571.184941,703.697676 Z M491.740262,766.486192 L491.740262,681.083606 L596.39681,681.083606 L596.39681,739.634925 C596.39681,745.304386 595.731006,750.346578 594.388961,754.758365 C593.046916,759.23497 590.469271,762.291858 586.656027,763.932165 C582.905397,765.641471 578.952313,766.486192 574.801992,766.486192 L491.740262,766.486192 Z" id="Fill-5" fill="#231815"></path>
                <path d="M802.445111,601.8237 L778.477221,601.8237 L773.469847,688.000409 C773.139645,692.658469 772.491779,695.506396 771.507442,696.548372 C770.59207,697.532866 768.920159,698.014662 766.496933,698.014662 L761.095615,698.014662 L761.095615,719.337015 L777.499153,719.337015 C786.271461,719.337015 791.545296,717.100477 793.314387,712.631583 C795.081388,708.152238 796.065725,704.44732 796.25695,701.504287 L802.445111,601.8237 Z M628,602.825962 L634.090981,702.522225 C634.220554,705.34298 634.808858,708.025779 635.860072,710.605113 C636.905016,713.179221 638.182983,715.105361 639.688748,716.395027 C641.26139,717.678424 643.253054,718.689046 645.68046,719.433165 C648.164292,720.099946 650.592743,720.431246 652.950138,720.431246 L669.353675,720.431246 L669.353675,699.026329 L663.853088,699.026329 C661.425682,699.026329 659.723468,698.543488 658.748534,697.564219 C657.830028,696.517018 657.239635,693.674317 656.978399,689.009987 L651.869665,602.825962 L628,602.825962 Z M628,742.850965 L679.862681,742.850965 L679.862681,594 L704.120021,594 L704.120021,742.850965 L725.438977,742.850965 L725.438977,594 L749.797676,594 L749.797676,742.850965 L805,742.850965 L805,765 L628,765 L628,742.850965 Z" id="Fill-7" fill="#231815"></path>
                <path d="M557.094824,330.266816 L524.643782,383.616445 L246.706111,383.616445 L424.004385,94.0675558 L422.641097,94.3838703 L528.117664,94.3838703 L383.96771,330.266816 L555.485561,330.266816 L557.094824,330.266816 Z M507.873676,164.2257 L547.057774,96.8590576 L539.19594,84.0551049 L458.729657,84.0551049 L406.442154,0 L155,410 L658,410 L507.873676,164.2257 Z" id="Fill-9" fill="#0055A2"></path>
                <path d="M592.448327,486.637545 C592.448327,497.899412 600.9388,507.03721 611.417721,507.03721 C621.88616,507.03721 630.380827,497.899412 630.380827,486.637545 C630.380827,475.375678 621.88616,466.23158 611.417721,466.23158 C600.9388,466.23158 592.448327,475.375678 592.448327,486.637545 M564,486.4979 C564,461.367117 585.487187,441 611.997379,441 C638.509669,441 660,461.367117 660,486.4979 C660,511.627634 638.509669,532 611.997379,532 C585.487187,532 564,511.627634 564,486.4979" id="Fill-11" fill="#898989"></path>
                <polygon id="Fill-13" fill="#898989" points="424 443 452.496858 443 452.496858 504.137644 481 504.137644 481 529 424 529"></polygon>
                <path d="M352.851861,444 L323,529 L352.705215,529 L355.884288,516.069992 L384.119902,516.069992 L387.302117,529 L417,529 L387.152329,444 L352.851861,444 Z M370.355092,459.031408 L379.966682,498.821654 L360.036461,498.821654 L370.355092,459.031408 Z" id="Fill-15" fill="#898989"></path>
                <polygon id="Fill-17" fill="#898989" points="262.349069 497.37867 262.349069 529 236 529 236 443 262.256756 443 262.256756 474.435834 288.744294 474.435834 288.74849 443 315 443 315 529 288.656177 529 288.656177 497.37867"></polygon>
                <path d="M221.032069,444.823379 C215.260991,442.423141 208.924591,441 202.227302,441 C176.169313,441 155,461.262961 155,486.076615 C155,510.882921 176.124463,531 202.182452,531 C208.842191,531 215.18485,529.68391 220.927766,527.318306 L221.032069,527.318306 L222,498.355925 C217.112367,503.832288 208.531369,506.2871 202.5569,506.2871 C192.132869,506.2871 183.314061,497.333699 183.314061,486.076615 C183.314061,474.81953 192.132869,465.934347 202.5569,465.934347 C208.596036,465.934347 216.783813,468.035474 221.799738,473.50344 L221.032069,444.823379 Z" id="Fill-19" fill="#898989"></path>
                <path d="M554.033067,444.829497 C548.264848,442.435668 541.921894,441 535.22325,441 C509.167173,441 488,461.262016 488,486.079759 C488,510.893304 509.123363,531 535.17944,531 C541.845749,531 548.182445,529.68607 553.924587,527.318478 L554.033067,527.318478 L555,498.359547 C550.117354,503.834604 541.528653,506.285105 535.557035,506.285105 C525.132518,506.285105 516.309125,497.338417 516.309125,486.079759 C516.309125,474.816903 525.132518,465.94053 535.557035,465.94053 C541.59854,465.94053 549.783569,468.045757 554.803901,473.501924 L554.033067,444.829497 Z" id="Fill-21" fill="#898989"></path>
            </g>
        </g>
    </g>
</svg>