<?xml version="1.0" encoding="UTF-8"?>
<svg width="1024px" height="297px" viewBox="0 0 1024 297" version="1.1" xmlns="http://www.w3.org/2000/svg" xmlns:xlink="http://www.w3.org/1999/xlink">
    <title>中国交通建设集团有限公司@2x</title>
    <g id="页面-1" stroke="none" stroke-width="1" fill="none" fill-rule="evenodd">
        <g id="74.中国交通建设集团有限公司" transform="translate(0.000000, -235.000000)">
            <g id="中国交通建设集团有限公司" transform="translate(0.000000, 235.000000)">
                <path d="M344,183.042126 L343.945735,188.527882 C333.892423,184.034901 331.521898,193.812684 331.564739,203.530481 C331.613292,214.244053 334.238006,222.906089 343.988576,218.161165 L343.960015,223.700909 C330.05103,229.096686 325.704115,216.784477 326.015425,203.344524 C326.443834,184.931698 334.12662,179.439943 344,183.042126" id="Fill-4" fill="#004098"></path>
                <polygon id="Fill-5" fill="#004098" points="375 225 380 225 380 182 375 182"></polygon>
                <polygon id="Fill-6" fill="#004098" points="349 182 354.86687 182 354.86687 198.366972 365.13313 198.366972 365.13313 182 371 182 371 225 365.13313 225 365.13313 203.896024 354.86687 203.896024 354.86687 225 349 225"></polygon>
                <polygon id="Fill-7" fill="#004098" points="400.535377 182.064124 406 182.064124 406 225 400.535377 225 400.535377 224.935876 389.705488 195.850873 389.705488 225 384 225 384 182.064124 389.666347 182.064124 389.666347 182 389.687423 182.064124 389.705488 182.064124 389.705488 182.10382 400.535377 211.136912"></polygon>
                <path d="M424.214829,211.678899 L420.465282,194.972477 L416.751962,211.678899 L424.214829,211.678899 Z M417.551986,182 L423.345369,182 L433,225 L427.203599,225 L425.31373,216.571865 L415.665137,216.571865 L413.793382,225 L408,225 L417.551986,182 Z" id="Fill-8" fill="#004098"></path>
                <path d="M466,183.042126 L465.945735,188.527882 C455.892423,184.034901 453.521898,193.812684 453.564739,203.530481 C453.613292,214.244053 456.238006,222.906089 465.988576,218.161165 L465.960015,223.700909 C452.05103,229.096686 447.704115,216.784477 448.015425,203.344524 C448.443834,184.931698 456.12662,179.439943 466,183.042126" id="Fill-9" fill="#004098"></path>
                <path d="M485.815433,192.588071 C484.44004,185.780271 478.506289,186.5499 477.101696,190.089005 C475.113071,194.956389 475.151033,202.524903 475.752585,210.848188 C476.22273,220.342261 482.71715,222.422339 485.57306,215.415446 C487.050657,207.531949 486.782003,199.832687 485.815433,192.588071 M490.440955,188.900389 C487.742734,179.792617 476.108844,180.82077 473.355139,185.554434 C469.459655,192.068051 469.529739,202.19209 470.709481,213.332396 C471.635169,226.035733 484.364116,228.817095 489.96497,219.441884 C492.861762,208.895886 492.336134,198.593555 490.440955,188.900389" id="Fill-10" fill="#004098"></path>
                <polygon id="Fill-11" fill="#004098" points="514.759778 182 520 182 520 225 514.759778 225 514.759778 200.865323 510.508053 210.32392 507.533631 210.32392 503.28786 200.33137 503.28786 225 498 225 498 182 503.642171 182 509.016376 201.158235 514.756801 182.006102 514.759778 182.503441"></polygon>
                <polygon id="Fill-12" fill="#004098" points="541.759778 182 547 182 547 225 541.759778 225 541.759778 200.865323 537.505075 210.32392 534.533631 210.32392 530.28786 200.33137 530.28786 225 525 225 525 182 530.642171 182 536.016376 201.158235 541.753823 182.006102 541.759778 182.503441"></polygon>
                <path d="M557.377185,213.057655 L557.377185,182 L552.028377,182 L552.028377,212.648329 L552.004511,212.648329 C551.822539,222.595567 557.17433,225.527068 562.857252,224.925117 C567.871946,224.39239 572.815044,224.052288 573,212.648329 L573,212.645319 L572.949286,182 L567.597495,182 L567.597495,213.057655 L567.594512,213.063675 C567.934592,217.485004 565.005128,219.477461 562.269569,219.37513 C559.695101,219.275808 557.168363,217.346555 557.380168,213.057655 L557.377185,213.057655 Z" id="Fill-13" fill="#004098"></path>
                <path d="M629,183.042126 L628.945735,188.527882 C618.892429,184.034901 616.521905,193.812684 616.564745,203.530481 C616.610442,214.244053 619.238011,222.906089 628.98572,218.161165 L628.957159,223.700909 C615.048181,229.096686 610.704125,216.784477 611.015434,203.344524 C611.443842,184.931698 619.126625,179.439943 629,183.042126" id="Fill-14" fill="#004098"></path>
                <polygon id="Fill-15" fill="#004098" points="592.535377 182.064124 598 182.064124 598 225 592.535377 225 592.535377 224.935876 581.705488 195.850873 581.705488 225 576 225 576 182.064124 581.666347 182.064124 581.666347 182 581.687423 182.064124 581.705488 182.064124 581.705488 182.10382 592.535377 211.136912"></polygon>
                <polygon id="Fill-16" fill="#004098" points="602 225 607 225 607 182 602 182"></polygon>
                <path d="M647.214717,211.678899 L643.464563,194.972477 L639.751387,211.678899 L647.214717,211.678899 Z M640.55257,182 L646.345741,182 L656,225 L650.206829,225 L648.311722,216.571865 L638.666708,216.571865 L636.793171,225 L631,225 L640.55257,182 Z" id="Fill-17" fill="#004098"></path>
                <polygon id="Fill-18" fill="#004098" points="652 185 673 185 673 190.610293 665.346694 190.610293 665.346694 228 659.6502 228 659.6502 190.610293 652 190.610293"></polygon>
                <polygon id="Fill-19" fill="#004098" points="677 225 682 225 682 182 677 182"></polygon>
                <path d="M701.815861,192.588071 C700.440319,185.780271 694.505923,186.5499 693.101177,190.089005 C691.115257,194.956389 691.150303,202.524903 691.75192,210.848188 C692.222115,220.342261 698.714321,222.422339 701.573462,215.415446 C703.05122,207.531949 702.782537,199.832687 701.815861,192.588071 M706.441886,188.900389 C703.743372,179.792617 692.108217,180.82077 689.354213,185.554434 C685.458306,192.068051 685.531317,202.19209 686.708267,213.332396 C687.634056,226.035733 700.367308,228.817095 705.96585,219.441884 C708.860036,208.895886 708.337272,198.593555 706.441886,188.900389" id="Fill-20" fill="#004098"></path>
                <polygon id="Fill-21" fill="#004098" points="727.786059 182.064124 733 182.064124 733 225 727.786059 225 727.786059 224.935876 717.447172 195.850873 717.447172 225 712 225 712 182.064124 717.410346 182.064124 717.410346 182 717.431828 182.064124 717.447172 182.064124 717.447172 182.10382 727.786059 211.136912"></polygon>
                <path d="M743.13934,204.672872 C729.679255,193.33556 740.68643,175.98739 753.772541,184.081219 L753.772541,189.839145 C745.553969,184.006827 740.082773,190.092077 743.592819,196.683192 C747.665297,202.36375 752.058744,203.768268 753.772541,208.023479 C756.572922,214.971674 754.6795,222.205534 747.082252,224.88959 C744.187642,225.294281 741.172301,224.574169 738.048006,222.931598 L738.048006,216.920739 C744.691181,221.45864 749.458601,218.926343 749.567553,214.566983 C749.655893,211.008078 747.19415,208.219873 743.13934,204.672872" id="Fill-22" fill="#004098"></path>
                <path d="M845.141206,204.672872 C831.676952,193.33556 842.688073,175.98739 855.775375,184.081219 L855.775375,189.839145 C847.556055,184.006827 842.084361,190.092077 845.594726,196.683192 C849.667575,202.36375 854.061421,203.768268 855.77243,208.023479 C858.573065,214.971674 856.679471,222.205534 849.081532,224.88959 C846.189604,225.294281 843.171043,224.574169 840.049409,222.931598 L840.049409,216.920739 C846.693188,221.45864 851.458097,218.926343 851.567059,214.566983 C851.655407,211.008078 849.19344,208.219873 845.141206,204.672872" id="Fill-23" fill="#004098"></path>
                <polygon id="Fill-24" fill="#004098" points="832.78299 182.064124 838 182.064124 838 225 832.78299 225 832.78299 224.935876 822.447172 195.850873 822.447172 225 817 225 817 182.064124 822.407278 182.064124 822.407278 182 822.431828 182.064124 822.447172 182.064124 822.447172 182.10382 832.78299 211.136912"></polygon>
                <polygon id="Fill-25" fill="#004098" points="1015.78375 182.064124 1021 182.064124 1021 225 1015.78375 225 1015.78375 224.935876 1005.44944 195.850873 1005.44944 225 1000 225 1000 182.064124 1005.40956 182.064124 1005.40956 182 1005.4341 182.064124 1005.44944 182.064124 1005.44944 182.10382 1015.78375 211.136912"></polygon>
                <path d="M807.817313,192.588071 C806.438849,185.780271 800.504444,186.5499 799.102617,190.089005 C797.113773,194.956389 797.15174,202.524903 797.753357,210.848188 C798.223554,220.342261 804.715769,222.422339 807.571993,215.415446 C809.049753,207.531949 808.78399,199.832687 807.817313,192.588071 M812.443344,188.900389 C809.744826,179.792617 798.106735,180.82077 795.352727,185.554434 C791.459735,192.068051 791.529826,202.19209 792.709698,213.332396 C793.632568,226.035733 806.365837,228.817095 811.964387,219.441884 C814.861497,208.895886 814.335812,198.593555 812.443344,188.900389" id="Fill-26" fill="#004098"></path>
                <path d="M992.817778,192.588071 C991.439337,185.780271 985.505034,186.5499 984.10323,190.089005 C982.114421,194.956389 982.152386,202.524903 982.753994,210.848188 C983.224182,220.342261 989.716287,222.422339 992.572462,215.415446 C994.050197,207.531949 993.784438,199.832687 992.817778,192.588071 M997.44081,188.900389 C994.745258,179.792617 983.107365,180.82077 980.353405,185.554434 C976.457558,192.068051 976.530569,202.19209 977.71042,213.332396 C978.633275,226.035733 991.366327,228.817095 996.964781,219.441884 C999.861842,208.895886 999.336166,198.593555 997.44081,188.900389" id="Fill-27" fill="#004098"></path>
                <polygon id="Fill-28" fill="#004098" points="969 225 974 225 974 182 969 182"></polygon>
                <polygon id="Fill-29" fill="#004098" points="946 185 967 185 967 190.610293 959.3498 190.610293 959.3498 228 953.653306 228 953.653306 190.610293 946 190.610293"></polygon>
                <polygon id="Fill-30" fill="#004098" points="856 185 877 185 877 190.610293 869.346694 190.610293 869.346694 228 863.6502 228 863.6502 190.610293 856 190.610293"></polygon>
                <path d="M789,183.042126 L788.945735,188.527882 C778.892423,184.034901 776.524754,193.812684 776.564739,203.530481 C776.613292,214.244053 779.238006,222.906089 788.98572,218.161165 L788.960015,223.700909 C775.05103,229.096686 770.704115,216.784477 771.015425,203.344524 C771.44669,184.931698 779.129476,179.439943 789,183.042126" id="Fill-31" fill="#004098"></path>
                <path d="M945,183.042126 L944.94929,188.527882 C935.454498,184.034901 933.214288,193.812684 933.253067,203.530481 C933.297811,214.244053 935.779642,222.906089 944.988068,218.161165 L944.961221,223.700909 C931.824224,229.096686 927.716675,216.784477 928.014972,203.344524 C928.417673,184.931698 935.675238,179.439943 945,183.042126" id="Fill-32" fill="#004098"></path>
                <path d="M908.377565,213.057655 L908.377565,182 L903.029317,182 L903.029317,212.648329 L903.004656,212.648329 C902.819702,222.595567 908.174116,225.527068 913.855282,224.925117 C918.867531,224.39239 923.815046,224.052288 924,212.648329 L924,212.645319 L923.947596,182 L918.593183,182 L918.593183,213.057655 L918.593183,213.063675 C918.932265,217.485004 916.003829,219.477461 913.266512,219.37513 C910.695653,219.275808 908.167951,217.346555 908.377565,213.057655 Z" id="Fill-33" fill="#004098"></path>
                <path d="M894.270878,195.93994 C894.334649,190.915717 891.337382,189.834283 886.529001,190.180465 L886.529001,203.488529 C892.485272,204.104303 894.481324,201.641208 894.270878,195.93994 M888.35287,185.070462 L881,185 L881,228 L886.548132,228 L886.548132,207.213807 L895.948072,227.920348 L902,227.895839 L892.293957,206.855372 C900.950957,206.208963 901.324021,194.61955 898.396903,189.013252 C896.87276,186.090624 890.884604,184.840695 888.35287,185.070462" id="Fill-34" fill="#004098"></path>
                <path d="M389.498156,90.2600467 L417.921461,90.2600467 L417.921461,120.538307 C418.440202,128.352346 413.811439,130.917423 405.870716,130.533575 L389.498156,130.533575 L389.498156,90.2600467 Z M371.554026,141.905821 L326,141.817475 L326,77.1604874 L371.431247,77.1604874 L371.431247,64 L389.544198,64 L389.544198,77.1818123 L435,77.1818123 L435,123.916775 C434.757512,136.927988 427.21889,141.342235 416.365239,141.847939 L389.571823,141.847939 L389.571823,158 L371.554026,158 L371.554026,141.905821 Z M343.01408,130.533575 L371.437386,130.533575 L371.437386,90.2600467 L343.01408,90.2600467 L343.01408,130.533575 Z" id="Fill-35" fill="#004098"></path>
                <polygon id="Fill-36" fill="#004098" points="470.958291 85 531.76704 85 531.76704 95.5699618 505.743642 95.5699618 505.743642 104.763626 531.76704 104.763626 531.76704 115.058329 505.743642 115.058329 505.743642 130.567668 517.081384 130.567668 512.314344 120.20568 524.277721 120.20568 529.353001 130.567668 533 130.567668 533 141 470 141 470 130.567668 494.036623 130.567668 494.036623 115.058329 470.958291 115.058329 470.958291 104.763626 494.036623 104.763626 494.036623 95.5699618 470.958291 95.5699618"></polygon>
                <path d="M451,64 L554,64 L553.606454,141.818712 C553.639754,149.517648 549.55596,155.685944 540.104808,156 L451,156 L451,64 Z M465.110128,75.8212972 L539.890081,75.8212972 L539.890081,137.162761 C539.920145,143.041395 536.662797,145.837404 529.799965,146.078282 L465.110128,146.078282 L465.110128,75.8212972 Z" id="Fill-37" fill="#004098"></path>
                <path d="M630.889416,86.284147 L614.375464,86.1605184 C610.703667,91.8896516 606.849194,96.9523962 602.857713,101.51158 C607.945253,112.855264 614.186699,122.703343 622.708556,129.593379 C630.487528,123.092321 637.517527,114.561943 643.207899,102.41618 C638.144717,97.3293129 633.912712,91.992173 630.889416,86.284147 L630.889416,86.284147 Z M675.495964,74.2469365 L631.13603,74.2559825 L627.890478,66 L608.344097,66 L612.055473,74.2620132 L568,74.2710592 L568,86.238917 L595.374068,86.238917 C590.913717,99.0269455 580.747772,104.017322 568.006089,105.739077 L569.497947,115.80426 C575.422754,115.023289 581.630709,113.268365 588.097455,110.620902 C594.195805,121.252967 601.846904,130.003464 610.371805,137.69558 C595.842937,144.691153 581.837742,147.920575 568.11874,149.039263 L568.544985,160 C587.945225,159.249182 606.024105,155.133252 622.187928,146.102329 C638.196475,155.519215 656.059188,159.445179 675.066674,159.960801 L675.483785,149.063386 C659.198179,147.893437 645.616184,143.928274 634.268931,137.641304 C642.215357,130.651761 649.854278,122.27215 656.762493,110.55758 C662.050976,112.924617 668.018407,114.833323 675.468562,115.731892 L677,105.823507 C661.716069,103.586129 652.634005,97.0730096 649.753806,86.2871624 L675.495964,86.266055 L675.495964,74.2469365 Z" id="Fill-38" fill="#004098"></path>
                <polygon id="Fill-39" fill="#004098" points="688 68 704.292671 68 714 85 697.704225 85"></polygon>
                <path d="M699.852109,101.033701 L699.35532,137.039035 C695.466875,138.951379 692.467743,142.105699 687,142.551613 L687.171729,158 C693.679049,157.090215 700.336631,153.472025 707.17821,146.582798 C716.006943,158.269344 751.239079,158.831974 790.988312,157.290727 C790.365793,152.780708 791.402303,148.067184 793,144.095854 C755.256321,148.171929 726.773766,147.651197 713.219406,139.717514 L713.219406,89 L687.579587,89.6524115 L687.579587,101.033701 L699.852109,101.033701 Z" id="Fill-40" fill="#004098"></path>
                <path d="M733.885495,103.576993 L748.111775,103.576993 L748.111775,96.1545532 L733.885495,96.1545532 L733.885495,103.576993 Z M762.054068,103.576993 L773.643748,103.576993 L773.643748,96.1545532 L762.054068,96.1545532 L762.054068,103.576993 Z M762.054068,121.102199 L773.643748,121.102199 L773.643748,115.224562 L762.054068,115.224562 L762.054068,121.102199 Z M733.885495,121.102199 L748.111775,121.102199 L748.111775,115.224562 L733.885495,115.224562 L733.885495,121.102199 Z M789,65.0184638 L720.13751,65 L720.002989,77.9800381 L763.749025,77.958497 C760.598258,81.9559056 756.287627,84.8885695 751.190798,87.0826821 L748.054978,80.798842 L732.884066,80.798842 L738.058617,88.0581852 L720,88.0581852 L720,140.978459 L733.81973,140.978459 L733.81973,131.98352 L748.063946,131.98352 L748.063946,141 L762.030153,141 L762.030153,131.91582 L773.652716,131.91582 L773.652716,140.975382 L787.113725,140.975382 L787.113725,87.9997166 L767.45282,87.9997166 C773.978555,83.8946026 780.982584,78.7308985 788.677151,72.0193141 L789,65.0184638 Z" id="Fill-41" fill="#004098"></path>
                <path d="M804.536201,80.0550027 L804.58196,69 L834.633148,69 L836.365873,74.150835 C832.253701,83.2673843 826.832834,89.8391394 823.538216,97.5592673 L836.301811,97.4459611 C835.725253,112.083887 832.897372,125.221273 827.815119,136.845868 C842.616495,146.066537 870.422462,148.164231 909,144.36082 C907.212365,149.055368 906.3338,153.29363 905.867062,157.326715 C866.755674,158.588394 840.963085,159.807201 820.719487,143.74223 C814.371246,150.347671 807.638633,154.962598 800.280653,156.371269 L800,144.562934 C804.249447,144.324072 808.602614,141.552666 813.05645,136.248714 C808.645322,131.517418 805.231732,124.173957 802.635694,114.78486 L812.482942,114.78486 C813.523187,120.557348 815.981948,124.673116 819.404691,127.652761 C822.162408,121.910896 823.757857,115.608626 823.471104,108.406032 L805.774733,108.406032 L805.774733,99.7059589 C810.863088,94.5918718 815.420643,88.2314174 819.203353,80.0550027 L804.536201,80.0550027 Z" id="Fill-42" fill="#004098"></path>
                <path d="M871.489451,83.5239857 L886.007288,83.5239857 L886.007288,78.9610835 L871.489451,78.9610835 L871.489451,83.5239857 Z M871.489451,98.7772897 L886.007288,98.7772897 L886.007288,92.5919547 L871.489451,92.5919547 L871.489451,98.7772897 Z M838.525892,78.9397757 L838.492137,68.7181443 L857.858458,69.2812777 L857.520905,64 L871.449559,64 L871.336018,69.168651 L899.874568,68.830771 L899.629076,83.4691943 L906.960107,83.3809194 L907,92.7411089 L899.598389,92.6223943 L899.810127,107.690017 L871.431147,107.495203 L871.44649,113.300042 L899.039893,113.123492 L899.024549,121.473086 L871.47104,121.229569 L871.440353,127.153123 L904.222862,126.921782 L904.247411,136.254576 L871.467971,135.91974 L871.72267,143 L857.658995,142.963472 L857.978136,135.852772 L835.027618,135.992795 L835.027618,127.000925 L858.018028,127.150079 L858.002685,121.278272 L838.52896,121.436558 L838.550441,113.141756 L857.984273,113.309174 L857.96893,107.492159 L838.568853,107.674797 L838.538166,98.5946519 L858.008822,98.8107733 L857.959724,92.6741417 L835.027618,92.7624167 L835,83.2896004 L858.008822,83.5392055 L857.999616,78.9641275 L838.525892,78.9397757 Z" id="Fill-43" fill="#004098"></path>
                <polygon id="Fill-44" fill="#004098" points="924 68 940.183705 68 950 85 933.819396 85"></polygon>
                <path d="M926.790456,143.574443 L926.90249,158 C940.284232,155.261691 952.660788,147.867657 962,135.224697 L959.292531,130.518041 L946.109959,137.579523 L946.109959,89 L920,89.5812166 L920,100.935912 L932.578838,100.935912 L932.059129,141.830793 L926.790456,143.574443 Z" id="Fill-45" fill="#004098"></path>
                <path d="M954.145478,105 L948,97.2684264 C956.746787,95.5180544 962.92912,90.5327015 964.040895,79.1445915 L964.120747,66 L1008.84054,66 L1008.51192,91.3208271 L1024,91.3208271 L1024,100.848594 L1005.96589,100.848594 C999.863412,100.436203 996.466661,97.2745359 996.039764,91.0917208 L995.907702,77.4675335 L977.225572,77.4675335 C977.40063,93.2911412 967.581993,100.671419 954.145478,105" id="Fill-46" fill="#004098"></path>
                <path d="M1016.00873,106.148207 L961.195106,106 L961.271164,116.418971 L999.710979,116.463433 C998.074206,125.646355 994.539021,132.149689 987.842857,137.497007 C982.165873,134.052671 978.432937,127.943567 976.370238,120.017443 L961.794444,120.014479 C964.736376,129.490851 969.220767,137.76378 977.094312,143.392692 C969.953968,146.404264 962.278175,148.56809 954.209921,150.106481 L954,158 C966.68955,156.758023 978.061772,153.945049 988.116667,149.564043 C997.076323,153.372969 1009.13915,155.759106 1023,157.380494 L1022.75053,149.389158 C1014.14683,147.92487 1006.15463,145.864789 998.773942,143.205951 C1008.39074,135.06048 1014.93479,123.577381 1016.00873,106.148207" id="Fill-47" fill="#004098"></path>
                <path d="M37.0410317,179.455899 L14.4097425,179.455899 L0,165.264606 L14.4067031,151.094631 L32.8953054,151.094631 C32.877069,150.290661 32.8618721,149.486691 32.8618721,148.67663 C32.8618721,95.7394541 68.7570543,50.9363862 117.399433,37.4363862 L117.399433,14.4379653 L131.562985,0 L145.708301,14.4349199 L145.708301,33.2977667 C146.486384,33.28254 147.264468,33.2703587 148.045591,33.2703587 C200.389945,33.2703587 244.761983,68.5628243 258.688463,116.612226 L281.590258,116.612226 L296,130.800474 L281.590258,144.973494 L263.162443,144.973494 C263.201955,146.203812 263.22931,147.437176 263.22931,148.67663 C263.22931,201.34277 227.711012,245.960072 179.448556,259.712836 L179.448556,282.562035 L165.285004,297 L151.142728,282.56508 L151.142728,264.043312 C150.112375,264.07072 149.082022,264.085946 148.045591,264.085946 C95.2362098,264.085946 50.541997,228.16005 37.0410317,179.455899 L37.0410317,179.455899 Z M145.197683,232.993007 L131.955066,247.217798 L117.636506,233.251861 L117.779357,198.592827 L98.989855,179.455899 L44.3234074,179.455899 C57.6146548,224.246785 99.1235881,257.07557 148.045591,257.07557 C149.082022,257.07557 150.112375,257.057298 151.142728,257.029889 L151.142728,187.61437 L187.697458,151.520979 L232.881012,151.517934 L247.077997,164.789533 L233.13936,179.136138 L198.548076,178.989962 L179.448556,197.816264 L179.448556,252.40097 C223.802358,238.861381 256.232636,197.444733 256.232636,148.67663 C256.232636,147.437176 256.205282,146.203812 256.162731,144.973494 L186.828192,144.973494 L150.802317,108.347169 L150.802317,63.0751184 L164.047973,48.8503271 L178.363494,62.8162644 L178.220643,97.4752989 L197.007106,116.612226 L251.387851,116.612226 C237.686286,72.4791338 196.499528,40.2776901 148.045591,40.2776901 C147.264468,40.2776901 146.486384,40.2929168 145.708301,40.3081435 L145.708301,109.388676 L109.153571,145.482066 L63.9669775,145.482066 L49.7699922,132.213512 L63.7116688,117.866907 L98.3029531,118.010038 L117.399433,99.186781 L117.399433,44.7269344 C72.6596295,58.0228965 39.8585452,99.6344462 39.8585452,148.67663 C39.8585452,149.486691 39.8737421,150.290661 39.8889391,151.094631 L109.171808,151.094631 L145.194644,187.720956 L145.197683,232.993007 Z" id="Fill-48" fill="#004098"></path>
                <path d="M150,120.048908 L178.948327,148.998468 L150,177.951092 L121.048608,148.998468 L150,120.048908 Z M150,113 L186,148.998468 L150,185 L114,148.998468 L150,113 Z" id="Fill-49" fill="#004098"></path>
                <path d="M150,120.048908 L178.948327,148.998468 L150,177.951092 L121.048608,148.998468 L150,120.048908 Z M150,113 L186,148.998468 L150,185 L114,148.998468 L150,113 Z" id="Stroke-50" stroke="#004098" stroke-width="0.216"></path>
                <polygon id="Fill-51" fill="#004098" points="105.585235 130.954138 56 131 65.5794192 121.320157 100.398045 121.335444 122.28246 100.052632 122.28246 14.8755187 132 5 132 103.684866"></polygon>
                <polygon id="Fill-52" fill="#004098" points="165.045862 103.586302 165 54 174.679843 63.5821016 174.664556 98.3962523 195.947368 120.282853 281.121424 120.282853 291 130 192.312077 130"></polygon>
                <polygon id="Fill-53" fill="#004098" points="192.414765 163.045862 242 163 232.420581 172.6829 197.601955 172.664556 175.71754 193.947368 175.71754 279.124481 166 289 166 190.315134"></polygon>
                <polygon id="Fill-54" fill="#004098" points="133.954138 191.414765 134 241 124.320157 231.420581 124.335444 196.601955 103.052632 174.71754 17.8755187 174.71754 8 165 106.684866 165"></polygon>
            </g>
        </g>
    </g>
</svg>