<?xml version="1.0" encoding="UTF-8"?>
<svg width="1024px" height="279px" viewBox="0 0 1024 279" version="1.1" xmlns="http://www.w3.org/2000/svg" xmlns:xlink="http://www.w3.org/1999/xlink">
    <title>中国中钢集团有限公司@2x</title>
    <defs>
        <polygon id="path-1" points="0 0 1024 0 1024 279 0 279"></polygon>
    </defs>
    <g id="页面-1" stroke="none" stroke-width="1" fill="none" fill-rule="evenodd">
        <g id="59.中国中钢集团有限公司" transform="translate(0.000000, -244.000000)">
            <g id="中国中钢集团有限公司" transform="translate(0.000000, 244.000000)">
                <mask id="mask-2" fill="white">
                    <use xlink:href="#path-1"></use>
                </mask>
                <g id="Clip-2"></g>
                <path d="M287.329538,168.222611 L305.269416,168.222611 L305.269416,142.913208 L287.329538,142.913208 L287.329538,168.222611 Z M253.064044,145.329934 L253.064044,168.222611 L270.993363,168.222611 L270.993363,142.913208 L255.451413,142.913208 C253.855923,142.913208 253.064044,143.721936 253.064044,145.329934 L253.064044,145.329934 Z M253.064044,171.438606 L253.064044,176.649226 C253.322138,179.864038 252.122001,181.741611 249.47771,182.280763 C249.200846,182.280763 248.675273,182.420281 247.883394,182.680398 C245.485466,183.21955 243.494623,183.487943 241.899133,183.487943 C238.44302,184.287213 236.858088,183.21955 237.124394,180.274314 C237.649967,170.628695 237.916273,162.601715 237.916273,156.172091 L237.916273,151.350464 C237.916273,143.862636 237.649967,139.299944 237.124394,137.702588 C236.589436,134.757352 237.779014,133.679048 240.710727,134.487776 C246.020424,135.825015 250.805721,137.561888 255.054887,139.709037 L270.993363,139.709037 L270.993363,134.078683 C270.993363,129.265332 270.59801,123.774495 269.806131,117.614447 C269.260614,116.007632 269.260614,115.068845 269.806131,114.799269 C270.063051,114.269576 270.993363,114 272.588853,114 C279.760346,114.799269 285.071216,115.607997 288.528502,116.406084 C290.657778,117.753964 290.915872,119.361961 289.33094,121.228893 C287.993544,121.768045 287.329538,122.835708 287.329538,124.443705 L287.329538,139.709037 L303.278573,139.709037 C305.665942,134.616652 307.656785,132.071051 309.252276,132.071051 C312.977041,132.611385 317.4843,135.155804 322.803382,139.709037 C324.398873,141.57597 324.398873,143.312843 322.803382,144.92084 C321.733466,145.729568 321.207892,146.668355 321.207892,147.736018 L321.207892,152.957279 C321.207892,162.872474 321.336939,170.229061 321.604419,175.042411 C322.139377,177.72753 320.941586,179.603921 318.019259,180.672766 C316.958727,181.211918 314.69102,181.741611 311.243119,182.280763 C310.70816,182.549157 310.173202,182.680398 309.647629,182.680398 C306.457822,183.21955 305.001937,182.010005 305.269416,179.065951 L305.269416,171.438606 L287.329538,171.438606 L287.329538,176.649226 C287.329538,188.969322 287.597018,198.883334 288.131976,206.372345 C288.131976,209.587157 287.071444,211.603065 284.942169,212.401152 C281.752362,213.739573 278.166029,214.53766 274.18317,214.808418 C270.993363,215.615964 269.528093,213.869632 269.806131,209.587157 C270.59801,199.952179 270.993363,188.440811 270.993363,175.042411 L270.993363,171.438606 L253.064044,171.438606 Z" id="Fill-1" fill="#231916" mask="url(#mask-2)"></path>
                <path d="M400.967112,201.60657 L400.967112,190.512277 L399.762617,190.512277 C397.360706,190.512277 393.88407,190.384046 389.342146,190.119424 L382.936263,190.119424 L355.681179,190.119424 C354.076759,190.119424 352.205723,190.384046 350.072788,190.915621 C348.996883,191.43787 348.329161,191.309639 348.070802,190.512277 C347.263873,189.725406 346.725921,188.671582 346.467562,187.351971 C345.929609,186.555774 346.058199,186.299313 346.865128,186.555774 C350.601303,187.087349 354.206529,187.351971 357.684345,187.351971 L365.30416,187.351971 L365.30416,163.590807 L359.287585,163.590807 L357.285599,163.590807 C355.940718,163.855429 355.013457,163.984826 354.476685,163.984826 C353.679193,164.5164 353.141241,164.376512 352.872265,163.590807 C352.603288,163.334346 352.075953,162.665214 351.269024,161.61139 C351.805797,162.133639 351.676028,161.877178 350.870279,160.815194 C350.601303,160.027157 350.870279,159.76137 351.676028,160.027157 C355.940718,160.558732 359.148378,160.815194 361.289571,160.815194 L365.30416,160.815194 L365.30416,141.412711 L357.684345,141.412711 C355.282434,141.412711 353.679193,141.550268 352.872265,141.80673 C351.805797,142.338304 351.139255,142.200748 350.870279,141.412711 C350.072788,140.624675 349.525397,139.700248 349.265859,138.646424 C348.727906,137.850227 348.867113,137.593766 349.664604,137.850227 C353.937552,138.380636 357.145212,138.646424 359.287585,138.646424 L382.129334,138.646424 C384.540683,134.945217 386.542669,132.829409 388.136471,132.30716 C392.15106,134.158346 395.219513,136.658847 397.360706,139.827313 C397.889221,140.358887 398.017811,140.891628 397.759452,141.412711 C397.490475,141.944286 396.952523,142.072517 396.155032,141.80673 C391.882084,141.550268 386.542669,141.412711 380.127348,141.412711 L380.127348,160.815194 L381.730589,160.815194 C383.862344,157.387935 385.73574,155.409684 387.33898,154.879275 C389.470735,155.931933 392.28083,157.91951 395.756286,160.815194 C396.553777,162.399427 396.155032,163.334346 394.551792,163.590807 L380.127348,163.590807 L380.127348,187.351971 L384.13132,187.351971 C384.401476,186.555774 385.336994,185.364394 386.941414,183.789487 C388.006702,182.736828 388.674424,182.066531 388.9434,181.80191 C387.33898,181.279661 386.403462,180.215345 386.134485,178.641604 C385.336994,174.418148 384.401476,171.11096 383.335009,168.73869 C382.787618,167.950654 382.657849,167.419079 382.936263,167.153292 C382.936263,166.897996 383.464778,166.749948 384.540683,166.749948 C390.149075,167.290848 394.154226,169.004478 396.553777,171.908322 C398.685532,176.130612 397.759452,179.42964 393.754301,181.80191 C397.221499,183.65193 399.622231,185.50195 400.967112,187.351971 L400.967112,126.361915 L349.664604,126.361915 C347.263873,126.361915 346.058199,127.690852 346.058199,130.328909 L346.058199,201.60657 L400.967112,201.60657 Z M400.967112,210.318103 L400.967112,204.371692 L346.058199,204.371692 L346.058199,206.351109 C346.327175,209.254954 345.12268,211.243696 342.451793,212.296355 C340.051062,213.084391 336.973171,213.615966 333.236996,213.880588 C329.761539,214.402837 328.426095,212.296355 329.223587,207.54249 C330.568468,177.450223 331.095803,154.485256 330.837444,138.646424 C330.837444,131.775585 330.438699,125.712601 329.63177,120.425996 C329.093817,117.523317 330.288874,116.459002 333.236996,117.256364 C338.846567,118.841763 343.917006,120.820014 348.469548,123.192283 L399.762617,123.192283 C402.701301,119.234615 404.831876,117.256364 406.177938,117.256364 C408.577489,117.787939 413.389569,120.957571 420.601201,126.755933 C421.398692,128.340166 421,129.797334 419.406144,131.11578 C417.254334,132.701178 416.189046,133.755002 416.189046,134.285411 C416.189046,137.190421 416.328253,143.392128 416.597229,152.901023 C416.597229,178.237094 416.994795,196.054178 417.792286,206.351109 C418.330239,208.466917 417.393541,210.179381 414.99281,211.508318 C412.851617,212.817438 409.783164,213.615966 405.779192,213.880588 C402.291938,214.402837 400.698136,213.211456 400.967112,210.318103 L400.967112,210.318103 Z" id="Fill-3" fill="#231916" mask="url(#mask-2)"></path>
                <path d="M476.912342,168.222611 L495.047263,168.222611 L495.047263,142.913208 L476.912342,142.913208 L476.912342,168.222611 Z M442.245502,145.329934 L442.245502,168.222611 L460.391102,168.222611 L460.391102,142.913208 L444.670769,142.913208 C443.058275,142.913208 442.245502,143.721936 442.245502,145.329934 L442.245502,145.329934 Z M442.245502,171.438606 L442.245502,176.649226 C442.516031,179.864038 441.303397,181.741611 438.61828,182.280763 C438.348938,182.280763 437.818559,182.420281 437.005786,182.680398 C434.591198,183.21955 432.577657,183.487943 430.963977,183.487943 C427.467273,184.287213 425.85478,183.21955 426.125308,180.274314 C426.666366,170.628695 426.936895,162.601715 426.936895,156.172091 L426.936895,151.350464 C426.936895,143.862636 426.666366,139.299944 426.125308,137.702588 C425.584251,134.757352 426.795698,133.679048 429.75253,134.487776 C435.122764,135.825015 439.961432,137.561888 444.259043,139.709037 L460.391102,139.709037 L460.391102,134.078683 C460.391102,129.265332 459.990055,123.774495 459.177282,117.614447 C458.637411,116.007632 458.637411,115.068845 459.177282,114.799269 C459.438318,114.269576 460.391102,114 462.003596,114 C469.258039,114.799269 474.628272,115.607997 478.124976,116.406084 C480.269035,117.753964 480.538377,119.361961 478.925883,121.228893 C477.582732,121.768045 476.912342,122.835708 476.912342,124.443705 L476.912342,139.709037 L493.033722,139.709037 C495.44831,134.616652 497.461851,132.071051 499.083838,132.071051 C502.841577,132.611385 507.410904,135.155804 512.79063,139.709037 C514.403123,141.57597 514.403123,143.312843 512.79063,144.92084 C511.709701,145.729568 511.178136,146.668355 511.178136,147.736018 L511.178136,152.957279 C511.178136,162.872474 511.307467,170.229061 511.579183,175.042411 C512.109561,177.72753 510.907607,179.603921 507.951961,180.672766 C506.869846,181.211918 504.585776,181.741611 501.098565,182.280763 C500.557508,182.549157 500.01645,182.680398 499.484885,182.680398 C496.25871,183.21955 494.775548,182.010005 495.047263,179.065951 L495.047263,171.438606 L476.912342,171.438606 L476.912342,176.649226 C476.912342,188.969322 477.172192,198.883334 477.714436,206.372345 C477.714436,209.587157 476.641813,211.603065 474.488262,212.401152 C471.27158,213.739573 467.644358,214.53766 463.606597,214.808418 C460.391102,215.615964 458.907939,213.869632 459.177282,209.587157 C459.990055,199.952179 460.391102,188.440811 460.391102,175.042411 L460.391102,171.438606 L442.245502,171.438606 Z" id="Fill-4" fill="#231916" mask="url(#mask-2)"></path>
                <path d="M595.476014,146.464948 C594.684773,151.774224 593.351603,157.220749 591.502252,162.798656 C594.417905,167.3255 596.671069,171.16845 598.262915,174.359177 L598.262915,142.878899 L597.857931,142.878899 C596.799821,143.136972 596.009751,144.334668 595.476014,146.464948 L595.476014,146.464948 Z M574.798406,186.710342 C577.180323,179.805702 579.434657,171.040586 581.559069,160.411476 C579.434657,155.895189 577.180323,151.645187 574.798406,147.653259 L574.798406,186.710342 Z M598.262915,126.931127 L575.994632,126.931127 L575.600182,127.327622 C575.055911,127.604465 574.798406,128.664912 574.798406,130.526561 L574.798406,143.27422 C577.714059,145.930032 580.364014,148.723091 582.755294,151.645187 C583.278496,145.266079 583.407249,140.888213 583.150915,138.490475 C583.407249,136.639384 584.34714,135.835837 585.937815,136.103295 C590.434779,136.639384 594.546657,137.560238 598.262915,138.896355 L598.262915,126.931127 Z M557.701281,183.916109 C557.966979,183.916109 558.362599,183.788246 558.896336,183.520788 C559.419538,183.263887 559.815158,183.124293 560.082027,183.124293 L560.082027,171.564945 L546.966856,171.564945 L546.966856,189.899896 C548.290663,189.097522 550.67375,187.780174 554.123139,185.909141 C555.713815,185.116151 556.91004,184.452198 557.701281,183.916109 L557.701281,183.916109 Z M559.291956,153.240551 L546.966856,153.240551 L546.966856,165.185836 C549.081904,162.273124 550.544998,160.678934 551.345603,160.411476 C553.727519,160.946392 556.643172,162.937077 560.082027,166.384705 L560.082027,153.240551 L559.291956,153.240551 Z M539.414953,136.896285 C538.615519,138.757933 537.024843,141.68003 534.641757,145.6614 C533.584818,147.524222 532.783043,148.990549 532.25984,150.049824 L542.993094,150.049824 C543.250599,149.514907 543.784335,148.723091 544.58494,147.653259 C546.966856,144.205631 548.420586,142.473019 548.953152,142.473019 C553.460651,144.06721 557.167544,146.732406 560.082027,150.446318 L560.082027,136.896285 L539.414953,136.896285 Z M587.529661,181.530102 C587.529661,180.727728 587.390374,179.539417 587.123506,177.944053 C586.857808,176.617321 586.58977,175.547488 586.332265,174.754499 C582.35031,182.46034 578.515834,188.840622 574.798406,193.881267 L574.798406,209.819654 C575.055911,211.671918 574.403956,212.742923 572.813281,213.009208 C571.755172,213.267281 569.502008,213.663776 566.051448,214.208077 C564.994509,214.464977 564.192734,214.603398 563.669532,214.603398 C560.221313,214.861472 558.896336,213.267281 559.687577,209.819654 C559.953274,208.760379 560.082027,206.095183 560.082027,201.855739 L560.082027,187.502158 C550.27813,197.863811 543.646219,205.966146 540.206194,211.820896 C539.149255,214.999981 537.428657,215.792883 535.037377,214.208077 C534.503641,213.663776 533.7124,212.870787 532.655461,211.820896 C529.997313,209.423159 528.009846,207.432473 526.686039,205.838283 C524.302953,203.440545 524.432875,201.855739 527.080489,201.053365 C530.531049,198.666185 532.121724,195.209172 531.86422,190.692886 L531.86422,171.564945 L529.077319,171.564945 C526.686039,171.564945 524.698573,171.970824 523.118432,172.76264 C522.317827,172.76264 521.644804,172.496356 521.121602,171.970824 C520.587866,171.437081 520.192245,170.762571 519.934741,169.970754 L519.529756,169.177765 L519.134136,168.384775 C519.402175,168.117317 519.667872,167.978896 519.934741,167.978896 C524.164837,168.513812 527.882265,168.78127 531.064786,168.78127 L531.86422,168.78127 L531.86422,153.240551 L529.86739,153.240551 C528.543583,155.360273 526.290419,158.291754 523.118432,162.006839 C522.317827,163.332399 521.644804,164.26381 521.121602,164.789341 C520.330361,165.591715 519.796625,165.849789 519.529756,165.591715 C518.99602,165.325431 518.868438,164.660305 519.134136,163.60103 C526.023551,146.860269 529.206072,131.714872 528.682869,118.164839 C528.682869,116.312575 529.601692,115.648622 531.460406,116.174153 C535.699866,116.709069 540.869853,117.906765 546.966856,119.769587 C549.081904,121.097492 548.815036,122.553262 546.176786,124.147452 C544.318072,124.41491 543.250599,125.346321 542.993094,126.931127 C542.201853,129.327692 541.402419,131.587008 540.601814,133.706731 L545.781165,133.706731 C548.163082,128.664912 550.27813,125.881237 552.136844,125.346321 C554.528124,125.881237 557.167544,127.733501 560.082027,130.923056 C560.082027,129.862608 559.953274,128.268417 559.687577,126.138138 L559.687577,123.346251 C559.419538,121.750888 559.419538,120.700998 559.687577,120.166082 C560.221313,119.631166 561.15067,119.631166 562.474477,120.166082 C568.038914,121.492814 572.149622,122.682299 574.798406,123.750958 L595.080394,123.750958 C597.195442,119.502129 598.914869,117.371849 600.249211,117.371849 C606.347384,119.234671 611.911822,122.285804 616.942522,126.534633 C617.209391,127.327622 616.546902,128.397454 614.956227,129.724187 C613.898117,130.259103 613.364381,131.190514 613.364381,132.517246 L613.364381,201.459244 C613.364381,205.699862 612.039403,208.760379 609.391789,210.622028 C608.067982,211.949933 604.885461,213.137071 599.844226,214.208077 C596.671069,214.733608 595.080394,213.930061 595.080394,211.820896 C594.012921,207.828968 590.8304,204.768451 585.543365,202.648729 C583.942156,202.113812 583.278496,201.726702 583.546535,201.459244 C583.546535,200.658043 584.475892,200.389412 586.332265,200.658043 C587.657243,200.924328 590.178445,201.053365 593.884169,201.053365 C597.06669,201.320823 598.520419,199.726632 598.262915,196.26962 L598.262915,189.899896 C597.195442,190.959171 596.137333,191.623123 595.080394,191.890581 C590.8304,192.683571 588.319731,189.235943 587.529661,181.530102 L587.529661,181.530102 Z" id="Fill-5" fill="#231916" mask="url(#mask-2)"></path>
                <path d="M651.760672,169.126398 L666.840483,169.126398 L666.840483,160.030826 L651.760672,160.030826 L651.760672,169.126398 Z M651.367062,156.867908 L666.841651,156.867908 L666.841651,147.389621 L651.367062,147.389621 L651.367062,156.867908 Z M651.367062,144.225539 L666.841651,144.225539 L666.841651,134.747253 L651.367062,134.747253 L651.367062,144.225539 Z M687.069925,160.030826 L682.31624,160.030826 L682.31624,169.126398 L695.798252,169.126398 C698.972826,164.126684 701.222359,161.484908 702.543346,161.219683 C705.187657,161.750132 709.289608,164.519867 714.851537,169.519582 C715.898048,171.10046 715.503271,172.152051 713.659028,172.682501 C711.804273,172.417276 704.663233,172.29048 692.227732,172.29048 L682.711018,172.29048 C683.233106,173.606133 682.838328,174.656562 681.517341,175.442929 C680.450973,175.708154 679.928886,176.630623 679.928886,178.212664 L679.928886,182.16195 L700.166504,182.16195 C702.810814,177.416991 705.058011,174.656562 706.912766,173.860888 C710.088508,174.92295 713.914816,177.691521 718.412713,182.16195 C719.476744,182.957624 719.87269,183.742828 719.605222,184.538501 C719.083134,185.58893 718.284235,185.982114 717.22838,185.718052 L706.912766,185.718052 C698.440227,185.462134 692.365554,185.324869 688.656044,185.324869 L686.28037,185.324869 C694.742397,191.91593 705.187657,195.333604 717.623157,195.598829 L718.412713,195.598829 C719.476744,195.864053 720,196.256074 720,196.787686 C720,197.57289 719.476744,198.368564 718.412713,199.154931 C715.246315,201.002196 712.987438,204.026686 711.667619,208.240034 C711.400151,209.823238 710.216986,210.352524 708.106443,209.823238 C695.936074,207.189605 686.941447,199.026972 681.121395,185.324869 L679.928886,185.324869 L679.928886,195.598829 C679.928886,197.446094 680.066707,199.940135 680.323663,203.103054 L680.323663,209.036871 C680.856263,211.414585 679.662586,212.984993 676.753143,213.780667 C673.577401,214.567034 669.878403,214.960218 665.647974,214.960218 C663.528087,215.224279 662.738532,214.173851 663.260619,211.806605 C663.793219,207.061646 664.059519,201.002196 664.059519,193.624767 C654.542804,202.31785 642.766045,208.113238 628.751434,211.010932 C626.631547,211.010932 625.57686,210.873667 625.57686,210.617748 C625.57686,209.823238 626.365247,208.899605 627.953702,207.848013 C639.857771,201.787401 648.448276,194.282012 653.743905,185.324869 L642.638735,185.324869 C636.286083,185.324869 631.256754,185.718052 627.558924,186.512563 C627.026325,186.512563 626.365247,186.257808 625.57686,185.718052 C625.309392,185.462134 624.776792,184.666461 623.988404,183.350807 C623.723273,182.820358 623.455805,182.427175 623.198849,182.16195 C622.933717,181.640807 622.933717,181.375583 623.198849,181.375583 C623.198849,181.110358 623.593627,181.110358 624.383182,181.375583 C629.403167,181.906032 636.680861,182.16195 646.209255,182.16195 L664.455465,182.16195 L664.455465,172.29048 L652.15545,172.29048 L652.15545,173.075684 C652.68805,176.23744 651.49554,178.212664 648.586098,179.008338 C645.941788,179.538787 643.033513,179.93197 639.857771,180.186726 C636.680861,180.45195 635.35053,178.605848 635.892473,174.656562 C636.415729,169.126398 636.680861,160.561275 636.680861,148.970499 L636.680861,148.185295 C633.249331,150.816601 629.668299,152.919785 625.970469,154.500662 C625.182082,154.765887 624.510492,154.765887 623.988404,154.500662 C623.455805,153.980683 623.593627,153.450234 624.383182,152.919785 C633.377809,142.909886 639.591471,131.328416 643.033513,118.146292 C643.298645,116.309496 644.3545,115.652251 646.209255,116.172231 C647.530243,116.70268 649.513475,117.361088 652.15545,118.146292 C656.120748,119.208354 658.635412,119.993558 659.691268,120.524007 C661.012255,121.054456 661.683844,121.967619 661.683844,123.283272 C661.683844,124.080109 661.012255,124.610558 659.691268,124.865313 C657.580725,125.395762 655.993438,126.58462 654.936414,128.421416 C654.403815,129.747538 653.743905,130.797967 652.954349,131.584334 L670.400491,131.584334 C669.613272,130.797967 669.218494,129.60911 669.218494,128.028232 C668.428938,124.080109 666.702661,121.054456 664.059519,118.943129 C663.528087,118.411517 663.260619,117.891537 663.260619,117.361088 C663.528087,117.095864 664.059519,116.830639 664.858418,116.565415 C674.376301,116.309496 680.589963,118.411517 683.498237,122.891252 C684.554093,126.054171 683.765705,128.951865 681.121395,131.584334 L694.613919,131.584334 C697.780317,126.054171 700.166504,123.156476 701.754959,122.891252 C705.985388,124.737354 710.088508,127.773477 714.052637,131.977518 C715.108493,133.558396 714.851537,134.619294 713.253738,135.140437 C711.400151,134.884518 704.130633,134.747253 691.438177,134.747253 L682.31624,134.747253 L682.31624,144.225539 L690.640445,144.225539 C693.026632,140.022661 695.136007,137.507682 696.990762,136.721314 C699.900204,137.507682 703.598034,140.149457 708.106443,144.618723 C709.418086,146.200764 709.16113,147.261662 707.307543,147.781642 C705.719088,147.526886 699.239126,147.389621 687.868825,147.389621 L682.31624,147.389621 L682.31624,156.867908 L689.85089,156.867908 C692.492864,152.398642 694.613919,149.767336 696.201206,148.970499 C699.900204,150.296621 703.737024,153.05705 707.701153,157.270397 C708.757009,158.852438 708.501221,159.902867 706.912766,160.433316 C705.058011,160.168091 698.440227,160.030826 687.069925,160.030826 L687.069925,160.030826 Z" id="Fill-6" fill="#231916" mask="url(#mask-2)"></path>
                <path d="M772.469332,182.150037 L772.469332,168.995107 C765.581357,179.355758 756.059263,187.330363 743.892533,192.90719 C743.359632,193.174652 742.826732,193.303691 742.30318,193.303691 L742.30318,202.872513 L803.436003,202.872513 L803.436003,151.065737 L787.162665,151.065737 L787.162665,166.607887 C787.162665,173.254564 787.419767,180.029107 787.952667,186.933861 C788.220286,193.303691 786.897384,197.157262 783.985128,198.484017 C781.341661,199.820156 778.164123,200.751582 774.452517,201.278296 C771.285498,201.802663 769.559414,201.138699 769.302312,199.277019 C768.769412,195.561872 766.115426,193.045613 761.357885,191.708301 C759.2368,191.451396 758.437449,190.787432 758.97035,189.717582 C758.713249,188.65829 759.897083,188.261789 762.542888,188.519867 C770.219696,189.589717 773.525784,187.468786 772.469332,182.150037 M755.791644,147.87613 L772.469332,147.87613 L772.469332,147.0843 C772.469332,139.377158 772.075499,133.671292 771.285498,129.947933 C770.486147,127.024615 771.542599,125.826899 774.452517,126.351267 C779.752308,126.895576 784.50868,127.688579 788.742669,128.749044 C791.653756,130.086357 791.920206,131.809612 789.540852,133.92937 C787.952667,134.731757 787.162665,135.920088 787.162665,137.515478 L787.162665,145.885411 C789.797953,141.635339 791.791656,139.377158 793.11339,139.109695 C795.226294,139.109695 798.670282,141.240011 803.436003,145.490083 L803.436003,125.162936 L744.286365,125.162936 C742.954114,125.162936 742.30318,125.955938 742.30318,127.550155 L742.30318,190.51997 C753.681077,178.831391 761.487605,165.676461 765.720425,151.065737 L754.608979,151.065737 C751.164991,151.065737 748.785636,151.194776 747.465071,151.462238 C746.398101,151.729701 745.73665,151.600662 745.4702,151.065737 C745.214267,150.798274 744.809917,150.26335 744.286365,149.47152 C743.753465,148.94598 743.359632,148.540094 743.092013,148.282016 C742.826732,147.479628 743.220564,147.0843 744.286365,147.0843 C748.252736,147.619225 752.091724,147.87613 755.791644,147.87613 M818.919339,130.343261 L818.919339,159.833344 C818.919339,175.770823 819.314339,191.579262 820.11369,207.250451 C820.11369,210.173769 818.919339,212.035448 816.541152,212.827278 C814.418899,213.629665 811.774262,214.293629 808.596725,214.819169 C804.886287,215.354094 803.170721,213.758704 803.436003,210.043557 L803.436003,206.052735 L742.30318,206.052735 L742.30318,207.645779 C742.559113,210.847117 741.108828,212.827278 737.94064,213.629665 C734.763103,214.422668 732.237668,214.819169 730.392383,214.819169 C727.214846,215.620384 725.764561,213.758704 726.031011,209.242342 C727.075777,190.916471 727.608678,172.848678 727.608678,155.047174 L727.608678,138.317866 C727.608678,129.818894 727.214846,123.835008 726.426012,120.377938 C725.893112,117.466351 727.075777,116.396501 729.986864,117.189504 C735.810206,118.794279 740.713827,120.516362 744.681366,122.36983 L801.847819,122.36983 C804.226005,118.129142 806.080639,116 807.411722,116 C811.637531,116.534925 815.870352,118.525643 820.11369,121.973328 C822.491877,123.568719 822.619259,125.430398 820.507523,127.550155 C819.441721,128.352543 818.919339,129.283969 818.919339,130.343261" id="Fill-7" fill="#231916" mask="url(#mask-2)"></path>
                <path d="M925.163936,157.906165 C927.021193,158.695273 927.955114,159.48555 927.955114,160.285178 C928.223293,161.340829 927.289372,162.140458 925.163936,162.664192 C921.162424,164.787183 917.169146,168.626337 913.175868,174.183992 C911.577381,176.040441 909.838923,176.305815 907.981667,174.974269 C893.599985,164.124333 885.206455,145.724683 882.812841,119.782335 C882.535252,118.458972 882.664637,117.659343 883.210404,117.3928 C883.737352,116.869067 884.800658,116.869067 886.409732,117.3928 C889.865476,118.458972 892.129706,119.249249 893.193011,119.782335 C894.264551,120.571442 894.53273,121.361719 893.997548,122.161348 C893.46119,122.694434 892.794272,123.354946 892.001497,124.145223 C891.195784,124.944852 890.938191,125.873076 891.195784,126.919374 C897.056905,141.489222 908.378054,151.815424 925.163936,157.906165 M895.198472,203.177557 C895.198472,202.909845 895.059678,202.376759 894.791499,201.587651 L894.791499,201.192513 C875.613178,205.161432 861.102112,208.862638 851.23948,212.307823 C848.050738,214.686836 846.044102,214.55941 845.250151,211.912685 C843.114129,207.934414 841.386257,203.304983 840.055949,198.013871 C839.519591,195.890879 840.313542,194.697281 842.449563,194.440091 C846.978023,193.907005 850.305558,192.319437 852.44158,189.672712 C856.701861,181.726691 860.565754,169.416614 864.032084,152.743649 C864.826035,150.354114 866.285728,149.563837 868.422925,150.354114 C873.755922,151.420286 879.61469,153.276735 886.012168,155.911769 C887.333067,156.455377 887.997633,157.244484 887.997633,158.301304 C887.997633,159.356954 887.333067,160.156583 886.012168,160.680317 C884.671274,161.479946 882.942226,163.068682 880.817966,165.447695 C872.553822,178.684828 865.362393,188.873083 859.234269,196.020644 C865.888164,196.020644 877.072871,195.763453 892.794272,195.230367 C891.465139,191.261449 888.395197,186.098932 883.607968,179.741648 C883.07161,179.217914 882.664637,178.823945 882.405868,178.557402 C881.611917,177.500582 881.343738,176.711475 881.611917,176.167867 C882.137689,175.911846 882.942226,175.911846 884.005531,176.167867 C898.119034,180.936415 907.584103,187.688837 912.381918,196.425134 C915.301304,204.360634 913.573432,209.92881 907.17713,213.0981 C901.049007,215.219922 897.056905,211.912685 895.198472,203.177557 M856.036118,119.387196 C860.297575,120.177473 866.029311,121.894805 873.219564,124.540361 C874.549873,125.082799 875.344999,125.873076 875.613178,126.919374 C875.613178,127.985546 874.947436,128.912601 873.615951,129.71223 C872.016288,130.235964 870.687155,131.430731 869.623849,133.276658 C857.366427,155.25944 844.177435,170.74816 830.063932,179.741648 C828.464269,180.80782 827.530347,181.074363 827.272754,180.541277 C826.726987,179.741648 827.004575,178.823945 828.066705,177.756604 C838.715054,163.996907 846.978023,145.191597 852.839143,121.361719 C853.106146,119.782335 854.169452,119.120653 856.036118,119.387196" id="Fill-8" fill="#231916" mask="url(#mask-2)"></path>
                <path d="M976.761269,162.566142 L961.223482,162.566142 C960.956094,163.367468 960.828264,164.157079 960.828264,164.959576 L960.828264,184.458508 L976.761269,184.458508 L976.761269,162.566142 Z M1003.85535,128.742923 L961.223482,128.742923 C955.382005,128.742923 951.400513,129.010031 949.271969,129.544249 C948.737194,129.801985 948.082798,129.406008 947.280636,128.348117 C947.013249,128.079837 946.478474,127.417923 945.686867,126.349489 C946.220469,126.893078 946.082084,126.615426 945.290476,125.557535 C945.023089,125.03269 944.883532,124.637884 944.883532,124.361404 L946.082084,124.361404 C949.796189,125.161558 955.113445,125.557535 962.026817,125.557535 L1000.66664,125.557535 C1004.11219,120.522302 1006.63947,118 1008.23206,118 C1014.34327,120.384062 1019.52214,123.965427 1023.76985,128.742923 C1024.30463,130.336202 1023.90823,131.394093 1022.57247,131.928311 C1020.97753,133.254482 1020.18475,134.312372 1020.18475,135.113698 L1020.18475,157.391497 C1020.18475,174.901173 1020.58114,188.434678 1021.38447,197.98967 C1021.90869,204.619354 1019.91853,208.862632 1015.40227,210.721849 C1012.74833,212.315129 1009.15385,213.6413 1004.64696,214.699191 C1001.20142,215.500517 999.329704,214.699191 999.071699,212.315129 C998.536924,207.269353 995.884159,204.212833 991.109887,203.164314 C988.713955,202.09588 987.644406,201.433966 987.911793,201.176229 C987.911793,200.117167 989.367178,199.711818 992.299057,199.980098 C1001.06303,200.780253 1004.91552,198.525059 1003.85535,193.212174 L1003.85535,128.742923 Z M961.630426,158.587629 C962.154646,159.124189 962.551037,159.379583 962.818424,159.379583 L974.77111,159.379583 C977.692434,154.878567 979.682594,152.624545 980.752144,152.624545 C985.792631,154.216653 990.436727,157.133761 994.685607,161.378211 C994.685607,162.703211 994.289217,163.762273 993.49761,164.554227 C992.160673,165.88977 991.506277,166.947661 991.506277,167.748987 C991.506277,179.154995 991.636452,186.446593 991.902667,189.631981 C992.160673,192.55026 991.23889,194.270065 989.110345,194.805454 C986.456408,195.863345 983.396699,196.398733 979.949981,196.398733 C977.820264,196.664671 976.761269,195.863345 976.761269,194.004128 L976.761269,187.246747 L960.828264,187.246747 L960.828264,190.828112 C960.828264,195.071391 959.629712,197.456624 957.241989,197.98967 C956.441,197.98967 954.985615,198.25795 952.855898,198.781624 C950.727353,199.049904 949.271969,199.315841 948.479188,199.573577 C945.557864,199.850058 944.359312,198.385647 944.883532,195.200259 C945.418306,188.038701 945.686867,179.678669 945.686867,170.123677 C945.686867,162.170165 945.557864,157.391497 945.290476,155.799389 C945.023089,154.483762 945.152092,153.682436 945.686867,153.414156 C946.220469,153.158763 947.013249,153.158763 948.082798,153.414156 C950.993568,153.949545 955.509835,155.670521 961.630426,158.587629 L961.630426,158.587629 Z M947.686408,143.06721 L981.940141,143.06721 C984.595251,137.498932 986.851625,134.450613 988.713955,133.916396 C992.426887,134.975458 996.686321,138.031978 1001.4688,143.06721 C1002.26158,143.859164 1002.51959,144.66049 1002.26158,145.452444 C1001.9942,146.252598 1001.4688,146.519707 1000.66664,146.252598 C998.536924,145.985489 993.358052,145.985489 985.130026,146.252598 L979.147819,146.252598 L946.082084,146.252598 C942.100592,146.252598 939.57683,146.390838 938.516662,146.648575 C937.725055,147.182792 937.050723,147.04338 936.52533,146.252598 C936.259115,145.985489 935.862725,145.589512 935.32795,145.055295 C935.060563,144.264513 934.793176,143.730296 934.536343,143.463187 C934.001568,142.939513 933.862011,142.532993 934.13878,142.276428 C934.13878,142.009319 934.396785,142.009319 934.93156,142.276428 C938.913052,142.810645 943.161932,143.06721 947.686408,143.06721 L947.686408,143.06721 Z" id="Fill-9" fill="#231916" mask="url(#mask-2)"></path>
                <path d="M271.796086,247.43161 L262.677274,247.43161 C262.525553,243.043169 260.125488,240.834285 255.484248,240.834285 C250.833451,241.151013 248.442944,243.043169 248.292417,246.489638 C248.292417,249.313209 250.601688,251.28396 255.242928,252.384297 C255.726764,252.533276 256.119806,252.611871 256.442363,252.611871 C256.594084,252.611871 257.00863,252.701024 257.642992,252.850004 C268.043671,254.889966 273.148437,258.901853 272.996716,264.86455 C272.835437,273.978103 266.520484,278.684445 254.042298,279 C242.531784,279 236.852388,274.216235 237.002915,264.627591 L246.607952,264.627591 C246.607952,269.658872 249.089253,272.334637 254.042298,272.640807 C259.801736,272.491828 262.758511,270.600845 262.919789,266.984281 C262.919789,264.003519 260.125488,261.963557 254.526134,260.86322 C253.719741,260.714241 253.164226,260.546493 252.841669,260.388129 C243.086105,258.188629 238.214296,254.1873 238.214296,248.372409 C238.688575,239.418394 244.84225,234.633456 256.686073,234 C266.277968,234.475092 271.323002,238.951513 271.796086,247.43161" id="Fill-10" fill="#231916" mask="url(#mask-2)"></path>
                <polygon id="Fill-11" fill="#231916" mask="url(#mask-2)" points="278 278 288 278 288 235 278 235"></polygon>
                <polygon id="Fill-12" fill="#231916" mask="url(#mask-2)" points="334 278 320.684884 278 303.875581 242.202159 303.640698 242.435942 303.640698 278 295 278 295 235 308.775581 235 325.124419 268.931044 325.359302 268.705361 325.359302 235 334 235"></polygon>
                <path d="M362.114037,240.834285 C354.67975,240.834285 350.95847,246.174083 350.95847,256.860718 C350.95847,267.380777 354.67975,272.640807 362.114037,272.640807 C369.38879,272.640807 373.030894,267.380777 373.030894,256.860718 C373.030894,246.174083 369.38879,240.834285 362.114037,240.834285 M362.114037,279 C348.352748,278.684445 341.308433,271.312896 341,256.860718 C341.469148,241.933448 348.502828,234.326112 362.114037,234 C375.565713,234.326112 382.530852,241.933448 383,256.860718 C382.530852,271.312896 375.565713,278.684445 362.114037,279" id="Fill-13" fill="#231916" mask="url(#mask-2)"></path>
                <path d="M421.796155,247.43161 L412.677437,247.43161 C412.514965,243.043169 410.114925,240.834285 405.484484,240.834285 C400.833735,241.151013 398.4325,243.043169 398.28078,246.489638 C398.28078,249.313209 400.591222,251.28396 405.241972,252.384297 C405.716245,252.533276 406.11884,252.611871 406.442589,252.611871 C406.593114,252.611871 406.996904,252.701024 407.633649,252.850004 C418.033026,254.889966 423.147297,258.901853 422.996772,264.86455 C422.835495,273.978103 416.519412,278.684445 404.041354,279 C392.521401,279 386.842063,274.216235 387.00334,264.627591 L396.607084,264.627591 C396.607084,269.658872 399.077608,272.334637 404.041354,272.640807 C409.800734,272.491828 412.757478,270.600845 412.918755,266.984281 C412.918755,264.003519 410.114925,261.963557 404.515628,260.86322 C403.7188,260.714241 403.164485,260.546493 402.841932,260.388129 C393.086468,258.188629 388.203957,254.1873 388.203957,248.372409 C388.678231,239.418394 394.8414,234.633456 406.67435,234 C416.278094,234.475092 421.311129,238.951513 421.796155,247.43161" id="Fill-14" fill="#231916" mask="url(#mask-2)"></path>
                <polygon id="Fill-15" fill="#231916" mask="url(#mask-2)" points="426 242.203122 426 235 462 235 462 242.203122 448.793946 242.203122 448.793946 278 439.19769 278 439.19769 242.203122"></polygon>
                <polygon id="Fill-16" fill="#231916" mask="url(#mask-2)" points="465 278 465 235 494.294145 235 494.294145 242.202159 474.446688 242.202159 474.446688 252.199306 492.874201 252.199306 492.874201 259.402622 474.446688 259.402622 474.446688 270.788583 495 270.788583 495 278"></polygon>
                <polygon id="Fill-17" fill="#231916" mask="url(#mask-2)" points="502 278 502 235 531.284958 235 531.284958 242.202159 511.453134 242.202159 511.453134 252.199306 529.874868 252.199306 529.874868 259.402622 511.453134 259.402622 511.453134 270.788583 532 270.788583 532 278"></polygon>
                <polygon id="Fill-18" fill="#231916" mask="url(#mask-2)" points="568 278 540 278 540 235 549.181404 235 549.181404 270.788583 568 270.788583"></polygon>
                <path d="M625,249.085634 L614.97424,249.085634 C614.643851,243.745836 611.783252,240.992649 606.374619,240.834285 C601.125237,241.151013 598.335946,246.489638 598.024572,256.860718 C598.335946,267.073434 601.125237,272.333464 606.374619,272.640807 C611.944882,272.491828 614.814987,269.737468 614.97424,264.400016 L625,264.400016 C624.518678,273.978103 618.31616,278.852194 606.374619,279 C594.442585,278.683272 588.320881,271.312896 588,256.860718 C588.471814,242.10237 594.603026,234.475092 606.374619,234 C618.155719,234.167748 624.358237,239.189646 625,249.085634" id="Fill-19" fill="#231916" mask="url(#mask-2)"></path>
                <path d="M649.120506,240.834285 C641.677468,240.834285 637.967764,246.174083 637.967764,256.860718 C637.967764,267.380777 641.677468,272.640807 649.120506,272.640807 C656.392236,272.640807 660.033418,267.380777 660.033418,256.860718 C660.033418,246.174083 656.392236,240.834285 649.120506,240.834285 M649.120506,279 C635.353249,278.684445 628.320169,271.312896 628,256.860718 C628.470211,241.933448 635.50211,234.326112 649.120506,234 C662.558143,234.326112 669.521519,241.933448 670,256.860718 C669.521519,271.312896 662.558143,278.684445 649.120506,279" id="Fill-20" fill="#231916" mask="url(#mask-2)"></path>
                <path d="M686.402025,242.203122 L686.402025,253.587619 L694.143287,253.587619 C698.529105,253.587619 700.720845,251.584309 700.720845,247.547598 C700.720845,243.833777 698.529105,242.056143 694.143287,242.203122 L686.402025,242.203122 Z M686.402025,260.8 L686.402025,278 L677,278 L677,235 L695.556105,235 C705.422442,235.156237 710.429292,238.870058 710.588351,246.15072 C710.429292,251.730131 707.456292,255.219432 701.669351,256.61631 L701.669351,256.840829 C705.89611,257.311856 708.483158,260.487525 709.422308,266.380568 C709.570841,266.995102 709.649201,267.454555 709.649201,267.76703 C710.12287,272.878886 710.902961,276.28949 712,278 L701.90677,278 C700.958264,274.275764 700.406235,270.416122 700.257702,266.380568 C699.940754,262.656332 698.617991,260.8 696.267192,260.8 L686.402025,260.8 Z" id="Fill-21" fill="#231916" mask="url(#mask-2)"></path>
                <path d="M726.160989,242.206407 L726.160989,254.293442 L728.973819,254.293442 C735.233126,254.909076 738.283282,252.895535 738.135977,248.244717 C738.135977,244.062568 735.084652,242.059441 728.973819,242.206407 L726.160989,242.206407 Z M726.160989,278 L717,278 L717,235.003945 L730.384911,235.003945 C742.28157,234.84888 748.145725,239.264784 747.99725,248.244717 C747.671074,256.618272 742.676722,261.026076 732.972107,261.494746 L726.160989,261.494746 L726.160989,278 Z" id="Fill-22" fill="#231916" mask="url(#mask-2)"></path>
                <path d="M773.119325,240.834285 C765.677468,240.834285 761.966582,246.174083 761.966582,256.860718 C761.966582,267.380777 765.677468,272.640807 773.119325,272.640807 C780.392236,272.640807 784.033418,267.380777 784.033418,256.860718 C784.033418,246.174083 780.392236,240.834285 773.119325,240.834285 M773.119325,279 C759.353249,278.684445 752.320169,271.312896 752,256.860718 C752.46903,241.933448 759.511561,234.326112 773.119325,234 C786.558143,234.326112 793.521519,241.933448 794,256.860718 C793.521519,271.312896 786.558143,278.684445 773.119325,279" id="Fill-23" fill="#231916" mask="url(#mask-2)"></path>
                <path d="M809.401711,242.203122 L809.401711,253.587619 L817.154409,253.587619 C821.529555,253.587619 823.731747,251.584309 823.731747,247.547598 C823.731747,243.833777 821.529555,242.056143 817.154409,242.203122 L809.401711,242.203122 Z M809.401711,260.8 L809.401711,278 L800,278 L800,235 L818.556655,235 C828.422662,235.156237 833.438701,238.870058 833.587229,246.15072 C833.438701,251.730131 830.456444,255.219432 824.670866,256.61631 L824.670866,256.840829 C828.896314,257.311856 831.47392,260.487525 832.422394,266.380568 C832.570923,266.995102 832.64928,267.454555 832.64928,267.76703 C833.122932,272.878886 833.902997,276.28949 835,278 L824.896582,278 C823.958633,274.275764 823.406623,270.416122 823.258095,266.380568 C822.941157,262.656332 821.609082,260.8 819.268888,260.8 L809.401711,260.8 Z" id="Fill-24" fill="#231916" mask="url(#mask-2)"></path>
                <path d="M851.54902,261.728166 L863.987234,261.728166 L858.118565,243.366223 L857.882603,243.366223 L851.54902,261.728166 Z M845.91748,278 L837,278 L852.722987,235 L863.750104,235 L879,278 L869.609428,278 L866.335169,268.931288 L849.201085,268.931288 L845.91748,278 Z" id="Fill-25" fill="#231916" mask="url(#mask-2)"></path>
                <polygon id="Fill-26" fill="#231916" mask="url(#mask-2)" points="880 242.203122 880 235 916 235 916 242.203122 902.791994 242.203122 902.791994 278 893.197252 278 893.197252 242.203122"></polygon>
                <polygon id="Fill-27" fill="#231916" mask="url(#mask-2)" points="920 278 930 278 930 235 920 235"></polygon>
                <path d="M957.119325,240.834285 C949.677468,240.834285 945.966582,246.174083 945.966582,256.860718 C945.966582,267.380777 949.677468,272.640807 957.119325,272.640807 C964.391055,272.640807 968.032236,267.380777 968.032236,256.860718 C968.032236,246.174083 964.391055,240.834285 957.119325,240.834285 M957.119325,279 C943.352068,278.684445 936.318987,271.312896 936,256.860718 C936.478481,241.933448 943.511561,234.326112 957.119325,234 C970.556962,234.326112 977.520338,241.933448 978,256.860718 C977.520338,271.312896 970.556962,278.684445 957.119325,279" id="Fill-28" fill="#231916" mask="url(#mask-2)"></path>
                <polygon id="Fill-29" fill="#231916" mask="url(#mask-2)" points="1024 278 1010.68605 278 993.876744 242.202159 993.640698 242.435942 993.640698 278 985 278 985 235 998.776744 235 1015.12442 268.931044 1015.3593 268.705361 1015.3593 235 1024 235"></polygon>
                <path d="M88.2034256,224.096098 C43.3063766,228.7459 9,215.133893 9,190.688749 C9,166.275236 42.9796269,138.802858 87.8673067,125.932429 L87.8673067,131.443306 C61.9275963,142.146404 45.4320064,157.905826 45.4320064,172.793629 C45.4320064,191.717352 73.2209562,196.27929 88.2034256,196.635435 L88.2034256,224.096098 Z M140.87337,118 C179.452087,119.127012 201,131.730331 201,152.632769 C201,173.37705 175.772346,195.981721 140.87337,210.306018 L140.87337,185.515273 C156.46952,178.986336 182.724268,163.998953 182.873004,144.580844 C182.873004,129.958978 166.110393,120.789413 140.87337,120.808157 L140.87337,118 Z" id="Fill-30" fill="#E50113" mask="url(#mask-2)"></path>
                <path d="M108.740436,1.6386316 L108.740436,218.907782 L108.740436,220.813249 C109.357574,220.673366 109.974711,220.524079 110.582569,220.395951 L110.582569,218.321213 L110.582569,0.537198453 L108.740436,1.6386316 Z M105.390261,3.64401576 L105.390261,219.989232 L105.390261,221.537351 C106.007398,221.398643 106.624536,221.269339 107.232393,221.141211 L107.232393,219.394434 L107.232393,2.54140712 L105.390261,3.64401576 Z M102.041246,5.65762835 L102.041246,221.070682 L102.041246,222.213257 C102.667663,222.093357 103.275521,221.964053 103.882218,221.854733 L103.882218,220.474709 L103.882218,4.54679128 L102.041246,5.65762835 Z M98.6899103,7.66301251 L98.6899103,222.142727 L98.6899103,222.837441 C99.3174881,222.728121 99.9241854,222.619976 100.532043,222.500076 L100.532043,221.557334 L100.532043,6.56157935 L98.6899103,7.66301251 Z M95.3501753,9.67780058 L95.3501753,223.225353 L95.3501753,223.433414 C95.9673128,223.334673 96.5844504,223.225353 97.1911477,223.125436 L97.1911477,222.62938 L97.1911477,8.55638411 L95.3501753,9.67780058 Z M92,11.6831847 L92,224 C92.6264178,223.909487 93.2342751,223.801342 93.8421324,223.692022 L93.8421324,10.5723477 L92,11.6831847 Z M112.011729,0 L136.853836,11.5350731 C136.853836,78.5743838 136.981439,145.405633 137,212.515473 C129.95744,215.126234 121.846489,217.717012 112.011729,220.058586 L112.011729,0 Z" id="Fill-31" fill="#0068B6" mask="url(#mask-2)"></path>
                <path d="M199.464863,236.702399 L206.709205,236.702399 L206.709205,268.056205 L218,268.056205 L218,278.297601 L199.464863,278.297601 L199.464863,236.702399 Z M174.218365,236.702399 L193.621935,236.702399 L193.621935,245.588673 L181.472058,245.588673 L181.472058,252.202547 L192.733633,252.202547 L192.733633,260.679858 L181.472058,260.679858 L181.472058,268.875285 L193.966737,268.875285 L193.966737,278.297601 L174.218365,278.297601 L174.218365,236.702399 Z M148.991738,236.702399 L168.385957,236.702399 L168.385957,245.588673 L156.245431,245.588673 L156.245431,252.202547 L167.497654,252.202547 L167.497654,260.679858 L156.245431,260.679858 L156.245431,268.875285 L168.730759,268.875285 L168.730759,278.297601 L148.991738,278.297601 L148.991738,236.702399 Z M122.126426,236.702399 L144.125943,236.702399 L144.125943,246.983074 L136.74368,246.983074 L136.74368,278.297601 L129.508688,278.297601 L129.508688,246.983074 L122.126426,246.983074 L122.126426,236.702399 Z M97.2749889,264.533812 L104.16401,263.772494 C104.311281,265.76301 104.618681,267.26485 105.082702,268.318449 C105.822565,269.995889 106.887359,270.825367 108.279423,270.825367 C109.305646,270.825367 110.095768,270.406007 110.65797,269.547648 C111.220172,268.680046 111.497183,267.684211 111.497183,266.553209 C111.497183,265.479971 111.240042,264.514172 110.69771,263.655813 C110.174079,262.80785 108.930455,262.006099 106.986709,261.245936 C103.818039,259.977459 101.549361,258.300019 100.195868,256.203219 C98.8341939,254.105263 98.1527722,251.422745 98.1527722,248.174149 C98.1527722,246.027673 98.4987427,244.008275 99.1988655,242.117111 C99.9001571,240.21324 100.94625,238.721797 102.348834,237.628919 C103.749079,236.546439 105.664774,236 108.112282,236 C111.111472,236 113.391839,236.985438 114.961563,238.965557 C116.530119,240.936434 117.46868,244.086833 117.764392,248.39827 L110.944331,249.100669 C110.76667,247.237232 110.382129,245.871712 109.800057,245.022595 C109.216816,244.174633 108.417344,243.754117 107.39112,243.754117 C106.551908,243.754117 105.911395,244.057951 105.496464,244.701432 C105.072183,245.326429 104.854782,246.10623 104.854782,247.014266 C104.854782,247.666989 105.023092,248.251552 105.378413,248.799146 C105.723215,249.344429 106.522687,249.842347 107.806051,250.320625 C110.97472,251.530185 113.243399,252.768625 114.606242,253.997824 C115.977267,255.236264 116.97427,256.768142 117.597251,258.611939 C118.217894,260.446495 118.534644,262.494774 118.534644,264.76833 C118.534644,267.431208 118.110362,269.889605 117.281669,272.133124 C116.461158,274.396282 115.286495,276.093361 113.797419,277.263641 C112.306005,278.42468 110.431219,279 108.161372,279 C104.173361,279 101.410272,277.643723 99.8802872,274.912684 C98.3514715,272.201284 97.4830387,268.747051 97.2749889,264.533812 L97.2749889,264.533812 Z M76.0059835,257.588378 C76.0059835,261.783133 76.4501348,264.806453 77.3279182,266.641009 C78.2068703,268.47441 79.4014037,269.391687 80.9208688,269.391687 C82.4707232,269.391687 83.6746071,268.484807 84.52317,266.699927 C85.3717328,264.894253 85.8065336,261.665296 85.8065336,257.022299 C85.8065336,253.100185 85.3623822,250.242068 84.4740796,248.427151 C83.5857769,246.63303 82.3713736,245.735391 80.8519084,245.735391 C79.3920531,245.735391 78.2173897,246.642272 77.3384375,248.48607 C76.4501348,250.320625 76.0059835,253.354343 76.0059835,257.588378 L76.0059835,257.588378 Z M68.7616413,257.528304 C68.7616413,250.739985 69.8381239,245.452352 71.959531,241.678112 C74.100808,237.892319 77.0614274,236 80.861259,236 C84.7709597,236 87.7701501,237.863437 89.8833754,241.579915 C91.9849126,245.28715 93.0508758,250.49507 93.0508758,257.187502 C93.0508758,262.055775 92.577504,266.036807 91.658812,269.147927 C90.7412888,272.259047 89.4088348,274.678166 87.6719692,276.405282 C85.9245843,278.14164 83.752918,279 81.1581391,279 C78.513101,279 76.3215647,278.259477 74.5952186,276.776121 C72.8677036,275.263883 71.4651204,272.903683 70.3804561,269.674727 C69.3051423,266.435373 68.7616413,262.387335 68.7616413,257.528304 L68.7616413,257.528304 Z M40.8701056,236.702399 L47.6305566,236.702399 L56.4539737,259.714059 L56.4539737,236.702399 L63.2740345,236.702399 L63.2740345,278.297601 L56.4539737,278.297601 L47.679647,255.461541 L47.679647,278.297601 L40.8701056,278.297601 L40.8701056,236.702399 Z M26.7764821,278.297601 L34.0301748,278.297601 L34.0301748,236.702399 L26.7764821,236.702399 L26.7764821,278.297601 Z M0,264.533812 L6.88902114,263.772494 C7.02694182,265.76301 7.33317249,267.26485 7.79719376,268.318449 C8.5370564,269.995889 9.61237018,270.825367 10.9939146,270.825367 C12.0213068,270.825367 12.8207792,270.406007 13.3829813,269.547648 C13.9451834,268.680046 14.2221936,267.684211 14.2221936,266.553209 C14.2221936,265.479971 13.9557028,264.514172 13.4227212,263.655813 C12.8897396,262.80785 11.6554664,262.006099 9.71171983,261.245936 C6.53370006,259.977459 4.27320348,258.300019 2.92204833,256.203219 C1.55920499,254.105263 0.868432763,251.422745 0.868432763,248.174149 C0.868432763,246.027673 1.22375384,244.008275 1.92504544,242.117111 C2.62516822,240.21324 3.67126152,238.721797 5.07384472,237.628919 C6.47409028,236.546439 8.38861634,236 10.8267735,236 C13.8271327,236 16.1074992,236.985438 17.6760548,238.965557 C19.2551297,240.936434 20.1831722,244.086833 20.4894029,248.39827 L13.6599915,249.100669 C13.4811622,247.237232 13.0966206,245.871712 12.5145486,245.022595 C11.9324766,244.174633 11.1330041,243.754117 10.1161313,243.754117 C9.26756848,243.754117 8.63640604,244.057951 8.21212462,244.701432 C7.78667439,245.326429 7.57044281,246.10623 7.57044281,247.014266 C7.57044281,247.666989 7.74810335,248.251552 8.10342443,248.799146 C8.43887557,249.344429 9.24769855,249.842347 10.5310622,250.320625 C13.6985626,251.530185 15.960228,252.768625 17.3219025,253.997824 C18.6929276,255.236264 19.6899305,256.768142 20.3117423,258.611939 C20.9429048,260.446495 21.2596548,262.494774 21.2596548,264.76833 C21.2596548,267.431208 20.8342046,269.889605 20.0055117,272.133124 C19.1768188,274.396282 18.0115059,276.093361 16.5212613,277.263641 C15.0321854,278.42468 13.145711,279 10.8758639,279 C6.89954051,279 4.1352828,277.643723 2.60529829,274.912684 C1.06596323,272.201284 0.197530467,268.747051 0,264.533812 L0,264.533812 Z" id="Fill-32" fill="#231916" mask="url(#mask-2)"></path>
            </g>
        </g>
    </g>
</svg>