<?xml version="1.0" encoding="UTF-8"?>
<svg width="1024px" height="732px" viewBox="0 0 1024 732" version="1.1" xmlns="http://www.w3.org/2000/svg" xmlns:xlink="http://www.w3.org/1999/xlink">
    <title>中国旅游集团有限公司@2x</title>
    <defs>
        <path d="M93.0992136,10.862561 L65.5616183,62.3261698 L17.9284371,68.6811008 C6.6808137,70.0967053 -1.26165021,80.5005888 0.165905065,91.6941171 L0.165905065,91.6941171 L9.8203552,163.238804 C10.581838,168.791499 15.6583902,172.689358 21.2587994,171.897915 L21.2587994,171.897915 L109.788829,158.071038 C127.590965,155.770456 133.78904,148.552132 143.043846,131.40659 L143.043846,131.40659 L188.781421,50.3340032 C191.476314,45.324526 189.533903,39.1368774 184.604967,36.4423723 L184.604967,36.4423723 L120.996848,2.45527336 C117.914913,0.791443426 114.593552,0 111.313595,0 L111.313595,0 C103.970596,0 96.8364201,3.95361966 93.0992136,10.862561" id="path-1"></path>
        <radialGradient cx="69.0093994%" cy="80.4816474%" fx="69.0093994%" fy="80.4816474%" r="53.9624171%" gradientTransform="translate(0.690094,0.804816),scale(0.905263,1.000000),rotate(-131.938639),translate(-0.690094,-0.804816)" id="radialGradient-3">
            <stop stop-color="#F7E160" offset="0%"></stop>
            <stop stop-color="#F7E160" offset="20.97%"></stop>
            <stop stop-color="#F6D34D" offset="35.18%"></stop>
            <stop stop-color="#F5AB18" offset="76.61%"></stop>
            <stop stop-color="#F4A11A" offset="100%"></stop>
        </radialGradient>
        <path d="M81.605491,2.7639252 L14.5321957,65.6545215 C1.01351894,78.4871605 -2.70864756,90.7088075 1.85435889,108.816223 L1.85435889,108.816223 L29.5277788,215.268016 C30.9720664,220.781405 36.5661891,224.04967 42.0950742,222.693919 L42.0950742,222.693919 L110.685143,204.653386 C121.768284,201.853308 128.406208,190.450535 125.521257,179.450872 L125.521257,179.450872 L109.929475,118.792746 L145.5202,84.8790765 C153.843428,77.1314091 154.204047,63.9806204 146.279493,55.6761911 L146.279493,55.6761911 L96.2495161,3.15980461 C94.1999687,1.0574861 91.4726753,0 88.7363212,0 L88.7363212,0 C86.1848068,0 83.6296682,0.91829562 81.605491,2.7639252" id="path-4"></path>
        <radialGradient cx="13.5905743%" cy="35.7725349%" fx="13.5905743%" fy="35.7725349%" r="57.7423758%" gradientTransform="translate(0.135906,0.357725),scale(1.000000,0.681614),rotate(32.944519),translate(-0.135906,-0.357725)" id="radialGradient-6">
            <stop stop-color="#F19A86" offset="0%"></stop>
            <stop stop-color="#F19A86" offset="20.97%"></stop>
            <stop stop-color="#EB5852" offset="50.54%"></stop>
            <stop stop-color="#E62328" offset="76.24%"></stop>
            <stop stop-color="#DE2322" offset="100%"></stop>
        </radialGradient>
        <path d="M97.4205833,6.31838419 L5.31642014,60.027374 C0.375620748,62.8278766 -1.45504121,69.0100495 1.2520976,74.1352235 L1.2520976,74.1352235 L35.0786825,136.183972 C40.5760899,146.209117 53.1431414,149.906798 63.1566635,144.541892 L63.1566635,144.541892 L120.434877,112.935442 L177.872122,144.541892 C187.88203,149.906798 200.405709,146.209117 205.870588,136.183972 L205.870588,136.183972 L239.769459,74.1352235 C242.445876,69.0100495 240.613407,62.8278766 235.659958,60.027374 L235.659958,60.027374 L143.528687,6.31838419 C135.768704,2.10673345 128.140645,0 120.50355,0 L120.50355,0 C112.866455,0 105.218516,2.10673345 97.4205833,6.31838419" id="path-7"></path>
        <radialGradient cx="51.8188779%" cy="-56.1458182%" fx="51.8188779%" fy="-56.1458182%" r="155.77903%" gradientTransform="translate(0.518189,-0.561458),scale(0.609959,1.000000),rotate(90.000000),translate(-0.518189,0.561458)" id="radialGradient-9">
            <stop stop-color="#BAD5EF" offset="0%"></stop>
            <stop stop-color="#BAD5EF" offset="30.99%"></stop>
            <stop stop-color="#5A90C8" offset="61.36%"></stop>
            <stop stop-color="#3071B7" offset="76.24%"></stop>
            <stop stop-color="#2761AC" offset="100%"></stop>
        </radialGradient>
        <path d="M55.7921578,3.15980461 L5.70254635,55.6761911 C-2.21673831,63.9806204 -1.81796453,77.1314091 6.46384174,84.8790765 L6.46384174,84.8790765 L42.0290247,118.792746 L26.4242818,179.450872 C23.5077954,190.450535 30.2670109,201.853308 41.3909867,204.653386 L41.3909867,204.653386 L109.882195,222.693919 C115.475904,224.04967 121.046048,220.781405 122.483447,215.268016 L122.483447,215.268016 L150.122094,108.816223 C154.726119,90.7088075 151.004835,78.4871605 137.403024,65.6545215 L137.403024,65.6545215 L70.3165863,2.7639252 C68.3480939,0.91829562 65.7923165,0 63.2437896,0 L63.2437896,0 C60.508564,0 57.7805888,1.0574861 55.7921578,3.15980461" id="path-10"></path>
        <radialGradient cx="76.842862%" cy="35.3889989%" fx="76.842862%" fy="35.3889989%" r="56.0093298%" gradientTransform="translate(0.768429,0.353890),scale(1.000000,0.681614),rotate(144.074256),translate(-0.768429,-0.353890)" id="radialGradient-12">
            <stop stop-color="#7EBF58" offset="0%"></stop>
            <stop stop-color="#7EBF58" offset="20.97%"></stop>
            <stop stop-color="#5BB431" offset="76.61%"></stop>
            <stop stop-color="#4CA635" offset="100%"></stop>
        </radialGradient>
        <path d="M68.9280992,2.45527336 L5.41520009,36.4423723 C0.416849811,39.1368774 -1.4161187,45.324526 1.16588213,50.3340032 L1.16588213,50.3340032 L46.9090698,131.40659 C56.2125553,148.552132 62.4514904,155.770456 80.2950247,158.071038 L80.2950247,158.071038 L168.754661,171.897915 C174.320187,172.689358 179.599425,168.791499 180.274634,163.238804 L180.274634,163.238804 L189.815794,91.6941171 C191.330063,80.5005888 183.337384,70.0967053 172.130708,68.6811008 L172.130708,68.6811008 L124.478929,62.3261698 L96.9015754,10.862561 C93.192425,3.95361966 86.1036263,0 78.7213366,0 L78.7213366,0 C75.4227135,0 72.0682731,0.791443426 68.9280992,2.45527336" id="path-13"></path>
        <radialGradient cx="36.2093846%" cy="74.2185233%" fx="36.2093846%" fy="74.2185233%" r="45.2389919%" gradientTransform="translate(0.362094,0.742185),scale(0.905263,1.000000),rotate(-49.262228),translate(-0.362094,-0.742185)" id="radialGradient-15">
            <stop stop-color="#F1BD4C" offset="0%"></stop>
            <stop stop-color="#F1BD4C" offset="20.97%"></stop>
            <stop stop-color="#F0AD41" offset="33.47%"></stop>
            <stop stop-color="#ED781E" offset="76.61%"></stop>
            <stop stop-color="#EC6C1F" offset="100%"></stop>
        </radialGradient>
    </defs>
    <g id="页面-1" stroke="none" stroke-width="1" fill="none" fill-rule="evenodd">
        <g id="51.中国旅游集团有限公司" transform="translate(0.000000, -18.000000)">
            <g id="中国旅游集团有限公司" transform="translate(0.000000, 18.000000)">
                <path d="M81.5729491,576.176394 L122.857726,576.176394 L122.857726,519.627454 L81.5729491,519.627454 L81.5729491,576.176394 Z M20.1440863,576.176394 L61.4288629,576.176394 L61.4288629,519.627454 L20.1440863,519.627454 L20.1440863,576.176394 Z M81.5729491,506.671268 L81.5729491,481 L61.4288629,481 L61.4288629,506.671268 L20.1440863,506.671268 L0,506.671268 L0,589.13258 L20.1440863,589.13258 L61.4288629,589.13258 L61.4288629,629 L81.5729491,629 L81.5729491,589.13258 L122.857726,589.13258 L143,589.13258 L143,506.671268 L122.857726,506.671268 L81.5729491,506.671268 Z" id="Fill-1" fill="#666464"></path>
                <path d="M850.475113,592.010112 L850.475113,579.153608 L783.157466,579.153608 L783.157466,571 L763.034389,571 L763.034389,579.153608 L695.718552,579.153608 L695.718552,592.010112 L743.955656,592.010112 C734.956561,597.623364 712.943891,610.632794 693,616.742602 L698.049774,627.166698 C698.049774,627.166698 738.742986,619.365717 763.034389,601.329549 L763.034389,629 L783.157466,629 L783.157466,598.929524 C793.716742,607.72002 813.142986,620.178919 844.067873,627.166698 L853,609.022582 C832.701357,606.568584 812.047964,598.623674 797.631674,592.010112 L850.475113,592.010112 Z" id="Fill-2" fill="#666464"></path>
                <polygon id="Fill-4" fill="#666464" points="291 592.064569 254.06186 592.064569 254.06186 558.136667 286.856136 558.136667 286.856136 545.199426 254.06186 545.199426 254.06186 523.935431 288.927163 523.935431 288.927163 511 199.071027 511 199.071027 523.935431 233.93633 523.935431 233.93633 545.199426 201.143864 545.199426 201.143864 558.136667 233.93633 558.136667 233.93633 592.064569 197 592.064569 197 605 291 605"></polygon>
                <path d="M190.119053,615.076608 L297.882757,615.076608 L297.882757,498.923392 L190.119053,498.923392 L190.119053,615.076608 Z M306.504433,486 L297.882757,486 L190.119053,486 L181.497377,486 C175.146945,486 170,491.142595 170,497.487661 L170,616.512339 C170,622.857405 175.146945,628 181.497377,628 L190.119053,628 L297.882757,628 L306.504433,628 C312.853055,628 318,622.857405 318,616.512339 L318,497.487661 C318,491.142595 312.853055,486 306.504433,486 L306.504433,486 Z" id="Fill-6" fill="#666464"></path>
                <path d="M896.117489,615.076608 L1003.88251,615.076608 L1003.88251,498.923392 L896.117489,498.923392 L896.117489,615.076608 Z M1012.50429,486 L1003.88251,486 L896.117489,486 L887.495708,486 C881.147008,486 876,491.142595 876,497.487661 L876,616.512339 C876,622.857405 881.147008,628 887.495708,628 L896.117489,628 L1003.88251,628 L1012.50429,628 C1018.85299,628 1024,622.857405 1024,616.512339 L1024,497.487661 C1024,491.142595 1018.85299,486 1012.50429,486 L1012.50429,486 Z" id="Fill-8" fill="#666464"></path>
                <path d="M257,566.838069 C257,566.838069 263.651064,574.967975 270.696049,588 L287,576.774019 C277.478419,566.064051 266,560 266,560 L257,566.838069 Z" id="Fill-9" fill="#666464"></path>
                <path d="M487.583421,548.283868 C487.583421,548.283868 479.397251,558.085695 469.102162,568.583147 C464.707672,559.451715 460.590001,549.316493 457.331923,538.377517 L457.331923,538.373913 C484.478322,535.946433 495.26877,531.915051 495.26877,531.915051 L489.797967,514 C489.797967,514 440.822994,527.532252 412.818823,527.532252 L412.818823,611.717313 L408,613.759135 L417.379039,630 C417.379039,630 444.339678,620.848745 462.704383,601.773117 C462.445776,600.872048 456.974974,593.007519 456.974974,593.007519 L433.064798,603.139137 L433.064798,539.83004 C437.426507,539.682264 441.513218,539.485831 445.359535,539.25696 C447.869111,553.582153 458.322641,604.263671 484.327165,630 C495.26877,622.272434 501,617.628325 501,617.628325 C501,617.628325 487.561567,602.975143 474.512866,579.11484 C479.621255,576.793686 492.169134,570.585322 501,561.945874 C496.439784,557.307171 487.583421,548.283868 487.583421,548.283868" id="Fill-10" fill="#666464"></path>
                <path d="M556,502.035161 C556,502.035161 546.418162,489.685347 529.484414,481 L520,486.983319 C520,486.983319 528.70863,497.210369 541.581237,514 L556,502.035161 Z" id="Fill-11" fill="#666464"></path>
                <path d="M553,541.035161 C553,541.035161 543.416358,528.685347 526.484414,520 L517,525.983319 C517,525.983319 525.70863,536.210369 538.579433,553 L553,541.035161 Z" id="Fill-12" fill="#666464"></path>
                <path d="M391.669352,542.443868 L383.056889,542.443868 L372.52452,542.443868 L372.52452,520.164081 L400.782581,520.164081 L408.010252,526.773612 C417.13252,521.342609 424.179409,514.104891 429.414861,507.227431 L498,507.227431 L498,494.28897 L437.703723,494.28897 C440.382915,489.267102 441.628504,485.858242 441.628504,485.858242 L421.328474,480 C416.76734,495.96353 408.679146,507.54605 403.61363,513.66136 L403.61363,507.227431 L375.995538,507.227431 L388.230875,499.004891 C378.938671,487.025908 367.451772,480 367.451772,480 L357.960708,487.053063 C357.960708,487.053063 363.445639,494.761467 369.516305,507.227431 L343.362548,507.227431 L343.362548,520.164081 L352.426966,520.164081 L352.426966,551.260197 C352.426966,607.434876 340,625.044 340,625.044 L348.793245,631 C348.793245,631 371.485023,615.423882 372.486556,555.380518 L383.056889,555.380518 L383.056889,613.894149 C383.056889,615.481813 381.771528,616.768961 380.186068,616.768961 L367.67775,616.768961 L370.17616,629.705611 L383.056889,629.705611 L391.669352,629.705611 C398.01119,629.705611 403.154443,624.55702 403.154443,618.206366 L403.154443,553.946733 C403.154443,547.592459 398.01119,542.443868 391.669352,542.443868" id="Fill-13" fill="#666464"></path>
                <path d="M538.108364,565 C530.181808,597.896644 518,622.279642 518,622.279642 L538.881554,629 C546.809913,602.311857 550,568.520358 550,568.520358 L538.108364,565 Z" id="Fill-14" fill="#666464"></path>
                <path d="M642.282449,484.403631 L622.169189,480 C618.825091,492.736489 614.969013,503.70392 611.724066,511.948053 L611.724066,506.655367 L587.028219,506.655367 L599.025508,501.433298 C599.025508,501.433298 590.579633,486.152771 578.524656,480 L568.337327,486.0224 C568.337327,486.0224 576.17207,498.604979 579.197082,506.655367 L553.286183,506.655367 L553.286183,519.596465 L561.030789,519.596465 L561.030789,550.190112 C561.030789,608.855096 547,623.813318 547,623.813318 L554.930289,631 C554.930289,631 579.633347,614.471898 581.008843,555.365103 L588.461404,555.365103 L588.461404,615.185315 C588.461404,616.773302 587.17965,618.058902 585.59864,618.058902 L574.978651,618.058902 C574.978651,618.058902 576.611941,625.823199 577.702603,631 L597.049696,631 C603.373737,631 608.500752,625.850359 608.500752,619.4966 L608.500752,555.365103 L608.500752,553.927404 C608.500752,547.575456 603.373737,542.425815 597.049696,542.425815 L581.070137,542.425815 L581.070137,519.596465 L608.576468,519.596465 C606.209459,525.084707 604.632055,528.175578 604.632055,528.175578 L614.689587,533.743492 C615.83974,532.642584 616.94843,531.494598 618.021065,530.31583 L618.021065,541.084084 L647.240007,541.084084 L645.574268,543.485077 L637.162645,555.627655 L637.162645,567.370067 L613.142829,567.370067 L613.142829,580.311165 L637.162645,580.311165 L637.162645,615.185315 C637.162645,616.773302 635.880891,618.058902 634.298078,618.058902 L616.683426,618.058902 L619.286594,631 L645.749134,631 C652.073175,631 657.20019,625.850359 657.20019,619.4966 L657.20019,618.564088 L657.20019,618.058902 L657.20019,580.311165 L674,580.311165 L674,567.370067 L657.20019,567.370067 L657.20019,561.94701 L671.651019,541.084084 L671.656427,541.084084 C671.656427,533.935426 665.889436,528.142986 658.770384,528.142986 L619.930175,528.142986 C624.357725,522.897377 628.060569,517.132097 631.103608,511.556941 L674,511.556941 L674,498.617654 L637.278021,498.617654 C640.703242,490.360846 642.282449,484.403631 642.282449,484.403631" id="Fill-15" fill="#666464"></path>
                <path d="M731.320234,515.605931 L772.856077,515.605931 L772.856077,508.793858 L731.320234,508.793858 L731.320234,515.605931 Z M731.320234,535.348999 L772.856077,535.348999 L772.856077,528.538735 L731.320234,528.538735 L731.320234,535.348999 Z M731.320234,555.093876 L772.856077,555.093876 L772.856077,548.281803 L731.320234,548.281803 L731.320234,555.093876 Z M711.263284,527.315313 L711.263284,573 L731.323843,573 L731.323843,568.02668 L850,568.02668 L850,555.093876 L792.916637,555.093876 L792.916637,548.281803 L841.096627,548.281803 L841.096627,535.348999 L792.916637,535.348999 L792.916637,528.538735 L841.096627,528.538735 L841.096627,515.605931 L792.916637,515.605931 L792.916637,508.793858 L845.355232,508.793858 L845.355232,495.859245 L788.033676,495.859245 L794.537073,491.551929 C794.537073,491.551929 784.374162,482.911962 774.406138,480.582754 L764.919913,486.502598 L772.818183,495.859245 L739.824815,495.859245 C741.797127,492.938233 743.695454,489.886917 745.463858,486.698056 L725.5242,480 C725.5242,480 714.392276,503.395236 693,526.209528 L700.358727,535.721817 C700.358727,535.721817 704.826654,532.770039 711.263284,527.315313 L711.263284,527.315313 Z" id="Fill-16" fill="#666464"></path>
                <path d="M901,590.716719 L907.299562,599.965768 C907.299562,599.965768 937.930821,588.888038 963.756508,552.29437 L963.756508,593.984304 L931.473051,593.984304 L933.853365,607 L963.756508,607 L972.323121,607 C978.629874,607 983.742874,601.81995 983.742874,595.430492 L983.742874,535.455563 L997,535.455563 L997,522.439867 L983.742874,522.439867 L983.742874,505 L963.756508,505 L963.756508,522.439867 L904.358328,522.439867 L904.358328,535.455563 L951.484587,535.455563 C945.567961,544.926823 927.46571,571.697702 901,590.716719" id="Fill-17" fill="#666464"></path>
                <path d="M53,728.150727 C50.3297124,729.300487 48.001207,730.089713 46.0199669,730.516613 C44.0368991,730.945306 41.7851576,731.298665 39.2647424,731.580275 C36.7443272,731.860092 34.2604662,732 31.8076764,732 C21.1228705,732 13.148562,729.042195 7.89023381,723.122996 C2.62825022,717.203798 0,709.663098 0,700.500897 C0,691.284885 2.62276709,683.729835 7.87012897,677.837542 C13.1156631,671.947043 21.3568177,669 32.5935927,669 C39.2300159,669 45.8408511,669.769496 52.4224429,671.313868 L52.4224429,681.082339 C49.2550176,680.00074 46.666977,679.20972 44.6564936,678.712866 C42.6441824,678.210631 40.7378785,677.837542 38.9339265,677.5936 C37.1299745,677.353244 35.3333333,677.229479 33.5421753,677.229479 C26.5201048,677.229479 21.4262708,679.448282 18.2588454,683.878712 C15.0914201,688.31273 13.5086213,693.799647 13.5086213,700.33767 C13.5086213,707.20394 15.3052624,712.759018 18.8985447,717.00111 C22.4936547,721.243202 27.8433685,723.366939 34.947686,723.366939 C40.8694738,723.366939 46.8863025,721.894314 53,718.947271 L53,728.150727 Z" id="Fill-18" fill="#666464"></path>
                <polygon id="Fill-19" fill="#666464" points="64 730 64 670 76.5400829 670 76.5400829 694.365191 101.459917 694.365191 101.459917 670 114 670 114 730 101.459917 730 101.459917 702.635796 76.5400829 702.635796 76.5400829 730"></polygon>
                <polygon id="Fill-20" fill="#666464" points="129 730 142 730 142 670 129 670"></polygon>
                <polygon id="Fill-21" fill="#666464" points="157 730 157 670 168.059691 670 195.940493 710.985322 195.940493 670 206 670 206 730 194.747481 730 167.061309 689.012885 167.061309 730"></polygon>
                <path d="M233.364132,705.998924 L251.914085,705.998924 L242.642682,682.080356 L233.364132,705.998924 Z M215,730 L238.274098,670 L250.741982,670 L274,730 L261.219436,730 L255.010508,713.986129 L230.265922,713.986129 L224.053421,730 L215,730 Z" id="Fill-22" fill="#666464"></path>
                <polygon id="Fill-23" fill="#666464" points="323.308053 730 323.308053 678.270605 302 678.270605 302 670 357 670 357 678.270605 335.691947 678.270605 335.691947 730"></polygon>
                <path d="M394.021016,723.770521 C399.912724,723.770521 404.298612,721.41181 407.17685,716.690801 C410.053261,711.969792 411.493294,706.567178 411.493294,700.481166 C411.493294,694.364661 410.047779,688.963841 407.154921,684.271531 C404.26389,679.575634 399.885313,677.229479 394.021016,677.229479 C388.12748,677.229479 383.73611,679.575634 380.845079,684.271531 C377.954048,688.963841 376.508533,694.364661 376.508533,700.481166 C376.508533,706.567178 377.946739,711.969792 380.82315,716.690801 C383.701388,721.41181 388.100068,723.770521 394.021016,723.770521 M394.021016,732 C387.659652,732 382.126124,730.708539 377.416777,728.129203 C372.707431,725.548074 369.12745,721.831535 366.678663,716.979586 C364.226221,712.129431 363,706.635339 363,700.499103 C363,694.391567 364.226221,688.906443 366.678663,684.041938 C369.12745,679.17564 372.720223,675.45372 377.458809,672.870797 C382.193739,670.291461 387.714475,669 394.021016,669 C400.300144,669 405.806261,670.291461 410.543019,672.870797 C415.27795,675.45372 418.87255,679.17564 421.323164,684.041938 C423.773779,688.906443 425,694.391567 425,700.499103 C425,706.635339 423.773779,712.129431 421.323164,716.979586 C418.87255,721.831535 415.299879,725.548074 410.605152,728.129203 C405.908598,730.708539 400.380552,732 394.021016,732" id="Fill-24" fill="#666464"></path>
                <path d="M435,670 L447.721901,670 L447.721901,707.098375 C447.721901,713.807041 448.871459,718.251757 451.172403,720.432525 C453.469692,722.613294 456.45233,723.703678 460.114834,723.703678 C463.72251,723.703678 466.593664,722.62776 468.728297,720.472307 C470.861103,718.318663 471.928419,714.159652 471.928419,707.998892 L471.928419,670 L483,670 L483,707.150815 C483,714.154228 482.111788,719.173973 480.335364,722.211859 C478.55894,725.251553 475.989339,727.64208 472.630216,729.385248 C469.271094,731.130224 465.016448,732 459.866281,732 C454.800183,732 450.450503,731.189897 446.813585,729.567883 C443.178495,727.947677 440.30003,725.537259 438.180018,722.334821 C436.060006,719.134191 435,714.033074 435,707.029661 L435,670 Z" id="Fill-25" fill="#666464"></path>
                <path d="M507.817329,697.242235 L510.705408,697.242235 C515.884842,697.242235 519.459787,696.121192 521.437454,693.877313 C523.413319,691.635228 524.401251,689.0936 524.401251,686.256016 C524.401251,683.796897 523.597204,681.845386 521.990912,680.397895 C520.382818,678.952199 517.116152,678.22935 512.187307,678.22935 L507.817329,678.22935 L507.817329,697.242235 Z M496,730 L496,670 L518.572811,670 C523.191575,670 526.710633,670.573974 529.128182,671.721922 C531.545732,672.871663 533.453091,674.615109 534.853863,676.950465 C536.25103,679.289408 536.952318,681.933276 536.952318,684.876685 C536.952318,688.390482 535.931935,691.708768 533.894776,694.829751 C531.85401,697.952528 528.97855,700.338106 525.255776,701.986488 L545,730 L529.712288,730 L514.71663,705.471585 L507.817329,705.471585 L507.817329,730 L496,730 Z" id="Fill-26" fill="#666464"></path>
                <polygon id="Fill-27" fill="#666464" points="554 730 567 730 567 670 554 670"></polygon>
                <path d="M579.123227,729.973123 L579.123227,719.673718 C583.85295,721.639609 587.390276,722.816274 589.729768,723.198332 C592.067448,723.582183 594.220287,723.770521 596.184663,723.770521 C599.727425,723.770521 602.369547,722.986675 604.11284,721.415397 C605.856133,719.847707 606.727779,717.969706 606.727779,715.777809 C606.727779,714.09891 606.240309,712.586823 605.263558,711.232583 C604.286807,709.907041 601.896575,708.18868 598.094674,706.081086 L594.002829,703.847934 C588.160442,700.628249 584.208133,697.652507 582.140464,694.922501 C580.047425,692.192495 579,689.026621 579,685.428466 C579,680.911938 580.745105,677.044729 584.233503,673.826837 C587.721901,670.608946 592.736133,669 599.272575,669 C604.154519,669 609.658033,669.688779 615.781304,671.066338 L615.781304,680.678758 C609.514873,678.379239 604.536884,677.229479 600.850961,677.229479 C597.801105,677.229479 595.47611,677.885972 593.883227,679.195371 C592.290343,680.51015 591.492994,682.085016 591.492994,683.923554 C591.492994,685.329812 591.980464,686.642798 592.955403,687.860718 C593.901348,689.076844 596.275271,690.741395 600.077171,692.850782 L604.457149,695.245366 C611.156685,698.951143 615.426122,702.167241 617.272707,704.899041 C619.090298,707.652365 620,710.742904 620,714.172451 C620,719.090767 618.104486,723.28981 614.317083,726.774962 C610.527867,730.258321 604.500641,732 596.233591,732 C591.329901,732 585.625238,731.32557 579.123227,729.973123" id="Fill-28" fill="#666464"></path>
                <polygon id="Fill-29" fill="#666464" points="631 730 631 670 647.39279 670 661.784809 712.203223 676.590165 670 691 670 691 730 679.56549 730 679.56549 684.715255 664.998872 725.987564 655.028862 725.987564 640.745524 684.107202 640.745524 730"></polygon>
                <path d="M781,729.081656 C775.715099,730.461008 771.866544,731.29149 769.450792,731.574894 C767.033269,731.858298 764.479372,732 761.783789,732 C750.682664,732 742.610085,729.02067 737.567822,723.062011 C732.522017,717.101557 730,709.553683 730,700.420181 C730,694.445378 731.108696,689.073257 733.322545,684.303818 C735.538165,679.534379 738.89436,675.789141 743.391131,673.073485 C747.887901,670.357828 753.978643,669 761.665127,669 C768.149048,669 774.579837,669.769496 780.959265,671.310281 L780.959265,681.080546 C775.594666,679.215101 771.739026,678.108391 769.390575,677.756826 C767.042124,677.405262 764.801709,677.229479 762.664016,677.229479 C755.724927,677.229479 750.728712,679.498505 747.675372,684.041938 C744.618489,688.581784 743.090047,694.079464 743.090047,700.540358 C743.090047,707.594966 744.891235,713.202061 748.49361,717.365231 C752.097757,721.5284 757.168357,723.609088 763.70541,723.609088 C765.118732,723.609088 766.774691,723.4064 768.669746,723.001025 L768.669746,703.257808 L781,703.257808 L781,729.081656 Z" id="Fill-30" fill="#666464"></path>
                <path d="M806.817329,697.242235 L809.707211,697.242235 C814.886645,697.242235 818.463392,696.121192 820.439257,693.877313 C822.413319,691.635228 823.401251,689.0936 823.401251,686.256016 C823.401251,683.796897 822.599007,681.845386 820.990912,680.397895 C819.384621,678.952199 816.116152,678.22935 811.18911,678.22935 L806.817329,678.22935 L806.817329,697.242235 Z M795,730 L795,670 L817.574614,670 C822.191575,670 825.70883,670.573974 828.128182,671.721922 C830.545732,672.871663 832.453091,674.615109 833.85206,676.950465 C835.249227,679.289408 835.952318,681.933276 835.952318,684.876685 C835.952318,688.390482 834.933738,691.708768 832.896578,694.829751 C830.857616,697.952528 827.97855,700.338106 824.257579,701.986488 L844,730 L828.714091,730 L813.71663,705.471585 L806.817329,705.471585 L806.817329,730 L795,730 Z" id="Fill-31" fill="#666464"></path>
                <path d="M880.02193,723.770521 C885.913812,723.770521 890.299829,721.41181 893.178152,716.690801 C896.052821,711.969792 897.494724,706.567178 897.494724,700.481166 C897.494724,694.364661 896.049166,688.963841 893.156222,684.271531 C890.265106,679.575634 885.8864,677.229479 880.02193,677.229479 C874.12822,677.229479 869.736721,679.575634 866.843778,684.271531 C863.954489,688.963841 862.507104,694.364661 862.507104,700.481166 C862.507104,706.567178 863.945352,711.969792 866.823675,716.690801 C869.703826,721.41181 874.100808,723.770521 880.02193,723.770521 M880.02193,732 C873.662206,732 868.12486,730.708539 863.415375,728.129203 C858.707717,725.548074 855.127631,721.831535 852.676944,716.979586 C850.226257,712.129431 849,706.635339 849,700.499103 C849,694.391567 850.226257,688.906443 852.676944,684.041938 C855.127631,679.17564 858.720509,675.45372 863.459235,672.870797 C868.194305,670.291461 873.715204,669 880.02193,669 C886.301244,669 891.807522,670.291461 896.54442,672.870797 C901.279491,675.45372 904.874197,679.17564 907.323056,684.041938 C909.77557,688.906443 911,694.391567 911,700.499103 C911,706.635339 909.77557,712.129431 907.323056,716.979586 C904.874197,721.831535 901.303248,725.548074 896.604728,728.129203 C891.909863,730.708539 886.381654,732 880.02193,732" id="Fill-32" fill="#666464"></path>
                <path d="M921,670 L933.723728,670 L933.723728,707.098375 C933.723728,713.807041 934.873287,718.251757 937.172403,720.432525 C939.469692,722.613294 942.45233,723.703678 946.114834,723.703678 C949.72251,723.703678 952.593664,722.62776 954.728297,720.472307 C956.861103,718.318663 957.928419,714.159652 957.928419,707.998892 L957.928419,670 L969,670 L969,707.150815 C969,714.154228 968.111788,719.173973 966.335364,722.211859 C964.55894,725.251553 961.991167,727.64208 958.632044,729.385248 C955.271094,731.130224 951.016448,732 945.866281,732 C940.800183,732 936.450503,731.189897 932.813585,729.567883 C929.180323,727.947677 926.30003,725.537259 924.180018,722.334821 C922.060006,719.134191 921,714.033074 921,707.029661 L921,670 Z" id="Fill-33" fill="#666464"></path>
                <path d="M995.345214,698.257451 L997.712616,698.257451 C1002.34071,698.257451 1005.73899,697.156139 1007.90926,694.953514 C1010.07772,692.750889 1011.16467,690.162626 1011.16467,687.190517 C1011.16467,685.515231 1010.82285,683.9942 1010.13921,682.629219 C1009.45558,681.264237 1008.39757,680.18983 1006.96339,679.405997 C1005.53101,678.622164 1003.23414,678.231144 1000.08002,678.231144 L995.345214,678.231144 L995.345214,698.257451 Z M983,730 L983,670 L1003.80203,670 C1009.84985,670 1014.10176,670.629578 1016.5614,671.885145 C1019.02104,673.142507 1020.87481,674.918239 1022.12633,677.217721 C1023.37424,679.513617 1024,682.406804 1024,685.891902 C1024,692.596634 1021.86952,697.703208 1017.60856,701.21521 C1013.34579,704.7308 1007.63436,706.486802 1000.47609,706.486802 L995.345214,706.486802 L995.345214,730 L983,730 Z" id="Fill-34" fill="#666464"></path>
                <g id="编组" transform="translate(345.000000, 0.000000)">
                    <mask id="mask-2" fill="white">
                        <use xlink:href="#path-1"></use>
                    </mask>
                    <g id="Clip-36"></g>
                    <path d="M93.0992136,10.862561 L65.5616183,62.3261698 L17.9284371,68.6811008 C6.6808137,70.0967053 -1.26165021,80.5005888 0.165905065,91.6941171 L0.165905065,91.6941171 L9.8203552,163.238804 C10.581838,168.791499 15.6583902,172.689358 21.2587994,171.897915 L21.2587994,171.897915 L109.788829,158.071038 C127.590965,155.770456 133.78904,148.552132 143.043846,131.40659 L143.043846,131.40659 L188.781421,50.3340032 C191.476314,45.324526 189.533903,39.1368774 184.604967,36.4423723 L184.604967,36.4423723 L120.996848,2.45527336 C117.914913,0.791443426 114.593552,0 111.313595,0 L111.313595,0 C103.970596,0 96.8364201,3.95361966 93.0992136,10.862561" id="Fill-35" fill="url(#radialGradient-3)" fill-rule="nonzero" mask="url(#mask-2)"></path>
                </g>
                <g id="编组" transform="translate(565.000000, 132.000000)">
                    <mask id="mask-5" fill="white">
                        <use xlink:href="#path-4"></use>
                    </mask>
                    <g id="Clip-38"></g>
                    <path d="M81.605491,2.7639252 L14.5321957,65.6545215 C1.01351894,78.4871605 -2.70864756,90.7088075 1.85435889,108.816223 L1.85435889,108.816223 L29.5277788,215.268016 C30.9720664,220.781405 36.5661891,224.04967 42.0950742,222.693919 L42.0950742,222.693919 L110.685143,204.653386 C121.768284,201.853308 128.406208,190.450535 125.521257,179.450872 L125.521257,179.450872 L109.929475,118.792746 L145.5202,84.8790765 C153.843428,77.1314091 154.204047,63.9806204 146.279493,55.6761911 L146.279493,55.6761911 L96.2495161,3.15980461 C94.1999687,1.0574861 91.4726753,0 88.7363212,0 L88.7363212,0 C86.1848068,0 83.6296682,0.91829562 81.605491,2.7639252" id="Fill-37" fill="url(#radialGradient-6)" fill-rule="nonzero" mask="url(#mask-5)"></path>
                </g>
                <g id="编组" transform="translate(392.000000, 267.000000)">
                    <mask id="mask-8" fill="white">
                        <use xlink:href="#path-7"></use>
                    </mask>
                    <g id="Clip-40"></g>
                    <path d="M97.4205833,6.31838419 L5.31642014,60.027374 C0.375620748,62.8278766 -1.45504121,69.0100495 1.2520976,74.1352235 L1.2520976,74.1352235 L35.0786825,136.183972 C40.5760899,146.209117 53.1431414,149.906798 63.1566635,144.541892 L63.1566635,144.541892 L120.434877,112.935442 L177.872122,144.541892 C187.88203,149.906798 200.405709,146.209117 205.870588,136.183972 L205.870588,136.183972 L239.769459,74.1352235 C242.445876,69.0100495 240.613407,62.8278766 235.659958,60.027374 L235.659958,60.027374 L143.528687,6.31838419 C135.768704,2.10673345 128.140645,0 120.50355,0 L120.50355,0 C112.866455,0 105.218516,2.10673345 97.4205833,6.31838419" id="Fill-39" fill="url(#radialGradient-9)" fill-rule="nonzero" mask="url(#mask-8)"></path>
                </g>
                <g id="编组" transform="translate(307.000000, 132.000000)">
                    <mask id="mask-11" fill="white">
                        <use xlink:href="#path-10"></use>
                    </mask>
                    <g id="Clip-42"></g>
                    <path d="M55.7921578,3.15980461 L5.70254635,55.6761911 C-2.21673831,63.9806204 -1.81796453,77.1314091 6.46384174,84.8790765 L6.46384174,84.8790765 L42.0290247,118.792746 L26.4242818,179.450872 C23.5077954,190.450535 30.2670109,201.853308 41.3909867,204.653386 L41.3909867,204.653386 L109.882195,222.693919 C115.475904,224.04967 121.046048,220.781405 122.483447,215.268016 L122.483447,215.268016 L150.122094,108.816223 C154.726119,90.7088075 151.004835,78.4871605 137.403024,65.6545215 L137.403024,65.6545215 L70.3165863,2.7639252 C68.3480939,0.91829562 65.7923165,0 63.2437896,0 L63.2437896,0 C60.508564,0 57.7805888,1.0574861 55.7921578,3.15980461" id="Fill-41" fill="url(#radialGradient-12)" fill-rule="nonzero" mask="url(#mask-11)"></path>
                </g>
                <g id="编组" transform="translate(353.000000, 132.000000)">
                    <path d="M44.9156397,195.074873 C39.9874021,197.862277 38.159592,204.015535 40.8616506,209.116737 L45.5176994,217.580178 L64.6952851,222.694034 C70.2598312,224.049775 75.7955363,220.779728 77.2249775,215.26638 L89.0426532,169.474863 L44.9156397,195.074873 Z" id="Fill-43" fill="#006736"></path>
                    <path d="M25.3495993,2.76442284 C21.2902025,-1.0623828 14.7252277,-0.903309158 10.9037706,3.16210694 L0,14.667831 L2.23158671,31.0198782 C2.98866783,36.6001092 8.07553188,40.5191052 13.6851424,39.7219294 L57.4155896,32.865494 L25.3495993,2.76442284 Z" id="Fill-45" fill="#379B38"></path>
                    <path d="M274.673535,195.074873 L230.512272,169.474863 L242.369605,215.26638 C243.806256,220.779728 249.370802,224.049775 254.870456,222.694034 L274.116539,217.580178 L278.772588,209.116737 C281.4422,204.015535 279.61439,197.862277 274.673535,195.074873" id="Fill-47" fill="#004695"></path>
                </g>
                <g id="编组" transform="translate(489.000000, 0.000000)">
                    <mask id="mask-14" fill="white">
                        <use xlink:href="#path-13"></use>
                    </mask>
                    <g id="Clip-50"></g>
                    <path d="M68.9280992,2.45527336 L5.41520009,36.4423723 C0.416849811,39.1368774 -1.4161187,45.324526 1.16588213,50.3340032 L1.16588213,50.3340032 L46.9090698,131.40659 C56.2125553,148.552132 62.4514904,155.770456 80.2950247,158.071038 L80.2950247,158.071038 L168.754661,171.897915 C174.320187,172.689358 179.599425,168.791499 180.274634,163.238804 L180.274634,163.238804 L189.815794,91.6941171 C191.330063,80.5005888 183.337384,70.0967053 172.130708,68.6811008 L172.130708,68.6811008 L124.478929,62.3261698 L96.9015754,10.862561 C93.192425,3.95361966 86.1036263,0 78.7213366,0 L78.7213366,0 C75.4227135,0 72.0682731,0.791443426 68.9280992,2.45527336" id="Fill-49" fill="url(#radialGradient-15)" fill-rule="nonzero" mask="url(#mask-14)"></path>
                </g>
                <g id="编组" transform="translate(489.000000, 27.000000)">
                    <path d="M1.16919229,23.2774763 L22.8535964,61.5633911 L44.5795347,23.2774763 C47.2864735,18.2656656 45.3361774,12.0751346 40.3918154,9.37577514 L22.8535964,0 L5.43456226,9.37577514 C0.417967094,12.0751346 -1.42036764,18.2656656 1.16919229,23.2774763" id="Fill-51" fill="#E4590D"></path>
                    <path d="M157.530577,108.105207 L125.448204,138.071696 L169.248606,144.897476 C174.830426,145.691088 180.126925,141.789613 180.804111,136.234332 L183,119.955395 L172.123487,108.501113 C168.177749,104.453873 161.711073,104.295511 157.530577,108.105207" id="Fill-53" fill="#BC3120"></path>
                </g>
            </g>
        </g>
    </g>
</svg>