<?xml version="1.0" encoding="UTF-8"?>
<svg width="1024px" height="364px" viewBox="0 0 1024 364" version="1.1" xmlns="http://www.w3.org/2000/svg" xmlns:xlink="http://www.w3.org/1999/xlink">
    <title>中国物流集团有限公司@2x</title>
    <g id="页面-1" stroke="none" stroke-width="1" fill="none" fill-rule="evenodd">
        <g id="96.中国物流集团有限公司" transform="translate(0.000000, -202.000000)">
            <g id="中国物流集团有限公司" transform="translate(0.000000, 202.000000)">
                <path d="M283.830811,215.213929 C280.192986,244.245358 265.641685,272.551 241.632038,292.873 C190.702483,335.694357 114.308152,329.162286 71.3818131,277.6315 C28.4554744,226.826501 35.00356,150.619001 86.6606794,107.797644 C108.487631,89.6530013 136.135104,79.4920013 164.510141,79.4920013 C168.147966,79.4920013 171.785792,79.4920013 175.423617,80.217787 C182.699268,80.9435728 189.974918,82.3951442 197.250569,83.8467156 L231.446127,51.1863586 C215.439695,43.9285015 197.250569,39.5737872 179.061442,37.3964301 C133.952408,34.4932873 91.7536348,47.5574301 58.285642,75.8630728 C-10.833039,133.92593 -19.5638197,236.987501 37.9138202,305.937143 C69.926683,344.403786 116.490847,364 163.055011,364 C200.160829,364 237.266647,351.661643 267.82438,326.259143 C312.933414,288.518286 332.577671,231.907001 324.574455,177.473072 L287.468637,212.310786 C286.741072,213.036572 285.285942,214.488144 283.830811,215.213929" id="路径" fill="#0080CB"></path>
                <path d="M283.275416,0 L52.0508309,219 L98.5865965,219 C105.130688,219 111.674781,216.089701 116.76463,211.724252 L281.821173,55.2956811 C297.817843,40.744186 298.544964,16.0066445 283.275416,0" id="路径" fill="#45B035"></path>
                <path d="M311.279733,55 L137.13392,219 L183.767108,219 C190.3249,219 196.882693,216.097345 201.983198,211.743363 L309.822446,110.150442 C325.852604,95.6371681 326.581248,70.9646018 311.279733,55" id="路径" fill="#45B035"></path>
                <path d="M339.349807,109 L223.217986,219 L269.670714,219 C274.751482,219 279.106425,217.543046 283.461368,215.357616 C284.913016,214.629139 286.364664,213.172185 287.816311,211.715232 L337.898159,164.364238 C353.866284,149.794702 354.592108,125.02649 339.349807,109" id="路径" fill="#45B035"></path>
                <path d="M490.154723,295.096386 C487.955392,297.26506 485.756061,299.433735 482.82362,300.156627 C480.624289,301.60241 477.691848,301.60241 474.759407,301.60241 C468.894525,301.60241 464.495863,299.433735 460.830311,295.819277 C457.16476,292.204819 454.965429,287.144578 454.965429,280.638554 C454.965429,274.13253 457.16476,269.795181 460.830311,265.457831 C464.495863,261.843373 468.894525,259.674699 474.759407,259.674699 C477.691848,259.674699 479.891179,260.39759 482.82362,261.120482 C485.022951,261.843373 487.222282,264.012048 489.421613,266.180723 L490.154723,266.903614 L496.019605,260.39759 L495.286495,259.674699 C492.354054,256.783133 489.421613,254.614458 485.756061,253.168675 C482.09051,251.722892 478.424958,251 474.759407,251 C466.695194,251 459.364091,253.891566 453.499208,259.674699 C447.634326,265.457831 445.434995,272.686747 445.434995,281.361446 C445.434995,290.036145 448.367436,297.26506 453.499208,302.325301 C459.364091,308.108434 465.962083,311 474.759407,311 C479.158069,311 482.82362,310.277108 486.489172,308.831325 C490.154723,307.385542 493.820275,304.493976 496.752716,301.60241 L497.485826,300.879518 L490.154723,295.096386 L490.154723,295.096386 Z" id="路径" fill="#231916"></path>
                <path d="M523.391124,270.059524 C521.229013,270.059524 518.346197,270.785714 516.184086,271.511905 C514.742678,272.238095 513.301271,273.690476 511.859863,274.416667 L511.859863,249 L502.490714,249 L502.490714,309.27381 L511.859863,309.27381 L511.859863,284.583333 C513.301271,282.404762 514.742678,280.952381 516.184086,280.22619 C517.625494,279.5 519.787605,278.77381 521.229013,278.77381 C523.391124,278.77381 525.553236,279.5 526.994643,280.952381 C528.436051,282.404762 529.156755,284.583333 529.156755,288.214286 L529.156755,310 L538.525904,310 L538.525904,287.488095 C538.525904,282.404762 537.084497,278.047619 534.922385,275.142857 C532.03957,271.511905 528.436051,270.059524 523.391124,270.059524" id="路径" fill="#231916"></path>
                <polygon id="路径" fill="#231916" points="549.536657 310 558.545455 310 558.545455 271 549.536657 271"></polygon>
                <path d="M550.037146,255.661538 C548.535679,257.138462 548.535679,257.876923 548.535679,260.092308 C548.535679,261.569231 549.286413,263.046154 550.037146,264.523077 C551.538612,266 552.289345,266 554.541544,266 C556.043011,266 557.544477,265.261538 559.045943,264.523077 C560.54741,263.046154 560.54741,262.307692 560.54741,260.092308 C560.54741,258.615385 559.796676,257.138462 559.045943,255.661538 C556.043011,253.446154 552.289345,253.446154 550.037146,255.661538" id="路径" fill="#231916"></path>
                <path d="M590.736891,270 C588.57478,270 585.691965,270.719298 583.529853,272.157895 C582.088446,272.877193 580.647038,274.315789 579.20563,275.754386 L578.484927,271.438596 L570.557185,271.438596 L570.557185,310.280702 L579.926334,310.280702 L579.926334,285.824561 C581.367742,283.666667 582.80915,282.22807 584.250557,281.508772 C585.691965,280.789474 587.854076,280.070175 589.295484,280.070175 C591.457595,280.070175 593.619707,280.789474 595.061114,282.22807 C596.502522,283.666667 597.223226,285.824561 597.223226,289.421053 L597.223226,311 L606.592375,311 L606.592375,288.701754 C606.592375,283.666667 605.150968,279.350877 602.988856,276.473684 C599.385337,271.438596 595.061114,270 590.736891,270" id="路径" fill="#231916"></path>
                <path d="M641.07049,281.714286 C643.239274,283.910714 643.962203,286.839286 643.962203,290.5 C643.962203,294.160714 643.239274,296.357143 641.07049,299.285714 C638.901705,301.482143 636.732921,302.946429 633.11828,302.946429 C630.226567,302.946429 627.334854,301.482143 625.166069,299.285714 C622.997285,297.089286 622.274356,294.160714 622.274356,290.5 C622.274356,286.839286 622.997285,283.910714 625.166069,281.714286 C627.334854,279.517857 629.503639,278.053571 633.11828,278.053571 C636.009992,278.785714 638.901705,279.517857 641.07049,281.714286 L641.07049,281.714286 Z M643.962203,275.125 C642.516346,273.660714 641.07049,272.928571 639.624633,271.464286 C637.455849,270 634.564136,270 632.395351,270 C627.334854,270 622.274356,272.196429 618.659715,275.857143 C615.045074,279.517857 613.599218,284.642857 613.599218,290.5 C613.599218,296.357143 615.768003,301.482143 618.659715,305.142857 C622.274356,308.803571 626.611926,311 632.395351,311 C635.287064,311 637.455849,310.267857 639.624633,309.535714 C641.07049,308.803571 642.516346,307.339286 643.962203,305.875 L644.685131,310.267857 L652.637341,310.267857 L652.637341,270.732143 L644.685131,270.732143 L643.962203,275.125 Z" id="形状" fill="#231916"></path>
                <polygon id="路径" fill="#231916" points="693.805204 251 683.667644 251 683.667644 310 717.70088 310 717.70088 301.259259 693.805204 301.259259"></polygon>
                <path d="M734.163385,281.714286 C736.361961,279.517857 738.560536,278.053571 742.224829,278.053571 C745.156263,278.053571 748.087697,279.517857 750.286273,281.714286 C752.484848,283.910714 753.217707,286.839286 753.217707,290.5 C753.217707,294.160714 752.484848,296.357143 750.286273,299.285714 C748.087697,301.482143 745.889122,302.946429 742.224829,302.946429 C739.293395,302.946429 736.361961,301.482143 734.163385,299.285714 C731.964809,297.089286 731.231951,294.160714 731.231951,290.5 C731.231951,286.839286 731.964809,284.642857 734.163385,281.714286 M742.224829,270 C736.361961,270 731.231951,272.196429 727.567658,275.857143 C723.903365,279.517857 721.70479,284.642857 721.70479,290.5 C721.70479,296.357143 723.903365,301.482143 727.567658,305.142857 C731.231951,308.803571 736.361961,311 742.224829,311 C748.087697,311 753.217707,308.803571 756.882,305.142857 C760.546292,301.482143 762.744868,296.357143 762.744868,290.5 C762.744868,284.642857 760.546292,279.517857 756.882,275.857143 C752.484848,272.196429 748.087697,270 742.224829,270" id="形状" fill="#231916"></path>
                <path d="M820.301075,255.661538 C818.799609,257.138462 818.799609,257.876923 818.799609,260.092308 C818.799609,261.569231 819.550342,263.046154 820.301075,264.523077 C821.802542,266 822.553275,266 824.805474,266 C826.30694,266 827.808407,265.261538 829.309873,264.523077 C830.811339,263.046154 830.811339,262.307692 830.811339,260.092308 C830.811339,258.615385 830.060606,257.138462 829.309873,255.661538 C826.30694,253.446154 822.553275,253.446154 820.301075,255.661538" id="路径" fill="#231916"></path>
                <polygon id="路径" fill="#231916" points="819.800587 310 828.809384 310 828.809384 271 819.800587 271"></polygon>
                <path d="M855.025462,286.107143 C852.070195,285.375 849.853745,284.642857 848.376111,283.910714 C847.637295,283.178571 846.898478,282.446429 846.898478,281.714286 C846.898478,280.982143 847.637295,280.25 848.376111,279.517857 C849.853745,278.053571 853.547829,278.053571 856.503095,279.517857 C857.980729,280.25 859.458362,280.982143 860.935996,281.714286 L861.674813,282.446429 L866.84653,275.857143 L866.107713,275.125 C863.891263,273.660714 862.413629,272.196429 859.458362,271.464286 C857.241912,270.732143 855.025462,270 852.070195,270 C847.637295,270 844.682028,270.732143 841.726761,272.928571 C838.771494,275.125 838.032677,278.053571 838.032677,280.982143 C838.032677,283.910714 838.771494,286.839286 840.987944,289.035714 C843.204394,291.232143 846.159661,292.696429 850.592562,294.160714 C853.547829,294.892857 855.764279,295.625 856.503095,296.357143 C857.241912,297.089286 857.980729,297.821429 857.980729,298.553571 C857.980729,300.017857 857.241912,300.75 856.503095,301.482143 C854.286645,302.946429 849.853745,302.946429 846.898478,301.482143 C845.420844,300.75 843.204394,299.285714 841.726761,297.821429 L840.987944,297.089286 L835.816227,303.678571 L835.816227,305.142857 C838.032677,307.339286 840.249127,308.803571 843.204394,309.535714 C846.159661,310.267857 848.376111,311 851.331378,311 C855.764279,311 859.458362,309.535714 862.413629,308.071429 C865.368896,305.875 866.84653,302.946429 866.84653,299.285714 C866.84653,296.357143 866.107713,293.428571 863.891263,291.964286 C861.674813,289.035714 858.719546,287.571429 855.025462,286.107143" id="路径" fill="#231916"></path>
                <path d="M898.010297,300.342857 C897.276246,301.071429 896.542196,301.8 895.074096,302.528571 C892.871945,303.985714 890.669795,303.257143 889.201694,301.8 C888.467644,301.071429 887.733594,298.885714 887.733594,297.428571 L887.733594,280.671429 L900.946497,280.671429 L900.946497,271.928571 L887.733594,271.928571 L887.733594,261 L879.659042,261 L878.924992,271.928571 L870.85044,272.657143 L870.85044,280.671429 L878.924992,280.671429 L878.924992,297.428571 C878.924992,301.8 880.393092,305.442857 882.595243,308.357143 C884.797393,311.271429 888.467644,312 892.137895,312 C894.340046,312 896.542196,311.271429 898.010297,310.542857 C900.212447,309.814286 901.680547,308.357143 903.148648,306.9 L903.882698,306.171429 L898.744347,299.614286 L898.010297,300.342857 Z" id="路径" fill="#231916"></path>
                <path d="M909.388074,255.661538 C907.886608,257.138462 907.886608,257.876923 907.886608,260.092308 C907.886608,261.569231 908.637341,263.046154 909.388074,264.523077 C910.889541,266 911.640274,266 913.892473,266 C915.393939,266 916.895406,265.261538 918.396872,264.523077 C919.898338,263.046154 919.898338,262.307692 919.898338,260.092308 C919.898338,258.615385 919.147605,257.138462 918.396872,255.661538 C915.393939,253.446154 911.640274,253.446154 909.388074,255.661538" id="路径" fill="#231916"></path>
                <polygon id="路径" fill="#231916" points="908.887586 310 917.896383 310 917.896383 271 908.887586 271"></polygon>
                <path d="M956.679355,299.017857 C955.226956,300.482143 953.774558,301.214286 952.322159,301.946429 C950.86976,302.678571 949.417361,302.678571 947.238763,302.678571 C944.333966,302.678571 941.429168,301.214286 939.25057,299.017857 C937.071972,296.821429 936.345773,293.892857 936.345773,290.232143 C936.345773,286.571429 937.071972,283.642857 939.25057,281.446429 C941.429168,279.25 943.607766,277.785714 947.238763,277.785714 C948.691162,277.785714 950.143561,277.785714 951.59596,278.517857 C953.048358,279.25 954.500757,279.982143 955.953156,281.446429 L956.679355,282.178571 L962.48895,275.589286 L961.762751,274.857143 C959.584153,272.660714 957.405555,271.928571 955.226956,270.464286 C953.048358,269.732143 950.143561,269 947.238763,269 C941.429168,269 936.345773,271.196429 932.714776,274.857143 C929.083779,278.517857 926.905181,283.642857 926.905181,289.5 C926.905181,295.357143 929.083779,300.482143 932.714776,304.142857 C936.345773,307.803571 941.429168,310 947.238763,310 C950.143561,310 953.048358,309.267857 955.953156,308.535714 C958.131754,307.803571 961.036551,305.607143 963.21515,303.410714 L963.941349,302.678571 L956.679355,299.017857 L956.679355,299.017857 Z" id="路径" fill="#231916"></path>
                <path d="M993.365432,291.363636 C991.200527,289.181818 988.313988,287.727273 984.705813,287 C981.819273,286.272727 979.654368,285.545455 978.211098,284.818182 C977.489463,284.090909 976.767828,283.363636 976.767828,282.636364 C976.767828,281.909091 977.489463,281.181818 978.211098,280.454545 C979.654368,279 983.262543,279 986.149083,280.454545 C987.592353,281.181818 989.035623,281.909091 990.478892,282.636364 L991.200527,283.363636 L996.251972,276.818182 L995.530337,276.090909 C993.365432,274.636364 991.922162,273.181818 989.035623,272.454545 C986.870718,271.727273 984.705813,271 981.819273,271 C977.489463,271 974.602923,271.727273 971.716384,273.909091 C968.829844,276.090909 968.108209,279 968.108209,281.909091 C968.108209,284.818182 968.829844,287.727273 970.994749,289.909091 C973.159654,292.090909 976.046193,293.545455 980.376003,295 C983.262543,295.727273 985.427448,296.454545 986.149083,297.181818 C986.870718,297.909091 987.592353,298.636364 987.592353,299.363636 C987.592353,300.818182 986.870718,301.545455 986.149083,302.272727 C983.984178,303.727273 979.654368,303.727273 976.767828,302.272727 C975.324558,301.545455 973.159654,300.090909 971.716384,298.636364 L970.994749,297.909091 L965.943304,304.454545 L966.664939,305.181818 C968.829844,307.363636 970.994749,308.818182 973.881289,309.545455 C976.767828,310.272727 978.932733,311 981.819273,311 C986.149083,311 989.757257,309.545455 992.643797,308.090909 C995.530337,305.909091 996.973607,303 996.973607,299.363636 C996.251972,295.727273 995.530337,292.818182 993.365432,291.363636" id="路径" fill="#231916"></path>
                <path d="M797.222983,298.915663 C795.054198,301.084337 792.885413,302.53012 789.270772,302.53012 C785.656131,302.53012 783.487347,301.084337 781.318562,298.915663 C779.149777,296.746988 778.426849,293.855422 778.426849,290.240964 C778.426849,286.626506 779.149777,283.73494 781.318562,281.566265 C783.487347,279.39759 785.656131,277.951807 789.270772,277.951807 C792.885413,277.951807 795.054198,279.39759 797.222983,281.566265 C799.391767,283.73494 800.114695,286.626506 800.114695,290.240964 C800.114695,293.855422 798.668839,296.024096 797.222983,298.915663 L797.222983,298.915663 Z M800.837624,270.722892 L800.114695,275.060241 C798.668839,273.614458 797.222983,272.891566 795.777126,271.445783 C793.608341,270 790.716629,270 788.547844,270 C783.487347,270 778.426849,272.168675 774.812208,275.783133 C771.197567,279.39759 769.751711,284.457831 769.751711,290.240964 C769.751711,296.024096 771.920495,301.084337 774.812208,304.698795 C778.426849,308.313253 782.764418,310.481928 788.547844,310.481928 C791.439557,310.481928 794.33127,309.759036 797.222983,308.313253 C798.668839,307.590361 799.391767,306.86747 800.837624,305.421687 L800.837624,312.650602 C800.837624,315.542169 798.668839,321.325301 789.9937,321.325301 C787.101988,321.325301 784.933203,320.60241 782.04149,319.879518 C779.872706,319.156627 778.426849,317.710843 776.258065,316.987952 L771.197567,324.216867 C773.366352,325.662651 776.258065,327.108434 778.426849,327.831325 C782.04149,329.277108 785.656131,330 789.270772,330 C795.777126,330 799.391767,328.554217 803.729336,324.939759 C808.066906,321.325301 808.789834,315.542169 808.789834,313.373494 L808.789834,296.746988 L808.789834,291.686747 L808.789834,275.783133 L808.789834,270 L800.837624,270 L800.837624,270.722892 L800.837624,270.722892 Z" id="形状" fill="#231916"></path>
                <polygon id="路径" fill="#231916" points="673.752301 177.982143 670.8438 165.6875 657.755547 165.6875 660.664048 177.982143 648.30292 177.982143 648.30292 154.116071 671.570925 154.116071 671.570925 141.098214 648.30292 141.098214 648.30292 123.017857 675.206551 123.017857 675.206551 110 648.30292 110 628.67054 110 601.766908 110 601.766908 123.017857 628.67054 123.017857 628.67054 141.098214 605.402534 141.098214 605.402534 154.116071 628.67054 154.116071 628.67054 177.982143 599.585533 177.982143 599.585533 191 628.67054 191 648.30292 191 676.660802 191 676.660802 177.982143"></polygon>
                <path d="M592.228348,202.9 L685.474965,202.9 L685.474965,98.1 L592.228348,98.1 L592.228348,202.9 Z M572.55914,94.4611111 L572.55914,206.538889 C572.55914,211.633333 576.930075,216 582.029499,216 L694.216835,216 C699.316259,216 703.687195,211.633333 703.687195,206.538889 L703.687195,94.4611111 C703.687195,89.3666667 699.316259,85 694.216835,85 L582.757988,85 C576.930075,85 572.55914,89.3666667 572.55914,94.4611111 L572.55914,94.4611111 Z" id="形状" fill="#231916"></path>
                <path d="M493.442989,174.783069 L530.595938,174.783069 L530.595938,118.968254 L493.442989,118.968254 L493.442989,174.783069 Z M437.349321,174.783069 L474.50227,174.783069 L474.50227,118.968254 L437.349321,118.968254 C437.349321,118.968254 437.349321,174.783069 437.349321,174.783069 Z M493.442989,105.920635 L493.442989,82 L474.50227,82 L474.50227,105.920635 L426.421983,105.920635 C422.051048,105.920635 418.408602,109.544974 418.408602,113.89418 L418.408602,179.857143 C418.408602,184.206349 422.051048,187.830688 426.421983,187.830688 L474.50227,187.830688 L474.50227,219 L493.442989,219 L493.442989,187.830688 L541.523276,187.830688 C545.894211,187.830688 549.536657,184.206349 549.536657,179.857143 L549.536657,113.89418 C549.536657,109.544974 545.894211,105.920635 541.523276,105.920635 C541.523276,105.920635 493.442989,105.920635 493.442989,105.920635 Z" id="形状" fill="#231916"></path>
                <path d="M780.038072,118.704918 L780.038072,105.622951 L768.447806,105.622951 L768.447806,86 L750.338015,86 L750.338015,105.622951 L744.542882,105.622951 C744.542882,99.0819672 745.267274,93.9945355 745.267274,90.3606557 L730.05505,90.3606557 C730.05505,99.8087432 729.330658,118.704918 726.433092,143.415301 L742.369707,143.415301 C743.818491,133.967213 744.542882,125.972678 744.542882,118.704918 L751.062407,118.704918 L751.062407,160.131148 L725.7087,171.759563 L725.7087,189.202186 L751.062407,177.57377 L751.062407,219 L769.172197,219 L769.172197,169.579235 L780.762463,164.491803 L780.762463,147.04918 L769.172197,152.136612 L769.172197,118.704918 L780.038072,118.704918 Z" id="路径" fill="#231916"></path>
                <path d="M807.272223,98.9677419 C809.451771,93.1612903 811.631318,86.6290323 812.357834,83 L794.194936,83 C789.83584,99.6935484 785.476745,112.032258 776.758553,130.177419 L793.46842,130.177419 C796.374484,123.645161 799.280547,117.83871 802.186611,111.306452 L804.366159,111.306452 C800.733579,162.112903 792.015388,180.983871 781.844165,202.758065 C780.391133,206.387097 778.211585,210.016129 776.758553,213.645161 L793.46842,213.645161 C794.194936,212.193548 794.921452,210.741935 795.647968,209.290323 C805.819191,187.516129 815.990414,166.467742 819.622994,111.306452 L827.614669,111.306452 C826.888153,162.112903 815.990414,188.241935 805.092675,213.645161 L821.802542,213.645161 C831.973765,188.967742 842.144988,161.387097 842.871504,111.306452 L848.683631,111.306452 L848.683631,184.612903 C848.683631,192.596774 839.96544,203.483871 829.794217,204.935484 L829.794217,218 C848.683631,216.548387 866.84653,206.387097 866.84653,182.435484 L866.84653,109.854839 C866.84653,103.322581 861.034402,97.516129 854.495759,97.516129 L807.272223,97.516129 L807.272223,98.9677419 Z" id="路径" fill="#231916"></path>
                <polygon id="路径" fill="#231916" points="963.941349 218 980.957967 218 980.957967 156 963.941349 156"></polygon>
                <path d="M1011.54882,200.697674 L1011.54882,156 L993.970674,156 L993.970674,202.860465 C993.970674,210.790698 1000.56248,218 1009.35155,218 L1012.28124,218 L1024,218 L1024,205.744186 L1017.4082,205.744186 C1013.74608,205.744186 1011.54882,203.581395 1011.54882,200.697674" id="路径" fill="#231916"></path>
                <path d="M934.198017,156 C932.720384,186.413793 929.0263,203.793103 920.899316,219 L940.847368,219 C948.235535,200.896552 951.190802,180.62069 951.929619,156 L934.198017,156 Z" id="路径" fill="#231916"></path>
                <path d="M903.984839,160 C901.04319,173.839506 895.159894,197.148148 884.864125,219 L902.514014,219 C911.338959,198.604938 917.957668,175.296296 920.899316,160 L903.984839,160 Z" id="路径" fill="#231916"></path>
                <path d="M881.861193,121 C889.102307,131.15 894.895198,142.75 898.515755,150 L915.894428,150 C913.722094,145.65 908.653314,134.05 901.4122,121 L881.861193,121 Z" id="路径" fill="#231916"></path>
                <path d="M1020.99707,108.022472 L1020.99707,94.8764045 L981.649819,94.8764045 C980.192513,90.494382 978.735208,84.6516854 977.277902,81 L958.332931,81 C959.061584,83.9213483 961.247542,89.0337079 963.4335,94.8764045 L921.900293,94.8764045 L921.900293,108.022472 L940.116612,108.022472 L925.543557,146 L1009.33862,146 C1012.98189,146 1015.16785,142.348315 1013.71054,138.696629 L1004.23805,113.865169 L985.293083,113.865169 L991.850957,132.853933 L950.317751,132.853933 L959.061584,108.022472 L1020.99707,108.022472 Z" id="路径" fill="#231916"></path>
                <path d="M885.865103,83 C893.205604,93.875 898.343956,104.75 901.280156,112 L918.897361,112 C916.69521,106.2 912.290909,94.6 904.950407,83 L885.865103,83 Z" id="路径" fill="#231916"></path>
            </g>
        </g>
    </g>
</svg>