<?xml version="1.0" encoding="UTF-8"?>
<svg width="1024px" height="198px" viewBox="0 0 1024 198" version="1.1" xmlns="http://www.w3.org/2000/svg" xmlns:xlink="http://www.w3.org/1999/xlink">
    <title>中国南方航空集团有限公司@2x</title>
    <g id="页面-1" stroke="none" stroke-width="1" fill="none" fill-rule="evenodd">
        <g id="41.中国南方航空集团有限公司" transform="translate(0.000000, -285.000000)">
            <g id="中国南方航空集团有限公司" transform="translate(0.000000, 285.000000)">
                <polygon id="Fill-1" fill="#0077B9" points="199.136655 0 0 198 199.136655 198 279 0"></polygon>
                <polygon id="Fill-2" fill="#FEFEFE" points="185.686721 76.2001124 184.629015 75.5700851 183.678193 74.8354243 182.72737 73.8870441 181.988089 72.9364376 181.351238 71.7832428 180.930383 70.6233693 180.614184 69.3655411 180.509527 67.9919481 180.614184 67.1548801 180.718841 66.208726 180.930383 65.3649793 181.246581 64.5212325 181.669664 63.679712 182.092746 62.9450513 182.620486 62.205938 183.257337 61.578137 183.889734 60.9458835 184.524358 60.4204898 185.368296 59.9997295 186.107577 59.5789693 186.953742 59.367476 187.802134 59.049123 188.748503 58.9444895 189.703779 58.9444895 190.654602 58.9444895 191.49854 59.049123 192.449362 59.367476 193.295528 59.5789693 194.037035 59.9997295 194.77409 60.4204898 195.515598 60.9458835 196.147995 61.578137 196.782619 62.205938 197.312585 62.9450513 197.733441 63.679712 198.156524 64.5212325 198.472722 65.3649793 198.684264 66.208726 198.791148 67.1548801 198.898032 67.9919481 198.791148 69.3655411 198.472722 70.6233693 198.051866 71.8878763 197.417243 72.9364376 196.677961 73.9916776 195.727139 74.8354243 194.77409 75.5700851 193.611726 76.2001124 193.611726 78.8337599 194.669433 78.9361671 195.831796 79.1454341 196.99416 79.4637871 198.051866 79.7776876 200.165053 80.5123484 201.96204 81.3560951 202.701321 81.2559141 203.547487 81.2559141 204.391425 81.2559141 205.342247 81.2559141 207.45766 81.2559141 209.466189 81.5653621 211.472491 81.9883486 213.269479 82.5137424 215.066466 83.2506294 216.651913 84.1967834 218.130475 85.1451636 219.506607 86.3005846 220.771401 87.5628654 221.829107 88.9342322 222.782157 90.4057799 223.519211 91.9841874 224.153835 93.6672284 224.683801 95.4526767 224.893116 97.347211 225 99.2439715 225 100.504026 224.788459 101.663899 224.470033 102.81932 224.051404 103.87456 223.519211 105.029981 222.782157 105.976135 222.149759 107.031375 221.303594 107.87067 220.350545 108.71219 219.397496 109.451303 218.4489 110.079105 217.391194 110.604498 216.226603 111.027485 215.066466 111.341385 213.904103 111.550652 212.634855 111.659738 211.472491 111.550652 210.20547 111.341385 209.04088 111.027485 207.9854 110.499865 206.92992 109.974471 205.869987 109.237584 204.919165 108.500697 204.073 107.659176 203.335945 106.710796 202.701321 105.660009 202.171355 104.609221 201.750499 103.553981 201.432074 102.400786 201.222759 101.136279 201.222759 99.9830847 201.327416 98.8187587 201.222759 99.139338 201.011218 100.187899 200.801903 101.766307 200.692792 103.660841 200.692792 105.660009 200.692792 109.549258 200.692792 114.921187 200.692792 120.809604 200.692792 126.59784 200.692792 131.644737 200.692792 135.226765 200.692792 136.591453 200.588135 137.432973 200.374367 138.695254 199.953511 140.273662 199.425771 141.958929 198.581833 143.960323 197.628784 145.955038 196.46642 148.058839 194.987858 150.167093 194.139466 151.215654 193.295528 152.266442 192.344705 153.323908 191.286999 154.263383 190.126862 155.21399 188.962271 156.16237 187.693024 157.001664 186.319119 157.738551 184.840556 158.473212 183.257337 159.105466 181.669664 159.635312 179.97956 160.158479 178.077915 160.474606 176.17627 160.788507 174.167742 161 172.052329 161 169.834485 161 167.825956 160.788507 165.924311 160.474606 164.127324 160.158479 162.32811 159.635312 160.74489 159.105466 159.159444 158.473212 157.680881 157.738551 156.306976 157.001664 155.037729 156.16237 153.875365 155.21399 152.713001 154.263383 151.657522 153.323908 150.704472 152.266442 149.860534 151.215654 149.014369 150.167093 147.535807 148.058839 146.373443 145.955038 145.420394 143.960323 144.681113 141.958929 144.046489 140.273662 143.625633 138.695254 143.414092 137.432973 143.304981 136.591453 143.304981 135.226765 143.304981 131.644737 143.304981 126.59784 143.304981 120.809604 143.304981 114.921187 143.304981 109.549258 143.304981 105.660009 143.304981 103.660841 143.200324 101.766307 142.991009 100.187899 142.777241 99.139338 142.672584 98.8187587 142.777241 99.9830847 142.777241 101.136279 142.672584 102.296153 142.358612 103.449348 141.933303 104.502361 141.298679 105.557601 140.666282 106.606163 139.927 107.552317 139.078608 108.393837 138.130013 109.237584 137.07008 109.869838 136.0146 110.499865 134.95912 111.027485 133.796757 111.341385 132.529736 111.550652 131.365145 111.659738 130.095897 111.550652 128.93576 111.341385 127.775623 111.027485 126.608806 110.604498 125.5511 110.079105 124.602504 109.451303 123.651682 108.71219 122.698632 107.87067 121.852467 107.031375 121.22007 105.976135 120.587673 105.029981 119.950822 103.87456 119.52774 102.81932 119.209315 101.663899 119.106884 100.504026 119 99.2439715 119.106884 97.347211 119.318425 95.4526767 119.846165 93.6672284 120.478562 91.9841874 121.22007 90.4057799 122.170893 88.9342322 123.226372 87.5628654 124.49562 86.3005846 125.869525 85.1451636 127.350314 84.1967834 128.93576 83.2506294 130.732748 82.5137424 132.529736 81.9883486 134.536038 81.5653621 136.544567 81.2559141 138.657753 81.2559141 139.610802 81.2559141 140.456967 81.2559141 141.298679 81.2559141 142.040187 81.3560951 143.837174 80.5123484 145.948134 79.7776876 147.112724 79.3569274 148.272861 79.1454341 149.330567 78.9361671 150.388274 78.8337599 150.388274 76.2001124 149.330567 75.5700851 148.272861 74.8354243 147.428923 73.8870441 146.689641 72.9364376 146.057244 71.7832428 145.529504 70.6233693 145.315736 69.3655411 145.211079 67.9919481 145.211079 67.1548801 145.420394 66.208726 145.631935 65.3649793 145.948134 64.5212325 146.266559 63.679712 146.794299 62.9450513 147.324265 62.205938 147.854232 61.578137 148.486629 60.9458835 149.228137 60.4204898 149.965191 59.9997295 150.811356 59.5789693 151.657522 59.367476 152.50146 59.049123 153.454509 58.9444895 154.403105 58.9444895 155.251497 58.9444895 156.200092 59.049123 157.046258 59.367476 157.892423 59.5789693 158.736361 59.9997295 159.477869 60.4204898 160.21715 60.9458835 160.851774 61.578137 161.379514 62.205938 161.907254 62.9450513 162.43722 63.679712 162.755646 64.5212325 163.069617 65.3649793 163.281159 66.208726 163.4927 67.1548801 163.4927 67.9919481 163.388043 69.3655411 163.176501 70.6233693 162.646535 71.8878763 162.014138 72.9364376 161.27263 73.9916776 160.426465 74.8354243 159.370985 75.6769448 158.315505 76.3069721 158.315505 79.6752804 159.477869 80.0938144 160.638006 80.6192081 161.167973 79.4637871 161.907254 78.4107734 162.755646 77.4623931 163.704241 76.6186464 164.655064 75.7815783 165.817427 75.1470986 166.875134 74.5170713 168.142155 74.0985373 168.142155 71.3602563 166.982018 70.7302291 166.026742 69.8887086 165.080373 69.0471881 164.338865 67.9919481 163.704241 66.9411606 163.281159 65.6788798 162.96496 64.416599 162.860303 63.0541373 162.96496 62.205938 163.069617 61.2620103 163.281159 60.4204898 163.597357 59.5789693 164.02044 58.7374488 164.443522 57.9983355 164.971262 57.2636748 165.501229 56.6314213 166.24051 56.1082538 166.875134 55.5784075 167.614415 55.0530138 168.46058 54.7391132 169.306745 54.4229865 170.150684 54.2137195 171.103733 54 172.052329 54 173.005378 54 173.849316 54.2137195 174.695481 54.4229865 175.541647 54.7391132 176.385585 55.0530138 177.124866 55.5784075 177.866374 56.1082538 178.500998 56.6314213 179.135622 57.2636748 179.661135 57.9983355 180.086444 58.7374488 180.509527 59.5789693 180.718841 60.4204898 181.037267 61.2620103 181.141924 62.205938 181.141924 63.0541373 181.037267 64.416599 180.823499 65.6788798 180.295759 66.9411606 179.768019 67.9919481 178.921854 69.0471881 178.077915 69.8887086 177.020209 70.7302291 175.964729 71.3602563 175.964729 74.0985373 177.124866 74.5170713 178.289457 75.1470986 179.344936 75.7815783 180.295759 76.6186464 181.246581 77.4623931 182.092746 78.4107734 182.834254 79.4637871 183.361994 80.6192081 184.524358 80.0938144 185.686721 79.6752804"></polygon>
                <polygon id="Fill-3" fill="#D80D18" points="221 98.4805349 220.898585 96.8916369 220.691439 95.4059723 220.385035 93.9247962 219.977216 92.4391316 219.362252 91.1644225 218.645872 89.8897133 217.722346 88.6172483 216.697404 87.557983 215.573206 86.4964734 214.343276 85.6459192 212.910516 84.9030869 211.372025 84.1624989 209.632862 83.7405881 207.89154 83.3141889 205.843815 83.1009893 203.796091 83 202.361173 83.1009893 200.82484 83.3141889 199.39208 83.7405881 197.95932 84.2679766 196.522244 85.0108088 195.089484 85.9668407 193.758139 87.1315838 192.532525 88.4085371 191.302596 90.0019236 190.277654 91.6962993 189.764105 92.6478428 189.354128 93.6016305 188.948467 94.6631401 188.538491 95.8301273 188.128514 96.9971146 187.819953 98.1641019 187.614965 99.4365668 187.409977 100.814509 187.204988 102.192452 187.103573 103.678117 187 105.166025 187 106.757168 187 111.631584 187 116.297289 187 120.541083 187 124.358478 187 127.540762 187 129.980214 187 131.465879 187 132 188.227772 131.149446 189.66269 130.406614 191.09545 129.666025 192.532525 129.026427 193.861712 128.496794 195.193057 128.074883 196.420829 127.753962 197.44577 127.648484 197.44577 124.571677 197.44577 120.967482 197.44577 117.255565 197.44577 113.543648 197.44577 110.148163 197.44577 107.176834 197.44577 105.166025 197.44577 103.996794 197.547185 102.405652 197.650758 100.919987 198.058577 99.6497664 198.470711 98.3750573 198.982103 97.3135477 199.597068 96.3642484 200.212033 95.5159384 200.928413 94.770862 201.642635 94.2367409 202.464746 93.7071082 203.181126 93.2874416 204.001079 92.9665201 204.715301 92.6478428 205.433839 92.5423651 206.048804 92.4391316 206.661611 92.3291655 206.048804 92.9665201 205.535254 93.6016305 205.023862 94.3422186 204.715301 95.087295 204.411055 95.8301273 204.203909 96.6784373 204.001079 97.5267473 204.001079 98.4805349 204.001079 99.4365668 204.203909 100.287121 204.411055 101.135431 204.613886 101.878263 205.023862 102.621096 205.433839 103.359439 205.945231 104.104516 206.456622 104.631904 207.071587 105.269259 207.787967 105.80338 208.40509 106.223047 209.222885 106.541724 209.941423 106.858157 210.759218 107.071357 211.579171 107.176834 212.500539 107.284556 213.318335 107.176834 214.13613 107.071357 214.956083 106.858157 215.776036 106.649446 216.492416 106.330769 217.107381 105.908858 217.825919 105.374737 218.438726 104.845104 218.950117 104.212238 219.463667 103.577127 219.873643 102.827563 220.182205 102.086974 220.488608 101.238664 220.691439 100.394843 220.898585 99.4365668"></polygon>
                <polygon id="Fill-4" fill="#D80D18" points="124 98.4805349 124 96.8916369 124.20283 95.4059723 124.511392 93.9247962 125.022784 92.4391316 125.536333 91.1644225 126.252713 89.8897133 127.174081 88.6172483 128.199023 87.557983 129.325379 86.4964734 130.555309 85.6459192 131.988069 84.9030869 133.52656 84.1624989 135.263565 83.7405881 137.004887 83.3141889 139.052612 83.1009893 141.102494 83 142.537412 83.1009893 144.073745 83.3141889 145.506505 83.7405881 146.939265 84.2679766 148.374183 85.0108088 149.804785 85.9668407 151.138288 87.1315838 152.36606 88.4085371 153.595989 90.0019236 154.618773 91.6962993 155.132322 92.6478428 155.544456 93.6016305 156.055848 94.6631401 156.360094 95.8301273 156.772228 96.9971146 157.078632 98.1641019 157.281462 99.4365668 157.590023 100.814509 157.693596 102.192452 157.795012 103.678117 157.898585 105.166025 158 106.757168 158 111.631584 158 116.297289 158 120.541083 158 124.358478 158 127.540762 158 129.980214 158 131.465879 158 132 156.668655 131.149446 155.233737 130.406614 153.803135 129.666025 152.36606 129.026427 151.034715 128.496794 149.707685 128.074883 148.477756 127.753962 147.450657 127.648484 147.450657 124.571677 147.450657 120.967482 147.450657 117.255565 147.450657 113.543648 147.450657 110.148163 147.450657 107.176834 147.450657 105.166025 147.450657 103.996794 147.450657 102.405652 147.247826 100.919987 146.83785 99.6497664 146.427873 98.3750573 145.916482 97.3135477 145.301517 96.3642484 144.686552 95.5159384 143.968014 94.770862 143.251634 94.2367409 142.433839 93.7071082 141.717459 93.2874416 140.897506 92.9665201 140.183284 92.6478428 139.464746 92.5423651 138.847623 92.4391316 138.234816 92.3291655 138.847623 92.9665201 139.361173 93.6016305 139.872565 94.3422186 140.183284 95.087295 140.489687 95.8301273 140.694675 96.6784373 140.897506 97.5267473 140.897506 98.4805349 140.897506 99.4365668 140.796091 100.287121 140.489687 101.135431 140.282541 101.878263 139.872565 102.621096 139.464746 103.359439 138.953354 104.104516 138.439805 104.631904 137.82484 105.269259 137.110618 105.80338 136.493495 106.223047 135.6757 106.541724 134.957162 106.858157 134.139367 107.071357 133.319414 107.176834 132.398045 107.284556 131.578092 107.176834 130.758139 107.071357 129.940344 106.858157 129.221806 106.649446 128.404011 106.330769 127.786888 105.908858 127.072666 105.374737 126.561274 104.845104 125.94631 104.212238 125.536333 103.577127 125.022784 102.827563 124.718538 102.086974 124.409977 101.238664 124.20283 100.394843 124 99.4365668"></polygon>
                <polygon id="Fill-5" fill="#D80D18" points="172.051011 157 173.840845 157 175.526437 156.897469 177.21203 156.592059 178.788946 156.382635 180.261622 155.970332 181.630057 155.558028 182.998492 155.043194 184.262686 154.421466 185.418204 153.804101 186.473918 153.084206 187.525195 152.46466 188.576473 151.640052 189.421487 150.920157 190.262065 150.093368 190.998403 149.164049 191.734741 148.341623 192.998935 146.592059 194.050213 144.835951 194.999468 143.186736 195.631565 141.537522 196.159422 139.990838 196.578602 138.651396 196.893542 137.412304 197 136.487347 197 135.767452 197 134.113874 197 132.255236 197 131.022688 194.788769 131.640052 192.577537 132.46466 190.472764 133.396161 188.472232 134.526178 186.473918 135.767452 184.788325 137.207243 183.945529 138.034031 183.102732 138.756108 182.368612 139.683246 181.630057 140.505672 181.312899 139.473822 181.000177 138.444154 180.68302 137.412304 180.261622 136.487347 179.210344 134.63089 178.052608 132.776614 176.790632 131.125218 175.315738 129.683246 173.736604 128.236911 172.051011 127 170.261178 128.236911 168.682044 129.683246 167.209368 131.125218 165.947392 132.776614 164.789656 134.63089 163.73616 136.487347 163.31698 137.412304 162.999823 138.444154 162.682665 139.473822 162.365507 140.505672 161.631388 139.683246 160.89505 138.756108 160.054471 138.034031 159.209457 137.207243 157.526082 135.767452 155.632009 134.526178 153.527236 133.396161 151.420245 132.46466 149.209013 131.640052 147 131.022688 147 132.255236 147 134.113874 147 135.767452 147 136.487347 147.104241 137.412304 147.423616 138.651396 147.840578 139.990838 148.366217 141.537522 149.000532 143.186736 149.947569 144.835951 151.001065 146.592059 152.265259 148.341623 153.001597 149.164049 153.737935 150.093368 154.580731 150.920157 155.527768 151.640052 156.472587 152.46466 157.526082 153.084206 158.57736 153.804101 159.737314 154.421466 160.99929 155.043194 162.365507 155.558028 163.73616 155.970332 165.211054 156.382635 166.78797 156.592059 168.473563 156.897469 170.156938 157"></polygon>
                <polygon id="Fill-6" fill="#D80D18" points="172.857499 69.7221852 172.857499 76.6115928 174.065578 76.9301522 175.171924 77.3541502 176.27827 77.8880737 177.285002 78.6306312 178.190001 79.4786273 178.893654 80.3266234 179.497694 81.2755715 180 82.3389317 178.590575 83.4022919 177.285002 84.5643606 175.97731 85.8385982 174.870964 87.3237131 173.862112 88.8043412 172.959232 90.3971382 172.153846 92.2008125 171.450193 94 170.846154 92.2008125 170.040768 90.3971382 169.135769 88.8043412 168.131156 87.3237131 167.02269 85.8385982 165.714998 84.5643606 164.409425 83.4022919 163 82.3389317 163.502306 81.2755715 164.208079 80.3266234 164.911732 79.4786273 165.814612 78.6306312 166.823463 77.8880737 167.828076 77.3541502 168.936542 76.9301522 170.14462 76.6115928 170.14462 69.7221852 169.135769 69.3004305 168.230769 68.874189 167.425383 68.2393136 166.72385 67.3868308 166.219424 66.541078 165.814612 65.5876432 165.515771 64.5310132 165.416158 63.3622143 165.416158 62.7250955 165.515771 62.0902201 165.714998 61.4508579 165.918464 60.9214212 166.117691 60.3919845 166.42077 59.7571091 166.823463 59.3308676 167.226156 58.8014309 167.628849 58.4828715 168.131156 58.0588735 168.633462 57.7403141 169.135769 57.4262414 169.739808 57.2108773 170.244234 57.1054387 170.846154 57 171.549807 57 172.153846 57 172.757886 57.1054387 173.359806 57.2108773 173.862112 57.4262414 174.466151 57.7403141 174.972697 58.0588735 175.37327 58.4828715 175.875577 58.8014309 176.27827 59.3308676 176.57923 59.7571091 176.88019 60.3919845 177.183269 60.9214212 177.382496 61.4508579 177.486348 62.0902201 177.583842 62.7250955 177.687695 63.3622143 177.583842 64.5310132 177.285002 65.5876432 176.88019 66.541078 176.27827 67.4945128 175.572497 68.2393136 174.769231 68.874189 173.862112 69.4036258"></polygon>
                <polygon id="Fill-7" fill="#D80D18" points="156.225504 74.6128276 156.225504 81.9723491 157.795473 82.3882544 159.369859 83.0198966 160.730058 83.7560712 162.196246 84.5967781 163.454872 85.5420173 164.713497 86.7029935 165.863925 87.8572974 166.80679 89.220666 167.751863 90.5907069 168.590947 92.063056 169.324041 93.530957 169.951145 95.0033061 170.370687 96.5801875 170.686448 98.157069 170.898427 99.8407069 171 101.415364 171 104.987257 171 108.877194 171 112.767132 171 116.550313 171 119.808608 171 122.544241 171 124.225655 171 124.96183 169.531604 125.904845 168.065415 127.061373 166.599227 128.322433 165.340602 129.797006 164.187966 131.267132 163.141319 132.846237 162.302236 134.423119 161.672923 136 161.255589 135.366134 160.626277 134.841248 160.626277 134.102849 160.626277 131.89655 160.626277 128.638254 160.626277 124.539252 160.626277 119.808608 160.626277 114.762142 160.626277 109.508836 160.626277 104.357838 160.626277 102.676425 160.416506 100.995011 160.100745 99.313597 159.784985 97.6344073 159.261662 95.9485453 158.634557 94.373888 157.901463 92.9037629 157.062379 91.4314138 156.225504 90.0613729 155.174441 88.6957802 154.024013 87.4391681 152.869169 86.3827242 151.50897 85.3329526 150.146564 84.4922457 148.574386 83.6515388 147 83.0198966 147.525531 82.8152801 148.887938 82.3882544 149.830803 82.1814138 150.879658 82.0746574 152.136075 81.8655927 153.394701 81.8655927 153.394701 74.6128276 152.345846 74.2970065 151.402981 73.8744289 150.563897 73.2450108 149.830803 72.4043039 149.305272 71.563597 148.781949 70.6183578 148.574386 69.5663621 148.470604 68.4098341 148.470604 67.780416 148.574386 67.1509978 148.781949 66.5193556 148.993928 65.9944698 149.20149 65.3628276 149.517251 64.8357177 149.936793 64.4175884 150.356335 63.8949267 150.775876 63.4723491 151.2992 63.156528 151.822523 62.842931 152.345846 62.5248858 152.869169 62.3180452 153.498482 62.2090647 154.127795 62.1023082 154.860889 62 155.490201 62.1023082 156.119514 62.2090647 156.748827 62.3180452 157.27215 62.5248858 157.795473 62.842931 158.424786 63.156528 158.844328 63.4723491 159.369859 63.8949267 159.681203 64.4175884 160.100745 64.8357177 160.416506 65.3628276 160.730058 65.9944698 160.939829 66.5193556 161.04361 67.1509978 161.1496 67.780416 161.1496 68.4098341 161.04361 69.5663621 160.833839 70.6183578 160.310516 71.563597 159.784985 72.4043039 159.051891 73.2450108 158.215015 73.8744289 157.27215 74.2970065"></polygon>
                <polygon id="Fill-8" fill="#D80D18" points="190.606919 74.719584 190.606919 81.8655927 191.865661 81.8655927 193.122194 82.0791056 194.171145 82.1814138 195.114096 82.3882544 196.476629 82.8152801 197 83.0198966 195.429886 83.655987 193.961354 84.4966939 192.492823 85.3329526 191.23629 86.3827242 189.979757 87.5459245 188.824807 88.6957802 187.884063 90.0613729 186.936695 91.4336379 186.101951 92.9015388 185.366581 94.4784203 184.739418 96.0597499 184.319838 97.7389396 183.900258 99.3180452 183.584468 100.995011 183.376886 102.676425 183.376886 104.357838 183.376886 109.513284 183.376886 114.762142 183.376886 119.808608 183.376886 124.539252 183.376886 128.638254 183.376886 131.89655 183.376886 134.102849 183.376886 134.841248 182.745307 135.370582 182.327935 136 181.698565 134.420894 180.859404 132.844013 179.812661 131.264907 178.659919 129.797006 177.403386 128.326881 176.038646 127.061373 174.468531 125.909293 173 124.959606 173 124.223431 173 122.544241 173 119.808608 173 116.554761 173 112.767132 173 108.877194 173 104.987257 173 101.415364 173.103791 99.8407069 173.313581 98.157069 173.627162 96.5801875 174.048951 95.0033061 174.678322 93.530957 175.409275 92.0608319 176.248436 90.5907069 177.191388 89.2228901 178.136548 87.8572974 179.28929 86.7029935 180.545823 85.5420173 181.804564 84.5967781 183.167096 83.7560712 184.631211 83.0198966 186.205742 82.3882544 187.778064 81.9723491 187.778064 74.6128276 186.835112 74.3014547 185.889952 73.8744289 185.050791 73.2450108 184.319838 72.4043039 183.692676 71.563597 183.270887 70.6183578 182.957306 69.5708103 182.853515 68.4098341 182.957306 67.780416 182.957306 67.1509978 183.167096 66.5193556 183.376886 65.9944698 183.584468 65.3628276 184.004049 64.8379418 184.319838 64.4175884 184.739418 63.8927026 185.156791 63.4723491 185.680162 63.1543039 186.205742 62.842931 186.729113 62.5271099 187.360692 62.3158211 187.987854 62.2090647 188.617225 62.1045323 189.246596 62 189.873758 62.1045323 190.505337 62.2090647 191.130291 62.3158211 191.759661 62.5271099 192.285241 62.842931 192.808612 63.1543039 193.331984 63.4723491 193.751564 63.8927026 194.171145 64.4175884 194.486934 64.8379418 194.798307 65.3628276 195.114096 65.9944698 195.323887 66.5193556 195.533677 67.1509978 195.533677 67.780416 195.637468 68.4098341 195.533677 69.5708103 195.220096 70.6183578 194.798307 71.563597 194.171145 72.5110604 193.437983 73.2450108 192.598822 73.8744289 191.65587 74.4015388"></polygon>
                <path d="M639.477371,165.280521 L639.537198,163.812126 L639.665715,162.34596 L639.85406,160.928814 L640.102231,159.569602 L640.483351,158.208162 L640.922082,156.853407 L641.43172,155.543216 L641.998969,154.237481 L642.688087,152.987452 L643.386069,151.790899 L644.139446,150.594347 L645.023557,149.451272 L645.903235,148.363903 L646.851604,147.276533 L647.857584,146.244869 L648.932255,145.266682 L650.062321,144.344201 L651.261077,143.47074 L652.459833,142.599507 L653.722847,141.837457 L655.043473,141.079864 L656.430574,140.426997 L657.817674,139.774129 L659.202559,139.230444 L660.718176,138.682303 L662.233794,138.247801 L663.74498,137.866776 L665.320425,137.543685 L666.895869,137.323091 L668.531141,137.104726 L670.175276,137 L671.812764,137 L673.510078,137 L675.156429,137.104726 L676.729658,137.323091 L678.369361,137.543685 L679.944806,137.866776 L681.453776,138.247801 L682.969394,138.682303 L684.416321,139.230444 L685.869896,139.774129 L687.25478,140.426997 L688.639665,141.079864 L689.90268,141.837457 L691.225521,142.599507 L692.426493,143.47074 L693.623034,144.344201 L694.693272,145.266682 L695.763511,146.244869 L696.835966,147.276533 L697.779903,148.363903 L698.666229,149.451272 L699.483865,150.594347 L700.301501,151.790899 L700.997267,152.987452 L701.628774,154.237481 L702.258066,155.543216 L702.763272,156.853407 L703.204219,158.208162 L703.514433,159.569602 L703.833511,160.928814 L704.024071,162.34596 L704.150372,163.812126 L704.212415,165.280521 L704.150372,166.697666 L704.024071,168.161604 L703.833511,169.57875 L703.514433,170.991439 L703.204219,172.350651 L702.763272,173.656386 L702.258066,175.015598 L701.628774,176.267855 L700.997267,177.517884 L700.301501,178.77237 L699.483865,179.964466 L698.666229,181.109769 L697.779903,182.19491 L696.835966,183.28228 L695.763511,184.316172 L694.693272,185.294359 L693.623034,186.219069 L692.426493,187.090301 L691.225521,187.961534 L689.90268,188.723584 L688.639665,189.481177 L687.25478,190.134045 L685.869896,190.786912 L684.416321,191.330597 L682.969394,191.820805 L681.453776,192.255307 L679.944806,192.694265 L678.369361,192.963879 L676.729658,193.235722 L675.156429,193.398382 L673.510078,193.507564 L671.812764,193.561041 L670.175276,193.507564 L668.531141,193.398382 L666.895869,193.235722 L665.320425,192.963879 L663.74498,192.694265 L662.233794,192.255307 L660.718176,191.820805 L659.202559,191.330597 L657.817674,190.786912 L656.430574,190.134045 L655.043473,189.481177 L653.722847,188.723584 L652.459833,187.961534 L651.261077,187.090301 L650.062321,186.219069 L648.932255,185.294359 L647.857584,184.316172 L646.851604,183.28228 L645.903235,182.19491 L645.023557,181.109769 L644.139446,179.964466 L643.386069,178.77237 L642.688087,177.517884 L641.998969,176.267855 L641.43172,175.015598 L640.922082,173.656386 L640.483351,172.350651 L640.102231,170.991439 L639.85406,169.57875 L639.665715,168.161604 L639.537198,166.697666 L639.477371,165.280521 Z M948.594685,165.824205 L964.858769,193.07529 L954.64386,193.07529 L938.756465,166.639733 L930.374035,166.639733 L930.374035,193.126539 L920.797282,193.126539 L920.797282,137.975959 L942.98424,137.975959 L944.623944,138.031664 L946.323474,138.138619 L948.027436,138.356984 L949.662708,138.682303 L950.549034,138.849419 L951.368885,139.063328 L952.124478,139.332942 L952.94433,139.609241 L953.699923,139.883312 L954.4533,140.206403 L955.211109,140.587428 L955.906875,140.968453 L956.600425,141.402955 L957.227501,141.837457 L957.861224,142.327665 L958.426257,142.87135 L958.993506,143.415035 L959.500928,143.963176 L959.999486,144.616043 L960.447081,145.266682 L960.819338,145.91955 L961.198242,146.677143 L961.515104,147.439193 L961.765491,148.25472 L961.958267,149.074704 L962.084568,149.94148 L962.146611,150.86619 L962.206438,151.848833 L962.206438,152.773543 L962.146611,153.638091 L962.018094,154.509323 L961.896224,155.271373 L961.765491,156.03788 L961.577146,156.739768 L961.326759,157.446112 L961.076372,158.09898 L960.819338,158.69837 L960.506908,159.242055 L960.130219,159.785739 L959.751315,160.275947 L959.37241,160.768383 L958.931463,161.200657 L958.554774,161.635159 L958.047353,162.016184 L957.103415,162.726985 L956.030961,163.377624 L954.898679,163.923537 L953.699923,164.355811 L952.503383,164.790313 L951.240368,165.16911 L949.919742,165.501114 L948.594685,165.824205 Z M975.762796,193.180016 L969.649362,193.180016 L969.649362,138.031664 L972.104485,138.031664 L1013.26325,177.134631 L1013.26325,138.031664 L1019,138.031664 L1019,193.180016 L1016.60692,193.180016 L975.762796,154.565029 L975.762796,193.180016 Z M824.165576,193.180016 L814.64865,193.180016 L814.64865,137.866776 L824.165576,137.866776 L824.165576,161.853524 L854.482361,161.853524 L854.482361,137.866776 L863.941677,137.866776 L863.941677,193.180016 L854.482361,193.180016 L854.482361,167.127712 L824.165576,167.127712 L824.165576,193.180016 Z M752.432988,137.594934 L758.233992,137.594934 L758.233992,173.767796 L758.233992,174.52539 L758.165302,175.28744 L758.043432,176.102967 L757.91713,176.922951 L757.724354,177.734021 L757.476183,178.549548 L757.22358,179.365076 L756.906719,180.180603 L756.527814,181.051835 L756.089083,181.867362 L755.648136,182.687346 L755.140714,183.44494 L754.573465,184.264923 L754.008432,185.020288 L753.317098,185.782338 L752.623548,186.546617 L751.867955,187.250733 L751.110146,187.905829 L750.22382,188.556468 L749.344141,189.211563 L748.335945,189.810953 L747.327749,190.35241 L746.253079,190.844846 L745.185056,191.330597 L743.9863,191.769556 L742.727717,192.150581 L741.462486,192.473672 L740.075386,192.745514 L738.688285,192.963879 L737.241358,193.126539 L735.727956,193.235722 L734.152511,193.235722 L732.82967,193.235722 L731.504612,193.126539 L730.246029,193.017357 L728.98523,192.803448 L727.786474,192.582854 L726.587718,192.311012 L725.455436,191.983464 L724.318723,191.602439 L723.248484,191.167937 L722.240288,190.735663 L721.232092,190.243227 L720.285939,189.699543 L719.339786,189.100152 L718.460107,188.505219 L717.573781,187.905829 L716.815972,187.197256 L715.998337,186.546617 L715.307002,185.782338 L714.60902,185.08045 L713.98416,184.264923 L713.414696,183.502873 L712.845231,182.687346 L712.344457,181.867362 L711.90351,181.000586 L711.524605,180.127126 L711.207744,179.255893 L710.890882,178.389117 L710.638279,177.464407 L710.449935,176.590946 L710.325849,175.666237 L710.199548,174.743755 L710.199548,173.819045 L710.199548,137.594934 L719.71869,137.594934 L719.71869,174.420664 L719.71869,175.178257 L719.844992,175.938079 L719.907035,176.702357 L720.097595,177.406474 L720.285939,178.119503 L720.598369,178.821391 L720.855404,179.476486 L721.232092,180.127126 L721.546738,180.728744 L721.985469,181.323678 L722.430848,181.867362 L722.933838,182.411047 L723.439044,182.959188 L723.942034,183.44494 L724.509283,183.935147 L725.138575,184.427583 L725.705823,184.808608 L726.401589,185.240882 L727.030881,185.621907 L727.719999,185.947226 L728.417981,186.274774 L729.171359,186.600094 L729.867125,186.871936 L730.622718,187.146007 L731.380526,187.362144 L732.131688,187.522575 L732.958187,187.689692 L733.709348,187.852351 L734.5292,187.905829 L735.351267,188.012783 L736.104645,188.070717 L736.926712,188.070717 L737.620262,188.070717 L738.311597,188.012783 L739.007363,187.905829 L739.696481,187.794418 L740.392247,187.631758 L741.083582,187.469098 L741.781563,187.250733 L742.470682,187.039052 L743.168664,186.76721 L743.797955,186.495368 L744.425031,186.165592 L745.054323,185.8425 L745.690262,185.461475 L746.319553,185.020288 L746.886802,184.641492 L747.451835,184.155741 L748.019083,183.716782 L748.524289,183.231031 L749.025064,182.687346 L749.470442,182.139205 L749.91139,181.59552 L750.352337,181.051835 L750.731241,180.456902 L751.048103,179.804034 L751.360533,179.204644 L751.61092,178.549548 L751.867955,177.845432 L752.056299,177.192565 L752.244643,176.483992 L752.306686,175.777647 L752.432988,175.015598 L752.432988,174.311481 L752.432988,137.594934 Z M791.389236,193.07529 L781.870094,193.07529 L781.870094,143.47074 L762.45512,143.47074 L762.45512,138.410461 L810.611434,138.410461 L810.611434,143.47074 L791.389236,143.47074 L791.389236,193.07529 Z M913.170445,187.469098 L913.170445,192.694265 L872.135762,192.694265 L872.135762,138.138619 L913.170445,138.138619 L913.170445,143.196669 L881.712516,143.196669 L881.712516,161.363317 L913.232488,161.363317 L913.232488,166.36789 L881.712516,166.36789 L881.712516,187.469098 L913.170445,187.469098 Z M599.196065,191.442008 L599.196065,184.097807 L601.212456,185.240882 L603.231064,186.165592 L605.12337,186.927642 L606.946986,187.522575 L608.712991,188.012783 L610.419169,188.342559 L612.056657,188.556468 L613.632101,188.667879 L615.145503,188.667879 L616.534819,188.556468 L617.919704,188.284625 L619.180503,188.012783 L620.315,187.580509 L621.385239,187.146007 L622.393435,186.546617 L623.275329,185.947226 L624.097397,185.294359 L624.788731,184.588015 L625.358196,183.825965 L625.85897,183.010437 L626.235659,182.19491 L626.492693,181.381611 L626.681038,180.508151 L626.74308,179.694852 L626.614563,178.821391 L626.426219,178.005864 L626.113789,177.192565 L625.672842,176.374809 L625.105593,175.617216 L624.407611,174.852938 L623.530148,174.20007 L622.581779,173.547203 L620.689473,172.462062 L618.484737,171.207576 L616.217958,169.901841 L613.758403,168.544858 L611.363106,167.127712 L608.965594,165.772956 L606.758642,164.518471 L604.808725,163.377624 L603.73627,162.666823 L602.728074,161.853524 L601.777489,160.928814 L600.962069,159.948399 L600.268519,158.86103 L599.703486,157.717955 L599.196065,156.523631 L598.814944,155.32485 L598.566773,154.079278 L598.378429,152.773543 L598.378429,151.46558 L598.50473,150.159845 L598.693074,148.907588 L599.071979,147.601853 L599.572753,146.351824 L600.202045,145.1575 L601.024112,144.014425 L601.968049,142.929283 L603.04272,141.837457 L604.303519,140.912748 L605.690619,140.043743 L607.266064,139.281693 L609.032069,138.577577 L610.917727,138.031664 L613.00281,137.594934 L615.269589,137.323091 L617.664885,137.213909 L620.315,137.213909 L623.089201,137.432274 L626.113789,137.757594 L629.328937,138.305735 L632.66817,139.063328 L632.66817,145.643251 L630.337133,144.887886 L628.130181,144.235018 L625.985272,143.691333 L624.028707,143.30808 L622.143048,142.980532 L620.315,142.815644 L618.673081,142.70869 L617.161895,142.764395 L615.710536,142.815644 L614.38991,143.038466 L613.12468,143.30808 L612.056657,143.6334 L611.048461,144.065674 L610.16435,144.506861 L609.408757,145.046089 L608.712991,145.643251 L608.212217,146.244869 L607.766838,146.895508 L607.394581,147.601853 L607.201805,148.310426 L607.07772,149.074704 L607.015677,149.832297 L607.137547,150.594347 L607.325891,151.409875 L607.644968,152.171924 L608.021657,152.933974 L608.524647,153.698253 L609.153938,154.460303 L609.85192,155.164419 L610.669556,155.868535 L611.615709,156.523631 L612.623905,157.123021 L614.640297,158.208162 L616.594646,159.295532 L618.548995,160.387358 L620.43687,161.525976 L622.393435,162.666823 L624.407611,163.923537 L626.492693,165.280521 L628.697429,166.697666 L630.148788,167.72933 L631.405156,168.814472 L632.479826,169.959775 L633.425979,171.156327 L634.245831,172.404128 L634.875123,173.709863 L635.375897,175.073531 L635.694974,176.430515 L635.883318,177.787499 L635.943145,179.151167 L635.821276,180.508151 L635.566457,181.867362 L635.12551,183.173097 L634.558261,184.478832 L633.866927,185.731089 L633.049291,186.927642 L631.972404,188.012783 L630.842339,189.100152 L629.517281,190.080568 L628.068138,190.9518 L626.492693,191.769556 L624.726688,192.473672 L622.832166,193.017357 L620.81799,193.456315 L618.611038,193.779407 L616.277785,193.942066 L613.822661,194 L611.174762,193.832884 L608.400561,193.507564 L605.500059,193.017357 L602.408997,192.364489 L599.196065,191.442008 Z M649.623589,165.280521 L649.623589,164.083969 L649.752106,162.940894 L649.873976,161.742113 L650.062321,160.601267 L650.319355,159.462648 L650.631785,158.370822 L650.950863,157.283453 L651.39181,156.196083 L651.828325,155.164419 L652.269273,154.186232 L652.836521,153.205817 L653.405986,152.229858 L654.033062,151.305148 L654.664569,150.431688 L655.362551,149.560455 L656.118144,148.800633 L656.875953,147.982878 L657.693589,147.276533 L658.51344,146.572417 L659.390903,145.91955 L660.277229,145.317931 L661.221166,144.718541 L662.165104,144.235018 L663.1733,143.740354 L664.183712,143.361557 L665.191907,142.980532 L666.266578,142.657441 L667.334601,142.385599 L668.409271,142.216254 L669.539337,142.055823 L670.678266,141.944412 L671.812764,141.944412 L672.945045,141.944412 L674.079543,142.055823 L675.216256,142.216254 L676.286495,142.385599 L677.361165,142.657441 L678.431404,142.980532 L679.437384,143.361557 L680.44558,143.740354 L681.453776,144.235018 L682.402145,144.718541 L683.348298,145.317931 L684.227977,145.91955 L685.112087,146.572417 L685.996197,147.276533 L686.75179,147.982878 L687.571642,148.800633 L688.265192,149.560455 L688.958742,150.431688 L689.652293,151.305148 L690.2838,152.229858 L690.848833,153.205817 L691.351823,154.186232 L691.857029,155.164419 L692.297976,156.196083 L692.67688,157.283453 L693.055785,158.370822 L693.368215,159.462648 L693.623034,160.601267 L693.811378,161.742113 L693.937679,162.940894 L693.997506,164.083969 L694.063981,165.280521 L693.997506,166.532778 L693.937679,167.671397 L693.811378,168.870177 L693.623034,170.011024 L693.368215,171.156327 L693.055785,172.241468 L692.67688,173.328838 L692.297976,174.420664 L691.857029,175.447871 L691.351823,176.430515 L690.848833,177.406474 L690.2838,178.389117 L689.652293,179.311598 L688.958742,180.180603 L688.265192,181.000586 L687.571642,181.813885 L686.75179,182.629412 L685.996197,183.337985 L685.112087,184.04433 L684.227977,184.697197 L683.348298,185.294359 L682.402145,185.8425 L681.453776,186.386185 L680.44558,186.818459 L679.437384,187.250733 L678.431404,187.631758 L677.361165,187.961534 L676.286495,188.177671 L675.216256,188.396036 L674.079543,188.556468 L672.945045,188.667879 L671.812764,188.667879 L670.678266,188.667879 L669.539337,188.556468 L668.409271,188.396036 L667.334601,188.177671 L666.266578,187.961534 L665.191907,187.631758 L664.183712,187.250733 L663.1733,186.818459 L662.165104,186.386185 L661.221166,185.8425 L660.277229,185.294359 L659.390903,184.697197 L658.51344,184.04433 L657.693589,183.337985 L656.875953,182.629412 L656.118144,181.813885 L655.362551,181.000586 L654.664569,180.180603 L654.033062,179.311598 L653.405986,178.389117 L652.836521,177.406474 L652.269273,176.430515 L651.828325,175.447871 L651.39181,174.420664 L650.950863,173.328838 L650.631785,172.241468 L650.319355,171.156327 L650.062321,170.011024 L649.873976,168.870177 L649.752106,167.671397 L649.623589,166.532778 L649.623589,165.280521 Z M395.030843,193.07529 L385.5117,193.07529 L385.5117,137.813299 L395.030843,137.813299 L395.030843,161.800047 L425.223542,161.800047 L425.223542,137.813299 L434.742684,137.813299 L434.742684,193.07529 L425.223542,193.07529 L425.223542,167.018529 L395.030843,167.018529 L395.030843,193.07529 Z M454.281744,193.07529 L444.762601,193.07529 L444.762601,137.92471 L454.281744,137.866776 L454.281744,193.07529 Z M470.67213,193.07529 L464.558695,193.07529 L464.558695,137.975959 L467.013819,137.975959 L508.050718,177.083382 L508.050718,137.975959 L513.785248,137.975959 L513.785248,193.07529 L511.389952,193.07529 L470.67213,154.460303 L470.67213,193.07529 Z M378.890844,184.750674 L378.890844,191.167937 L376.750366,191.658145 L374.54563,192.150581 L372.088291,192.582854 L369.562262,192.963879 L366.854535,193.289199 L364.018292,193.561041 L362.566933,193.670224 L361.055747,193.728158 L359.542345,193.779407 L357.969116,193.779407 L354.122461,193.618975 L350.466365,193.126539 L347.060657,192.364489 L343.847725,191.330597 L340.945007,190.080568 L338.237281,188.556468 L335.77551,186.871936 L333.572989,184.966811 L331.61864,182.901255 L329.916894,180.67081 L328.467751,178.331183 L327.271211,175.889058 L326.322842,173.386771 L325.631507,170.773074 L325.188344,168.161604 L325,165.501114 L325.062043,162.831711 L325.378904,160.220242 L325.946153,157.664478 L326.828048,155.110942 L327.964761,152.662132 L329.349645,150.322505 L330.989349,148.149994 L332.879439,146.079981 L335.086391,144.174856 L337.54373,142.436848 L340.317931,140.912748 L343.342519,139.66049 L346.61971,138.628826 L350.213762,137.866776 L354.055986,137.381025 L358.155244,137.213909 L361.560952,137.271842 L364.58554,137.381025 L367.421784,137.543685 L370.00764,137.757594 L372.400721,138.031664 L374.671932,138.305735 L376.810193,138.628826 L378.890844,138.958602 L378.890844,144.936906 L377.381874,144.506861 L375.744386,144.065674 L373.914123,143.579923 L371.773645,143.143192 L370.51063,142.980532 L369.249832,142.764395 L367.800688,142.599507 L366.285071,142.436848 L364.647583,142.327665 L362.821751,142.216254 L360.867402,142.162777 L358.85101,142.162777 L356.141068,142.274188 L353.681513,142.70869 L351.34826,143.30808 L349.143524,144.174856 L347.124916,145.208749 L345.296868,146.465463 L343.595122,147.873695 L342.08172,149.451272 L340.758878,151.138032 L339.557907,152.987452 L338.551926,154.892577 L337.734291,156.904656 L337.102783,158.970212 L336.661836,161.091474 L336.409233,163.27067 L336.34719,165.44318 L336.471276,167.671397 L336.726095,169.792659 L337.229085,171.918377 L337.922635,174.037411 L338.866572,176.047262 L339.939027,177.952387 L341.264084,179.804034 L342.777486,181.486338 L344.477017,183.063915 L346.367107,184.478832 L348.512016,185.731089 L350.907313,186.76721 L353.490953,187.631758 L356.265154,188.235605 L359.289742,188.614401 L362.502674,188.777061 L363.70143,188.723584 L364.773885,188.667879 L365.910598,188.614401 L366.918794,188.505219 L367.92699,188.342559 L368.935186,188.121966 L369.943382,187.905829 L370.889535,187.689692 L372.841668,187.090301 L374.796017,186.386185 L376.750366,185.621907 L378.890844,184.750674 Z M550.343985,176.047262 L531.243657,176.047262 L525.509127,193.126539 L517.822463,193.07529 L537.233005,137.543685 L547.257354,137.543685 L566.922715,193.07529 L555.7683,193.126539 L550.343985,176.047262 Z M540.702972,147.223056 L532.630757,170.935734 L548.704281,170.935734 L540.702972,147.223056 Z M930.374035,162.074118 L930.374035,143.196669 L940.779504,143.196669 L941.90957,143.196669 L942.98424,143.361557 L943.992436,143.579923 L945.000632,143.905242 L945.949001,144.344201 L946.890723,144.774247 L947.708358,145.317931 L948.466167,145.970799 L949.161933,146.623666 L949.793441,147.330011 L950.360689,148.149994 L950.801637,148.965521 L951.178325,149.832297 L951.430928,150.757007 L951.619272,151.679489 L951.679099,152.662132 L951.619272,153.584614 L951.430928,154.565029 L951.178325,155.434033 L950.801637,156.309722 L950.360689,157.123021 L949.793441,157.93632 L949.161933,158.642664 L948.466167,159.295532 L947.708358,159.948399 L946.890723,160.49654 L945.949001,160.928814 L945.000632,161.363317 L943.992436,161.693093 L942.98424,161.907001 L941.90957,162.074118 L940.779504,162.074118 L930.374035,162.074118 Z" id="Fill-9" fill="#0077B9"></path>
                <path d="M386.30195,57.548393 L416.128518,57.548393 L416.128518,33.3596947 L386.30195,33.3596947 L386.30195,57.548393 Z M344.430379,72.3087958 L344.430379,67.2437353 L372.680944,67.2437353 L372.680944,100 L386.490361,100 L386.490361,67.2437353 L416.126301,67.2437353 L416.126301,71.8210492 L430,71.8210492 L430,23.2847487 L386.364015,23.2847487 L386.364015,4 L372.743009,4 L372.743009,23.2847487 L331,23.2847487 L331,72.3087958 L344.430379,72.3087958 Z M344.430379,57.548393 L372.743009,57.548393 L372.743009,33.3596947 L344.430379,33.3596947 L344.430379,57.548393 Z" id="Fill-10" fill="#0077B9"></path>
                <polygon id="Fill-11" fill="#0077B9" points="727.521673 4 741.484135 4.05071606 741.54576 20.6304575 788 20.6833786 788 30.9125873 723.326771 30.9125873 722.950419 42.3214957 775.230421 42.3214957 774.977319 46.5750296 774.728618 50.9344057 774.416091 55.3489079 774.162988 59.7634102 773.852662 64.1757074 773.601761 68.5350834 773.289234 72.7334912 773.038332 76.7687255 772.725805 80.1071652 772.411078 83.013416 772.162377 84.3033679 771.9731 85.4896827 771.662774 86.6186663 771.348047 87.6440127 771.03552 88.6120279 770.661368 89.4719959 770.218989 90.2768377 769.781011 91.0331685 769.217583 91.679247 768.654154 92.3253255 768.0269 92.8633568 767.340221 93.401388 766.649141 93.829167 765.837012 94.2084349 764.963257 94.5877028 763.895824 94.9096395 762.705142 95.1786552 761.455035 95.4476708 760.079477 95.7144813 758.640093 95.983497 755.508223 96.4708122 752.002201 96.8985911 748.304701 97.3859063 744.301278 97.9217325 743.924925 96.3054337 743.361497 94.7442611 742.734242 93.1852935 742.047564 91.6241209 741.294858 90.1180744 740.416702 88.5569018 739.481323 87.0508553 738.541542 85.4896827 743.112796 85.3265093 747.116219 85.2206671 748.870331 85.1148249 750.562817 85.0023675 752.002201 84.8987304 753.37996 84.6804308 754.005013 84.5745886 754.568442 84.4114152 755.134071 84.2504468 755.629272 84.0365573 756.135477 83.8733839 756.571254 83.6043683 756.947607 83.3882738 757.323959 83.064132 757.698111 82.7421953 757.949013 82.4180535 758.26374 82.0454007 758.450816 81.6154168 758.640093 81.1832277 758.827169 80.7003226 758.888794 80.1622914 759.014245 79.6220551 759.265146 77.3089618 759.516048 74.6695216 759.828575 71.7125548 760.079477 68.4799573 760.328178 64.9276281 760.517454 61.1062832 760.642905 57.0688439 760.702329 52.817515 721.949013 52.817515 721.636486 55.6708446 721.323959 58.3610009 720.88158 60.9453149 720.384178 63.4215816 719.759125 65.73688 719.195696 67.9441311 718.504616 70.043335 717.756312 72.0344916 716.93758 73.9176009 716.127652 75.692663 715.249496 77.417009 714.311915 79.0288977 713.369933 80.5371492 712.368527 81.9924796 711.305496 83.3353527 710.238063 84.6253046 709.113407 85.8116194 707.98655 86.9957292 706.798068 88.0717917 705.607385 89.094933 704.418903 90.1180744 703.166595 91.0331685 701.978113 91.9482627 700.66198 92.8060256 698.157364 94.4796555 695.527297 96.0386231 692.961056 97.5446696 690.394816 99 689.267959 97.8136852 688.077276 96.6295755 686.888794 95.5027969 685.636486 94.3671982 684.379776 93.2404197 683.002017 92.109231 681.564835 90.9780424 680 89.8490588 682.693893 88.7178702 685.260133 87.5888866 687.639298 86.4047768 689.831387 85.2206671 691.895824 83.9285101 693.834811 82.6385581 695.591123 81.291275 697.217583 79.8910707 698.720792 78.4930715 700.098551 76.98482 701.348658 75.4787735 702.477716 73.8646798 703.540747 72.248381 704.480528 70.5769561 705.292658 68.8592252 706.047564 67.079753 706.670416 65.2495648 707.236046 63.3664554 707.737849 61.430425 708.175827 59.4392684 708.552179 57.3929856 708.860304 55.2937818 709.113407 53.1416568 709.302684 50.9344057 709.491961 48.6742335 709.61301 46.306014 709.679036 43.9355894 709.742862 41.4637328 709.866112 36.398742 709.929938 31.0184295 681.62646 31.0184295 681.62646 20.7936309 727.521673 20.7936309"></polygon>
                <path d="M963.211109,14.7439355 L923.150123,14.7439355 L923.150123,37.1010138 L936.443432,36.992085 L936.443432,24.4563821 L1006.19586,24.4030292 L1006.19586,36.7208746 L1019.74176,36.7208746 L1019.74176,14.6883596 L977.519243,14.7439355 L977.519243,4.05112984 L963.338521,4 L963.211109,14.7439355 Z M953.480863,30.9143032 L952.591215,31.6212288 L951.638979,32.3259314 L950.621919,33.0306339 L948.518504,34.4400391 L946.292149,35.8538903 L943.945088,37.2077196 L941.461673,38.510419 L938.984964,39.8153414 L936.443432,41.0046659 L933.962253,42.2006596 L931.418485,43.3433004 L928.937306,44.4236961 L926.520951,45.4040552 L924.232007,46.3243923 L922.005652,47.1935996 L919.908943,47.9538781 L918,48.6030048 L919.081884,49.7967754 L920.161532,50.992769 L921.238945,52.2932454 L922.323064,53.544815 L923.340124,54.8452913 L924.294595,56.041285 L925.184243,57.1772566 L925.948715,58.2665445 L928.237658,57.2861854 L930.651779,56.1991206 L933.26037,55.007573 L935.931549,53.7604495 L938.732376,52.4021742 L941.461673,50.992769 L944.2625,49.5833639 L947.058856,48.1161598 L949.7278,46.7045316 L952.276038,45.2395505 L954.690158,43.8834982 L956.914278,42.5807988 L958.950634,41.3336753 L960.727694,40.1376817 L962.194049,39.1084158 L963.338521,38.2392085 L954.370511,30.1540247 L953.480863,30.9143032 Z M979.488539,39.3262734 L983.176778,41.0046659 L987.37243,42.9609381 L992.012906,45.0772688 L996.912676,47.4136802 L1001.80798,49.8523513 L1006.63845,52.2932454 L1008.93187,53.544815 L1011.15599,54.7897154 L1013.19234,55.983486 L1015.16164,57.1772566 L1016.56093,55.7678515 L1018.02282,54.1917186 L1019.48694,52.6733846 L1020.884,51.1550507 L1022.09553,49.8523513 L1023.11259,48.8208623 L1023.74741,48.1717357 L1024,47.9027483 L1024,47.8983022 L1022.28553,46.975742 L1020.504,45.999829 L1018.5347,45.023916 L1016.43352,44.0457799 L1011.92046,41.9294491 L1007.08775,39.7619885 L1001.99574,37.5878588 L996.783029,35.3092464 L991.632905,33.0306339 L986.482782,30.7542445 L979.488539,39.3262734 Z M933.325193,57.7196775 L933.325193,67.7589105 L962.576285,67.7589105 L962.576285,84.6895566 L919.716708,84.6895566 L919.716708,95 L1022.0307,95 L1022.0307,84.6895566 L977.836655,84.6895566 L977.836655,67.7589105 L1008.60998,67.7589105 L1008.48704,57.7196775 L933.325193,57.7196775 Z" id="Fill-12" fill="#0077B9"></path>
                <path d="M517.542098,52.4645785 L524.91992,52.515391 L524.91992,43.9457509 L504.677465,43.9457509 L504.677465,33.5380235 L528.642085,33.5380235 L528.642085,25.1760518 L470.056237,25.1760518 L470.056237,33.5380235 L492.568792,33.5380235 L492.568792,43.9457509 L472.576845,43.9457509 L472.576845,52.4115568 L492.568792,52.4115568 L492.568792,66.9152143 L467.910284,66.9152143 L467.910284,75.7588001 L529.839207,75.7588001 L529.839207,66.8644018 L504.677465,66.9152143 L504.677465,52.4115568 L516.595485,52.4645785 L508.650138,56.6687614 L509.847261,57.7512887 L511.108673,58.9332319 L512.308012,60.2322647 L513.569425,61.5246698 L514.766548,62.761844 L515.903814,64.0056458 L516.912501,65.1897982 L517.859114,66.2170946 L525.92639,61.7389661 L524.91992,60.4995827 L523.782654,59.2027591 L522.583314,57.9081447 L521.452699,56.6157396 L520.317649,55.374147 L519.244673,54.2452256 L518.300276,53.270951 L517.542098,52.4645785 Z M462.928924,99 L462.928924,91.1815013 L534.949147,91.1815013 L534.949147,98.7857038 L548,98.7857038 L548,9 L450,9 L450,99 L462.928924,99 Z M462.928924,82.176641 L534.949147,82.176641 L534.949147,18.2743875 L462.928924,18.2743875 L462.928924,82.176641 Z" id="Fill-13" fill="#0077B9"></path>
                <path d="M629.977653,41.8704155 L628.529293,43.7524764 L627.264747,45.4780662 L626.06664,47.1463567 L624.937185,48.7066602 L623.803302,50.1567727 L622.607409,51.6619807 L621.409301,53.1165008 L620.082746,54.619505 L609.251057,54.619505 L614.101067,52.6294569 L613.21965,51.3931148 L612.085766,49.9958939 L610.827864,48.4355905 L609.441514,46.8752871 L608.117173,45.3678753 L606.857057,43.9706544 L605.723173,42.7343123 L604.837326,41.8219315 L629.977653,41.8704155 Z M631.678478,41.7117406 L650.511576,41.6566451 L650.511576,82.4294894 L650.451782,83.1325075 L650.389772,83.7804301 L650.263539,84.3666458 L650.070868,84.8536897 L649.820616,85.3385297 L649.570364,85.7660705 L649.19388,86.1429234 L648.753171,86.4646809 L648.305818,86.7335468 L647.741091,87.0024126 L647.109926,87.167699 L646.356956,87.3285777 L645.601772,87.4365648 L644.715925,87.5445519 L643.710489,87.5952398 L642.640829,87.5952398 L637.474129,87.5952398 L638.41977,89.1555432 L639.301188,90.6651588 L640.120596,92.0601758 L640.87578,93.4596005 L641.633179,94.8083374 L642.26213,96.148259 L642.891081,97.5498875 L643.460238,99 L646.671431,98.5724592 L649.444131,98.138307 L651.838132,97.653467 L653.791423,97.2237224 L655.43024,96.6859907 L656.814375,96.2011506 L658.012482,95.6656228 L659.017918,95.1278911 L659.965774,94.5350639 L660.844977,93.8893451 L661.221462,93.5168998 L661.600161,93.137843 L661.916851,92.7058946 L662.229112,92.2232584 L662.486008,91.6855267 L662.738474,91.0926996 L662.926716,90.4469808 L663.114959,89.6932749 L663.243406,88.8866773 L663.367425,87.9720927 L663.42722,86.949521 L663.42722,85.8189621 L663.367425,32.6716775 L624.055768,32.6716775 L623.993759,25.2492171 L672,25.2492171 L672,15.5127473 L623.929535,15.5127473 L623.929535,4.05289164 L610.44695,4 L610.44695,15.5127473 L562,15.5127473 L562,25.2492171 L610.44695,25.2492171 L610.382726,32.6716775 L571.32575,32.6716775 L571.32575,98.51516 L584.050936,98.51516 L584.050936,41.6566451 L604.084357,41.7117406 L594.694383,45.2598882 L595.642239,46.3353516 L596.58788,47.5188021 L597.533521,48.7066602 L598.541172,49.9407985 L599.422589,51.1793444 L600.36823,52.3627949 L601.185424,53.5440416 L602.004832,54.619505 L590.225287,54.619505 L590.225287,62.9036583 L610.887659,62.9036583 L610.887659,70.0594567 L586.823636,70.0594567 L586.823636,79.0422205 L610.887659,79.0422205 L610.887659,95.9322848 L623.045903,95.9322848 L623.045903,79.0422205 L647.178579,79.0422205 L647.178579,70.0594567 L623.045903,70.0594567 L623.045903,62.9036583 L645.096839,62.9036583 L645.096839,54.619505 L632.61969,54.619505 L633.505537,53.7622196 L634.637206,52.6294569 L635.837528,51.3931148 L637.155224,50.1016772 L638.41977,48.8102396 L639.55144,47.6267892 L640.499295,46.6042174 L641.188041,45.8549192 L631.678478,41.7117406 Z" id="Fill-14" fill="#0077B9"></path>
                <path d="M829.393013,29.5420259 L819.440675,30.9416494 L820.013391,32.9373272 L820.521482,34.8226245 L820.962718,36.6549392 L821.406183,38.4298562 L821.78948,40.1032231 L822.103694,41.6662097 L822.420137,43.174006 L822.738807,44.5758371 L832.374704,42.6353496 L832.120659,41.3438989 L831.804216,39.7809123 L831.423148,38.0015802 L830.979683,36.1692654 L830.538446,34.2817605 L830.088296,32.504636 L829.711684,30.8864592 L829.393013,29.5420259 Z M817.033929,47.0549811 L835.416563,47.0549811 L835.416563,26.685381 L817.033929,26.685381 L817.033929,47.0549811 Z M844.481971,93.0195896 L845.941618,93.6642112 L847.459205,94.313248 L848.851998,95.0660423 L850.313873,95.8188367 L851.711122,96.5760463 L853.037061,97.3332559 L854.371913,98.0286524 L855.637683,98.7306718 L857.222124,97.3332559 L858.683999,95.7680617 L859.38151,94.9600772 L860.07902,94.09911 L860.774302,93.180745 L861.471813,92.2645876 L862.106926,91.2954477 L862.739811,90.2711175 L863.374925,89.1938048 L863.943184,88.116492 L864.5159,86.9310064 L865.086388,85.6903307 L865.592251,84.3966723 L866.100341,83.0500314 L866.543806,81.6504078 L866.987272,80.1404039 L867.428508,78.6303999 L867.809576,76.9592406 L868.190644,75.2902888 L868.509315,73.5109567 L868.823529,71.6256594 L869.079803,69.6873795 L869.333849,67.6387191 L869.523268,65.5392838 L869.714917,63.2720703 L869.837482,60.9540818 L869.904336,58.5323356 L869.966734,56.0553993 L870.026902,53.4128924 L869.966734,50.6622127 L869.966734,47.8629656 L880.362538,47.8629656 L879.540233,86.606488 L879.540233,87.8471638 L879.540233,89.0326494 L879.600402,90.0547719 L879.729653,91.0261195 L879.983698,91.8892943 L880.233286,92.6420886 L880.554186,93.3419004 L880.995423,93.935747 L881.251696,94.2558502 L881.568139,94.4744034 L881.819956,94.7437316 L882.198795,94.9600772 L882.519695,95.1234402 L882.898534,95.3353705 L883.344228,95.4987335 L883.785465,95.6046987 L884.799418,95.8740269 L885.880225,96.0373899 L887.145995,96.1433551 L888.601185,96.1963377 L898.749629,96.1963377 L899.447139,96.1433551 L900.142421,95.9270095 L900.773078,95.6598889 L901.405963,95.2823879 L901.978679,94.7437316 L902.549167,94.149885 L903.121883,93.4522808 L903.692371,92.5868984 L904.262859,91.6729487 L904.766493,90.5912207 L905.276812,89.4101503 L905.8473,88.1694746 L906.35539,86.7676434 L906.925878,85.2068645 L907.433969,83.5886878 L908,81.8115632 L906.674061,81.2729068 L905.341437,80.6238701 L903.946416,79.9792485 L902.611564,79.2772291 L901.283397,78.5774173 L900.01317,77.824623 L898.807569,77.0674134 L897.793616,76.3676016 L897.412548,77.9305882 L897.098334,79.4935747 L896.779663,80.9483884 L896.467677,82.2950294 L896.084381,83.4275324 L895.767938,84.3966723 L895.57629,84.8271559 L895.384642,85.1516743 L895.195222,85.4210025 L895.005802,85.6373481 L894.691588,85.7962959 L894.435314,85.9596589 L894.118872,86.0148491 L893.867055,86.0656241 L893.296567,86.0148491 L892.853102,85.9596589 L892.536659,85.9066763 L892.282614,85.7962959 L892.090966,85.6373481 L891.963943,85.4210025 L891.901546,85.1516743 L891.83692,84.7741733 L891.83692,84.3436897 L891.83692,83.807241 L891.83692,81.5974252 L891.83692,78.8467455 L891.901546,75.7207724 L891.963943,72.2702809 L892.024112,68.6078591 L892.155591,64.8350568 L892.282614,60.9540818 L892.345011,57.1834871 L892.472034,53.4680826 L892.536659,50.0153835 L892.661454,46.8386355 L892.726079,44.0349732 L892.853102,41.7213999 L892.853102,39.9420677 L892.915499,38.8095648 L892.915499,38.4298562 L858.302931,38.4298562 L858.302931,59.070992 L858.236077,61.9784119 L858.044429,64.7820742 L857.79484,67.5305463 L857.413772,70.1708456 L857.161955,71.4115214 L856.90791,72.7051797 L856.651636,73.8906653 L856.337422,75.1269258 L856.016523,76.314619 L855.637683,77.4493296 L855.256615,78.5774173 L854.815378,79.6569377 L854.371913,80.7320429 L853.861594,81.7541654 L853.418129,82.7807032 L852.847641,83.7498431 L852.28161,84.7211907 L851.711122,85.6373481 L851.138406,86.5535054 L850.505521,87.36149 L849.80801,88.2246648 L849.172897,88.9774592 L848.412989,89.7324611 L847.715479,90.4852555 L846.955571,91.1872749 L846.131038,91.8341041 L845.306505,92.425743 L844.481971,93.0195896 Z M829.141197,59.3403202 L818.80779,60.4728232 L819.31588,62.5192759 L819.821743,64.726884 L820.262979,67.0448725 L820.644047,69.3098785 L821.027344,71.5726768 L821.406183,73.6213371 L821.724854,75.5066344 L821.976671,77.0144308 L832.312307,74.8575977 L832.056033,73.1356633 L831.672736,71.1421932 L831.233728,68.9323775 L830.790263,66.7225618 L830.279944,64.512746 L829.836479,62.4662933 L829.455411,60.7421514 L829.141197,59.3403202 Z M797.381068,47.0019985 L797.381068,56.7000209 L806.130034,56.7000209 L806.130034,59.5014756 L806.06318,62.0336021 L805.87376,64.4575558 L805.682112,66.8837171 L805.432524,69.1465155 L805.051456,71.4115214 L804.668159,73.5661469 L804.226922,75.6677898 L803.718832,77.7186578 L803.150572,79.6569377 L802.453062,81.4892524 L801.755551,83.3193596 L800.931018,84.9905189 L800.104256,86.6616782 L799.157157,88.2246648 L798.143204,89.6794785 L797,91.0791021 L798.205601,91.8892943 L799.469143,92.803244 L800.741598,93.772384 L802.009596,94.7437316 L803.34222,95.8188367 L804.668159,96.8453745 L806.003011,97.9226872 L807.266553,99 L808.539008,97.3332559 L809.675527,95.6046987 L810.68948,93.8805568 L811.705662,92.048242 L812.597049,90.1099621 L813.419354,88.0613018 L814.119093,85.9066763 L814.751978,83.5357052 L815.322465,81.0565612 L815.828328,78.3080891 L816.209396,75.396254 L816.525838,72.1665234 L816.779884,68.7182395 L816.904678,64.9984198 L817.033929,60.9540818 L817.033929,56.6426231 L835.416563,56.6426231 L835.416563,82.4561848 L835.354166,82.9970488 L835.28954,83.480515 L835.10012,83.9109985 L834.910701,84.2884995 L834.59203,84.6130179 L834.148565,84.8271559 L833.640474,85.0435015 L833.007589,85.2620547 L832.245453,85.3680199 L831.360751,85.4761927 L830.346798,85.5269677 L829.141197,85.5843655 L826.286529,85.5843655 L822.671953,85.5269677 L823.496487,86.8250412 L824.196226,88.116492 L824.829111,89.4101503 L825.399598,90.7038087 L825.845292,92.048242 L826.224132,93.4522808 L826.542803,94.9048869 L826.857017,96.4656659 L829.522265,96.1963377 L831.993636,95.8740269 L834.21319,95.5517161 L836.238868,95.1742151 L838.017185,94.7437316 L839.661795,94.313248 L841.056816,93.8297818 L842.327043,93.2889178 L842.830677,92.9643994 L843.340996,92.6950712 L843.84463,92.3727604 L844.230155,92.1034322 L844.669163,91.7789139 L844.990062,91.4014129 L845.306505,91.0791021 L845.56055,90.7038087 L845.812367,90.3770827 L846.004015,90.0017893 L846.193435,89.6242883 L846.320458,89.1938048 L846.512106,88.3836126 L846.574503,87.5226454 L846.512106,18.2258267 L831.169103,18.2258267 L831.550171,16.9321683 L831.993636,15.4221644 L832.434873,13.8084029 L832.878338,12.1902261 L833.388657,10.6272396 L833.832122,9.1702182 L834.21319,7.87876746 L834.59203,6.9096275 L833.388657,6.64029931 L831.741819,6.37097112 L829.903333,6.04645272 L827.937824,5.72414194 L825.972315,5.39741594 L824.325477,5.12808775 L822.992853,4.91394976 L822.16832,4.75279437 L821.976671,6.10164293 L821.78948,7.55645667 L821.535435,9.1702182 L821.216764,10.8965678 L820.895864,12.6736923 L820.583879,14.5611972 L820.140414,16.393512 L819.692491,18.2258267 L806.130034,18.2258267 L806.130034,47.0019985 L797.381068,47.0019985 Z M882.644489,19.947761 L882.644489,4 L869.202369,4 L869.202369,19.947761 L849.491568,19.947761 L849.491568,29.6479911 L904.262859,29.6479911 L904.262859,19.947761 L882.644489,19.947761 Z" id="Fill-15" fill="#0077B9"></path>
            </g>
        </g>
    </g>
</svg>