<?xml version="1.0" encoding="UTF-8"?>
<svg width="1024px" height="320px" viewBox="0 0 1024 320" version="1.1" xmlns="http://www.w3.org/2000/svg" xmlns:xlink="http://www.w3.org/1999/xlink">
    <title>中国黄金集团有限公司@2x</title>
    <defs>
        <polygon id="path-1" points="0 320 1024 320 1024 0 0 0"></polygon>
    </defs>
    <g id="页面-1" stroke="none" stroke-width="1" fill="none" fill-rule="evenodd">
        <g id="90.中国黄金集团有限公司" transform="translate(0.000000, -224.000000)">
            <g id="中国黄金集团有限公司" transform="translate(0.000000, 224.000000)">
                <path d="M458.835558,114.5652 L458.835558,114.5652 L458.835558,83.8606471 L419.989826,83.8606471 L419.989826,114.5652 L458.835558,114.5652 Z M358.583501,114.5652 L358.583501,114.5652 L396.549577,114.5652 L396.549577,83.8606471 L358.583501,83.8606471 L358.583501,114.5652 Z M335.672195,138.637822 L336.18964,118.080267 L336.18964,79.6322537 L335.672195,62.2717767 L353.791387,62.9650499 L396.549577,62.9650499 L396.549577,52.2307747 L395.853901,31 L420.679753,31 L419.989826,52.2307747 L419.989826,62.9650499 L463.788654,62.9650499 L482.52878,62.2717767 L481.92797,79.6322537 L481.92797,118.080267 L482.52878,138.892786 L458.571086,138.892786 L458.835558,135.964996 L419.989826,135.964996 L419.989826,170.877889 L420.679753,191 L395.853901,191 L396.549577,170.877889 L396.549577,135.964996 L358.583501,135.964996 L359.026204,138.637822 L335.672195,138.637822 Z" id="Fill-1" fill="#EABF2B"></path>
                <g id="编组">
                    <path d="M613.717404,139.78551 L613.717404,139.78551 C612.688364,138.333867 611.459234,136.736201 610.084323,134.969605 C608.697978,133.182968 605.047747,129.775758 599.165071,124.831008 C602.272199,122.938432 605.487947,120.373004 608.783731,117.177671 L597.004088,117.177671 L597.004088,139.78551 L613.717404,139.78551 Z M537.674248,139.344577 L537.674248,157.305441 L552.658206,156.864508 L619.597221,156.864508 L635.555907,157.305441 L635.555907,139.344577 L622.715782,139.78551 C625.562791,136.67321 628.203992,133.875862 630.70513,131.350519 L626.534662,127.230371 L620.566233,121.549779 C619.577212,120.647871 618.233744,119.196228 616.490093,117.177671 L629.307351,117.870565 L629.307351,99.2769342 L618.296629,99.6348344 L597.004088,99.6348344 L597.004088,83.1456564 L619.345678,83.1456564 L634.235307,83.9015417 L634.235307,65.1618872 L618.296629,65.6028203 L554.65054,65.6028203 L539.90955,65.1618872 L539.90955,83.6495799 L554.65054,83.1456564 L576.634824,83.1456564 L576.634824,99.6348344 L559.072551,99.6348344 L544.340137,99.2769342 L544.340137,117.595698 L559.072551,117.177671 L576.634824,117.177671 L576.634824,139.78551 L552.823995,139.78551 L537.674248,139.344577 Z M534.810088,167.10618 L534.810088,167.10618 L638.411492,167.10618 L638.411492,55.8879772 L534.810088,55.8879772 L534.810088,167.10618 Z M514.103528,37.0022995 L531.259902,37.6092982 L642.559092,37.6092982 L659.54396,37.0022995 L658.923678,55.2151249 L658.923678,169.147643 L659.54396,188.671814 L638.411492,188.671814 L638.411492,185.158666 L534.810088,185.158666 L534.810088,187.472133 L514.103528,187.472133 L514.629482,167.947961 L514.629482,55.2151249 L514.103528,37.0022995 Z" id="Fill-2" fill="#EABF2B"></path>
                    <path d="M776.017789,143.887333 L776.017789,143.887333 L804.282072,143.887333 L804.282072,136.062203 L776.017789,136.062203 L776.017789,143.887333 Z M776.017789,119.82785 L776.017789,119.82785 L804.282072,119.82785 L804.282072,112.022762 L776.017789,112.022762 L776.017789,119.82785 Z M747.890711,70.0854487 L747.890711,70.0854487 L780.625599,70.0854487 L780.625599,58.7271279 L747.890711,58.7271279 L747.890711,70.0854487 Z M727.618635,143.887333 L727.618635,143.887333 L755.76858,143.887333 L755.76858,136.062203 L727.618635,136.062203 L727.618635,143.887333 Z M727.618635,119.82785 L727.618635,119.82785 L755.76858,119.82785 L755.76858,112.022762 L727.618635,112.022762 L727.618635,119.82785 Z M684.298933,69.664558 L696.518776,70.0854487 L727.618635,70.0854487 L727.618635,58.7271279 L702.05558,58.7271279 L686.988728,59.1480186 L686.988728,40.0705063 L701.278084,40.5114394 L727.618635,40.5114394 L727.084106,27.8704043 L748.313761,27.8704043 L747.890711,40.5114394 L780.625599,40.5114394 L780.291161,27.283448 L801.740917,27.283448 L801.406479,40.5114394 L830.351071,40.5114394 L840.975904,40.0705063 L840.975904,59.1480186 L828.521668,58.7271279 L801.406479,58.7271279 L801.406479,70.0854487 L832.669269,70.0854487 L845.226408,69.664558 L845.226408,88.3813069 L832.669269,87.9604162 L776.017789,87.9604162 L776.017789,94.986713 L808.595463,94.986713 L824.962907,94.5658223 L824.53414,108.151714 L824.53414,148.451276 L824.962907,161.599098 L805.908526,161.175344 C818.725784,165.868132 830.130971,170.389127 840.126946,174.73833 C839.126491,176.874279 838.454757,178.446176 838.057433,179.479792 L834.298581,188.753702 L832.240502,193.486574 C827.555514,191.259003 819.243162,187.533978 807.337748,182.320088 C795.409466,177.103335 785.813673,173.22656 778.547511,170.701216 C779.768066,168.768555 780.448376,167.611821 780.625599,167.276827 L783.30396,161.175344 L748.742527,161.175344 C750.549063,163.803763 751.640989,165.298355 752.038312,165.636212 L757.8238,171.923803 C747.610584,176.9115 738.49501,180.719558 730.462785,183.390925 C722.453428,186.062293 712.829051,188.902589 701.61538,191.931856 C700.480578,189.469502 699.44868,187.450945 698.591147,185.853279 C697.747907,184.232707 695.040961,180.089654 690.52748,173.458479 C705.960213,172.006836 720.512546,167.926774 734.190195,161.175344 L719.735049,161.175344 L706.486166,161.599098 L706.820604,146.999633 L706.820604,107.037928 L706.486166,94.5658223 L717.845618,94.986713 L755.76858,94.986713 L755.76858,87.9604162 L697.130483,87.9604162 L684.298933,88.3813069 L684.298933,69.664558 Z" id="Fill-4" fill="#EABF2B"></path>
                    <path d="M969.353433,84.8715944 L969.353433,84.8715944 C959.420344,76.4995929 952.828774,70.3150774 949.595875,66.2980056 L941.280665,56.4972665 C933.385646,64.8034144 928.574886,69.6622675 926.91699,71.0308778 L910.623865,84.8715944 L969.353433,84.8715944 Z M870.474177,86.4263128 C874.959073,84.9116792 881.310534,81.3784884 889.519981,75.8267405 C897.763731,70.295035 906.110384,63.6065961 914.571375,55.8244142 C923.012357,48.0021474 928.892174,40.2829559 932.196534,32.6038492 L934.097398,28.3147732 C937.161649,29.5774451 939.822859,30.5881553 942.055303,31.3211349 C944.324907,32.0569777 949.175684,33.2767016 956.619069,35.0232546 L953.583403,40.4289792 C955.787263,43.8562315 957.876784,46.8854988 959.90342,49.4938754 C961.921481,52.0822097 966.097666,56.1193239 972.377665,61.545091 C978.666239,66.9937636 986.624144,72.3994882 996.282823,77.7622648 C1005.93293,83.1250414 1015.15998,86.4893033 1023.99828,87.877956 C1020.24229,95.3022378 1018.10989,99.8232331 1017.5868,101.463848 L1014.73121,109.268935 C1004.29504,105.546773 992.889851,99.8890867 980.524227,92.2529281 L980.524227,102.895448 L969.965139,102.557591 L952.117022,102.557591 L952.117022,116.063313 L986.772783,116.063313 L1001.39658,115.619516 L1001.39658,134.800104 L987.547421,134.359171 L952.117022,134.359171 L952.117022,167.360432 L972.471994,167.360432 C968.827479,164.603169 965.323028,162.183764 961.901472,160.062131 C965.488818,155.518231 968.178612,151.733078 969.965139,148.660863 C971.745949,145.614416 973.692549,141.050473 975.756345,135.034886 C978.59192,136.821524 980.964427,138.187271 982.908169,139.112085 C984.829042,140.079848 988.962351,141.637429 995.245208,143.804873 C993.818845,146.390344 992.369615,149.061711 990.980411,151.816111 C989.554048,154.550468 988.442114,156.632016 987.624599,158.020669 C986.821377,159.432227 984.660394,162.541664 981.133076,167.360432 L1004.9439,167.360432 L1019.66774,167.025438 L1019.66774,186.523841 L1005.55561,186.082908 L878.580721,186.082908 L865.940686,186.523841 L865.940686,167.025438 L878.915158,167.360432 L903.191914,167.360432 C899.970449,160.777932 897.354973,155.876131 895.379789,152.657892 L890.803422,145.276558 C896.460281,143.109115 902.182883,140.102753 907.936929,136.228841 C913.47945,145.021733 916.692339,150.155454 917.564165,151.62714 L923.095251,161.513775 C919.75659,163.469341 916.566568,165.402002 913.562344,167.360432 L932.628158,167.360432 L932.628158,134.359171 L898.509784,134.359171 L882.739755,134.800104 L882.739755,115.619516 L898.684149,116.063313 L932.628158,116.063313 L932.628158,102.557591 L916.437938,102.557591 L902.737421,102.895448 L902.737421,90.6123136 C892.346981,97.8247184 882.351007,103.903295 872.786657,108.848045 C869.365101,102.958439 866.718183,98.7924805 864.805884,96.3759384 L859.537774,89.7504899 C862.339048,89.0117839 866.017864,87.8979984 870.474177,86.4263128 L870.474177,86.4263128 Z" id="Fill-6" fill="#EABF2B"></path>
                    <path d="M401.726419,259.634548 L416.993362,264.006657 C414.640864,271.768796 410.767674,277.512379 405.339491,281.277489 C399.911308,285.039736 393.013885,286.91227 384.675807,286.91227 C374.356829,286.91227 365.864395,283.736979 359.22709,277.300502 C352.592645,270.88693 349.253983,262.136986 349.253983,251.010585 C349.253983,239.231374 352.592645,230.103487 359.278542,223.583977 C365.955865,217.084509 374.745577,213.846228 385.621952,213.846228 C395.131991,213.846228 402.858362,216.388751 408.803924,221.502429 C412.328384,224.531697 414.986736,228.883763 416.750395,234.541449 L401.223333,237.93148 C400.308631,234.249403 398.387758,231.346116 395.469288,229.221621 C392.570827,227.120031 389.023499,226.04633 384.844455,226.04633 C379.09041,226.04633 374.408281,227.916001 370.818076,231.681111 C367.247881,235.446221 365.452779,241.527661 365.452779,249.939748 C365.452779,258.8758 367.216438,265.229244 370.735181,269.034439 C374.293943,272.799549 378.858876,274.715031 384.518593,274.715031 C388.686203,274.715031 392.276407,273.515349 395.28063,271.075902 C398.281995,268.636454 400.422969,264.828396 401.726419,259.634548" id="Fill-8" fill="#EABF2B"></path>
                    <polygon id="Fill-10" fill="#EABF2B" points="430.546955 285.736066 430.546955 215.02644 446.25124 215.02644 446.25124 242.871075 477.002369 242.871075 477.002369 215.02644 492.709512 215.02644 492.709512 285.736066 477.002369 285.736066 477.002369 254.862164 446.25124 254.862164 446.25124 285.736066"></polygon>
                    <mask id="mask-2" fill="white">
                        <use xlink:href="#path-1"></use>
                    </mask>
                    <g id="Clip-13"></g>
                    <polygon id="Fill-12" fill="#EABF2B" mask="url(#mask-2)" points="508.468394 285.736066 524.15267 285.736066 524.15267 215.02644 508.468394 215.02644"></polygon>
                    <polygon id="Fill-14" fill="#EABF2B" mask="url(#mask-2)" points="539.261256 285.736066 539.261256 215.02644 554.482464 215.02644 586.462723 262.429606 586.462723 215.02644 600.983613 215.02644 600.983613 285.736066 585.287903 285.736066 553.81073 239.317842 553.81073 285.736066"></polygon>
                    <path d="M658.779898,257.677263 L658.779898,257.677263 L648.103614,231.490422 L637.624563,257.677263 L658.779898,257.677263 Z M687.735925,285.736639 L670.651011,285.736639 L663.902228,269.648309 L632.813803,269.648309 L626.356581,285.736639 L609.717585,285.736639 L639.902741,215.027013 L656.636066,215.027013 L687.735925,285.736639 Z" id="Fill-15" fill="#EABF2B" mask="url(#mask-2)"></path>
                    <path d="M758.454087,259.802332 L758.454087,247.837012 L792.323777,247.837012 L792.323777,275.956515 C789.016558,278.879844 784.260109,281.405188 778.002978,283.609853 C771.765856,285.817381 765.44298,286.913988 759.020059,286.913988 C750.893506,286.913988 743.775983,285.379312 737.750385,282.267011 C731.681911,279.151848 727.136987,274.736791 724.081312,268.950261 C721.077088,263.192362 719.51352,256.899045 719.51352,250.127574 C719.51352,242.789188 721.225727,236.243909 724.61584,230.523232 C728.008812,224.802555 732.985361,220.407541 739.556921,217.358231 C744.53347,215.00468 750.747725,213.845083 758.179677,213.845083 C767.841213,213.845083 775.378927,215.697574 780.815686,219.379652 C786.275312,223.03596 789.762612,228.146775 791.291879,234.649106 L775.724799,237.30043 C774.62144,233.807324 772.56622,231.070104 769.541987,229.05441 C766.514896,227.053032 762.716025,226.045185 758.202544,226.045185 C751.327989,226.045185 745.865505,228.020794 741.803657,231.997781 C737.750385,235.928957 735.738042,241.778478 735.738042,249.56066 C735.738042,257.952703 737.784687,264.240294 741.886552,268.426295 C745.982701,272.615159 751.376583,274.713886 758.033896,274.713886 C761.329681,274.713886 764.625465,274.126929 767.932684,272.950153 C771.242761,271.790557 774.075477,270.381862 776.447985,268.718341 L776.447985,259.802332 L758.454087,259.802332 Z" id="Fill-16" fill="#EABF2B" mask="url(#mask-2)"></path>
                    <path d="M819.82114,250.337446 L819.82114,250.337446 C819.82114,258.331505 821.844917,264.387176 825.918198,268.510187 C829.994338,272.633197 835.159544,274.714745 841.436685,274.714745 C847.693816,274.714745 852.850447,272.676145 856.872276,268.573177 C860.879813,264.473072 862.895015,258.331505 862.895015,250.128432 C862.895015,242.048478 860.945557,235.992806 857.038066,232.018682 C853.110565,228.021653 847.913916,226.046044 841.436685,226.046044 C834.959453,226.046044 829.719927,228.067464 825.752409,232.081673 C821.802041,236.118787 819.82114,242.197364 819.82114,250.337446 M803.599476,250.821327 C803.599476,243.628965 804.797164,237.57043 807.146804,232.691535 C808.930472,229.072448 811.368724,225.854209 814.412966,223.016777 C817.457207,220.133533 820.818736,218.0119 824.491835,216.640427 C829.319745,214.773619 834.913718,213.845942 841.256603,213.845942 C852.713242,213.845942 861.900277,217.084223 868.754823,223.5207 C875.660821,229.980083 879.105245,238.959083 879.105245,250.46629 C879.105245,261.861833 875.695123,270.800748 868.849152,277.257268 C862.026049,283.693745 852.879031,286.911983 841.456694,286.911983 C829.885717,286.911983 820.681531,283.736693 813.844136,277.300216 C807.021032,270.886644 803.599476,262.053667 803.599476,250.821327" id="Fill-17" fill="#EABF2B" mask="url(#mask-2)"></path>
                    <polygon id="Fill-18" fill="#EABF2B" mask="url(#mask-2)" points="891.726128 285.736066 891.726128 215.570448 907.441847 215.570448 907.441847 273.767884 946.528194 273.767884 946.528194 285.736066"></polygon>
                    <path d="M973.373261,226.990041 L973.373261,226.990041 L973.373261,273.769029 L985.112886,273.769029 C989.49202,273.769029 992.650599,273.53711 994.617208,273.073271 C997.152647,272.5264 999.27647,271.518553 1000.95438,270.1299 C1002.62371,268.76129 1004.02149,266.513676 1005.07339,263.335522 C1006.14245,260.183138 1006.64554,255.845387 1006.64554,250.399578 C1006.64554,244.950905 1006.14245,240.767768 1005.07339,237.821533 C1004.02149,234.923973 1002.50937,232.627685 1000.59707,231.007113 C998.699065,229.366499 996.28368,228.252713 993.313758,227.685799 C991.141342,227.221961 986.822234,226.990041 980.430756,226.990041 L973.373261,226.990041 Z M957.657542,215.024722 L986.373459,215.024722 C992.830681,215.024722 997.764354,215.468518 1001.1659,216.370427 C1005.74227,217.590151 1009.63833,219.757594 1012.90267,222.889937 C1016.13842,226.002237 1018.63385,229.830337 1020.31747,234.33129 C1022.02682,238.855149 1022.85862,244.426939 1022.85862,251.052388 C1022.85862,256.879003 1022.05826,261.886742 1020.4804,266.112828 C1018.53094,271.243685 1015.75825,275.40678 1012.16805,278.604977 C1009.43823,281.001476 1005.76514,282.876873 1001.12302,284.242621 C997.658591,285.253331 993.019339,285.737212 987.225275,285.737212 L957.657542,285.737212 L957.657542,215.024722 Z" id="Fill-19" fill="#EABF2B" mask="url(#mask-2)"></path>
                    <polygon id="Fill-20" fill="#BF8818" mask="url(#mask-2)" points="229.922854 145.969167 267.457068 183.646037 234.479212 104.684663"></polygon>
                    <path d="M193.199867,235.090325 C154.856714,242.786611 123.025095,234.016624 123.025095,234.016624 C123.025095,234.016624 94.4692502,227.328186 69.6293817,194.601791 C51.2353018,170.304663 42.9315252,144.243802 49.4830763,99.2142301 C54.876958,62.5537969 84.5790379,30.3313261 120.00372,15.714682 C182.300624,-9.98541557 243.614224,14.8099103 243.614224,14.8099103 C243.614224,14.8099103 190.921688,-12.8686596 114.521227,7.44861895 C91.2763696,13.6732192 60.3480177,29.7844546 36.0341026,60.3033204 C-1.00845865,106.721545 -21.3948732,180.237109 34.836415,254.230828 C70.889955,301.636857 138.332056,326.70705 204.24489,318.440987 C264.675231,310.893587 300.422918,267.057971 300.422918,267.057971 L266.713301,186.083767 C266.713301,186.083767 231.583038,227.411218 193.199867,235.090325" id="Fill-21" fill="#004098" mask="url(#mask-2)"></path>
                    <polygon id="Fill-22" fill="#EAD333" mask="url(#mask-2)" points="109.032159 145.969167 76.0342946 181.750597 103.329566 105.460591"></polygon>
                    <polygon id="Fill-23" fill="#EABF2B" mask="url(#mask-2)" points="231.981505 147.210651 109.031302 145.968022 103.328708 105.419361 234.479784 104.683518"></polygon>
                    <polygon id="Fill-24" fill="#D59720" mask="url(#mask-2)" points="76.0328654 181.749166 267.457068 183.644605 229.922854 145.967735 109.03073 145.967735"></polygon>
                    <polygon id="Fill-25" fill="#FEFEFE" mask="url(#mask-2)" points="107.411708 147.821372 233.303249 147.821372 233.303249 144.918086 107.411708 144.918086"></polygon>
                    <polygon id="Fill-26" fill="#FEFEFE" mask="url(#mask-2)" points="230.218703 146.705869 234.534952 104.470782 236.644483 109.352541 233.105731 147.862602"></polygon>
                    <polygon id="Fill-27" fill="#FEFEFE" mask="url(#mask-2)" points="109.32515 147.378435 103.351004 105.421079 101.272916 111.330727 106.438122 147.756377"></polygon>
                    <polygon id="Fill-28" fill="#FEFEFE" mask="url(#mask-2)" points="76.0328654 181.749166 78.4482496 181.835062 110.028326 146.494564 107.918796 144.538998 76.97901 179.077799"></polygon>
                    <polygon id="Fill-29" fill="#FEFEFE" mask="url(#mask-2)" points="267.456496 183.645178 266.333128 183.688126 231.017066 147.359824 233.012259 145.295456 265.346965 178.491415"></polygon>
                </g>
            </g>
        </g>
    </g>
</svg>