<?xml version="1.0" encoding="UTF-8"?>
<svg width="1024px" height="378px" viewBox="0 0 1024 378" version="1.1" xmlns="http://www.w3.org/2000/svg" xmlns:xlink="http://www.w3.org/1999/xlink">
    <title>中国船舶集团有限公司@2x</title>
    <defs>
        <polygon id="path-1" points="0 0 25 0 25 28 0 28"></polygon>
        <polygon id="path-3" points="0 0 25 0 25 28 0 28"></polygon>
        <polygon id="path-5" points="0 0 25 0 25 28 0 28"></polygon>
        <polygon id="path-7" points="0 378 1024 378 1024 0 0 0"></polygon>
    </defs>
    <g id="页面-1" stroke="none" stroke-width="1" fill="none" fill-rule="evenodd">
        <g id="5.中国船舶集团有限公司" transform="translate(0.000000, -195.000000)">
            <g id="中国船舶集团有限公司" transform="translate(0.000000, 195.000000)">
                <path d="M478.314943,366.242207 C478.314943,369.60301 476.615024,372.963812 471.5,372.963812 L464.679967,372.963812 L464.679967,355.036188 L471.5,355.036188 C476.615024,355.036188 478.314943,358.39699 478.314943,361.762809 L478.314943,366.242207 Z M471.5,350 L459,350 L459,378 L471.5,378 C480.875,378 484,371.835185 484,366.518094 L484,361.481906 C484,356.159799 480.875,350 471.5,350 L471.5,350 Z" id="Fill-1" fill="#263D48"></path>
                <path d="M414.320033,351.372211 L414.320033,366.471456 C414.320033,369.766731 412.615024,373.062006 407.5,373.062006 C402.384976,373.062006 400.679967,369.766731 400.679967,366.471456 L400.679967,350 L396.414902,350 C395.636197,350 395,350.61479 395,351.372211 L395,366.7518 C395,371.960302 398.125,378 407.5,378 C416.875,378 420,371.960302 420,366.7518 L420,350 L415.740024,350 C414.95623,350 414.320033,350.61479 414.320033,351.372211" id="Fill-3" fill="#263D48"></path>
                <path d="M353.945416,362.881405 L345.409484,362.881405 L345.409484,355.036188 L353.945416,355.036188 C355.966702,355.036188 357.590516,356.159799 357.590516,358.963812 C357.590516,361.762809 355.966702,362.881405 353.945416,362.881405 M354.619178,350 L340,350 L340,378 L345.409484,378 L345.409484,367.917592 L354.619178,367.917592 C358.942887,367.917592 363,365.399498 363,358.963812 C363,352.518094 358.942887,350 354.619178,350" id="Fill-5" fill="#263D48"></path>
                <path d="M381.350163,372.963812 L371.690147,372.963812 L371.690147,366.242207 L381.350163,366.242207 C383.620114,366.242207 385.370928,367.360803 385.370928,369.60301 C385.370928,371.835185 383.620114,372.963812 381.350163,372.963812 L381.350163,372.963812 Z M371.690147,355.036188 L379.930171,355.036188 C382.34263,355.036188 383.696458,356.300251 383.696458,358.121104 C383.696458,359.941956 382.34263,361.195987 379.930171,361.195987 L371.690147,361.195987 L371.690147,355.036188 Z M389.300081,358.121104 C389.300081,352.798997 386.465187,350 380.78522,350 L366,350 L366,378 L382.495318,378 C386.750204,378 391,375.481906 391,369.60301 C391,366.518094 389.829397,364.391258 388.104031,363.031888 C388.903094,361.757793 389.300081,360.117521 389.300081,358.121104 L389.300081,358.121104 Z" id="Fill-7" fill="#263D48"></path>
                <path d="M330,351.118595 L330,378 L333.997314,378 C334.552372,378 335,377.503404 335,376.886421 L335,350 L330.998209,350 C330.447628,350 330,350.501612 330,351.118595" id="Fill-9" fill="#263D48"></path>
                <path d="M425,351.118595 L425,378 L429.006267,378 C429.556849,378 430,377.503404 430,376.886421 L430,350 L426.007162,350 C425.452104,350 425,350.501612 425,351.118595" id="Fill-11" fill="#263D48"></path>
                <path d="M489,351.118595 L489,378 L492.997314,378 C493.552372,378 494,377.503404 494,376.886421 L494,350 L489.998209,350 C489.447628,350 489,350.501612 489,351.118595" id="Fill-13" fill="#263D48"></path>
                <path d="M317.325122,351.193837 L317.325122,361.195987 L303.679967,361.195987 L303.679967,350 L299.211319,350 C298.549674,350 298,350.536725 298,351.193837 L298,378 L302.473738,378 C303.140472,378 303.679967,377.468291 303.679967,376.801147 L303.679967,366.242207 L317.325122,366.242207 L317.325122,378 L321.79886,378 C322.465594,378 323,377.468291 323,376.811179 L323,350 L318.531352,350 C317.859528,350 317.325122,350.526693 317.325122,351.193837" id="Fill-15" fill="#263D48"></path>
                <path d="M518.325122,351.193837 L518.325122,369.542816 L505.102402,350 L500.211319,350 C499.544585,350 499,350.536725 499,351.193837 L499,378 L503.473738,378 C504.140472,378 504.679967,377.468291 504.679967,376.801147 L504.679967,358.4622 L517.897598,378 L522.79886,378 C523.455415,378 524,377.468291 524,376.811179 L524,350 L519.526262,350 C518.859528,350 518.325122,350.526693 518.325122,351.193837" id="Fill-17" fill="#263D48"></path>
                <path d="M286.331698,361.216052 L286.331698,361.195987 L279.482722,361.195987 C278.216937,361.195987 276.480162,360.40344 276.480162,357.975636 C276.480162,355.562881 278.216937,355.036188 279.482722,355.036188 L291.542022,355.036188 L292.768558,350 L278.118814,350 L278.118814,350.020064 C274.620734,350.115371 271,352.498029 271,357.975636 C271,363.458259 274.620734,365.840917 278.118814,365.936224 L278.118814,365.956288 L284.96779,365.956288 C286.321886,365.956288 288.524744,367.054819 288.524744,369.60301 C288.524744,372.1512 286.321886,372.963812 284.96779,372.963812 L271.544582,372.963812 L271.544582,378 L286.606442,378 L286.606442,377.959871 C290.276237,377.784307 294,375.276245 294,369.60301 C294,363.784307 290.089804,361.276245 286.331698,361.216052" id="Fill-19" fill="#263D48"></path>
                <path d="M441.824911,350 L437.451008,350 C436.652432,350 436,350.627015 436,351.399498 L436,378 L456.684698,378 L458,372.963812 L441.824911,372.963812 L441.824911,350 Z" id="Fill-21" fill="#263D48"></path>
                <path d="M552.5899,362.038696 L548.323967,362.038696 L548.323967,369.337155 C548.323967,371.825152 547.300753,372.963812 544.348198,372.963812 L541.78762,372.963812 C536.961719,372.963812 534.681124,370.159799 534.681124,366.242207 L534.681124,361.752777 C534.681124,358.391974 536.381389,355.036188 541.502545,355.036188 L550.314396,355.036188 L551.597231,350 L541.502545,350 C532.125636,350 529,356.159799 529,361.481906 L529,366.518094 C529,372.391974 532.980859,378 541.78762,378 L545.045612,378 C550.635105,378 554,375.381584 554,369.868864 L554,363.438194 C554,362.665711 553.363673,362.038696 552.5899,362.038696" id="Fill-23" fill="#263D48"></path>
                <path d="M57,351.118595 L57,378 L61.0017905,378 C61.5523724,378 62,377.503404 62,376.886421 L62,350 L58.0026858,350 C57.4521038,350 57,350.501612 57,351.118595" id="Fill-25" fill="#263D48"></path>
                <path d="M46.3200326,351.193837 L46.3200326,361.195987 L32.6799674,361.195987 L32.6799674,350 L28.2113192,350 C27.5445847,350 27,350.536725 27,351.193837 L27,378 L31.4686482,378 C32.1404723,378 32.6799674,377.468291 32.6799674,376.801147 L32.6799674,366.242207 L46.3200326,366.242207 L46.3200326,378 L50.7937704,378 C51.4605049,378 52,377.468291 52,376.811179 L52,350 L47.5262622,350 C46.8595277,350 46.3200326,350.536725 46.3200326,351.193837" id="Fill-27" fill="#263D48"></path>
                <path d="M86.3200326,351.193837 L86.3200326,369.532784 L73.1024023,350 L68.2113192,350 C67.5394951,350 67,350.536725 67,351.193837 L67,378 L71.4686482,378 C72.1404723,378 72.6799674,377.468291 72.6799674,376.801147 L72.6799674,358.4622 L85.8975977,378 L90.7937704,378 C91.4554153,378 92,377.468291 92,376.811179 L92,350 L87.5262622,350 C86.8595277,350 86.3200326,350.526693 86.3200326,351.193837" id="Fill-29" fill="#263D48"></path>
                <polygon id="Fill-31" fill="#263D48" points="105.609101 350 95 377.929774 95 378 109.837693 378 111.101756 372.963812 102.88033 372.963812 109 356.847008 117.040846 378 123 378 123 377.919742 112.390899 350"></polygon>
                <path d="M12.1775975,355.036188 L20.7554654,355.036188 L22,350 L12.1775975,350 C3.03944106,350 0,356.164815 0,361.481906 L0,366.804013 C0,372.682909 2.48906919,378 11.3446022,378 L20.7554654,378 L22,372.963812 L11.8949741,372.963812 C6.9168357,372.963812 5.53346856,370.164815 5.53346856,366.804013 L5.53346856,361.757793 C5.53346856,358.39699 7.19450079,355.036188 12.1775975,355.036188" id="Fill-33" fill="#263D48"></path>
                <polygon id="Fill-35" fill="#263D48" points="949 355.04622 957.251232 355.04622 957.251232 378 962.748768 378 962.748768 355.04622 971 355.04622 971 350 949 350"></polygon>
                <path d="M894,351.118595 L894,378 L898.001791,378 C898.552372,378 899,377.503404 899,376.886421 L899,350 L895.002686,350 C894.452104,350 894,350.501612 894,351.118595" id="Fill-37" fill="#263D48"></path>
                <path d="M941,351.118595 L941,378 L944.997314,378 C945.552372,378 946,377.503404 946,376.886421 L946,350 L941.998209,350 C941.447628,350 941,350.501612 941,351.118595" id="Fill-39" fill="#263D48"></path>
                <polygon id="Fill-41" fill="#263D48" points="981.444796 365.961304 992.597612 365.961304 992.597612 361.201003 981.444796 361.201003 981.444796 355.036188 994.230563 355.036188 995.454058 350 976 350 976 378 994.776505 378 996 372.963812 981.444796 372.963812"></polygon>
                <path d="M874.824911,350 L870.451008,350 C869.652432,350 869,350.627015 869,351.399498 L869,378 L889.684698,378 L891,372.963812 L874.824911,372.963812 L874.824911,350 Z" id="Fill-43" fill="#263D48"></path>
                <path d="M1018.32003,366.242207 C1018.32003,369.60301 1016.61502,372.963812 1011.5,372.963812 L1004.67488,372.963812 L1004.67488,355.036188 L1011.5,355.036188 C1016.61502,355.036188 1018.32003,358.39699 1018.32003,361.762809 L1018.32003,366.242207 Z M1011.5,350 L999,350 L999,378 L1011.5,378 C1020.875,378 1024,371.835185 1024,366.518094 L1024,361.481906 C1024,356.159799 1020.875,350 1011.5,350 L1011.5,350 Z" id="Fill-45" fill="#263D48"></path>
                <polygon id="Fill-47" fill="#263D48" points="919.002488 366.026514 909.463593 350 904 350 904 378 909.558136 378 909.558136 361.040487 916.992204 373.520602 921.017748 373.520602 928.436888 361.040487 928.436888 378 934 378 934 350 928.541383 350"></polygon>
                <g id="编组" transform="translate(594.000000, 350.000000)">
                    <mask id="mask-2" fill="white">
                        <use xlink:href="#path-1"></use>
                    </mask>
                    <g id="Clip-50"></g>
                    <path d="M19.3200326,16.6947474 C19.3200326,19.9266112 17.6150244,23.158475 12.5,23.158475 C7.38497557,23.158475 5.67996743,19.9266112 5.67996743,16.6947474 L5.67996743,11.3066997 C5.67996743,8.07483591 7.38497557,4.84297207 12.5,4.84297207 C17.6150244,4.84297207 19.3200326,8.07483591 19.3200326,11.3066997 L19.3200326,16.6947474 Z M12.5,0 C3.11991042,0 0,5.92829948 0,11.0413975 L0,16.969697 C0,22.0731476 3.11991042,28.0014471 12.5,28.0014471 C21.875,28.0014471 25,22.0731476 25,16.969697 L25,11.0413975 C25,5.92829948 21.875,0 12.5,0 L12.5,0 Z" id="Fill-49" fill="#263D48" mask="url(#mask-2)"></path>
                </g>
                <path d="M581.175383,355.036188 L589.755185,355.036188 L591,350 L581.175383,350 C572.040126,350 569,356.164815 569,361.481906 L569,366.804013 C569,372.682909 571.48963,378 580.3422,378 L589.755185,378 L591,372.963812 L580.897656,372.963812 C575.913436,372.963812 574.529757,370.164815 574.529757,366.804013 L574.529757,361.757793 C574.529757,358.39699 576.196123,355.036188 581.175383,355.036188" id="Fill-51" fill="#263D48"></path>
                <path d="M666.943508,362.881405 L658.410624,362.881405 L658.410624,355.036188 L666.943508,355.036188 C668.965219,355.036188 670.589376,356.159799 670.589376,358.963812 C670.589376,361.762809 668.965219,362.881405 666.943508,362.881405 M667.617411,350 L653,350 L653,378 L658.410624,378 L658.410624,367.917592 L667.617411,367.917592 C671.942032,367.917592 676,365.399498 676,358.963812 C676,352.518094 671.942032,350 667.617411,350" id="Fill-53" fill="#263D48"></path>
                <g id="编组" transform="translate(679.000000, 350.000000)">
                    <mask id="mask-4" fill="white">
                        <use xlink:href="#path-3"></use>
                    </mask>
                    <g id="Clip-56"></g>
                    <path d="M19.3161001,16.6947474 C19.3161001,19.9266112 17.611439,23.158475 12.4974557,23.158475 C7.38856096,23.158475 5.68389986,19.9266112 5.68389986,16.6947474 L5.68389986,11.3066997 C5.68389986,8.07483591 7.38856096,4.84297207 12.4974557,4.84297207 C17.611439,4.84297207 19.3161001,8.07483591 19.3161001,11.3066997 L19.3161001,16.6947474 Z M12.4974557,0 C3.12436393,0 0,5.92829948 0,11.0413975 L0,16.969697 C0,22.0731476 3.12436393,28.0014471 12.4974557,28.0014471 C21.8756361,28.0014471 25,22.0731476 25,16.969697 L25,11.0413975 C25,5.92829948 21.8756361,0 12.4974557,0 L12.4974557,0 Z" id="Fill-55" fill="#263D48" mask="url(#mask-4)"></path>
                </g>
                <g id="编组" transform="translate(799.000000, 350.000000)">
                    <mask id="mask-6" fill="white">
                        <use xlink:href="#path-5"></use>
                    </mask>
                    <g id="Clip-58"></g>
                    <path d="M19.3200326,16.6947474 C19.3200326,19.9266112 17.6150244,23.158475 12.5,23.158475 C7.38497557,23.158475 5.67996743,19.9266112 5.67996743,16.6947474 L5.67996743,11.3066997 C5.67996743,8.07483591 7.38497557,4.84297207 12.5,4.84297207 C17.6150244,4.84297207 19.3200326,8.07483591 19.3200326,11.3066997 L19.3200326,16.6947474 Z M12.5,0 C3.125,0 0,5.92829948 0,11.0413975 L0,16.969697 C0,22.0731476 3.125,28.0014471 12.5,28.0014471 C21.8800896,28.0014471 25,22.0731476 25,16.969697 L25,11.0413975 C25,5.92829948 21.8800896,0 12.5,0 L12.5,0 Z" id="Fill-57" fill="#263D48" mask="url(#mask-6)"></path>
                </g>
                <path d="M723.639731,362.881405 L714.6839,362.881405 L714.6839,355.036188 L723.639731,355.036188 C725.766741,355.036188 727.466314,356.159799 727.466314,358.963812 C727.466314,361.762809 725.766741,362.881405 723.639731,362.881405 M732.463261,362.881405 C732.890698,361.772841 733.145125,360.488714 733.145125,358.963812 C733.145125,352.518094 728.886017,350 724.336861,350 L709,350 L709,378 L714.6839,378 L714.6839,367.917592 L720.357623,367.917592 L727.176267,378 L734,378 L726.95746,367.576496 C729.374517,366.984593 731.450641,365.514869 732.463261,362.881405" id="Fill-59" fill="#263D48"></path>
                <path d="M638.632533,362.881405 L629.674878,362.881405 L629.674878,355.036188 L638.632533,355.036188 C640.759976,355.036188 642.459894,356.159799 642.459894,358.963812 C642.459894,361.762809 640.759976,362.881405 638.632533,362.881405 M647.462948,362.881405 C647.885383,361.772841 648.139862,360.488714 648.139862,358.963812 C648.139862,352.518094 643.879886,350 639.329805,350 L624,350 L624,378 L629.674878,378 L629.674878,367.917592 L635.349756,367.917592 L642.169788,378 L649,378 L641.950936,367.576496 C644.378664,366.984593 646.445033,365.514869 647.462948,362.881405" id="Fill-61" fill="#263D48"></path>
                <path d="M789,351.118595 L789,378 L793.001791,378 C793.552372,378 794,377.503404 794,376.886421 L794,350 L790.002686,350 C789.447628,350 789,350.501612 789,351.118595" id="Fill-63" fill="#263D48"></path>
                <path d="M846.320033,351.193837 L846.320033,369.532784 L833.102402,350 L828.211319,350 C827.544585,350 827,350.536725 827,351.193837 L827,378 L831.478827,378 C832.145562,378 832.685057,377.468291 832.685057,376.801147 L832.685057,358.4622 L845.902687,378 L850.79377,378 C851.460505,378 852,377.468291 852,376.811179 L852,350 L847.531352,350 C846.859528,350 846.320033,350.526693 846.320033,351.193837" id="Fill-65" fill="#263D48"></path>
                <polygon id="Fill-67" fill="#263D48" points="746.609101 350 736 377.929774 736 378 750.837693 378 752.101756 372.963812 743.875314 372.963812 750 356.847008 758.040846 378 764 378 764 377.929774 753.385883 350"></polygon>
                <polygon id="Fill-69" fill="#263D48" points="762 355.04622 770.251232 355.04622 770.251232 378 775.748768 378 775.748768 355.04622 784 355.04622 784 350 762 350"></polygon>
                <polygon id="Fill-71" fill="#263D48" points="193.609101 350 183 377.929774 183 378 197.837693 378 199.101756 372.963812 190.875314 372.963812 197 356.847008 205.030813 378 211 378 211 377.929774 200.385883 350"></polygon>
                <polygon id="Fill-73" fill="#263D48" points="211 355.04622 219.246305 355.04622 219.246305 378 224.748768 378 224.748768 355.04622 233 355.04622 233 350 211 350"></polygon>
                <polygon id="Fill-75" fill="#263D48" points="241.441248 365.961304 252.601658 365.961304 252.601658 361.201003 241.441248 361.201003 241.441248 355.036188 254.235007 355.036188 255.458801 350 236 350 236 378 254.776207 378 256 372.963812 241.441248 372.963812"></polygon>
                <polygon id="Fill-77" fill="#263D48" points="161 355.04622 169.251232 355.04622 169.251232 378 174.748768 378 174.748768 355.04622 183 355.04622 183 350 161 350"></polygon>
                <path d="M150.336604,361.216052 L150.336604,361.195987 L143.487628,361.195987 C142.216937,361.195987 140.475256,360.40344 140.475256,357.975636 C140.475256,355.552848 142.216937,355.04622 143.487628,355.04622 L155.542022,355.04622 L156.773464,350 L142.118814,350 L142.118814,350.020064 C138.62564,350.115371 135,352.498029 135,357.975636 C135,363.458259 138.62564,365.850949 142.118814,365.936224 L142.118814,365.956288 L148.96779,365.956288 C150.326792,365.956288 152.524744,367.044787 152.524744,369.60301 C152.524744,372.1512 150.326792,372.963812 148.96779,372.963812 L135.544582,372.963812 L135.544582,378 L150.611348,378 L150.611348,377.969903 C154.281143,377.794339 158,375.276245 158,369.60301 C158,363.784307 154.09471,361.276245 150.336604,361.216052" id="Fill-79" fill="#263D48"></path>
                <polygon id="Fill-81" fill="#263D48" points="153.729064 304.061795 153.729064 286.490209 170.561576 286.490209 170.561576 277.547088 153.729064 277.547088 153.729064 263.952954 172.044335 263.952954 172.044335 255 121.965517 255 121.965517 263.952954 140.285714 263.952954 140.285714 277.547088 123.448276 277.547088 123.448276 286.490209 140.285714 286.490209 140.285714 304.061795 121 304.061795 121 313 173 313 173 304.061795"></polygon>
                <mask id="mask-8" fill="white">
                    <use xlink:href="#path-7"></use>
                </mask>
                <g id="Clip-84"></g>
                <path d="M120.001365,318.103515 L176.998635,318.103515 L176.998635,250.896485 L120.001365,250.896485 L120.001365,318.103515 Z M189.52616,241 L185.310737,241 L176.993687,241 L120.001365,241 L111.684315,241 L107.47384,241 C106.10828,241 105,242.108406 105,243.474121 L105,325.525879 C105,326.896542 106.10828,328 107.47384,328 L111.684315,328 L120.001365,328 L176.993687,328 L180.768767,328 L185.513592,328 C189.095712,328 192,325.10033 192,321.522751 L192,243.474121 C192,242.108406 190.886772,241 189.52616,241 L189.52616,241 Z" id="Fill-83" fill="#263D48" mask="url(#mask-8)"></path>
                <polygon id="Fill-85" fill="#263D48" mask="url(#mask-8)" points="161.574234 302 171 302 167.425766 290 158 290"></polygon>
                <path d="M374.307666,318.160452 L390.692334,318.160452 L390.692334,289.67004 L374.307666,289.67004 L374.307666,318.160452 Z M374.312543,279.830491 L390.69721,279.830491 L390.69721,256.623917 L374.312543,256.623917 L374.312543,279.830491 Z M401.561805,246.784369 L393.125652,246.784369 L390.69721,246.784369 L386.830234,246.784369 L390.389998,240 L377.087208,240 L373.522567,246.784369 L366.958948,246.784369 L363.438195,246.784369 C362.097188,246.784369 361,247.891318 361,249.244256 L361,325.540113 C361,326.90289 362.097188,328 363.438195,328 L366.958948,328 L374.307666,328 L390.69721,328 L393.125652,328 L397.616807,328 C401.142436,328 404,325.117012 404,321.560016 L404,249.244256 C404,247.891318 402.912565,246.784369 401.561805,246.784369 L401.561805,246.784369 Z" id="Fill-86" fill="#263D48" mask="url(#mask-8)"></path>
                <path d="M331.352382,279.830491 L331.352382,272.509868 L339.760983,272.509868 L339.760983,263.560798 L331.352382,263.560798 L331.352382,255.743277 L342.402689,255.743277 L342.402689,279.830491 L331.352382,279.830491 Z M353.507824,246.784369 L342.402689,246.784369 L342.402689,246.794208 L339.038252,246.794208 L342.671844,240 L329.079518,240 L325.435957,246.784369 L320.237278,246.784369 C318.861597,246.784369 317.750087,247.891318 317.750087,249.244256 L317.750087,279.830491 L313,279.830491 L313,289.67004 L317.750087,289.67004 L317.750087,309.791916 C317.750087,315.941634 316.927669,322.061833 315.317723,328 L328.920019,328 C330.534948,322.061833 331.352382,315.941634 331.352382,309.791916 L331.352382,306.928607 L339.760983,306.928607 L339.760983,297.979538 L331.352382,297.979538 L331.352382,289.67004 L342.402689,289.67004 L342.402689,319.055851 L336.17225,319.055851 L333.744871,328 L342.402689,328 L346.230671,328 L353.507824,328 C354.88849,328 356,326.90289 356,325.540113 L356,249.244256 C356,247.891318 354.88849,246.784369 353.507824,246.784369 L353.507824,246.784369 Z" id="Fill-87" fill="#263D48" mask="url(#mask-8)"></path>
                <path d="M226.341681,279.830491 L226.341681,272.509868 L234.757217,272.509868 L234.757217,263.560798 L226.341681,263.560798 L226.341681,255.743277 L237.394551,255.743277 L237.394551,279.830491 L226.341681,279.830491 Z M248.507246,246.784369 L237.394551,246.784369 L237.394551,246.794208 L234.029333,246.794208 L237.668754,240 L224.06829,240 L220.42887,246.784369 L215.228986,246.784369 C213.852986,246.784369 212.736232,247.891318 212.736232,249.244256 L212.736232,279.830491 L208,279.830491 L208,289.67004 L212.736232,289.67004 L212.736232,309.791916 C212.736232,315.941634 211.918609,322.061833 210.30829,328 L223.913739,328 C225.524058,322.061833 226.341681,315.941634 226.341681,309.791916 L226.341681,306.928607 L234.757217,306.928607 L234.757217,297.979538 L226.341681,297.979538 L226.341681,289.67004 L237.394551,289.67004 L237.394551,319.055851 L231.172638,319.055851 L228.744696,328 L237.394551,328 L241.228406,328 L248.507246,328 C249.883246,328 251,326.90289 251,325.540113 L251,249.244256 C251,247.891318 249.883246,246.784369 248.507246,246.784369 L248.507246,246.784369 Z" id="Fill-88" fill="#263D48" mask="url(#mask-8)"></path>
                <path d="M294.573633,269.862152 L294.573633,245.413925 C294.573633,244.081438 293.448393,243 292.073101,243 L284.961588,243 L280.925729,243 L269.828368,243 L263.957119,243 L258.685997,243 C257.300702,243 256.185465,244.081438 256.185465,245.413925 L256.185465,265.903316 C256.185465,271.040147 255.560332,275.689366 254,281 L267.842945,281 C269.213237,276.838394 269.828368,272.758862 269.828368,265.946767 L269.828368,252.655698 L280.925729,252.655698 L280.925729,274.661034 C280.925729,278.161225 283.856352,281 287.487125,281 L298.31943,281 L301,271.344302 L296.108959,271.344302 C295.258778,271.344302 294.573633,270.682887 294.573633,269.862152" id="Fill-89" fill="#263D48" mask="url(#mask-8)"></path>
                <path d="M269.516125,318.090834 L285.483875,318.090834 L285.483875,295.909166 L269.516125,295.909166 L269.516125,318.090834 Z M296.523612,286 L288.618982,286 L285.483875,286 L269.516125,286 L263.627275,286 L258.476388,286 C257.109422,286 256,287.114781 256,288.477291 L256,325.522709 C256,326.895128 257.109422,328 258.476388,328 L263.627275,328 L269.516125,328 L285.483875,328 L288.618982,328 L292.506911,328 C296.087768,328 299,325.096614 299,321.514451 L299,288.477291 C299,287.114781 297.890578,286 296.523612,286 L296.523612,286 Z" id="Fill-90" fill="#263D48" mask="url(#mask-8)"></path>
                <path d="M50.998635,296.262442 L72.0027299,296.262442 L72.0027299,267.227936 L50.998635,267.227936 L50.998635,296.262442 Z M14.9972701,296.262442 L36.001365,296.262442 L36.001365,267.227936 L14.9972701,267.227936 L14.9972701,296.262442 Z M84.5260195,257.28434 L80.3153046,257.28434 L80.3153046,257.274386 L50.998635,257.274386 L50.998635,240 L36.001365,240 L36.001365,257.274386 L6.68469544,257.274386 L6.68469544,257.28434 L2.46903259,257.28434 C1.10834329,257.28434 0,258.389184 0,259.772727 L0,303.727605 C0,305.096218 1.10834329,306.215992 2.46903259,306.215992 L6.68469544,306.215992 L14.9972701,306.215992 L36.001365,306.215992 L36.001365,330 L50.998635,330 L50.998635,306.215992 L72.0027299,306.215992 L75.9512029,306.215992 L80.518171,306.215992 C84.0955468,306.215992 87,303.289648 87,299.69144 L87,259.772727 C87,258.389184 85.8966047,257.28434 84.5260195,257.28434 L84.5260195,257.28434 Z" id="Fill-91" fill="#263D48" mask="url(#mask-8)"></path>
                <path d="M957.274872,302.12016 L983.730164,302.12016 L983.730164,284.87984 L957.274872,284.87984 L957.274872,302.12016 Z M991.360046,312 L996.849532,312 C998.043117,312 999,311.056475 999,309.885714 L999,277.114286 C999,275.943525 998.043117,275 996.849532,275 L991.360046,275 L949.634918,275 L944.145432,275 C942.961919,275 942,275.943525 942,277.114286 L942,309.895594 C942,311.056475 942.961919,312 944.145432,312 L949.634918,312 L957.274872,312 L991.360046,312 Z" id="Fill-92" fill="#263D48" mask="url(#mask-8)"></path>
                <polygon id="Fill-93" fill="#263D48" mask="url(#mask-8)" points="938 268 1006 268 1006 258 938 258"></polygon>
                <path d="M543.996248,318.07834 L543.996248,306.816316 L557.286128,306.816316 L577.040421,283.792723 L577.040421,303.705287 L565.877317,303.705287 L563.221319,313.597271 L577.040421,313.597271 L581.481922,313.597271 L587.486356,313.597271 C589.172939,313.597271 590.538033,312.222285 590.538033,310.545594 L590.538033,273.411086 L598.268619,273.411086 L598.268619,263.519102 L590.538033,263.519102 L590.538033,254.106879 L577.040421,254.106879 L577.040421,263.519102 L546.721489,263.519102 L546.721489,273.411086 L569.878624,273.411086 L543.996248,303.576691 L543.996248,250.891984 L600.99386,250.891984 L600.99386,318.07834 L543.996248,318.07834 Z M613.888061,241 L609.317965,241 L600.99386,241 L543.996248,241 L535.682035,241 L531.111939,241 C529.939738,241 529,241.944684 529,243.116885 L529,325.893007 C529,327.060262 529.939738,328 531.111939,328 L535.682035,328 L543.996248,328 L600.99386,328 L609.317965,328 L610.460489,328 C613.522058,328 616,325.527004 616,322.475327 L616,243.116885 C616,241.944684 615.055316,241 613.888061,241 L613.888061,241 Z" id="Fill-94" fill="#263D48" mask="url(#mask-8)"></path>
                <path d="M755.571555,271.160659 L751.232001,271.160659 L751.232001,250.006652 L757.767999,250.006652 L757.767999,268.930017 C757.767999,270.166515 756.78372,271.160659 755.571555,271.160659 L755.571555,271.160659 Z M757.767999,299.080785 C757.767999,300.317283 756.78372,301.321319 755.581252,301.321319 L751.232001,301.321319 L751.232001,280.162365 L757.767999,280.162365 L757.767999,299.080785 Z M768.575669,241 L757.767999,241 L757.767999,241.009892 L751.232001,241.009892 L751.232001,241 L738,241 L738,328 L751.232001,328 L751.232001,310.323024 L764.643403,310.323024 C768.158684,310.323024 771,307.414781 771,303.828937 L771,283.199204 C771,279.73701 769.62298,277.649801 767.605936,275.661512 C769.719953,273.440762 771,271.586015 771,268.128766 L771,243.472996 C771,242.112848 769.918748,241 768.575669,241 L768.575669,241 Z" id="Fill-95" fill="#263D48" mask="url(#mask-8)"></path>
                <path d="M1021.87155,241 L1016.76427,241 L1008.91685,241 L942,241 L942,250.891984 L1008.91685,250.891984 L1008.91685,318.098124 L988.497665,318.098124 L985.827157,328 L1008.91685,328 L1016.76427,328 L1018.4352,328 C1021.50852,328 1024,325.527004 1024,322.475327 L1024,243.116885 C1024,241.944684 1023.04518,241 1021.87155,241" id="Fill-96" fill="#263D48" mask="url(#mask-8)"></path>
                <path d="M444.407607,286.13731 L466.758809,286.13731 L466.758809,281.383671 L444.407607,281.383671 L444.407607,286.13731 Z M444.407607,261.132477 L466.758809,261.132477 L466.758809,256.388731 L444.407607,256.388731 L444.407607,261.132477 Z M444.407607,273.63242 L466.758809,273.63242 L466.758809,268.888674 L444.407607,268.888674 L444.407607,273.63242 Z M477.372425,293.893507 L511.79643,293.893507 L511.79643,286.13731 L481.70562,286.13731 L481.70562,281.383671 L508.79918,281.383671 L508.79918,273.63242 L481.70562,273.63242 L481.70562,268.888674 L508.79918,268.888674 L508.79918,261.132477 L481.70562,261.132477 L481.70562,256.388731 L511.909813,256.388731 L511.909813,248.632534 L481.626745,248.632534 L477.594261,241 L462.64252,241 L466.675004,248.632534 L446.591459,248.632534 L450.683099,241 L435.731358,241 L419,272.212759 L429.460796,272.212759 L429.460796,293.893507 L442.361787,293.893507 L444.407607,293.893507 L462.420684,293.893507 L462.420684,299.032977 L425.793109,299.032977 L425.793109,306.794121 L441.548389,306.794121 L426.641015,327.970321 L442.085725,327.970321 L456.988169,306.794121 L462.420684,306.794121 L462.420684,328 L477.372425,328 L477.372425,306.794121 L482.223237,306.794121 L497.421462,327.970321 L513.152094,327.970321 L497.953869,306.794121 L514,306.794121 L514,299.032977 L477.372425,299.032977 L477.372425,293.893507 Z" id="Fill-97" fill="#263D48" mask="url(#mask-8)"></path>
                <path d="M886.820007,266 L870.297319,266 L843.442999,321.66525 C842.031438,324.598925 844.166114,328 847.400321,328 L853.026752,328 L856.909782,328 L898.340323,328 L901,318.045393 L861.71404,318.045393 L886.820007,266 Z" id="Fill-98" fill="#263D48" mask="url(#mask-8)"></path>
                <polygon id="Fill-99" fill="#263D48" mask="url(#mask-8)" points="891 293 907.639768 328 924 328 907.350424 293"></polygon>
                <path d="M906.150687,241.010067 L899.284046,241.010067 L899.284046,241 L861.082731,241 L861.082731,241.010067 L857.849313,241.010067 C856.714868,241.010067 855.670379,241.659396 855.180618,242.701342 L836,283 L852.671845,283 L867.869412,251.067114 L896.130588,251.067114 L911.328155,283 L928,283 L908.819382,242.701342 C908.324624,241.659396 907.29013,241.010067 906.150687,241.010067" id="Fill-100" fill="#263D48" mask="url(#mask-8)"></path>
                <path d="M662.319085,284.336764 L700.001147,284.336764 L700.001147,277.342336 L662.319085,277.342336 L662.319085,284.336764 Z M662.319085,301.224301 L700.001147,301.224301 L700.001147,294.229873 L662.319085,294.229873 L662.319085,301.224301 Z M679.449096,241 L662.957932,241 L657.272689,249.819707 L633.882969,249.819707 L633.882969,259.712816 L650.899077,259.712816 L629,293.700591 L645.248501,293.700591 L647.26904,288.610587 L647.26904,309.687855 C647.26904,315.871048 646.550957,322.029509 645.248501,328 L660.37283,328 C661.576239,322.905049 662.205182,318.057426 662.284418,311.122356 L700.001147,311.122356 L700.001147,318.106891 L689.071417,318.106891 L686.416984,328 L700.001147,328 L703.140906,328 L709.479852,328 C712.540374,328 715.021477,325.526723 715.021477,322.469752 L715.021477,269.556459 C715.021477,268.389072 714.075588,267.449227 712.901892,267.449227 L703.289475,267.449227 L700.001147,267.449227 L662.403274,267.449227 L667.390241,259.712816 L724,259.712816 L724,249.819707 L673.763853,249.819707 L679.449096,241 Z" id="Fill-101" fill="#263D48" mask="url(#mask-8)"></path>
                <path d="M787.602682,279.351222 L811.450958,279.351222 L811.450958,269.449346 L787.602682,269.449346 L787.602682,279.351222 Z M787.602682,260.442695 L811.450958,260.442695 L811.450958,250.001706 L787.602682,250.001706 L787.602682,260.442695 Z M823.529502,301.75162 L823.529502,291.70631 C819.211111,293.907277 813.936398,296.207163 808.572031,298.343832 C806.898467,295.010233 805.344444,291.70631 803.880077,288.352928 L811.450958,288.352928 L815.54023,288.352928 L821.407663,288.352928 C822.583142,288.352928 823.534483,287.408243 823.534483,286.245935 L823.534483,243.116885 C823.534483,241.944684 822.583142,241 821.407663,241 L811.450958,241 L811.450958,241.009892 L787.602682,241.009892 L787.602682,241 L775.5341,241 C774.687356,241 774,241.682547 774,242.523366 L774,325.893007 C774,327.060262 774.951341,328 776.12682,328 L781.904598,328 L787.602682,328 L794.197318,328 L796.622989,319.00324 L787.602682,319.00324 L787.602682,288.352928 L789.151724,288.352928 C794.44636,301.70216 800.627586,313.780273 809.75249,328 L826,328 C820.849808,320.076521 816.591188,313.09278 812.88046,306.415691 C816.571264,304.902217 820.197318,303.334338 823.529502,301.75162 L823.529502,301.75162 Z" id="Fill-102" fill="#263D48" mask="url(#mask-8)"></path>
                <path d="M317.633668,135.946567 L302.610456,135.946567 C277.815443,135.946567 260.763276,120.411513 264.716753,85.8385961 C269.092929,47.5204447 287.22422,25.5338902 307.687814,25.5338902 C317.101565,25.5338902 322.074492,32.8907773 320.905854,45.1605017 C320.428453,50.2761852 319.220032,56.5842088 317.703289,61.2744099 L336.699869,61.2744099 C341.722526,61.2744099 345.70584,57.4401211 346.287672,52.6757079 C346.864532,47.9013998 349.629479,25.1232502 350.862765,15.6884258 C352.096051,6.25854894 344.840551,0 336.192631,0 L238.584023,0 C235.938426,0 233.496718,1.40508134 232.17392,3.68091732 L203.564672,52.982451 C201.575501,56.4060999 200.302432,60.1859666 199.820058,64.099415 C197.472836,83.0482233 190.262092,141.329414 189.15313,150.353599 C187.830331,161.158872 195.225073,170 205.633409,170 L313.600624,170 C324.063662,170 332.448017,162.499636 333.939895,152.713542 C335.436746,142.922499 337.018137,132.522918 337.018137,132.522918 C332.751366,134.818544 326.192075,135.946567 317.633668,135.946567" id="Fill-103" fill="#003F85" mask="url(#mask-8)"></path>
                <path d="M817.633667,135.946567 L802.610455,135.946567 C777.815442,135.946567 760.763275,120.411513 764.716752,85.8385961 C769.097901,47.5204447 787.224219,25.5338902 807.687814,25.5338902 C817.101564,25.5338902 822.074491,32.8907773 820.905853,45.1605017 C820.428452,50.2761852 819.225004,56.5842088 817.703288,61.2744099 L836.704842,61.2744099 C841.722525,61.2744099 845.70584,57.4401211 846.287672,52.6757079 C846.864532,47.9013998 849.629479,25.1232502 850.862765,15.6884258 C852.096051,6.25854894 844.840551,0 836.192631,0 L738.584021,0 C735.938424,0 733.496717,1.40508134 732.168945,3.68091732 L703.569642,52.982451 C701.580472,56.4060999 700.302429,60.1859666 699.830001,64.099415 C697.477807,83.0482233 690.26209,141.329414 689.153127,150.353599 C687.830329,161.158872 695.225071,170 705.63838,170 L813.600624,170 C824.063662,170 832.448017,162.499636 833.939895,152.713542 C835.436746,142.922499 837.018137,132.522918 837.018137,132.522918 C832.751365,134.818544 826.192075,135.946567 817.633667,135.946567" id="Fill-104" fill="#003F85" mask="url(#mask-8)"></path>
                <path d="M363.4975,105.5 L363.5025,105.5 L363.4975,105.5 Z" id="Fill-105" fill="#003F85" mask="url(#mask-8)"></path>
                <path d="M504.697956,0 L407.571597,0 C404.915098,0 402.477487,1.40508134 401.159187,3.68091732 L372.53467,52.982451 C370.544784,56.4060999 369.276231,60.1760717 368.793684,64.099415 C367.679347,73.02465 365.594941,89.905416 364.993,94.8429906 C364.11745,102.036611 368.793684,106.642705 375.758286,106.642705 L430.052339,106.642705 C440.250508,106.642705 444.454143,110.566049 443.026399,122.202497 C441.742922,132.567446 436.897549,136.109834 426.261606,136.109834 L384.951562,136.109834 C372.415277,136.109834 365.525295,135.253922 360.371489,132.394284 C360.371489,132.394284 359.446192,139.63738 358.202513,149.76485 C356.774769,161.45572 362.963316,170 374.648925,170 L484.092682,170 C493.216311,170 501.519113,162.286895 502.673247,152.753121 C502.673247,152.753121 509.488608,100.527633 510.314411,93.4329618 C511.145189,86.3531329 506.762464,81.1830273 499.5541,81.1830273 L456.955605,81.2374494 C444.916791,81.2374494 435.022081,77.9226449 437.136335,61.3139897 C439.648567,41.5636914 452.936034,25.5338902 469.362547,25.5338902 C482.525646,25.5338902 488.843536,35.0330316 487.341171,48.2279328 C486.49547,55.5749251 484.545381,61.2744099 484.545381,61.2744099 L505.270049,61.2744099 C510.299487,61.2744099 514.71206,57.5143331 515.314001,52.6311807 L519.88079,15.6142138 C520.970253,6.83740287 514.488198,0 504.697956,0" id="Fill-106" fill="#003F85" mask="url(#mask-8)"></path>
                <path d="M530.4975,105.5 L530.5025,105.5 L530.4975,105.5 Z" id="Fill-107" fill="#003F85" mask="url(#mask-8)"></path>
                <path d="M669.702014,0 L572.574816,0 C569.918159,0 567.475427,1.40508134 566.162023,3.68091732 L537.535793,52.982451 C535.540812,56.4060999 534.267209,60.1760717 533.784632,64.099415 C532.675204,73.02465 530.590673,89.905416 529.988697,94.8429906 C529.113094,102.036611 533.794582,106.642705 540.754627,106.642705 L595.051929,106.642705 C605.250708,106.642705 609.45957,110.566049 608.021791,122.202497 C606.748187,132.567446 601.892573,136.109834 591.265943,136.109834 L549.943478,136.109834 C537.406442,136.109834 530.525998,135.253922 525.366909,132.394284 C525.366909,132.394284 524.436581,139.63738 523.202778,149.76485 C521.774948,161.45572 527.953916,170 539.640224,170 L649.100481,170 C658.224656,170 666.52298,162.286895 667.682158,152.753121 C667.682158,152.753121 674.487977,100.527633 675.318804,93.4329618 C676.149632,86.3531329 671.766644,81.1830273 664.562824,81.1830273 L621.956805,81.2374494 C609.922246,81.2374494 600.021968,77.9226449 602.136349,61.3139897 C604.648731,41.5636914 617.932018,25.5338902 634.369464,25.5338902 C647.528376,25.5338902 653.841669,35.0330316 652.339215,48.2279328 C651.503413,55.5749251 649.543257,61.2744099 649.543257,61.2744099 L670.27414,61.2744099 C675.303879,61.2744099 679.711742,57.5143331 680.313718,52.6311807 L684.880781,15.6142138 C685.970309,6.83740287 679.487866,0 669.702014,0" id="Fill-108" fill="#003F85" mask="url(#mask-8)"></path>
            </g>
        </g>
    </g>
</svg>