<?xml version="1.0" encoding="UTF-8"?>
<svg width="923px" height="744px" viewBox="0 0 923 744" version="1.1" xmlns="http://www.w3.org/2000/svg" xmlns:xlink="http://www.w3.org/1999/xlink">
    <title>中国兵器装备集团有限公司@2x</title>
    <defs>
        <polygon id="path-1" points="0 0 826 0 826 483 0 483"></polygon>
    </defs>
    <g id="页面-1" stroke="none" stroke-width="1" fill="none" fill-rule="evenodd">
        <g id="7.中国兵器装备集团有限公司" transform="translate(-51.000000, -11.000000)">
            <g id="中国兵器装备集团有限公司" transform="translate(51.000000, 11.000000)">
                <path d="M856,480.147242 C856,480.147242 747.742029,639.255972 490.455978,637.992515 C233.283759,636.69313 -8.76966907,527.221486 0.244089879,337.601173 C9.10806885,147.941939 156.854033,28.2847973 375.913239,5.36293673 C594.945484,-17.5140142 741.382371,33.3925159 853.507661,146.723392 C853.507661,146.723392 705.740728,30.8266807 471.368017,43.6139412 C237.094161,56.3532981 33.297535,170.857812 52.4214423,343.969355 C71.5243804,517.018025 319.850594,578.184902 425.520367,587.106943 C531.274017,595.972098 729.897243,583.208789 856,480.147242" id="Fill-1" fill="#004098"></path>
                <g id="编组" transform="translate(97.000000, 75.000000)">
                    <mask id="mask-2" fill="white">
                        <use xlink:href="#path-1"></use>
                    </mask>
                    <g id="Clip-4"></g>
                    <path d="M16.593185,313.419663 C16.593185,313.419663 96.806061,477.688671 387.224244,482.854382 C677.588505,487.885257 837.999278,361.780785 825.300504,225.482724 C820.672147,176.051904 806.137008,145.252402 780.715494,129.959021 C780.715494,129.959021 659.764087,177.061675 464.899762,168.171498 C270.00548,159.2993 205.067681,142.693517 194.900273,103.261524 C184.726874,63.7486299 408.84721,40.8085588 480.186821,43.3105127 C551.45154,45.9502988 674.988237,54.786541 674.988237,54.786541 C674.988237,54.786541 627.907808,2.59608128 425.35352,0.0581711065 C222.910073,-2.49472083 30.5831062,79.0180399 0,236.961748 C68.7902701,192.346066 323.496708,168.171498 505.602344,185.996797 C687.788865,203.858051 762.855127,250.981679 686.452782,295.555412 C610.047442,340.192069 286.565712,384.723852 16.593185,313.419663" id="Fill-3" fill="#004098" mask="url(#mask-2)"></path>
                </g>
                <path d="M58.9842992,709.831761 L81,716.376009 C79.5393284,722.423037 77.1732819,727.561969 73.9561829,731.587366 C70.7421018,735.725903 66.8640792,738.795566 62.1742369,740.888654 C57.472323,742.943035 51.472705,744 44.1421859,744 C35.3540131,744 28.0989418,742.728665 22.5459755,740.200882 C16.9839554,737.631417 12.1341636,733.201098 8.02979715,726.805718 C3.97975322,720.413316 2,712.28511 2,702.266277 C2,689.03189 5.50078313,678.879076 12.6472094,671.694695 C19.8751194,664.540087 29.9308171,661 43.0134851,661 C53.2834549,661 61.2748978,663.012699 67.1658708,667.100621 C73.014593,671.242135 77.3543569,677.551171 80.1248042,686.015819 L58.0698705,690.770671 C57.2339076,688.394734 56.4371777,686.61427 55.5649998,685.470962 C54.2099553,683.562471 52.4776712,682.085698 50.4345418,681.126986 C48.3612331,680.078954 46.1491004,679.557915 43.6170684,679.557915 C37.9554571,679.557915 33.621729,681.82369 30.5162929,686.319511 C28.2679451,689.683933 27.1633877,694.998529 27.1633877,702.156114 C27.1633877,711.022707 28.4701455,717.159056 31.2134316,720.443089 C33.9355923,723.739032 37.8105971,725.406356 42.729801,725.406356 C47.5584674,725.406356 51.1588417,724.036769 53.5973183,721.449439 C56.0327769,718.799584 57.8827597,714.920077 58.9842992,709.831761" id="Fill-5" fill="#004098"></path>
                <polygon id="Fill-7" fill="#004098" points="97 662 121.861629 662 121.861629 690.332418 149.007017 690.332418 149.007017 662 174 662 174 743 149.007017 743 149.007017 710.210493 121.861629 710.210493 121.861629 743 97 743"></polygon>
                <polygon id="Fill-9" fill="#004098" points="197 743 222 743 222 662 197 662"></polygon>
                <polygon id="Fill-11" fill="#004098" points="244 662 267.190827 662 297.540276 706.769248 297.540276 662 321 662 321 743 297.540276 743 267.41192 698.477199 267.41192 743 244 743"></polygon>
                <path d="M385.567023,712.173055 L385.567023,712.173055 L376.746307,683.035175 L367.913582,712.173055 L385.567023,712.173055 Z M390.800007,729.619717 L362.515472,729.619717 L358.495411,743 L333,743 L363.425165,662 L390.727952,662 L421,743 L394.838081,743 L390.800007,729.619717 Z" id="Fill-12" fill="#004098"></path>
                <path d="M472,716.063386 L495.697806,714.586613 C496.178934,718.451232 497.239807,721.35714 498.823645,723.378771 C501.396635,726.585393 505.060382,728.196147 509.790978,728.196147 C513.38898,728.196147 516.07254,727.404168 518.041878,725.781504 C519.885705,724.137999 520.874857,722.146142 520.874857,719.996485 C520.874857,717.915307 519.981333,716.021702 518.110611,714.357356 C516.275749,712.734692 512.059153,711.237077 505.407033,709.793055 C494.517398,707.262295 486.696823,704.064605 482.094727,700.024321 C477.397003,695.960218 475.05113,690.770671 475.05113,684.518205 C475.05113,680.340962 476.28234,676.46741 478.676028,672.778455 C481.009948,669.131183 484.613927,666.222298 489.499918,664.126233 C494.236491,662.092693 500.789995,661 509.25307,661 C519.515147,661 527.302849,662.953151 532.717783,666.716541 C538.087891,670.530545 541.309358,676.604369 542.397126,684.955878 L518.896553,686.301647 C518.298878,682.764537 516.986982,680.078954 514.978795,678.417584 C513.009456,676.765147 510.242222,675.9821 506.748813,675.9821 C503.918823,675.9821 501.731333,676.559709 500.270018,677.780428 C498.781808,679.030922 498.085517,680.48983 498.085517,682.291136 C498.085517,683.502924 498.701122,684.62539 499.860611,685.679377 C501.014123,686.745274 503.844113,687.698031 508.189209,688.656742 C519.090797,690.9642 526.812756,693.316318 531.51048,695.733938 C536.217169,698.148581 539.683683,701.128923 541.790486,704.666033 C543.936139,708.164437 545,712.168992 545,716.527855 C545,721.663809 543.580522,726.376977 540.726625,730.720953 C537.860775,735.08577 533.886237,738.334075 528.779106,740.567098 C523.600254,742.898375 517.217087,744 509.36364,744 C495.697806,744 486.24259,741.335258 481.009948,736.098074 C475.708572,730.872798 472.711233,724.17075 472,716.063386" id="Fill-13" fill="#004098"></path>
                <path d="M582.716573,702.680131 L582.716573,702.680131 C582.716573,710.704129 584.247609,716.527855 587.178875,720.088783 C590.246893,723.679485 594.316774,725.409334 599.501486,725.409334 C604.846735,725.409334 608.93148,723.679485 611.874637,720.184059 C614.770228,716.742225 616.241807,710.504645 616.241807,701.560641 C616.241807,693.989203 614.752391,688.484055 611.728966,685.006493 C608.678785,681.528931 604.546474,679.781217 599.290412,679.781217 C594.316774,679.781217 590.291486,681.567636 587.271034,685.086882 C584.247609,688.585285 582.716573,694.495355 582.716573,702.680131 M558,702.549127 C558,689.448721 561.668541,679.218496 568.880762,671.953725 C576.205953,664.635362 586.349439,661 599.346896,661 C612.683262,661 622.948637,664.540087 630.169777,671.730423 C637.393889,678.882053 641,688.999139 641,701.906016 C641,711.237077 639.385723,718.984181 636.255274,724.992503 C633.148608,730.95021 628.546581,735.645514 622.597837,738.947412 C616.640173,742.314811 609.19904,744 600.363623,744 C591.28443,744 583.822486,742.493453 577.927254,739.611364 C572.04094,736.750117 567.150543,732.224522 563.51173,725.948237 C559.831298,719.716612 558,711.939735 558,702.549127" id="Fill-14" fill="#004098"></path>
                <path d="M712.167448,662 L737,662 L737,710.013276 C737,714.789481 736.212612,719.326428 734.691521,723.537384 C733.307627,727.748341 730.906689,731.453862 727.769067,734.636006 C724.544951,737.791232 721.323818,740.034284 717.822326,741.305347 C713.029399,743.096798 707.171709,744 700.469962,744 C696.574776,744 692.226246,743.697936 687.612271,743.192501 C683.025138,742.603326 679.198551,741.607411 676.081807,739.884747 C672.941202,738.266759 670.101832,735.925013 667.533873,732.961193 C664.936089,729.928587 663.197273,726.85112 662.266723,723.630097 C660.715807,718.527901 660,713.984973 660,710.013276 L660,662 L684.686408,662 L684.686408,711.158728 C684.686408,715.605952 685.906263,719.057262 688.345974,721.52761 C690.791649,723.947115 694.149979,725.194252 698.513421,725.194252 C702.733703,725.194252 706.13677,723.947115 708.576481,721.563498 C711.019173,719.135021 712.167448,715.659786 712.167448,711.158728 L712.167448,662 Z" id="Fill-15" fill="#004098"></path>
                <polygon id="Fill-16" fill="#004098" points="752 662 828 662 828 682.016326 802.479361 682.016326 802.479361 743 777.505614 743 777.505614 682.016326 752 682.016326"></polygon>
                <polygon id="Fill-17" fill="#004098" points="843 662 867.870955 662 867.870955 690.332418 895.066382 690.332418 895.066382 662 920 662 920 743 895.066382 743 895.066382 710.210493 867.870955 710.210493 867.870955 743 843 743"></polygon>
            </g>
        </g>
    </g>
</svg>