<?xml version="1.0" encoding="UTF-8"?>
<svg width="1022px" height="111px" viewBox="0 0 1022 111" version="1.1" xmlns="http://www.w3.org/2000/svg" xmlns:xlink="http://www.w3.org/1999/xlink">
    <title>中国煤炭科工集团有限公司@2x</title>
    <defs>
        <polygon id="path-1" points="0 0 61 0 61 91 0 91"></polygon>
        <polygon id="path-3" points="0 111 1022 111 1022 0 0 0"></polygon>
    </defs>
    <g id="页面-1" stroke="none" stroke-width="1" fill="none" fill-rule="evenodd">
        <g id="57.中国煤炭科工集团有限公司" transform="translate(2.000000, -328.000000)">
            <g id="中国煤炭科工集团有限公司" transform="translate(-2.000000, 328.000000)">
                <path d="M145.754749,47.5136097 C143.897725,44.8530979 141.340954,42.9668527 138.618561,41.2700557 C130.093229,35.9510914 121.574108,30.6177125 113.054987,25.2905113 C110.353297,23.6019512 107.647467,21.9257464 104.96441,20.2145349 C104.384737,19.8438754 104.231538,19.9427179 104.204624,20.5954905 C104.181851,21.1988419 104.063846,21.800134 103.991387,22.4014261 C103.351677,27.7698118 102.711966,33.1381974 102.072256,38.5045237 C101.54641,42.913313 101.018493,47.3221022 100.492647,51.7308915 C100.244216,53.8127625 99.9957849,55.8946336 99.7494239,57.9765047 C99.7038782,58.3471642 99.6666135,58.6601656 100.209022,58.7425344 C102.649859,59.1090755 105.082414,59.5106233 107.519111,59.9039342 C111.976381,60.6246611 116.444003,61.2959667 120.890922,62.0867071 C123.716828,62.5891567 125.023162,64.5763036 124.578056,67.3933161 C124.402084,68.4929394 123.938345,69.501957 123.559488,70.5356852 C122.393931,73.7192388 121.244937,76.90897 120.029694,80.0739906 C118.679884,83.5890785 115.831206,85.2652833 112.340747,86.1095634 C99.4761496,89.2210443 86.6074114,92.3325251 73.7428138,95.4501837 C73.2707945,95.5655 72.821548,95.5716776 72.3495286,95.462539 C59.9072641,92.6043421 47.4691401,89.7234939 35.0144541,86.9188367 C31.5674706,86.1425109 29.1990928,84.1450679 27.9776393,80.9718104 C26.5615812,77.2940441 25.3773923,73.5236129 24.2014844,69.7593594 C23.3133428,66.9196956 24.3960889,65.1631812 27.331718,64.5042309 C30.3315252,63.8329253 33.3458243,63.2213371 36.3601233,62.6200449 C36.8838991,62.517084 36.962569,62.3585241 36.8259318,61.8643113 C36.5340251,60.801754 36.3228586,59.7186045 36.0723571,58.645751 C33.7308927,48.6070553 31.387358,38.5683595 29.0189802,28.4102291 C28.7601977,28.5605521 28.5655932,28.6593946 28.3875508,28.7808886 C22.3154773,32.9466899 16.2392633,37.110432 10.1713303,41.2844703 C7.75740674,42.9442013 5.25860254,44.4803791 3.42021138,46.8628963 C1.21538414,49.7169747 -0.103371684,52.8552254 0.00635211262,56.4835704 C0.0933030459,59.4056031 1.06011461,62.0949439 2.40578382,64.6730869 C6.30201374,72.1336397 10.225157,79.5797779 14.0427171,87.0794558 C15.9514971,90.8334132 18.7256459,93.6710179 22.3796554,95.7137638 C25.2573172,97.3240736 28.3937616,98.1992419 31.5550491,99.0764695 C45.5893438,102.968395 59.5987953,106.936511 73.6185982,110.881976 C74.0243692,110.995233 74.4115079,111.057009 74.8359113,110.927278 C83.2411682,108.305892 91.646425,105.694801 100.053752,103.083711 C106.956,100.940063 113.825124,98.6913954 120.770847,96.70013 C126.876045,94.9497933 131.378861,91.3770472 134.461479,85.9139375 C135.564927,83.9597381 136.295729,81.8449195 137.223206,79.8186474 C140.401056,72.8728995 143.657575,65.9621584 146.854057,59.0246475 C148.713151,54.9926954 148.284607,51.135777 145.754749,47.5136097" id="Fill-1" fill="#1C95D3"></path>
                <g id="编组" transform="translate(35.000000, 0.000000)">
                    <mask id="mask-2" fill="white">
                        <use xlink:href="#path-1"></use>
                    </mask>
                    <g id="Clip-4"></g>
                    <path d="M8.95126756,60.5036535 C9.13294187,61.2397077 9.40132438,61.3582249 10.0743451,61.1981227 C12.5228194,60.62425 14.9919384,60.1397849 17.4300903,59.5284857 C18.2269799,59.330957 18.3962673,59.5617537 18.4994913,60.2811739 C19.7712115,69.09719 21.065641,77.911127 22.3456191,86.7271431 C22.413747,87.1991327 22.5933568,87.4278501 23.0970901,87.5401295 C26.656255,88.3385612 30.2050976,89.1785778 33.7580691,90.0019604 C35.2114636,90.3367195 36.668987,90.6610824 38.1698646,91 C38.3143782,90.9604943 38.5001815,90.9105923 38.6859848,90.8606903 C43.4074524,89.5881899 48.12892,88.3052932 52.8565811,87.0619022 C53.3809592,86.9246718 53.5523111,86.7229846 53.6059876,86.1906968 C53.9817231,82.3648785 54.3987483,78.5452979 54.801322,74.7236381 C55.3318936,69.7105685 55.8645296,64.697499 56.3909723,59.6844294 C56.9132859,54.6983901 57.4294061,49.71443 57.9517198,44.7283907 C58.4802268,39.6882909 59.0169919,34.6481911 59.5475634,29.6080912 C60.0244585,25.0940415 60.4848377,20.5779124 60.9844421,16.0659419 C61.0422475,15.5274164 60.9534749,15.2259253 60.4703863,14.9265134 C52.5737472,10.0506743 44.6915595,5.1561219 36.8176296,0.247014792 C36.3015094,-0.0773480663 35.9629346,-0.0939820591 35.4406209,0.261569536 C23.8010781,8.13984435 12.1512128,15.9973267 0.488960691,23.8402543 C0.00793666022,24.1625379 -0.0787715341,24.439078 0.0595486807,24.981762 C3.04065898,36.8189271 6.01351136,48.6581714 8.95126756,60.5036535" id="Fill-3" fill="#1C95D3" mask="url(#mask-2)"></path>
                </g>
                <mask id="mask-4" fill="white">
                    <use xlink:href="#path-3"></use>
                </mask>
                <g id="Clip-6"></g>
                <path d="M232.321667,77.8195916 L250.199516,77.8195916 L250.199516,32.335037 L232.321667,32.335037 L232.321667,77.8195916 Z M194.798438,77.8195916 L212.676287,77.8195916 L212.676287,32.335037 L194.798438,32.335037 L194.798438,77.8195916 Z M232.319622,15 L212.676287,15 L212.676287,19.5484555 L176,19.5484555 L176,89.6149493 L212.676287,89.6149493 L212.676287,98 L232.319622,98 L232.319622,89.6149493 L269,89.6149493 L269,19.5484555 L232.319622,19.5484555 L232.319622,15 Z" id="Fill-5" fill="#231916" mask="url(#mask-4)"></path>
                <path d="M300.994849,85.404045 L359.000994,85.404045 L359.000994,28.30131 L300.994849,28.30131 L300.994849,85.404045 Z M284,97 L376,97 L376,16 L284,16 L284,97 Z" id="Fill-7" fill="#231916" mask="url(#mask-4)"></path>
                <polygon id="Fill-8" fill="#231916" mask="url(#mask-4)" points="306 43.6850627 323.734629 43.6850627 323.734629 49.9180654 306 49.9180654 306 61.6031282 323.734629 61.6031282 323.734629 69.3149373 306 69.3149373 306 81 340.001666 81 355 81 355 69.3149373 355 64.724822 340.001666 64.724822 340.001666 69.3149373 337.267464 69.3149373 337.267464 61.6031282 355 61.6031282 355 49.9180654 337.267464 49.9180654 337.267464 43.6850627 355 43.6850627 355 32 306 32"></polygon>
                <polygon id="Fill-9" fill="#231916" mask="url(#mask-4)" points="388 61 399 61 399 20 388 20"></polygon>
                <path d="M449.320259,51.9710008 L468.281924,51.9710008 L468.281924,44.3703741 L449.320259,44.3703741 L449.320259,51.9710008 Z M449.320259,35.6612366 L468.281924,35.6612366 L468.281924,28.5250696 L449.320259,28.5250696 L449.320259,35.6612366 Z M485.214035,73.0698617 L485.214035,64.3607242 L465.946602,64.3607242 L465.946602,60.6822025 L468.281924,60.6822025 L481.544829,60.6822025 L481.544829,51.9710008 L481.544829,44.3703741 L481.544829,35.6612366 L481.544829,28.5250696 L484.984196,28.5250696 L484.984196,19.8138679 L481.544829,19.8138679 L481.544829,15 L468.281924,15 L468.281924,19.8138679 L449.320259,19.8138679 L449.320259,15 L436.055302,15 L436.055302,19.8138679 L432.156258,19.8138679 L432.156258,19.9563022 L422.020796,19.9563022 L422.020796,60.6822025 L432.950432,60.6822025 L432.950432,28.5250696 L436.055302,28.5250696 L436.055302,60.6822025 L436.133283,60.6822025 L449.320259,60.6822025 L452.681645,60.6822025 L452.681645,64.3607242 L423.765105,64.3607242 L427.358382,73.0698617 L438.345477,73.0698617 L433.075611,94.7240101 L418.404946,60.6822025 L418.404946,15 L405.086634,15 L405.086634,60.6822025 L389,98 L402.31626,98 L411.74579,76.1270394 L421.175319,98 L432.279386,98 L434.489528,98 L444.105801,98 L450.173944,73.0698617 L452.681645,73.0698617 L452.681645,98 L465.946602,98 L465.946602,73.0698617 L468.103389,73.0698617 L474.171533,98 L486,98 L479.931857,73.0698617 L485.214035,73.0698617 Z" id="Fill-10" fill="#231916" mask="url(#mask-4)"></path>
                <polygon id="Fill-11" fill="#231916" mask="url(#mask-4)" points="655 44.4743966 655 35.7675541 637.828428 35.7675541 637.828428 27.2775566 645.391069 27.2775566 645.391069 27.2589699 655 25.0987808 655 16.3919383 645.302725 18.5707141 637.828428 18.5707141 637.828428 15 625.509602 15 625.509602 18.5707141 606 18.5707141 606 27.2775566 625.509602 27.2775566 625.509602 35.7675541 606 35.7675541 606 44.4743966 625.509602 44.4743966 625.509602 98 637.828428 98 637.828428 44.4743966"></polygon>
                <polygon id="Fill-12" fill="#231916" mask="url(#mask-4)" points="604 98 617.122623 98 622 49 608.879571 49"></polygon>
                <polygon id="Fill-13" fill="#231916" mask="url(#mask-4)" points="681 45 673.189952 19 661 19 668.812086 45"></polygon>
                <polygon id="Fill-14" fill="#231916" mask="url(#mask-4)" points="681 75 673.189952 49 661 49 668.812086 75"></polygon>
                <polygon id="Fill-15" fill="#231916" mask="url(#mask-4)" points="769.881015 30.2592708 802.160425 30.2592708 802.160425 18 718.839575 18 718.839575 30.2592708 750.886535 30.2592708 750.886535 85.7407292 715 85.7407292 715 98 806 98 806 85.7407292 769.881015 85.7407292"></polygon>
                <polygon id="Fill-16" fill="#231916" mask="url(#mask-4)" points="699.350463 16 685.592271 16 685.592271 79.4934161 657.444357 79.4934161 654.465951 48.0595087 642 48.0595087 646.633307 96.9774373 659.099259 96.9774373 658.263471 88.1410737 685.592271 88.1410737 685.592271 97 699.350463 97 699.350463 88.1410737 703 88.1410737 703 79.4934161 699.350463 79.4934161"></polygon>
                <polygon id="Fill-17" fill="#231916" mask="url(#mask-4)" points="950 84 966.450522 84 980 52 963.549478 52"></polygon>
                <path d="M946.896193,86.6253566 L946.896193,27.2553681 L1005.10381,27.2553681 L1005.10381,35.2753641 L999.247201,35.2753641 L999.247201,31.0067571 L985.735602,31.0067571 L985.735602,35.2753641 L952.433498,35.2753641 L952.433498,48.1372691 L985.735602,48.1372691 L985.735602,83.2499374 L999.247201,83.2499374 L999.247201,48.1372691 L1005.10381,48.1372691 L1005.10381,86.6253566 L946.896193,86.6253566 Z M1005.10381,15 L1005.10381,15.1225537 L946.896193,15.1225537 L946.896193,15 L930,15 L930,98 L935.331303,98 L946.896193,98 L1005.10381,98 L1013.83412,98 L1022,98 L1022,15 L1005.10381,15 Z" id="Fill-18" fill="#231916" mask="url(#mask-4)"></path>
                <path d="M835.996806,55.829824 L863.774967,55.829824 L863.774967,52.3400069 L835.996806,52.3400069 L835.996806,55.829824 Z M835.994726,31.7987573 L863.772887,31.7987573 L863.772887,28.3089403 L835.994726,28.3089403 L835.994726,31.7987573 Z M835.994726,43.8132551 L863.772887,43.8132551 L863.772887,40.323438 L835.994726,40.323438 L835.994726,43.8132551 Z M875.839766,64.7169486 L876.671821,64.7169486 L876.671821,64.3545047 L913.290568,64.3545047 L913.290568,55.829824 L876.671821,55.829824 L876.671821,52.3400069 L913.290568,52.3400069 L913.290568,43.8132551 L876.671821,43.8132551 L876.671821,40.3255091 L913.290568,40.3255091 L913.290568,31.7987573 L876.671821,31.7987573 L876.671821,28.3110114 L913.290568,28.3110114 L913.290568,19.7842596 L876.671821,19.7842596 L876.671821,15 L863.772887,15 L863.772887,19.7842596 L842.53884,19.7842596 L846.900889,15 L833.292627,15 L819,30.6824301 L823.097872,30.6824301 L823.097872,64.7169486 L835.996806,64.7169486 L835.996806,64.3545047 L862.056773,64.3545047 L862.056773,69.345875 L820.859643,69.345875 L820.859643,77.8726269 L833.255185,77.8726269 L822.550795,98.1467035 L838.728027,98.1467035 L849.432417,77.8726269 L862.056773,77.8726269 L862.056773,99 L875.839766,99 L875.839766,77.8726269 L889.48131,77.8726269 L900.183619,98.1467035 L916.360851,98.1467035 L905.656462,77.8726269 L918,77.8726269 L918,69.345875 L875.839766,69.345875 L875.839766,64.7169486 Z" id="Fill-19" fill="#231916" mask="url(#mask-4)"></path>
                <polygon id="Fill-20" fill="#231916" mask="url(#mask-4)" points="560.523719 76.9318148 560.523719 76.9297305 560.523719 58.6757481 590.565353 58.6757481 590.565353 48.8109275 522.027959 48.8109275 523.290387 44.0692273 535.386925 44.0692273 550.134562 44.0692273 571.922818 44.0692273 586.608367 44.0692273 586.672524 44.0692273 586.672524 15 571.922818 15 571.922818 35.2736341 550.134562 35.2736341 550.134562 15 535.386925 15 535.386925 35.2736341 513.600739 35.2736341 513.600739 15 498.851033 15 498.851033 44.0692273 499.045571 44.0692273 508.619324 44.0692273 507.356896 48.8109275 495.086515 48.8109275 495.086515 58.6757481 504.732703 58.6757481 494 99 508.671063 99 519.403766 58.6757481 547.340665 58.6757481 547.340665 76.9297305 543.282271 79.8185202 516.667816 98.7665625 537.965589 98.7665625 553.930122 87.3989876 569.896725 98.7665625 596 98.7665625 564.875989 79.6100938"></polygon>
                <polygon id="Fill-21" fill="#231916" mask="url(#mask-4)" points="532.897145 62 521 62 523.102855 82 535 82"></polygon>
                <polygon id="Fill-22" fill="#231916" mask="url(#mask-4)" points="582.896838 82 585 62 573.103162 62 571 82"></polygon>
            </g>
        </g>
    </g>
</svg>