<?xml version="1.0" encoding="UTF-8"?>
<svg width="827px" height="768px" viewBox="0 0 827 768" version="1.1" xmlns="http://www.w3.org/2000/svg" xmlns:xlink="http://www.w3.org/1999/xlink">
    <title>中国海洋石油集团有限公司@2x</title>
    <g id="页面-1" stroke="none" stroke-width="1" fill="none" fill-rule="evenodd">
        <g id="13.中国海洋石油集团有限公司" transform="translate(-99.000000, 0.000000)">
            <g id="中国海洋石油集团有限公司" transform="translate(99.000000, 0.000000)">
                <polygon id="Fill-1" fill="#D9002E" points="473 489.584476 436 485 436 510.415524 473 515"></polygon>
                <polygon id="Fill-2" fill="#D9002E" points="692 489.584476 655 485 655 510.415524 692 515"></polygon>
                <g id="编组">
                    <path d="M252.795628,611.311398 L360.510813,611.311398 L360.510813,503.281972 L252.795628,503.281972 L252.795628,611.311398 Z M231.921003,631.027005 L380.549924,631.027005 C388.585606,631.027005 395.160083,624.558471 395.160083,616.651435 L395.160083,499.586477 C395.160083,491.679441 388.585606,485.209017 380.549924,485.209017 L231.921003,485.209017 C223.883431,485.209017 217.307064,491.679441 217.307064,499.586477 L217.307064,616.651435 C217.307064,624.558471 223.883431,631.027005 231.921003,631.027005 L231.921003,631.027005 Z" id="Fill-3" fill="#D9002E"></path>
                    <path d="M321.444848,569.209599 L329.680902,584.437684 L321.444848,584.437684 L321.444848,569.209599 Z M262.062843,529.303926 L287.990251,529.303926 L287.990251,543.704069 L263.735762,543.704069 L263.735762,558.928373 L287.990251,558.928373 L287.990251,584.437684 L262.062843,584.437684 L262.062843,599.658208 L352.391013,599.658208 L352.391013,584.437684 L350.270092,584.437684 L341.037848,567.364687 L321.444848,567.364687 L321.444848,558.928373 L350.300337,558.928373 L350.300337,543.704069 L321.444848,543.704069 L321.444848,529.303926 L352.391013,529.303926 L352.391013,514.079622 L262.062843,514.079622 L262.062843,529.303926 Z" id="Fill-5" fill="#D9002E"></path>
                    <path d="M106.843377,594.470905 L137.613743,594.470905 L137.613743,516.007328 L106.843377,516.007328 L106.843377,594.470905 Z M37.3539165,594.470905 L68.1186119,594.470905 L68.1186119,516.007328 L37.3539165,516.007328 L37.3539165,594.470905 Z M175.438723,602.092509 L175.438723,509.727822 C175.438723,502.576898 169.489937,496.726485 162.221719,496.726485 L106.841486,496.726485 L106.841486,480.969122 L68.1186119,480.969122 L68.1186119,496.726485 L14.5681938,496.726485 C7.29808515,496.726485 1.3511892,502.576898 1.3511892,509.727822 L1.3511892,602.092509 C1.3511892,609.245323 7.29808515,615.095736 14.5681938,615.095736 L68.1186119,615.095736 L68.1186119,632.206539 L106.841486,632.206539 L106.841486,615.095736 L162.221719,615.095736 C169.489937,615.095736 175.438723,609.245323 175.438723,602.092509 L175.438723,602.092509 Z" id="Fill-6" fill="#D9002E"></path>
                    <polygon id="Fill-7" fill="#D9002E" points="472.529842 527.263559 436.527115 522.732561 436.527115 547.841133 472.529842 552.372131"></polygon>
                    <path d="M561.247851,561.782316 L577.801242,561.782316 L577.801242,536.630268 L561.247851,536.630268 L561.247851,561.782316 Z M561.247851,608.370124 L577.801242,608.370124 L577.801242,581.987505 L561.247851,581.987505 L561.247851,608.370124 Z M518.557229,561.782316 L534.259983,561.782316 L534.259983,536.630268 L518.557229,536.630268 L518.557229,561.782316 Z M518.557229,608.370124 L534.259983,608.370124 L534.259983,581.987505 L518.557229,581.987505 L518.557229,608.370124 Z M608.337211,615.991728 L608.337211,581.987505 L616.399357,581.987505 L616.399357,561.782316 L608.337211,561.782316 L608.337211,530.802539 C608.337211,523.899241 602.592577,518.247308 595.575769,518.247308 L503.661634,518.247308 C507.060401,516.030011 509.47999,512.687998 510.10379,507.285582 L611.656584,507.285582 L611.656584,489.102991 L510.160499,489.102991 L510.160499,481.273457 L482.29931,481.273457 L482.29931,506.72795 C481.505383,510.455579 479.556479,512.240002 476.4526,512.079329 L476.4526,526.651487 L490.113826,526.651487 C489.646921,527.950108 489.39173,529.348915 489.39173,530.802539 L489.39173,561.782316 L477.348604,561.782316 L477.348604,581.987505 L489.39173,581.987505 L489.39173,615.991728 C489.39173,622.896916 495.132583,628.546959 502.151281,628.546959 L595.575769,628.546959 C602.592577,628.546959 608.337211,622.896916 608.337211,615.991728 L608.337211,615.991728 Z" id="Fill-8" fill="#D9002E"></path>
                    <path d="M474.041707,610.68685 L474.041707,563.20683 L440.477472,563.20683 L440.477472,607.951617 L434.719606,607.951617 L434.719606,630.226661 L450.409128,630.226661 C463.053371,628.66151 470.930267,622.14761 474.041707,610.68685" id="Fill-9" fill="#D9002E"></path>
                    <polygon id="Fill-10" fill="#D9002E" points="691.626078 527.263559 655.625241 522.732561 655.625241 547.841133 691.626078 552.372131"></polygon>
                    <path d="M693.137943,610.68685 L693.137943,563.20683 L659.575598,563.20683 L659.575598,607.951617 L653.817732,607.951617 L653.817732,630.226661 L669.505364,630.226661 C682.149607,628.66151 690.026503,622.14761 693.137943,610.68685" id="Fill-11" fill="#D9002E"></path>
                    <path d="M779.818016,548.365118 L792.050172,548.365118 L792.050172,519.470318 L779.818016,519.470318 L779.818016,548.365118 Z M779.818016,609.044954 L792.050172,609.044954 L792.050172,570.035273 L779.818016,570.035273 L779.818016,609.044954 Z M731.256109,548.365118 L743.367286,548.365118 L743.367286,519.470318 L731.256109,519.470318 L731.256109,548.365118 Z M731.256109,609.044954 L743.367286,609.044954 L743.367286,570.035273 L731.256109,570.035273 L731.256109,609.044954 Z M814.075993,500.977722 L779.818016,500.977722 L779.818016,480.048557 L743.367286,480.048557 L743.367286,500.977722 L710.697165,500.977722 C703.587732,500.977722 697.773157,506.697705 697.773157,513.689846 L697.773157,615.693064 C697.773157,622.685205 703.587732,628.407078 710.697165,628.407078 L814.075993,628.407078 C821.185425,628.407078 827,622.685205 827,615.693064 L827,513.689846 C827,506.697705 821.185425,500.977722 814.075993,500.977722 L814.075993,500.977722 Z" id="Fill-12" fill="#D9002E"></path>
                    <path d="M0,687.315156 L0,740.806262 C1.42528911,755.249881 14.3587481,765.706903 27.8063698,767.701147 L137.808822,767.701147 L137.808822,736.025747 L43.5488204,736.025747 C38.9326983,735.194025 36.6926882,732.702637 36.8268998,728.553476 L36.8268998,696.579412 C37.7096717,692.927393 39.9515721,690.93504 43.5488204,690.60046 L137.808822,690.60046 L137.808822,659.821053 L25.9727751,659.821053 C11.6121366,662.338904 1.52925582,671.801639 0,687.315156" id="Fill-13" fill="#0057A3"></path>
                    <path d="M284.17505,659.821242 L169.282382,659.821242 L169.282382,768 L206.561064,768 L206.561064,690.901204 L269.812522,690.901204 C272.500534,691.640303 274.211259,693.333992 274.950368,695.980382 L274.950368,768 L312.593891,768 L312.593891,690.901204 C312.609001,676.15892 298.741732,660.119906 284.17505,659.821242" id="Fill-14" fill="#0057A3"></path>
                    <path d="M450.095527,728.853274 C450.095527,732.798285 446.796946,736.024991 442.764928,736.024991 L383.17877,736.024991 C379.142971,736.024991 375.844391,732.798285 375.844391,728.853274 L375.844391,697.474648 C375.844391,693.529636 379.142971,690.30104 383.17877,690.30104 L442.764928,690.30104 C446.796946,690.30104 450.095527,693.529636 450.095527,697.474648 L450.095527,728.853274 Z M457.736135,659.521632 L367.899444,659.521632 C353.075681,659.962067 340.166796,670.825499 339.176277,686.717072 L339.176277,734.531671 C340.495709,755.173514 354.903605,766.125789 375.844391,767.403617 L454.985743,767.403617 C474.100495,765.494436 484.994317,752.687798 486.761751,734.531671 L486.761751,690.004266 C485.882759,673.944459 475.476637,661.164285 457.736135,659.521632 L457.736135,659.521632 Z" id="Fill-15" fill="#0057A3"></path>
                    <path d="M624.509138,728.853274 C624.509138,732.798285 621.206777,736.024991 617.174759,736.024991 L557.588601,736.024991 C553.556583,736.024991 550.256112,732.798285 550.256112,728.853274 L550.256112,697.474648 C550.256112,693.529636 553.556583,690.30104 557.588601,690.30104 L617.174759,690.30104 C621.208668,690.30104 624.509138,693.529636 624.509138,697.474648 L624.509138,728.853274 Z M632.147856,659.521632 L542.313055,659.521632 C527.487402,659.962067 514.578517,670.825499 513.586108,686.717072 L513.586108,734.531671 C514.90743,755.173514 529.315326,766.125789 550.256112,767.403617 L629.397464,767.403617 C648.512217,765.494436 659.406038,752.687798 661.175362,734.531671 L661.175362,690.004266 C660.29259,673.944459 649.886467,661.164285 632.147856,659.521632 L632.147856,659.521632 Z" id="Fill-16" fill="#0057A3"></path>
                    <path d="M687.60181,687.315156 L687.60181,740.806262 C689.03088,755.249881 701.964339,765.706903 715.41007,767.701147 L825.412523,767.701147 L825.412523,736.025747 L731.152521,736.025747 C726.538289,735.194025 724.296389,732.702637 724.4306,728.553476 L724.4306,696.579412 C725.313372,692.927393 727.555273,690.93504 731.152521,690.60046 L825.412523,690.60046 L825.412523,659.821053 L713.574585,659.821053 C699.215837,662.338904 689.132956,671.801639 687.60181,687.315156" id="Fill-17" fill="#0057A3"></path>
                    <path d="M413.113622,301.514571 C359.708757,301.514571 316.148595,257.956879 316.148595,204.550836 C316.148595,162.38628 343.30092,126.36702 381.012482,113.068909 L354.75238,262.797883 L385.823305,262.797883 L413.270517,107.708079 L442.267778,262.797883 L490.686021,262.797883 L505.186542,184.606506 L478.777107,184.606506 L468.418242,241.566273 L445.430257,113.14263 C470.58075,122.079868 491.009263,141.128206 501.778325,165.359688 L528.397583,165.359688 C514.915936,125.89067 481.667382,95.4439509 440.557053,85.9131658 L425.177541,0 L400.839879,0 L385.777938,85.8848116 C331.79464,98.3474189 291.342137,146.874653 291.342137,204.550836 C291.342137,271.619814 346.045641,326.318808 413.113622,326.318808 C459.070689,326.318808 499.213182,300.637482 519.936583,262.890507 L490.476198,262.890507 C472.747038,286.324292 444.649561,301.514571 413.113622,301.514571" id="Fill-18" fill="#D9002E"></path>
                    <path d="M545.212403,222.739476 L526.231862,222.739476 L529.853685,203.613636 L548.399456,203.613636 L545.212403,222.739476 Z M513.336209,184.570969 L502.283603,243.218755 L561.452004,243.218755 L572.043376,184.570969 L513.336209,184.570969 Z" id="Fill-19" fill="#D9002E"></path>
                    <path d="M611.518781,222.739476 L592.53824,222.739476 L596.160062,203.613636 L614.705833,203.613636 L611.518781,222.739476 Z M579.640697,184.570969 L568.58998,243.218755 L627.760272,243.218755 L638.347864,184.570969 L579.640697,184.570969 Z" id="Fill-20" fill="#D9002E"></path>
                    <polygon id="Fill-21" fill="#D9002E" points="697.78242 203.614203 701.186857 184.571536 645.946507 184.571536 634.895791 243.219322 690.595484 243.219322 694.251332 222.740043 658.84216 222.740043 662.465873 203.614203"></polygon>
                    <path d="M355.916241,404.131562 C306.539613,390.41192 264.641028,363.876188 233.6684,318.607794 L233.657058,318.600233 C263.204397,388.599143 332.574768,437.942977 413.113055,437.942977 C471.145383,437.942977 523.385821,412.32592 559.101222,371.821029 C538.166107,371.611208 514.832196,378.943599 489.504014,392.547935 C442.055497,413.180326 398.104042,413.734178 355.916241,404.131562" id="Fill-22" fill="#0057A3"></path>
                    <path d="M438.770149,75.9309822 C486.0561,85.3748144 524.31396,120.358202 538.425078,165.813733 L591.671158,165.813733 C564.297667,103.054591 504.753096,57.3514331 434.080305,49.7241586 L438.770149,75.9309822 Z" id="Fill-23" fill="#0057A3"></path>
                    <path d="M349.900159,369.319245 C283.164872,349.902303 242.173633,310.009861 218.864296,256.049966 C218.877528,256.282471 218.900212,256.513085 218.917224,256.745589 L219.127048,257.238952 C223.285717,287.664877 237.151095,314.142011 259.054046,337.339511 C302.262612,383.577617 356.826233,403.325359 421.724145,398.955034 C448.840554,396.064798 474.544906,388.375145 498.375967,374.309581 C524.259897,360.744941 549.915101,351.769898 575.162,350.926834 C582.012461,340.655059 587.923441,329.706565 592.753167,318.198549 C557.470646,320.867622 527.482865,331.184763 501.130139,346.747428 C448.014491,376.984325 397.997051,381.216659 349.900159,369.319245" id="Fill-24" fill="#0057A3"></path>
                    <path d="M530.737969,262.485231 C509.28113,305.806638 464.583004,335.716517 413.113811,335.716517 C340.872068,335.716517 281.947516,276.79275 281.947516,204.55008 C281.947516,141.0594 327.462253,87.8764092 387.526658,75.9166161 L392.120096,49.7211342 C303.491309,59.2991762 232.374298,128.770698 220.266901,216.638412 C220.50697,232.233211 222.905765,244.589963 226.882965,254.580086 C259.001118,324.803938 320.039029,361.420527 389.399949,364.42796 C426.517956,365.666093 463.635962,355.54176 500.755859,331.699675 C531.61885,310.751607 564.933566,298.627359 600.698115,295.323152 C603.65644,284.707347 605.735774,273.734279 606.851054,262.485231 L530.737969,262.485231 Z" id="Fill-25" fill="#0057A3"></path>
                </g>
            </g>
        </g>
    </g>
</svg>