<?xml version="1.0" encoding="UTF-8"?>
<svg width="1023px" height="305px" viewBox="0 0 1023 305" version="1.1" xmlns="http://www.w3.org/2000/svg" xmlns:xlink="http://www.w3.org/1999/xlink">
    <title>中国电信集团有限公司@2x</title>
    <defs>
        <polygon id="path-1" points="0 305 1023 305 1023 0 0 0"></polygon>
    </defs>
    <g id="页面-1" stroke="none" stroke-width="1" fill="none" fill-rule="evenodd">
        <g id="23.中国电信集团有限公司" transform="translate(-1.000000, -232.000000)">
            <g id="中国电信集团有限公司" transform="translate(1.000000, 232.000000)">
                <path d="M438.098223,107.544938 C437.076761,108.576516 434.63287,111.248323 433.610406,112.894608 C432.591951,114.540894 431.570489,115.358485 429.531574,116.384007 C427.48865,117.415585 420.960915,119.06187 416.070127,119.467637 C411.176331,119.879461 405.038536,126.046723 404.228584,127.072244 C403.419634,128.095747 399.951274,129.125307 398.719304,129.125307 C397.488337,129.125307 397.70085,127.072244 398.507795,126.046723 C399.316744,125.015145 399.126285,125.42394 399.33579,124.2026 C399.5473,122.976214 399.532264,122.343338 400.14474,120.904983 C400.760224,119.467637 400.760224,119.467637 401.992193,118.035339 C403.22316,116.597993 404.228584,115.764252 404.634562,113.923158 C405.038536,112.079036 405.457546,111.459282 405.863525,109.810978 C406.267498,108.16772 407.694939,106.323598 408.922899,104.675294 C410.156873,103.025981 412.601767,99.7313911 412.601767,99.7313911 C415.469679,96.2258429 419.322967,94.6118574 420.960915,93.7781163 C422.594854,92.9443752 423.404806,93.3723489 428.313638,91.1032811 C433.220466,88.8372415 435.040853,86.7962917 435.654332,85.5588019 C436.266808,84.3192934 436.882292,84.9390477 436.882292,84.9390477 C436.882292,84.9390477 437.694249,88.8372415 438.310735,92.131831 C438.878103,95.2003212 438.926219,96.245021 439.541702,98.0861151 C440.155181,99.9292279 440.563164,102.211418 440.563164,102.211418 C439.944674,106.534557 439.119685,106.518407 438.098223,107.544938 M509.697806,52.1223524 C506.89505,50.9121157 504.628587,50.4740483 504.77494,51.0594839 C504.77494,51.0594839 503.914867,51.4844295 505.390423,51.9063469 C505.390423,51.9063469 511.059087,52.3151424 511.478097,56.7533501 C511.478097,56.7533501 512.72811,62.8701431 506.021946,69.641009 C506.021946,69.641009 505.809433,69.4300503 506.021946,70.9097893 C506.23145,72.3955846 505.615967,73.0153389 504.565435,74.4991154 C503.511895,75.9849106 499.525286,80.8288858 498.472749,82.3126623 C497.41921,83.7984576 496.916999,84.4505117 496.494982,85.4952115 C496.075972,86.5368832 494.502178,86.9265007 493.226103,88.0176316 C492.235715,88.8665133 490.697006,89.5084737 488.605966,89.7194324 C486.516931,89.9303911 484.006881,90.1251999 482.953341,90.9720628 C481.902809,91.8219538 481.483799,90.9882127 481.271287,88.8665133 C481.058775,86.75087 480.639765,78.9191544 480.639765,77.8764733 C480.639765,76.8317735 480.005235,76.8317735 480.005235,75.5599651 C480.005235,74.2881567 481.271287,73.2404288 481.058775,71.9736672 C480.852277,70.6968119 480.830224,68.3823224 483.35932,67.110514 C485.885409,65.8387055 491.554072,63.7200342 494.908157,62.2473607 C498.260237,60.7827623 501.404816,59.5079257 502.458356,56.967337 C502.458356,56.967337 503.089878,55.9196091 503.511895,56.1335959 C503.933913,56.3445546 503.737439,58.6610628 504.565435,58.2361173 C505.390423,57.8141999 505.180918,58.2229954 505.390423,56.967337 C505.599928,55.7086504 506.021946,55.2867329 507.497502,55.4976916 C507.497502,55.4976916 510.540838,56.4091544 510.540838,55.7752689 C510.540838,55.1373459 508.938977,54.3217735 507.513541,53.8514063 C506.0861,53.3729641 504.952367,52.574551 504.644626,53.2104552 C504.336884,53.8514063 503.851714,54.1723865 503.057801,54.1723865 C502.263887,54.1723865 500.836446,53.8352563 501.309587,54.6508287 C501.776713,55.4653918 501.938102,55.9196091 501.309587,56.5716632 C500.675057,57.2267455 500.966761,56.7351814 500.027497,56.7351814 C499.088233,56.7351814 498.922834,56.5716632 497.970538,56.5716632 C497.013231,56.5716632 496.704487,56.59286 497.177627,55.2998548 C497.646758,54.0149245 498.13293,53.8514063 498.13293,53.0499651 C498.13293,52.2505426 497.177627,52.0880338 496.381709,52.2505426 C495.587795,52.4140609 495.930621,53.082265 494.292673,53.2286239 C492.981513,53.3436923 491.927974,53.7020193 491.927974,53.7020193 C491.927974,53.7020193 490.811282,53.2104552 490.646886,54.0149245 C490.487501,54.8082907 489.855979,54.9738277 489.062066,54.9738277 C488.266147,54.9738277 488.430543,54.1582553 489.22145,53.8514063 C490.015363,53.538501 489.529192,52.740088 488.897669,52.574551 C488.266147,52.4140609 488.266147,51.6176665 489.22145,51.4521296 C490.17976,51.2886113 490.89348,50.9948841 491.442804,49.854294 C491.442804,49.854294 491.766585,49.2183898 490.17976,49.2183898 C488.592935,49.2183898 481.738413,49.6887571 480.490405,49.6887571 C479.246406,49.6887571 478.548724,49.6887571 478.548724,50.5860886 C478.548724,51.4844295 479.421829,51.3027425 479.421829,51.3027425 C484.556205,50.9605655 486.355542,51.3027425 486.535977,52.0082934 C486.713404,52.7077881 482.807991,52.0082934 482.807991,52.0082934 C480.329016,51.8266065 479.421829,52.365611 478.904582,53.082265 C478.384328,53.7979096 477.837009,53.6222789 477.837009,53.6222789 C476.606042,51.6439102 473.930593,51.6439102 472.683587,51.8266065 C471.436581,52.0082934 471.256146,52.0082934 471.256146,52.0082934 C469.655288,52.1869522 467.352738,48.6147855 465.035151,45.9389409 C462.721575,43.2651151 460.424037,38.9571163 458.300919,34.6682956 C456.174794,30.379475 453.682788,27.5229528 453.682788,27.5229528 C448.529366,20.735937 439.119685,19.8406242 437.872679,20.0202924 C436.625673,20.1989512 437.241157,21.7331963 437.241157,21.7331963 C437.241157,21.7331963 438.878103,24.1647729 439.266038,26.1209354 L437.323355,26.9062267 C437.323355,26.9062267 439.266038,30.0161011 439.65297,32.3649092 C440.04291,34.7137174 440.430845,39.8039792 440.430845,43.3125555 C440.430845,46.8181037 440.04291,50.3246613 439.266038,51.893225 C439.266038,51.893225 437.843609,54.5196104 438.779866,56.0669773 C439.71913,57.6193911 439.395349,59.7865123 438.472124,61.9718022 C437.548899,64.1601202 435.701446,65.0847048 436.012195,66.3252227 C436.317932,67.5647313 436.917377,67.8958052 435.377665,68.5165688 C433.838956,69.133295 428.492068,70.7604023 426.323842,72.328966 C424.150604,73.8975298 422.385349,73.8016395 420.540903,74.7312709 C418.691445,75.6558554 418.078969,76.2947878 415.90573,77.2224004 C413.737504,78.1520318 410.335303,78.8707045 409.412078,80.4362402 C408.48785,81.9997571 408.183116,82.1975939 404.470166,83.1272253 C404.470166,83.1272253 402.931457,83.1110754 404.16042,80.634077 C405.394394,78.1520318 403.838644,77.2224004 402.918426,74.7312709 C401.992193,72.2300476 402.008232,72.2461976 401.070973,69.4431721 C400.126697,66.638128 400.745188,66.0335143 399.817953,64.4710068 C398.897734,62.9044618 397.03725,62.9175836 396.729508,65.0847048 C396.419762,67.2548541 395.803276,66.3413727 394.88005,68.2056823 C393.956825,70.0609077 392.109372,75.3490064 390.865373,78.7717861 C389.617365,82.1975939 387.460165,85.6072518 386.847689,88.7221731 C386.229198,91.8381038 384.368714,93.4036394 383.75323,94.9510063 C383.13474,96.5034201 382.830005,96.4852514 382.830005,98.0538152 C382.830005,99.6193508 382.195476,100.843719 381.274255,102.406226 C380.35103,103.97479 379.408758,104.920571 378.796282,107.39757 C378.180799,109.875577 377.564313,113.613281 377.256571,117.042117 C376.948829,120.461869 376.623044,123.577799 378.180799,125.132232 C379.735546,126.679599 379.429809,126.695749 380.655764,129.482624 C381.887734,132.275556 381.903772,133.528186 383.445489,133.839073 C383.445489,133.839073 385.923461,138.50338 387.767907,138.50338 C389.617365,138.50338 390.846327,137.867476 393.019566,136.937844 C395.187792,136.008213 396.402721,135.094731 396.729508,137.573748 C397.050281,140.053775 397.679799,146.595513 400.452482,147.525145 C400.452482,147.525145 402.315974,147.525145 404.777908,148.144899 C407.240845,148.764653 409.42511,149.07453 411.27156,148.144899 C413.122021,147.215268 414.660729,145.649732 420.84664,144.719091 C420.84664,144.719091 431.991503,143.169706 437.241157,140.053775 C437.241157,140.053775 437.843609,142.223924 438.779866,144.409214 C439.71913,146.595513 440.026872,149.710435 439.71913,151.570707 C439.411388,153.427951 438.488163,158.71605 440.026872,162.761612 C440.026872,162.761612 441.566583,167.736805 441.258841,170.852736 C440.951099,173.965638 440.951099,176.755542 440.951099,179.560586 C440.951099,182.36664 441.550544,185.172693 442.182067,186.410183 C442.813589,187.649692 442.79755,188.287615 442.182067,190.144859 C441.566583,192.005131 441.242803,196.066843 442.489808,198.856747 C442.489808,198.856747 444.044556,202.902309 444.044556,204.451694 C444.044556,206.00108 443.833046,208.593147 444.756271,208.593147 C444.756271,208.593147 445.597299,209.245201 445.597299,207.989542 C445.597299,206.735903 445.597299,206.311966 445.387794,204.826171 C445.175281,203.340376 444.965776,203.340376 445.809811,203.340376 C446.653845,203.340376 446.653845,203.340376 447.072855,204.826171 C447.072855,204.826171 446.669884,206.522925 447.494872,206.311966 C448.319861,206.09798 448.548412,204.417376 447.494872,202.511682 C446.44434,200.603969 445.597299,203.147586 445.597299,197.012624 C445.597299,197.012624 446.457372,191.742694 447.704377,193.637285 C447.704377,193.637285 450.636445,200.620119 451.267967,206.311966 C451.267967,206.311966 451.884453,206.946861 452.937993,206.311966 C453.988525,205.675053 455.254576,206.294807 453.988525,207.353638 C452.727485,208.414488 451.981687,208.171229 451.836337,211.791846 C451.7381,214.531281 450.832918,219.618515 452.51798,219.410584 C452.51798,219.410584 452.937993,219.832501 454.201037,218.560693 C454.201037,218.560693 455.673586,217.726952 456.098611,219.196597 C456.517621,220.663214 456.079565,222.359968 457.133104,221.933004 C457.133104,221.933004 457.342609,222.554777 457.555122,219.816352 C457.764627,217.077926 457.555122,214.140654 458.608661,214.971367 C459.659193,215.805108 460.503228,215.819239 460.712733,214.547431 C460.712733,214.547431 460.293723,212.232941 460.293723,210.533159 C460.293723,208.836405 460.063167,206.946861 461.540728,209.900283 C461.540728,209.900283 462.379751,210.309079 463.435295,208.628475 C464.48683,206.946861 465.327857,206.735903 464.696335,202.297695 C464.696335,202.297695 463.6448,197.418392 464.48683,194.469007 C465.327857,191.515586 465.327857,189.607873 465.327857,187.502323 C465.327857,185.396774 466.155853,183.688917 466.999887,182.006294 C467.840914,180.327709 471.823514,175.678542 472.245531,162.579925 C472.245531,162.579925 472.667548,156.871927 472.667548,154.130474 C472.667548,151.38902 472.683587,149.288517 474.35261,148.011662 C476.021633,146.7449 476.863663,145.697172 477.495185,143.578501 C478.128712,141.456802 480.620719,131.946501 483.571832,127.933239 C483.571832,127.933239 483.911651,126.695749 485.012304,125.586449 C485.95257,124.656818 487.504311,123.823077 489.237488,123.919976 C489.237488,123.919976 496.174209,122.861145 499.735793,120.755596 C499.735793,120.755596 502.667861,119.275857 502.458356,116.747381 C502.458356,116.747381 504.968406,117.821352 506.443963,106.19238 C506.443963,106.19238 508.12702,94.3504301 508.758542,90.9720628 C509.392069,87.5947048 510.21806,85.4952115 511.268592,84.6453205 C511.268592,84.6453205 512.325139,84.2072531 512.112626,82.7376078 C511.903121,81.2679625 512.937615,71.3327161 514.622677,63.9471428 C514.622677,63.9471428 516.114272,57.3892544 513.166166,54.2228551 C512.244945,53.2286239 510.976889,52.6754882 509.697806,52.1223524" id="Fill-1" fill="#005BAB"></path>
                <path d="M497.417413,50.3519679 C498.45011,50.0518124 498.281229,50.3519679 499.473102,50.5041594 C500.664975,50.6538144 500.853267,50.6538144 502.232462,50.5041594 C503.612627,50.3519679 503.265159,50.5041594 503.940683,50.0518124 C504.349297,49.7787132 502.561488,49.7651851 501.194911,49.6425864 C500.290331,49.5597266 499.848717,49.3534225 499.298398,49.3001555 C497.921144,49.149655 496.210011,49 496.210011,49 C494.311556,49 494,50.5041594 494,50.5041594 C495.015227,51.5559719 496.379863,50.6538144 497.417413,50.3519679" id="Fill-3" fill="#005BAB"></path>
                <path d="M500.089398,53.8330206 C500.089398,54.8339587 500.785852,55 500.785852,55 C500.785852,54.3470919 501.132606,53.1679174 501.132606,53.1679174 L502.182691,53.1679174 C503.402714,53.1679174 503.911548,53.0009381 503.911548,53.0009381 C504.593268,52.3330206 501.132606,52 500.435169,52 C499.735768,52 500.089398,52.8320826 500.089398,53.8330206" id="Fill-5" fill="#005BAB"></path>
                <path d="M446.933316,210.804346 C446.390244,210.397939 446.530082,210 445.711164,210 C445.711164,210 444.872131,210.254004 445.016759,211.063053 C445.152766,211.867399 445.310803,213.067803 445.711164,213.752673 C446.114397,214.437542 446.671837,215.259762 446.671837,216.186406 C446.671837,217.11305 447.196711,217.371758 447.61527,216.305882 C448.033828,215.241888 448.155469,214.012321 447.755109,212.535335 C447.35379,211.063053 447.476389,211.215456 446.933316,210.804346" id="Fill-7" fill="#005BAB"></path>
                <path d="M449.600869,212.070042 C449.600869,212.070042 449,211.636302 449,212.927529 L449,218.205367 C449,218.916941 449.945873,219.626516 449.945873,218.062453 C449.945873,216.493393 450.201737,211.779217 449.600869,212.070042" id="Fill-9" fill="#005BAB"></path>
                <path d="M463.667794,210.26411 C463.667794,210.26411 462.179954,209.284175 462.371599,211.099449 C462.55677,212.917653 461.449631,217.400148 462.371599,216.971243 C463.290978,216.546247 464.065328,216.561879 463.859439,214.177989 C463.667794,212.064729 464.398117,210.532786 463.667794,210.26411" id="Fill-11" fill="#005BAB"></path>
                <path d="M572.929522,99.6321749 C571.836031,96.749525 572.21195,96.7304744 572.929522,94.5757563 C573.647093,92.4200355 574.735545,90.2492748 573.284276,84.8559621 C573.284276,84.8559621 571.462128,81.6304022 572.192801,78.0178152 C572.929522,74.4022203 571.005583,72.1672893 570.026985,69.7207968 C568.56463,66.1262577 567.131503,65.7542705 567.131503,63.5995524 C567.131503,61.4418263 565.320441,60 565.320441,60 C565.320441,60 564.604885,60 563.874211,61.7997762 C563.140515,63.5995524 560.9878,70.0817547 562.065165,74.4022203 C562.065165,74.4022203 561.708395,76.560949 562.065165,79.0846464 C562.422943,81.6173676 562.782737,83.4111279 562.782737,84.8559621 C562.782737,86.2997937 563.498293,87.0267229 562.782737,88.8264991 C562.065165,90.6232673 562.767619,94.2358543 561.69227,96.3915751 C560.61692,98.5462932 558.87439,101.461028 559.165652,105.402488 C559.525445,110.066866 559.50932,112.237627 558.794772,118.363885 C558.794772,118.363885 556.624924,125.201029 556.985725,128.083679 C557.342496,130.966329 556.641049,135.308853 555.907352,137.825531 C555.176679,140.334189 554.456084,145.73051 554.818901,147.90127 C555.176679,150.073034 555.894251,153.685621 555.534457,156.196283 C555.176679,158.706946 555.192804,159.096981 554.456084,161.963588 C553.727426,164.833204 553.727426,168.445791 555.534457,173.128217 C557.342496,177.810643 561.331468,180.324314 562.782737,179.966364 C564.231989,179.610419 567.486257,173.842111 566.041036,165.919085 C566.041036,165.919085 564.604885,160.506722 565.680234,155.110402 C565.680234,155.110402 567.473156,147.90127 566.397806,146.101494 C566.397806,146.101494 564.231989,145.002578 565.680234,138.892363 C565.680234,138.892363 566.397806,135.653768 566.397806,133.851987 C566.397806,132.055218 566.041036,129.883455 567.486257,123.402255 C568.938534,116.920053 569.653082,116.208164 570.744556,111.881682 C571.836031,107.555201 571.852156,105.755425 572.569728,104.316606 C573.284276,102.872775 574.017973,102.517833 572.929522,99.6321749" id="Fill-13" fill="#005BAB"></path>
                <path d="M681.556338,170.537544 C682.647887,169.083046 682.269618,165.454893 681.913481,163.265054 C681.556338,161.074204 681.181087,159.274793 681.913481,157.462234 C682.647887,155.649675 682.629779,148.736257 682.269618,146.184311 C681.913481,143.634388 682.269618,141.457699 682.269618,137.829545 C682.269618,134.201392 682.269618,130.56009 681.556338,128.382389 C680.84004,126.210757 681.556338,118.199891 681.181087,112.024849 C680.807847,105.839693 680.826962,99.3055781 680.466801,92.7674175 C680.107646,86.2282453 679.737425,82.2248357 679.021127,80.0319625 C678.304829,77.8421237 678.663984,74.5912499 679.37827,72.7756561 C680.091549,70.9651197 680.466801,67.6778328 680.107646,64.7688368 C679.750503,61.8588294 679.021127,60.7795878 678.663984,58.963994 C678.304829,57.154469 678.663984,54.602523 679.37827,52.4116727 C680.091549,50.2248684 680.466801,46.6098643 680.466801,46.6098643 C680.466801,42.260531 678.288732,38.2389148 675.7666,35.3309303 C673.246479,32.4229458 671.071429,29.5099039 671.071429,29.5099039 C667.459759,26.226663 663.837022,26.9761644 661.658954,27.3382717 C659.477867,27.6973445 656.244467,27.6973445 650.459759,28.4336968 C644.667002,29.1670146 641.774648,30.2462562 639.971831,31.3416813 C638.165996,32.436095 637.790744,32.7982022 635.627767,32.4229458 C633.467807,32.0476894 632.376258,33.1562636 630.573441,33.5153365 C628.769618,33.8744094 624.783702,34.2516888 624.783702,34.2516888 C621.177062,34.988041 611.765594,37.1465241 611.765594,37.1465241 C606.691147,38.6010221 603.455734,40.0545086 601.633803,41.1499338 C599.814889,42.2453589 596.222334,43.6856963 596.222334,43.6856963 C592.95171,47.310815 587.896378,48.0471673 587.896378,48.0471673 C583.915493,48.4062402 574.15996,52.0687834 574.15996,52.0687834 C572.354125,52.4258334 572,53.5070979 572,53.5070979 C572,53.5070979 576.698189,53.8661707 577.78672,56.0560095 C578.873239,58.2468597 579.230382,58.2306762 581.39336,58.591772 C583.555332,58.9478105 588.628773,58.591772 591.16499,57.8716033 C593.700201,57.154469 597.311871,56.0560095 599.830986,54.602523 C602.350101,53.148025 605.261569,52.7899636 608.513078,51.3324312 C611.765594,49.8789447 617.193159,48.0633509 620.801811,46.6098643 C624.413481,45.1553663 626.948692,45.1553663 629.483903,44.778087 C632.019115,44.4028305 634.538229,43.321566 637.074447,42.6034203 C639.612676,41.886286 643.221328,42.2453589 645.756539,42.2453589 C648.294769,42.2453589 649.008048,42.6034203 651.546278,42.6034203 C654.082495,42.6034203 655.871227,42.9655276 657.691147,45.1553663 C659.512072,47.3431822 660.942656,49.8789447 660.942656,49.8789447 C662.386318,54.602523 661.299799,55.3226917 660.942656,59.3281243 C660.585513,63.3284995 659.853119,76.0477709 659.853119,81.1294106 C659.853119,86.2120618 658.404427,96.0364978 658.404427,96.0364978 C657.314889,101.855501 658.404427,101.839318 658.763581,105.485677 C659.120724,109.127991 658.404427,117.481746 658.404427,117.481746 C657.314889,119.672596 656.960765,123.284566 657.314889,125.472381 C657.67505,127.66222 657.691147,128.744496 657.691147,128.744496 C657.334004,132.011553 658.404427,143.648549 659.853119,148.736257 C661.299799,153.814863 659.853119,156.366809 658.404427,157.821307 C656.960765,159.274793 656.60161,164.001406 656.960765,166.909391 C657.314889,169.819398 657.314889,173.086455 656.244467,174.902049 C655.169014,176.717643 654.06338,174.902049 652.260563,172.711199 C650.459759,170.52136 646.475855,167.270486 645.024145,167.988632 C643.577465,168.708801 645.399396,177.076716 647.562374,179.625628 C649.724346,182.177574 649.724346,183.993167 650.459759,185.805727 C651.187123,187.621321 653.349095,191.262623 653.349095,191.262623 C655.882294,193.811535 656.60161,197.442722 657.691147,202.166301 C658.779678,206.889879 659.495976,206.889879 662.386318,209.063534 C665.283702,211.238201 669.981891,213.787112 672.874245,214.882537 C675.7666,215.976951 679.737425,209.063534 679.737425,209.063534 C682.256539,203.97886 681.913481,198.159856 681.556338,195.610945 C681.196177,193.062033 681.556338,191.980769 682.269618,189.43388 C682.988934,186.881934 683,186.1648 683,183.63106 C683,181.095298 682.269618,178.533237 681.556338,176.717643 C680.84004,174.902049 680.466801,171.994065 681.556338,170.537544" id="Fill-15" fill="#005BAB"></path>
                <path d="M638.916512,64.1026345 C637.477864,61.2240797 636.765543,59.8028058 635.327895,57.6363883 C633.889247,55.470971 631.739278,55.8440429 629.217142,56.5541797 C626.696006,57.266317 621.669741,57.9944573 621.669741,57.9944573 C617.706956,57.9944573 613.764179,59.8028058 611.240042,60.8700115 C608.717906,61.9372172 605.129289,63.747566 602.250992,64.1026345 C599.374696,64.4577029 597.934047,65.5379111 594.702591,66.6231202 C591.469134,67.7093295 589.673325,69.8537428 587.506348,70.2138122 C585.340373,70.5688806 584.628052,71.2940204 582.834243,73.0893664 C581.039435,74.8847124 577.434811,76.319989 577.434811,76.319989 C570.953891,78.1173354 573.488032,80.9908891 573.488032,80.9908891 C573.488032,80.9908891 575.639002,81.7210299 579.243626,83.1563065 C582.853252,84.596584 581.393594,84.596584 581.393594,84.596584 C580.668268,89.2674842 583.544563,91.0628302 586.068701,91.0628302 C588.589837,91.0628302 592.535614,90.7057614 594.702591,90.7057614 C596.866566,90.7057614 597.223727,90.3506929 597.578887,92.8581762 C597.934047,95.3626588 598.291208,97.5260758 598.291208,97.5260758 C599.000527,105.075531 594.702591,104.005324 594.702591,104.005324 C579.955947,110.489574 577.434811,113.707194 576.351322,115.50254 C575.267834,117.294886 573.03783,120.42949 574.558515,121.607717 C575.980155,122.692926 578.160137,124.84334 579.600787,124.84334 C581.039435,124.84334 581.751756,124.84334 582.834243,127.363826 C583.917732,129.882311 584.628052,130.23938 586.794028,129.882311 C588.963005,129.527243 589.300157,129.882311 589.300157,129.882311 C589.300157,129.882311 589.300157,131.677657 588.589837,133.828072 C587.877516,135.980487 586.420859,139.226112 584.985213,139.936249 C583.544563,140.651387 583.189403,142.101666 581.751756,143.897012 C580.310106,145.692358 580.686276,145.335289 579.955947,147.132636 C579.229619,148.924981 578.5203,150.363258 578.5203,150.363258 C576.724491,156.474436 579.955947,160.059127 581.751756,161.870476 C583.544563,163.681825 590.740806,162.937682 592.906782,162.227545 C595.073758,161.515408 595.054749,162.227545 597.223727,160.787267 C599.390703,159.34999 600.460185,159.704059 603.33448,158.62185 C606.212777,157.538641 608.363746,156.474436 610.511714,154.67909 C612.661682,152.883744 616.639475,151.443467 619.147605,149.651121 C621.650733,147.858776 625.255357,147.484704 627.424334,146.775567 C629.588309,146.06343 633.179927,143.897012 634.972735,141.731595 C636.765543,139.568178 637.852032,140.293318 638.561352,138.500972 C639.273673,136.705626 640,134.555212 640,134.555212 L637.852032,134.555212 C636.411383,134.555212 638.916512,129.882311 638.916512,129.882311 C637.107697,130.255383 634.244407,129.882311 632.80876,129.159172 C631.371112,128.431032 627.424334,128.799103 625.983685,129.159172 C624.543036,129.51424 625.255357,125.926549 625.983685,123.774134 C626.712013,121.62372 626.341846,120.89858 626.341846,120.89858 C625.255357,119.103234 629.572302,119.460303 629.572302,119.460303 C632.094438,113.368129 634.617575,112.265916 636.056223,110.471571 C637.493871,108.681226 638.916512,107.240948 639.28968,104.715461 C639.663849,102.196976 638.916512,100.404631 636.411383,98.2542161 C633.905254,96.1038017 631.01095,94.647521 627.776493,92.1480393 C624.543036,89.6385557 626.696006,89.2674842 627.424334,86.39193 C628.150661,83.5113749 630.658791,83.1563065 633.532086,79.568615 C636.411383,75.9809236 635.685056,77.0481293 636.411383,75.2547837 C637.141712,73.4624383 638.561352,72.7322976 638.561352,72.7322976 C640,69.8537428 638.561352,69.4986744 638.916512,67.7093295 C639.273673,65.9139836 640.357161,66.9781886 638.916512,64.1026345" id="Fill-17" fill="#005BAB"></path>
                <path d="M638.18332,118.775493 C638.18332,118.775493 637.821872,119.138713 636.725379,120.895089 C635.628886,122.652445 635.615724,123 637.805672,123 C640.000683,123 639.623036,122.290205 643.629336,121.590199 C647.639685,120.895089 649.094588,120.167671 652.367868,120.532849 C652.367868,120.532849 656.377205,121.242644 656.736627,115.613232 C657.832108,109.284794 655.293874,107.892616 653.103925,107.527439 C650.908915,107.164219 650.191081,107.164219 648.376755,106.467151 C646.559391,105.77302 642.549042,104 642.549042,104 C642.549042,104 645.085251,108.918638 643.270925,111.383831 C643.270925,111.383831 638.558942,116.308342 638.18332,118.775493" id="Fill-19" fill="#005BAB"></path>
                <path d="M852.864786,170.118508 C852.864786,169.255706 854.067282,169.939893 854.067282,169.939893 C853.889022,171.146807 852.864786,170.986356 852.864786,170.118508 M757.540358,131.142067 C757.022701,133.751664 756.24118,135.841562 755.460666,138.448132 C754.676124,141.061765 752.596431,141.84081 752.596431,141.84081 C746.606112,142.883236 741.65715,147.323385 740.879657,146.79965 C740.095115,146.275914 740.356964,145.758233 741.1405,143.930707 C741.915978,142.103182 741.396307,141.84081 741.396307,141.84081 C740.620829,138.710504 741.1405,141.320101 741.65715,138.971867 C742.179842,136.623634 741.915978,137.144342 742.179842,135.317826 C742.441692,133.490301 744.000706,130.362014 744.523399,128.534488 C745.046091,126.707972 746.086441,126.969336 746.086441,126.969336 C746.866955,125.929937 750.773553,125.144838 752.596431,124.621102 C754.418302,124.102412 755.460666,124.102412 756.760851,125.406201 C758.065065,126.707972 758.065065,128.534488 757.540358,131.142067 M785.92589,86.7910267 C786.707412,83.9190572 790.354174,81.5708235 790.354174,81.5708235 C793.47623,79.7432982 799.467557,78.9602173 800.768749,77.6564279 C802.074977,76.3536476 804.154669,76.0882477 805.716704,76.0882477 C807.279747,76.0882477 808.322111,75.8299118 809.623303,76.3536476 C810.921474,76.8773834 811.705009,77.1357194 813.528894,77.1357194 C815.352779,77.1357194 816.395143,77.9188004 816.395143,77.9188004 C815.872451,79.4839531 817.431464,81.5708235 817.431464,81.5708235 C818.216007,83.9190572 815.090929,85.4842099 815.090929,85.4842099 C812.488545,84.9604741 810.403817,86.7910267 807.279747,88.8768879 C804.154669,90.9657765 801.291442,92.528911 798.944864,92.7902744 C796.601308,93.0496195 791.655367,94.3534089 788.531297,93.0496195 C785.406219,91.7458301 785.145376,89.6569415 785.92589,86.7910267 M810.921474,108.968565 C809.881124,112.61857 809.361453,113.400642 809.099603,116.270593 C808.841782,119.141554 807.017897,120.185998 804.93619,121.230442 C802.850456,122.272868 799.728399,123.841048 797.384843,125.144838 C795.041287,126.448627 792.433867,127.228681 790.093332,126.189282 C787.749775,125.144838 787.488933,122.793577 787.749775,120.969079 C788.010618,119.141554 788.010618,118.882208 787.749775,117.055692 C787.488933,115.228167 789.831482,113.922359 789.831482,113.922359 C794.518594,108.704174 805.716704,106.358968 807.540589,105.835232 C809.361453,105.314524 811.688896,106.27622 810.921474,108.968565 M855.371495,173.412292 C853.760112,173.134783 853.760112,172.061074 853.760112,172.061074 C853.760112,172.061074 854.200221,171.440462 854.570839,170.444456 C855.208343,168.748117 853.337123,170.183092 853.368344,168.734998 C853.419707,166.891327 852.049023,169.760269 852.049023,169.760269 C852.049023,169.760269 851.838536,169.255706 851.723725,168.847011 C851.611936,168.454461 851.707611,167.770275 851.073129,168.016501 C850.22816,168.358594 849.982424,166.659228 851.334979,166.40291 C851.334979,166.40291 850.278515,165.585519 849.462752,164.510801 C849.462752,164.510801 848.729573,164.297876 848.910853,165.326174 C849.089113,166.349427 847.884603,166.335299 847.884603,165.483597 C847.884603,164.63896 849.268379,164.28173 849.268379,164.28173 C849.268379,164.28173 849.609791,163.287742 847.719437,164.297876 C846.743542,164.821612 846.518956,164.118251 847.20178,163.435074 C847.884603,162.74786 846.860368,162.731714 845.831096,162.908311 C844.807868,163.089953 844.807868,162.892165 843.605372,163.939636 C842.399856,164.981053 841.538773,165.668267 840.690782,166.349427 C839.845813,167.038659 838.982715,167.220301 837.958479,167.562395 C836.932229,167.898433 832.293458,169.09021 828.696044,169.774397 C825.099637,170.463629 818.065947,172.189233 815.837202,173.055062 C813.608456,173.919882 812.080663,173.901718 810.012049,174.245829 C808.953572,174.422426 803.895841,174.456736 801.549263,174.978454 C799.205707,175.499162 797.384843,175.763553 795.822808,176.022898 C794.257752,176.284262 792.959581,175.239817 792.959581,175.239817 C792.959581,175.239817 790.613003,174.456736 789.570639,174.456736 C789.570639,174.456736 789.311811,174.716081 788.269447,172.63022 C787.227083,170.54335 787.165649,169.923747 785.406219,166.367591 C784.103012,163.757994 785.145376,161.671124 786.707412,160.108998 C788.269447,158.540818 790.354174,155.668848 791.917217,154.368086 C793.47623,153.06127 794.780444,152.799906 797.124,153.06127 C797.124,153.06127 798.944864,152.542579 801.029592,152.542579 C803.112305,152.542579 804.410476,151.75748 805.716704,150.972381 C807.017897,150.192328 807.540589,150.451673 809.099603,150.451673 C810.665667,150.451673 812.227702,149.406219 813.786716,149.144856 C815.352779,148.885511 817.431464,148.364802 819.778042,148.364802 C822.121598,148.364802 823.163962,147.581721 824.984826,147.581721 C826.80569,147.581721 827.328382,147.323385 828.632596,145.758233 C829.933788,144.189043 829.67496,142.623891 831.754652,140.538029 C833.83938,138.448132 835.548454,137.946597 835.140572,136.365298 C834.881744,135.317826 835.140572,132.447875 835.401415,130.621359 C835.401415,130.621359 836.18495,129.056206 834.881744,126.707972 C833.578537,124.359739 832.538187,123.578676 831.754652,121.75216 C830.976152,119.924634 829.67496,119.141554 831.495823,114.966804 C833.316687,110.794072 835.401415,107.401394 835.922093,104.793815 C836.443779,102.181191 835.922093,102.445582 837.484128,99.8349755 C838.366361,98.3333976 838.265649,97.7460869 838.790356,95.1385081 C839.304992,92.528911 839.565835,93.3140102 840.088527,90.9657765 C840.088527,90.9657765 840.34937,89.9213322 840.088527,87.8294163 C839.827685,85.7465824 839.827685,85.2248648 840.088527,83.9190572 C840.34937,82.6122404 839.565835,81.8291594 839.304992,80.5283974 C839.046163,79.2225898 839.046163,81.3064327 838.526492,78.7018813 C838.006821,76.0882477 837.484128,76.0882477 836.443779,74.7874857 C835.401415,73.4816781 833.83938,71.6571802 833.578537,68.7872289 C833.578537,68.7872289 834.622915,67.7407664 831.234981,64.8708151 C831.234981,64.8708151 829.152267,63.5670257 827.851075,63.5670257 C826.547868,63.5670257 825.507518,63.5670257 823.942462,62.2642454 C822.383448,60.960456 820.300735,60.6980835 818.735678,60.960456 C817.173643,61.2167737 816.652965,60.960456 815.090929,60.4367202 C813.528894,59.9129843 810.665667,61.2167737 810.144988,61.4781371 C809.003927,62.0664569 800.249078,65.9152594 797.643672,67.7407664 C795.041287,69.5652642 793.73808,70.3533908 791.917217,70.8710719 C790.093332,71.3948077 789.570639,71.1334444 790.093332,68.7872289 C790.613003,66.436977 791.135696,62.5256088 791.917217,58.3498498 C792.695716,54.1751 791.135696,50.2637318 788.010618,48.4362066 C784.883527,46.6066631 780.833918,43.5903887 777.967669,44.1141245 C777.967669,44.1141245 775.771151,43.3956275 776.143784,45.564237 C776.520445,47.7338556 775.803379,48.4503343 774.709652,50.6350898 C774.709652,50.6350898 771.440557,55.0025824 771.084039,60.4367202 C770.726513,65.8698488 769.279289,70.9407015 768.918742,73.4816781 C768.561216,76.0277003 768.57733,78.1963097 765.304207,79.644404 C762.035112,81.0975439 748.99801,88.7113914 748.640484,90.5227707 C748.640484,90.5227707 752.644773,90.1483853 753.359824,92.3341499 C754.07689,94.5189054 755.508,93.8004084 757.689411,93.0708111 C759.869815,92.3341499 762.39163,90.5227707 763.122796,92.3341499 C763.122796,92.3341499 763.49845,93.0496195 763.858997,95.2353841 C764.215515,97.4201395 764.215515,97.7814063 763.122796,99.5897581 C762.035112,101.401137 761.659458,102.153945 757.689411,106.490154 C753.716343,110.825355 749.71709,113.353213 747.907305,114.087856 C746.102555,114.822499 746.102555,114.104002 746.835734,111.55798 C746.835734,111.55798 747.565893,104.320536 747.923418,102.13578 C748.282958,99.9479975 748.656598,98.8732794 747.565893,96.3272572 C746.475187,93.7872898 744.296798,92.3341499 743.940279,90.88101 C743.579732,89.4298884 743.953372,90.1645313 741.771961,89.071649 C739.591557,87.9817941 739.967211,86.1683966 739.967211,84.7203024 C739.967211,83.2671625 738.141312,82.1904262 737.429282,85.4519179 C736.715237,88.7113914 733.816761,93.8004084 732.366515,95.970027 C730.918284,98.1386365 729.47106,99.9479975 729.827579,104.302372 C730.185104,108.656746 730.545652,110.451979 730.185104,115.537968 C729.827579,120.626985 729.113534,128.95933 728.022829,133.674971 C726.930109,138.384557 726.19693,138.384557 725.481878,141.285791 C724.767834,144.189043 724.408294,146.71892 727.663289,149.262923 C730.918284,151.805918 732.366515,152.179294 734.174286,152.542579 C735.979036,152.895773 736.35469,153.61427 737.069742,155.06741 C737.786807,156.518532 738.500852,157.611414 740.684277,159.061526 C742.865688,160.514666 745.400596,162.684285 750.464369,162.684285 C750.464369,162.684285 752.986185,161.949642 754.07689,165.942749 C755.166588,169.939893 756.24118,177.927117 759.136635,183.361255 C759.136635,183.361255 760.586881,186.984013 762.035112,187.341243 C762.035112,187.341243 763.839862,189.884238 766.738338,191.338387 C769.633793,192.786481 773.248329,195.329476 778.325195,196.049991 C783.404075,196.76647 787.016596,197.498086 791.719822,197.498086 C796.423049,197.498086 801.501929,199.309465 810.550856,196.049991 C810.550856,196.049991 815.237968,194.594833 817.775898,194.594833 C820.313827,194.594833 821.047007,194.223475 826.109773,192.412096 C831.167504,190.600717 842.027223,187.699483 844.562132,187.341243 C844.562132,187.341243 846.727428,187.341243 847.460608,185.888103 C848.196809,184.437991 846.743542,185.169607 848.551313,184.079752 C848.551313,184.079752 848.910853,183.361255 849.268379,181.910133 C849.625905,180.460021 850.537344,178.795974 852.150742,178.256092 C853.760112,177.719237 853.483155,177.456865 854.834703,177.179355 C856.187258,176.903864 857,176.363982 857,175.288255 C857,174.213537 856.980865,173.690811 855.371495,173.412292" id="Fill-21" fill="#005BAB"></path>
                <path d="M928.110462,104.023716 C926.802584,103.507009 927.815886,103.605143 926.280242,102.73295 C923.973234,101.436175 924.446986,100.919468 922.613729,100.399757 C920.78351,99.8800455 921.829205,99.3653412 920.261168,98.8466314 C918.691107,98.3289229 915.813167,97.5528609 913.979911,98.5892792 C913.979911,98.5892792 913.979911,96.5164426 915.549972,93.9258977 C915.549972,93.9258977 916.072313,93.6695469 916.332472,91.3393582 C916.595667,89.0111722 915.549972,87.1976906 916.595667,86.4216286 C917.643387,85.6425625 917.643387,82.2749541 915.813167,78.3946442 C913.979911,74.5113301 911.624312,71.4040781 911.361117,68.5571823 C911.098934,65.7072824 908.217958,60.7895528 906.122518,60.0104867 C906.122518,60.0104867 904.292298,59.7501304 904.292298,61.8239684 C904.292298,63.8938008 903.771981,63.6364486 903.509798,65.9646346 C903.246603,68.296826 902.199896,70.8843669 901.9367,72.6978485 C901.676542,74.5113301 901.1542,73.991619 900.366639,75.8020965 C899.581102,77.6175808 898.011041,80.2071245 896.968382,83.3123738 C895.917626,86.4216286 893.301869,91.858068 891.731808,94.7059651 C890.161747,97.5528609 890.421905,97.2925046 889.114027,99.6256975 C887.806149,101.955886 886.235075,103.252661 885.710709,104.540423 C885.710709,104.540423 884.661977,106.099556 883.617294,107.393327 C882.572611,108.686096 882.044196,108.429745 881.523879,111.016285 C880.999513,113.603826 880.476159,115.674659 880.213976,118.524559 C879.950781,121.374459 880.476159,122.407873 880.213976,124.221355 C879.950781,126.031832 879.691634,126.54854 880.999513,127.587962 C882.306379,128.621376 884.139635,128.101665 884.139635,132.248339 C884.139635,136.389006 884.175065,140.611784 883.697265,141.553072 C883.697265,141.553072 885.466747,140.288342 885.300732,137.764888 C885.300732,137.764888 885.938474,138.864393 885.774483,140.288342 C885.774483,140.288342 887.363778,138.864393 887.690748,136.34094 C888.020754,133.814482 889.930945,132.377516 891.043451,131.439232 C892.157982,130.498945 897.898677,124.671972 899.340177,123.396226 C900.776616,122.116475 902.381095,120.547327 902.855859,119.916464 C903.330623,119.284599 903.670752,118.653736 905.260047,118.653736 C906.846305,118.653736 908.877971,121.180193 909.201903,123.701644 C909.528873,126.230104 910.365024,128.425107 910.365024,130.806366 C910.365024,133.186623 911.018963,139.577369 910.836751,142.162907 C910.656564,144.755454 910.313397,146.128333 909.611881,147.684463 C908.907327,149.240592 908.743336,152.018393 908.564161,154.253452 C908.381949,156.485506 908.381949,159.07505 907.516441,161.667598 C906.649921,164.255138 904.359109,171.521081 904.196131,179.628175 C904.196131,179.628175 903.688974,184.628017 904.03214,188.253979 C904.375306,191.877938 904.718472,193.609308 906.813912,195.159429 C908.207835,196.018605 908.907327,196.361073 909.431693,195.501898 C909.955047,194.645726 911.018963,192.930379 912.406812,193.092601 C913.797698,193.253821 914.861615,193.593286 914.502252,191.697692 C914.502252,191.697692 913.620548,189.465637 915.188584,187.914515 C915.188584,187.914515 916.236304,187.557026 917.284024,187.557026 C918.331744,187.557026 918.508895,187.217561 919.034273,186.181143 C919.558639,185.144724 920.601297,184.80526 921.126676,182.557184 C921.649017,180.309107 922.517562,172.362232 922.697749,167.362391 C922.876925,162.362549 923.924644,155.549225 924.710181,148.819015 C925.494706,142.082797 926.280242,136.64836 926.540401,130.694213 C926.802584,124.741066 926.540401,126.291187 926.802584,121.888162 C927.065779,117.48714 925.754864,115.674659 927.327962,114.123537 C927.327962,114.123537 928.895999,112.313059 928.895999,108.946452 C928.895999,105.579845 929.421377,104.540423 928.110462,104.023716" id="Fill-23" fill="#005BAB"></path>
                <path d="M1019.05242,51.3661471 C1016.90013,50.9763439 1012.77182,51.3661471 1010.42723,51.3661471 C1008.07864,51.3661471 1002.77051,51.3661471 1001.19811,51.5625518 C999.631713,51.7529442 998.642199,51.3661471 998.838499,49.7959116 C999.031795,48.224674 999.226092,47.8218439 998.838499,46.2516084 C998.448903,44.6783666 998.642199,42.9137305 998.448903,40.7602932 C998.255608,38.6058539 998.642199,38.3944182 997.65569,37.4234174 C996.670182,36.4524166 995.503397,35.4493498 994.130297,35.4493498 C992.751187,35.4493498 992.167293,34.6697433 991.181786,33.8791142 C990.195277,33.0834748 989.611383,32.9051072 988.041982,32.515304 C986.472581,32.128507 984.515588,30.75167 984.515588,30.75167 C984.515588,30.75167 978.621571,28 976.275982,28 C973.931395,28 972.733563,31.3378779 972.343967,33.0995078 C971.954371,34.866148 971.161157,34.478349 971.161157,34.478349 C969.594761,33.5023378 967.828058,34.6697433 967.245166,35.6567772 C966.662275,36.6458151 966.258657,36.4363836 966.258657,36.4363836 C964.882552,36.8241827 962.535962,39.3814521 961.354154,40.37049 C960.171344,41.359528 961.74375,41.731294 961.74375,41.731294 L960.285519,42.7654249 C959.248933,43.0259618 957.307964,43.9328304 957.307964,43.9328304 C957.307964,43.9328304 954.977398,44.1923652 955.494189,45.4900391 C956.013984,46.7817007 959.378131,46.7817007 962.228492,43.1582343 C962.228492,43.1582343 963.005681,43.6752998 965.336246,42.8986995 C965.336246,42.8986995 971.291356,41.6010256 971.030958,42.6381627 C971.030958,42.6381627 970.256774,43.6752998 968.700393,43.6752998 C967.147016,43.6752998 962.745282,43.6752998 962.228492,45.2274981 C962.228492,45.2274981 963.781868,46.5221659 966.112433,46.5221659 C968.442999,46.5221659 970.773564,46.0051004 973.361523,48.3369052 C975.952487,50.66871 978.025659,51.7058471 977.245465,53.2630558 C976.472282,54.8142521 974.917904,56.3694567 972.847737,56.8865222 C970.773564,57.4096 969.007863,56.8414292 967.051871,57.6320584 C965.091872,58.4276978 963.119855,58.8154969 959.980052,59.0058892 C956.84125,59.2022939 953.717471,59.0249284 952.728959,59.606126 C951.740446,60.1893277 948.388318,61.3747704 946.041728,61.5681689 C943.698143,61.7625695 942.709631,61.3747704 940.749632,61.7625695 C938.79364,62.1523727 937.027938,61.955968 934.084435,63.3348092 C931.135924,64.7096421 929.373228,66.8630794 929.566524,64.9030406 C929.759819,62.9430018 926.801293,66.4762823 927.010613,68.2399164 C927.251983,70.1849242 927.026638,71.3813896 928.985635,71.9625872 C930.945633,72.5457889 932.109414,72.5798591 933.292223,73.5508599 C934.472028,74.5218607 936.444045,73.7292274 938.406047,72.9546313 C940.363041,72.1740228 942.709631,70.800192 945.848432,70.6037873 C948.990239,70.4103888 950.348317,69.439388 952.323338,69.0335517 C954.29836,68.6247093 960.770261,66.8630794 965.091872,66.8630794 C969.413484,66.8630794 978.6406,66.2798776 984.125991,66.4762823 C989.611383,66.6676767 999.25714,66.2167476 1000.22762,66.2167476 C1001.80003,66.2167476 1003.14409,66.4762823 1004.1306,65.8740414 C1005.1171,65.2768108 1008.6455,64.7096421 1010.21591,65.0964391 C1011.78531,65.4842382 1011.39771,65.4842382 1013.35771,65.4842382 C1015.3137,65.4842382 1015.71932,65.0964391 1017.09343,64.5162436 C1018.46653,63.9320398 1017.86961,61.5681689 1017.67632,60.1893277 C1017.48002,58.8154969 1019.44002,58.2312931 1021.20271,57.2442593 C1022.97142,56.2552213 1022.98444,54.4915873 1022.98444,54.4915873 C1023.19676,52.7079119 1021.20271,51.7529442 1019.05242,51.3661471" id="Fill-25" fill="#005BAB"></path>
                <path d="M975.339811,89.9265208 C977.139351,91.5044174 978.944863,91.7658742 981.515776,93.0802794 C984.092662,94.3967193 985.634414,95.4476331 989.753052,95.9756334 C993.871689,96.5036336 995.412446,95.1861764 997.731544,96.7671251 C997.731544,96.7671251 999.533074,97.55353 1000.81704,96.2360728 C1002.10498,94.9226849 1002.62155,91.7658742 1004.16331,90.451469 C1004.16331,90.451469 1004.4211,90.7129258 1004.68187,88.6121155 C1004.93568,86.5062186 1005.44926,84.1358129 1004.16331,84.1358129 C1002.87735,84.1358129 1002.36377,83.3494079 1001.8472,81.243511 C1001.33361,79.1376141 1000.81704,79.1376141 999.533074,78.8761573 C998.248115,78.6147006 997.731544,78.6147006 996.701387,77.3002954 C995.67322,75.9869075 993.612906,74.930907 992.069163,75.1923638 C990.525421,75.4589072 989.494268,75.7223987 986.923355,75.1923638 C984.34846,74.6663982 978.431277,73.6165018 976.883553,74.144502 C975.339811,74.6663982 968.650259,77.0368039 966.07835,77.8262609 C966.07835,77.8262609 963.762239,79.4041576 964.020027,80.9800196 C964.273833,82.5609683 965.048193,84.6638132 967.87789,85.4532702 C970.707587,86.2447619 973.537285,88.3455721 975.339811,89.9265208" id="Fill-27" fill="#005BAB"></path>
                <path d="M957,104.863633 C957,106.898587 957.519751,107.6585 959.343914,110.456316 C961.165055,113.251182 964.028719,115.28417 965.855904,117.064508 C967.677046,118.843864 970.281842,119.606726 974.188029,119.606726 C978.095223,119.606726 980.958888,120.11399 982.521161,121.129501 C984.086456,122.148944 985.15819,123.341407 987.208988,122.908856 C989.552902,122.404542 989.03013,122.404542 991.115175,122.404542 C993.201228,122.404542 993.720979,120.876852 995.54212,120.876852 C997.366284,120.876852 998.146917,120.369588 999.448307,118.843864 C1000.75272,117.319123 1001.53335,116.824639 1002.05411,113.251182 C1002.44594,110.487774 1002.31499,109.184224 1003.61638,108.928626 C1003.61638,108.928626 1005.69841,109.184224 1005.9603,106.643972 C1006.22118,104.098805 1005.17866,103.338893 1003.35449,103.083295 C1001.53335,102.833595 999.97108,102.323382 998.410821,103.083295 C996.845526,103.848123 996.437582,103.798969 993.459089,102.833595 C989.552902,101.561503 987.990629,101.303939 984.868096,101.05129 C981.739521,100.798641 976.790811,101.561503 971.844115,101.561503 C966.895405,101.561503 961.687827,102.833595 959.602782,103.083295 C959.602782,103.083295 957,102.833595 957,104.863633" id="Fill-29" fill="#005BAB"></path>
                <path d="M1013.67349,177.662108 C1012.12682,177.408488 1012.38643,176.375036 1010.58114,175.341584 C1008.77285,174.308132 1009.80331,171.984612 1010.32153,170.434933 C1010.83675,168.886252 1012.38643,165.532275 1013.41987,162.690532 C1014.45033,159.850785 1013.67349,156.493813 1013.67349,154.688516 C1013.67349,152.88322 1014.45033,153.653067 1014.19471,150.298092 C1013.9351,146.94112 1013.67349,146.682507 1011.09337,143.843759 C1008.51324,141.004012 1009.54469,141.263623 1009.03146,139.973556 C1008.51324,138.683488 1007.99602,137.906651 1006.18973,136.875196 C1004.38245,135.838748 1003.349,135.067903 1003.349,135.067903 C1001.02549,133.77484 997.930136,133.77484 995.865237,134.031455 C993.798341,134.290068 992.505283,133 992.505283,133 C991.21522,133 987.85926,135.585128 985.537747,137.390424 C983.214236,139.196719 979.854282,140.230171 976.243704,142.037464 C972.630131,143.843759 968.239724,146.94112 965.657602,147.200731 C963.074481,147.459344 962.044028,147.974572 960.495354,146.682507 C958.943684,145.392439 957.912233,143.587143 957.397007,142.037464 C956.878785,140.485788 955.848333,139.455332 952.234759,138.937108 C948.61819,138.423877 947.326131,134.551676 947.326131,134.551676 C947.326131,134.551676 945.261232,133.77484 945.261232,136.356972 C945.261232,138.937108 945.00262,140.230171 944.489391,142.037464 C943.974165,143.843759 943.712557,146.428887 944.489391,148.490799 C945.261232,150.557703 946.036068,152.106384 945.779453,156.2352 C945.520842,160.369009 945.261232,165.532275 945.520842,167.596184 C945.779453,169.663089 946.036068,170.434933 945.520842,172.758453 C945.00262,175.081973 946.036068,178.180332 946.29468,180.247236 C946.556287,182.314141 948.102964,185.66612 948.61819,187.733025 C949.133417,189.794937 949.133417,190.572772 948.874805,191.861841 C948.61819,193.156901 949.133417,195.478424 950.941701,196.250268 C952.74699,197.027105 953.268207,196.250268 955.848333,197.803941 C958.430455,199.35362 958.171843,198.576784 959.720518,200.125464 C961.269192,201.674145 961.269192,202.7056 962.044028,201.415532 C962.818865,200.125464 962.818865,197.803941 964.364543,196.511876 C964.364543,196.511876 965.142375,196.768492 965.142375,193.670133 C965.142375,190.572772 965.657602,188.766477 966.175823,185.925732 C966.688054,183.085985 966.947664,179.4704 967.724498,176.631652 C968.496338,173.791905 968.239724,173.018064 968.496338,171.212768 C968.755949,169.404476 967.981112,168.371024 967.206276,167.080956 C966.432438,165.787893 966.432438,165.532275 966.432438,164.239212 C966.432438,162.949144 966.688054,163.208755 966.432438,161.915692 C966.175823,160.625624 965.657602,160.1074 967.465886,160.369009 C969.271175,160.625624 972.886745,162.43092 975.985092,159.079939 C979.082441,155.719972 982.180788,153.396452 983.727465,152.624608 C985.279135,151.847771 985.794361,152.88322 986.052973,154.945132 C986.309587,157.012036 986.827809,160.885235 985.794361,162.172308 C984.76291,163.464373 981.14734,167.080956 979.082441,169.404476 C977.015545,171.725 974.176808,173.273681 973.40297,175.859808 C972.630131,178.438945 972.630131,179.729013 972.630131,182.830368 C972.630131,185.925732 971.079459,187.476409 973.658586,188.766477 C976.243704,190.053549 977.015545,190.831384 978.567215,191.861841 C980.113892,192.898289 980.113892,192.639676 982.4394,192.898289 C984.76291,193.156901 988.117872,193.670133 990.956609,192.639676 C993.798341,191.606224 995.090401,191.444466 997.670526,191.861841 C999.217204,192.121452 998.960589,191.861841 1001.2841,192.380065 C1003.60761,192.898289 1003.349,192.639676 1005.93112,192.380065 C1008.51324,192.121452 1007.73941,192.639676 1009.29108,192.121452 C1010.83675,191.606224 1012.38643,190.31316 1013.67349,189.794937 C1015.70844,188.975164 1015.22816,186.184344 1014.96855,184.894276 C1014.70994,183.602212 1016,182.830368 1016,180.762465 C1016,178.698556 1015.22816,177.920721 1013.67349,177.662108" id="Fill-31" fill="#005BAB"></path>
                <path d="M648,158.347244 C648,158.347244 647.480875,157.565945 645.931504,158.347244 C644.380131,159.128543 644.121069,159.648066 640.760262,160.431379 C637.397455,161.209657 636.619269,161.209657 635.587021,161.990956 C634.551772,162.774269 634.551772,162.5135 633.259462,162.774269 C631.967152,163.033023 631.187965,162.774269 630.155717,163.814322 C629.120469,164.85639 628.087221,165.375913 626.019725,165.375913 C623.949228,165.375913 622.137793,165.375913 620.329359,166.421001 C618.514924,167.460048 616.963551,168.499095 614.378931,169.021639 C611.79231,169.542169 611.016124,169.799917 609.205689,170.584237 C607.396255,171.362515 606.878131,171.362515 604.809634,171.362515 C602.741138,171.362515 601.705889,172.145828 600.154517,172.924106 C598.603145,173.707419 596.794711,175.78954 594.983276,174.747472 C593.174842,173.707419 590.069097,174.227949 588.257662,175.266996 C586.449228,176.309063 584.899856,176.309063 582.826358,176.309063 C580.758862,176.309063 579.466552,175.266996 577.914179,176.309063 C576.362807,177.349117 574.29231,176.309063 573,176.309063 C573,176.309063 575.586621,180.734074 576.621869,183.599508 C577.657118,186.463935 579.982676,190.628177 581.276986,190.888946 C582.569297,191.149714 588.257662,191.408469 598.603145,185.942398 C598.603145,185.942398 599.381332,185.419854 601.968953,184.902344 C604.552573,184.3798 608.948628,182.559454 611.016124,181.514366 C613.086621,180.475319 613.862807,178.913728 615.414179,178.913728 C616.963551,178.913728 619.037049,177.609886 621.102545,176.309063 C623.173042,175.008241 626.79291,172.665351 628.347283,171.10074 C629.896655,169.542169 633.259462,167.460048 637.914579,165.375913 C637.914579,165.375913 642.825758,162.251725 644.380131,161.730187 C645.931504,161.209657 647.742938,159.648066 648,158.347244" id="Fill-33" fill="#005BAB"></path>
                <mask id="mask-2" fill="white">
                    <use xlink:href="#path-1"></use>
                </mask>
                <g id="Clip-36"></g>
                <polygon id="Fill-35" fill="#005BAB" mask="url(#mask-2)" points="492 282 507 282 507 235 492 235"></polygon>
                <polygon id="Fill-37" fill="#005BAB" mask="url(#mask-2)" points="765.474093 235 751 235 751 282 762.376077 282 765.474093 282 789 282 789 274.390944 765.474093 274.390944"></polygon>
                <polygon id="Fill-38" fill="#005BAB" mask="url(#mask-2)" points="558.10188 262.249339 528.569757 235 520 235 520 282 530.89812 282 530.89812 251.973224 562.860942 282 569 282 569 235 558.10188 235"></polygon>
                <polygon id="Fill-39" fill="#005BAB" mask="url(#mask-2)" points="462.501916 254.029249 446.499087 254.029249 446.499087 235 432 235 432 282 446.499087 282 446.499087 261.561994 462.501916 261.561994 462.501916 282 477 282 477 235 462.501916 235"></polygon>
                <path d="M593.660302,263.390949 L600.622432,246.596612 L608.073797,263.390949 L593.660302,263.390949 Z M595.502426,235 L574,282 L585.94435,282 L590.688942,270.556027 L611.247841,270.556027 L616.322917,282 L631,282 L609.157106,235 L595.502426,235 Z" id="Fill-40" fill="#005BAB" mask="url(#mask-2)"></path>
                <polygon id="Fill-41" fill="#005BAB" mask="url(#mask-2)" points="653 241.648249 666.967831 241.648249 666.967831 282 681.543564 282 681.543564 241.648249 695 241.648249 695 235 653 235"></polygon>
                <polygon id="Fill-42" fill="#005BAB" mask="url(#mask-2)" points="716.132913 261.667543 734.716615 261.667543 734.716615 254.380117 716.132913 254.380117 716.132913 241.721088 740.371784 241.721088 740.371784 235 702 235 702 282 742 282 742 274.761204 716.132913 274.761204"></polygon>
                <polygon id="Fill-43" fill="#005BAB" mask="url(#mask-2)" points="813.129907 261.667543 831.716615 261.667543 831.716615 254.380117 813.129907 254.380117 813.129907 241.721088 837.368778 241.721088 837.368778 235 799 235 799 282 839 282 839 274.761204 813.129907 274.761204"></polygon>
                <polygon id="Fill-44" fill="#005BAB" mask="url(#mask-2)" points="1011.97387 235 988.321871 268.474356 964.925563 235 954 235 954 282 964.156482 282 964.156482 254.774298 981.893476 282 989.349652 282 1008.63383 254.256097 1008.63383 282 1022 282 1022 235"></polygon>
                <path d="M931.405578,265.631171 C929.868376,277.557578 919.361831,276.002311 919.361831,276.002311 C911.15909,276.002311 910.134622,271.853248 910.134622,271.853248 C907.82782,267.703174 908.679378,254.44397 908.679378,254.44397 C908.912257,238.537374 919.871567,240.739826 919.871567,240.739826 C929.354643,239.964215 930.379111,246.705052 930.379111,246.705052 C932.429046,253.962626 931.405578,265.631171 931.405578,265.631171 M920.001499,234 C904.49655,234 894,242.295092 894,258.5 C894,275.742426 905.641955,283 920.001499,283 C934.358045,283 946,276.002311 946,258.5 C946,244.969787 938.83572,234 920.001499,234" id="Fill-45" fill="#005BAB" mask="url(#mask-2)"></path>
                <path d="M845.00089,258.5 C845.133625,275.742426 857.928068,283 873.878208,283 C879.011954,283 883.822345,282.263827 888,280.692381 L888,273.309415 C884.644702,274.754458 876.922128,275.576585 876.922128,275.576585 C865.505932,275.833437 859.79933,270.75 859.71949,258.5 C859.650628,247.689987 865.738467,241.093755 876.922128,241.093755 C881.693597,241.093755 885.326341,241.821838 888,243.412498 L888,235.589648 C884.152685,234.518759 879.497983,234 873.878208,234 C856.657606,234 844.882127,243.284072 845.00089,258.5" id="Fill-46" fill="#005BAB" mask="url(#mask-2)"></path>
                <path d="M379.00089,258.5 C379.135615,275.742426 391.930462,283 407.876868,283 C413.007381,283 417.823537,282.263827 422,280.692381 L422,273.309415 C418.642862,274.754458 410.920646,275.576585 410.920646,275.576585 C399.50498,275.833437 393.800639,270.75 393.718807,258.5 C393.647952,247.689987 399.737505,241.093755 410.920646,241.093755 C415.691894,241.093755 419.324469,241.821838 422,243.412498 L422,235.589648 C418.153862,234.518759 413.499375,234 407.876868,234 C390.657065,234 378.882133,243.284072 379.00089,258.5" id="Fill-47" fill="#005BAB" mask="url(#mask-2)"></path>
                <path d="M313.81109,45.7622359 C306.941208,18.3125481 271.00357,2.12995156 223.080673,0 L227.522868,17.0305489 C244.591255,20.9520767 256.185505,28.6329942 258.951799,39.6835656 C265.280516,64.9791322 222.606019,96.8881229 163.900118,111.565151 C160.103895,112.51381 156.328836,113.361762 152.586025,114.124114 C157.347679,73.1686197 168.956037,45.0633298 186.168534,45.0633298 C191.253678,45.0633298 195.367343,47.3463559 198.682865,51.518644 L212.336971,47.7995371 C199.333877,19.6509432 181.08339,2.29511093 160.842581,2.29511093 C128.540932,2.29511093 99.9226368,51.7875315 92.119571,118.181596 C66.9911393,115.72334 49.1800344,107.098798 45.6800928,93.126719 C40.7713064,73.5100162 65.7183417,50.0281814 104.535143,33.6270509 C103.505214,29.7176079 102.075207,24.2955468 101.096674,20.6267933 C34.7308083,45.6081543 -7.84190456,87.7388983 1.20977272,123.902757 C8.05345347,151.237639 43.1889164,167.839176 90.4436703,170.388068 C94.296327,244.031018 124.285173,305 161.187235,305 C193.048494,305 222.27749,259.080661 230.246836,190.147775 L207.070431,195.800455 C201.855286,231.295619 191.919805,255.999029 179.933538,255.673746 C165.197101,255.273939 152.142612,215.966011 150.403222,166.732407 C159.015517,165.311432 167.765875,163.524891 176.606931,161.31236 C262.930425,139.738921 324.412699,88.1195705 313.81109,45.7622359" id="Fill-48" fill="#005BAB" mask="url(#mask-2)"></path>
            </g>
        </g>
    </g>
</svg>