<?xml version="1.0" encoding="UTF-8"?>
<svg width="1024px" height="672px" viewBox="0 0 1024 672" version="1.1" xmlns="http://www.w3.org/2000/svg" xmlns:xlink="http://www.w3.org/1999/xlink">
    <title>中国能源建设集团有限公司@2x</title>
    <g id="页面-1" stroke="none" stroke-width="1" fill="none" fill-rule="evenodd">
        <g id="88.中国能源建设集团有限公司" transform="translate(0.000000, -48.000000)">
            <g id="中国能源建设集团有限公司" transform="translate(0.000000, 48.000000)">
                <polygon id="Fill-1" fill="#009EE0" points="88.0975473 0 4 79 235 79 235 0"></polygon>
                <polygon id="Fill-2" fill="#009EE0" points="23 333 237 333 237 254 106.784603 254"></polygon>
                <polygon id="Fill-3" fill="#009EE0" points="85 105 6 105 6 319 85 235.215397"></polygon>
                <polygon id="Fill-4" fill="#009EE0" points="342.084419 0 258 79 489 79 489 0"></polygon>
                <polygon id="Fill-5" fill="#009EE0" points="360.795619 254 277 333 491 333 491 254"></polygon>
                <polygon id="Fill-6" fill="#009EE0" points="341 105 262 105 262 319 341 235.215397"></polygon>
                <polygon id="Fill-7" fill="#009EE0" points="397 202 488 202 488 132 397 132"></polygon>
                <polygon id="Fill-8" fill="#009EE0" points="872.095733 0 788 79 1019 79 1019 0"></polygon>
                <polygon id="Fill-9" fill="#009EE0" points="890.78561 254 807 333 1021 333 1021 254"></polygon>
                <polygon id="Fill-10" fill="#009EE0" points="869 105 790 105 790 319 869 235.215397"></polygon>
                <polygon id="Fill-11" fill="#E30016" points="529 254 529 333 675.904267 333 760 254"></polygon>
                <polygon id="Fill-12" fill="#E30016" points="528 0 528 79 658.212735 79 742 0"></polygon>
                <polygon id="Fill-13" fill="#E30016" points="680 227 759 227 759 13 680 96.7846035"></polygon>
                <polygon id="Fill-14" fill="#E30016" points="530 201 621 201 621 131 530 131"></polygon>
                <g id="编组" transform="translate(0.000000, 438.000000)" fill="#000000">
                    <path d="M117.779413,121.934698 L167.276278,121.934698 L167.276278,78.315445 L117.779413,78.315445 L117.779413,121.934698 Z M33.6722934,121.934698 L82.1369055,121.934698 L82.1369055,78.315445 L33.6722934,78.315445 L33.6722934,121.934698 Z M117.779413,25.7648434 C117.779413,18.4875098 118.74715,12.2211472 120.740523,6.93923834 C121.412149,5.59348684 121.751271,4.60737582 121.751271,3.93450007 C121.751271,3.30471489 119.440281,2.63018181 114.818302,1.95896339 L81.1757852,1.95896339 L81.1757852,50.5568344 L0,50.5568344 L0,166.559951 L33.6722934,166.559951 L33.6722934,148.700569 L82.1369055,148.700569 L82.1369055,234 L117.779413,234 L117.779413,148.700569 L167.276278,148.700569 L167.276278,163.613219 L203.888176,163.613219 L203.888176,50.5568344 L117.779413,50.5568344 L117.779413,25.7648434 Z" id="Fill-15"></path>
                    <path d="M942.825869,87.2302201 L963.609887,87.2302201 L963.609887,76.3167057 L942.825869,76.3167057 L942.825869,87.2302201 Z M942.825869,52.5555737 L962.643804,52.5555737 L962.643804,42.6066251 L942.825869,42.6066251 L942.825869,52.5555737 Z M942.825869,198.289523 L942.825869,176.464151 L1001.22592,176.464151 L1001.22592,151.667188 L942.825869,151.667188 L942.825869,142.795504 L994.294602,142.795504 L994.294602,118.968079 L942.825869,118.968079 L942.825869,110.051646 L994.294602,110.051646 L994.294602,76.3167057 L1016.0414,76.3167057 L1016.0414,51.5247147 L994.294602,51.5247147 L994.294602,18.820633 L942.825869,18.820633 C942.825869,14.1734813 943.497495,10.2439532 944.819242,6.93923834 L944.819242,3.93450007 C944.131074,2.63018181 942.152589,1.95896339 938.858973,1.95896339 L912.119649,1.95896339 L912.119649,18.820633 L877.502778,18.820633 L877.502778,42.6066251 L912.119649,42.6066251 L912.119649,52.5539163 L866.60953,52.5539163 L866.60953,76.3167057 L912.119649,76.3167057 L912.119649,87.2302201 L876.535041,87.2302201 L876.535041,110.051646 L912.119649,110.051646 L912.119649,118.968079 L874.541667,118.968079 L874.541667,142.795504 L912.119649,142.795504 L912.119649,151.667188 L868.583053,151.667188 L868.583053,176.464151 L912.119649,176.464151 L912.119649,198.289523 C887.074278,198.289523 867.615315,193.012586 853.762612,182.435509 C862.349832,161.278042 866.272063,129.546812 865.643447,87.2302201 L840.897496,87.2302201 C848.786623,70.0503432 857.691459,46.9173389 867.615315,17.8146341 L796.33361,17.8146341 L796.33361,44.5871337 L826.012539,44.5871337 C823.412056,58.4656104 819.779319,68.7493395 815.163957,75.3488254 C811.192098,81.9549405 805.254989,85.5944359 797.33774,86.2673117 L797.33774,112.996721 L833.971144,112.996721 L833.971144,135.813175 C833.299518,141.762988 832.64278,147.064785 831.972808,151.667188 C829.307809,149.061867 825.383924,139.156009 820.111824,121.934698 C805.587494,125.907317 796.667768,127.904399 793.372499,127.904399 C799.959729,147.73766 808.19294,166.218541 818.11845,183.405047 C812.851313,193.982124 802.92084,203.592977 788.43952,212.174629 C798.326983,218.145987 806.894352,225.085225 814.151555,232.994001 C820.747056,226.387886 827.673408,218.774114 834.933919,210.19412 C837.597264,208.197038 839.238282,206.89272 839.865243,206.241389 C855.712974,220.751309 885.731026,228.028642 929.939248,228.028642 L1011.10842,228.028642 C1013.10179,215.474372 1017.40781,204.26751 1024,194.318561 C1001.56008,196.986862 974.503135,198.289523 942.825869,198.289523 L942.825869,198.289523 Z" id="Fill-17"></path>
                    <path d="M567.512551,163.613219 L601.158377,163.613219 L601.158377,151.667188 L567.512551,151.667188 L567.512551,163.613219 Z M567.512551,130.849473 L601.158377,130.849473 L601.158377,118.968079 L567.512551,118.968079 L567.512551,130.849473 Z M537.807154,230.025724 L567.512551,230.025724 L567.512551,185.402129 L600.195602,185.402129 L600.195602,197.326614 C600.195602,202.603551 597.191481,205.230418 591.26926,205.230418 L582.37104,205.230418 C585.669618,213.180628 587.99715,222.118605 589.297392,232.024463 C606.450328,232.024463 617.681043,230.360505 622.946526,227.059104 C628.870401,223.759361 631.867905,217.471454 631.867905,208.197038 L631.867905,93.20655 L537.807154,93.20655 L537.807154,230.025724 Z" id="Fill-18"></path>
                    <path d="M679.371232,111.058143 L713.020366,111.058143 C724.20807,111.058143 731.490086,109.061061 734.767159,105.088442 C738.734054,101.787042 742.027669,92.1944189 744.692669,76.3172029 C736.088906,73.7135384 726.203098,69.7177171 714.972383,64.4358082 C715.644009,78.9871607 712.009618,85.5949331 704.117183,84.2690696 L688.269452,84.2690696 C681.660716,84.9204 678.699606,82.2951902 679.371232,76.3172029 L679.371232,65.4053459 C681.993221,64.7755608 685.625958,63.4662705 690.262825,61.4691885 C715.30985,51.5252119 732.499179,45.282052 741.695165,42.6054649 C741.695165,41.9756798 733.461954,33.3774547 716.944251,16.8439362 C716.944251,16.8439362 716.313981,17.5184693 714.972383,18.8211302 C705.083266,26.728249 693.223936,33.6691446 679.371232,39.6438172 L679.371232,20.8231842 C679.371232,16.8439362 679.708699,13.2060981 680.338969,9.90469789 C681.008941,7.90761592 681.364605,6.60495499 681.364605,5.93207924 C681.364605,3.93333994 674.438253,2.96545955 660.540885,2.96545955 L647.693966,2.96545955 L647.693966,90.1973369 C647.025648,105.423222 657.579774,112.360803 679.371232,111.058143" id="Fill-19"></path>
                    <path d="M705.083101,202.267942 L687.265156,202.267942 C681.993055,202.267942 679.371066,199.61953 679.371066,194.317733 L679.371066,174.527562 C687.936782,171.183071 701.119514,165.256461 718.937459,156.674809 C731.489921,150.705109 739.721477,147.063956 743.688373,145.761295 C743.688373,145.066874 734.429526,136.486879 715.981311,119.936788 C705.422222,131.204971 693.22377,139.786622 679.371066,145.761295 L679.371066,134.842809 C679.371066,132.215942 679.708534,129.207889 680.338804,125.908146 C681.008776,123.930952 681.36444,122.266993 681.36444,120.964332 C681.993055,118.294374 672.739171,116.991713 653.616022,116.991713 L647.693801,116.991713 L647.693801,207.231644 C647.025483,223.76019 654.285994,231.690511 669.440593,230.99609 L714.00448,230.99609 C726.535437,230.99609 734.766993,227.691376 738.733889,221.111778 C744.020877,214.505663 746.981988,202.267942 747.653614,184.411875 C734.429526,181.761805 723.580943,178.462062 714.972217,174.527562 C716.313815,194.317733 713.0202,203.593806 705.083101,202.267942" id="Fill-20"></path>
                    <path d="M590.264468,33.6686474 C592.929467,37.0131382 597.8641,44.5871337 605.127919,56.4900737 L569.483758,58.4656104 C580.716127,41.3023068 592.596963,25.0919676 605.127919,9.90420069 C605.127919,9.23298227 593.268589,5.93323937 569.483758,0 C568.183516,7.23590031 560.919697,22.1253479 547.736965,44.5871337 C543.771724,51.8611526 537.473987,56.4900737 528.908272,58.4656104 C528.279656,59.1384862 528.575767,63.4657733 529.91902,71.3762067 C531.912393,79.9578585 533.54514,84.6248982 534.868541,85.2546834 C546.727871,82.6278162 574.143785,79.9578585 617.008755,77.3508793 C618.980623,83.2576014 620.30237,86.2673117 620.973996,86.2673117 C632.834981,80.2909817 641.061575,75.3488254 645.719947,71.3762067 C642.426332,63.4657733 632.495859,46.9173389 616.019512,21.7872527 C606.112199,26.4393764 597.529941,30.3689045 590.264468,33.6686474" id="Fill-21"></path>
                    <path d="M297.126765,194.318561 L439.658746,194.318561 L439.658746,34.702821 L297.126765,34.702821 L297.126765,194.318561 Z M265.454462,232.994001 L297.126765,232.994001 L297.126765,220.121523 L439.657092,220.121523 L439.657092,230.995262 L472.297132,230.995262 L472.297132,7.90711873 L265.454462,7.90711873 L265.454462,232.994001 Z" id="Fill-22"></path>
                    <path d="M402.019888,153.664768 L382.266468,153.664768 L382.266468,120.965658 L402.019888,120.965658 L387.199447,130.848313 C392.466584,138.127304 397.419414,145.760964 402.019888,153.664768 L402.019888,153.664768 Z M428.737707,143.75891 C427.437465,141.761828 422.841954,134.149714 414.906509,120.965658 L426.765839,120.965658 L426.765839,96.1736669 L382.266468,96.1736669 L382.266468,74.3433236 L430.736043,74.3433236 L430.736043,49.5447033 L306.025316,49.5447033 L306.025316,74.3433236 L350.589202,74.3433236 L350.589202,96.1736669 L309.99552,96.1736669 L309.99552,120.965658 L350.589202,120.965658 L350.589202,153.664768 L304.051794,153.664768 L304.051794,179.46773 L432.729416,179.46773 L432.729416,153.664768 L413.922229,153.664768 L428.737707,143.75891 Z" id="Fill-23"></path>
                </g>
            </g>
        </g>
    </g>
</svg>