<?xml version="1.0" encoding="UTF-8"?>
<svg width="1024px" height="135px" viewBox="0 0 1024 135" version="1.1" xmlns="http://www.w3.org/2000/svg" xmlns:xlink="http://www.w3.org/1999/xlink">
    <title>中国华能集团有限公司@2x</title>
    <g id="页面-1" stroke="none" stroke-width="1" fill="none" fill-rule="evenodd">
        <g id="17.中国华能集团有限公司" transform="translate(0.000000, -317.000000)">
            <g id="中国华能集团有限公司" transform="translate(0.000000, 317.000000)">
                <path d="M222.533682,103.267223 C221.502614,99.3944954 218.582405,97.4043369 213.773055,97.298749 C207.129764,97.6130108 203.694021,101.48774 203.465825,108.921935 C203.465825,116.880567 206.957755,120.858382 213.944571,120.858382 C218.754414,120.755296 221.730809,118.085071 222.877207,112.848207 L227,112.848207 C225.738273,120.073228 221.100438,123.788824 213.085512,124 C208.619686,123.894412 205.068613,122.534779 202.435743,119.916597 C200.143441,117.088741 199,113.47623 199,109.078565 C199,104.366639 200.430286,100.596997 203.294309,97.7701418 C205.927672,95.2570475 209.419602,94 213.773055,94 C221.215768,94.211176 225.510077,97.298749 226.655982,103.267223 L222.533682,103.267223 Z" id="Fill-3" fill="#000000"></path>
                <polygon id="Fill-4" fill="#000000" points="255.719353 95 260 95 260 124 255.719353 124 255.719353 110.530485 239.281138 110.530485 239.281138 124 235 124 235 95 239.281138 95 239.281138 106.885668 255.719353 106.885668"></polygon>
                <polygon id="Fill-5" fill="#000000" points="270 124 274 124 274 95 270 95"></polygon>
                <polygon id="Fill-6" fill="#000000" points="304.890734 95 309 95 309 124 304.205365 124 288.280731 100.546241 288.109757 100.546241 288.109757 124 284 124 284 95 289.137565 95 304.890734 118.453759"></polygon>
                <path d="M334.724168,112.114837 L330.086252,99.2784568 L329.91424,99.2784568 L324.932794,112.114837 L334.724168,112.114837 Z M323.558669,115.601118 L320.294878,124 L316,124 L327.853054,95 L332.662489,95 L344,124 L339.362084,124 L336.270305,115.601118 L323.558669,115.601118 Z" id="Fill-7" fill="#000000"></path>
                <polygon id="Fill-8" fill="#000000" points="382.718862 95 387 95 387 124 382.718862 124 382.718862 110.530485 366.280647 110.530485 366.280647 124 362 124 362 95 366.280647 95 366.280647 106.885668 382.718862 106.885668"></polygon>
                <path d="M422,95 L422,113.397962 C421.884243,116.725659 420.677207,119.427458 418.379385,121.505344 C416.310109,123.169442 413.206937,124 409.06888,124 C405.620911,124 402.802679,123.274255 400.620615,121.8173 C398.206542,119.946557 397,117.349075 397,114.021377 L397,95 L401.310208,95 L401.310208,112.930524 C401.422997,118.128965 404.069078,120.779102 409.241031,120.881929 C414.871559,120.779102 417.689297,118.128965 417.689297,112.930524 L417.689297,95 L422,95 Z" id="Fill-9" fill="#000000"></path>
                <path d="M447.724005,112.114837 L443.086007,99.2784568 L442.913993,99.2784568 L437.932458,112.114837 L447.724005,112.114837 Z M436.558309,115.601118 L433.29446,124 L429,124 L440.85277,95 L445.662289,95 L457,124 L452.362002,124 L449.270168,115.601118 L436.558309,115.601118 Z" id="Fill-10" fill="#000000"></path>
                <polygon id="Fill-11" fill="#000000" points="484.890323 95 489 95 489 124 484.205459 124 468.280647 100.546241 468.109677 100.546241 468.109677 124 464 124 464 95 469.137464 95 484.890323 118.453759"></polygon>
                <polygon id="Fill-12" fill="#000000" points="523 124 499 124 499 95 522.644478 95 522.644478 98.3277447 503.444274 98.3277447 503.444274 107.360772 521.222392 107.360772 521.222392 110.847052 503.444274 110.847052 503.444274 120.513719 523 120.513719"></polygon>
                <polygon id="Fill-13" fill="#000000" points="549.890323 95 554 95 554 124 549.205459 124 533.280647 100.546241 533.109677 100.546241 533.109677 124 529 124 529 95 534.137464 95 549.890323 118.453759"></polygon>
                <path d="M578.193351,108.136516 L592,108.136516 L592,123.5291 L589.238868,123.5291 L588.202949,119.916529 C585.786958,122.534755 582.335049,123.89441 577.84821,124 C573.589649,124 570.310558,123.006155 568.010935,121.015964 C564.559025,118.085473 562.889769,114.053045 563.005641,108.921683 C563.809321,99.394085 568.814119,94.4198569 578.020533,94 C585.843409,94.4198569 590.330743,97.5610269 591.48204,103.42401 L587.340343,103.42401 C586.188551,99.4461292 583.025827,97.4043937 577.84821,97.298804 C571.290027,97.7186609 567.838117,101.644998 567.492975,109.078817 C567.492975,117.037582 571.001336,121.015964 578.020533,121.015964 C580.54992,121.015964 582.737136,120.387429 584.579211,119.131362 C586.878834,117.457439 587.971204,114.890257 587.858302,111.43482 L578.193351,111.43482 L578.193351,108.136516 Z" id="Fill-14" fill="#000000"></path>
                <path d="M628.193351,108.136516 L642,108.136516 L642,123.5291 L639.238868,123.5291 L638.202949,119.916529 C635.786958,122.534755 632.335049,123.89441 627.84821,124 C623.589649,124 620.310558,123.006155 618.010935,121.015964 C614.559025,118.085473 612.889769,114.053045 613.005641,108.921683 C613.809321,99.394085 618.814119,94.4198569 628.020533,94 C635.843409,94.4198569 640.330743,97.5610269 641.48204,103.42401 L637.340343,103.42401 C636.188551,99.4461292 633.025827,97.4043937 627.84821,97.298804 C621.290027,97.7186609 617.838117,101.644998 617.492975,109.078817 C617.492975,117.037582 621.001336,121.015964 628.020533,121.015964 C630.54992,121.015964 632.737136,120.387429 634.579211,119.131362 C636.878834,117.457439 637.971204,114.890257 637.858302,111.43482 L628.193351,111.43482 L628.193351,108.136516 Z" id="Fill-15" fill="#000000"></path>
                <path d="M656.411646,108.153223 L666.647089,108.153223 C670.998481,108.153223 673.176203,106.464388 673.176203,103.082174 C673.176203,99.8090148 671.234937,98.1696582 667.352911,98.1696582 L656.411646,98.1696582 L656.411646,108.153223 Z M656.411646,124 L652,124 L652,95 L667,95 C670.292152,95 672.763038,95.5301276 674.411646,96.5848291 C676.645063,97.6425599 677.764557,99.7024844 677.764557,102.765107 C677.764557,105.934261 676.233924,108.259754 673.176203,109.738053 C675.763038,110.371681 677.058734,112.221574 677.058734,115.284197 L677.412152,120.513275 C677.293165,121.994098 677.822278,122.945298 679,123.365866 L679,124 L673.52962,124 C673.176203,122.628232 672.939747,120.196713 672.823291,116.709988 C672.939747,113.224273 670.998481,111.48091 667,111.48091 L656.411646,111.48091 L656.411646,124 Z" id="Fill-16" fill="#000000"></path>
                <path d="M700.586709,97.298804 C693.542677,97.6130711 689.849231,101.593454 689.502396,109.235951 C689.849231,116.672271 693.542677,120.544563 700.586709,120.85883 C707.513472,120.441475 711.207415,116.566682 711.670524,109.235951 C711.207415,101.696542 707.513472,97.7186609 700.586709,97.298804 M712.016862,119.916529 C709.24566,122.640845 705.43594,124 700.586709,124 C695.391139,124 691.407505,122.535255 688.636799,119.602262 C686.325725,116.672271 685.113293,113.216834 685,109.235951 C685.113293,104.209678 686.845481,100.179753 690.19557,97.1416704 C692.850001,95.0483911 696.313383,94 700.586709,94 C705.319169,94 709.072243,95.3621578 711.843445,98.0839714 C714.497876,101.225642 715.883229,104.943302 716,109.235951 C715.883229,113.531101 714.554523,117.089126 712.016862,119.916529" id="Fill-17" fill="#000000"></path>
                <path d="M749,95 L749,113.397962 C748.884243,116.725659 747.677207,119.427458 745.379385,121.505344 C743.310109,123.169442 740.206937,124 736.06888,124 C732.620911,124 729.802679,123.274255 727.620615,121.8173 C725.206542,119.946557 724,117.349075 724,114.021377 L724,95 L728.310208,95 L728.310208,112.930524 C728.422997,118.128965 731.069078,120.779102 736.241031,120.881929 C741.871559,120.779102 744.689297,118.128965 744.689297,112.930524 L744.689297,95 L749,95 Z" id="Fill-18" fill="#000000"></path>
                <path d="M763.379492,108.311484 L771.963559,108.311484 C776.400352,108.311484 778.620508,106.568596 778.620508,103.082315 C778.620508,99.9126014 776.458658,98.2757408 772.13898,98.1692085 L763.379492,98.1692085 L763.379492,108.311484 Z M763.379492,124 L759,124 L759,95 L773.540337,95 C776.225936,95 778.385273,95.6341446 780.021865,96.9014241 C782.006786,98.3822731 783,100.442233 783,103.082315 C783,105.300306 782.239005,107.308768 780.723046,109.10366 C778.853229,110.901581 776.458658,111.797765 773.540337,111.797765 L763.379492,111.797765 L763.379492,124 Z" id="Fill-19" fill="#000000"></path>
                <path d="M828.533189,103.267223 C827.502614,99.3944954 824.582405,97.4043369 819.773055,97.298749 C813.129764,97.6130108 809.694021,101.48774 809.465825,108.921935 C809.465825,116.880567 812.957755,120.858382 819.944571,120.858382 C824.754414,120.755296 827.730809,118.085071 828.876714,112.848207 L833,112.848207 C831.738273,120.073228 827.100438,123.788824 819.085512,124 C814.619686,123.894412 811.068121,122.534779 808.435743,119.916597 C806.142948,117.088741 805,113.47623 805,109.078565 C805,104.366639 806.430286,100.596997 809.294309,97.7701418 C811.927672,95.2570475 815.419602,94 819.773055,94 C827.215275,94.211176 831.510077,97.298749 832.655982,103.267223 L828.533189,103.267223 Z" id="Fill-20" fill="#000000"></path>
                <path d="M855.586709,97.298804 C848.542677,97.6130711 844.849231,101.593454 844.502396,109.235951 C844.849231,116.672271 848.542677,120.544563 855.586709,120.85883 C862.513472,120.441475 866.207415,116.566682 866.670524,109.235951 C866.207415,101.696542 862.513472,97.7186609 855.586709,97.298804 M867.016862,119.916529 C864.24566,122.640845 860.43594,124 855.586709,124 C850.391139,124 846.407505,122.535255 843.636799,119.602262 C841.325725,116.672271 840.113293,113.216834 840,109.235951 C840.113293,104.209678 841.845481,100.179753 845.19557,97.1416704 C847.850001,95.0483911 851.313383,94 855.586709,94 C860.319169,94 864.072243,95.3621578 866.843445,98.0839714 C869.497876,101.225642 870.883229,104.943302 871,109.235951 C870.883229,113.531101 869.554523,117.089126 867.016862,119.916529" id="Fill-21" fill="#000000"></path>
                <polygon id="Fill-22" fill="#000000" points="879 124 884 124 884 120 879 120"></polygon>
                <path d="M894,120 L899,120 L899,123.968543 C899,127.460679 897.333156,129.469984 894,130 L894,127.93658 C895.727418,127.723158 896.592455,126.50837 896.592455,124.286148 L894,124.286148 L894,120 Z" id="Fill-23" fill="#000000"></path>
                <polygon id="Fill-24" fill="#000000" points="928.448975 120.513719 945 120.513719 945 124 924 124 924 95 928.448975 95"></polygon>
                <polygon id="Fill-25" fill="#000000" points="949 95 975 95 975 98.3282496 964.108449 98.3282496 964.108449 124 959.891551 124 959.891551 98.3282496 949 98.3282496"></polygon>
                <path d="M986.276158,120.672313 L994.4864,120.672313 C1000.41501,120.355246 1003.49367,116.606487 1003.72384,109.420986 C1003.60851,102.130974 1000.41501,98.3827191 994.144327,98.1696582 L986.276158,98.1696582 L986.276158,120.672313 Z M982,95 L994.828964,95 C999.161561,95 1002.52585,96.4808231 1004.92085,99.4374206 C1006.97378,101.868939 1008,105.0906 1008,109.103919 C1008,113.013736 1007.08568,116.234893 1005.26342,118.770417 C1003.09565,122.257142 999.559092,124 994.657682,124 L982,124 L982,95 Z" id="Fill-26" fill="#000000"></path>
                <polygon id="Fill-27" fill="#000000" points="1017 124 1022 124 1022 120 1017 120"></polygon>
                <polygon id="Fill-28" fill="#0054A6" points="1 134 54.9425236 134 67 85.3912295 18.7646054 63"></polygon>
                <polygon id="Fill-29" fill="#0054A6" points="20 59.9447904 90.5722778 85 92 80.15727 22.8956336 49"></polygon>
                <polygon id="Fill-30" fill="#0054A6" points="24 47.2212591 94.39863 72 96 66.716911 26.8769526 36"></polygon>
                <polygon id="Fill-31" fill="#0054A6" points="27 32.9140362 97.7159543 58 99 53.0103556 30.0448361 22"></polygon>
                <polygon id="Fill-32" fill="#0054A6" points="31 18.264425 80.151934 36 89 1.15503653 35.4325082 1"></polygon>
                <polygon id="Fill-33" fill="#0054A6" points="136.813257 134 82 134 115.192762 1 170 1"></polygon>
                <polygon id="Fill-34" fill="#0054A6" points="0 135 55.5861243 135 68 85.018819 18.3082919 62"></polygon>
                <polygon id="Fill-35" fill="#0054A6" points="20 60.2469904 91.5529931 86 93 81.023114 22.9334322 49"></polygon>
                <polygon id="Fill-36" fill="#0054A6" points="23 46.84062 94.3805104 73 96 67.4146968 25.9203584 35"></polygon>
                <polygon id="Fill-37" fill="#0054A6" points="26 32.5192907 97.696286 59 99 53.7336049 29.0869033 21"></polygon>
                <polygon id="Fill-38" fill="#0054A6" points="30 17.7565186 80.8408615 36 90 0.158846159 34.5851001 0"></polygon>
                <polygon id="Fill-39" fill="#0054A6" points="115.573121 0 82 135 137.432866 135 171 0"></polygon>
                <path d="M234.629122,48.4155453 L254.422527,48.4155453 L254.422527,30.7229698 L234.629122,30.7229698 L234.629122,48.4155453 Z M207.247418,48.4160478 L227.370878,48.4160478 L227.370878,30.7234724 L207.247418,30.7234724 L207.247418,48.4160478 Z M245.515495,25.5027454 C252.113628,25.5027454 257.938316,25.3122703 263,24.9222737 C262.557109,29.7580299 262.227053,34.303299 262.01033,38.5540603 L262.01033,46.3856534 C262.227053,52.3808452 262.557109,56.3466478 263,58.2775327 L254.092968,58.2775327 C254.309691,56.5371229 254.422527,54.9917113 254.422527,53.6362723 L234.629122,53.6362723 L234.629122,66.9780743 C234.845846,72.1993039 235.067043,75.8700962 235.288737,78 L227.041319,78 C227.258042,76.4500653 227.370878,72.779273 227.370878,66.9780743 L227.370878,53.6362723 L207.247418,53.6362723 C207.247418,54.9917113 207.355779,56.7316186 207.577473,58.8569993 L199,58.8569993 C199.438417,56.5371229 199.767976,52.2858589 199.98967,46.0951663 L199.98967,38.2640758 C199.767976,32.4633797 199.438417,28.0176201 199,24.9222737 C201.639452,25.3122703 207.134582,25.5027454 215.495332,25.5027454 L227.370878,25.5027454 C227.370878,18.1566377 227.149681,13.320379 226.711263,11 C233.087702,11.3899965 236.278407,11.7749674 236.278407,12.1604408 C236.278407,12.355439 236.165074,12.6454236 235.948351,13.0303944 C235.288737,14.1908352 234.958681,15.2557871 234.958681,16.2212296 C234.737484,18.1566377 234.629122,19.7015467 234.629122,20.8614849 L234.629122,25.5027454 L245.515495,25.5027454 Z" id="Fill-45" fill="#000000"></path>
                <path d="M327.444122,54.8492104 C325.453927,51.7836503 323.681643,49.5769456 322.136768,48.2330838 L328.107354,45.3559436 C328.988497,45.9311723 330.537871,47.5631468 332.751476,50.2468826 C333.414707,51.0155157 333.855029,51.496036 334.077939,51.6844558 L327.444122,54.8492104 Z M323.463732,26.3694101 C330.098049,26.3694101 334.518761,26.2756986 336.731866,26.0822942 L336.731866,31.5479634 C334.741671,31.3590452 330.315461,31.2603491 323.463732,31.2603491 L319.151476,31.2603491 L319.151476,39.3150457 L323.463732,39.3150457 C327.221212,39.1261275 331.093146,38.932723 335.073536,38.7398171 L335.073536,44.7807149 C332.860431,44.5917967 329.102451,44.4931006 323.795098,44.4931006 L319.151476,44.4931006 L319.151476,56.0001662 L325.122061,56.0001662 C331.533468,56.0001662 335.845724,55.8112479 338.058329,55.424439 L338.058329,61.7534497 C331.424512,61.1777226 327.112256,60.8901082 325.122061,60.8901082 L307.541671,60.8901082 C301.788497,61.0835127 297.258329,61.2769171 293.941671,61.4653369 L293.941671,55.424439 C297.699151,55.6178435 302.120363,55.8112479 307.210305,56.0001662 L312.517159,56.0001662 L312.517159,44.4931006 L309.2,44.4931006 L304.887744,44.4931006 C301.125266,44.6860066 298.803205,44.7807149 297.922561,44.7807149 L297.922561,39.0274314 C299.912256,39.2203374 303.670236,39.3150457 309.2,39.3150457 L312.517159,39.3150457 L312.517159,31.2603491 L309.2,31.2603491 C303.229415,31.2603491 298.917658,31.3590452 296.263732,31.5479634 L296.263732,26.0822942 C297.367285,26.0822942 299.798802,26.1809903 303.56128,26.3694101 L308.868634,26.3694101 L323.463732,26.3694101 Z M289.629415,67.5067332 L342.039219,67.5067332 L342.039219,19.7532835 L289.629415,19.7532835 L289.629415,67.5067332 Z M341.044122,14.5752287 C343.915461,14.5752287 346.900753,14.3863104 350,14 C349.55418,16.1124949 349.336768,18.5086163 349.336768,21.1918537 L349.336768,72.1095595 C349.336768,74.5993923 349.55418,76.2313669 350,77 L341.707354,77 C341.925266,76.0379625 342.039219,74.5051825 342.039219,72.3971738 L289.629415,72.3971738 C289.629415,74.1233582 289.846827,75.5614299 290.293146,76.7118872 L282,76.7118872 C282.440822,75.5614299 282.663732,74.1233582 282.663732,72.3971738 L282.663732,20.9037409 C282.663732,19.1775564 282.440822,16.8766418 282,14 C284.653927,14.3863104 287.639219,14.5752287 290.956378,14.5752287 L341.044122,14.5752287 Z" id="Fill-46" fill="#000000"></path>
                <path d="M409.126771,39.8347999 C408.680721,41.556699 409.458308,42.8032486 411.450031,43.5650012 C413.218228,43.9508498 415.764013,44.1388018 419.082884,44.1388018 C422.178731,43.9508498 424.392978,43.5650012 425.720627,42.9912006 C427.048275,42.4174 428.043386,40.5075488 428.707461,37.2521999 C428.925485,36.2970257 429.038998,35.629249 429.038998,35.2434004 C432.135344,37.3506509 434.790141,38.5927254 437.004389,38.974099 C437.004389,39.166526 436.890376,39.4534264 436.672352,39.8347999 C435.562727,44.6186264 433.571505,47.488624 430.698683,48.443301 C428.261411,49.4029502 424.611003,49.8782998 419.746458,49.8782998 C414.436365,49.8782998 410.340406,49.4974235 407.467585,48.7306985 C403.702164,47.7755243 401.933966,45.6722517 402.156991,42.4174 L402.156991,35.8172011 C397.728496,37.5391002 393.969075,38.8796257 390.873229,39.8347999 C390.650704,38.3058251 389.100031,36.2970257 386.22721,33.8088989 C390.209655,33.2350982 395.405736,31.9930237 401.824954,30.0782003 C402.042978,27.020748 402.042978,23.86385 401.824954,20.6085011 C401.824954,17.1652001 401.711441,14.4881268 401.493417,12.5738006 C406.803511,12.5738006 409.790345,12.959152 410.453919,13.7214019 L410.122382,14.2956997 C409.676332,15.443301 409.344795,16.5913995 409.126771,17.7390007 C408.903746,20.6085011 408.794734,23.765399 408.794734,27.2082027 C417.641223,22.6173005 423.397367,18.8870992 426.052664,16.0175988 C430.698683,19.6533269 433.021943,21.8550506 433.021943,22.6173005 C432.798918,22.8102248 432.243856,23.0026519 431.362758,23.1911011 C430.252634,23.5769497 429.257022,23.9578261 428.375424,24.3391996 C427.711849,24.724551 426.052664,25.4872981 423.397367,26.6348993 C416.977649,29.5043997 412.222117,31.6116502 409.126771,32.9477007 L409.126771,39.8347999 Z M423.06533,57.0522993 C430.143621,56.86385 435.121678,56.6709257 438,56.4784987 L438,63.0782003 C436.890376,63.0782003 434.126067,62.9842243 429.702572,62.7913 C426.161176,62.6028508 424.060941,62.5043997 423.397367,62.5043997 L404.148714,62.5043997 L404.148714,65.9481979 C404.148714,70.7320245 404.366238,74.744651 404.812288,78 L396.183323,78 C396.401348,74.3632775 396.624372,70.3506509 396.846897,65.9481979 L396.846897,62.5043997 L377.930282,62.5043997 C372.397163,62.6968268 367.642131,62.8897511 363.659186,63.0782003 L363.659186,56.4784987 C367.860155,56.6709257 372.506175,56.86385 377.598245,57.0522993 L396.846897,57.0522993 C396.846897,54.375226 396.624372,51.792626 396.183323,49.3044992 C401.933966,49.3044992 404.9213,49.5913995 405.143825,50.1652001 L405.143825,51.025901 C404.698275,51.9855503 404.366238,52.8462512 404.148714,53.6085011 L404.148714,57.0522993 L423.06533,57.0522993 Z M384.568024,38.3998011 C384.568024,42.2289507 384.785548,46.2465495 385.231598,50.4525976 L376.93467,50.4525976 C377.37522,47.7755243 377.598245,43.6639495 377.598245,38.1129008 L377.598245,30.3651007 C375.160972,33.2350982 372.065626,36.2970257 368.305705,39.5478996 L362,35.2434004 C370.846489,29.1230262 378.148306,21.375226 383.90395,12 C389.214044,14.1072505 391.977853,15.6362253 392.200878,16.5913995 C392.200878,16.7843238 391.868841,16.9767508 391.205266,17.1652001 C390.095142,17.7390007 389.214044,18.3132986 388.550469,18.8870992 C386.776771,20.8014254 385.449123,22.235927 384.568024,23.1911011 L384.568024,38.3998011 Z" id="Fill-47" fill="#000000"></path>
                <path d="M497.333184,55.9608426 C497.999665,55.577804 499.218618,55.0014982 501.000087,54.2314258 C507.442406,51.1606247 511.666301,48.854902 513.666749,47.3147572 C514.333231,48.0848296 515.218189,48.9492884 516.333177,49.9086328 C518.333626,51.8308174 519.218584,52.8895421 519.000107,53.0788142 C519.000107,53.2720814 518.666615,53.465848 517.999632,53.65512 C516.666669,54.0421538 515.333204,54.4251924 514.000241,54.8077316 C513.775737,54.8077316 508.218879,56.5371484 497.333184,59.9954827 L497.333184,67.4889565 C497.333184,69.0291013 499.218618,69.7946791 503.000033,69.7946791 C508.999873,69.4121399 512.333284,69.0291013 512.999766,68.6420675 C514.77571,67.6827231 515.551681,65.1837332 515.333204,61.1485937 C517.999632,63.0712778 520.551547,64.4181554 523,65.1837332 C521.218531,70.1777177 519.000107,73.1541325 516.333177,74.1174721 C515.666696,74.3067441 513.218745,74.5005107 508.999873,74.6942773 C504.775978,74.8835494 501.000087,74.8835494 497.666676,74.6942773 C493.442781,74.3067441 491.218832,72.7715933 491.000355,70.082832 L491.000355,49.6204799 C491.000355,46.3554128 490.775851,43.8559235 490.332869,42.1265067 C495.885206,42.8965791 498.666649,43.4728849 498.666649,43.8559235 C498.666649,44.0491907 498.552137,44.3378431 498.333157,44.7203823 C497.666676,45.4904547 497.333184,46.2605271 497.333184,47.0261049 L497.333184,55.9608426 Z M497.333184,24.2580301 C502.00006,22.3393412 507.332916,19.5516991 513.332755,15.8995982 C517.33315,18.7816267 519.218584,20.7043107 519.000107,21.6636551 L517.33315,22.2404604 C515.333204,22.6274942 513.666749,23.0105328 512.333284,23.393072 C509.666856,24.1631444 506.442935,25.2213697 502.666542,26.5632534 C500.666595,27.3333258 498.885628,28.0045173 497.333184,28.5808231 L497.333184,33.7685742 C497.333184,34.34488 499.109128,34.8267995 502.666542,35.2093388 C507.332916,35.4031054 510.442828,35.2093388 511.999792,34.6330329 C513.551735,33.8679545 514.333231,31.3684653 514.333231,27.1395592 C517.218638,29.0627426 519.885066,30.5035071 522.333016,31.4628516 C520.776052,36.6506027 518.218611,39.5326311 514.666722,40.1094364 C513.332755,40.4964702 511.109309,40.6857422 507.9999,40.6857422 C504.885468,40.6857422 501.666568,40.5913559 498.333157,40.3975893 C493.218779,39.6320114 490.775851,38.0918666 491.000355,35.786144 C491.218832,24.6450639 491.000355,16.6696706 490.332869,11.8644587 L490.332869,11 C495.885206,11.3870338 498.776139,11.8644587 498.999638,12.4407645 C498.999638,12.8282977 498.776139,13.2108369 498.333157,13.5938756 C497.666676,14.363948 497.333184,15.4221733 497.333184,16.7645563 L497.333184,24.2580301 Z M459.000208,60.2836356 L477.000228,60.2836356 L477.000228,53.3664677 L459.000208,53.3664677 L459.000208,60.2836356 Z M459.000208,49.6204799 L477.000228,49.6204799 L477.000228,42.9914648 L459.000208,42.9914648 L459.000208,49.6204799 Z M483.000067,72.1004018 C482.776065,74.5948971 478.666682,76.2299276 470.666903,77 C470.666903,74.1174721 469.666923,71.8122489 467.666977,70.082832 C473.218812,70.6596373 476.333244,70.560257 477.000228,69.7946791 L477.000228,64.0306222 L459.000208,64.0306222 L459.000208,69.2183733 C458.776206,71.3303294 459.000208,73.8298186 459.666689,76.7118471 L451.666903,76.7118471 C452.109383,73.0597462 452.333385,70.560257 452.333385,69.2183733 L452.333385,43.2791183 C452.333385,41.1676617 452.109383,39.4382448 451.666903,38.0918666 C455.218792,38.4789004 458.000234,38.6681724 460.000181,38.6681724 L473.666816,38.6681724 C475.666763,38.6681724 479.000174,38.4789004 483.666548,38.0918666 C483.218544,40.2083173 483.000067,41.9377341 483.000067,43.2791183 L483.000067,72.1004018 Z M477.000228,28.0045173 C474.776279,25.3162554 472.666843,23.2986857 470.666897,21.951808 L476.666736,18.7816267 C481.776092,23.393072 485.666495,27.9096316 488.333425,32.3278097 L480.999618,35.4974917 C480.552116,34.5386466 480.000147,33.4804213 479.333164,32.3278097 C469.333432,32.9041155 459.776179,33.9623408 450.66693,35.4974917 L448,28.868976 C450.442928,28.868976 452.552364,27.715865 454.333833,25.4106417 C457.666743,21.5692688 460.666662,16.8634372 463.333592,11.2881529 C469.10943,13.2108369 471.775857,14.363948 471.333378,14.7469866 C471.333378,14.9402538 470.885876,15.3232924 469.999913,15.8995982 C469.10943,16.4764034 468.333458,17.1515901 467.666977,17.917168 C467,18.4934738 465.666528,20.0336186 463.667084,22.5286133 C460.552652,26.1807141 458.442714,28.4859374 457.333251,29.4452818 L477.000228,28.0045173 Z" id="Fill-48" fill="#000000"></path>
                <path d="M549.496014,46.8699976 L568.000249,46.8699976 L568.000249,42.2785981 L549.496014,42.2785981 L549.496014,46.8699976 Z M549.496014,38.8352971 L568.000249,38.8352971 L568.000249,34.2438977 L549.496014,34.2438977 L549.496014,38.8352971 Z M549.496014,30.5131991 L568.000249,30.5131991 L568.000249,25.9222969 L549.496014,25.9222969 L549.496014,30.5131991 Z M572.626557,56.6265972 L591.461385,56.6265972 L599.061036,56.6265972 C601.043597,56.4381479 602.912642,56.2452236 604.678625,56.0527965 L604.678625,61.7917973 C600.930081,61.4104237 596.525828,61.2174994 591.461385,61.2174994 L578.57424,61.2174994 C584.960556,66.3826995 594.104136,69.1582238 606,69.5395974 C603.573329,71.4494485 601.812823,73.5571962 600.713502,75.8523987 C586.835077,72.9828984 577.913552,68.1045986 573.947932,61.2174994 L572.626557,61.2174994 L572.626557,66.6695998 C572.626557,70.113398 572.843135,73.5571962 573.287244,77 L565.687095,77 C565.904171,75.4670474 566.017688,72.0237464 566.017688,66.6695998 L566.017688,60.9305991 L565.356502,60.9305991 C560.286583,66.4816478 551.034465,71.4494485 537.600149,75.8523987 C535.618086,73.5571962 533.412972,71.7368461 530.991778,70.4002983 C541.343715,69.6380485 550.817887,66.4816478 559.408819,60.9305991 L546.852267,60.9305991 C545.970022,60.9305991 543.878425,61.0290501 540.574489,61.2174994 C536.608869,61.4104237 534.074158,61.5043997 532.974339,61.5043997 L532.974339,56.0527965 C536.278774,56.2452236 540.791067,56.4381479 546.522172,56.6265972 L566.017688,56.6265972 L566.017688,56.0527965 C566.017688,55.0976223 565.904171,53.7565996 565.687095,52.0351977 C567.008471,52.2276248 567.447601,52.2276248 567.008471,52.0351977 C571.851854,52.6089983 574.05647,53.0888229 573.617837,53.4696993 C573.617837,53.6626236 573.503823,54.0439971 573.287244,54.6177977 C572.843135,55.0031491 572.626557,55.4784987 572.626557,56.0527965 L572.626557,56.6265972 Z M572.626557,21.6177977 L589.808421,21.6177977 C592.452167,21.6177977 596.634366,21.4293485 602.365471,21.0434999 L602.365471,26.4956003 C598.178294,26.1152212 593.882579,25.9222969 589.478326,25.9222969 L573.947932,25.9222969 L573.947932,30.5131991 L584.852018,30.5131991 C591.016777,30.5131991 594.982397,30.4192231 596.747882,30.2262988 L596.747882,34.5303007 L591.130792,34.5303007 C588.042936,34.3423487 585.951837,34.2434004 584.852018,34.2434004 L573.947932,34.2434004 L573.947932,38.8352971 L585.182611,38.8352971 C586.504484,38.8352971 588.595583,38.7408239 591.461385,38.5478996 L596.747882,38.5478996 L596.747882,42.8523987 C593.221891,42.4715224 589.478326,42.2781009 585.513204,42.2781009 L573.947932,42.2781009 L573.947932,46.8699976 L584.521923,46.8699976 C592.668746,46.8699976 598.286832,46.7755243 601.37419,46.5830973 L601.37419,52.0351977 C597.40857,51.4608998 591.900018,51.1739995 584.852018,51.1739995 L549.496014,51.1739995 L550.156701,54.3308974 L542.887145,54.3308974 C543.326276,52.0351977 543.547833,48.1165471 543.547833,42.5654984 L543.547833,30.5131991 C542.226457,32.6209468 539.58271,35.3914989 535.618086,38.8352971 L530,35.3914989 C538.369873,28.5043997 544.978244,20.6626236 549.826606,11.8611982 C550.487294,12.0536252 551.478575,12.3405256 552.79995,12.7218991 C556.982646,13.6815483 558.856171,14.349325 558.417539,14.7306985 C558.417539,15.1160499 558.086946,15.4974235 557.426258,15.878797 C555.443697,17.2193226 553.347619,19.134146 551.147982,21.6177977 L571.304185,21.6177977 C570.199886,19.7074494 568.330842,17.2193226 565.687095,14.1568979 L571.304185,11 C572.404004,12.1480985 574.05647,14.1568979 576.261086,17.0263983 C576.921774,17.7931232 577.360407,18.367421 577.582959,18.7478001 L572.626557,21.6177977 Z" id="Fill-49" fill="#000000"></path>
                <path d="M663.569963,30.3756723 L665.880099,30.3756723 C668.07637,30.3756723 671.376495,30.1854918 675.780472,29.7966003 L675.780472,35.8778598 C672.258583,35.4929827 668.850062,35.2987879 665.549938,35.2987879 L663.900124,35.2987879 L663.900124,58.4656819 C663.900124,62.1358141 659.388247,64.3577645 650.369963,65.127017 C649.92693,62.6200467 648.936445,60.2033997 647.399503,57.8871117 C653.556221,58.6608803 656.856345,58.0818083 657.300373,56.1493939 L657.300373,37.9051136 C651.576743,47.1722727 644.868098,54.8010695 637.169465,60.7829735 C636.50964,59.434649 634.530162,57.9864672 631.230037,56.4389299 C639.809764,52.1942419 647.286631,45.0496778 653.670087,35.0087501 L645.420025,35.0087501 C641.898135,35.0087501 637.938185,35.2034467 633.539677,35.5883238 L633.539677,29.7966003 C637.938185,30.1854918 641.789739,30.3756723 645.089863,30.3756723 L656.970211,30.3756723 L656.970211,24.2944128 C656.970211,22.9455866 656.856345,21.7874426 656.639552,20.8189773 C661.920149,21.2078688 664.55995,21.5927459 664.55995,21.9776231 C664.55995,22.1718179 664.446582,22.4618557 664.229789,22.846231 C663.786756,23.8146963 663.569963,24.5839488 663.569963,25.1630208 L663.569963,30.3756723 Z M628.589739,66.574697 L679.409764,66.574697 L679.409764,19.0817613 L628.589739,19.0817613 L628.589739,66.574697 Z M686.670336,63.3892992 L686.670336,71.7873485 C686.670336,73.9094416 686.778732,75.5518182 687,76.710464 L679.080099,76.710464 C679.296892,76.131392 679.51816,74.5838547 679.740423,72.0768845 L679.740423,71.4978125 L628.919403,71.4978125 L628.919403,72.3669223 C628.919403,74.4885136 629.0278,76.0315347 629.250062,77 L621,77 C621.438061,72.9459943 621.659826,68.7961456 621.659826,64.547945 L621.659826,26.3211648 C621.438061,21.3032099 621.216296,16.9596682 621,13.289536 C622.979478,13.4842326 628.589739,13.579072 637.829789,13.579072 L667.860075,13.579072 C675.55821,13.579072 681.936693,13.3888915 687,13 C686.778732,16.2852551 686.670336,20.7241379 686.670336,26.3211648 L686.670336,63.3892992 Z" id="Fill-50" fill="#000000"></path>
                <path d="M725.446081,57.9870456 L758.493171,57.9870456 L758.493171,51.0254062 L725.446081,51.0254062 L725.446081,57.9870456 Z M725.446081,46.0951663 L758.493171,46.0951663 L758.493171,38.5540603 L725.446081,38.5540603 L725.446081,46.0951663 Z M766.754944,20.2815158 C772.259639,20.2815158 775.677479,20.0910407 777,19.7015467 L777,26.0827145 C775.677479,25.6972411 772.259639,25.5027454 766.754944,25.5027454 L733.047091,25.5027454 C731.280908,28.2121158 729.411652,30.9179681 727.429364,33.6238205 L755.518993,33.6238205 C761.68445,33.6238205 765.102788,33.4333453 765.763551,33.0433488 C765.541969,35.1737552 765.433419,37.7836161 765.433419,40.8749419 L765.433419,72.4892884 C765.872101,75.1946382 761.5759,77.0300344 752.544814,78 C752.322734,75.8695936 751.661972,73.9397138 750.562029,72.1993039 C750.117869,71.8093073 749.901266,71.5193228 749.901266,71.3288477 C756.288804,71.7143211 759.154432,70.8438649 758.493669,68.7184842 L758.493669,63.2077726 L725.446081,63.2077726 L725.446081,68.4284996 C725.446081,73.0692575 725.663181,75.8695936 726.107341,76.8395592 L718.506331,76.8395592 C718.722934,75.8695936 718.836961,73.0692575 718.836961,68.4284996 L718.836961,44.0647719 C719.053564,44.0647719 717.292858,45.7101955 713.549367,48.9960169 C710.461659,51.8958624 708.261773,53.9262568 706.93975,55.0866976 C705.396145,54.1212551 703.635439,53.1558126 701.652155,52.1858469 C700.547233,51.8008761 700,51.5108916 700,51.3158933 C711.453052,44.5497547 720.158486,35.9436968 726.107341,25.5027454 L713.218737,25.5027454 C708.148243,25.5027454 704.296201,25.6972411 701.652155,26.0827145 L701.652155,19.7015467 C703.635439,20.0910407 707.486983,20.2815158 713.218737,20.2815158 L728.750889,20.2815158 C730.072414,17.9616394 731.394935,15.1602982 732.71646,11.8704562 C732.933561,11.4849828 733.047091,11.1949983 733.047091,11 C734.147034,11.1949983 734.477166,11.2899845 734.038483,11.2899845 C739.543178,12.4504253 742.078176,13.2253927 741.639494,13.6103635 C741.639494,13.8053618 741.417414,14.1908352 740.978731,14.7708043 C739.212548,16.1257407 737.673424,17.9616394 736.351899,20.2815158 L766.754944,20.2815158 Z" id="Fill-51" fill="#000000"></path>
                <path d="M825.339881,38.9160661 L847.137991,38.9160661 L847.137991,31.672977 L825.339881,31.672977 L825.339881,38.9160661 Z M825.339881,27.327023 L847.137991,27.327023 L847.137991,19.7942705 L825.339881,19.7942705 L825.339881,27.327023 Z M853.41273,38.6259008 C853.41273,41.1384917 853.629701,42.8769737 854.073595,43.8408447 C854.073595,43.6505806 851.761561,43.5511814 847.137991,43.5511814 L837.559921,43.5511814 C837.998839,46.6430989 838.989639,50.1200628 840.532322,53.9810691 C845.155893,50.8941718 848.675698,47.9965345 851.101194,45.2896633 C851.761561,45.6787259 852.860848,46.3534356 854.40353,47.3178086 C857.045997,48.6712442 858.145283,49.5407362 857.706365,49.9252806 C857.706365,50.1200628 857.484915,50.2149439 857.045997,50.2149439 C855.502817,50.4097262 853.851648,51.1838351 852.091994,52.5327525 C849.666498,54.0809703 846.807559,55.9143334 843.504724,58.0373597 C847.906845,62.672977 854.073595,66.0545578 862,68.1775842 C859.136084,69.1459733 856.385629,70.9753202 853.743163,73.6826934 C840.970743,67.1183301 833.705204,57.0734887 831.94555,43.5511814 L825.339881,43.5511814 L825.339881,66.7287655 C825.556852,66.5390034 826.000249,66.3442211 826.660617,66.1499409 C830.623819,64.2211948 833.596718,62.4827128 835.577822,60.934495 C835.577822,63.2523036 835.794793,65.3798481 836.238687,67.3080922 C827.868388,70.7850561 822.25352,73.6826934 819.395078,76 C818.073844,73.4879111 816.752611,71.6540461 815.431378,70.4953928 C817.412979,69.9160661 818.62075,68.3718644 819.064645,65.8602776 L819.064645,20.0839339 C819.281118,17.9609075 819.064645,16.1275445 818.404277,14.5793267 C820.38538,14.9683892 822.697912,15.1586533 825.339881,15.1586533 L847.137991,15.1586533 C850.657299,15.1586533 852.969333,14.9683892 854.073595,14.5793267 C853.629701,15.5482178 853.41273,17.2866998 853.41273,19.7942705 L853.41273,38.6259008 Z M796.936102,19.5046072 L796.936102,63.2523036 C796.936102,64.4114589 797.044587,66.7287655 797.266534,70.2057295 L797.266534,75.130508 L790,75.130508 C790.438918,72.2338748 790.661363,68.2769834 790.661363,63.2523036 L790.661363,22.6914058 C790.661363,17.8660265 790.547404,14.9683892 790.33093,14 C792.529005,14.1942803 796.606167,14.3890625 802.55097,14.5793267 L805.523372,14.5793267 C808.604259,14.5793267 812.015579,14.3890625 815.76181,14 C815.317916,14.9683892 814.21863,17.7666273 812.458976,22.4017425 C808.495774,31.672977 806.514172,36.5977555 806.514172,37.1775842 C806.514172,37.3718644 807.061078,38.0465741 808.165341,39.2057295 C812.345514,44.035627 814.549062,48.3815809 814.77101,52.2430892 C814.77101,58.0373597 810.58586,61.7086039 802.220537,63.2523036 C801.99859,60.934495 800.677357,58.6166864 798.257335,56.2993798 C804.419109,57.0734887 807.721944,55.7195511 808.165341,52.2430892 C808.826206,48.9609075 806.622658,44.8097359 801.560169,39.7850561 C800.455409,38.6259008 799.909001,37.9516931 799.909001,37.7569108 C799.909001,37.5666467 800.238936,36.7925378 800.899802,35.4391022 C803.541273,30.6137229 805.853805,25.2993798 807.834908,19.5046072 L796.936102,19.5046072 Z" id="Fill-52" fill="#000000"></path>
                <path d="M920.234014,12 C924.863275,26.1239857 934.452103,36.5699025 949,43.3392588 C946.132867,44.1145947 943.379324,45.8558322 940.733889,48.5629714 C927.286015,39.0864759 918.02799,27.3795069 912.959816,13.4511151 L920.234014,12 Z M920.895621,51.4641959 C926.185494,57.8489012 931.693079,65.2980591 937.427843,73.808653 L928.830928,77 C928.386535,75.4493282 927.286015,73.3234395 925.524384,70.6163004 L923.541056,70.6163004 C899.734636,71.777293 885.29435,72.9377828 880.226176,74.0987755 L877.912044,67.714573 C886.50846,63.0716081 894.660982,52.5296543 902.379573,36.084689 C907.88666,37.6353608 911.084597,38.8913849 911.967903,39.8572865 C911.967903,40.0523775 911.746204,40.2474685 911.306793,40.4380342 C909.761879,41.5985241 908.43966,42.9541049 907.33914,44.5002514 C900.503855,54.3664261 894.443767,62.0106751 889.153397,67.4244506 C893.121548,67.2343877 899.403334,66.9437624 908.000249,66.5535804 C914.390642,66.1684265 919.128511,65.8783041 922.21784,65.6837159 C920.673425,62.59092 918.02799,58.9138567 914.282533,54.6565485 L920.895621,51.4641959 Z M902.379573,15.7725975 C902.379573,15.9676885 902.048769,16.3528424 901.387659,16.9335902 C900.064942,17.7089261 899.07253,18.5787906 898.411421,19.5446922 C891.137722,31.1521045 883.419131,40.9227449 875.266609,48.8530938 C873.060586,47.5015355 870.307042,46.4360771 867,45.6607412 C878.459066,37.9259861 886.947871,26.8993216 892.459941,12.5802449 C897.750311,13.7412375 901.056855,14.8066959 902.379573,15.7725975 L902.379573,15.7725975 Z" id="Fill-53" fill="#000000"></path>
                <path d="M974.999741,56.239821 L996.999909,56.239821 L996.999909,45.6431645 L974.999741,45.6431645 L974.999741,56.239821 Z M993.999954,40.7750742 C997.552386,40.7750742 1000.99985,40.5870002 1004.3333,40.2019199 L1004.66679,40.2019199 C1004.0003,42.1129306 1003.66681,44.7841773 1003.66681,48.2206223 L1003.66681,55.3803376 C1003.66681,59.774521 1004.0003,62.8263819 1004.66679,64.5448526 L996.33342,64.5448526 C996.775904,63.3990401 996.999909,62.1594387 996.999909,60.8215823 L974.999741,60.8215823 C974.999741,63.3052512 975.218723,65.4038397 975.666733,67.1218141 L967.333359,67.1218141 C967.775843,64.2585235 967.999848,60.9198373 967.999848,57.0988082 L967.999848,49.0801058 C967.999848,45.6431645 967.775843,42.6855888 967.333359,40.2019199 C969.551808,40.5870002 973.333267,40.7750742 978.666687,40.7750742 L993.999954,40.7750742 Z M1010.00021,15.5726581 C1012.88565,15.5726581 1016.44261,15.4788692 1020.66655,15.2863291 C1022.21901,15.098255 1023.33351,15 1024,15 C1024,15.5726581 1023.88549,16.7184706 1023.66701,18.4369412 C1023.443,22.2579703 1023.33351,25.3098312 1023.33351,27.6009599 L1023.33351,69.6997682 C1023.55199,71.4177425 1022.66702,72.6578401 1020.66655,73.4230384 C1018.88556,74.1832744 1014.88512,75.0422615 1008.66673,76 C1008.44273,73.5168273 1007.44274,71.2256986 1005.66678,69.1266138 C1013.44265,69.5116941 1016.88559,68.6522107 1016.00012,66.549156 L1016.00012,20.7275737 L980.333663,20.7275737 C974.333252,20.7275737 969.109324,20.9201139 964.666398,21.3002318 L964.666398,15 L965.999376,15 C969.775813,15.3845841 974.552234,15.5726581 980.333663,15.5726581 L1010.00021,15.5726581 Z M996.666413,28.7462762 L1006.33327,28.7462762 C1008.33374,28.5582022 1009.8852,28.3661582 1011.0002,28.1736181 L1011.0002,34.4738499 C1006.55225,34.0942282 1001.77633,33.901688 996.666413,33.901688 L969.666322,33.901688 L961.999939,33.901688 C960.218449,34.0942282 958.884969,34.2862721 958,34.4738499 L958,28.1736181 C961.332948,28.5582022 965.332887,28.7462762 969.999817,28.7462762 L996.666413,28.7462762 Z" id="Fill-54" fill="#000000"></path>
            </g>
        </g>
    </g>
</svg>