<?xml version="1.0" encoding="UTF-8"?>
<svg width="731px" height="768px" viewBox="0 0 731 768" version="1.1" xmlns="http://www.w3.org/2000/svg" xmlns:xlink="http://www.w3.org/1999/xlink">
    <title>中国电力建设集团有限公司@2x</title>
    <defs>
        <path d="M82.3908358,3.34621863 C81.8629547,3.91475862 38.2992933,47.1650309 38.2992933,47.1650309 L38.2992933,47.1650309 C36.058573,49.4249179 35.6226352,51.9369607 38.511714,54.8676773 L38.511714,54.8676773 L109.337341,122.485875 C109.337341,122.485875 120.384005,134.784418 109.337341,145.984735 L109.337341,145.984735 L33.2075398,223.153928 C-19.4497843,275.063929 -2.45692855,305.878479 35.5481295,343.632865 L35.5481295,343.632865 C35.5481295,343.632865 81.9422161,390.204775 82.3908358,390.64803 L82.3908358,390.64803 C87.588007,395.829118 92.5806839,393.88165 95.1757027,392.202991 L95.1757027,392.202991 L270.394167,216.886508 C284.084199,200.696995 278.655585,187.253443 273.104908,179.779164 L273.104908,179.779164 L95.3358108,1.92209336 C93.9907445,1.01972444 91.953726,0 89.5528976,0 L89.5528976,0 C87.3819274,0 84.9145194,0.834968772 82.3908358,3.34621863" id="path-1"></path>
        <linearGradient x1="55.5658458%" y1="38.90647%" x2="41.7451821%" y2="66.4691769%" id="linearGradient-3">
            <stop stop-color="#00B4ED" offset="0%"></stop>
            <stop stop-color="#00AAE6" offset="1.473109%"></stop>
            <stop stop-color="#0094D7" offset="4.927796%"></stop>
            <stop stop-color="#0081C8" offset="8.782865%"></stop>
            <stop stop-color="#0071BC" offset="13.01%"></stop>
            <stop stop-color="#0064B2" offset="17.75%"></stop>
            <stop stop-color="#005AAA" offset="23.21%"></stop>
            <stop stop-color="#0053A5" offset="29.85%"></stop>
            <stop stop-color="#004FA2" offset="38.93%"></stop>
            <stop stop-color="#004EA2" offset="61.54%"></stop>
            <stop stop-color="#004EA2" offset="100%"></stop>
        </linearGradient>
        <path d="M183.838848,1.81350482 L8.60889958,177.131922 C-5.08463061,193.312319 0.34379957,206.756995 5.89428819,214.215598 L5.89428819,214.215598 L183.672404,392.088147 C186.234839,393.79143 191.297887,395.94353 196.567007,390.652886 L196.567007,390.652886 C197.132914,390.082746 240.640407,346.896432 240.640407,346.896432 L240.640407,346.896432 C242.925436,344.59922 243.39861,342.060948 240.454941,339.111921 L240.454941,339.111921 L169.667387,271.525364 C169.667387,271.525364 158.621891,259.223346 169.667387,248.012445 L169.667387,248.012445 L245.783506,170.843731 C298.458063,118.93959 281.451518,88.1211093 243.450921,50.356279 L243.450921,50.356279 C243.450921,50.356279 197.037011,3.80225431 196.567007,3.3415432 L196.567007,3.3415432 C194.070357,0.834196358 191.608581,0 189.440855,0 L189.440855,0 C187.140766,0 185.171187,0.938867384 183.838848,1.81350482" id="path-4"></path>
        <linearGradient x1="44.5420808%" y1="60.8879165%" x2="58.8650243%" y2="32.3240947%" id="linearGradient-6">
            <stop stop-color="#EE7836" offset="0%"></stop>
            <stop stop-color="#EE7836" offset="0.1087151%"></stop>
            <stop stop-color="#E25E41" offset="4.01266%"></stop>
            <stop stop-color="#D84747" offset="8.399279%"></stop>
            <stop stop-color="#D1334A" offset="13.52%"></stop>
            <stop stop-color="#CB1F4B" offset="19.75%"></stop>
            <stop stop-color="#C8114C" offset="28.26%"></stop>
            <stop stop-color="#C80B4D" offset="49.45%"></stop>
            <stop stop-color="#C80B4D" offset="93.88%"></stop>
            <stop stop-color="#C80B4D" offset="100%"></stop>
        </linearGradient>
        <path d="M46.1014269,3.34656853 C45.5713438,3.91516797 1.82596063,47.1699628 1.82596063,47.1699628 L1.82596063,47.1699628 C-0.424106662,49.4300861 -0.861862944,51.9423916 2.03926732,54.8734146 L2.03926732,54.8734146 L73.1603366,122.498683 C73.1603366,122.498683 84.2530808,134.798512 73.1603366,146 L73.1603366,146 C92.7789813,126.483637 116.188595,58.8377502 59.1004007,1.92229434 L59.1004007,1.92229434 C57.7497236,1.01983107 55.7042079,0 53.2933647,0 L53.2933647,0 C51.1133384,0 48.6356378,0.835056082 46.1014269,3.34656853" id="path-7"></path>
        <linearGradient x1="56.2488505%" y1="55.5385083%" x2="42.7844914%" y2="43.6117031%" id="linearGradient-9">
            <stop stop-color="#6C2850" offset="0%"></stop>
            <stop stop-color="#7A264F" offset="7.649535%"></stop>
            <stop stop-color="#981F4E" offset="27.32%"></stop>
            <stop stop-color="#AE194E" offset="46.74%"></stop>
            <stop stop-color="#BD124D" offset="65.61%"></stop>
            <stop stop-color="#C50D4D" offset="83.65%"></stop>
            <stop stop-color="#C80B4D" offset="100%"></stop>
        </linearGradient>
        <path d="M35.9140347,144.087984 C38.4872897,145.791413 43.571717,147.943696 48.8630871,142.6526 L48.8630871,142.6526 C49.4313841,142.082412 93.1225965,98.8924165 93.1225965,98.8924165 L93.1225965,98.8924165 C95.4172746,96.5950088 95.8924473,94.0565201 92.9363479,91.1072418 L92.9363479,91.1072418 L21.8498785,23.514923 C21.8498785,23.514923 10.7577404,11.2118569 21.8498785,0 L21.8498785,0 C2.23885741,19.5188453 -21.2125459,87.1746065 35.9140347,144.087984" id="path-10"></path>
        <linearGradient x1="41.7219462%" y1="44.9000102%" x2="58.7594852%" y2="55.4055422%" id="linearGradient-12">
            <stop stop-color="#002460" offset="0%"></stop>
            <stop stop-color="#002561" offset="0.7023692%"></stop>
            <stop stop-color="#00367B" offset="24.89%"></stop>
            <stop stop-color="#00418D" offset="47.7%"></stop>
            <stop stop-color="#004798" offset="68.5%"></stop>
            <stop stop-color="#004B9F" offset="86.6%"></stop>
            <stop stop-color="#004CA1" offset="100%"></stop>
        </linearGradient>
    </defs>
    <g id="页面-1" stroke="none" stroke-width="1" fill="none" fill-rule="evenodd">
        <g id="87.中国电力建设集团有限公司" transform="translate(-147.000000, 0.000000)">
            <g id="中国电力建设集团有限公司" transform="translate(147.000000, 0.000000)">
                <g id="编组" transform="translate(0.000000, 492.000000)" fill="#004893">
                    <path d="M91.486933,113.2518 L130.261057,113.2518 L130.261057,45.4475219 L91.486933,45.4475219 L91.486933,113.2518 Z M27.0778628,113.2518 L63.666614,113.2518 L63.666614,45.4475219 L27.0778628,45.4475219 L27.0778628,113.2518 Z M91.486933,21.495782 L91.486933,1.04745218 L63.666614,1.04745218 L63.666614,21.495782 L0,21.495782 L0,137.279718 L63.666614,137.279718 L63.666614,166.440152 L91.486933,166.440152 L91.486933,137.279718 L133.768905,137.279718 C152.339028,137.279718 155.940376,128.327969 155.940376,115.113408 L155.940376,21.495782 L91.486933,21.495782 Z" id="Fill-1"></path>
                    <path d="M399.031012,106.350518 L435.042913,106.350518 L435.042913,82.2400733 L399.031012,82.2400733 L399.031012,106.350518 Z M399.031012,58.9231529 L435.042913,58.9231529 L435.042913,33.9033292 L399.031012,33.9033292 L399.031012,58.9231529 Z M462.958318,58.9215659 L499.096207,58.9215659 L499.096207,33.9017421 L462.958318,33.9017421 L462.958318,58.9215659 Z M462.959902,106.350518 L499.097792,106.350518 L499.097792,82.2400733 L462.959902,82.2400733 L462.959902,106.350518 Z M532.636688,144.529357 L474.352684,144.529357 C463.879059,144.529357 462.958318,139.57459 462.958318,133.873911 L462.958318,126.702038 L501.07477,126.702038 C513.104621,126.702038 525.541754,122.174188 525.541754,102.167058 L525.541754,13.620846 L462.958318,13.620846 L462.958318,0 L435.042913,0 L435.042913,13.620846 L372.578334,13.620846 L372.578334,126.702038 L435.042913,126.702038 L435.042913,142.759004 C434.961299,151.407626 439.382756,158.435078 445.82715,162.68202 C452.274713,167.024979 460.703216,168.942134 469.565148,168.942134 L532.636688,168.942134 L532.636688,144.529357 Z" id="Fill-3"></path>
                    <path d="M683.290332,64.7650794 L702.820814,64.7650794 L702.820814,55.2388192 L683.290332,55.2388192 L683.290332,64.7650794 Z M683.290332,39.217562 L702.820814,39.217562 L702.820814,29.1818591 L683.290332,29.1818591 L683.290332,39.217562 Z M621.753624,30.4665751 L621.753624,12.7757425 L561.934788,12.7757425 L561.934788,29.7484355 L594.853254,29.7484355 L561.934788,66.0831234 L561.934788,83.1653228 L599.031452,83.1653228 C597.781875,92.724911 594.143285,105.879958 591.732877,111.666338 C587.747226,106.350518 583.599931,92.2289582 583.599931,92.2289582 L580.893175,92.2289582 L562.86266,92.2289582 C562.86266,92.2289582 568.161278,112.074209 580.535021,130.737903 C575.036724,138.072449 557.446771,152.559823 557.446771,152.559823 L569.680263,169.542039 L572.841843,167.313029 C581.62533,161.204478 589.293152,154.088151 595.718528,146.032292 C610.50664,156.547283 623.046782,164.526171 655.610263,164.526171 L730.943821,164.526171 L730.985024,164.526171 L730.985024,144.596013 L683.290332,144.596013 L683.290332,132.895496 L722.924976,132.895496 L722.924976,116.506043 L683.290332,116.506043 L683.290332,107.29878 L722.924976,107.29878 L722.924976,90.8894891 L683.290332,90.8894891 L683.290332,81.9298053 L706.51804,81.9298053 C720.714247,81.9298053 722.924976,72.4543307 722.924976,62.2440524 L722.924976,55.2388192 L730.985024,55.2388192 L730.985024,39.219149 L722.924976,39.219149 L722.924976,12.7757425 L683.290332,12.7757425 L683.290332,2.66862249 L658.445384,2.66862249 L658.445384,12.7757425 L627.763004,12.7757425 L627.763004,29.1818591 L658.445384,29.1818591 L658.445384,39.219149 L627.763004,39.219149 L627.763004,55.2388192 L658.445384,55.2388192 L658.445384,64.7650794 L627.763004,64.7650794 L627.763004,81.9298053 L658.445384,81.9298053 L658.445384,90.8894891 L627.763004,90.8894891 L627.763004,107.29878 L658.445384,107.29878 L658.445384,116.506043 L627.763004,116.506043 L627.763004,118.69379 L627.763004,132.895496 L658.445384,132.895496 L658.445384,144.529357 C622.414466,144.529357 613.637318,135.539519 607.079614,128.979453 C614.847276,114.576192 619.485844,97.6193694 621.57534,78.3978283 L621.57534,78.2232529 L621.57534,64.6650953 L590.413571,64.6650953 L621.753624,30.4665751 Z" id="Fill-4"></path>
                    <path d="M208.767287,147.109104 L320.317179,147.109104 L320.317179,27.5733852 L208.767287,27.5733852 L208.767287,147.109104 Z M183.350245,7.82970507 L183.350245,167.828026 L321.962152,167.828026 C339.193951,167.828026 345.755616,159.575372 345.755616,142.363035 L345.755616,7.82970507 L183.350245,7.82970507 Z M311.987723,106.861548 L290.958858,106.861548 L290.958858,116.675857 L277.482921,116.675857 L277.482921,95.2800595 L307.565473,95.2800595 L307.565473,76.1235874 L277.482921,76.1235874 L277.482921,58.6081237 L311.987723,58.6081237 L311.987723,39.3857891 L216.903404,39.3857891 L216.903404,58.6081237 L251.101556,58.6081237 L251.101556,76.1235874 L221.339916,76.1235874 L221.339916,95.2800595 L251.101556,95.2800595 L251.101556,116.675857 L216.903404,116.675857 L216.903404,135.883909 L311.987723,135.883909 L311.987723,106.861548 Z" id="Fill-5"></path>
                    <path d="M18.1267881,235.762601 C19.6972772,236.047476 21.5910556,236.199832 24.152807,236.199832 C33.8982387,236.199832 39.9385204,231.742606 39.9385204,224.356481 C39.9385204,217.632155 34.940213,213.608193 25.6385119,213.608193 C21.975358,213.608193 19.4278693,213.756582 18.1267881,214.119223 L18.1267881,235.762601 Z M0.000396187967,202.471079 C5.61992631,201.630736 13.557156,200.971318 24.7185635,200.971318 C35.9790179,200.971318 44.1016636,202.945606 49.4953666,206.954491 C54.675128,210.505513 58.028463,216.636282 58.028463,223.848625 C58.028463,231.080013 55.5031609,237.133017 50.6752143,241.183166 C44.5303389,246.403762 35.1478155,248.888287 24.2827567,248.888287 C21.975358,248.888287 19.7788919,248.770052 18.1267881,248.491525 L18.1267881,274.794478 L0.000396187967,274.794478 L0.000396187967,202.471079 Z" id="Fill-6"></path>
                    <path d="M104.740292,262.801309 C117.091848,262.801309 124.175689,252.29822 124.175689,237.932255 C124.175689,224.803394 117.30262,213.486943 104.740292,213.486943 C92.1153664,213.486943 85.0758986,224.551847 85.0758986,238.243316 C85.0758986,252.07524 92.4291472,262.801309 104.637283,262.801309 L104.740292,262.801309 Z M103.886111,276 C80.0664979,276 65.8694983,259.535956 65.8694983,238.65833 C65.8694983,216.722142 81.4713804,200.282697 105.217302,200.282697 C130.057496,200.282697 143.562751,217.195082 143.562751,237.391865 C143.562751,261.509451 127.68433,276 104.023192,276 L103.886111,276 Z" id="Fill-7"></path>
                    <path d="M168.55096,274.793287 L149.385763,201.508137 L168.957449,201.508137 C168.957449,201.508137 178.551537,244.7449 179.863711,252.231009 L180.077653,252.231009 C181.438955,244.186259 192.219229,201.508137 192.219229,201.508137 L211.64274,201.508137 L222.449163,251.782667 L222.663897,251.782667 L233.951293,201.508137 L252.524584,201.508137 L231.677174,274.793287 L211.875699,274.793287 L201.254692,220.635248 L200.925064,220.635248 L188.644029,274.793287 L168.55096,274.793287 Z" id="Fill-8"></path>
                    <polygon id="Fill-9" points="309.969146 243.804018 280.259802 243.804018 280.259802 261.176647 313.499973 261.176647 313.499973 274.793526 262.055758 274.793526 262.055758 201.508375 311.801911 201.508375 311.801911 215.077642 280.259802 215.077642 280.259802 230.276014 309.969146 230.276014"></polygon>
                    <path d="M344.010804,233.985661 L351.216671,233.985661 C360.336918,233.985661 365.730621,229.86965 365.730621,223.453212 C365.730621,216.891559 360.729144,213.367517 352.233289,213.367517 C347.892654,213.367517 345.34675,213.607955 344.010804,213.90394 L344.010804,233.985661 Z M325.866188,202.620023 C331.817723,201.631292 340.376968,200.971873 350.273744,200.971873 C362.237036,200.971873 370.614826,202.620023 376.426111,206.817767 C381.314279,210.313242 383.953683,215.448138 383.953683,222.18278 C383.953683,231.397978 376.651939,237.803307 369.653674,240.117224 L369.653674,240.438602 C375.291429,242.457328 378.426861,247.254976 380.448212,254.041197 C382.977476,262.368441 385.387883,271.920888 386.955203,274.793446 L368.296334,274.793446 C367.021401,272.752501 365.010351,266.736793 362.740194,257.69617 C360.466868,248.491287 356.983583,246.092463 349.415601,245.959151 L344.010804,245.959151 L344.010804,274.793446 L325.866188,274.793446 L325.866188,202.620023 Z" id="Fill-10"></path>
                    <path d="M451.671715,272.827331 C448.407126,274.215998 440.783677,275.999841 431.042207,275.999841 C403.099862,275.999841 388.693676,260.102374 388.693676,239.131905 C388.693676,214.119223 408.335883,200.282538 432.832185,200.282538 C442.325641,200.282538 449.527546,202.060033 452.765986,203.563762 L448.906323,216.636282 C445.323991,215.214287 440.163247,213.904178 433.574641,213.904178 C419.145475,213.904178 407.925432,221.849738 407.925432,238.243158 C407.925432,252.964622 417.507634,262.112371 433.649124,262.112371 C439.338383,262.112371 445.323991,261.176012 449.039442,259.724656 L451.671715,272.827331 Z" id="Fill-11"></path>
                    <polygon id="Fill-12" points="482.124069 201.508534 482.124069 229.716738 512.158286 229.716738 512.158286 201.508534 530.38848 201.508534 530.38848 274.793684 512.158286 274.793684 512.158286 244.234267 482.124069 244.234267 482.124069 274.793684 463.864558 274.793684 463.864558 201.508534"></polygon>
                    <polygon id="Fill-13" points="546.392334 274.793526 564.677993 274.793526 564.677993 201.508375 546.392334 201.508375"></polygon>
                    <path d="M580.468461,274.793287 L580.468461,201.508137 L601.770696,201.508137 L618.576989,228.406233 C623.353431,236.047873 628.018941,245.21546 631.76054,253.468113 L632.008554,253.468113 C630.896058,243.80378 630.577523,233.956142 630.577523,222.797602 L630.577523,201.508137 L647.332312,201.508137 L647.332312,274.793287 L628.129874,274.793287 L610.898074,246.562864 C606.100238,238.576041 600.716836,229.253717 596.850041,220.635248 L596.392048,220.635248 C597.053682,230.413056 597.253361,240.727286 597.253361,252.675382 L597.253361,274.793287 L580.468461,274.793287 Z" id="Fill-14"></path>
                    <path d="M702.365911,243.552947 L697.264595,228.04748 C695.988869,223.682303 694.532482,218.161754 693.3043,213.904495 L693.005574,213.904495 C691.921604,218.250628 690.602298,223.848943 689.327365,228.04748 L684.472478,243.552947 L702.365911,243.552947 Z M681.837035,255.955733 L676.228598,274.793208 L657.214745,274.793208 L681.946383,201.508851 L705.823047,201.508851 L731,274.793208 L711.330852,274.793208 L705.090099,255.955733 L681.837035,255.955733 Z" id="Fill-15"></path>
                </g>
                <g id="编组" transform="translate(343.000000, 0.000000)">
                    <mask id="mask-2" fill="white">
                        <use xlink:href="#path-1"></use>
                    </mask>
                    <g id="Clip-17"></g>
                    <path d="M82.3908358,3.34621863 C81.8629547,3.91475862 38.2992933,47.1650309 38.2992933,47.1650309 L38.2992933,47.1650309 C36.058573,49.4249179 35.6226352,51.9369607 38.511714,54.8676773 L38.511714,54.8676773 L109.337341,122.485875 C109.337341,122.485875 120.384005,134.784418 109.337341,145.984735 L109.337341,145.984735 L33.2075398,223.153928 C-19.4497843,275.063929 -2.45692855,305.878479 35.5481295,343.632865 L35.5481295,343.632865 C35.5481295,343.632865 81.9422161,390.204775 82.3908358,390.64803 L82.3908358,390.64803 C87.588007,395.829118 92.5806839,393.88165 95.1757027,392.202991 L95.1757027,392.202991 L270.394167,216.886508 C284.084199,200.696995 278.655585,187.253443 273.104908,179.779164 L273.104908,179.779164 L95.3358108,1.92209336 C93.9907445,1.01972444 91.953726,0 89.5528976,0 L89.5528976,0 C87.3819274,0 84.9145194,0.834968772 82.3908358,3.34621863" id="Fill-16" fill="url(#linearGradient-3)" fill-rule="nonzero" mask="url(#mask-2)"></path>
                </g>
                <g id="编组" transform="translate(112.000000, 0.000000)">
                    <mask id="mask-5" fill="white">
                        <use xlink:href="#path-4"></use>
                    </mask>
                    <g id="Clip-19"></g>
                    <path d="M183.838848,1.81350482 L8.60889958,177.131922 C-5.08463061,193.312319 0.34379957,206.756995 5.89428819,214.215598 L5.89428819,214.215598 L183.672404,392.088147 C186.234839,393.79143 191.297887,395.94353 196.567007,390.652886 L196.567007,390.652886 C197.132914,390.082746 240.640407,346.896432 240.640407,346.896432 L240.640407,346.896432 C242.925436,344.59922 243.39861,342.060948 240.454941,339.111921 L240.454941,339.111921 L169.667387,271.525364 C169.667387,271.525364 158.621891,259.223346 169.667387,248.012445 L169.667387,248.012445 L245.783506,170.843731 C298.458063,118.93959 281.451518,88.1211093 243.450921,50.356279 L243.450921,50.356279 C243.450921,50.356279 197.037011,3.80225431 196.567007,3.3415432 L196.567007,3.3415432 C194.070357,0.834196358 191.608581,0 189.440855,0 L189.440855,0 C187.140766,0 185.171187,0.938867384 183.838848,1.81350482" id="Fill-18" fill="url(#linearGradient-6)" fill-rule="nonzero" mask="url(#mask-5)"></path>
                </g>
                <g id="编组" transform="translate(379.000000, 0.000000)">
                    <mask id="mask-8" fill="white">
                        <use xlink:href="#path-7"></use>
                    </mask>
                    <g id="Clip-21"></g>
                    <path d="M46.1014269,3.34656853 C45.5713438,3.91516797 1.82596063,47.1699628 1.82596063,47.1699628 L1.82596063,47.1699628 C-0.424106662,49.4300861 -0.861862944,51.9423916 2.03926732,54.8734146 L2.03926732,54.8734146 L73.1603366,122.498683 C73.1603366,122.498683 84.2530808,134.798512 73.1603366,146 L73.1603366,146 C92.7789813,126.483637 116.188595,58.8377502 59.1004007,1.92229434 L59.1004007,1.92229434 C57.7497236,1.01983107 55.7042079,0 53.2933647,0 L53.2933647,0 C51.1133384,0 48.6356378,0.835056082 46.1014269,3.34656853" id="Fill-20" fill="url(#linearGradient-9)" fill-rule="nonzero" mask="url(#mask-8)"></path>
                </g>
                <g id="编组" transform="translate(259.000000, 248.000000)">
                    <mask id="mask-11" fill="white">
                        <use xlink:href="#path-10"></use>
                    </mask>
                    <g id="Clip-23"></g>
                    <path d="M35.9140347,144.087984 C38.4872897,145.791413 43.571717,147.943696 48.8630871,142.6526 L48.8630871,142.6526 C49.4313841,142.082412 93.1225965,98.8924165 93.1225965,98.8924165 L93.1225965,98.8924165 C95.4172746,96.5950088 95.8924473,94.0565201 92.9363479,91.1072418 L92.9363479,91.1072418 L21.8498785,23.514923 C21.8498785,23.514923 10.7577404,11.2118569 21.8498785,0 L21.8498785,0 C2.23885741,19.5188453 -21.2125459,87.1746065 35.9140347,144.087984" id="Fill-22" fill="url(#linearGradient-12)" fill-rule="nonzero" mask="url(#mask-11)"></path>
                </g>
            </g>
        </g>
    </g>
</svg>