<?xml version="1.0" encoding="UTF-8"?>
<svg width="1024px" height="676px" viewBox="0 0 1024 676" version="1.1" xmlns="http://www.w3.org/2000/svg" xmlns:xlink="http://www.w3.org/1999/xlink">
    <title>中国长江三峡集团有限公司@2x</title>
    <defs>
        <path d="M0,204.591381 C0,317.258779 91.7959754,409 204.498338,409 L204.498338,409 C317.689331,409 409,317.258779 409,204.591381 L409,204.591381 C409,91.7694664 317.689331,0 204.498338,0 L204.498338,0 C91.7959754,0 0,91.7694664 0,204.591381" id="path-1"></path>
        <radialGradient cx="22.1192279%" cy="20.8662127%" fx="22.1192279%" fy="20.8662127%" r="74.7787236%" gradientTransform="translate(0.221192,0.208662),rotate(90.000000),scale(1.000000,0.966649),translate(-0.221192,-0.208662)" id="radialGradient-3">
            <stop stop-color="#3EA4D8" offset="0%"></stop>
            <stop stop-color="#004891" offset="54.4771635%"></stop>
            <stop stop-color="#0056A2" offset="75.3387238%"></stop>
            <stop stop-color="#0668B2" offset="94.1815997%"></stop>
            <stop stop-color="#086DB6" offset="100%"></stop>
        </radialGradient>
        <path d="M0,144.654804 C0,224.428591 64.788153,289 144.433376,289 L144.433376,289 C224.256818,289 289,224.428591 289,144.654804 L289,144.654804 C289,64.8044465 224.256818,0 144.433376,0 L144.433376,0 C64.788153,0 0,64.8044465 0,144.654804" id="path-4"></path>
        <path d="M0,144.654804 C0,224.428591 64.788153,289 144.433376,289 L144.433376,289 C224.256818,289 289,224.428591 289,144.654804 L289,144.654804 C289,64.8044465 224.256818,0 144.433376,0 L144.433376,0 C64.788153,0 0,64.8044465 0,144.654804" id="path-6"></path>
        <path d="M0,144.654804 C0,224.428591 64.788153,289 144.433376,289 L144.433376,289 C224.256818,289 289,224.428591 289,144.654804 L289,144.654804 C289,64.8044465 224.256818,0 144.433376,0 L144.433376,0 C64.788153,0 0,64.8044465 0,144.654804" id="path-8"></path>
        <path d="M0,144.654804 C0,224.428591 64.788153,289 144.433376,289 L144.433376,289 C224.256818,289 289,224.428591 289,144.654804 L289,144.654804 C289,64.8044465 224.256818,0 144.433376,0 L144.433376,0 C64.788153,0 0,64.8044465 0,144.654804 L0,144.654804 Z" id="path-10"></path>
    </defs>
    <g id="页面-1" stroke="none" stroke-width="1" fill="none" fill-rule="evenodd">
        <g id="21.中国长江三峡集团有限公司" transform="translate(0.000000, -46.000000)">
            <g id="中国长江三峡集团有限公司" transform="translate(0.000000, 46.000000)">
                <g id="编组" transform="translate(306.000000, 0.000000)">
                    <mask id="mask-2" fill="white">
                        <use xlink:href="#path-1"></use>
                    </mask>
                    <g id="Clip-2"></g>
                    <polygon id="Fill-1" fill="url(#radialGradient-3)" mask="url(#mask-2)" points="-1.49746839 408.180897 407.502532 408.180897 407.502532 -0.817441747 -1.49746839 -0.817441747"></polygon>
                </g>
                <g id="编组" transform="translate(368.000000, 60.000000)">
                    <g>
                        <mask id="mask-5" fill="white">
                            <use xlink:href="#path-4"></use>
                        </mask>
                        <g id="Clip-4"></g>
                        <path d="M250.670591,237.942279 C250.670591,237.942279 203.102981,235.522016 144.435875,235.522016 C86.0236036,235.522016 38.4559944,237.942279 38.4559944,237.942279 C38.4559944,237.942279 86.0236036,240.212732 144.435875,240.212732 C203.102981,240.212732 250.670591,237.942279 250.670591,237.942279" id="Fill-3" fill="#FFFFFF" mask="url(#mask-5)"></path>
                    </g>
                    <g>
                        <mask id="mask-7" fill="white">
                            <use xlink:href="#path-6"></use>
                        </mask>
                        <g id="Clip-6"></g>
                        <path d="M52.5920305,256.046809 C52.5920305,256.046809 93.6788257,258.169116 144.436041,258.169116 C195.216575,258.169116 236.276721,256.046809 236.276721,256.046809 C236.276721,256.046809 195.216575,253.64985 144.436041,253.64985 C93.6788257,253.64985 52.5920305,256.046809 52.5920305,256.046809" id="Fill-5" fill="#FFFFFF" mask="url(#mask-7)"></path>
                    </g>
                    <g>
                        <mask id="mask-9" fill="white">
                            <use xlink:href="#path-8"></use>
                        </mask>
                        <g id="Clip-8"></g>
                        <path d="M211.039522,274.103233 C211.039522,274.103233 181.232108,271.682971 144.435875,271.682971 C107.816194,271.682971 77.8572116,274.103233 77.8572116,274.103233 C77.8572116,274.103233 107.816194,276.555123 144.435875,276.555123 C181.232108,276.555123 211.039522,274.103233 211.039522,274.103233" id="Fill-7" fill="#FFFFFF" mask="url(#mask-9)"></path>
                    </g>
                    <mask id="mask-11" fill="white">
                        <use xlink:href="#path-10"></use>
                    </mask>
                    <g id="Clip-10"></g>
                    <polygon id="Fill-9" fill="#FFFFFF" mask="url(#mask-11)" points="256.309448 219.731218 260.136976 219.731218 260.136976 216.67343 256.309448 216.67343"></polygon>
                    <polygon id="Fill-11" fill="#FFFFFF" mask="url(#mask-11)" points="256.309448 210.145047 260.136976 210.145047 260.136976 207.999436 256.309448 207.999436"></polygon>
                    <polygon id="Fill-12" fill="#FFFFFF" mask="url(#mask-11)" points="256.309448 214.99223 260.136976 214.99223 260.136976 212.029323 256.309448 212.029323"></polygon>
                    <polygon id="Fill-13" fill="#FFFFFF" mask="url(#mask-11)" points="256.309448 207.110563 260.136976 207.110563 260.136976 204.994914 256.309448 204.994914"></polygon>
                    <polygon id="Fill-14" fill="#FFFFFF" mask="url(#mask-11)" points="256.309448 203.921276 260.136976 203.921276 260.136976 202.54469 256.309448 202.54469"></polygon>
                    <polygon id="Fill-15" fill="#FFFFFF" mask="url(#mask-11)" points="249.035813 219.731218 252.991591 219.731218 252.991591 216.67343 249.035813 216.67343"></polygon>
                    <polygon id="Fill-16" fill="#FFFFFF" mask="url(#mask-11)" points="249.035813 210.145047 252.991591 210.145047 252.991591 207.999436 249.035813 207.999436"></polygon>
                    <polygon id="Fill-17" fill="#FFFFFF" mask="url(#mask-11)" points="249.035813 214.99223 252.991591 214.99223 252.991591 212.029323 249.035813 212.029323"></polygon>
                    <polygon id="Fill-18" fill="#FFFFFF" mask="url(#mask-11)" points="249.035813 207.110563 252.991591 207.110563 252.991591 204.994914 249.035813 204.994914"></polygon>
                    <polygon id="Fill-19" fill="#FFFFFF" mask="url(#mask-11)" points="249.035813 203.921276 252.991591 203.921276 252.991591 202.54469 249.035813 202.54469"></polygon>
                    <polygon id="Fill-20" fill="#FFFFFF" mask="url(#mask-11)" points="253.886014 205.579173 255.571592 205.579173 255.571592 202.54469 253.886014 202.54469"></polygon>
                    <polygon id="Fill-21" fill="#FFFFFF" mask="url(#mask-11)" points="253.886014 209.226212 255.571592 209.226212 255.571592 206.622849 253.886014 206.622849"></polygon>
                    <polygon id="Fill-22" fill="#FFFFFF" mask="url(#mask-11)" points="253.886014 213.024726 255.571592 213.024726 255.571592 210.145047 253.886014 210.145047"></polygon>
                    <polygon id="Fill-23" fill="#FFFFFF" mask="url(#mask-11)" points="253.886014 216.214013 255.571592 216.214013 255.571592 213.484144 253.886014 213.484144"></polygon>
                    <polygon id="Fill-24" fill="#FFFFFF" mask="url(#mask-11)" points="253.886014 220.165666 255.571592 220.165666 255.571592 217.287651 253.886014 217.287651"></polygon>
                    <polygon id="Fill-25" fill="#FFFFFF" mask="url(#mask-11)" points="246.127525 204.225224 233.828802 204.225224 233.828802 220.165001 232.294793 220.165001 232.294793 202.544024 247.811437 202.544024 247.811437 220.165001 246.127525 220.165001"></polygon>
                    <polygon id="Fill-26" fill="#FFFFFF" mask="url(#mask-11)" points="261.491101 220.165666 264.50249 220.165666 264.50249 202.466455 261.491101 202.466455"></polygon>
                    <polygon id="Fill-27" fill="#FFFFFF" mask="url(#mask-11)" points="230.050742 204.225224 230.050742 205.11909 230.050742 220.165001 231.403202 220.165001 231.403202 202.46579 12.7827436 202.46579 13.8287346 204.225224"></polygon>
                    <polygon id="Fill-28" fill="#FFFFFF" mask="url(#mask-11)" points="168.449531 215.754596 221.222111 215.754596 221.222111 212.029323 168.449531 212.029323"></polygon>
                    <polygon id="Fill-29" fill="#FFFFFF" mask="url(#mask-11)" points="218.467224 220.165666 221.222111 220.165666 221.222111 216.67343 218.467224 216.67343"></polygon>
                    <polygon id="Fill-30" fill="#FFFFFF" mask="url(#mask-11)" points="215.147702 220.165666 217.699387 220.165666 217.699387 216.67343 215.147702 216.67343"></polygon>
                    <polygon id="Fill-31" fill="#FFFFFF" mask="url(#mask-11)" points="211.779877 220.165666 214.356546 220.165666 214.356546 216.67343 211.779877 216.67343"></polygon>
                    <polygon id="Fill-32" fill="#FFFFFF" mask="url(#mask-11)" points="208.615254 220.165666 211.040355 220.165666 211.040355 216.67343 208.615254 216.67343"></polygon>
                    <polygon id="Fill-33" fill="#FFFFFF" mask="url(#mask-11)" points="205.09253 220.165666 207.67253 220.165666 207.67253 216.67343 205.09253 216.67343"></polygon>
                    <polygon id="Fill-34" fill="#FFFFFF" mask="url(#mask-11)" points="201.877939 220.165666 204.353007 220.165666 204.353007 216.67343 201.877939 216.67343"></polygon>
                    <polygon id="Fill-35" fill="#FFFFFF" mask="url(#mask-11)" points="198.561748 220.165666 200.958533 220.165666 200.958533 216.67343 198.561748 216.67343"></polygon>
                    <polygon id="Fill-36" fill="#FFFFFF" mask="url(#mask-11)" points="195.090657 220.165666 197.642342 220.165666 197.642342 216.67343 195.090657 216.67343"></polygon>
                    <polygon id="Fill-37" fill="#FFFFFF" mask="url(#mask-11)" points="191.566266 220.165666 194.018016 220.165666 194.018016 216.67343 191.566266 216.67343"></polygon>
                    <polygon id="Fill-38" fill="#FFFFFF" mask="url(#mask-11)" points="188.378325 220.165666 190.803426 220.165666 190.803426 216.67343 188.378325 216.67343"></polygon>
                    <polygon id="Fill-39" fill="#FFFFFF" mask="url(#mask-11)" points="185.03715 220.165666 187.588835 220.165666 187.588835 216.67343 185.03715 216.67343"></polygon>
                    <polygon id="Fill-40" fill="#FFFFFF" mask="url(#mask-11)" points="181.692644 220.165666 184.117744 220.165666 184.117744 216.67343 181.692644 216.67343"></polygon>
                    <polygon id="Fill-41" fill="#FFFFFF" mask="url(#mask-11)" points="178.196569 220.165666 180.621669 220.165666 180.621669 216.67343 178.196569 216.67343"></polygon>
                    <polygon id="Fill-42" fill="#FFFFFF" mask="url(#mask-11)" points="174.981978 220.165666 177.585297 220.165666 177.585297 216.67343 174.981978 216.67343"></polygon>
                    <polygon id="Fill-43" fill="#FFFFFF" mask="url(#mask-11)" points="171.509221 220.165666 174.242456 220.165666 174.242456 216.67343 171.509221 216.67343"></polygon>
                    <polygon id="Fill-44" fill="#FFFFFF" mask="url(#mask-11)" points="168.451196 220.165666 170.719731 220.165666 170.719731 216.67343 168.451196 216.67343"></polygon>
                    <polygon id="Fill-45" fill="#FFFFFF" mask="url(#mask-11)" points="168.449864 211.21186 221.374013 211.21186 228.979101 205.119589 168.449864 205.119589"></polygon>
                    <polygon id="Fill-46" fill="#FFFFFF" mask="url(#mask-11)" points="166.482468 220.165666 167.683359 220.165666 167.683359 205.119756 166.482468 205.119756"></polygon>
                    <polygon id="Fill-47" fill="#FFFFFF" mask="url(#mask-11)" points="69.6133697 220.165666 70.6860102 220.165666 70.6860102 205.119756 69.6133697 205.119756"></polygon>
                    <polygon id="Fill-48" fill="#FFFFFF" mask="url(#mask-11)" points="19.776393 215.75443 68.7214458 215.75443 68.7214458 212.029156 17.7843463 212.029156"></polygon>
                    <polygon id="Fill-49" fill="#FFFFFF" mask="url(#mask-11)" points="66.1189601 220.165666 68.7222786 220.165666 68.7222786 216.67343 66.1189601 216.67343"></polygon>
                    <polygon id="Fill-50" fill="#FFFFFF" mask="url(#mask-11)" points="62.6462031 220.165666 65.2262034 220.165666 65.2262034 216.67343 62.6462031 216.67343"></polygon>
                    <polygon id="Fill-51" fill="#FFFFFF" mask="url(#mask-11)" points="59.280044 220.165666 61.8833625 220.165666 61.8833625 216.67343 59.280044 216.67343"></polygon>
                    <polygon id="Fill-52" fill="#FFFFFF" mask="url(#mask-11)" points="55.9621871 220.165666 58.3606379 220.165666 58.3606379 216.67343 55.9621871 216.67343"></polygon>
                    <polygon id="Fill-53" fill="#FFFFFF" mask="url(#mask-11)" points="52.5926968 220.165666 55.1960153 220.165666 55.1960153 216.67343 52.5926968 216.67343"></polygon>
                    <polygon id="Fill-54" fill="#FFFFFF" mask="url(#mask-11)" points="49.2765054 220.165666 51.8531744 220.165666 51.8531744 216.67343 49.2765054 216.67343"></polygon>
                    <polygon id="Fill-55" fill="#FFFFFF" mask="url(#mask-11)" points="45.960314 220.165666 48.3570992 220.165666 48.3570992 216.67343 45.960314 216.67343"></polygon>
                    <polygon id="Fill-56" fill="#FFFFFF" mask="url(#mask-11)" points="42.5658398 220.165666 45.1425089 220.165666 45.1425089 216.67343 42.5658398 216.67343"></polygon>
                    <polygon id="Fill-57" fill="#FFFFFF" mask="url(#mask-11)" points="39.2463173 220.165666 41.6714175 220.165666 41.6714175 216.67343 39.2463173 216.67343"></polygon>
                    <polygon id="Fill-58" fill="#FFFFFF" mask="url(#mask-11)" points="35.8784926 220.165666 38.3269111 220.165666 38.3269111 216.67343 35.8784926 216.67343"></polygon>
                    <polygon id="Fill-59" fill="#FFFFFF" mask="url(#mask-11)" points="32.5356517 220.165666 34.9840703 220.165666 34.9840703 216.67343 32.5356517 216.67343"></polygon>
                    <polygon id="Fill-60" fill="#FFFFFF" mask="url(#mask-11)" points="20.3879979 216.672931 22.3533952 220.165167 31.6673792 220.165167 31.6673792 216.672931"></polygon>
                    <polygon id="Fill-61" fill="#FFFFFF" mask="url(#mask-11)" points="16.713538 211.21186 68.7216123 211.21186 68.7216123 205.119589 14.0069528 205.119589"></polygon>
                    <path d="M162.528355,217.054614 L164.825205,217.054614 L164.825205,213.484144 L162.528355,213.484144 L162.528355,217.054614 Z M158.292758,217.054614 L160.716193,217.054614 L160.716193,213.484144 L158.292758,213.484144 L158.292758,217.054614 Z M154.157096,217.054614 L156.605514,217.054614 L156.605514,213.484144 L154.157096,213.484144 L154.157096,217.054614 Z M150.202983,217.054614 L152.628083,217.054614 L152.628083,213.484144 L150.202983,213.484144 L150.202983,217.054614 Z M145.942402,217.054614 L148.544055,217.054614 L148.544055,213.484144 L145.942402,213.484144 L145.942402,217.054614 Z M141.986623,217.054614 L144.435042,217.054614 L144.435042,213.484144 L141.986623,213.484144 L141.986623,217.054614 Z M137.875945,217.054614 L140.327695,217.054614 L140.327695,213.484144 L137.875945,213.484144 L137.875945,217.054614 Z M133.793582,217.054614 L136.245332,217.054614 L136.245332,213.484144 L133.793582,213.484144 L133.793582,217.054614 Z M129.659586,217.054614 L132.108004,217.054614 L132.108004,213.484144 L129.659586,213.484144 L129.659586,217.054614 Z M125.577222,217.054614 L127.974008,217.054614 L127.974008,213.484144 L125.577222,213.484144 L125.577222,217.054614 Z M121.774678,217.054614 L124.046544,217.054614 L124.046544,213.484144 L121.774678,213.484144 L121.774678,217.054614 Z M117.510766,217.054614 L119.962516,217.054614 L119.962516,213.484144 L117.510766,213.484144 L117.510766,217.054614 Z M113.583303,217.054614 L115.830185,217.054614 L115.830185,213.484144 L113.583303,213.484144 L113.583303,217.054614 Z M109.447641,217.054614 L111.746156,217.054614 L111.746156,213.484144 L109.447641,213.484144 L109.447641,217.054614 Z M105.213709,217.054614 L107.610494,217.054614 L107.610494,213.484144 L105.213709,213.484144 L105.213709,217.054614 Z M101.281249,217.054614 L103.374896,217.054614 L103.374896,213.484144 L101.281249,213.484144 L101.281249,217.054614 Z M97.302152,217.054614 L99.419118,217.054614 L99.419118,213.484144 L97.302152,213.484144 L97.302152,217.054614 Z M92.9116545,217.054614 L95.4650053,217.054614 L95.4650053,213.484144 L92.9116545,213.484144 L92.9116545,217.054614 Z M89.0857923,217.054614 L91.3826421,217.054614 L91.3826421,213.484144 L89.0857923,213.484144 L89.0857923,217.054614 Z M84.9484647,217.054614 L87.0937457,217.054614 L87.0937457,213.484144 L84.9484647,213.484144 L84.9484647,217.054614 Z M80.8944165,217.054614 L83.3428351,217.054614 L83.3428351,213.484144 L80.8944165,213.484144 L80.8944165,217.054614 Z M76.7587544,217.054614 L79.0822537,217.054614 L79.0822537,213.484144 L76.7587544,213.484144 L76.7587544,217.054614 Z M72.8046418,217.054614 L75.1014915,217.054614 L75.1014915,213.484144 L72.8046418,213.484144 L72.8046418,217.054614 Z M163.752565,212.029323 L163.752565,205.119756 L161.608949,205.119756 L161.608949,212.029323 L159.158865,212.029323 L159.158865,205.119756 L157.193468,205.119756 L157.193468,212.029323 L154.924933,212.029323 L154.924933,205.119756 L152.628083,205.119756 L152.628083,212.029323 L150.382867,212.029323 L150.382867,205.119756 L148.237586,205.119756 L148.237586,212.029323 L146.09397,212.029323 L146.09397,205.119756 L144.128573,205.119756 L144.128573,212.029323 L141.706804,212.029323 L141.706804,205.119756 L139.409954,205.119756 L139.409954,212.029323 L137.416242,212.029323 L137.416242,205.119756 L134.992807,205.119756 L134.992807,212.029323 L132.874176,212.029323 L132.874176,205.119756 L130.73056,205.119756 L130.73056,212.029323 L128.46036,212.029323 L128.46036,205.119756 L126.343394,205.119756 L126.343394,212.029323 L124.046544,212.029323 L124.046544,205.119756 L121.902929,205.119756 L121.902929,212.029323 L119.656047,212.029323 L119.656047,205.119756 L117.512431,205.119756 L117.512431,212.029323 L115.267215,212.029323 L115.267215,205.119756 L113.250184,205.119756 L113.250184,212.029323 L110.828415,212.029323 L110.828415,205.119756 L108.554884,205.119756 L108.554884,212.029323 L106.437918,212.029323 L106.437918,205.119756 L104.294302,205.119756 L104.294302,212.029323 L101.997453,212.029323 L101.997453,205.119756 L100.058705,205.119756 L100.058705,212.029323 L97.6069551,212.029323 L97.6069551,205.119756 L95.4650053,205.119756 L95.4650053,212.029323 L93.2197888,212.029323 L93.2197888,205.119756 L91.0245401,205.119756 L91.0245401,212.029323 L88.6260893,212.029323 L88.6260893,205.119756 L86.8405759,205.119756 L86.8405759,212.029323 L84.2106079,212.029323 L84.2106079,205.119756 L82.4001107,205.119756 L82.4001107,212.029323 L79.9500265,212.029323 L79.9500265,205.119756 L77.8580444,205.119756 L77.8580444,212.029323 L75.7127634,212.029323 L75.7127634,205.119756 L73.5674824,205.119756 L73.5674824,212.029323 L71.4771658,212.029323 L71.4771658,220.165666 L165.717962,220.165666 L165.717962,212.029323 L163.752565,212.029323 Z" id="Fill-62" fill="#FFFFFF" mask="url(#mask-11)"></path>
                    <path d="M22.0462602,94.9735031 L22.0462602,128.840535 L22.0462602,132.512542 L22.0462602,144.655469 L22.0462602,165.156126 C22.0462602,181.119206 27.2262478,192.493109 31.9248795,199.635714 L64.7903182,199.635714 C58.6676063,192.904254 50.5012143,179.74262 50.5012143,158.86078 L50.5012143,126.138962 L50.5012143,121.69793 L50.5012143,76.433692 C50.5012143,60.3391119 45.3212268,49.5244995 40.1412392,42.2337496 C31.666713,51.2839339 24.1665574,61.5375913 18.2437163,72.6318489 C20.5438973,78.729113 22.0462602,86.3294701 22.0462602,94.9735031" id="Fill-63" fill="#FFFFFF" mask="url(#mask-11)"></path>
                    <path d="M11.5598668,199.635547 L27.2264143,199.635547 C22.224645,191.986918 17.4793766,180.814426 17.4793766,165.15596 L17.4793766,139.498512 L17.4793766,137.972116 L17.4793766,127.921534 L17.4793766,94.9733366 C17.4793766,87.9872002 16.4067361,81.6086263 14.9027076,76.4335255 C5.02408825,96.0170124 -0.615602379,117.977484 -0.615602379,141.54425 C-0.615602379,162.299584 3.80154456,181.733261 11.5598668,199.635547" id="Fill-64" fill="#FFFFFF" mask="url(#mask-11)"></path>
                    <path d="M86.4821407,153.935862 L86.4821407,116.470063 L86.4821407,67.1759377 C86.4821407,38.3841337 73.4422299,22.9503819 69.3332173,18.9987288 C59.8909828,25.4006065 51.3948038,31.8257879 43.8146998,39.9871 C49.2761723,47.7139633 55.0441134,59.420777 55.0441134,76.4341913 L55.0441134,121.698429 L55.0441134,126.139461 L55.0441134,158.859615 C55.0441134,180.660289 64.331448,193.518974 70.2526234,199.636213 L108.123163,199.636213 C107.816694,199.509707 106.745719,199.026986 106.745719,199.026986 C106.437585,198.592537 86.4821407,185.662276 86.4821407,153.935862" id="Fill-65" fill="#FFFFFF" mask="url(#mask-11)"></path>
                    <path d="M266.823824,94.9735031 L266.823824,128.840535 L266.823824,132.512542 L266.823824,144.655469 L266.823824,165.156126 C266.823824,181.119206 261.950305,192.493109 256.948536,199.635714 L224.256318,199.635714 C230.508946,192.904254 238.726972,179.74262 238.726972,158.86078 L238.726972,126.138962 L238.726972,121.69793 L238.726972,76.433692 C238.726972,60.3391119 243.727075,49.5244995 248.728845,42.2337496 C257.408239,51.2839339 264.858427,61.5375913 270.931171,72.6318489 C268.482752,78.729113 266.823824,86.3294701 266.823824,94.9735031" id="Fill-66" fill="#FFFFFF" mask="url(#mask-11)"></path>
                    <path d="M277.310217,199.635547 L261.821888,199.635547 C266.823657,191.986918 271.697176,180.814426 271.697176,165.15596 L271.697176,139.498512 L271.697176,137.972116 L271.697176,127.921534 L271.697176,94.9733366 C271.697176,87.9872002 272.463348,81.6086263 274.145595,76.4335255 C283.869314,96.0170124 289.765506,117.977484 289.765506,141.54425 C289.765506,162.299584 285.223439,181.733261 277.310217,199.635547" id="Fill-67" fill="#FFFFFF" mask="url(#mask-11)"></path>
                    <path d="M202.492043,153.935862 L202.492043,116.470063 L202.492043,67.1759377 C202.492043,38.3841337 215.913374,22.9503819 219.536034,18.9987288 C228.978268,25.4006065 237.654331,31.8257879 245.412653,39.9871 C239.749644,47.7139633 234.159922,59.420777 234.159922,76.4341913 L234.159922,121.698429 L234.159922,126.139461 L234.159922,158.859615 C234.159922,180.660289 224.689372,193.518974 218.769862,199.636213 L180.929303,199.636213 C181.232441,199.509707 182.126863,199.026986 182.126863,199.026986 C182.586566,198.592537 202.492043,185.662276 202.492043,153.935862" id="Fill-68" fill="#FFFFFF" mask="url(#mask-11)"></path>
                    <polyline id="Fill-69" fill="#FFFFFF" mask="url(#mask-11)" points="276.547377 202.544523 270.319732 219.731051 265.574464 220.1655 265.574464 202.544523"></polyline>
                </g>
                <path d="M21.3316852,616 C15.2023074,616 10.1079522,618.229158 6.07169345,622.644836 C2.03708282,627.055396 0,632.903739 0,640.186451 L0,642.156365 C0,649.97121 1.99917594,655.901419 5.99423156,659.953814 C9.97280593,663.994269 15.105068,666 21.447054,666 C23.94726,666 26.1376185,665.781689 28.0609806,665.326306 C29.9612691,664.850457 31.2880099,664.386547 32,663.895347 L32,656.397735 C31.0177173,656.817301 29.7124021,657.288034 28.0609806,657.767294 C26.4062629,658.24826 24.4070869,658.483627 22.0618047,658.483627 C18.6023898,658.483627 15.8730944,657.110656 13.8755665,654.344249 C11.8763906,651.579547 10.8759786,647.30543 10.8759786,641.49461 L10.8759786,640.839678 C10.8759786,635.451835 11.9538525,631.193069 14.1063041,628.129895 C16.2406263,625.070132 19.2187886,623.53684 23.0243098,623.53684 C25.0613927,623.53684 26.8660898,623.73639 28.4054388,624.113317 C29.9035847,624.512416 31.0968274,624.949038 32,625.428299 L32,617.71067 C31.0177173,617.190476 29.6728471,616.796493 27.9044087,616.474144 C26.1376185,616.158616 23.94726,616 21.3316852,616" id="Fill-70" fill="#000000"></path>
                <path d="M62.0501541,627.42388 C59.0344809,627.42388 56.5376156,628.078265 54.559558,629.352331 C52.5617363,630.624745 51.026724,632.049188 49.9100521,633.630617 L49.9100521,617 L40,617 L40,664 L49.9100521,664 L49.9100521,638.234442 C50.7187334,637.251213 51.756349,636.481155 53.0031346,635.901132 C54.2515673,635.324415 55.5971735,635.03523 57.0168951,635.03523 C58.4201466,635.03523 59.4577622,635.400429 60.1280948,636.134133 C60.7819573,636.846354 61.0899479,637.751916 61.0899479,638.870649 L61.0899479,664 L71,664 L71,638.870649 C71,634.99557 70.250611,632.126855 68.75348,630.239716 C67.2349378,628.369102 65.0081819,627.42388 62.0501541,627.42388" id="Fill-72" fill="#000000"></path>
                <polygon id="Fill-74" fill="#000000" points="81 663 90 663 90 627 81 627"></polygon>
                <path d="M84.9984237,615 C83.6380832,615 82.4637453,615.474321 81.470681,616.446521 C80.4776166,617.41401 80,618.587247 80,619.978797 C80,621.390765 80.4776166,622.581278 81.470681,623.551908 C82.4637453,624.520967 83.6380832,625 84.9984237,625 C86.3776797,625 87.5551702,624.520967 88.5277427,623.551908 C89.5034678,622.581278 90,621.390765 90,619.978797 C90,618.587247 89.5034678,617.41401 88.5277427,616.446521 C87.5551702,615.474321 86.3776797,615 84.9984237,615" id="Fill-76" fill="#000000"></path>
                <path d="M120.400765,629 C117.446267,629 114.949347,629.661968 112.896836,630.969188 C110.824573,632.294795 109.460072,633.792582 108.730912,635.512695 L108.539981,629.722147 L99,629.722147 L99,666 L108.903738,666 L108.903738,639.935845 C109.690507,638.979669 110.592492,638.22409 111.688701,637.615614 C112.761867,636.992094 114.029256,636.699557 115.449719,636.699557 C116.945896,636.699557 118.078316,637.112451 118.884836,637.926538 C119.671605,638.74564 120.094616,639.624921 120.094616,640.579425 L120.094616,666 L130,666 L130,640.579425 C130,636.659438 129.114474,633.757477 127.427365,631.848468 C125.699108,629.956176 123.394765,629 120.400765,629" id="Fill-77" fill="#000000"></path>
                <path d="M160.646413,653.577474 C160.646413,655.698272 160.042747,657.23932 158.858013,658.236954 C157.652296,659.201554 156.317453,659.700371 154.792148,659.700371 C153.060242,659.700371 151.630168,659.300656 150.500312,658.492969 C149.389826,657.696844 148.807144,656.063301 148.807144,653.636936 L148.807144,652.672336 C148.807144,650.340119 149.333333,648.650417 150.406696,647.566894 C151.480058,646.526316 152.929501,645.971341 154.755024,645.971341 C156.674164,645.971341 158.160731,646.544485 159.159846,647.685818 C160.137978,648.800723 160.646413,650.45739 160.646413,652.614526 L160.646413,653.577474 Z M156.730657,629 C153.907633,629 151.497813,629.229588 149.522181,629.711888 C147.564303,630.194188 145.758148,630.773939 144.156982,631.426365 L144.156982,637.574037 C145.419192,636.839025 146.849266,636.244409 148.542435,635.738985 C150.219463,635.258337 152.156357,635.01058 154.301468,635.01058 C156.298084,635.01058 157.841143,635.436722 158.932261,636.298915 C160.042747,637.151199 160.588306,638.191777 160.588306,639.40083 L160.588306,642.925584 C159.986254,642.326012 159.008122,641.809026 157.68942,641.404357 C156.372332,641.019508 155.055243,640.808089 153.681662,640.808089 C149.202593,640.808089 145.643549,641.885005 142.970634,644.063613 C140.336457,646.220749 139,649.319361 139,653.328066 L139,653.944154 C139,658.010669 139.958763,661.01183 141.953764,663.015356 C143.948766,665.000714 146.88639,666 150.765021,666 C153.11512,666 155.168229,665.5177 156.937259,664.554752 C158.70629,663.613276 159.94913,662.397616 160.701291,660.901165 L160.890138,665.558993 L170,665.558993 L170,642.137717 C170,637.554216 168.908883,634.217758 166.744403,632.139904 C164.579923,630.040579 161.250078,629 156.730657,629 L156.730657,629 Z" id="Fill-78" fill="#000000"></path>
                <polygon id="Fill-79" fill="#000000" points="191 623.988854 201.365528 623.988854 201.365528 664 211.86529 664 211.86529 623.988854 222 623.988854 222 617 191 617"></polygon>
                <path d="M250.024191,627.42388 C247.026211,627.42388 244.52762,628.078265 242.528417,629.352331 C240.548993,630.624745 238.993142,632.049188 237.916901,633.630617 L237.916901,617 L228,617 L228,664 L237.916901,664 L237.916901,638.234442 C238.724494,637.251213 239.761178,636.481155 240.992344,635.901132 C242.259769,635.324415 243.56675,635.03523 245.027008,635.03523 C246.4131,635.03523 247.449785,635.400429 248.100803,636.134133 C248.755117,636.846354 249.083099,637.751916 249.083099,638.870649 L249.083099,664 L259,664 L259,638.870649 C259,634.99557 258.250093,632.126855 256.751927,630.239716 C255.250465,628.369102 253.004041,627.42388 250.024191,627.42388" id="Fill-80" fill="#000000"></path>
                <path d="M286.289028,629 C284.189938,629 282.375064,629.565013 280.858104,630.696711 C279.300051,631.806678 278.063882,633.406434 277.082823,635.469233 L276.884214,629.722147 L267,629.722147 L267,666 L277.283144,666 L277.283144,640.072919 C277.54339,639.332385 278.103262,638.628626 278.940501,637.985046 C279.77774,637.343137 280.817012,637.010482 282.034347,637.010482 C283.31332,637.010482 284.189938,637.3866 284.631672,638.12212 C285.071693,638.844267 285.290848,639.721876 285.290848,640.754947 L294.813799,640.754947 C295.312034,636.933586 294.813799,634.029954 293.278005,632.002259 C291.740499,630.01134 289.40342,629 286.289028,629" id="Fill-81" fill="#000000"></path>
                <path d="M308.268414,641.841 C308.387736,638.236211 309.209546,635.660166 310.737203,634.137958 C312.227888,632.595677 313.953856,631.854646 315.873091,631.854646 C318.066263,631.854646 319.871219,632.61575 321.222414,634.156359 C322.575291,635.71704 323.360127,638.269666 323.575242,641.841 L308.268414,641.841 Z M315.873091,626 C310.071689,626 305.64333,627.756394 302.586334,631.229036 C299.549505,634.683277 298,638.913677 298,643.9286 L298,646.523044 C298,652.217106 299.685633,656.569617 303.016566,659.553814 C306.349179,662.517938 310.836358,664 316.461298,664 C319.400653,664 321.988764,663.747414 324.22227,663.220496 C326.457457,662.691905 328.532988,661.937492 330.376597,660.876964 L330.376597,654.833297 C328.238884,655.808513 326.143186,656.549544 324.104629,657.058062 C322.066071,657.546507 320.067848,657.799093 318.146932,657.799093 C315.205896,657.799093 312.816095,657.014571 310.972486,655.437162 C309.132239,653.856407 308.191107,651.046177 308.191107,647.031562 L333,647.031562 L333,643.635867 C333,638.406832 331.512676,634.156359 328.573322,630.89783 C325.652454,627.644319 321.420724,626 315.873091,626 L315.873091,626 Z" id="Fill-82" fill="#000000"></path>
                <path d="M349.273347,641.841 C349.411222,638.236211 350.236789,635.660166 351.743322,634.137958 C353.238086,632.595677 354.96152,631.854646 356.881678,631.854646 C359.077585,631.854646 360.864912,632.61575 362.216756,634.156359 C363.587096,635.71704 364.373991,638.269666 364.567352,641.841 L349.273347,641.841 Z M356.881678,626 C351.07917,626 346.647002,627.756394 343.590219,631.229036 C340.530073,634.683277 339,638.913677 339,643.9286 L339,646.523044 C339,652.217106 340.686443,656.569617 344.020657,659.553814 C347.35319,662.517938 351.827392,664 357.44999,664 C360.392439,664 362.981793,663.747414 365.236549,663.220496 C367.5098,662.691905 369.549337,661.937492 371.39215,660.876964 L371.39215,654.833297 C369.233234,655.808513 367.156706,656.549544 365.117169,657.058062 C363.077633,657.546507 361.078449,657.799093 359.136434,657.799093 C356.19903,657.799093 353.824894,657.014571 351.982081,655.437162 C350.139268,653.856407 349.217861,651.046177 349.217861,647.031562 L374,647.031562 L374,643.635867 C374,638.406832 372.528776,634.156359 369.589691,630.89783 C366.647243,627.644319 362.41348,626 356.881678,626 L356.881678,626 Z" id="Fill-83" fill="#000000"></path>
                <path d="M415.950238,645.674228 L423.138593,645.674228 L423.138593,655.599181 C422.677062,656.370118 421.755647,657.086475 420.331492,657.707317 C418.928766,658.324748 417.369448,658.602763 415.640353,658.602763 C412.4904,658.602763 410.029447,657.366195 408.26244,654.901586 C406.452577,652.433566 405.57237,647.961453 405.57237,641.493775 L405.57237,640.83882 C405.57237,634.630394 406.721255,630.19751 408.991001,627.531639 C411.300307,624.86918 414.336526,623.537097 418.102954,623.537097 C420.219406,623.537097 422.101795,623.832168 423.755067,624.432543 C425.36878,625.00904 426.715463,625.566775 427.790172,626.081869 L427.790172,618.268463 C426.944581,617.787481 425.637457,617.274092 423.830891,616.752175 C422.025972,616.27972 419.795786,616 417.181539,616 C410.162962,616 404.721834,618.207061 400.840023,622.563193 C396.959861,626.939792 395,632.585366 395,639.508443 L395,642.155552 C395,649.928023 396.765358,655.855023 400.305965,659.916084 C403.802067,663.973734 408.662984,666 414.796409,666 C419.256783,666 422.869916,665.244414 425.637457,663.731537 C428.42313,662.201603 430.539582,660.274262 432,657.906874 L432,639.187788 L415.950238,639.187788 L415.950238,645.674228 Z" id="Fill-84" fill="#000000"></path>
                <path d="M464.747808,645.272671 C464.747808,650.48019 463.977737,653.896108 462.47395,655.533809 C460.932155,657.174855 459.122653,657.992868 457.000826,657.992868 C454.6493,657.992868 452.80179,657.154781 451.415332,655.455186 C450.045398,653.777338 449.328207,650.386512 449.328207,645.272671 L449.328207,644.727329 C449.328207,640.083553 450.063576,636.804807 451.491347,634.896108 C452.914161,632.984064 454.725316,632.045607 457.000826,632.045607 C459.157356,632.045607 461.009823,632.925515 462.47395,634.70206 C463.995915,636.495334 464.747808,639.852703 464.747808,644.727329 L464.747808,645.272671 Z M457.000826,626 C451.451687,626 447.059307,627.641046 443.820381,630.914774 C440.621115,634.213594 439,638.524476 439,643.869167 L439,646.170981 C439,651.634443 440.640946,655.963726 443.896397,659.180578 C447.1535,662.399102 451.54588,664 457.076842,664 C462.625981,664 467.021666,662.444268 470.181272,659.299348 C473.383842,656.157774 475,651.790016 475,646.170981 L475,643.869167 C475,638.561278 473.383842,634.27047 470.181272,630.954922 C467.021666,627.659447 462.609456,626 457.000826,626 L457.000826,626 Z" id="Fill-85" fill="#000000"></path>
                <path d="M502.269424,629 C500.194702,629 498.400487,629.565013 496.842308,630.696711 C495.326889,631.806678 494.054348,633.406434 493.0931,635.469233 L492.892983,629.722147 L483,629.722147 L483,666 L493.293218,666 L493.293218,640.072919 C493.55491,639.332385 494.091977,638.628626 494.930075,637.985046 C495.764753,637.343137 496.804679,637.010482 498.039592,637.010482 C499.317264,637.010482 500.194702,637.3866 500.632566,638.12212 C501.07043,638.844267 501.289362,639.721876 501.289362,640.754947 L510.806055,640.754947 C511.322598,636.933586 510.806055,634.029954 509.271822,632.002259 C507.732457,630.01134 505.402886,629 502.269424,629" id="Fill-86" fill="#000000"></path>
                <path d="M537.614667,646.238749 C537.614667,650.370135 537.014686,653.265192 535.811287,654.995403 C534.649148,656.697995 532.92313,657.568787 530.66074,657.568787 C528.355371,657.568787 526.631072,656.772727 525.446584,655.217974 C524.263815,653.682717 523.665553,650.688559 523.665553,646.238749 L523.665553,645.289976 C523.665553,641.423401 524.303355,638.661562 525.585834,636.973591 C526.911292,635.308365 528.675131,634.47169 530.90142,634.47169 C533.266958,634.47169 534.968908,635.193018 536.012427,636.634048 C537.095486,638.055582 537.614667,640.555859 537.614667,644.04065 L537.614667,646.238749 Z M538.298885,632.501037 C537.334447,631.345938 536.012427,630.478396 534.288128,629.890287 C532.625718,629.298928 530.801709,629 528.876271,629 C523.902795,629 520.014097,630.437781 517.208458,633.298721 C514.380471,636.159661 513,640.498998 513,646.313481 L513,647.336986 C513,653.39841 514.224029,657.719876 516.687558,660.333875 C519.152807,662.94625 522.381355,664.276806 526.388673,664.276806 C529.95933,664.276806 532.64291,663.596094 534.490987,662.229796 C536.354536,660.865123 537.595756,659.576806 538.176826,658.363222 L538.176826,661.812271 C538.176826,663.969755 537.413527,665.714587 535.931627,667.059765 C534.448008,668.404943 531.64065,669.085655 527.471732,669.085655 C525.946854,669.085655 524.184734,668.915071 522.137237,668.632389 C520.075986,668.309091 518.111007,667.759972 516.245739,666.963913 L516.245739,673.730418 C518.069748,674.58009 520.136156,675.147079 522.498256,675.488247 C524.844884,675.829416 526.911292,676 528.675131,676 C534.690407,676 539.400855,674.565468 542.825384,671.701279 C546.275701,668.822468 548,664.884411 548,659.841618 L548,629.432147 L538.298885,629.432147 L538.298885,632.501037 Z" id="Fill-87" fill="#000000"></path>
                <path d="M566.253663,641.841 C566.391545,638.236211 567.21547,635.660166 568.723757,634.137958 C570.255585,632.595677 571.942109,631.854646 573.860677,631.854646 C576.05669,631.854646 577.862599,632.61575 579.234687,634.156359 C580.584915,635.71704 581.351669,638.269666 581.588758,641.841 L566.253663,641.841 Z M573.860677,626 C568.059572,626 563.627192,627.756394 560.588758,631.229036 C557.548643,634.683277 556,638.913677 556,643.9286 L556,646.523044 C556,652.217106 557.664665,656.569617 561.019217,659.553814 C564.331732,662.517938 568.843142,664 574.449195,664 C577.391785,664 579.981264,663.747414 582.236128,663.220496 C584.490992,662.691905 586.530627,661.937492 588.392025,660.876964 L588.392025,654.833297 C586.256546,655.808513 584.156378,656.549544 582.098246,657.058062 C580.058612,657.546507 578.07951,657.799093 576.135719,657.799093 C573.198174,657.799093 570.805429,657.014571 568.957483,655.437162 C567.116262,653.856407 566.194811,651.046177 566.194811,647.031562 L591,647.031562 L591,643.635867 C591,638.406832 589.528705,634.156359 586.607975,630.89783 C583.665386,627.644319 579.43142,626 573.860677,626 L573.860677,626 Z" id="Fill-88" fill="#000000"></path>
                <path d="M618.629705,647.292042 C617.060419,645.450838 614.247416,643.953215 610.209647,642.823833 C607.059015,641.941041 605.029795,641.250589 604.123708,640.77056 C603.200396,640.272449 602.757688,639.432399 602.757688,638.204381 C602.757688,637.145688 603.364042,636.285911 604.526796,635.674368 C605.692995,635.059537 607.238165,634.73075 609.148526,634.73075 C610.797052,634.73075 612.51965,634.926378 614.290481,635.2864 C616.097486,635.631626 617.503126,636.093571 618.469504,636.632781 L618.469504,630.883947 C617.101761,630.27076 615.694398,629.805527 614.168177,629.498112 C612.641955,629.174257 610.75571,629 608.585237,629 C603.80675,629 600.306431,629.997867 598.099783,631.991958 C595.88969,633.966322 594.785505,636.40263 594.785505,639.274581 C594.785505,642.075843 595.410808,644.377349 596.654523,646.139645 C597.879291,647.923313 600.208243,649.30586 603.646548,650.279069 C607.260559,651.314747 609.510272,652.233705 610.411191,653.003066 C611.298328,653.770782 611.741036,654.747279 611.741036,655.975297 C611.741036,657.221398 611.072668,658.257076 609.749713,659.057671 C608.425035,659.864842 606.514674,660.270893 604.008294,660.270893 C602.077262,660.270893 600.147952,659.999645 598.301327,659.425912 C596.452979,658.870263 595.005997,658.291598 594,657.737593 L594,664.045364 C594.883693,664.581286 596.292778,665.061314 598.259985,665.426267 C600.225469,665.80766 602.420059,666 604.828251,666 C610.595508,666 614.731466,664.888701 617.225788,662.682543 C619.754562,660.46159 621,657.701426 621,654.380682 C621,651.507087 620.216218,649.128316 618.629705,647.292042" id="Fill-89" fill="#000000"></path>
                <polygon id="Fill-90" fill="#186AB3" points="669.396862 644.805703 646.729514 617 641 617 641 664 648.621524 664 648.621524 634.477304 672.417057 664 677 664 677 617 669.396862 617"></polygon>
                <path d="M695.253663,641.841 C695.371367,638.236211 696.198655,635.660166 697.723757,634.137958 C699.235407,632.595677 700.942109,631.854646 702.860677,631.854646 C705.05669,631.854646 706.862599,632.61575 708.21619,634.156359 C709.5681,635.71704 710.355032,638.269666 710.588758,641.841 L695.253663,641.841 Z M702.860677,626 C697.059572,626 692.627192,627.756394 689.570262,631.229036 C686.531828,634.683277 685,638.913677 685,643.9286 L685,646.523044 C685,652.217106 686.669709,656.569617 690.000721,659.553814 C693.331732,662.517938 697.843142,664 703.452558,664 C706.390103,664 708.979582,663.747414 711.217632,663.220496 C713.472496,662.691905 715.530627,661.937492 717.371847,660.876964 L717.371847,654.833297 C715.256546,655.808513 713.137881,656.549544 711.098246,657.058062 C709.058612,657.546507 707.077828,657.799093 705.139082,657.799093 C702.196493,657.799093 699.805429,657.014571 697.960846,655.437162 C696.119625,653.856407 695.198174,651.046177 695.198174,647.031562 L720,647.031562 L720,643.635867 C720,638.406832 718.532068,634.156359 715.589479,630.89783 C712.648571,627.644319 708.411242,626 702.860677,626 L702.860677,626 Z" id="Fill-91" fill="#186AB3"></path>
                <polygon id="Fill-92" fill="#186AB3" points="762.085449 649.187532 753.983107 627 749.272167 627 740.656954 648.412892 732.199678 627 722 627 736.338309 663 742.65749 663 750.401502 644.547989 757.668305 663 763.987487 663 779 627 770.877279 627"></polygon>
                <polygon id="Fill-93" fill="#186AB3" points="810.645643 643.72306 824.697095 643.72306 824.697095 636.634145 810.645643 636.634145 810.645643 623.993074 828.725311 623.993074 828.725311 617 800 617 800 664 830 664 830 656.983792 810.645643 656.983792"></polygon>
                <path d="M858.409942,629 C855.466507,629 852.94992,629.661968 850.893142,630.969188 C848.834716,632.294795 847.433865,633.792582 846.723551,635.512695 L846.530728,629.722147 L837,629.722147 L837,666 L846.913078,666 L846.913078,639.935845 C847.686018,638.979669 848.607283,638.22409 849.685114,637.615614 C850.799203,636.992094 852.025359,636.699557 853.449282,636.699557 C854.949016,636.699557 856.10101,637.112451 856.908559,637.926538 C857.678203,638.74564 858.100106,639.624921 858.100106,640.579425 L858.100106,666 L868,666 L868,640.579425 C868,636.659438 867.151249,633.757477 865.445508,631.848468 C863.749654,629.956176 861.404466,629 858.409942,629" id="Fill-94" fill="#186AB3"></path>
                <path d="M885.240579,641.841 C885.402086,638.236211 886.202894,635.660166 887.713661,634.137958 C889.244616,632.595677 890.932032,631.854646 892.853297,631.854646 C895.074024,631.854646 896.855653,632.61575 898.233513,634.156359 C899.602961,635.71704 900.368439,638.269666 900.585464,641.841 L885.240579,641.841 Z M892.853297,626 C887.047443,626 882.612719,627.756394 879.572678,631.229036 C876.532638,634.683277 875,638.913677 875,643.9286 L875,646.523044 C875,652.217106 876.652086,656.569617 880.005047,659.553814 C883.317631,662.517938 887.831427,664 893.445491,664 C896.38459,664 898.975437,663.747414 901.231494,663.220496 C903.489233,662.691905 905.528264,661.937492 907.390646,660.876964 L907.390646,654.833297 C905.254038,655.808513 903.152759,656.549544 901.09354,657.058062 C899.07638,657.546507 897.089502,657.799093 895.132907,657.799093 C892.188762,657.799093 889.794751,657.014571 887.950875,655.437162 C886.125505,653.856407 885.205249,651.046177 885.205249,647.031562 L910,647.031562 L910,643.635867 C910,638.406832 908.549798,634.156359 905.605653,630.89783 C902.661507,627.644319 898.425303,626 892.853297,626 L892.853297,626 Z" id="Fill-95" fill="#186AB3"></path>
                <path d="M935.293172,629 C933.198915,629 931.385261,629.565013 929.86932,630.696711 C928.310604,631.806678 927.075267,633.406434 926.094867,635.469233 L925.89468,629.722147 L916,629.722147 L916,666 L926.296764,666 L926.296764,640.072919 C926.558546,639.332385 927.112908,638.628626 927.953007,637.985046 C928.791394,637.343137 929.807725,637.010482 931.044773,637.010482 C932.304065,637.010482 933.198915,637.3866 933.63693,638.12212 C934.074945,638.844267 934.295663,639.721876 934.295663,640.754947 L943.813924,640.754947 C944.311824,636.933586 943.813924,634.029954 942.279163,632.002259 C940.722158,630.01134 938.407182,629 935.293172,629" id="Fill-96" fill="#186AB3"></path>
                <path d="M970.65452,646.238749 C970.65452,650.370135 970.054658,653.265192 968.849777,654.995403 C967.670677,656.697995 965.946717,657.568787 963.683053,657.568787 C961.378137,657.568787 959.654177,656.772727 958.492265,655.217974 C957.306291,653.682717 956.706428,650.688559 956.706428,646.238749 L956.706428,645.289976 C956.706428,641.423401 957.349261,638.661562 958.633207,636.973591 C959.911997,635.308365 961.677209,634.47169 963.940873,634.47169 C966.288759,634.47169 968.012719,635.193018 969.050877,636.634048 C970.133723,638.055582 970.65452,640.555859 970.65452,644.04065 L970.65452,646.238749 Z M971.319697,632.501037 C970.333104,631.345938 969.014782,630.478396 967.325198,629.890287 C965.664833,629.298928 963.842901,629 961.880028,629 C956.909247,629 953.019594,630.437781 950.212788,633.298721 C947.424888,636.159661 946,640.498998 946,646.313481 L946,647.336986 C946,653.39841 947.247851,657.719876 949.729804,660.333875 C952.175662,662.94625 955.424201,664.276806 959.43417,664.276806 C962.961155,664.276806 965.68374,663.596094 967.529735,662.229796 C969.394637,660.865123 970.618426,659.576806 971.180474,658.363222 L971.180474,661.812271 C971.180474,663.969755 970.458577,665.714587 968.954624,667.059765 C967.486765,668.404943 964.643864,669.085655 960.492953,669.085655 C958.992437,669.085655 957.208319,668.915071 955.142317,668.632389 C953.098659,668.309091 951.154692,667.759972 949.28979,666.963913 L949.28979,673.730418 C951.113441,674.58009 953.179443,675.147079 955.520454,675.488247 C957.870058,675.829416 959.911997,676 961.715022,676 C967.687865,676 972.419732,674.565468 975.867652,671.701279 C979.27604,668.822468 981,664.884411 981,659.841618 L981,629.432147 L971.319697,629.432147 L971.319697,632.501037 Z" id="Fill-97" fill="#186AB3"></path>
                <polygon id="Fill-98" fill="#186AB3" points="1015.93352 629 1006.10223 652.802288 997.07612 629 987 629 1000.90971 663.089869 995.276813 675 1003.43696 675 1024 629"></polygon>
                <path d="M674.317344,526.438318 C674.317344,538.342121 672.646182,548.66613 669.392343,557.19568 C666.148521,552.665929 662.468961,547.502247 658.387054,542.125579 L657.223419,540.745355 L672.330649,540.745355 L672.330649,527.590461 L647.877605,527.590461 L647.877605,519.065942 L674.317344,518.430335 L674.317344,526.438318 Z M647.877605,545.731267 L647.877605,540.745355 L655.956275,540.745355 L647.877605,545.731267 Z M642.54024,505.305628 L636.448265,505.305628 L638.56518,503.995841 L636.872316,501.522171 C633.635171,497.451935 630.992366,493.879788 628.596646,490.874488 L652.400257,490.874488 C649.355105,495.682632 646.099596,500.618233 642.54024,505.305628 L642.54024,505.305628 Z M633.316299,567.008184 C633.316299,569.788757 632.366358,570.315355 630.271146,570.315355 C627.646705,570.315355 624.090688,570.105722 619.671543,569.679748 C623.564798,563.09727 627.436349,555.937882 631.3079,548.347488 L632.469866,545.731267 L621.449552,540.745355 L633.316299,540.745355 L633.316299,567.008184 Z M688.703353,487.936272 C699.703633,487.198363 712.926007,485.992554 728.140084,484.028711 L731.589254,483.445093 L726.450559,469.01563 L724.036474,469.386261 C709.758981,472.448581 693.930531,474.070303 676.941784,474.21453 L674.317344,474.21453 L674.317344,505.305628 L659.934673,505.305628 C662.347089,502.528409 664.864682,499.52311 667.39897,496.195814 L669.60103,493.618166 L664.687716,490.874488 L672.330649,490.874488 L672.330649,477.749782 L649.901028,477.749782 L649.655613,477.2366 C647.259893,473.18649 644.864172,469.01563 642.329884,465.017509 L640.975926,463 L628.054061,468.608104 L629.655103,471.437311 C630.992366,473.647682 632.152663,475.752398 633.316299,477.749782 L608.457568,477.749782 L608.457568,490.874488 L617.38267,490.874488 L613.177221,493.71879 L615.25073,496.195814 C617.38267,498.778493 619.671543,501.837459 622.082289,505.305628 L604.4775,505.305628 L604.4775,518.430335 L633.316299,518.430335 L633.316299,527.590461 L607.930009,527.590461 L607.930009,540.745355 L618.317586,540.745355 L617.893535,542.071913 C613.177221,551.624472 608.881619,559.402697 604.97167,565.433421 L603,568.264305 L606.061848,569.574093 C609.091975,570.900651 611.694712,572.259073 614.021984,573.746629 L616.309187,575.108405 L616.519543,574.804857 C616.960289,577.426109 617.259128,579.688469 617.576331,581.74455 L617.893535,584.073992 L620.197433,584.125981 C624.811908,584.125981 628.807002,584.288656 632.366358,584.288656 C642.329884,584.288656 647.877605,578.804656 647.877605,569.005568 L647.877605,551.924666 C651.3418,556.576843 654.795978,561.844503 657.963004,567.095391 L659.547351,569.679748 L665.288733,565.842624 C663.527419,568.90159 661.415512,571.621788 659.021461,574.204468 L657.223419,576.062655 L658.897919,578.028175 C661.415512,580.377742 663.527419,582.908432 665.499089,585.541423 L667.39897,588 L669.60103,585.650433 C682.292505,571.519487 688.703353,551.730127 688.703353,526.844167 L688.703353,523.909304 L701.484981,523.909304 L701.484981,586.076407 L716.271668,586.076407 L716.271668,523.909304 L734,523.909304 L734,510.115449 L688.703353,510.115449 L688.703353,487.936272 Z" id="Fill-99" fill="#186AB3"></path>
                <path d="M771.631932,531.153973 L797.152695,531.153973 L797.152695,525.525415 L771.631932,525.525415 L771.631932,531.153973 Z M771.631932,549.659565 L797.152695,549.659565 L797.152695,543.565116 L771.631932,543.565116 L771.631932,549.659565 Z M833.865618,502.405361 C842.971215,499.00419 852.090018,495.148653 860.898478,491.01819 L860.814289,494.244857 C860.411504,500.599415 859.873356,505.286313 859.348414,508.514626 C859.142069,509.74932 858.759092,512.333946 853.242249,512.333946 L837.677225,512.333946 C835.691359,512.333946 833.865618,512.128163 833.865618,507.159755 L833.865618,502.405361 Z M874.1805,541.499061 L877,540.042122 L868.38798,527.333007 L866.192468,528.566054 C854.998659,534.471184 844.118494,539.31283 833.641114,543.272082 L833.641114,525.770707 C834.474749,525.770707 835.51968,525.823388 836.424297,525.823388 L854.389528,525.823388 C868.508486,525.823388 872.651896,519.154395 873.781016,513.585102 C874.391798,509.538599 875.121434,504.469769 875.852721,498.014789 L876.060717,495.876299 L873.989012,495.272122 C870.680887,494.073646 867.549394,492.993701 864.436059,491.918694 L861.542275,490.721864 C864.866907,489.419673 868.280681,487.81951 871.483157,486.155143 L874.304307,484.818381 L865.598194,471.990735 L863.405984,473.240245 C853.65659,478.620218 843.700851,483.065116 833.865618,486.882789 L833.865618,468.118735 L818.825535,468.118735 L818.825535,503.342082 C813.721383,495.530585 807.631726,487.508367 800.876812,479.123973 L799.31024,477.372354 L787.091308,484.627415 L788.933557,487.14619 C790.813774,489.785143 792.662626,492.093197 794.435543,494.539537 C787.611297,494.97415 780.230745,495.461442 772.36487,495.876299 C778.472685,489.174381 784.060511,481.91932 789.666495,474.160503 L791.966005,471.226871 L776.592468,466 L775.354398,467.754912 C771.10699,474.680721 766.757235,480.844313 762.402528,486.257211 C758.138612,491.01819 754.518494,494.332109 751.19221,496.08702 L749,497.28385 L754.607635,511.291864 L756.694197,510.980721 C768.393139,509.834925 783.852515,508.652912 803.138354,507.419864 C804.392933,509.001918 805.437864,510.773293 806.36064,512.541374 L756.694197,512.541374 L756.694197,587 L771.631932,587 L771.631932,561.986748 L797.152695,561.986748 L797.152695,568.894449 C797.152695,571.429687 796.314109,572.162272 793.705907,572.162272 C790.605778,572.162272 786.464019,571.91698 781.467165,571.605837 L777.739747,571.325973 L778.563477,574.9 C779.39546,578.426286 780.02275,581.254558 780.442043,583.584014 L780.856384,585.873959 L783.119577,585.873959 C788.727212,585.873959 793.511117,585.873959 797.152695,585.771891 C806.654475,585.771891 812.087129,580.38698 812.087129,570.423823 L812.087129,514.558041 C814.140676,513.219633 816.441836,511.813728 818.825535,510.162531 C819.122672,518.270354 823.158783,523.39351 830.31153,525.145129 L818.495383,525.145129 L818.495383,568.58166 C818.495383,579.241184 824.517359,584.933946 835.277018,584.933946 L855.850451,584.933946 C869.219964,584.933946 873.049729,578.113497 873.989012,572.315374 C874.72195,568.894449 875.454888,563.842082 876.060717,556.708844 L876.272014,554.520966 L874.1805,553.811429 C870.892185,552.767701 867.775548,551.740435 864.748053,550.701646 L861.106474,549.468599 L860.898478,553.02781 C860.602992,559.589796 860.167191,564.76234 859.439206,568.130585 C859.142069,570.074816 858.339799,571.429687 854.998659,571.429687 L836.860098,571.429687 C835.51968,571.429687 833.641114,571.429687 833.641114,566.844857 L833.641114,558.667891 C847.740263,553.478884 861.317771,547.800939 874.1805,541.499061 L874.1805,541.499061 Z" id="Fill-100" fill="#186AB3"></path>
                <path d="M965.567625,513.215375 L999.800149,513.215375 L999.800149,507.779671 L965.567625,507.779671 L965.567625,513.215375 Z M965.567625,531.743866 L999.800149,531.743866 L999.800149,526.097386 L965.567625,526.097386 L965.567625,531.743866 Z M989.401839,552.371878 L989.401839,544.835005 L999.800149,544.835005 L989.401839,552.371878 Z M974.955056,568.660878 C974.955056,570.880609 974.395847,571.506349 972.129231,571.506349 C969.128032,571.506349 965.56597,571.405901 961.520805,571.091384 L959.669459,570.880609 C963.719588,566.03771 967.680376,560.636586 971.517079,554.751337 L973.070621,552.371878 L965.359162,548.029572 L965.56597,545.147875 L974.955056,544.835005 L974.955056,568.660878 Z M1022.34057,569.965052 C1017.1439,563.035805 1011.00253,555.581266 1004.05709,548.029572 L1014.12285,548.029572 L1014.12285,494.494223 L983.364699,494.494223 C984.8289,491.941863 986.159089,489.129326 987.621636,486.489691 L1023.17939,486.489691 L1023.17939,473.014875 L932.106081,473.014875 L932.106081,483.990025 L931.196126,483.260544 C924.239103,477.320954 917.469034,472.092731 910.907428,467.388155 L909.039538,466 L898.851346,476.32965 L901.240392,478.312258 C906.739832,482.427321 912.982127,487.93054 920.066543,494.494223 L922.03701,496.317102 L924.010787,494.443176 C925.981254,492.36012 928.474532,489.997129 931.302011,487.35914 L932.106081,486.7334 L932.106081,517.192118 C932.106081,543.323349 926.628149,562.303031 915.809606,573.693145 L914.23952,575.344769 C917.763529,561.160232 921.009588,548.340796 923.904901,536.761312 L924.533597,534.207305 L922.03701,533.551925 C919.437847,532.715409 916.612022,531.430996 913.923517,529.815599 L910.698966,527.870865 L909.77412,531.53309 C906.54626,546.259387 902.583818,561.991807 897.820614,577.61884 L897,580.192608 L911.934851,584.949878 L912.583401,582.066534 C913.104557,580.08722 913.610823,578.037098 914.047602,576.177992 L915.877439,577.61884 C918.704919,580.050993 921.009588,582.274016 922.860934,584.567847 L924.950522,587 L926.922644,584.758863 C940.026002,571.00411 946.688531,548.340796 946.688531,517.08673 L946.688531,486.489691 L971.308616,486.489691 C970.244796,489.213307 969.128032,491.941863 968.10061,494.494223 L951.243271,494.494223 L951.243271,548.029572 L958.603984,548.029572 C953.42551,556.401315 947.424767,564.074863 940.722532,570.780161 L938.561801,573.105279 L950.303536,581.649923 L951.958,580.050993 C954.140239,577.61884 956.114015,575.344769 958.312798,572.863216 L958.833954,574.615288 C959.355111,577.358664 959.968917,580.192608 960.404041,582.381051 L960.787877,584.599134 L962.98666,584.599134 C967.366027,584.758863 971.101808,584.758863 973.783695,584.758863 C983.887509,584.758863 989.401839,579.372559 989.401839,569.43976 L989.401839,552.526667 L991.251531,554.644303 C998.122522,562.510513 1004.35489,570.569385 1010.09257,578.801159 L1011.73215,581.02583 L1024,572.342864 L1022.34057,569.965052 Z" id="Fill-101" fill="#186AB3"></path>
                <path d="M918.069536,526 L919.849338,524.271418 C921.701987,522.624066 924.215232,520.036066 927.006623,516.71212 L929,514.574136 L926.624172,512.826059 C918.612583,506.709412 911.190397,501.656883 904.766556,497.302935 L902.811258,496 L893,506.402361 L895.392384,508.334019 C901.413907,512.622983 908.397351,518.036175 916.114238,524.458248 L918.069536,526 Z" id="Fill-102" fill="#186AB3"></path>
                <polygon id="Fill-103" fill="#000000" points="310 587 437 587 437 567 310 567"></polygon>
                <polygon id="Fill-104" fill="#000000" points="313 492 432 492 432 476 313 476"></polygon>
                <polygon id="Fill-105" fill="#000000" points="319 537 430 537 430 521 319 521"></polygon>
                <path d="M73.7884879,542.668094 L109.298855,542.668094 L109.298855,502.17584 L73.7884879,502.17584 L73.7884879,542.668094 Z M18.8489866,542.673041 L54.9527999,542.673041 L54.9527999,502.184085 L18.8489866,502.184085 L18.8489866,542.673041 Z M73.7851633,472 L55.2619904,472.049471 L55.2619904,485.896486 L0,485.860207 L0,559.173367 L54.9527999,559.173367 L54.9527999,586 L73.7884879,586 L73.7884879,559.173367 L118.641064,559.173367 C128.134543,559.173367 127.999948,552.427131 127.999948,552.427131 L127.999948,485.860207 L73.7884879,485.860207 L73.7851633,472 Z" id="Fill-106" fill="#000000"></path>
                <path d="M173,491 L173,505.741367 L207.486562,505.741367 L207.486562,515.548287 L173,515.548287 L173,530.301379 L207.486562,530.318129 L207.486562,549.241883 L173,549.241883 L173,564 L260,564 L260,549.261983 L251.677573,549.241883 C251.337538,544.315811 250.67767,538.692954 249.425266,533.35819 L237.071242,535.761765 C237.717644,539.451713 238.207496,543.319207 238.498713,549.241883 L225.537004,549.241883 L225.537004,530.318129 L260,530.318129 L260,515.548287 L225.537004,515.548287 L225.537004,505.741367 L260,505.741367 L260,491 L225.537004,491 L207.486562,491 L173,491 Z" id="Fill-107" fill="#000000"></path>
                <path d="M265.777686,569.899806 L170.528655,569.899806 L170.528655,487.08168 L209.525119,487.08168 L265.777686,487.096828 L265.777686,569.899806 Z M281.985799,472.51622 L281.985799,470 L281.914383,470 L169.208289,470 L154,470 L154,487.08168 L154,587 L169.208289,587 L273.007311,587 C282.753106,587 281.985799,577.529253 281.985799,577.529253 L281.985799,472.51622 Z" id="Fill-108" fill="#000000"></path>
                <path d="M496.795951,560.543832 L492.652176,560.543832 L492.652176,465 L477.345306,465 L477.345306,560.543832 L473.208179,560.543832 L473.223139,476.77958 L459.046541,476.77958 L459,561.258345 L459.046541,561.258345 L459.046541,578 L505.106772,578 C511.60251,578 510.984184,572.255912 510.984184,572.255912 L510.984184,564.661334 L510.999144,564.661334 L510.999144,477.278421 L496.795951,477.278421 L496.795951,560.543832 Z" id="Fill-109" fill="#000000"></path>
                <path d="M576.806057,516 C578.80509,500.742928 578.856637,498.373396 579,493.147509 L566.886598,492 C566.723905,503.244929 565.032539,510.724438 564,516 L576.806057,516 Z" id="Fill-110" fill="#000000"></path>
                <path d="M536,516 C534.960412,510.709535 533.293209,503.226715 533.085613,492 L521,493.132607 C521.143225,498.358493 521.191503,500.742928 523.177341,516 L536,516 Z" id="Fill-111" fill="#000000"></path>
                <path d="M560.340408,536.276154 L586.802423,536.276154 L586.802423,518.964357 L577.77864,518.964357 L564.47956,518.964357 L558.834508,518.964357 L558.834508,490.217628 L560.611039,490.217628 L560.611039,490.202606 L582.097106,490.202606 L582.097106,490.217628 L585.527305,490.217628 L585.527305,475.124051 L558.834508,475.124051 L558.834508,462 L541.26179,462 L541.26179,475.124051 L514.602199,475.124051 L514.602199,490.217628 L532.060354,490.217628 L533.083105,490.217628 L541.26179,490.217628 L541.26179,518.964357 L535.643303,518.964357 L535.643303,518.944328 L522.400673,518.944328 L522.400673,518.964357 L513.317119,518.964357 L513.317119,536.276154 L539.4919,536.276154 C535.708055,547.297152 526.302401,557.685565 513,566.825499 L513,586 C529.485214,576.935175 543.855194,563.15851 550.245726,547.497443 C560.142832,571.886179 587,585.734615 587,585.734615 L587,566.034351 C577.358582,559.596673 565.528876,548.166747 560.340408,536.276154" id="Fill-112" fill="#000000"></path>
            </g>
        </g>
    </g>
</svg>