<?xml version="1.0" encoding="UTF-8"?>
<svg width="873px" height="768px" viewBox="0 0 873 768" version="1.1" xmlns="http://www.w3.org/2000/svg" xmlns:xlink="http://www.w3.org/1999/xlink">
    <title>中国第一汽车集团有限公司@2x</title>
    <defs>
        <polygon id="path-1" points="0 0 164 0 164 169 0 169"></polygon>
        <polygon id="path-3" points="0 768 873 768 873 0 0 0"></polygon>
    </defs>
    <g id="页面-1" stroke="none" stroke-width="1" fill="none" fill-rule="evenodd">
        <g id="28.中国第一汽车集团有限公司" transform="translate(-75.000000, 0.000000)">
            <g id="中国第一汽车集团有限公司" transform="translate(75.000000, 0.000000)">
                <path d="M129.709396,725.26673 L129.709396,725.26673 L129.709396,636.833176 L84.9261154,636.833176 L84.9261154,725.26673 L129.709396,725.26673 Z M158.292903,636.833176 L158.292903,636.833176 L158.292903,725.26673 L203.073885,725.26673 L203.073885,636.833176 L158.292903,636.833176 Z M62,616.376639 L129.709396,616.376639 L129.709396,598 L158.292903,598 L158.292903,616.376639 L226,616.376639 L226,732.784237 C226,739.901852 220.177093,745.71867 213.059952,745.71867 L158.292903,745.71867 L158.292903,768 L129.709396,768 L129.709396,745.71867 L62,745.71867 L62,616.376639 Z" id="Fill-1" fill="#005BAB"></path>
                <g id="编组" transform="translate(261.000000, 599.000000)">
                    <mask id="mask-2" fill="white">
                        <use xlink:href="#path-1"></use>
                    </mask>
                    <g id="Clip-4"></g>
                    <path d="M139.458106,19.7920057 L139.458106,19.7920057 L30.5954241,19.7920057 C28.1474234,19.7920057 26.5773107,20.3018104 25.9217599,21.2843429 C25.2272429,22.3016349 24.9155124,24.0419224 24.9155124,26.586311 L24.9155124,149.1109 L139.458106,149.1109 L139.458106,19.7920057 Z M164,169.000232 L0,169.000232 L0,21.8567145 C0,18.3436972 0.343820319,15.0994859 1.03146096,12.1843304 C1.7580679,9.26222304 3.26170876,6.5 5.55613635,3.90000535 C7.84139541,1.29768449 14.839285,0 26.549805,0 L164,0 L164,169.000232 Z" id="Fill-3" fill="#005BAB" mask="url(#mask-2)"></path>
                </g>
                <polygon id="Fill-5" fill="#005BAB" points="295 671.227198 328.580292 671.227198 328.580292 649.864562 295 649.864562 295 630 391.410532 630 391.410532 649.864562 352.460429 649.864562 352.460429 671.227198 390.778113 671.227198 390.778113 690.903921 352.460429 690.903921 352.460429 719.221241 365.982694 719.320958 371.791749 706.965321 386.51446 706.965321 387.181375 719.320958 394 719.320958 394 739 295 738.900283 295 719.221241 328.580292 719.221241 328.580292 690.903921 295 690.903921"></polygon>
                <path d="M460,669 L618,669 L618,690.602732 C618,691.923164 616.904843,693 615.567599,693 L460,693 L460,669 Z" id="Fill-7" fill="#005BAB"></path>
                <path d="M637,601 L663.60975,601 L690,654.080768 L670.034685,653.924174 L689.544996,691.050775 L666.957118,765 L638.083779,765 L659.151165,693.595428 L637,647.853853 L659.260915,647.853853 C659.260915,647.853853 637,603.236071 637,601" id="Fill-9" fill="#005BAB"></path>
                <mask id="mask-4" fill="white">
                    <use xlink:href="#path-3"></use>
                </mask>
                <g id="Clip-12"></g>
                <polygon id="Fill-11" fill="#005BAB" mask="url(#mask-4)" points="696 658 812 658 812 640 696 640"></polygon>
                <path d="M696.253575,673 L810.824264,673 L810.824264,691.88701 L744.368645,746.22494 L812,746.22494 L812,764 L697.403902,764 L697.403902,746.21802 L765.571152,690.159104 L696.253575,690.159104 C696.253575,690.159104 695.683031,673.569817 696.253575,673" id="Fill-13" fill="#005BAB" mask="url(#mask-4)"></path>
                <polygon id="Fill-14" fill="#005BAB" mask="url(#mask-4)" points="719.580371 597 696 626 810 626 810 609.268068 741.939411 609.268068 745.967057 597"></polygon>
                <path d="M436.5,498.546359 L436.5,498.546359 C207.545465,498.546359 21.9042246,391.790109 21.9042246,260.236375 C21.9042246,128.675723 207.545465,21.9056362 436.5,21.9056362 C665.459141,21.9056362 851.577111,128.675723 851.577111,260.236375 C851.577111,391.790109 665.459141,498.546359 436.5,498.546359 M436.5,0 C195.643348,0 0,116.285052 0,260.236375 C0,403.6965 195.643348,520 436.5,520 C677.833382,520 873,403.6965 873,260.236375 C873,116.285052 677.833382,0 436.5,0" id="Fill-15" fill="#005BAB" mask="url(#mask-4)"></path>
                <path d="M738.466658,221.85451 L738.466658,221.85451 C715.164475,221.85451 507.828424,219.956111 507.828424,219.956111 L507.828424,152.816381 L545.873931,153.758668 L545.399973,178.993088 L774.600226,181.849902 C774.600226,181.849902 759.861504,221.85451 738.466658,221.85451 L738.466658,221.85451 Z M699.468632,288.521944 L699.468632,288.521944 C675.697092,288.521944 506.399647,287.08893 506.399647,287.08893 L507.349864,247.08893 L735.611404,249.478056 C735.611404,249.478056 721.34894,288.521944 699.468632,288.521944 L699.468632,288.521944 Z M644.783967,382.789886 L644.783967,382.789886 C622.903659,382.322198 578.208931,382.322198 578.208931,382.322198 L537.793632,354.714779 L505.932591,354.226356 L506.399647,315.182467 L543.971196,315.657067 L590.097002,342.806013 L681.400697,343.762124 C681.400697,343.762124 664.280679,383.278309 644.783967,382.789886 L644.783967,382.789886 Z M504.503813,417.562378 L504.503813,417.562378 L371.823098,416.603963 L371.823098,392.800253 C371.823098,392.800253 399.409312,392.327958 404.638958,362.806013 C406.067736,327.091234 407.96587,172.327958 407.013351,168.998848 C406.546295,166.13973 403.210181,156.62009 394.653623,150.897247 C384.185127,144.236724 375.159212,143.766732 375.159212,143.766732 L375.159212,126.135123 L441.251087,97.5692893 L471.216295,97.5692893 L474.543207,103.292132 C474.543207,103.292132 471.685652,368.528856 472.161911,369.938832 C472.161911,372.327958 474.069248,380.416887 485.007101,388.040433 C494.516178,394.698652 504.975471,394.230964 504.975471,394.230964 L504.503813,417.562378 Z M371.349139,346.135123 L371.349139,346.135123 L308.581875,379.949199 C308.581875,379.949199 246.760226,378.043889 228.689991,378.043889 C210.622056,378.043889 193.973696,337.555466 193.973696,337.555466 L299.072799,339.4746 L371.349139,300.430711 L371.349139,346.135123 Z M141.670326,242.799101 L141.670326,242.799101 L372.301658,245.658219 L372.301658,285.190531 C372.301658,285.190531 195.402473,282.799101 176.851377,282.799101 C158.307183,282.799101 141.670326,242.799101 141.670326,242.799101 L141.670326,242.799101 Z M138.345716,215.663979 L138.345716,215.663979 C119.318361,215.663979 104.098777,174.700956 104.098777,174.700956 L373.256477,177.576201 L373.256477,218.050801 C373.256477,218.050801 155.935091,215.193987 138.345716,215.663979 L138.345716,215.663979 Z M435.552083,39 C213.47731,39 38,134.226356 38,258.511577 C38,382.789886 216.327962,479 438.398134,479 C660.477509,479 835,383.752909 835,259.467688 C835,135.675498 657.617654,39 435.552083,39 L435.552083,39 Z" id="Fill-16" fill="#005BAB" mask="url(#mask-4)"></path>
            </g>
        </g>
    </g>
</svg>