<?xml version="1.0" encoding="UTF-8"?>
<svg width="765px" height="768px" viewBox="0 0 765 768" version="1.1" xmlns="http://www.w3.org/2000/svg" xmlns:xlink="http://www.w3.org/1999/xlink">
    <title>中国华电集团有限公司@2x</title>
    <defs>
        <polygon id="path-1" points="0 768 765 768 765 0 0 0"></polygon>
    </defs>
    <g id="页面-1" stroke="none" stroke-width="1" fill="none" fill-rule="evenodd">
        <g id="19.中国华电集团有限公司" transform="translate(-130.000000, 0.000000)">
            <g id="中国华电集团有限公司" transform="translate(130.000000, 0.000000)">
                <path d="M266.231592,669.919483 C277.696091,669.919483 288.943994,675.613608 295.453163,683.671369 L297.929886,683.671369 C299.34435,678.459733 300.408493,673.370127 302,668.293662 C291.767271,663.513826 277.696091,661 266.067733,661 C227.670043,661 196,678.733832 196,717.6803 C196,748.309927 224.519048,768 262.193497,768 C274.017733,768 286.512473,766.205215 297.076688,761.586834 L300.918905,748.730463 L298.63806,747.842457 C290.712544,754.268765 278.061478,759.056111 267.122459,759.056111 C240.019758,759.056111 225.232871,741.162701 225.232871,715.611415 C225.232871,693.660964 237.038273,669.919483 266.231592,669.919483" id="Fill-1" fill="#003D85"></path>
                <path d="M402.522034,664 L402.522034,704.693269 C393.509022,704.995344 384.501677,705.454121 375.5,705.454121 C366.507768,705.454121 357.498535,704.995344 348.46852,704.693269 L348.46852,664 C344.070639,664.330394 339.661423,664.757075 335.248429,664.757075 C330.837323,664.757075 326.411105,664.330394 322,664 L322,767 C326.411105,766.703589 330.837323,766.239149 335.248429,766.239149 C339.661423,766.239149 344.070639,766.703589 348.46852,767 L348.46852,716.710188 C357.498535,716.411889 366.507768,715.949336 375.5,715.949336 C384.501677,715.949336 393.509022,716.411889 402.522034,716.710188 L402.522034,767 C406.936917,766.703589 411.346133,766.239149 415.759128,766.239149 C420.157009,766.239149 424.59834,766.703589 429,767 L429,664 C424.59834,664.330394 420.157009,664.757075 415.759128,664.757075 C411.346133,664.757075 406.936917,664.330394 402.522034,664" id="Fill-3" fill="#003D85"></path>
                <path d="M496.605826,756.314941 L481.557152,756.314941 L481.557152,671.688826 L498.890861,671.688826 C523.83694,671.688826 539.589867,682.811202 539.589867,710.94582 C539.589867,745.994959 521.018035,756.314941 496.605826,756.314941 M515.531677,663 L455,663 L455,765 L504.568428,765 C540.822309,765 569,744.94582 569,711.111573 C569,686.561354 553.400418,664.224309 515.531677,663" id="Fill-5" fill="#003D85"></path>
                <mask id="mask-2" fill="white">
                    <use xlink:href="#path-1"></use>
                </mask>
                <g id="Clip-8"></g>
                <path d="M93.0233418,485.677995 L135.85632,485.677995 L135.85632,454.169426 L93.0233418,454.169426 L93.0233418,485.677995 Z M25.2769966,485.677995 L67.1603922,485.677995 L67.1603922,454.169426 L25.2769966,454.169426 L25.2769966,485.677995 Z M162,432.078653 L141.365409,432.853968 L93.0233418,432.853968 L93.0233418,421.790529 L93.7769792,400 L66.4086389,400 L67.1603922,421.790529 L67.1603922,432.853968 L19.9883465,432.853968 L0,432.078653 L0.580300757,449.918496 L0.580300757,489.261926 L0,510.427262 L25.7310631,510.427262 L25.2769966,507.592042 L67.1603922,507.592042 L67.1603922,543.351541 L66.4086389,564 L93.7769792,564 L93.0233418,543.351541 L93.0233418,507.592042 L135.85632,507.592042 L135.55675,510.583085 L162,510.583085 L161.321726,489.261926 L161.321726,449.918496 L162,432.078653 Z" id="Fill-7" fill="#003D85" mask="url(#mask-2)"></path>
                <path d="M290.07425,489.085738 L303.175212,489.085738 C299.548563,492.389398 295.976777,494.962277 292.490124,496.921754 C299.054794,502.005035 303.110889,505.450686 304.684897,507.232201 C306.194581,509.028861 307.534001,510.670279 308.716398,512.160238 L290.07425,512.160238 L290.07425,489.085738 Z M315.258366,529.663008 L333,530 L333,511.673682 L318.762045,512.160238 C321.906276,509.028861 324.859431,506.139816 327.632862,503.576403 L322.973271,499.32235 L316.331037,493.538579 C315.207286,492.62037 313.688142,491.179634 311.794415,489.085738 L326.066423,489.774869 L326.066423,470.82379 L313.795977,471.138064 L290.07425,471.138064 L290.07425,454.316852 L314.961348,454.316852 L331.556529,455.096856 L331.556529,436 L313.795977,436.352138 L242.897546,436.352138 L226.495331,436 L226.495331,454.810981 L242.897546,454.316852 L267.421411,454.316852 L267.421411,471.138064 L247.820102,471.138064 L231.414104,470.82379 L231.414104,489.464381 L247.820102,489.085738 L267.421411,489.085738 L267.421411,512.160238 L240.869498,512.160238 L224,511.673682 L224,530 L240.670855,529.663008 L315.258366,529.663008 Z" id="Fill-9" fill="#003D85" mask="url(#mask-2)"></path>
                <path d="M222.031768,540.108102 L337.481979,540.108102 L337.481979,427.217059 L222.031768,427.217059 L222.031768,540.108102 Z M361,408 L342.096657,408.581651 L218.092546,408.581651 L199,408 L199.558151,426.420818 L199.558151,540.989048 L199,560.761404 L222.031768,560.761404 L222.031768,558.449861 L337.481979,558.449861 L337.481979,562 L361,562 L360.341571,542.231409 L360.341571,426.420818 L361,408 Z" id="Fill-10" fill="#003D85" mask="url(#mask-2)"></path>
                <polygon id="Fill-11" fill="#003D85" mask="url(#mask-2)" points="487.058236 505.571757 487.552393 493 461.445387 493 461.958478 505.571757 408.364236 505.571757 387 504.87249 387 526.921938 408.364236 526.288463 461.958478 526.288463 461.958478 545.649871 461.151923 565 487.832604 565 487.058236 545.649871 487.058236 526.288463 538.331266 526.288463 561 526.921938 561 504.87249 538.331266 505.571757"></polygon>
                <path d="M541.837565,455.858093 C540.735039,462.351855 539.215544,466.701165 537.277202,468.779547 C535.303174,470.861704 533.173251,472.243516 530.82921,472.866464 C528.415674,473.50829 525.04987,473.778234 520.660427,473.734816 C515.474611,473.734816 511.708744,473.53283 509.360946,473.145847 C506.983096,472.760752 505.305829,472.032091 504.312241,470.912672 C503.367487,469.853661 502.84158,468.266087 502.84158,466.244337 L502.84158,456.618844 C515.85965,452.418664 526.497992,448.035374 534.78478,443.538821 C543.04715,438.932781 547.722085,436.412672 548.817098,435.891661 C549.910233,435.374425 551.978174,434.406024 555.024676,433.001559 L548.441451,427.512065 C545.704858,425.333634 541.62908,420.925804 536.283614,414.245158 L528.595984,420.786113 C527.01263,422.135834 523.996179,424.063198 519.550389,426.619173 C515.100842,429.150607 509.535622,431.614084 502.84158,434.079448 L502.84158,416.168746 L503.29987,403 L478.98044,403 L479.470661,416.168746 L479.470661,441.975788 L470.738731,444.752626 C469.414573,445.269862 466.163342,445.921126 461.009456,446.691316 C455.838666,447.453956 451.864313,447.780532 449,447.76543 L452.626878,452.730138 C454.110687,454.717909 456.497927,460.152659 459.824288,469.024951 C465.913536,467.660128 472.447927,466.066891 479.470661,464.184833 L479.470661,477.912344 C479.470661,482.244665 480.218199,485.300886 481.713277,487.043253 C483.236528,488.853578 486.758225,490.552528 492.345984,492.198621 C497.922474,493.801297 511.434521,494.76781 532.827655,495 C537.408679,495 541.153886,494.688526 543.961852,494.095781 C546.813018,493.459619 549.335492,492.289232 551.5875,490.595946 C553.822604,488.853578 555.939378,486.244747 557.956606,482.744911 C559.964443,479.231861 561.429469,476.079366 562.327267,473.262886 C563.241969,470.446405 564.087176,467.388296 565,464.184833 C557.359326,462.293336 552.273057,460.786934 549.759974,459.71282 C547.252526,458.672685 544.62487,457.379596 541.837565,455.858093" id="Fill-12" fill="#003D85" mask="url(#mask-2)"></path>
                <path d="M398.254968,458.608764 L417.326939,446.145161 L417.326939,476.78744 L416.727615,495 L440.638993,495 L440.241311,476.78744 L440.241311,447.270857 L440.638993,433.468843 L432.942991,433.468843 C442.192383,425.248249 447.63485,420.412273 449.303998,418.861146 C450.965677,417.334491 453.532878,414.800734 457,411.267403 C448.721476,407.092162 441.348474,402.681616 434.754035,398 C431.258907,403.261406 425.86125,409.979817 418.572265,418.215471 C411.313154,426.466184 399.778485,433.158241 384,438.353762 L389.589964,444.127191 C392.082483,446.540472 394.967084,451.365154 398.254968,458.608764" id="Fill-13" fill="#003D85" mask="url(#mask-2)"></path>
                <path d="M617.915952,462.353492 L654.093784,462.353492 L654.093784,442.289817 L617.915952,442.289817 L617.915952,462.353492 Z M617.915952,500.729176 L654.093784,500.729176 L654.093784,481.02909 L617.915952,481.02909 L617.915952,500.729176 Z M677.126337,500.729176 L718.415803,500.729176 L718.415803,481.02909 L677.126337,481.02909 L677.126337,500.729176 Z M677.126337,462.355385 L718.415803,462.355385 L718.415803,442.29171 L677.126337,442.29171 L677.126337,462.355385 Z M742.084479,525.447548 L740.938703,532.306503 C740.300692,536.832428 738.777395,539.972171 736.349935,541.678388 C733.926251,543.416798 730.847568,544.509459 726.932675,544.840855 C723.119714,545.270723 716.713183,545.335109 707.837666,545.056736 L687.036262,544.679891 C682.511673,544.509459 679.761433,543.799324 678.698712,542.5457 C677.617114,541.328055 677.126337,539.972171 677.126337,538.400406 L677.126337,519.98235 L718.415803,519.98235 L718.415803,523.146711 L742.278902,523.146711 L741.693744,505.921681 L741.693744,437.477943 L742.278902,422.106839 L726.853396,422.695778 L677.126337,422.695778 L677.126337,412.835319 L677.583137,399 L653.621883,399 L654.093784,412.835319 L654.093784,422.695778 L611.93602,422.695778 L594,422.106839 L594.62291,437.477943 L594.62291,504.603671 L594,522.548304 L617.915952,522.548304 L617.915952,519.98235 L654.093784,519.98235 L654.093784,545.270723 C654.093784,549.23801 654.556247,552.476224 655.454747,554.885002 C656.323045,557.301354 658.582508,559.467738 662.201046,561.399305 C665.755406,563.319509 671.248336,564.281505 678.566579,564.315592 C685.935788,564.366721 695.439878,564.455725 707.150578,564.669712 C719.302977,565.056026 728.278538,565.086325 734.156539,564.849613 C740.006226,564.537154 744.428884,563.872468 747.324469,562.794956 C750.274796,561.717445 752.960857,559.93548 755.480809,557.392251 C757.972448,554.803573 761.164387,547.562092 765,535.614784 C758.33298,533.620726 750.682518,530.210185 742.084479,525.447548 L742.084479,525.447548 Z" id="Fill-14" fill="#003D85" mask="url(#mask-2)"></path>
                <path d="M307.194483,227.457299 C305.062675,226.597643 303.858563,226.020121 303.858563,226.020121 C304.388675,225.605442 304.905535,225.154785 305.414821,224.624601 C339.766084,187.411364 344.158441,124.717105 371.572809,102.23541 C380.501411,94.9018288 389.738614,91.1848602 398.684256,89.6075628 C403.718427,79.1705119 409.178582,68.7467156 415.189674,58.4573587 C420.850514,48.6300194 428.898751,39.984233 437,31.1490952 C437,31.1490952 422.719159,21.0964277 400.863395,12.2556094 C364.616981,-2.44942283 309.695476,-11.1539082 259.961496,29.5812654 C199.612022,79.0474334 189.924223,216.874447 114.368105,298.655331 C113.347639,299.808481 112.135954,300.813937 111,301.82318 C111,301.82318 113.697892,303.065325 118.272002,304.922863 C138.580975,313.29977 190.768616,331.64035 228.885568,324.304876 C284.198978,313.633029 314.017783,280.157589 336.678181,236.008409 C324.623811,234.075131 313.035182,229.899932 307.194483,227.457299" id="Fill-15" fill="#00ABE9" mask="url(#mask-2)"></path>
                <path d="M457.818635,98.5303259 C459.91117,99.4223556 461.117456,99.9337102 461.117456,99.9337102 C460.615626,100.376884 460.081603,100.778392 459.587348,101.371185 C425.269765,138.531514 420.82147,201.297452 393.33824,223.745919 C384.44165,231.079123 375.215556,234.838527 366.318966,236.34797 C361.232495,246.851572 355.824095,257.264267 349.79835,267.546283 C344.134301,277.40217 336.086088,285.97967 328,294.909437 C328,294.909437 342.227348,304.928199 364.112809,313.831451 C400.354389,328.405058 455.315167,337.156797 505.005786,296.451076 C565.4242,246.965207 575.059332,109.060443 650.648156,27.323249 C651.69537,26.1300883 652.8581,25.1509389 654,24.1452748 C654,24.1452748 651.373442,22.9161298 646.756608,21.0544202 C626.410723,12.660629 574.281022,-5.62882104 536.128702,1.69301946 C480.863038,12.3026807 450.961557,45.7661054 428.269381,89.9698709 C440.409875,91.9357453 451.993622,96.1458983 457.818635,98.5303259" id="Fill-16" fill="#003D85" mask="url(#mask-2)"></path>
                <path d="M287.318549,618.755804 L282.128117,618.755804 L282.128117,592.540915 L287.318549,592.540915 C294.979567,592.410002 298.777086,596.735828 298.650624,605.516498 C298.841233,614.625399 295.041881,619.082139 287.318549,618.755804 M287.635619,589.000567 L277,589.000567 L277,621.966023 L287.762081,621.966023 C299.03001,622.491573 304.475197,616.919225 303.967517,605.321077 C304.095812,594.375597 298.586477,588.936059 287.635619,589.000567" id="Fill-17" fill="#003D85" mask="url(#mask-2)"></path>
                <path d="M15.3077369,592.536557 C19.7633785,592.60103 22.541844,594.959998 23.7684075,599.5433 L29,599.5433 C27.126499,592.733769 22.541844,589.195317 15.1787234,589 C5.55506125,589.652319 0.51792392,595.352528 0,606.09304 C0.51792392,616.903715 5.55506125,622.533762 15.1787234,622.994557 C21.3788524,623.1254 25.9635074,620.897275 28.8691167,616.312077 L28.8691167,611.465193 C25.5764668,617.032662 21.4424242,619.848633 16.5343005,619.848633 C9.42920696,619.325261 5.68407479,614.806433 5.42604771,606.22578 C5.68407479,597.578757 9.04216634,593.059929 15.3077369,592.536557" id="Fill-18" fill="#003D85" mask="url(#mask-2)"></path>
                <polygon id="Fill-19" fill="#003D85" mask="url(#mask-2)" points="56.7773454 603.237007 40.1581319 603.237007 40.1581319 589 35 589 35 622 40.1581319 622 40.1581319 606.712691 56.7773454 606.712691 56.7773454 622 62 622 62 589 56.7773454 589"></polygon>
                <polygon id="Fill-20" fill="#003D85" mask="url(#mask-2)" points="310 622 315 622 315 589 310 589"></polygon>
                <path d="M330.470527,609.666072 L336.501918,594.052086 L342.399023,609.666072 L330.470527,609.666072 Z M333.254098,589 L320,622 L325.699512,622 L329.277293,613.143655 L343.78985,613.143655 L347.170038,622 L353,622 L339.74782,589 L333.254098,589 Z" id="Fill-21" fill="#003D85" mask="url(#mask-2)"></path>
                <path d="M229.873461,609.567286 C230.063203,616.468505 227.290058,619.850928 221.491997,619.783702 C215.883677,619.783702 213.110532,616.334053 213.110532,609.567286 L213.110532,589 L208.005757,589 L208.005757,608.30728 C207.81784,618.325861 212.229329,623.235273 221.366111,622.97021 C230.81852,623.43503 235.355895,618.458392 234.978236,608.172828 L234.978236,589 L229.873461,589 L229.873461,609.567286 Z" id="Fill-22" fill="#003D85" mask="url(#mask-2)"></path>
                <polygon id="Fill-23" fill="#003D85" mask="url(#mask-2)" points="195.777345 603.237007 179.222655 603.237007 179.222655 589 174 589 174 622 179.222655 622 179.222655 606.712691 195.777345 606.712691 195.777345 622 201 622 201 589 195.777345 589"></polygon>
                <path d="M123.470527,609.666072 L129.5,594.052086 L135.397105,609.666072 L123.470527,609.666072 Z M126.254098,589 L113,622 L118.699512,622 L122.277293,613.143655 L136.722707,613.143655 L140.16812,622 L146,622 L132.745902,589 L126.254098,589 Z" id="Fill-24" fill="#003D85" mask="url(#mask-2)"></path>
                <path d="M249.470527,609.666072 L255.5,594.052086 L261.33188,609.666072 L249.470527,609.666072 Z M252.254098,589 L239,622 L244.699512,622 L248.277293,613.143655 L262.722707,613.143655 L266.170038,622 L272,622 L258.74782,589 L252.254098,589 Z" id="Fill-25" fill="#003D85" mask="url(#mask-2)"></path>
                <polygon id="Fill-26" fill="#003D85" mask="url(#mask-2)" points="69 622 74 622 74 589 69 589"></polygon>
                <polygon id="Fill-27" fill="#003D85" mask="url(#mask-2)" points="102.941962 614.651683 86.1843515 589 81 589 81 622 86.1843515 622 86.1843515 596.938993 103.132348 622 108 622 108 589 102.941962 589"></polygon>
                <path d="M593.367142,604.876086 L593.367142,592.542158 L602.204352,592.542158 C607.048425,592.542158 609.536793,594.640863 609.536793,598.973122 C609.733891,603.039482 607.309959,605.007137 602.204352,604.876086 L593.367142,604.876086 Z M615.036597,598.775597 C615.036597,592.280058 611.174226,589 603.447589,589 L588,589 L588,622 L593.367142,622 L593.367142,608.418245 L600.371716,608.418245 L610.713698,622 L617,622 L606.131159,608.287194 C612.154032,607.829468 615.101033,604.678561 615.036597,598.775597 L615.036597,598.775597 Z" id="Fill-28" fill="#003D85" mask="url(#mask-2)"></path>
                <polygon id="Fill-29" fill="#003D85" mask="url(#mask-2)" points="759.99232 589 759.99232 614.651683 743.196683 589 738 589 738 622 743.196683 622 743.196683 596.938993 760.118934 622 765 622 765 589"></polygon>
                <path d="M714.533913,619.855469 C707.571143,619.332013 703.891127,614.812462 703.623701,606.228538 C704.02484,597.712891 707.706794,593.126959 714.667626,592.539019 C721.494744,592.931612 725.108873,597.517543 725.444125,606.228538 C725.176699,615.007809 721.56257,619.527361 714.533913,619.855469 M714.667626,589 C704.090728,589.525353 698.534852,595.289061 698,606.228538 C698.602678,616.841803 704.090728,622.41206 714.533913,623 C724.977098,622.541028 730.531035,616.908183 731,606.228538 C730.329497,595.355442 724.841447,589.65432 714.667626,589" id="Fill-30" fill="#003D85" mask="url(#mask-2)"></path>
                <polygon id="Fill-31" fill="#003D85" mask="url(#mask-2)" points="688 622 693 622 693 589 688 589"></polygon>
                <polygon id="Fill-32" fill="#003D85" mask="url(#mask-2)" points="378.99232 614.651683 362.196683 589 357 589 357 622 362.196683 622 362.196683 596.938993 379.183159 622 384 622 384 589 378.99232 589"></polygon>
                <path d="M463.500967,619.855469 C456.552072,619.332013 452.879388,614.812462 452.610561,606.228538 C453.012835,597.712891 456.687452,593.126959 463.63248,592.539019 C470.515619,592.931612 474.054856,597.517543 474.389439,606.228538 C474.188302,615.007809 470.515619,619.527361 463.500967,619.855469 M463.63248,589 C453.078591,589.525353 447.533787,595.289061 447,606.228538 C447.601477,616.841803 453.146281,622.41206 463.500967,623 C473.989099,622.541028 479.466213,616.908183 480,606.228538 C479.265076,595.355442 473.787962,589.65432 463.63248,589" id="Fill-33" fill="#003D85" mask="url(#mask-2)"></path>
                <path d="M429.307737,592.536557 C433.699807,592.60103 436.541844,594.959998 437.702966,599.5433 L443,599.5433 C441.061057,592.733769 436.476402,589.195317 429.178723,589 C419.555061,589.652319 414.454352,595.352528 414,606.09304 C414.454352,616.903715 419.555061,622.533762 429.178723,622.994557 C435.378852,623.1254 439.963507,620.897275 442.870986,616.312077 L442.870986,611.465193 C439.512895,617.032662 435.442424,619.848633 430.5343,619.848633 C423.365635,619.325261 419.685945,614.806433 419.362476,606.22578 C419.685945,597.578757 422.978594,593.059929 429.307737,592.536557" id="Fill-34" fill="#003D85" mask="url(#mask-2)"></path>
                <path d="M491.380993,604.876086 L491.380993,592.542158 L500.171404,592.542158 C505.092743,592.542158 507.520173,594.640863 507.520173,598.973122 C507.71771,603.039482 505.288381,605.007137 500.171404,604.876086 L491.380993,604.876086 Z M513.030325,598.775597 C513.030325,592.280058 509.159353,589 501.417409,589 L486,589 L486,622 L491.380993,622 L491.380993,608.418245 L498.399266,608.418245 L508.766178,622 L515,622 L504.173435,608.287194 C510.20972,607.829468 513.163283,604.678561 513.030325,598.775597 L513.030325,598.775597 Z" id="Fill-35" fill="#003D85" mask="url(#mask-2)"></path>
                <path d="M628.470527,609.666072 L634.5,594.052086 L640.33188,609.666072 L628.470527,609.666072 Z M631.25218,589 L618,622 L623.699512,622 L627.212068,613.143655 L641.722707,613.143655 L645.102895,622 L651,622 L637.74782,589 L631.25218,589 Z" id="Fill-36" fill="#003D85" mask="url(#mask-2)"></path>
                <polygon id="Fill-37" fill="#003D85" mask="url(#mask-2)" points="655 592.542158 665.851745 592.542158 665.851745 622 671.022587 622 671.022587 592.542158 682 592.542158 682 589 655 589"></polygon>
                <path d="M532.167066,606.254964 L524.386177,606.254964 L524.386177,592.542158 L532.167066,592.542158 C537.087391,592.413007 539.547553,594.642763 539.414728,599.235223 C539.613004,604.023309 537.220217,606.386014 532.167066,606.254964 M533.362497,589 L519,589 L519,622 L524.386177,622 L524.386177,609.797122 L533.231597,609.797122 C541.208837,609.861698 545.064631,606.452489 544.999181,599.430849 C544.866355,592.608633 541.010561,589.13105 533.362497,589" id="Fill-38" fill="#003D85" mask="url(#mask-2)"></path>
                <path d="M565.499033,619.855469 C558.552072,619.332013 554.945144,614.812462 554.610561,606.228538 C555.010901,597.712891 558.753209,593.126959 565.70017,592.539019 C572.513685,592.931612 576.054856,597.517543 576.387505,606.228538 C576.186368,615.007809 572.579441,619.527361 565.499033,619.855469 M565.70017,589 C555.076657,589.525353 549.533787,595.289061 549,606.228538 C549.665299,616.841803 555.144347,622.41206 565.499033,623 C575.987165,622.541028 581.466213,616.908183 582,606.228538 C581.263142,595.355442 575.853719,589.65432 565.70017,589" id="Fill-39" fill="#003D85" mask="url(#mask-2)"></path>
            </g>
        </g>
    </g>
</svg>