<?xml version="1.0" encoding="UTF-8"?>
<svg width="938px" height="762px" viewBox="0 0 938 762" version="1.1" xmlns="http://www.w3.org/2000/svg" xmlns:xlink="http://www.w3.org/1999/xlink">
    <title>中国铁道建筑集团有限公司@2x</title>
    <defs>
        <polygon id="path-1" points="0 0 783.937 0 783.937 517.5539 0 517.5539"></polygon>
        <polygon id="path-3" points="1.13686838e-13 0 235.2098 0 235.2098 188.672 1.13686838e-13 188.672"></polygon>
    </defs>
    <g id="页面-1" stroke="none" stroke-width="1" fill="none" fill-rule="evenodd">
        <g id="73.中国铁道建筑集团有限公司" transform="translate(-43.000000, -3.000000)">
            <g id="中国铁道建筑集团有限公司" transform="translate(43.000000, 3.000000)">
                <g id="编组" transform="translate(91.175300, 0.000000)">
                    <mask id="mask-2" fill="white">
                        <use xlink:href="#path-1"></use>
                    </mask>
                    <g id="Clip-2"></g>
                    <path d="M622.616,385.5609 C637.237,388.1889 651.801,391.1699 666.255,394.6009 C679.397,397.7199 692.467,401.2119 705.369,405.2139 C738.427,374.9769 764.65,336.8529 773.782,292.4339 C776.072,281.2919 777.234,269.9559 777.234,258.5819 C777.234,256.4029 777.127,254.2279 777.033,252.0529 L740.647,252.0529 L740.647,245.3769 L776.631,245.3769 C776.077,238.3099 775.074,231.2819 773.637,224.3389 C764.471,180.0669 738.364,142.0839 705.391,111.9419 C692.486,115.9559 679.415,119.4659 666.27,122.5979 C651.823,126.0409 637.263,129.0289 622.644,131.6499 C629.092,142.8449 634.696,154.5169 639.386,166.5549 L639.613,167.1369 L633.338,169.5289 L633.115,168.9539 C628.717,157.5919 623.45,146.5829 617.419,135.9969 C616.823,134.9519 616.235,133.9029 615.634,132.8619 C600.124,135.5299 584.554,137.8479 568.935,139.7709 C559.636,140.9149 550.323,141.9449 541.003,142.9029 C534.509,143.5699 528.008,144.1609 521.506,144.7409 C523.516,152.1429 525.308,159.6029 526.882,167.1099 L527.012,167.7249 L520.46,168.9979 L520.334,168.4019 C518.694,160.6469 516.816,152.9439 514.71,145.3029 C511.708,145.5299 508.706,145.7579 505.708,146.0279 L505.695,146.0289 C494.118,146.8389 482.534,147.5489 470.941,148.1029 C459.387,148.6549 447.828,149.1019 436.263,149.3519 C424.448,149.6069 412.631,149.7409 400.813,149.7409 L395.821,149.7409 L395.821,162.3929 L389.09,162.3929 L389.09,149.7339 C375.485,149.5909 361.879,149.3279 348.283,148.8259 C336.562,148.3929 324.843,147.8789 313.137,147.1609 C301.717,146.4609 290.306,145.6199 278.907,144.6359 C275.818,144.3699 272.731,144.0709 269.642,143.8119 C268.141,149.1199 266.791,154.4699 265.554,159.8459 L265.415,160.4499 L258.87,158.9439 L259.011,158.3379 C260.197,153.2489 261.477,148.1789 262.876,143.1439 C256.589,142.5179 250.305,141.8459 244.028,141.1219 C237.209,140.3349 230.397,139.4919 223.593,138.5899 C205.679,136.2139 187.814,133.3839 170.071,129.9559 C169.829,130.3499 169.588,130.7429 169.347,131.1249 C162.927,141.8759 157.301,153.0879 152.565,164.6809 L152.332,165.2519 L146.095,162.7429 L146.331,162.1659 C151.082,150.5859 156.686,139.3659 163.066,128.5979 C148.883,125.7889 134.762,122.6109 120.775,118.9459 C108.162,115.6399 95.631,111.9349 83.309,107.6649 C48.221,138.4139 20.038,177.7339 10.346,224.0179 C8.871,231.0649 7.843,238.1999 7.278,245.3769 L41.237,245.3769 L41.237,252.0529 L6.877,252.0529 C6.79,254.2279 6.724,256.4039 6.724,258.5819 C6.724,270.0669 7.907,281.5129 10.238,292.7589 C19.864,339.1879 48.111,378.6599 83.309,409.4719 C95.639,405.2199 108.175,401.5269 120.789,398.2229 C134.783,394.5589 148.908,391.3709 163.093,388.5389 C154.248,373.6929 146.924,357.9869 141.282,341.6499 L141.078,341.0579 L147.439,338.9329 L147.64,339.5119 C153.25,355.7049 160.519,371.3389 169.338,386.0179 C169.589,386.4139 169.854,386.8009 170.1,387.1999 C187.833,383.7879 205.697,381.0079 223.591,378.5869 C236.671,376.8169 249.791,375.3399 262.925,374.0389 C259.635,362.2279 256.922,350.2559 254.764,338.1869 L254.654,337.5739 L261.268,336.4279 L261.376,337.0349 C263.563,349.2659 266.314,361.4019 269.67,373.3659 C284.448,372.0049 299.246,370.8469 314.061,369.9679 C339.042,368.4849 364.066,367.6699 389.09,367.4749 L389.09,337.9909 L395.821,337.9909 L395.821,367.4159 L400.813,367.4159 C424.215,367.4159 447.617,367.9729 470.991,369.1009 C485.578,369.8049 500.157,370.6949 514.712,371.8779 C517.637,361.3579 520.045,350.6929 522.058,339.9629 L522.172,339.3549 L528.754,340.5689 L528.64,341.1799 C526.676,351.6969 524.31,362.1489 521.486,372.4699 C530.353,373.2549 539.224,374.0179 548.075,374.9769 C555.035,375.7309 561.988,376.5519 568.935,377.4129 C584.546,379.3459 600.101,381.6799 615.611,384.2969 C616.224,383.2709 616.841,382.2469 617.413,381.1969 L617.419,381.1859 C625.312,367.3559 631.87,352.7739 636.971,337.6889 L637.168,337.1049 L643.502,339.2069 L643.303,339.7979 C637.933,355.6979 630.994,371.0219 622.616,385.5609 L622.616,385.5609 Z M264.729,380.5229 C251.289,381.8479 237.868,383.3849 224.48,385.1629 C207.566,387.4099 190.717,390.1199 173.942,393.2419 C191.831,420.8649 214.949,444.8689 241.877,463.8049 C242.729,464.4039 243.589,464.9919 244.449,465.5799 C247.911,467.9449 251.456,470.1859 255.018,472.3959 C268.377,464.8089 282.767,458.8389 297.403,454.1969 C290.104,442.7739 283.795,430.7139 278.392,418.2859 C273.051,406.0029 268.539,393.3619 264.729,380.5229 L264.729,380.5229 Z M304.065,452.2309 C307.345,451.2739 310.632,450.3419 313.948,449.5159 C338.446,443.4129 363.854,440.4149 389.09,440.1649 L389.09,374.0779 C364.093,374.3429 339.088,375.1019 314.136,376.6209 C299.924,377.4859 285.727,378.5769 271.548,379.8719 C273.9,387.8119 276.568,395.6539 279.539,403.3839 C286.068,420.3729 294.136,436.9569 304.065,452.2309 L304.065,452.2309 Z M389.09,510.8349 L389.09,446.8219 C363.979,447.1129 338.604,450.0409 314.262,456.2259 C312.161,456.8039 310.062,457.3929 307.964,457.9819 C309.283,459.8729 310.636,461.7409 312.033,463.5739 C312.576,464.2859 313.11,465.0049 313.662,465.7099 C323.429,478.1769 335.081,489.6839 348.63,498.0039 C360.981,505.5879 374.587,510.2549 389.09,510.8349 L389.09,510.8349 Z M301.218,459.9629 C287.591,464.1859 274.158,469.5139 261.608,476.3289 C267.371,479.6209 273.236,482.7409 279.227,485.5989 C290.267,490.8659 301.679,495.3349 313.359,498.9699 C324.837,502.5419 336.554,505.3299 348.408,507.3259 C349.946,507.5859 351.487,507.8249 353.031,508.0449 C351.328,507.2039 349.647,506.3159 347.998,505.3719 C334.483,497.6379 322.735,486.9229 312.702,475.0869 C310.624,472.6349 308.63,470.1099 306.685,467.5509 C304.798,465.0689 303.004,462.5179 301.218,459.9629 L301.218,459.9629 Z M311.802,505.4249 C300.489,501.9469 289.433,497.6769 278.699,492.6889 C270.58,488.9159 262.672,484.6969 254.977,480.1209 C249.754,483.2659 244.654,486.6669 239.835,490.4069 C240.341,490.5579 240.847,490.7069 241.354,490.8529 C242.731,491.1939 244.095,491.5859 245.437,491.9849 C250.289,493.2719 255.157,494.4989 260.016,495.6889 C261.004,495.9019 261.986,496.1479 262.976,496.3569 L262.992,496.3599 C267.953,497.5459 272.938,498.6289 277.917,499.6539 C278.848,499.8189 279.776,500.0019 280.704,500.1809 C285.658,501.1319 290.612,502.0889 295.57,502.9459 C296.067,503.0209 296.569,503.0679 297.067,503.1349 L297.077,503.1369 L297.088,503.1389 C301.987,503.9729 306.898,504.7379 311.802,505.4249 L311.802,505.4249 Z M395.821,446.8199 L395.821,510.7769 C410.217,509.9779 423.703,505.2469 435.922,497.6169 C449.291,489.2689 460.794,477.9049 470.427,465.4879 L471.221,464.4889 C472.943,462.2239 474.62,459.9249 476.27,457.6079 C474.457,457.0719 472.643,456.5409 470.81,456.0799 C446.392,449.9349 420.986,447.0169 395.821,446.8199 L395.821,446.8199 Z M512.835,378.3879 C498.882,377.2899 484.912,376.4219 470.932,375.7549 C447.577,374.6409 424.196,374.0509 400.813,374.0509 L395.821,374.0509 L395.821,440.1639 C421.091,440.3689 446.561,443.3059 471.11,449.3449 C474.153,450.0939 477.187,450.8799 480.192,451.7709 C490.308,436.1159 498.498,419.1249 505.072,401.7029 C507.964,394.0379 510.525,386.2479 512.835,378.3879 L512.835,378.3879 Z M519.639,378.9769 C515.908,391.7999 511.489,404.4469 506.222,416.7219 C500.73,429.5189 494.329,441.9639 486.835,453.7089 C501.653,458.3259 516.202,464.2769 529.749,471.8729 C533.413,469.5999 537.043,467.2699 540.586,464.8119 C541.348,464.2829 542.134,463.7869 542.879,463.2339 L542.89,463.2259 C570.417,443.7179 593.967,418.9659 611.904,390.3929 C597.348,387.9149 582.727,385.8049 568.078,383.9559 C561.375,383.1099 554.66,382.3619 547.942,381.6459 C538.52,380.6399 529.078,379.8149 519.639,378.9769 L519.639,378.9769 Z M523.18,475.8349 C510.421,469.0629 496.868,463.6779 483.061,459.4659 C480.971,462.5259 478.815,465.5439 476.57,468.4929 C474.9,470.6859 473.161,472.8259 471.386,474.9349 C461.501,486.6809 449.886,497.2879 436.561,505.0089 C434.715,506.0779 432.836,507.0939 430.925,508.0429 C432.669,507.7839 434.408,507.4949 436.147,507.2039 C447.845,505.2399 459.41,502.4779 470.726,498.9229 C482.584,495.1969 494.185,490.6649 505.383,485.2659 C511.432,482.3489 517.372,479.2079 523.18,475.8349 L523.18,475.8349 Z M545.383,490.0599 C540.448,486.2399 535.205,482.7929 529.838,479.6159 C522.09,484.2739 514.103,488.5249 505.915,492.3539 C495.01,497.4539 483.773,501.8429 472.271,505.3999 C473.586,505.1969 474.9,504.9879 476.217,504.7999 C480.292,504.2199 484.368,503.6269 488.428,502.9469 C494.132,501.9919 499.81,500.8899 505.48,499.7519 L505.541,499.7399 L505.612,499.7399 C510.098,498.8399 514.562,497.8399 519.016,496.7959 C521.696,496.1679 524.386,495.5739 527.05,494.8759 L527.063,494.8729 C530.062,494.1579 533.04,493.3589 536.024,492.5839 C539.073,491.7929 542.125,491.0039 545.147,490.1139 L545.171,490.1069 L545.195,490.1019 C545.258,490.0879 545.32,490.0739 545.383,490.0599 L545.383,490.0599 Z M553.183,487.7799 C553.653,487.6319 554.119,487.4689 554.591,487.3259 C558.276,486.2049 561.954,485.0559 565.608,483.8379 C566.461,483.5539 567.312,483.2629 568.15,483.0019 C570.413,482.2099 572.681,481.4329 574.937,480.6229 C575.913,480.2729 576.889,479.9239 577.875,479.6059 C580.142,478.7449 582.418,477.9069 584.673,477.0149 L584.687,477.0099 L584.701,477.0049 C585.603,476.6979 586.497,476.3679 587.373,476.0359 C589.655,475.1029 591.949,474.1979 594.242,473.2909 C595.078,472.9609 595.911,472.6219 596.741,472.2779 C599.056,471.3229 601.349,470.3169 603.657,469.3469 C604.422,469.0259 605.174,468.6759 605.929,468.3619 C608.277,467.3329 610.611,466.2739 612.936,465.1949 L612.949,465.1899 L612.961,465.1839 C613.606,464.9189 614.233,464.6129 614.868,464.3259 C616.768,463.4699 618.639,462.5509 620.514,461.6399 C622.602,460.6249 624.67,459.5699 626.748,458.5619 C628.295,457.7749 629.845,456.9979 631.379,456.1859 C634.492,454.5369 637.606,452.8879 640.69,451.1849 C642.209,450.3449 643.704,449.4629 645.209,448.6209 C647.119,447.5019 649.051,446.4179 650.938,445.2579 L650.947,445.2529 L650.957,445.2469 C652.493,444.3759 653.995,443.4439 655.498,442.5169 C657.836,441.0739 660.175,439.6319 662.442,438.0789 L662.451,438.0729 L662.459,438.0679 C670.809,432.7459 678.9,427.0149 686.724,420.9459 L686.891,420.8159 L686.918,420.8159 C691.22,417.4479 695.444,413.9789 699.566,410.3939 C687.169,406.6289 674.619,403.3369 662.003,400.3939 C647.754,397.0689 633.398,394.1879 618.989,391.6509 C618.82,391.9329 618.658,392.2209 618.484,392.5009 C599.979,422.4089 575.512,448.3259 546.788,468.6239 C544.971,469.9079 543.131,471.1599 541.285,472.4039 C539.624,473.5229 537.929,474.5899 536.237,475.6619 C540.398,478.2559 544.469,481.0039 548.382,483.9589 C550.014,485.1919 551.607,486.4759 553.183,487.7799 L553.183,487.7799 Z M101.865,424.5039 C102.035,424.6089 102.198,424.7169 102.353,424.8429 C104.482,426.4499 106.659,427.9919 108.825,429.5469 C109.121,429.7599 109.409,429.9829 109.693,430.1909 C111.824,431.6849 113.975,433.1499 116.119,434.6259 C116.39,434.7929 116.659,434.9629 116.93,435.1289 L116.947,435.1399 L116.963,435.1509 C118.37,436.1459 119.828,437.0619 121.293,437.9679 L121.306,437.9759 C123.684,439.5299 126.078,441.0589 128.469,442.5569 C129.576,443.2039 130.66,443.8899 131.774,444.5249 L131.789,444.5339 C135.003,446.4859 138.262,448.3639 141.545,450.1969 L141.554,450.2019 L141.563,450.2069 C142.83,450.9709 144.139,451.6619 145.443,452.3609 C148.178,453.8259 150.913,455.2919 153.658,456.7379 C154.641,457.2549 155.621,457.7749 156.58,458.2929 C160.134,460.0609 163.704,461.7949 167.295,463.4849 C169.038,464.3049 170.794,465.0949 172.533,465.9209 C173.447,466.3549 174.382,466.7449 175.314,467.1369 L175.33,467.1439 C177.319,468.0479 179.312,468.9429 181.329,469.7829 L181.339,469.7869 L181.348,469.7909 C182.35,470.2479 183.376,470.6539 184.392,471.0789 C186.364,471.9039 188.329,472.7469 190.319,473.5299 L190.329,473.5339 L190.339,473.5379 C191.412,474.0029 192.498,474.4369 193.593,474.8499 C195.561,475.5919 197.516,476.3699 199.483,477.1139 L199.496,477.1199 C200.655,477.5889 201.832,478.0079 202.984,478.4549 C204.921,479.1549 206.86,479.8479 208.796,480.5489 C210.043,481.0009 211.298,481.4289 212.549,481.8699 C214.425,482.5319 216.316,483.1479 218.206,483.7689 C219.482,484.1889 220.75,484.6349 222.03,485.0429 C224.829,485.9359 227.638,486.8009 230.448,487.6599 L230.46,487.6639 L230.471,487.6679 C230.989,487.8479 231.52,487.9939 232.047,488.1449 C237.267,483.7769 242.859,479.8399 248.637,476.2449 C247.002,475.2219 245.372,474.1889 243.759,473.1309 C241.813,471.8539 239.91,470.5129 238.003,469.1779 C210.385,449.8339 186.626,425.2929 168.294,396.9859 C167.778,396.1889 167.291,395.3729 166.785,394.5689 C152.82,397.2999 138.914,400.3829 125.133,403.9309 C113.041,407.0439 101.024,410.5169 89.186,414.4919 C93.344,417.9149 97.574,421.2499 101.865,424.5039 L101.865,424.5039 Z M89.179,102.6629 C101.016,106.6369 113.032,110.1109 125.122,113.2249 C138.899,116.7729 152.8,119.8569 166.762,122.5869 C167.269,121.7789 167.776,120.9709 168.294,120.1709 C187.887,89.9039 213.664,63.9209 243.758,44.0539 L243.985,43.9039 C245.496,42.9059 247.006,41.9069 248.533,40.9339 C246.935,39.9149 245.345,38.8839 243.76,37.8459 L243.748,37.8379 C239.723,35.0699 235.794,32.1479 232.048,29.0119 C228.215,30.1389 224.404,31.3379 220.605,32.5759 C203.052,38.2969 185.808,45.0149 169.077,52.8269 C140.643,66.1009 113.345,82.5779 89.179,102.6629 L89.179,102.6629 Z M239.827,26.7429 C241.344,27.9229 242.893,29.0639 244.459,30.1789 C247.851,32.5949 251.329,34.8909 254.899,37.0349 C262.618,32.4629 270.556,28.2589 278.7,24.4939 C289.396,19.5479 300.397,15.2709 311.652,11.7799 L311.63,11.7829 L311.303,11.8299 C310.111,12.0039 308.914,12.1419 307.722,12.3149 L307.678,12.3209 L307.629,12.3209 C298.075,13.7429 288.554,15.3939 279.082,17.2879 C267.383,19.6289 255.776,22.4109 244.261,25.5319 C242.783,25.9329 241.303,26.3319 239.827,26.7429 L239.827,26.7429 Z M261.575,40.8869 C267.306,43.9579 273.216,46.7129 279.202,49.2449 C286.379,52.2819 293.727,54.9239 301.166,57.2469 C304.497,52.4279 308,47.7189 311.738,43.2069 L311.746,43.1979 C312.062,42.8299 312.387,42.4689 312.69,42.0899 L312.701,42.0769 C322.717,30.2219 334.463,19.5139 347.999,11.8109 C349.643,10.8749 351.313,9.9819 353.007,9.1379 C351.472,9.3599 349.939,9.5969 348.409,9.8569 C336.559,11.8689 324.834,14.6219 313.359,18.2069 C301.679,21.8549 290.277,26.3749 279.226,31.6259 C273.223,34.4779 267.32,37.5439 261.575,40.8869 L261.575,40.8869 Z M173.84,123.9439 C190.639,127.1149 207.538,129.7799 224.481,132.0479 C231.034,132.9249 237.599,133.7119 244.169,134.4539 C251.016,135.2279 257.866,135.9849 264.728,136.6159 C268.543,123.8069 273.053,111.1729 278.392,98.9169 C283.803,86.4949 290.067,74.4149 297.354,62.9859 C291.065,60.9839 284.83,58.7919 278.724,56.2829 C270.588,52.9389 262.609,49.1409 254.966,44.7799 C252.516,46.2899 250.105,47.8599 247.7,49.4409 C246.609,50.1579 245.527,50.8879 244.449,51.6239 C216.384,70.7829 192.279,95.4059 173.84,123.9439 L173.84,123.9439 Z M304.012,65.0039 C294.078,80.2299 286.038,96.8209 279.539,113.7789 C276.576,121.5109 273.916,129.3609 271.547,137.2949 C274.032,137.5519 276.523,137.7549 279.012,137.9649 C290.404,138.9279 301.8,139.8279 313.212,140.5149 C324.909,141.2189 336.617,141.7519 348.328,142.1719 C361.91,142.6589 375.499,142.9549 389.09,143.0799 L389.09,77.0369 C375.431,76.8559 361.771,75.9149 348.225,74.1539 C336.377,72.6129 324.611,70.3879 313.023,67.4759 C310.003,66.7169 306.995,65.8989 304.012,65.0039 L304.012,65.0039 Z M389.09,6.3269 C374.589,6.8809 360.976,11.5869 348.629,19.1599 C336.523,26.5849 325.951,36.5499 316.905,47.4429 C315.804,48.7689 314.723,50.1119 313.663,51.4729 C311.686,54.0109 309.772,56.5989 307.916,59.2279 C309.714,59.7389 311.519,60.2219 313.329,60.6889 C324.858,63.6599 336.587,65.8899 348.387,67.4609 C361.873,69.2569 375.486,70.1999 389.09,70.3419 L389.09,6.3269 Z M512.883,138.7899 C510.552,130.9329 507.965,123.1489 505.072,115.4809 C498.506,98.0799 490.345,81.0509 480.218,65.4269 C477.179,66.2889 474.127,67.0999 471.061,67.8589 C459.626,70.6879 448.01,72.7949 436.329,74.2969 C422.902,76.0239 409.358,76.9239 395.821,77.0389 L395.821,143.0849 L400.813,143.0849 C412.621,143.0849 424.43,142.9659 436.235,142.6759 C447.788,142.3929 459.339,142.0039 470.882,141.4489 C482.465,140.8919 494.042,140.2049 505.606,139.3359 C508.031,139.1529 510.458,138.9829 512.883,138.7899 L512.883,138.7899 Z M476.317,59.6179 C474.436,56.9059 472.456,54.2649 470.424,51.6639 L470.412,51.6499 C470.01,51.1019 469.572,50.5839 469.148,50.0529 C459.787,38.3129 448.707,27.5339 435.922,19.5669 C423.714,11.9579 410.221,7.1109 395.821,6.3819 L395.821,70.3639 C409.306,70.2689 422.798,69.3899 436.169,67.6319 C447.804,66.1019 459.383,63.9679 470.759,61.0769 C472.616,60.6049 474.465,60.1079 476.317,59.6179 L476.317,59.6179 Z M430.99,9.1529 C432.879,10.0909 434.738,11.0889 436.561,12.1479 C449.893,19.8899 461.508,30.4949 471.379,42.2599 C472.415,43.4469 473.424,44.6589 474.408,45.8889 C477.456,49.7019 480.343,53.6439 483.081,57.6849 C490.639,55.3879 498.118,52.7789 505.414,49.7489 C511.481,47.2289 517.437,44.4379 523.233,41.3429 C517.414,37.9619 511.457,34.8199 505.385,31.9179 C494.167,26.5569 482.583,21.9719 470.725,18.2329 C459.413,14.6659 447.838,11.9569 436.146,9.9729 C434.43,9.6819 432.711,9.4089 430.99,9.1529 L430.99,9.1529 Z M472.2,11.7569 C483.713,15.3349 494.993,19.6739 505.915,24.7819 C514.136,28.6259 522.164,32.8839 529.939,37.5679 C533.581,35.4199 537.122,33.1089 540.583,30.6809 C542.219,29.5339 543.822,28.3389 545.404,27.1179 C543.869,26.6789 542.342,26.2039 540.791,25.8219 L540.775,25.8179 C533.354,23.7839 525.895,21.8859 518.394,20.1699 L518.374,20.1649 L517.935,20.0329 L517.485,19.9879 L515.346,19.5349 L515.296,19.4869 L514.333,19.2819 L513.217,19.0189 L512.066,18.8009 L510.94,18.5359 L509.659,18.2699 L509.632,18.2499 L507.878,17.8919 L507.528,17.8439 L506.388,17.6029 L505.822,17.5059 L505.516,17.4289 L504.432,17.2139 L503.692,17.0689 L503.428,17.0139 L503.38,17.0139 L501.068,16.5449 L499.053,16.1389 L497.005,15.7859 L496.806,15.7859 L496.756,15.7379 L496.577,15.7379 L496.555,15.7109 L496.521,15.7109 L494.468,15.3199 L492.275,14.9289 L492.263,14.9259 C491.264,14.7089 490.246,14.5899 489.246,14.3769 L487.695,14.1149 C486.782,14.0009 485.882,13.8039 484.97,13.6869 L484.942,13.6829 L484.555,13.5969 L484.549,13.5969 L483.081,13.3449 C482.049,13.2009 481.021,13.0299 480.006,12.8679 L478.414,12.6489 L478.407,12.6469 C477.368,12.4789 476.326,12.3159 475.28,12.1939 L473.852,12.0009 L473.412,11.9259 L472.2,11.7569 Z M611.926,126.7649 C593.482,97.4189 569.111,72.0469 540.587,52.3449 C539.789,51.7939 538.982,51.2569 538.181,50.7099 C535.438,48.8389 532.637,47.0499 529.819,45.2909 C522.114,49.6259 514.082,53.4109 505.884,56.7139 C499.649,59.2259 493.306,61.4639 486.89,63.4679 C494.354,75.1989 500.752,87.6389 506.222,100.4149 C511.489,112.7179 515.919,125.3889 519.688,138.2289 C526.756,137.6259 533.818,136.9469 540.879,136.2539 C549.961,135.3619 559.024,134.2869 568.079,133.1519 C582.732,131.3159 597.369,129.2629 611.926,126.7649 L611.926,126.7649 Z M699.565,106.7879 C675.045,85.4549 647.01,68.0379 617.692,54.1279 C601.209,46.3069 584.21,39.5529 566.908,33.7749 C562.358,32.2549 557.791,30.7849 553.205,29.3759 C549.387,32.5409 545.401,35.5069 541.285,38.2719 C539.645,39.3729 537.988,40.4519 536.3,41.4789 C537.967,42.5589 539.622,43.6549 541.272,44.7439 L541.954,45.1779 L541.961,45.1829 C572.727,65.9799 599.057,93.0109 618.485,124.6849 L619.018,125.5529 C633.416,122.9829 647.763,120.0829 662.006,116.7569 C674.618,113.8109 687.165,110.5299 699.565,106.7879 L699.565,106.7879 Z M314.045,512.4299 C313.937,512.4249 313.858,512.4019 313.75,512.3839 L313.729,512.3839 L313.687,512.3779 C313.479,512.3499 313.285,512.3459 313.079,512.3029 C312.562,512.2549 312.053,512.1819 311.542,512.0899 C306.72,511.4169 301.905,510.6959 297.103,509.8999 C296.502,509.7999 295.9,509.7049 295.299,509.6069 C290.317,508.7909 285.354,507.8679 280.398,506.9089 C279.884,506.8099 279.366,506.7369 278.853,506.6249 C278.456,506.5709 278.081,506.4519 277.694,506.3529 C272.578,505.3509 267.484,504.2459 262.403,503.0779 L262.388,503.0749 C261.554,502.8609 260.709,502.6909 259.882,502.4459 C254.895,501.2789 249.92,500.0569 244.97,498.7419 C244.625,498.6499 244.281,498.5549 243.938,498.4549 C242.877,498.1929 241.824,497.9009 240.771,497.6079 C239.753,497.3239 238.729,497.0579 237.712,496.7679 L237.701,496.7639 L236.521,496.3749 C236.015,496.2299 235.501,496.1189 234.997,495.9669 C234.371,495.7779 233.74,495.6099 233.117,495.4129 L231.867,495.1019 L230.858,494.7559 L230.693,494.6919 L223.035,492.4209 L223.299,492.4209 C222.66,492.2159 222.022,492.0079 221.382,491.8029 C220.43,491.4989 219.469,491.2229 218.518,490.9159 C217.966,490.7379 217.428,490.5209 216.895,490.3379 C214.846,489.6909 212.811,489.0049 210.793,488.2659 C209.536,487.8689 208.294,487.4259 207.051,486.9889 C204.996,486.2679 202.954,485.5119 200.907,484.7699 L200.894,484.7649 C199.721,484.3109 198.533,483.8979 197.388,483.4229 C195.284,482.6249 193.17,481.8519 191.093,481.0149 C190.023,480.6069 188.958,480.1869 187.897,479.7549 C185.659,478.8419 183.432,477.9029 181.205,476.9619 C180.352,476.6019 179.496,476.2489 178.634,475.9109 L178.621,475.9059 L178.609,475.9009 C176.06,474.7719 173.515,473.6329 170.965,472.5039 L170.951,472.4979 C170.492,472.2809 170.017,472.0959 169.553,471.8899 C169.208,471.7589 168.881,471.5899 168.553,471.4219 C167.866,471.1329 167.21,470.7609 166.514,470.4979 L166.487,470.4879 L166.462,470.4759 C163.278,468.9269 160.08,467.4039 156.909,465.8279 C155.606,465.1809 154.296,464.5499 153.021,463.8769 C149.351,462.0369 145.713,460.1309 142.138,458.1509 C140.868,457.4959 139.65,456.7479 138.392,456.0719 L138.38,456.0659 C135.749,454.5769 133.114,453.0939 130.523,451.5349 C129.211,450.7469 127.886,449.9799 126.582,449.1789 C123.299,447.1619 120.02,445.1359 116.792,443.0309 L116.783,443.0259 L116.775,443.0199 C116.318,442.6999 115.83,442.4219 115.363,442.1169 C105.709,435.7889 96.389,428.9619 87.442,421.6689 C87.391,421.6319 87.353,421.5939 87.299,421.5489 L87.275,421.5339 L87.243,421.5079 C84.06,418.9299 80.956,416.2559 77.857,413.5759 L76.41,412.3239 L76.437,412.2899 C41.561,381.0899 13.796,341.5269 3.884,295.2049 C1.307,283.1639 0,270.8959 0,258.5819 C0,246.2669 1.307,233.9989 3.883,221.9569 C13.718,175.9899 41.131,136.6709 75.66,105.6099 L75.652,105.6099 L77.703,103.7549 C89.535,93.2809 102.163,83.7229 115.362,75.0399 C132.292,63.9029 150.138,54.1549 168.556,45.7129 C183.861,38.6979 199.579,32.5739 215.538,27.2859 L216.454,26.9459 L216.468,26.9419 C217.377,26.6529 218.283,26.3579 219.181,26.0349 L219.216,26.0229 L219.333,25.9959 L219.574,25.9059 L220.871,25.5389 L221.038,25.4409 L221.179,25.4219 L221.254,25.3749 L223.302,24.7349 L222.863,24.7349 L230.327,22.6109 C231.118,22.3289 231.922,22.0809 232.732,21.8599 L232.763,21.8519 L232.995,21.8129 L233.19,21.6879 L233.299,21.6879 L233.304,21.6859 L233.547,21.6489 L233.677,21.5239 L233.892,21.5239 L233.938,21.5119 L234.003,21.4489 L234.037,21.4489 L234.087,21.3809 L234.314,21.3809 L234.364,21.3539 L234.425,21.3539 L234.509,21.3299 C235.118,21.1559 235.723,20.9639 236.34,20.8179 L236.411,20.8009 L236.418,20.8009 L236.489,20.7739 L236.54,20.7739 L236.871,20.6599 L237.727,20.4119 L238.057,20.3359 C239.093,20.0479 240.12,19.7329 241.162,19.4699 L241.237,19.4509 L241.306,19.4509 L243.007,18.9669 L243.936,18.7289 L245.7,18.2479 L247.181,17.8109 L247.207,17.8059 C248.102,17.6219 248.98,17.3659 249.873,17.1769 L250.041,17.0869 L251.883,16.6339 C252.784,16.3959 253.689,16.1759 254.59,15.9379 L254.606,15.9339 L256.119,15.5759 C256.952,15.3579 257.793,15.1699 258.625,14.9489 L258.642,14.9449 L261.014,14.3899 C261.838,14.2149 262.661,14.0299 263.487,13.8379 L265.103,13.4789 C266.009,13.2599 266.924,13.0729 267.825,12.8349 L267.844,12.8299 L270.13,12.3719 L272.323,11.8849 L274.448,11.4569 L276.861,10.9429 L278.831,10.5629 L279.356,10.4399 L281.482,10.0279 L283.789,9.5969 L285.95,9.2119 C286.84,9.0239 287.734,8.8579 288.63,8.7029 L290.389,8.3999 C291.361,8.2039 292.341,8.0559 293.318,7.8849 L295.088,7.5749 L295.104,7.5729 C296.094,7.4519 297.07,7.2309 298.053,7.0659 L299.772,6.7769 L299.786,6.7749 C300.733,6.6599 301.678,6.5179 302.62,6.3689 L304.611,6.0539 C305.609,5.9109 306.607,5.7659 307.588,5.6459 L309.253,5.3889 C310.226,5.2189 311.207,5.1189 312.171,4.9779 L313.089,4.8259 L314.128,4.7079 C315.158,4.5909 316.188,4.4649 317.212,4.3029 L318.741,4.0799 L318.764,4.0779 C319.814,4.0029 320.856,3.8419 321.907,3.7659 L323.702,3.5279 C324.764,3.4039 325.826,3.2879 326.89,3.1929 L328.416,2.9959 C329.473,2.8789 330.529,2.7559 331.59,2.6809 C340.228,1.7259 348.895,1.1049 357.576,0.7119 C369.038,0.1929 380.514,0.0659 391.987,0.0109 C403.661,-0.0451 415.338,0.0989 427,0.6619 C437.155,1.1519 447.289,1.9629 457.382,3.1939 C458.294,3.3059 459.208,3.4059 460.103,3.5279 L462.286,3.7669 L465.052,4.0819 L467.043,4.3689 C467.926,4.4969 468.814,4.5869 469.689,4.7089 L470.982,4.8719 L471.897,4.9759 L474.358,5.3579 L476.589,5.6719 L479.174,6.0339 L481.096,6.3229 L481.811,6.4439 L483.226,6.6599 L483.965,6.7569 L486.367,7.1859 L488.559,7.5019 L490.949,7.8899 L491.234,7.9739 L491.368,8.0109 L492.146,8.1299 L492.158,8.1329 C493.383,8.3709 494.612,8.5839 495.844,8.7769 L496.29,8.8549 L497.565,9.1139 L497.659,9.1309 L497.86,9.1309 L498.692,9.3489 L498.741,9.3489 L500.048,9.5969 L500.312,9.6439 L501.641,9.8659 L501.847,9.9149 C503.085,10.1519 504.319,10.4129 505.551,10.6789 L505.73,10.6979 L506.196,10.7679 L506.275,10.7679 L506.471,10.8309 L506.765,10.8779 L506.937,10.9299 L509.099,11.3889 L509.116,11.3889 L509.169,11.3979 C510.153,11.5699 511.128,11.7879 512.108,11.9799 L512.127,11.9839 L513.699,12.3429 C514.621,12.5329 515.538,12.7489 516.464,12.9199 L516.48,12.9229 L518.267,13.3529 C519.227,13.5419 520.174,13.7869 521.133,13.9789 L521.144,13.9809 L522.561,14.3179 C523.723,14.5939 524.887,14.8539 526.041,15.1359 L526.982,15.3569 C528.132,15.6479 529.28,15.9459 530.433,16.2209 L531.443,16.4619 L531.451,16.4639 C532.634,16.7779 533.823,17.0689 535.014,17.3789 L535.624,17.5449 C536.9,17.8579 538.17,18.1979 539.421,18.5569 L540.064,18.7269 L541.111,18.9969 L541.127,19.0019 C542.019,19.2859 542.927,19.5179 543.838,19.7329 L543.851,19.7359 L544.462,19.9089 C545.79,20.2709 547.114,20.6509 548.435,21.0369 L548.562,21.0639 L548.708,21.1209 C550.041,21.5169 551.375,21.9079 552.712,22.2919 L552.732,22.2979 L552.896,22.3579 L553.049,22.3779 L553.421,22.5179 L562.179,25.1439 L561.96,25.1439 C581.144,31.2759 599.972,38.5599 618.22,47.0859 C635.621,55.2169 652.538,64.4919 668.596,75.0399 C683.581,84.8829 697.864,95.8779 711.024,108.0599 L712.342,109.1899 L712.302,109.2569 C744.863,139.7039 770.519,177.6749 780.005,221.7259 C782.614,233.8419 783.937,246.1869 783.937,258.5819 C783.937,270.6819 782.674,282.7379 780.183,294.5779 C770.919,338.6249 745.483,376.6779 713.082,407.2149 L713.171,407.2149 L709.524,410.4619 C696.782,422.1029 683.035,432.6459 668.606,442.1099 C667.635,442.8029 666.586,443.3659 665.591,444.0189 C663.717,445.2499 661.818,446.4429 659.904,447.6109 C658.306,448.5859 656.723,449.5849 655.121,450.5529 C651.972,452.4549 648.785,454.2939 645.577,456.0939 C644.073,456.9369 642.55,457.7439 641.039,458.5729 C638.777,459.8139 636.501,461.0279 634.215,462.1899 C632.661,463.0279 631.086,463.8269 629.512,464.6259 C626.239,466.2869 622.932,467.8799 619.609,469.4379 C619.154,469.6719 618.696,469.8999 618.241,470.1349 L618.23,470.1409 L618.219,470.1459 C608.84,474.5129 599.325,478.5879 589.653,482.2639 L587.948,482.9119 C585.261,483.9329 582.574,484.9599 579.866,485.9239 C578.903,486.2669 577.945,486.6249 576.988,486.9409 C574.623,487.7819 572.261,488.6289 569.879,489.4209 L569.864,489.4249 L569.849,489.4299 C569.591,489.5009 569.337,489.6169 569.082,489.7049 C568.302,489.9729 567.508,490.1939 566.727,490.4569 C565.139,490.9909 563.545,491.5069 561.948,492.0119 L562.103,492.0119 L553.397,494.6729 C552.811,494.8439 552.229,495.0309 551.644,495.2039 L551.613,495.2129 L551.581,495.2189 C551.341,495.2639 551.107,495.3529 550.864,495.4029 C549.967,495.6679 549.078,495.9549 548.18,496.2149 C546.66,496.6539 545.136,497.0839 543.607,497.4929 L543.596,497.4959 C542.768,497.7019 541.942,497.9169 541.13,498.1799 C540.903,498.2539 540.679,498.2629 540.464,498.3269 L540.448,498.3319 C535.26,499.7439 530.049,501.0739 524.81,502.2869 C524.035,502.4659 523.276,502.6959 522.488,502.8169 C518.073,503.8809 513.634,504.8439 509.189,505.7749 L509.126,505.7879 L509.098,505.7879 L506.764,506.2769 L506.404,506.3679 L506.216,506.3679 L504.168,506.8129 L503.242,506.9839 L501.629,507.2989 L500.37,507.5289 L500.091,507.6279 L498.729,507.8339 L498.678,507.8339 L497.711,508.0439 L497.558,508.0639 L496.281,508.2819 L495.042,508.4979 L493.764,508.7699 L493.498,508.7919 L491.376,509.1699 L491.188,509.2229 L491.14,509.2279 C490.564,509.2969 489.991,509.3879 489.42,509.4889 L489.409,509.4909 L489.398,509.4929 C488.577,509.6069 487.765,509.7789 486.957,509.8989 C481.669,510.7949 476.36,511.5629 471.045,512.2829 C465.847,512.9869 460.635,513.5829 455.424,514.1809 L455.413,514.1819 C453.844,514.3329 452.275,514.4759 450.71,514.6639 L450.698,514.6659 L450.685,514.6669 C448.539,514.8369 446.402,515.1029 444.26,515.3139 L444.248,515.3149 L442.978,515.3889 C440.925,515.5799 438.865,515.7029 436.812,515.8939 L436.783,515.8969 L436.754,515.8969 C436.608,515.8969 436.462,515.9119 436.315,515.9159 C436.182,515.9389 436.053,515.9439 435.918,515.9439 C435.686,515.9709 435.455,515.9909 435.222,515.9919 L433.958,516.0849 C432.666,516.2089 431.369,516.2559 430.089,516.3239 L428.79,516.4259 L428.251,516.4749 L426.355,516.5699 L426.18,516.5899 L424.856,516.6669 L423.88,516.7139 L422.147,516.8099 L421.082,516.8579 L420.935,516.8579 L419.663,516.9539 L419.25,516.9539 L418.266,517.0009 L416.421,517.0969 L414.967,517.1449 L413.154,517.1919 L412.184,517.2469 L411.78,517.2469 L410.472,517.2949 L409.331,517.2939 L407.329,517.3629 L406.544,517.3899 L403.897,517.4379 L403.891,517.4379 L401.248,517.5059 L400.699,517.5059 L398.057,517.5339 L397.813,517.5339 L395.052,517.5539 L388.985,517.5539 C388.082,517.5539 387.18,517.5339 386.278,517.5339 L385.994,517.5339 L383.443,517.5059 L383.085,517.5059 L381.042,517.4379 L380.104,517.4379 L378.066,517.3899 L376.864,517.3629 L374.929,517.3149 L374.56,517.2949 L374.215,517.2949 L372.119,517.2469 L371.212,517.2469 L370.987,517.1909 L369.725,517.1719 L369.447,517.1439 L368.436,517.1239 L367.093,517.0469 L366.755,517.0009 L364.843,516.9529 L364.166,516.9049 L361.957,516.8369 L360.648,516.7139 L359.374,516.6659 L358.088,516.5919 C356.139,516.5239 354.197,516.3269 352.248,516.2579 L352.236,516.2569 L352.225,516.2559 C350.904,516.1619 349.582,516.0669 348.26,515.9699 L348.2,515.9659 L348.141,515.9499 C348.107,515.9409 348.022,515.9439 347.986,515.9439 L347.962,515.9439 L347.937,515.9419 C342.713,515.5349 337.492,515.0769 332.293,514.5439 C331.089,514.4479 329.889,514.3049 328.684,514.2099 L328.674,514.2089 L328.663,514.2079 C323.786,513.6569 318.907,513.1079 314.045,512.4299 L314.045,512.4299 Z" id="Fill-1" fill="#004098" mask="url(#mask-2)"></path>
                </g>
                <path d="M0,696.6154 L0.725,672.4834 L0.725,627.2884 L0,606.8604 L25.867,607.7054 L86.971,607.7054 L86.971,595.0464 L86.971,570.0484 L120.454,570.0484 L120.454,595.0464 L120.454,607.7054 L183.029,607.7054 L209.798,606.8604 L208.924,627.2884 L208.924,672.4834 L209.798,696.9294 L175.939,696.9294 L175.939,693.5124 L120.454,693.5124 L120.454,734.5394 L120.454,758.1934 L86.971,758.1934 L86.971,734.5394 L86.971,693.5124 L32.708,693.5124 L32.708,696.6154 L0,696.6154 Z M32.708,668.3434 L86.971,668.3434 L86.971,632.2474 L32.708,632.2474 L32.708,668.3434 Z M120.426,668.3434 L175.939,668.3434 L175.939,632.2474 L120.426,632.2474 L120.426,668.3434 Z" id="Fill-3" fill="#231916"></path>
                <path d="M241.0498,577.6464 L265.6808,577.6464 L425.6058,577.6464 L449.9668,577.6464 L449.9668,599.0634 L449.9668,733.1134 L449.9668,756.0934 L419.6168,756.0934 L419.6168,751.9324 L270.7958,751.9324 L270.7958,754.6544 L241.0498,754.6544 L241.0498,731.6954 L241.0498,599.0634 L241.0498,577.6464 Z M270.7958,730.6854 L419.6168,730.6854 L419.6168,599.8824 L270.7958,599.8824 L270.7958,730.6854 Z M274.8808,698.5394 L296.6838,698.5394 L330.8978,698.5394 L330.8978,672.1624 L305.6348,672.1624 L284.4788,672.1624 L284.4788,651.3524 L305.6348,651.3524 L330.8978,651.3524 L330.8978,632.8274 L299.2908,632.8274 L278.1128,632.8274 L278.1128,611.3144 L299.2908,611.3144 L390.7448,611.3144 L413.6498,611.3144 L413.6498,632.8274 L392.2508,632.8274 L360.1468,632.8274 L360.1468,651.3524 L390.7448,651.3524 L406.5588,651.3524 L406.5588,672.1624 L388.1378,672.1624 C390.6168,674.5024 408.5418,688.6484 408.5418,688.6484 L397.1108,698.5394 L415.5038,698.5394 L415.5038,719.1584 L392.6278,719.1584 L296.4348,719.1584 L274.8808,719.1584 L274.8808,698.5394 Z M384.1518,698.5394 C382.6528,696.9024 363.2508,680.9754 363.2508,680.9754 L377.0618,672.1624 L360.1468,672.1624 L360.1468,698.5394 L384.1518,698.5394 Z" id="Fill-5" fill="#231916"></path>
                <path d="M522.8144,575.225 C509.2804,572.169 499.0294,569.38 492.0594,566.951 L490.5604,576.071 C489.6584,582.23 486.4474,590.961 480.9134,602.27 C475.4214,613.558 470.7114,620.631 466.7964,623.469 C462.9174,626.259 459.7064,628.475 457.2274,629.921 L461.4614,637.015 C462.5414,638.795 465.0204,644.504 468.9064,654.081 C472.4874,651.987 475.9754,649.627 479.3574,646.98 L479.3574,652.56 L490.5604,652.15 L499.2774,652.15 L499.2774,669.96 L486.8524,669.96 L464.4454,669.523 L464.4454,691.95 L484.0954,691.568 L499.2774,691.568 L499.2774,723.524 C499.2774,725.931 498.7524,727.807 497.7294,729.035 C496.6984,730.263 495.3494,731.484 493.6934,732.616 C498.5034,742.22 501.3384,748.188 502.2114,750.377 C503.0644,752.635 503.9664,755.043 504.8974,757.669 C516.6474,751.216 526.3954,746.142 534.1454,742.506 C541.8394,738.871 550.5564,735.119 560.2544,731.293 L559.7574,724.219 C559.5794,722.412 559.6074,719.936 559.8354,716.832 C560.0334,713.729 560.3824,710.312 560.8864,706.533 C551.7644,711.321 545.0724,714.52 540.7814,716.205 C536.4974,717.821 531.8084,719.554 526.6504,721.307 L526.6504,691.568 L539.1044,691.568 L557.0214,691.95 L557.0214,669.523 L538.6004,669.96 L526.6504,669.96 L526.6504,652.15 L537.7264,652.15 L552.7874,652.56 L552.7874,631.34 L537.7264,631.845 L491.5624,631.845 C495.7964,625.904 499.7044,620.052 503.2634,614.254 L534.8704,614.377 L556.3964,614.854 L556.3964,593.341 L536.7244,593.805 L515.0924,593.805 C517.6494,587.619 520.2354,581.459 522.8144,575.225 L522.8144,575.225 Z M560.6304,651.646 L572.2104,652.15 C565.8954,646.134 559.7284,640.678 553.6684,635.767 C555.0684,634.634 557.1784,632.711 560.0054,629.99 C562.8404,627.323 565.5464,621.593 568.1544,612.931 C570.7614,604.248 572.2394,597.365 572.5874,592.332 L573.4394,579.775 C584.5654,582.012 591.2574,583.192 593.4884,583.308 L603.5624,584.126 C601.9144,590.913 600.2804,597.386 598.7024,603.525 L613.8914,603.525 L613.8914,566.276 L642.5154,566.276 L642.5154,603.525 L671.0104,603.525 L684.4664,603.525 L684.4664,624.24 L670.7544,624.24 L642.5154,624.24 L641.9114,652.15 L682.7114,652.15 L697.2754,652.15 L697.2754,673.377 L683.8414,673.377 L641.2864,673.377 C643.3394,679.822 645.6194,685.886 648.1274,691.473 C650.6074,697.079 656.1484,704.657 664.7164,714.261 C673.3124,723.858 681.3114,730.406 688.6794,733.823 L701.1334,740.078 C693.4884,747.008 688.8564,751.796 687.2014,754.347 L683.3364,760.097 C676.4454,755.861 670.8824,752.253 666.6484,749.218 C662.4144,746.237 657.8744,742.486 652.9654,737.936 C648.0774,733.462 644.5394,729.703 642.3874,726.743 L629.0804,709.902 C626.6724,713.654 624.0154,717.528 621.1094,721.546 C618.2044,725.543 613.4154,730.549 606.7524,736.442 C600.0594,742.363 593.2894,747.342 586.3984,751.312 C579.5074,755.281 571.7134,758.896 562.9894,762 C561.0854,759.64 559.0034,757.014 556.7024,754.347 C554.4424,751.653 550.1804,747.778 543.9644,742.724 C565.1204,737.043 580.8564,728.626 591.2574,717.385 C601.6084,706.171 607.6754,694.958 609.4024,683.772 L611.2844,673.377 L576.7004,673.377 L560.6304,673.377 L560.6304,651.646 Z M613.7644,652.15 L614.7654,624.24 L592.8634,624.24 C588.9554,632.615 586.4764,637.595 585.3964,639.136 L576.7004,652.15 L613.7644,652.15 Z" id="Fill-7" fill="#231916"></path>
                <g id="编组" transform="translate(702.000200, 570.047500)">
                    <mask id="mask-4" fill="white">
                        <use xlink:href="#path-3"></use>
                    </mask>
                    <g id="Clip-10"></g>
                    <path d="M16.24,162.466 C20.453,159.895 25.511,155.829 31.507,150.223 C27.522,145.769 23.636,141.008 19.877,135.974 C16.091,130.926 12.958,124.91 10.45,117.905 C7.971,110.948 6.564,106.31 6.216,104.045 L4.987,97.068 L31.507,97.068 C31.827,100.553 32.232,103.323 32.658,105.341 C33.134,107.388 34.264,110.519 36.04,114.727 C37.823,118.915 39.372,121.752 40.7,123.246 L43.933,127.291 C44.615,123.874 45.112,120.866 45.488,118.124 C45.865,115.45 46.163,111.262 46.369,105.73 C46.568,100.144 46.689,94.974 46.689,90.158 L46.689,88.767 L7.743,88.767 L7.743,71.155 C9.299,70.091 11.857,68.148 15.387,65.33 C18.897,62.513 26.342,51.348 37.723,31.861 L25.888,31.861 L4.987,32.27 L4.987,10.225 L32.132,10.443 L71.206,10.443 L74.915,20.163 C69.7,29.91 65.636,37.106 62.731,41.751 L52.032,58.134 L46.689,67.131 L60.379,67.131 L74.915,66.654 C74.765,77.335 74.559,85.882 74.311,92.28 C74.062,98.63 73.458,106.283 72.506,115.184 C71.526,124.112 70.275,130.995 68.72,135.783 L64.841,147.91 C77.046,156.6 94.111,161.647 116.063,163.046 C137.994,164.492 158.973,164.997 178.972,164.608 C198.949,164.178 217.69,162.875 235.21,160.638 C231.629,168.987 229.746,175.105 229.498,178.925 L228.723,186.53 C200.128,187.539 174.084,187.833 150.654,187.376 C127.217,186.966 110.827,186.052 101.506,184.681 C92.157,183.358 83.809,181.571 76.463,179.313 C69.146,177.097 63.811,174.812 60.5,172.356 L51.406,166.293 C42.604,173.877 37.297,178.181 35.464,179.238 L20.424,188.672 C19.352,187.758 18.549,187.035 18.045,186.53 L9.477,177.847 L1.13686838e-13,170.024 C6.642,167.548 12.056,165.017 16.24,162.466 L16.24,162.466 Z M75.916,38.238 L99.076,38.238 L131.302,38.238 L131.302,29.576 L83.632,29.576 L83.632,10.225 C100.476,11.234 116.368,10.566 131.302,10.225 L131.302,0 L160.777,0 L160.777,10.225 L192.029,10.225 L213.811,10.225 L213.811,24.999 L213.811,38.238 L230.102,38.238 L230.102,58.448 L213.811,58.448 L213.811,70.692 L213.811,87.348 L189.671,87.348 L160.777,87.348 L160.777,94.926 L192.534,94.926 L213.811,94.926 L213.811,115.136 L191.404,115.136 L160.777,115.136 L160.777,123.969 L202.103,123.969 L225.391,123.969 L225.391,143.941 L201.478,143.941 L160.777,143.941 L160.777,160.352 L131.302,160.352 L131.302,143.941 L98.821,143.941 L75.916,143.941 L75.916,123.969 L99.95,123.969 L131.302,123.969 L131.302,115.136 L104.163,115.136 L83.632,115.136 L83.632,94.926 L103.559,94.926 L131.302,94.926 L131.302,87.348 L105.918,87.348 L83.632,87.348 L83.632,66.654 L105.918,66.654 L131.302,66.654 L131.302,58.448 L99.076,58.448 L75.916,58.448 L75.916,38.238 Z M160.777,38.238 L184.534,38.238 L184.534,29.576 L160.777,29.576 L160.777,38.238 Z M160.777,66.654 L184.534,66.654 L184.534,58.448 L160.777,58.448 L160.777,66.654 Z" id="Fill-9" fill="#231916" mask="url(#mask-4)"></path>
                </g>
                <polygon id="Fill-11" fill="#E50113" points="470.9031 280.5718 485.7651 280.7148 569.8731 281.4108 623.7601 281.8748 636.6971 249.0258 569.8731 248.5688 550.1521 248.4458 568.7221 202.8958 569.8731 202.9438 655.4161 203.2098 657.2421 203.2578 668.8511 177.4408 655.4161 176.9838 569.8731 173.9758 515.3411 172.0248 485.7651 244.2648"></polygon>
                <path d="M655.4095,295.8708 L569.8735,296.4438 L485.7655,297.0438 L403.9095,297.5758 L239.8275,298.7078 C252.3815,270.5318 264.9415,242.4018 277.4945,214.2458 C291.3765,214.2458 305.2655,214.1978 319.1475,214.1508 C325.7905,197.4048 339.1245,163.9358 339.1245,163.9358 C339.1245,163.9358 325.1865,162.3458 307.5955,161.9848 C292.0305,161.6978 273.6375,162.1278 259.4005,167.7618 C241.1065,174.9788 213.0375,185.0118 180.4785,212.8548 C160.3305,230.0838 91.8805,290.7208 121.6825,317.3768 C124.6165,320.0028 127.7995,321.8788 131.1525,323.2288 C136.1685,325.2278 141.5815,325.9708 147.1445,326.2848 C160.6005,326.8848 174.2905,326.5238 187.9445,326.1148 C210.6505,325.3708 233.3625,325.1048 256.0895,324.7158 L403.9095,322.3838 L485.7655,321.1348 L569.8735,319.7848 L655.4095,318.4408 L723.3835,317.3768 L796.8135,316.2038 L804.8065,294.8548 L723.3835,295.4138 L655.4095,295.8708 Z" id="Fill-13" fill="#E50113"></path>
                <polygon id="Fill-15" fill="#E50113" points="836.9392 206.7158 845.5572 184.1458 723.3762 179.7938 684.1042 178.3958 655.4092 249.3048 641.9752 282.4888 655.4092 282.4408 723.3762 282.0108 808.4442 281.5268 821.7002 249.7148 724.8822 248.7528 742.7782 206.1158"></polygon>
                <path d="M368.7926,281.1652 L381.3746,249.3532 L403.9026,274.2832 L411.5966,282.8022 L454.4066,282.8022 L462.9536,261.4322 L439.5656,260.8592 L425.8616,247.1902 L470.9456,246.6582 L485.7586,209.1512 L500.6206,171.5612 L485.7586,170.7432 L403.9026,166.2202 L351.6786,163.3552 L307.1626,281.1652 L368.7926,281.1652 Z M403.9026,194.5882 L404.1086,194.1112 L454.2786,194.4242 L446.5846,215.2832 L403.9026,215.0642 L395.4126,215.0172 L403.9026,194.5882 Z" id="Fill-17" fill="#E50113"></path>
            </g>
        </g>
    </g>
</svg>