<?xml version="1.0" encoding="UTF-8"?>
<svg width="954px" height="768px" viewBox="0 0 954 768" version="1.1" xmlns="http://www.w3.org/2000/svg" xmlns:xlink="http://www.w3.org/1999/xlink">
    <title>中国铁路工程集团有限公司@2x</title>
    <g id="页面-1" stroke="none" stroke-width="1" fill="none" fill-rule="evenodd">
        <g id="72.中国铁路工程集团有限公司" transform="translate(-35.000000, 0.000000)">
            <g id="中国铁路工程集团有限公司" transform="translate(35.000000, 0.000000)">
                <path d="M109,635 C109,635 481.35396,290.75 852,635" id="Stroke-1" stroke="#0E4289" stroke-width="3.75"></path>
                <polygon id="Fill-3" fill="#0E4289" points="827 386.981226 112 387 112 378.018774 827 378"></polygon>
                <path d="M178,185 C178,185 425.691663,412.015807 781,195.240596" id="Stroke-5" stroke="#0E4289" stroke-width="3.75"></path>
                <path d="M471.805611,31 C471.805611,31 288.635867,143.881416 292.047061,385.073345 C295.458255,626.265273 471.805611,741 471.805611,741 C471.805611,741 648.541844,614.426824 651.953038,383.26324 C655.364232,152.099656 471.805611,31 471.805611,31 Z" id="Stroke-7" stroke="#0E4289" stroke-width="3.75"></path>
                <path d="M826.799697,437.978218 C801.630323,622.076211 651.32151,736.234803 473.090956,736.234803 C277.570533,736.234803 121.859346,569.859979 122.480335,385.887118 C123.135444,192.397438 292.854132,25.8883821 473.090956,35.5394324 C656.043753,26.7324509 802.713073,173.432055 826.974847,335.591086 L954,335.591086 C927.750152,101.017327 689.188167,-0.170818656 477.883715,0 C281.257795,-0.721397195 0,88.8954982 0,382.770206 C0,660.578032 263.71771,768 477.883715,768 C676.393072,768 917.989485,675.480054 952.266691,437.978218 L826.799697,437.978218 Z" id="Fill-9" fill="#0E4289"></path>
                <path d="M296.858481,503.30269 C280.575527,502.980183 264.283505,503.114182 247.989215,503.114182 C247.989215,517.822314 250.569276,517.304486 260.551711,517.143232 C268.953915,517.006962 276.929887,517.027403 285.724314,516.745777 C296.686174,517.190927 296.439051,517.206825 296.509334,515.412597 M385,617 L319.593855,617 C300.719504,598.676157 281.845153,580.352314 262.87558,561.937624 C263.072826,562.948297 263.233796,564.033919 263.499057,565.094558 C267.847526,582.398643 272.207331,599.698186 276.564869,617 L209.440195,617 C196.66685,566.162011 183.893506,515.32175 171,464 L367.295519,464 C371.181481,495.503474 375.0221,526.636746 379.032758,559.153163 L333.462252,559.153163 C337.010404,563.616023 338.830957,566.368687 341.098146,568.680744" id="Fill-11" fill="#0E4289"></path>
                <path d="M453.394735,519.088869 C487.192784,518.869904 526.844329,518.987287 560.642378,518.989545 L570.08182,518.989545 C568.500651,531.766258 566.996502,543.935739 565.460639,556.364818 L455.379124,556.364818 C456.212749,561.082721 456.939905,565.191134 457.830162,570.222811 L563.666534,570.222811 C561.899611,585.803178 560.248219,600.401589 558.594561,615 L402.099626,615 C400.054073,597.272874 398.067419,579.536719 395.947112,561.818623 C392.030435,529.073216 388.034472,496.336838 384,463 L577,463 C575.350873,476.370402 573.706276,489.673082 571.955211,503.851622 L448.485863,503.851622" id="Fill-13" fill="#0E4289"></path>
                <path d="M576,617 C581.69039,566.072627 587.378502,515.145254 593.09395,464 L786,464 C781.485047,482.451782 777.102216,500.358863 772.676104,518.456588 L708.022519,518.456588 C708.512285,513.613279 708.981548,508.987851 709.507761,503.774598 L648.699404,503.774598 C646.298415,525.637577 643.90426,547.437008 641.437209,569.905968 L698.62358,569.905968 C700.530248,558.88256 702.457418,547.738863 704.398256,536.502114 L767.910573,536.502114 C761.504898,563.682747 755.219955,590.341373 748.935013,617 L576,617 Z" id="Fill-15" fill="#0E4289"></path>
                <path d="M313,420.16094 C326.234942,419.391458 339.749448,418.680992 353.250316,417.800287 C378.774685,416.141021 403.385359,411.217698 424.425349,395.539786 C443.551579,381.289615 454.209083,362.279551 453.681776,338.073782 C452.740807,294.717217 451.806656,251.351572 450.099728,208.019976 C448.824646,175.620018 434.903296,160.048789 402.962605,152.948672 C401.073847,152.531018 398.246392,152.210968 395.584858,151.627615 C396.455368,133.046554 394.618886,117.988313 395.95079,99.6705564 C396.057615,98.1951484 397.425885,95.0014577 398.905526,92.1800237 C400.537449,89.0748575 403.355812,86.7754909 406.717392,85.765404 C417.570363,82.5081572 442.424234,76.7132088 457.459292,76.2024906 C485.808843,75.235531 511.921886,77.5780248 538.855437,86.5689338 C544.817184,88.5595996 546.892317,92.5363915 546.915046,99.1938861 C546.946866,108.357304 547.069601,115.014799 547.153698,122.954764 C547.251431,132.288421 547.176426,141.624349 547.176426,151.171373 C540.237344,152.685369 533.268714,153.650058 526.656925,155.751947 C507.498874,161.846517 495.188992,179.165536 494.516221,199.251513 C493.861633,218.794994 492.209254,238.308966 491.838776,257.852447 C491.270558,287.821387 489.927289,317.892471 491.700131,347.754727 C493.38433,376.091639 512.699209,393.115577 537.10987,404.353646 C558.990823,414.427278 582.808264,416.660818 606.375689,419.448204 C614.537577,420.415164 622.788108,420.6308 631,421.191456 L631,444.99319 C524.181766,444.99319 420.295538,444.99319 313.475031,445" id="Fill-17" fill="#0E4289"></path>
            </g>
        </g>
    </g>
</svg>