<?xml version="1.0" encoding="UTF-8"?>
<svg width="984px" height="513px" viewBox="0 0 984 513" version="1.1" xmlns="http://www.w3.org/2000/svg" xmlns:xlink="http://www.w3.org/1999/xlink">
    <title>中国化学工程集团有限公司@2x</title>
    <defs>
        <polygon id="path-1" points="0 0 718.132647 0 718.132647 512.482539 0 512.482539"></polygon>
    </defs>
    <g id="页面-1" stroke="none" stroke-width="1" fill="none" fill-rule="evenodd">
        <g id="61.中国化学工程集团有限公司" transform="translate(-21.000000, -128.000000)">
            <g id="编组" transform="translate(21.000000, 128.000000)">
                <g transform="translate(133.666083, 0.000000)">
                    <mask id="mask-2" fill="white">
                        <use xlink:href="#path-1"></use>
                    </mask>
                    <g id="Clip-2"></g>
                    <path d="M600.825155,89.4914142 C539.083265,45.9088767 453.623027,18.9555506 359.068073,18.9555506 C264.513119,18.9555506 179.045882,45.9088767 117.307492,89.4914142 C56.5384107,132.384277 18.9487834,191.360213 18.9487834,256.242145 C18.9487834,321.124076 56.5384107,380.096511 117.307492,422.992875 C179.045882,466.571912 264.513119,493.528739 359.068073,493.528739 C453.623027,493.528739 539.083265,466.571912 600.825155,422.992875 C661.597735,380.096511 699.183863,321.124076 699.183863,256.242145 C699.183863,191.360213 661.597735,132.384277 600.825155,89.4914142 M359.068073,-0.00175044331 C457.58775,-0.00175044331 546.921728,28.2854134 611.704521,74.0139944 C677.460124,120.428749 718.132647,184.838061 718.132647,256.242145 C718.132647,327.642727 677.460124,392.05554 611.704521,438.470295 C546.921728,484.198876 457.58775,512.482539 359.068073,512.482539 C260.544897,512.482539 171.214418,484.198876 106.428125,438.470295 C40.6690233,392.05554 0,327.642727 0,256.242145 C0,184.838061 40.6690233,120.428749 106.428125,74.0139944 C171.214418,28.2854134 260.544897,-0.00175044331 359.068073,-0.00175044331" id="Fill-1" fill="#FCD000" mask="url(#mask-2)"></path>
                </g>
                <path d="M492.734506,503.005989 C685.28074,503.005989 842.326438,392.153915 842.326438,256.242495 C842.326438,120.327574 685.28074,9.47549972 492.734506,9.47549972 C300.184772,9.47549972 143.142574,120.327574 143.142574,256.242495 C143.142574,392.153915 300.184772,503.005989 492.734506,503.005989" id="Fill-3" fill="#005D97"></path>
                <path d="M683.426454,49.3866574 C655.005028,59.6127472 621.149169,68.6415338 588.934487,74.0258974 C557.696114,79.2457194 524.946038,82.0289243 491.212654,82.0289243 C457.48277,82.0289243 424.732694,79.2457194 393.494321,74.0258974 C361.283139,68.6415338 328.375593,60.5789919 299.954168,50.3529021 L302.074752,44.429402 C330.107753,54.5154563 362.65137,62.4764725 394.530118,67.8048219 C425.387065,72.9616279 457.783711,75.7098239 491.212654,75.7098239 C524.645097,75.7098239 557.045242,72.9616279 587.898691,67.8048219 C619.780937,62.4764725 653.272868,53.5457107 681.30587,43.4631573 L683.426454,49.3866574 Z" id="Fill-5" fill="#FCD000"></path>
                <path d="M743.489023,82.0569313 C709.157257,100.622133 666.742076,117.184828 623.788001,127.242875 C582.426114,136.926327 537.774872,142.216167 491.213004,142.216167 C444.658136,142.216167 400.006893,136.926327 358.641507,127.242875 C315.687432,117.184828 276.274662,102.376077 241.942896,83.8108755 L244.92781,78.2584694 C278.776671,96.5576037 317.661045,111.163303 360.072726,121.095318 C400.958707,130.670243 445.123544,135.893566 491.213004,135.893566 C537.305964,135.893566 581.470801,130.670243 622.356782,121.095318 C664.768464,111.163303 706.658747,94.8036595 740.504109,76.5045252 L743.489023,82.0569313 Z" id="Fill-7" fill="#FCD000"></path>
                <path d="M681.30762,468.650388 C653.274618,458.564334 619.779188,448.667327 587.90044,443.338978 C557.043492,438.178671 524.643347,435.433976 491.214404,435.433976 C457.785461,435.433976 425.385316,438.178671 394.531867,443.338978 C362.649621,448.667327 329.906543,458.063707 301.873541,468.14626 L299.749458,462.22276 C328.170883,452.000171 361.281389,442.502266 393.49607,437.117902 C424.734443,431.89808 457.48452,429.114876 491.214404,429.114876 C524.944288,429.114876 557.697864,431.89808 588.936237,437.117902 C621.150919,442.502266 655.010277,452.500798 683.428204,462.726888 L681.30762,468.650388 Z" id="Fill-9" fill="#FCD000"></path>
                <path d="M741.507012,434.639625 C707.658151,416.333489 664.767064,399.977346 622.355382,390.045331 C581.472901,380.470406 537.308063,375.247083 491.215104,375.247083 C445.125644,375.247083 400.960806,380.470406 360.071326,390.045331 C317.659645,399.977346 276.021312,416.589053 242.17595,434.888188 L239.191035,429.335782 C273.522802,410.77058 315.686032,393.959322 358.640107,383.901275 C400.005494,374.214322 444.656736,368.927983 491.215104,368.927983 C537.773472,368.927983 582.424714,374.214322 623.786602,383.901275 C666.744176,393.959322 710.16016,410.518516 744.491927,429.083718 L741.507012,434.639625 Z" id="Fill-11" fill="#FCD000"></path>
                <path d="M553.657907,8.0187808 C565.513581,18.6054619 584.721314,33.9043364 598.116686,45.7233297 C677.411134,115.681547 748.485693,178.385927 809.758675,266.13565 L807.179681,267.938607 L809.769173,266.128648 C810.570516,267.276939 810.504029,268.768317 809.706186,269.832587 C733.830568,382.480615 669.06877,431.89563 584.64083,494.670028 L575.045712,501.808336 L571.294447,496.749554 L583.640026,486.309911 C667.13015,424.228688 728.564101,378.538617 803.351432,267.959612 C742.837801,181.8308 672.43161,119.707567 593.949004,50.4635302 C581.851877,39.7928277 563.93889,25.6317414 549.465729,12.7099689 L553.657907,8.0187808 Z" id="Fill-13" fill="#FCD000"></path>
                <path d="M423.534179,14.3109243 C409.061018,27.2326968 394.342904,39.7903771 382.245777,50.4610795 C303.892645,119.593088 233.591434,181.621797 173.14429,267.530053 C211.286809,304.065306 241.223437,335.128673 268.112163,363.037741 C315.275912,411.980136 356.161893,454.568422 412.441354,496.467033 L408.69009,501.525814 C351.973215,459.301621 310.929765,416.548793 263.573553,367.406848 C236.310401,339.112682 205.915362,307.569694 166.995996,270.369272 C165.743241,269.33301 165.473794,267.484542 166.422108,266.129699 L169.0151,267.936156 L166.432606,266.136701 C227.709088,178.386977 298.783647,115.682597 378.078094,45.7208791 C391.473467,33.9053867 407.482827,20.2064174 419.338502,9.61973625 L423.534179,14.3109243 Z" id="Fill-15" fill="#FCD000"></path>
                <path d="M472.738028,9.87355053 C472.31811,10.3671755 323.639272,183.118426 347.336624,285.886952 L347.343623,285.883451 C347.361119,285.953469 347.371617,286.023487 347.385614,286.093505 C366.722822,384.653966 465.956358,501.972177 466.239803,502.308262 L461.449242,506.379793 C461.162298,506.043708 360.892965,387.510689 341.209326,287.37833 L341.18833,287.304811 L341.191829,287.304811 L341.170833,287.199785 L341.174333,287.199785 C316.8681,181.308467 467.52755,6.27813997 467.950967,5.77751319 L472.738028,9.87355053 Z" id="Fill-17" fill="#FCD000"></path>
                <path d="M653.06046,287.381831 L649.295198,289.671411 C650.964371,290.060009 652.637043,289.03775 653.06046,287.381831 L653.06046,287.381831 Z M520.177523,5.79501762 C520.621936,6.2956444 677.412184,181.262956 653.095453,287.199785 L653.102452,287.199785 L653.077956,287.304811 L653.081456,287.304811 L653.06046,287.381831 C633.355825,387.570204 525.010075,506.148735 524.702136,506.481319 L520.04105,502.262751 C520.341991,501.930166 627.553963,384.594451 646.884171,286.093505 C646.898169,286.023487 646.908666,285.953469 646.926163,285.883451 L646.933162,285.886952 C670.623515,183.163937 515.908361,10.4827048 515.470946,9.98907979 L520.177523,5.79501762 Z" id="Fill-19" fill="#FCD000"></path>
                <path d="M15.7924025,321.423402 L968.211097,321.423402 L968.211097,190.098143 L15.7924025,190.098143 L15.7924025,321.423402 Z M7.89795091,174.302143 L976.105548,174.302143 L984,174.302143 L984,182.196642 L984,329.321402 L984,337.219403 L976.105548,337.219403 L7.89795091,337.219403 L0,337.219403 L0,329.321402 L0,182.196642 L0,174.302143 L7.89795091,174.302143 Z" id="Fill-21" fill="#FCD000"></path>
                <polygon id="Fill-23" fill="#005D97" points="7.89795091 329.317901 976.105548 329.317901 976.105548 182.196642 7.89795091 182.196642"></polygon>
                <path d="M179.258641,248.154396 L140.913162,248.154396 L140.913162,229.498172 C140.913162,224.075298 140.475747,220.68644 139.670905,219.331597 C138.862564,218.00126 137.056918,217.322088 134.257467,217.322088 C131.087089,217.322088 129.095979,218.134294 128.22815,219.762206 C127.384815,221.411124 126.9509,224.933015 126.9509,230.355889 L126.9509,280.11399 C126.9509,285.333812 127.384815,288.71917 128.22815,290.30157 C129.095979,291.904976 130.992607,292.696177 133.981021,292.696177 C136.83996,292.696177 138.705095,291.904976 139.576424,290.30157 C140.447753,288.71917 140.913162,284.994226 140.913162,279.119739 L140.913162,265.704341 L179.258641,265.704341 L179.258641,269.859893 C179.258641,280.926196 178.170354,288.785686 176.025275,293.42086 C173.876696,298.049032 169.089635,302.113562 161.720081,305.593443 C154.347027,309.069824 145.234814,310.83427 134.44643,310.83427 C123.189138,310.83427 113.919456,309.342893 106.644383,306.384644 C99.3658106,303.426394 94.5157618,299.337359 92.1502258,294.117537 C89.7881891,288.88021 88.6054211,281.017219 88.6054211,270.514559 L88.6054211,239.230636 C88.6054211,231.507681 88.9798477,225.724216 89.6937076,221.862738 C90.4425608,218.00126 92.58764,214.272816 96.2234269,210.705412 C99.8312193,207.134508 104.838737,204.312793 111.24598,202.257773 C117.653224,200.223758 125.022778,199.183994 133.32665,199.183994 C144.64343,199.183994 153.976099,200.7874 161.31416,203.952202 C168.652221,207.134508 173.474275,211.087009 175.804818,215.83071 C178.107366,220.574412 179.258641,227.961282 179.258641,237.966816 L179.258641,248.154396 Z" id="Fill-24" fill="#FCD000"></path>
                <polygon id="Fill-25" fill="#FCD000" points="354.207526 198.914426 354.207526 312.840278 320.58962 312.840278 300.622536 261.051663 300.622536 312.840278 268.561825 312.840278 268.561825 198.914426 300.622536 198.914426 322.143315 250.219919 322.143315 198.914426"></polygon>
                <path d="M536.615899,248.154396 L498.27042,248.154396 L498.27042,229.498172 C498.27042,224.075298 497.836505,220.68644 497.028164,219.331597 C496.219822,218.00126 494.414176,217.322088 491.618225,217.322088 C488.444347,217.322088 486.456737,218.134294 485.585408,219.762206 C484.745573,221.411124 484.308159,224.933015 484.308159,230.355889 L484.308159,280.11399 C484.308159,285.333812 484.745573,288.71917 485.585408,290.30157 C486.456737,291.904976 488.353365,292.696177 491.33828,292.696177 C494.197219,292.696177 496.062353,291.904976 496.933682,290.30157 C497.805011,288.71917 498.27042,284.994226 498.27042,279.119739 L498.27042,265.704341 L536.615899,265.704341 L536.615899,269.859893 C536.615899,280.926196 535.527613,288.785686 533.382533,293.42086 C531.237454,298.049032 526.450393,302.113562 519.077339,305.593443 C511.707785,309.069824 502.592072,310.83427 491.803689,310.83427 C480.546396,310.83427 471.280214,309.342893 464.001642,306.384644 C456.723069,303.426394 451.87302,299.337359 449.507484,294.117537 C447.148947,288.88021 445.966179,281.017219 445.966179,270.514559 L445.966179,239.230636 C445.966179,231.507681 446.337106,225.724216 447.054466,221.862738 C447.799819,218.00126 449.944899,214.272816 453.584185,210.705412 C457.191977,207.134508 462.199495,204.312793 468.603239,202.257773 C475.010482,200.223758 482.380037,199.183994 490.683908,199.183994 C502.004188,199.183994 511.333358,200.7874 518.671419,203.952202 C526.012979,207.134508 530.835033,211.087009 533.165576,215.83071 C535.468124,220.574412 536.615899,227.961282 536.615899,237.966816 L536.615899,248.154396 Z" id="Fill-26" fill="#FCD000"></path>
                <polygon id="Fill-27" fill="#FCD000" points="625.728721 199.755339 713.697967 199.755339 713.697967 221.191268 664.102194 221.191268 664.102194 241.49641 712.04979 241.49641 712.04979 265.050375 664.102194 265.050375 664.102194 288.611342 716.248966 288.611342 716.248966 311.941251 625.728721 311.941251"></polygon>
                <path d="M891.939707,248.154396 L853.594228,248.154396 L853.594228,229.498172 C853.594228,224.075298 853.160313,220.68644 852.351971,219.331597 C851.54363,218.00126 849.737984,217.322088 846.942032,217.322088 C843.764656,217.322088 841.777045,218.134294 840.905716,219.762206 C840.06938,221.411124 839.631966,224.933015 839.631966,230.355889 L839.631966,280.11399 C839.631966,285.333812 840.06938,288.71917 840.905716,290.30157 C841.777045,291.904976 843.673673,292.696177 846.662087,292.696177 C849.521026,292.696177 851.386161,291.904976 852.25749,290.30157 C853.128819,288.71917 853.594228,284.994226 853.594228,279.119739 L853.594228,265.704341 L891.939707,265.704341 L891.939707,269.859893 C891.939707,280.926196 890.847921,288.785686 888.702841,293.42086 C886.561261,298.049032 881.770701,302.113562 874.397647,305.593443 C867.031592,309.069824 857.91588,310.83427 847.123997,310.83427 C835.870204,310.83427 826.600522,309.342893 819.325449,306.384644 C812.046877,303.426394 807.196828,299.337359 804.831292,294.117537 C802.469255,288.88021 801.289986,281.017219 801.289986,270.514559 L801.289986,239.230636 C801.289986,231.507681 801.660914,225.724216 802.374774,221.862738 C803.120127,218.00126 805.268706,214.272816 808.904493,210.705412 C812.515785,207.134508 817.519803,204.312793 823.927046,202.257773 C830.33429,200.223758 837.703844,199.183994 846.007716,199.183994 C857.324496,199.183994 866.653666,200.7874 873.995226,203.952202 C881.336786,207.134508 886.155341,211.087009 888.489383,215.83071 C890.788432,220.574412 891.939707,227.961282 891.939707,237.966816 L891.939707,248.154396 Z" id="Fill-28" fill="#FCD000"></path>
            </g>
        </g>
    </g>
</svg>