<?xml version="1.0" encoding="UTF-8"?>
<svg width="1023px" height="172px" viewBox="0 0 1023 172" version="1.1" xmlns="http://www.w3.org/2000/svg" xmlns:xlink="http://www.w3.org/1999/xlink">
    <title>中国东方航空集团有限公司@2x</title>
    <defs>
        <polygon id="path-1" points="0 0 200 0 200 172 0 172"></polygon>
        <polygon id="path-3" points="0 0 128 0 128 135 0 135"></polygon>
        <polygon id="path-5" points="0 0 27 0 27 25 0 25"></polygon>
    </defs>
    <g id="页面-1" stroke="none" stroke-width="1" fill="none" fill-rule="evenodd">
        <g id="40.中国东方航空集团有限公司" transform="translate(-1.000000, -299.000000)">
            <g id="中国东方航空集团有限公司" transform="translate(1.000000, 299.000000)">
                <path d="M210.3269,62.0973977 C139.570213,64.0480923 71.0862681,80.0103474 64.7297236,102.638404 C64.1457409,104.697527 64,106.731316 64,108.800573 C64,131.091185 110.814416,138.710547 161.495552,144.98925 C162.363883,145.093625 162.322097,144.415696 162.040807,143.919155 C161.843088,143.561443 161.085847,142.231931 160.563015,141.313838 C160.362239,140.956126 160.150252,140.712923 159.431739,140.519373 C131.690014,133.501939 103.537564,123.244833 103.537564,113.697069 C103.537564,95.6199574 150.720919,77.7080211 204.449364,69.5313174 C206.219657,69.1867792 207.065566,68.8574411 208.26003,67.919081 C209.746994,66.7334641 213.021578,64.073426 214.414779,62.9668502 C215.314703,62.2250796 214.993666,61.9940363 214.656322,62 C213.217258,62.0264634 211.775136,62.0538238 210.3269,62.0973977" id="Fill-1" fill="#1C1D80"></path>
                <g id="编组">
                    <mask id="mask-2" fill="white">
                        <use xlink:href="#path-1"></use>
                    </mask>
                    <g id="Clip-4"></g>
                    <path d="M131.729875,170.877171 C95.0590503,161.685577 58.7247669,130.897044 64.45309,102.380214 C72.811724,60.7642174 128.750822,20.450406 198.566411,1.51073788 C200.143378,1.04479987 200.726987,0 198.712822,0 L103.420735,0 C86.9281665,0 83.3522857,2.14148366 76.9630806,10.7847355 C73.5569957,15.3932491 45.0363727,54.7141445 32.1796732,72.4513263 C30.5274679,74.5663593 28.1848948,76.8268708 22.9781603,76.8268708 L-0.000203348351,76.8268708 C-0.000203348351,76.8309401 -0.000203348351,76.8472174 0.00894732745,76.8594254 C27.2505092,153.848052 56.5153871,172.000305 85.8229682,172.000305 L132.111153,172.000305 C132.760851,172.000305 133.408516,171.300381 131.729875,170.877171" id="Fill-3" fill="#DE0112" mask="url(#mask-2)"></path>
                </g>
                <path d="M571.181185,15.9127076 L571.181185,22.5046865 L541.962793,22.5046865 C539.232437,22.5046865 537,24.695571 537,27.4367195 C537,30.1432857 539.232437,32.3494271 541.962793,32.3494271 C541.962793,32.3494271 554.213023,32.2314407 556.253874,32.2080469 C556.253874,32.7949273 556.218016,44.2233295 556.218016,44.2436719 C555.525438,63.3422042 546.547537,74.9079181 542.705573,79.8399511 L541.65646,81.228325 C540.477234,82.1142397 539.761091,83.5341445 539.761091,85.076104 C539.761091,87.7826703 541.998651,90 544.719786,90 C546.23813,90 547.906055,89.3053045 548.797391,88.2942835 C548.750263,88.3186945 548.89677,88.224102 548.89677,88.224102 C552.407812,85.4656624 564.03923,74.5885413 566.27679,50.006695 L597.778846,50.006695 C597.778846,55.021115 597.629265,60.9163641 597.342398,68.0525042 C596.822965,80.4298828 588.208769,80.1318656 584.056375,79.9752285 L583.803317,79.9640402 C580.172405,79.5897386 574.738331,78.2603579 574.685056,78.2603579 L573.353175,78.1057551 C570.619746,78.1057551 568.398579,80.307828 568.398579,83.0225312 C568.398579,85.2856315 569.944585,87.2547831 572.164728,87.7918244 C572.164728,87.8498004 577.413363,89.6409553 582.293169,89.7152054 L583.266467,89.7253766 C589.4884,89.818952 596.505363,89.9308356 601.459959,85.1686623 C605.649237,81.1255955 607.736192,74.2508562 607.85811,64.17116 C608.077358,60.0050212 608.180835,53.3459122 608.180835,49.5428866 C608.180835,48.3640402 608.180835,47.4557487 608.155222,46.9909231 C607.940072,43.1228016 604.981247,40.215862 601.31755,40.215862 C601.31755,40.215862 569.921021,40.1680572 566.789052,40.1680572 L566.789052,32.2080469 C567.396594,32.2080469 611.049501,32.3494271 611.049501,32.3494271 C613.769612,32.3494271 616,30.1432857 616,27.4367195 C616,24.695571 613.769612,22.5046865 611.049501,22.5046865 L581.554488,22.5046865 L581.554488,15.7804815 C581.554488,13.1888503 579.124318,11 576.30073,11 C573.517099,11 571.181185,13.2519119 571.181185,15.9127076" id="Fill-5" fill="#DE0112"></path>
                <path d="M730.611011,57 C727.881782,57 725.675324,59.1937603 725.675324,61.8866995 C725.675324,64.5846912 727.881782,66.7885563 730.611011,66.7885563 L755.119959,66.7885563 L755.119959,79.2215486 L725.935688,79.2215486 C723.222795,79.2215486 721,81.4173298 721,84.1042061 C721,86.7971454 723.222795,89 725.935688,89 L794.061249,89 C796.776184,89 799,86.7971454 799,84.1042061 C799,81.4173298 796.776184,79.2215486 794.061249,79.2215486 L765.27314,79.2215486 L765.27314,66.7885563 L789.79434,66.7885563 C792.519485,66.7885563 794.745343,64.5846912 794.745343,61.8866995 C794.745343,59.1937603 792.519485,57 789.79434,57 L730.611011,57 Z" id="Fill-7" fill="#DE0112"></path>
                <path d="M755.203224,15.9950174 L755.203224,19.3318908 L729.833489,19.3318908 C726.061003,19.3771784 723,22.4721748 723,26.2567779 L723.013251,26.4266065 L723.013251,36.4125243 C723.013251,39.1647758 725.222107,41.3859272 727.934505,41.3859272 C730.673405,41.3859272 732.861874,39.1647758 732.861874,36.4125243 L732.861874,29.2766381 L744.360769,29.2766381 C744.405619,29.5915928 744.460662,30.1556294 744.460662,30.8884652 C744.460662,31.9187583 744.349556,33.2835622 743.952023,34.7132097 C742.524982,39.7524854 737.454909,43.2674215 728.876352,45.1437694 L728.549152,45.2096423 C726.037559,45.4823972 724.184444,47.50593 724.184444,50.0204215 C724.184444,52.709888 726.567603,55 729.38601,55 L729.93542,54.9578002 C749.06287,53.1864371 754.146195,43.1047978 755.076829,34.9684671 C755.316368,32.6989403 755.35816,30.2235608 755.35816,29.2766381 L755.35816,29.2241456 C755.90961,29.2241456 764.434143,29.2766381 765.004959,29.2766381 L765.004959,47.3710964 C765.042674,51.1165875 767.944664,54.1210087 771.662107,54.2146717 L786.013045,54.2208473 C793.448949,54.2208473 796.604749,48.9880699 796.630232,48.9479286 C797.200029,48.1162834 797.489514,46.8019135 797.546596,45.8570493 C797.683184,43.4660694 796.64756,42.8238087 795.533449,42.1094996 L795.274543,41.9407004 C793.517243,40.8218906 791.593795,41.1759573 789.522547,42.9771691 C787.064978,45.095394 784.99373,44.7732345 784.961112,44.7732345 C784.914223,44.7732345 776.567051,44.7433858 776.567051,44.7433858 C776.567051,44.7433858 775.786256,44.7670589 775.287811,44.2658074 C774.99119,43.9786428 774.832177,43.5453227 774.832177,42.9936373 C774.832177,42.9936373 774.864795,29.8828745 774.864795,29.2766381 L788.128124,29.2766381 C787.956879,29.9374254 787.062939,33.2887085 787.062939,33.2887085 C786.980375,33.6829166 786.911062,34.0740368 786.911062,34.4661863 C786.911062,35.3287094 787.146523,36.1768228 787.621524,36.9456829 C788.295292,38.0634635 789.406345,38.8559966 790.69374,39.1647758 C793.353133,39.8008608 796.471219,37.8967227 797.083827,35.256661 C797.162314,35.0446326 799.068434,29.7552457 798.998101,26.7034784 C798.932865,21.8402068 796.604749,19.4111441 791.875126,19.3041007 C791.69165,19.3041007 768.121006,19.3318908 765.194552,19.3318908 L765.194552,15.9950174 C765.194552,13.290112 762.877648,11 760.124478,11 C757.391694,11 755.203224,13.2437952 755.203224,15.9950174" id="Fill-9" fill="#DE0112"></path>
                <path d="M396.641119,25.1916615 C395.949532,25.9618318 395.692221,27.0345323 395.796976,28.3431038 L395.823419,28.446682 C395.823419,28.5174433 395.901731,29.3245325 395.949532,29.8249893 C395.275234,29.8249893 373.303097,29.8885719 373.303097,29.8885719 C371.27817,29.8885719 369,31.5068524 369,33.8409502 C369,35.9843001 370.871354,37.7820477 373.09257,37.7820477 C373.09257,37.7820477 396.50687,37.850758 397.000134,37.850758 C398.440263,46.8989763 400.340094,54.513509 402.804383,61.1066174 C399.714615,65.9553057 396.834357,69.8379482 395.621028,71.37111 C395.070809,71.9474558 394.599919,73.7851989 394.599919,75.1676083 C394.599919,75.722418 394.661959,76.211594 394.851128,76.5141243 C395.502034,77.6309224 396.484495,78.3395611 397.655108,78.4923645 C398.947766,78.6646529 400.296362,78.1313792 401.421208,76.9920195 C402.504356,75.8895788 403.141023,74.865078 404.096024,73.3073036 C404.096024,73.3073036 406.149428,70.1794485 406.591841,69.4728608 C408.906624,73.9892786 410.925449,76.9858664 410.957994,77.0238109 C411.704502,78.2370084 413.039876,79 414.434238,79 C415.995395,79 417.4162,78.0760008 418.088463,76.6638511 L418.27865,76.2885085 C418.955999,74.9901922 420.753109,71.5259645 421.963387,64.3401018 L421.963387,64.307285 C422.083397,62.7628424 421.74574,61.4870877 420.968721,60.5866756 C420.353412,59.8657306 419.480791,59.4668009 418.458666,59.4093714 C416.90768,59.3437378 415.132944,60.2492775 414.732231,62.1526542 C414.732231,62.1526542 414.071154,65.1338591 413.720276,66.6762507 C413.192432,65.4856147 411.795018,62.2582835 411.684161,62.0367698 C415.437039,55.7564468 418.012185,49.9242789 419.565206,44.2367101 C419.583512,44.1885104 419.692336,42.7620033 419.692336,42.7620033 C419.624194,41.6718689 419.146185,40.7068487 418.363064,39.9828271 C417.549432,39.2741884 416.542562,38.9193563 415.50213,38.9890921 C413.853508,39.0813895 412.413379,40.2330555 411.940455,41.8451828 C411.915029,41.8933826 409.890102,48.1788331 408.051293,52.0122504 C406.922379,48.2393392 405.917543,43.6983088 404.923895,37.850758 L418.097617,37.850758 C420.25781,37.850758 422,36.0519849 422,33.8409502 C422,31.6186347 420.25781,29.8249893 418.097617,29.8249893 L416.013701,29.8249893 C416.023872,29.6691093 416.048281,29.5265611 416.048281,29.4096511 C416.048281,28.3984822 415.721811,27.4273088 415.064803,26.6550875 L414.585777,26.0807928 C413.863678,25.2090955 412.845621,24.6655666 411.732979,24.5927542 C410.598979,24.4963547 409.510746,24.8429826 408.643211,25.5711063 C408.121469,26.0254144 407.839749,26.6335515 407.835681,27.3524454 L407.835681,27.4026962 C407.835681,28.1769685 408.262838,29.0127725 408.83238,29.7234622 C407.907891,29.7316664 404.422494,29.775764 403.998388,29.775764 C403.937366,29.3552982 403.724804,28.0651862 403.724804,28.0651862 C403.415624,25.3629244 402.069063,24 399.699359,24 C398.425008,24 397.349996,24.4194402 396.641119,25.1916615" id="Fill-11" fill="#DE0112"></path>
                <path d="M426.147207,14.0102031 L426.133989,14 L365.765354,14.0142844 C362.028853,14.0734624 359,17.1558219 359,20.8932211 L359,82.0516822 C359.030502,85.8329547 362.051221,88.9193954 365.765354,89 L426.133989,89 C429.903025,88.9693907 432.975598,85.8768281 432.975598,82.1057586 C433,82.1057586 433,20.8850586 433,20.8850586 C433,17.0895017 429.92641,14.0102031 426.147207,14.0102031 L426.147207,14.0102031 Z M423.420324,78.4214156 C423.41524,79.2335832 423.01363,79.639667 422.202275,79.639667 L400.426864,79.5917124 L369.366629,79.5325343 C368.642714,79.5325343 368.283806,79.1488974 368.283806,78.3408111 L368.310242,24.5163454 C368.310242,24.1347491 368.400731,23.8419198 368.583743,23.6449998 C368.770822,23.4695063 369.064659,23.3838002 369.456102,23.3838002 L422.351735,23.4031861 C422.796048,23.4031861 423.093952,23.5021563 423.307466,23.7092794 C423.479294,23.8857932 423.566734,24.1582162 423.566734,24.5081829 L423.420324,78.4214156 Z" id="Fill-13" fill="#DE0112"></path>
                <path d="M396.687126,43.2435025 C396.126392,41.8759966 394.811916,41 393.327798,41 L374.662043,41 C373.559875,41 372.522719,41.4964641 371.825864,42.3377776 C371.291541,42.9977478 371,43.8113148 371,44.6694743 L371,59.3523265 L371.078218,60.0945453 C371.419535,61.7791541 372.916859,63 374.656964,63 L393.327798,63 L394.399492,62.8493762 C395.93237,62.389577 397,60.9527048 397,59.3691726 L397,44.6694743 C397,44.1829197 396.885212,43.6864556 396.687126,43.2435025 L396.687126,43.2435025 Z M378.276343,55.7304175 L389.718578,55.7304175 L389.718578,48.2646277 L378.276343,48.2646277 L378.276343,55.7304175 Z" id="Fill-15" fill="#DE0112"></path>
                <path d="M390.472271,64.4425217 C390.37575,64.4696809 381.042317,67.5794064 374.65078,67.5083747 C371.633476,67.4686805 370.119294,69.6309687 370.007691,71.6365692 C369.941333,72.5286437 370.306305,73.4719027 371.0272,74.2647417 C371.975323,75.3041024 373.34975,75.9778588 374.543199,75.9987505 C385.52152,76.0791835 393.804276,72.2497398 393.868623,72.2027336 L393.885716,72.2027336 C395.955902,71.2020224 397.685246,68.8015692 396.730085,66.3394856 C395.308403,62.6510608 390.515505,64.4226746 390.472271,64.4425217" id="Fill-17" fill="#DE0112"></path>
                <path d="M335.142474,22.0273233 L335.100722,22.0273233 L308.86921,22.0273233 L308.86921,14.9486104 C308.86921,12.2203353 306.647184,10 303.896638,10 C301.154239,10 298.938323,12.2203353 298.938323,14.9486104 L298.938323,22.0273233 L272.819847,22.0273233 C269.056049,22.0313787 266,25.1459313 266,28.8758919 L266.004073,62.207282 C266.004073,65.9433257 269.056049,69.0122549 272.819847,69.0446982 C272.819847,69.0446982 295.9892,69.08728 298.938323,69.08728 L298.938323,85.0503758 C298.938323,87.7786508 301.154239,90 303.896638,90 C306.647184,90 308.86921,87.7786508 308.86921,85.0503758 L308.86921,69.1207371 C309.465959,69.1207371 335.125162,69.1653465 335.125162,69.1653465 C338.923584,69.1653465 342,66.0994589 342,62.337055 L342,28.8495317 C342,25.0891556 338.923584,22.0273233 335.142474,22.0273233 L335.142474,22.0273233 Z M298.938323,59.2448072 C298.311024,59.2448072 277.030698,59.2204747 277.030698,59.2204747 C276.93701,59.2204747 276.041886,59.1880315 275.978749,58.0038526 L275.978749,32.9769222 C275.978749,32.8491769 275.993006,32.4476916 276.259812,32.1567161 C276.455334,31.9569873 276.744543,31.8576299 277.097908,31.8576299 C277.097908,31.8576299 298.311024,31.9073086 298.938323,31.9073086 L298.938323,59.2448072 Z M331.732042,57.8933428 C331.732042,58.1366672 331.6964,58.6162191 331.415337,58.9325408 C331.217778,59.123145 330.956064,59.2204747 330.600662,59.2204747 L308.823384,59.2204747 L308.823384,31.8576299 L330.437727,31.8576299 C330.887835,31.8576299 331.217778,31.9681397 331.415337,32.1922009 C331.639372,32.4345115 331.663813,32.7680687 331.663813,32.8958141 L331.663813,32.9941577 L331.732042,57.7787775 L331.732042,57.8933428 Z" id="Fill-19" fill="#DE0112"></path>
                <path d="M524.247077,78.123386 L524.238903,78.123386 C524.100965,78.0753808 510.836481,72.5282331 498.077767,63.614597 L514.482119,63.614597 C518.248325,63.614597 521.294191,60.5606527 521.294191,56.8182942 L521.267625,56.3596918 L521.267625,55.8306138 C521.267625,52.7051725 521.209385,36.9104585 521.209385,36.9104585 C521.209385,33.2477681 518.346414,30.2785988 514.678297,30.1325406 C514.678297,30.1325406 494.886812,30.1182412 492.242498,30.1182412 L492.242498,25.4985121 C492.837162,25.4985121 521.57211,25.4351861 521.57211,25.4351861 C524.331883,25.4351861 526.500057,23.3587083 526.500057,20.680634 C526.500057,18.0178806 524.247077,15.8464138 521.50263,15.8464138 L492.242498,15.8464138 L492.242498,14.9138883 C492.242498,12.2061939 490.015061,10 487.307398,10 C484.597692,10 482.392734,12.2061939 482.392734,14.9138883 L482.392734,15.8464138 L453.135667,15.8464138 C450.440265,15.8464138 448.200568,18.0178806 448.200568,20.680634 C448.200568,23.3403233 450.440265,25.4985121 453.135667,25.4985121 L482.392734,25.4985121 L482.392734,30.1182412 L459.880303,30.1182412 C455.554172,30.2785988 453.07334,32.7585242 453.07334,36.9635706 L453.047796,56.7222839 C453.09071,56.7376047 453.09071,56.8295294 453.09071,56.8295294 C453.09071,60.5892515 456.154967,63.6340033 459.892564,63.6340033 C459.892564,63.6340033 474.474096,63.614597 476.170218,63.614597 C466.868117,70.5293806 449.889536,77.710746 449.70562,77.7842858 C448.029934,78.6565495 447,80.3438792 447,82.2171013 C447,84.9329668 449.19474,87.1350752 451.931012,87.1350752 L453.18982,86.9583754 C453.416651,86.9583754 471.449688,81.5276657 482.322233,69.6928654 C482.339603,71.0972713 482.322233,86.0820261 482.322233,86.0820261 C482.322233,88.8111697 484.597692,91 487.307398,91 C490.015061,91 492.192431,88.8111697 492.192431,86.0820261 C492.192431,86.0820261 492.211845,72.7294462 492.192431,69.297589 C500.13457,78.1999899 519.504068,86.9583754 519.714551,87.0482573 C520.455326,87.5007314 522.518259,87.7887622 523.396973,87.7887622 C525.979981,87.7887622 528,85.5560123 528,82.7094094 C528,80.6492737 526.052526,78.9884999 524.247077,78.123386 L524.247077,78.123386 Z M482.392734,55.3648618 L462.456159,55.3648618 C462.456159,54.8408907 462.471485,51.0178427 462.477616,50.5020428 L482.392734,50.5020428 L482.392734,55.3648618 Z M482.392734,42.7967063 L462.456159,42.7967063 C462.456159,42.2829492 462.471485,38.4466231 462.477616,37.9287804 L482.392734,37.9287804 L482.392734,42.7967063 Z M492.550047,37.9185665 L512.25264,37.9185665 C512.25264,38.4323237 512.195421,42.2706925 512.185203,42.7793428 L492.53983,42.7793428 C492.53983,42.2706925 492.550047,38.4323237 492.550047,37.9185665 L492.550047,37.9185665 Z M492.53983,55.317878 C492.53983,54.7928856 492.550047,50.9698376 492.550047,50.4611873 L512.25264,50.4611873 C512.25264,50.9698376 512.195421,54.7928856 512.185203,55.317878 L492.53983,55.317878 Z" id="Fill-21" fill="#DE0112"></path>
                <path d="M679.180077,35 L678.545257,35 L678.311593,35.0438653 L678.083099,35.0612075 C674.602957,35.0612075 671.831044,37.9593805 671.645974,41.8083094 L671.645974,65.389502 C671.207596,75.2214597 667.023362,80.986182 666.165217,82.0552722 C666.141437,82.0634332 665.993588,82.2827599 665.993588,82.2827599 L665.858145,82.4592414 C665.78267,82.5898173 665,84.0740981 665,85.2043958 C665,87.8444774 667.182584,90 669.856276,90 C671.399904,90 672.819462,89.3083557 673.744812,88.0923676 C673.762388,88.070945 682.112246,79.4998609 682.112246,66.0199388 L682.112246,65.8842623 C682.132925,63.7695447 682.001618,44.9859965 682.001618,44.9859965 L690.482783,44.9859965 C690.482783,47.1476398 690.494156,60.8509691 690.494156,70.782899 C690.494156,76.1793564 690.494156,80.4597978 690.482783,81.1412408 C690.531377,85.1227859 693.043778,89.1512566 697.756341,89.1359547 L703.720968,89.1288139 C703.88536,89.1512566 708.836755,89.5552258 711.477362,80.7046277 C711.477362,80.6760642 711.65416,79.9711583 711.65416,79.9711583 L711.957096,78.1430956 L711.969503,77.8462395 C712.058419,76.8556988 712.184556,74.7634239 708.662024,73.7045349 C706.528034,73.0547158 704.769353,73.984049 703.942225,76.1793564 L703.441812,77.5850876 C703.02618,78.9551145 702.836975,79.4345729 702.091526,79.4825188 C702.091526,79.4825188 700.801206,79.4957804 700.227386,79.4998609 L700.227386,41.7624038 C700.227386,41.6950756 700.049553,35.3845868 693.523512,35 L679.180077,35 Z" id="Fill-23" fill="#DE0112"></path>
                <path d="M679.862196,15.7951212 L679.862196,21.4893907 L671.088061,21.4893907 C668.283091,21.4893907 666,23.6334358 666,26.2441913 C666,28.866035 668.283091,31 671.088061,31 L700.938881,31 C703.717907,31 706,28.866035 706,26.2441913 C706,23.6334358 703.717907,21.4893907 700.938881,21.4893907 L689.300903,21.4893907 C689.291922,20.9652235 689.300903,15.7719369 689.300903,15.7719369 C689.300903,13.1500932 687.189443,11 684.580053,11 C681.971661,11 679.862196,13.1500932 679.862196,15.7951212" id="Fill-25" fill="#DE0112"></path>
                <path d="M665.370503,47.5579044 L664.892807,47.5579044 L664.892807,25.9088914 C664.892807,23.1857707 662.69229,20.9821126 660.002654,20.9821126 C660.002654,20.9821126 652.658597,21.0155936 651.914015,21.0155936 C652.074977,20.4058337 652.778021,17.6664797 652.778021,17.6664797 L653.062562,16.9288833 C653.165371,16.5463883 653.216256,16.1476601 653.216256,15.763136 C653.216256,14.9058196 652.974292,14.070824 652.522558,13.3301838 C651.845476,12.2344422 650.786237,11.4542336 649.521381,11.142759 C648.249256,10.8373717 646.93663,11.0240536 645.825468,11.6825131 C644.703921,12.3369144 643.921953,13.3717814 643.613528,14.6126073 C643.613528,14.6126073 642.070362,20.6330986 641.945746,21.0602349 C641.497127,21.0602349 635.135463,21.0947305 635.135463,21.0947305 C635.084578,21.0653078 634.936076,21.0653078 634.936076,21.0653078 C632.231902,21.0653078 630.04177,23.2811408 630.04177,25.9819409 L630.04177,47.6380558 C627.249325,47.6603765 625,49.7717082 625,52.3629341 C625,54.9450289 627.235825,57.048244 630.012692,57.0675209 C630.000231,57.5606047 629.975308,59.8129624 629.975308,59.8129624 C629.988808,59.7865834 629.936884,60.2898129 629.936884,60.2898129 L629.9535,60.4612761 C629.864191,64.2141911 629.628459,67.6901269 629.257725,70.8657483 C629.257725,70.8393694 629.201648,71.3314385 629.201648,71.3314385 C628.080101,80.5985715 626.219163,84.2611892 626.205663,84.2916265 C626.0177,84.9622609 625.879584,85.6136184 625.879584,86.2730925 C625.879584,88.8795371 628.067639,91 630.750006,91 C632.635866,91 634.382572,89.912375 635.177001,88.2525294 C635.399234,87.8548158 637.576904,83.8898546 638.87603,72.4667485 L638.940415,71.7727789 C639.293495,68.289741 639.566612,64.4282665 639.715113,60.3202501 C639.715113,60.2898129 639.775344,57.9055603 639.775344,57.0715792 C640.276925,57.0715792 642.84506,57.0675209 643.346641,57.0675209 L643.346641,68.8619616 C643.346641,71.4298523 644.990538,73.2936276 647.258556,73.2936276 C649.559804,73.2936276 651.295087,71.3841964 651.295087,68.8619616 L651.295087,57.0137484 C651.78836,57.0137484 654.608843,57.0025881 655.124962,57.0025881 L655.124962,79.8274941 C655.124962,80.2312952 655.001385,80.5265367 654.735536,80.7517724 C653.704336,81.5938701 651.057277,81.1342674 650.059308,80.9699062 L649.52865,80.8927984 C646.878476,81.0033872 645.088155,82.8417981 645.088155,85.4746216 C645.088155,87.5575452 645.888815,88.2322379 646.761129,88.9333096 L646.985438,89.1098458 C648.182794,90.1071735 650.14654,90.1883396 650.392657,90.1751501 C656.725244,90.4186482 660.170886,89.6840955 662.265479,87.6924837 C664.080724,85.9545158 664.892807,83.176608 664.892807,78.7388546 L664.892807,77.9505294 L664.892807,57.0025881 L665.370503,57.0025881 C668.040408,57.0025881 670,55.0119909 670,52.2827827 C670,49.547487 668.040408,47.5579044 665.370503,47.5579044 L665.370503,47.5579044 Z M654.899615,47.6076186 C654.410495,47.6076186 651.295087,47.6258809 650.382272,47.6258809 C651.039623,46.8629201 651.478896,45.9366126 651.478896,44.8733375 C651.478896,44.6136061 651.474742,44.363006 651.430088,44.1205224 L650.353195,37.4121489 C650.189117,36.2413288 649.571227,35.2531322 648.658413,34.6240953 C647.790252,34.0356415 646.712321,33.8185224 645.643736,34.0295541 C643.613528,34.4110345 642.212632,36.1997312 642.212632,38.272509 C642.212632,38.4997739 642.230286,38.73617 642.260402,38.9766244 L643.32691,45.6910854 C643.451527,46.4641919 643.722567,47.0800393 644.098493,47.6258809 C643.258371,47.6258809 640.290425,47.6258809 639.802345,47.6339975 L639.802345,30.9066905 C640.392195,30.9066905 654.306649,30.8803116 654.899615,30.8803116 L654.899615,47.6076186 Z" id="Fill-27" fill="#DE0112"></path>
                <path d="M414.147734,113.509893 C413.340782,114.501845 412.931254,116.027061 412.931254,118.066132 L412.931254,144.236923 C411.891294,142.436902 397.905804,118.566705 397.905804,118.566705 C395.355835,114.204566 392.732232,112 390.112663,112 C387.849162,112 386.229205,112.559825 385.327436,113.652914 C384.42365,114.749067 384,116.724799 384,119.681247 L384,154.913437 C384,156.989284 384.386328,158.545148 385.180168,159.504409 C385.989137,160.496362 387.277235,161 388.999069,161 C390.703755,161 391.984792,160.488189 392.815953,159.480913 C393.653166,158.49509 394.054624,156.956593 394.054624,154.913437 L394.054624,128.830501 C395.115767,130.613155 409.752871,155.558053 409.752871,155.558053 C411.156968,157.95774 412.335118,159.434942 413.35793,160.06117 C414.371664,160.674117 415.76063,161 417.502638,161 C419.512958,161 420.95942,160.415657 421.785537,159.292943 C422.594507,158.163077 423,156.246596 423,153.420911 L423,118.066132 C423,116.014802 422.594507,114.467111 421.785537,113.486396 C420.971524,112.505681 419.686453,112 417.985801,112 C416.259932,112 414.977886,112.505681 414.147734,113.509893" id="Fill-29" fill="#1C1D80"></path>
                <path d="M365.258776,113.36375 C364.431128,114.27496 364,115.650968 364,117.482582 L364,155.536827 C364,157.30817 364.456838,158.673963 365.275586,159.60969 C366.1062,160.536223 367.371898,161 368.999506,161 C370.659745,161 371.929398,160.536223 372.766934,159.60969 C373.587659,158.713803 374,157.345967 374,155.536827 L374,117.482582 C374,115.686722 373.574805,114.296412 372.754079,113.385202 C371.912588,112.454583 370.647879,112 368.999506,112 C367.348166,112 366.091368,112.454583 365.258776,113.36375" id="Fill-31" fill="#1C1D80"></path>
                <path d="M346.030453,113.36375 C345.194343,114.27496 344.761178,115.650968 344.761178,117.482582 L344.761178,130.219088 L326.162263,130.219088 L326.162263,117.482582 C326.162263,115.686722 325.741186,114.296412 324.890972,113.385202 C324.037737,112.454583 322.740256,112 321.07408,112 C319.384735,112 318.099341,112.454583 317.25215,113.36375 C316.409996,114.27496 316,115.650968 316,117.482582 L316,155.536827 C316,157.30817 316.409996,158.673963 317.25215,159.60969 C318.099341,160.524986 319.384735,161 321.07408,161 C322.759396,161 324.074002,160.536223 324.904068,159.60969 C325.755289,158.713803 326.162263,157.345967 326.162263,155.536827 L326.162263,139.514041 L344.761178,139.514041 L344.761178,155.536827 C344.761178,157.325536 345.194343,158.690308 346.060674,159.60969 C346.907865,160.536223 348.187214,161 349.869508,161 C351.571949,161 352.876482,160.536223 353.731732,159.617862 C354.573886,158.713803 355,157.345967 355,155.536827 L355,117.482582 C355,115.686722 354.567842,114.296412 353.697482,113.385202 C352.83518,112.454583 351.554824,112 349.869508,112 C348.177141,112 346.883688,112.454583 346.030453,113.36375" id="Fill-33" fill="#1C1D80"></path>
                <path d="M271.956769,117.945429 C268.001676,122.560551 266,129.045915 266,137.252645 C266,144.888688 267.984584,150.971883 271.886394,155.375066 C275.799263,159.768944 281.246314,162 288.047587,162 C291.271783,162 294.155161,161.542003 296.599196,160.660126 C299.060322,159.757571 301.399799,158.302939 303.566354,156.345854 C304.884383,155.111433 305.962131,153.745713 306.765416,152.285911 C307.567694,150.786823 308,149.383884 308,148.146361 C308,146.821995 307.507373,145.688891 306.55429,144.769795 C305.594169,143.851733 304.439008,143.374093 303.079759,143.374093 C302.176944,143.374093 301.346515,143.608778 300.615617,144.03059 C299.928954,144.444131 299.142761,145.214352 298.325402,146.299899 L297.581434,147.619096 L296.544906,149.278431 C295.697386,150.299878 294.590483,151.107318 293.226206,151.670768 C291.860925,152.208372 290.310657,152.482343 288.588472,152.482343 C284.678619,152.482343 281.631367,151.107318 279.530161,148.342793 C277.418901,145.591709 276.339142,141.580357 276.339142,136.470018 C276.339142,131.463065 277.405831,127.496169 279.514075,124.659274 C281.608244,121.867869 284.527815,120.43805 288.173257,120.43805 C289.908512,120.43805 291.47185,120.733732 292.810992,121.317859 C294.145107,121.879242 295.314343,122.770424 296.293566,123.944881 L297.200402,125.286823 C297.647788,126.041537 298.038874,126.576039 298.423928,126.932718 C299.129692,127.629536 299.87366,128.156801 300.600536,128.493837 C301.346515,128.822603 302.133713,129.012832 302.955094,129.012832 C304.425938,129.012832 305.594169,128.540361 306.476877,127.629536 C307.352547,126.726982 307.786863,125.496696 307.786863,124.00071 C307.786863,122.640158 307.365617,121.220677 306.527145,119.754673 C305.679625,118.310379 304.52748,117.023231 303.066689,115.9015 C300.97252,114.227691 298.723525,112.976728 296.382038,112.196169 C294.035523,111.400101 291.437668,111 288.639745,111 C281.544906,111 275.941019,113.349949 271.956769,117.945429" id="Fill-35" fill="#1C1D80"></path>
                <path d="M469.879962,155.130501 C469.737714,154.662657 469.493007,153.824011 469.493007,153.824011 L456.56831,117.072734 C455.779479,114.881632 454.924,113.529175 453.963078,112.909129 C452.98823,112.292147 451.509047,112 449.417102,112 C447.210762,112 445.682836,112.30134 444.721915,112.959182 C443.77293,113.598637 442.941324,114.995018 442.179351,117.200421 L429.485435,153.83014 C429.485435,153.824011 429.11738,155.130501 429.11738,155.130501 L429,156.430862 C429,157.796598 429.468524,158.921262 430.366777,159.740499 C431.262046,160.575059 432.431864,161 433.855341,161 C435.101754,161 436.123355,160.680273 436.939045,160.083721 C437.740808,159.456524 438.328701,158.510621 438.738535,157.267464 C438.738535,157.267464 440.453472,151.748337 440.774774,150.727866 L458.147962,150.727866 C458.277279,151.123184 460.260797,157.273593 460.260797,157.273593 C460.660683,158.534116 461.25355,159.48104 462.041387,160.101086 C462.828228,160.690488 463.840877,161 465.071374,161 C466.511762,161 467.711422,160.575059 468.596744,159.736413 C469.524839,158.888574 469.999331,157.770039 469.999331,156.430862 C469.999331,156.430862 470.016242,155.606517 469.879962,155.130501 L469.879962,155.130501 Z M443.281527,142.053347 C443.509323,141.321958 448.710834,124.889199 449.224122,123.291584 C449.739399,124.871834 454.970753,141.321958 455.202528,142.053347 L443.281527,142.053347 Z" id="Fill-37" fill="#1C1D80"></path>
                <path d="M790.163322,113.509893 C789.350359,114.501845 788.926731,116.027061 788.926731,118.066132 L788.926731,144.236923 C787.880774,142.436902 773.903067,118.566705 773.903067,118.566705 C771.359282,114.204566 768.739849,112 766.123442,112 C763.839885,112 762.24422,112.559825 761.335437,113.652914 C760.431697,114.749067 760,116.724799 760,119.681247 L760,154.913437 C760,157.027082 760.39236,158.527781 761.195236,159.504409 C761.991052,160.496362 763.275048,161 765.01394,161 C766.707443,161 767.978327,160.488189 768.817514,159.480913 C769.643589,158.47568 770.067217,156.956593 770.067217,154.913437 L770.067217,128.830501 C771.107123,130.595789 785.749522,155.558053 785.749522,155.558053 C787.147494,157.95774 788.33567,159.434942 789.373558,160.056062 C790.375136,160.674117 791.775125,161 793.513009,161 C795.510112,161 796.946413,160.415657 797.766436,159.292943 C798.596545,158.163077 799,156.246596 799,153.420911 L799,118.066132 C799,116.014802 798.579398,114.467111 797.789634,113.486396 C796.969612,112.505681 795.694693,112 793.974965,112 C792.264315,112 790.978301,112.505681 790.163322,113.509893" id="Fill-39" fill="#1C1D80"></path>
                <path d="M676.079029,112 C673.823452,112 672.213472,112.561301 671.321266,113.674669 C670.438083,114.784958 670,116.772602 670,119.769972 L670,152.269021 C670,155.249973 670.438083,157.229408 671.321266,158.331488 C672.213472,159.437672 673.823452,160 676.079029,160 L700.534488,160 C702.29083,160 703.644176,159.606986 704.567458,158.832247 C705.506781,158.028775 706,156.869231 706,155.344379 C706,153.801056 705.525828,152.611754 704.614575,151.85138 C703.68227,151.081771 702.313887,150.702097 700.534488,150.702097 L679.991702,150.702097 L679.991702,139.062531 L697.31954,139.062531 C699.06285,139.062531 700.371084,138.702354 701.300381,137.969686 C702.247724,137.224704 702.722898,136.134938 702.722898,134.73425 C702.722898,133.273019 702.270781,132.150416 701.340481,131.426983 C700.43825,130.699446 699.099942,130.340295 697.31954,130.340295 L679.991702,130.340295 L679.991702,120.853582 L699.308457,120.853582 C701.061792,120.853582 702.419147,120.481091 703.343432,119.751502 C704.288769,119.003442 704.770962,117.932146 704.770962,116.496569 C704.770962,115.021998 704.288769,113.892212 703.343432,113.135943 C702.434185,112.376595 701.061792,112 699.308457,112 L676.079029,112 Z" id="Fill-41" fill="#1C1D80"></path>
                <path d="M630.995029,112 C629.380505,112 628.126447,112.402311 627.287379,113.149904 C626.438214,113.931714 626,115.062954 626,116.571619 C626,118.073026 626.416,119.20634 627.259107,119.965338 C628.066874,120.707747 629.336078,121.077914 630.995029,121.077914 L640.398447,121.077914 L640.398447,155.454747 C640.398447,157.25374 640.847767,158.646275 641.691883,159.588802 C642.550136,160.535476 643.839534,161 645.532816,161 C647.207922,161 648.493282,160.535476 649.335379,159.588802 C650.169398,158.679455 650.61165,157.291068 650.61165,155.454747 L650.61165,121.077914 L660.026175,121.077914 C661.647767,121.077914 662.907883,120.69012 663.725748,119.929048 C664.574913,119.17316 665,118.039846 665,116.571619 C665,115.062954 664.574913,113.931714 663.725748,113.149904 C662.907883,112.402311 661.647767,112 660.026175,112 L630.995029,112 Z" id="Fill-43" fill="#1C1D80"></path>
                <path d="M502.093619,112 C499.823683,112 498.244859,112.561301 497.328058,113.674669 C496.442352,114.784958 496,116.772602 496,119.769972 L496,152.269021 C496,155.249973 496.442352,157.229408 497.328058,158.331488 C498.244859,159.437672 499.81265,160 502.093619,160 L526.548342,160 C528.307718,160 529.654834,159.606986 530.583672,158.832247 C531.530566,158.028775 532,156.869231 532,155.344379 C532,153.801056 531.53859,152.611754 530.594706,151.865746 C529.697966,151.081771 528.32477,150.702097 526.548342,150.702097 L506.021622,150.702097 L506.021622,139.062531 L523.334522,139.062531 C525.056785,139.062531 526.395876,138.702354 527.300641,137.969686 C528.251546,137.224704 528.73703,136.134938 528.73703,134.741433 C528.73703,133.273019 528.264586,132.150416 527.335748,131.426983 C526.451045,130.699446 525.096907,130.340295 523.334522,130.340295 L506.021622,130.340295 L506.021622,120.853582 L525.324603,120.853582 C527.073948,120.853582 528.438116,120.481091 529.343884,119.751502 C530.278741,119.003442 530.755196,117.932146 530.755196,116.496569 C530.755196,115.021998 530.278741,113.892212 529.343884,113.135943 C528.438116,112.379674 527.073948,112 525.324603,112 L502.093619,112 Z" id="Fill-45" fill="#1C1D80"></path>
                <path d="M589.796146,114.854838 C586.618661,117.438531 585,121.060464 585,125.67509 C585,129.74213 586.108519,132.895147 588.281947,135.036839 C590.44929,137.173354 594.631846,138.959995 600.727181,140.372953 L601.395538,140.542714 C609.073022,142.338671 612.964503,144.601474 612.964503,147.280399 C612.964503,149.216099 612.244422,150.643549 610.79716,151.628996 C609.326572,152.636181 607.126775,153.139256 604.204868,153.139256 C602.361055,153.139256 600.759635,152.85977 599.414807,152.320465 C598.130832,151.763563 596.993915,150.933386 596.096349,149.813371 L594.790061,147.900444 C593.275862,145.557937 591.617647,144.364428 589.832657,144.364428 C588.444219,144.364428 587.301217,144.867503 586.442191,145.820861 C585.598377,146.762833 585.168357,148.021555 585.168357,149.505937 C585.168357,150.933386 585.598377,152.389819 586.466531,153.881447 C587.301217,155.351337 588.481744,156.636973 589.893509,157.686598 C591.993915,159.198928 594.188641,160.299275 596.418864,160.965901 C598.633874,161.665652 601.310345,162 604.34787,162 C610.075051,162 614.665314,160.567375 617.981744,157.772514 C621.325558,154.961091 623,151.096937 623,146.267004 C623,143.637764 622.533469,141.370821 621.56998,139.548986 C620.619675,137.697132 619.124746,136.17445 617.135903,135.023382 C616.008114,134.403337 614.65213,133.80917 613.090264,133.274006 C611.535497,132.739877 609.053753,132.047373 605.703854,131.199598 L602.707911,130.464653 C597.542596,129.226633 594.942191,127.415149 594.942191,125.072642 C594.942191,123.332582 595.573022,122.008646 596.87931,121.02734 C598.184584,120.075017 600.092292,119.588504 602.515213,119.588504 C604.204868,119.588504 605.675456,119.822444 606.910751,120.305852 C608.100406,120.782013 609.119675,121.501431 609.911765,122.442367 L610.832657,123.661755 C612.43712,125.816903 614.168357,126.91518 615.925963,126.91518 C617.290061,126.91518 618.411765,126.480424 619.272819,125.644036 C620.108519,124.789015 620.524341,123.661755 620.524341,122.263289 C620.524341,121.009742 620.089249,119.681666 619.242394,118.256287 C618.394523,116.865067 617.278905,115.667418 615.912779,114.702673 C614.204868,113.466723 612.261663,112.516471 610.129817,111.907812 C608.01217,111.303294 605.63286,111 603.054767,111 C597.40568,111 592.950304,112.304268 589.796146,114.854838" id="Fill-47" fill="#1C1D80"></path>
                <path d="M751.120696,151.501561 C751.019199,150.977602 750.937801,150.012359 750.895594,148.613068 L750.703655,145.131375 C750.51473,142.919792 749.938912,141.13709 749.012376,139.806007 C748.210451,138.625807 747.002539,137.794913 745.539377,137.15314 C747.514042,136.38012 749.066642,135.103809 750.177077,133.305606 C751.389009,131.33275 752,128.817332 752,125.862699 C752,121.200806 750.740837,117.676741 748.240599,115.413485 C745.764479,113.142996 741.923679,112 736.799598,112 L720.097847,112 C717.833765,112 716.23293,112.565297 715.340562,113.68659 C714.440154,114.802716 714,116.80761 714,119.825284 L714,155.408002 C714,157.201038 714.42709,158.581727 715.252129,159.528367 C716.112339,160.471907 717.390596,160.933859 719.069815,160.933859 C720.753054,160.933859 722.040355,160.471907 722.893531,159.528367 C723.719575,158.622031 724.14968,157.224807 724.14968,155.408002 L724.14968,141.789197 L733.963717,141.789197 C736.307188,141.789197 737.959274,142.214979 738.849632,143.05104 C739.74602,143.881934 740.321838,146.189628 740.560004,149.910048 C740.886603,154.868541 741.471466,157.861412 742.374888,159.099485 C743.267256,160.35306 744.787698,161 746.875919,161 C748.395356,161 749.618342,160.569051 750.548897,159.718522 C751.465383,158.860758 751.939705,157.695027 751.939705,156.233728 C751.939705,155.792445 751.821124,155.03906 751.582959,153.929135 L751.120696,151.501561 Z M740.23843,131.417493 C739.163167,132.378601 737.404559,132.865356 735.056064,132.865356 L724.14968,132.865356 L724.14968,120.848399 L735.505263,120.848399 C737.598508,120.848399 739.198339,121.366158 740.267573,122.378939 C741.323743,123.375185 741.85233,124.882988 741.85233,126.863078 C741.85233,128.951681 741.323743,130.470852 740.23843,131.417493 L740.23843,131.417493 Z" id="Fill-49" fill="#1C1D80"></path>
                <path d="M579.877787,155.130501 C579.741505,154.662657 579.492814,153.824011 579.492814,153.824011 L566.570845,117.072734 C565.782993,114.881632 564.923518,113.529175 563.962577,112.909129 C562.98771,112.292147 561.508498,112 559.417506,112 C557.208138,112 555.69013,112.30134 554.723221,112.959182 C553.775212,113.598637 552.940606,114.995018 552.178617,117.200421 L539.486439,153.83014 C539.486439,153.824011 539.118377,155.130501 539.118377,155.130501 L539,156.430862 C539,157.796598 539.467539,158.921262 540.364815,159.740499 C541.259106,160.575059 542.431932,161 543.855437,161 C545.103864,161 546.125486,160.680273 546.938207,160.083721 C547.739986,159.456524 548.325901,158.510621 548.737733,157.267464 C548.737733,157.267464 550.450714,151.748337 550.774012,150.727866 L568.153513,150.727866 C568.283827,151.123184 570.26241,157.273593 570.26241,157.273593 C570.658326,158.534116 571.254189,159.48104 572.041046,160.101086 C572.828898,160.690488 573.841567,161 575.078057,161 C576.514494,161 577.714178,160.575059 578.594543,159.736413 C579.524646,158.888574 579.999148,157.770039 579.999148,156.430862 C579.999148,156.430862 580.018049,155.606517 579.877787,155.130501 L579.877787,155.130501 Z M553.280815,142.053347 C553.513589,141.321958 558.712219,124.889199 559.221538,123.291584 C559.746773,124.871834 564.977235,141.321958 565.207026,142.053347 L553.280815,142.053347 Z" id="Fill-51" fill="#1C1D80"></path>
                <g id="编组" transform="translate(895.000000, 37.000000)">
                    <mask id="mask-4" fill="white">
                        <use xlink:href="#path-3"></use>
                    </mask>
                    <g id="Clip-54"></g>
                    <path d="M101.329781,0 L101.273072,0.0520196342 C113.701446,12.6754509 121.918168,29.7032111 123.230575,48.8046168 C126.165263,91.0975994 94.5419217,127.736762 52.6309694,130.675361 C32.8982799,132.067651 14.4304026,125.767156 0.0567089505,114.319776 L0,114.411575 C14.911416,128.372217 35.3215749,136.361821 57.2183184,134.808372 C99.1201568,131.847333 130.742485,95.2234704 127.811848,52.9957673 C126.329314,31.6156977 116.285754,12.8631295 101.329781,0" id="Fill-53" fill="#00307B" mask="url(#mask-4)"></path>
                </g>
                <path d="M860.759373,123.645745 C858.285087,124.959863 857.783488,126.940406 859.009393,129.982694 C860.136204,132.741061 861.96076,133.972369 863.901776,133.206375 C865.463784,132.624732 865.711008,131.330331 865.053105,127.990321 L864.805881,126.678174 C864.157173,123.418017 864.060122,121.9994 864.443218,120.579797 C864.86922,118.964999 865.820318,117.943674 867.262799,117.412308 C870.720873,116.041997 874.012429,118.146756 875.954467,122.842289 C878.072218,127.918355 876.944385,131.772971 872.82943,133.415372 L871.787411,130.91628 C874.661137,129.729334 875.382378,127.140531 873.834673,123.449564 C872.581185,120.426007 870.60952,119.098087 868.488705,119.909429 C866.820452,120.538392 866.432249,122.083196 867.058482,125.489257 L867.524326,128.19636 C867.99017,130.726999 868.02899,131.63101 867.784831,132.741061 C867.420124,134.083768 866.530321,135.081434 865.078645,135.603926 C861.814673,136.881569 858.676355,135.015383 856.933527,130.768404 C855.040525,126.155681 856.059048,122.773281 859.692835,121.166369 L860.759373,123.645745 Z" id="Fill-55" fill="#00307B"></path>
                <polygon id="Fill-57" fill="#00307B" points="859.046187 96.5616287 870.594855 87 870.668794 90.5191414 860.902765 98.5064173 864.089233 101.926975 870.955434 101.792543 871 104.563842 851.374759 105 851.308923 102.229697 861.098248 102.035517 851.066849 91.4522018 851 87.7836911"></polygon>
                <polygon id="Fill-59" fill="#00307B" points="867.480526 66.356775 875 68.9981173 874.079413 71.5966 866.536672 68.9981173 853 73 854.12696 69.8044742 864.997977 66.8940141 858.298938 58.0400354 859.375316 55"></polygon>
                <polygon id="Fill-61" fill="#00307B" points="880.889797 29.2667369 876.793755 34.3241548 889 44.4078153 886.080247 48 873.855029 37.9294129 869.776961 42.9365482 867 40.6718226 878.104847 27"></polygon>
                <polygon id="Fill-63" fill="#00307B" points="907.738531 11.124748 897.873971 16.8853721 899.973114 20.5141118 909.026046 15.1818805 910.736011 18.0838642 901.674004 23.3727522 904.108889 27.5367309 914.160981 21.642045 916 24.765785 901.85347 33 892 16.1293847 905.907579 8"></polygon>
                <path d="M946,18.5850836 L941.017618,18.9328899 L938.527414,14.7221286 L930.812121,15.9850563 L929.733756,20.7420839 L925,22 L930.02086,0.777803089 L934.719098,0 L946,18.5850836 Z M933.013249,4.62171397 L931.390275,12.7535651 L936.961663,11.8494692 L933.013249,4.62171397 Z" id="Fill-65" fill="#00307B"></path>
                <g id="编组" transform="translate(955.000000, 0.000000)">
                    <mask id="mask-6" fill="white">
                        <use xlink:href="#path-5"></use>
                    </mask>
                    <g id="Clip-68"></g>
                    <polygon id="Fill-67" fill="#00307B" mask="url(#mask-6)" points="21.9558796 25 17.8976555 23.4359233 22.255935 8.12008073 12.9233155 21.9424823 9.41336533 21.0181635 7.94897545 4.40060545 4.27055566 19.8183653 0 19.1422805 4.82481078 -2.86798279e-14 11.2984309 1.27547931 12.4159129 16.7507568 20.8254384 3.82240161 27 5.95257316"></polygon>
                </g>
                <path d="M940.003682,63.5176329 C937.627326,65.6463298 932.877651,70.2041734 928.357718,74.6220115 L923.186007,79.6254201 C918.972732,78.8742956 914.831315,78.4644985 910.527966,78.4644985 C900.977,78.4644985 892.198248,81.1644588 888.236981,85.2777593 C886.713806,86.8627852 885.942604,88.5786192 886.003328,90.3670107 C886.085306,95.0597501 891.395672,97.3948785 892.999813,98.0243924 C901.483038,101.19751 908.588827,100.291051 916.093375,94.9810609 C920.202405,92.061384 925.195991,87.3839736 929.082364,83.601781 C932.091268,84.3079401 935.500954,85.1888507 939.198069,86.3037851 L942.622936,87.2899553 C938.182956,91.6965521 929.160294,100.323753 929.160294,100.323753 C923.313528,105.501913 919.09823,109.264689 913.034879,110.616713 C908.75076,111.583466 905.696313,110.669854 904.719659,110.068954 C904.605294,110.084283 904.494978,110.254947 904.494978,110.254947 C907.997775,113.184843 911.322446,114.833229 917.094318,114.347808 C922.532205,113.8583 928.86578,110.394952 935.291454,104.288872 L944.036807,95.6371451 L950.147725,89.5188022 C950.147725,89.5433287 962.456599,93.1957352 962.456599,93.1957352 C962.604362,93.1957352 962.70557,93.2325249 962.70557,93.2325249 C962.604362,93.2325249 955.057308,100.761142 955.057308,100.761142 L948.520306,107.36695 C941.761659,113.932902 938.114135,117.339021 934.198411,120.147307 C927.692783,124.801213 922.150653,127.21503 917.264347,127.549204 C914.710878,127.721911 911.060318,127.540007 907.997775,125.739352 C907.838879,125.72811 907.692128,125.885489 907.692128,125.885489 C911.006678,128.753047 915.068141,132.180627 922.049445,131.99259 C929.967931,131.733018 936.981622,127.925277 947.924193,117.795827 C952.88438,113.184843 957.813192,108.039385 962.186375,103.474388 L970.300192,95.160922 C975.627763,96.3606773 980.385534,96.8399662 985.698936,96.7479918 C993.378572,96.5711965 999.920635,92.8738247 999.998565,88.6266503 C1000.06941,85.4627301 997.50076,83.7918614 995.987706,82.8036474 C994.736779,81.9544169 991.287622,80.005581 986.545032,80.005581 C980.805546,80.005581 974.764461,82.6023256 968.68087,87.6496775 L964.609286,91.3000401 C964.642684,91.2867549 963.149872,90.8830894 963.149872,90.8830894 L951.825748,87.6496775 C955.172685,84.5307226 958.006499,81.8460914 960.543775,79.527314 C966.747803,73.9965854 973.554018,71.6829177 977.560829,71.4417404 C980.502935,71.2475721 985.524859,71.5051005 987.624918,73.0175688 C987.720053,72.9848668 987.873888,72.7559527 987.873888,72.7559527 C982.314552,67.9835021 977.486947,67.3304837 973.534788,67.3304837 C969.637282,67.3304837 963.374552,68.5823578 955.680747,74.5719365 C952.557479,77.0266317 948.520306,81.1644588 944.232138,85.4862347 C944.232138,85.4627301 938.543256,83.7131722 938.543256,83.7131722 L937.14153,83.2962215 L931.154085,81.4260749 C931.260353,81.4260749 934.559722,78.1609829 934.559722,78.1609829 C938.618149,74.168271 942.423557,70.3799468 945.416267,67.819992 C956.246498,58.6286814 963.05676,57.4197287 967.778097,57.3870267 C972.977134,57.3870267 977.120576,58.4580177 980.080899,60.6020437 C980.158829,60.5908024 980.286351,60.3945903 980.286351,60.3945903 C974.219964,54.8403571 969.815407,53.0540094 962.28151,53.0008686 C955.663542,52.9344427 947.716717,56.6798455 940.003682,63.5176329 M897.432708,96.3606773 C893.928899,96.1164341 892.198248,94.7082035 892.198248,91.9520366 C892.198248,91.5953802 892.454304,82.9109509 912.132107,81.9268245 C914.363736,81.8011262 916.861541,81.7193711 920.689214,82.1628922 C920.53133,82.1680019 918.44038,84.0984428 918.44038,84.0984428 L917.208683,85.2307502 C912.472165,89.587272 904.54457,96.8614269 897.432708,96.3606773 M977.024428,89.3328094 C982.693069,85.4627301 987.389104,83.3922837 990.328174,83.5230917 C992.057813,83.5537499 994.121437,84.0984428 994.121437,86.2445127 C994.121437,88.4897106 992.049716,90.3302209 987.944734,91.8334918 C984.369067,93.1282873 978.828961,93.4604171 972.830383,92.7757186 C974.460838,91.2867549 975.863577,90.1227675 977.024428,89.3328094" id="Fill-69" fill="#00307B"></path>
                <path d="M986.219987,9.83266123 C986.906362,8.2596455 988.660329,7.60233616 990.162656,8.24361356 C991.726954,8.91884094 992.387978,10.6455746 991.771085,12.1648362 C991.106305,13.7265353 989.355155,14.4140224 987.854706,13.7444534 C986.288531,13.0946885 985.6153,11.3340048 986.219987,9.83266123 L986.219987,9.83266123 Z M991.226491,12.2176473 C990.531665,13.4521063 988.976757,13.8830825 987.792735,13.2135134 C986.588996,12.538286 986.111068,10.9973342 986.780543,9.77419182 C987.46504,8.53596061 989.015254,8.12856085 990.258429,8.80756045 C991.405831,9.43752119 991.91005,10.9822453 991.226491,12.2176473 L991.226491,12.2176473 Z M989.457501,13.0946885 L988.976757,12.8306331 L988.868777,11.0407147 L988.388971,10.7728871 L987.657526,12.1063668 L987.225607,11.8828628 L988.842486,8.98768396 L990.055615,9.69025993 C990.58988,9.96846115 991.019921,10.4060387 990.66218,10.9973342 C990.38331,11.578256 989.861252,11.578256 989.334498,11.3113715 L989.457501,13.0946885 Z M989.087553,10.6455746 C989.445295,10.839844 990.025569,11.2330979 990.258429,10.7992926 C990.425563,10.4824261 990.055615,10.2098832 989.764539,10.0410764 L989.015254,9.64970856 L988.583335,10.3588859 L989.087553,10.6455746 Z" id="Fill-71" fill="#00307B"></path>
            </g>
        </g>
    </g>
</svg>