<?xml version="1.0" encoding="UTF-8"?>
<svg width="1024px" height="767px" viewBox="0 0 1024 767" version="1.1" xmlns="http://www.w3.org/2000/svg" xmlns:xlink="http://www.w3.org/1999/xlink">
    <title>中国商用飞机有限责任公司@2x</title>
    <g id="页面-1" stroke="none" stroke-width="1" fill="none" fill-rule="evenodd">
        <g id="52.中国商用飞机有限责任公司" transform="translate(0.000000, -1.000000)">
            <g id="中国商用飞机有限责任公司" transform="translate(0.000000, 1.000000)">
                <path d="M141.779535,2.72316512 C89.69249,10.5171116 28,39.3390209 28,39.3390209 C28,39.3390209 363.290731,294.028452 416.445047,331.983402 C520.388941,406.229896 570.843688,413.396142 667.044629,349.757785 C667.442241,349.47532 698.591926,329.148289 699,328.886747 C670.079029,330.330458 640.111714,314.041633 606.429875,288.912694 C498.834238,208.242733 284.166136,48.4720615 269.789359,37.738385 C219.805467,0.47390541 188.488367,-4.27569417 141.779535,2.72316512" id="Fill-4" fill="#004DA1"></path>
                <path d="M859.859148,47.5222465 C806.303752,7.37351079 767.735094,-21.0551755 705.344311,20.1893796 C698.618556,24.6144027 501.660441,154.609893 492,161.0387 C545.910482,201.354418 584.573134,230.252741 647.172791,188.789022 C655.882854,183.00727 800.131514,87.8379642 810.021716,81.3778479 C838.919489,62.5714996 852.778306,56.9984752 870,54.8068364 C869.822457,54.6398544 860.026247,47.6892285 859.859148,47.5222465" id="Fill-6" fill="#7FBE26"></path>
                <path d="M612.668746,254.393635 C666.460025,294.564701 705.150343,323.129863 767.765361,281.756384 C774.461763,277.270858 988.295982,136.494381 998,130.064083 C943.925774,89.6420788 905.183059,60.7005095 842.347971,102.272648 C833.576628,108.033777 672.601012,213.95072 662.729322,220.433297 C633.732543,239.274593 607.408036,241.104353 588,235.960114 C588.188631,236.116951 612.438197,254.226343 612.668746,254.393635" id="Fill-8" fill="#7FBE26"></path>
                <polygon id="Fill-10" fill="#004DA1" points="791 575 791 552 918 552 907.010621 575"></polygon>
                <path d="M1004,603.967694 L974.489583,583 C974.489583,583 931.15625,622.767753 881,627.092601 L881,653 C881,653 961.8125,642.505732 1004,603.967694" id="Fill-12" fill="#004DA1"></path>
                <path d="M984.271131,685 L1006,656.958826 C1006,656.958826 943.734219,630.077404 889,637.201602 L889,666.827082 C889,666.827082 926.58479,655.954396 984.271131,685" id="Fill-14" fill="#004DA1"></path>
                <path d="M1010.43078,716.907275 C1010.43078,716.907275 974.03345,736.077595 935.669267,721.64249 C892.262396,705.309128 907.076599,625.644873 920.698134,553 L881.245902,553 C877.291263,571.221191 862.016731,661.305004 870.55373,699.739513 C880.095081,742.627628 935.941279,788.842908 1024,753.401806 L1010.43078,716.907275 Z" id="Fill-16" fill="#004DA1"></path>
                <polygon id="Fill-18" fill="#004DA1" points="530 588 756 588 756 566 530 566"></polygon>
                <polygon id="Fill-20" fill="#004DA1" points="537 632 750 632 750 610 537 610"></polygon>
                <polygon id="Fill-21" fill="#004DA1" points="537 767 572 767 572 624 537 624"></polygon>
                <path d="M749.991431,739.425961 L749.560547,624 L714.564367,624 L714.564367,736.845447 C714.564367,736.845447 714.564367,739.321908 713.303243,740.64338 C712.063139,741.985664 707.670225,742.110527 707.670225,742.110527 L699,742.110527 L699,767 L727.21764,767 C727.21764,767 737.62191,767.031214 744.179753,759.466563 C750.474861,752.203665 749.991431,739.425961 749.991431,739.425961" id="Fill-22" fill="#004DA1"></path>
                <polygon id="Fill-23" fill="#004DA1" points="626 588 661 588 661 552 626 552"></polygon>
                <polygon id="Fill-24" fill="#004DA1" points="587 737 615 737 615 661 587 661"></polygon>
                <polygon id="Fill-25" fill="#004DA1" points="670 737 698 737 698 661 670 661"></polygon>
                <polygon id="Fill-26" fill="#004DA1" points="587 679 698 679 698 661 587 661"></polygon>
                <polygon id="Fill-27" fill="#004DA1" points="587 737 698 737 698 719 587 719"></polygon>
                <polygon id="Fill-28" fill="#004DA1" points="569.096447 679 559 657.90753 617.901149 626 637 642.222591"></polygon>
                <polygon id="Fill-29" fill="#004DA1" points="717.911277 679 728 657.90753 669.072688 626 650 642.222591"></polygon>
                <polygon id="Fill-30" fill="#004DA1" points="631 611 592.814207 611 574 580 612.217343 580"></polygon>
                <polygon id="Fill-31" fill="#004DA1" points="655 611 693.203246 611 712 580 673.807267 580"></polygon>
                <polygon id="Fill-32" fill="#004DA1" points="0 605 227 605 227 582 0 582"></polygon>
                <polygon id="Fill-33" fill="#004DA1" points="0 732 227 732 227 709 0 709"></polygon>
                <polygon id="Fill-34" fill="#004DA1" points="94 767 134 767 134 554 94 554"></polygon>
                <polygon id="Fill-35" fill="#004DA1" points="0 727 40 727 40 586 0 586"></polygon>
                <polygon id="Fill-36" fill="#004DA1" points="188 727 228 727 228 586 188 586"></polygon>
                <polygon id="Fill-37" fill="#004DA1" points="455 761 492 761 492 556 455 556"></polygon>
                <polygon id="Fill-38" fill="#004DA1" points="264 761 301 761 301 556 264 556"></polygon>
                <polygon id="Fill-39" fill="#004DA1" points="264 578 491 578 491 556 264 556"></polygon>
                <polygon id="Fill-40" fill="#004DA1" points="264 764 491 764 491 742 264 742"></polygon>
                <path d="M446.991971,711.792512 C446.949983,707.715381 447.117934,706.024357 446.803025,703.54488 C446.099728,692.797023 442.793183,689 442.793183,689 L414,689.134867 C414,689.134867 417.243563,694.446549 416.718715,712 L446.991971,711.792512 Z" id="Fill-41" fill="#004DA1"></path>
                <polygon id="Fill-42" fill="#004DA1" points="361 720 395 720 395 600 361 600"></polygon>
                <polygon id="Fill-43" fill="#004DA1" points="309 616 446 616 446 594 309 594"></polygon>
                <polygon id="Fill-44" fill="#004DA1" points="446 727 309 727 309 705 445.759942 705 446 712.864438"></polygon>
                <polygon id="Fill-45" fill="#004DA1" points="315 670 441 670 441 648 315 648"></polygon>
            </g>
        </g>
    </g>
</svg>