<?xml version="1.0" encoding="UTF-8"?>
<svg width="910px" height="768px" viewBox="0 0 910 768" version="1.1" xmlns="http://www.w3.org/2000/svg" xmlns:xlink="http://www.w3.org/1999/xlink">
    <title>中国节能环保集团有限公司@2x</title>
    <defs>
        <path d="M186.788422,0.00188642952 C162.528908,0.254667985 143.052775,19.4000412 143.286202,42.7596979 L143.286202,42.7596979 C143.570457,66.1193547 163.432498,84.8591455 187.686364,84.6157961 L187.686364,84.6157961 C211.95529,84.3630146 231.405069,65.2100957 231.162229,41.8523253 L231.162229,41.8523253 C230.923154,18.6473558 211.288893,-0.00188642952 187.270336,0 L187.270336,0 C187.112208,0 186.948432,0 186.788422,0.00188642952 L186.788422,0.00188642952 Z M503.400771,36.066646 C499.643342,59.1565433 516.015266,80.8108678 539.960406,84.4403582 L539.960406,84.4403582 C563.920605,88.0755079 586.423765,72.3068435 590.222609,49.2414698 L590.222609,49.2414698 C593.970626,26.1591182 577.545992,4.4859294 553.595205,0.860211861 L553.595205,0.860211861 C551.28352,0.50933597 548.98313,0.337670884 546.714742,0.337670884 L546.714742,0.337670884 C525.484138,0.337670884 506.832531,15.2272591 503.400771,36.066646 L503.400771,36.066646 Z M400.457378,56.3627412 C396.707479,79.4432064 413.081285,101.099417 437.01513,104.734567 L437.01513,104.734567 C460.977212,108.362171 483.489785,92.6010523 487.288628,69.5281328 L487.288628,69.5281328 C491.036645,46.4457812 474.612011,24.7725925 450.663107,21.1468749 L450.663107,21.1468749 C448.349539,20.795999 446.049149,20.6243339 443.780762,20.6243339 L443.780762,20.6243339 C422.548275,20.6243339 403.896668,35.5158086 400.457378,56.3627412 L400.457378,56.3627412 Z M287.105756,23.5973469 C262.861302,23.8501284 243.326812,43.0011609 243.545179,66.3627041 L243.545179,66.3627041 C243.885908,89.7223608 263.764892,108.464038 288.018758,108.211257 L288.018758,108.211257 C312.263212,107.960361 331.705461,88.8149882 331.472033,65.4477858 L331.472033,65.4477858 C331.189661,42.2447027 311.570459,23.5954604 287.570728,23.5954604 L287.570728,23.5954604 C287.416365,23.5954604 287.262001,23.5973469 287.105756,23.5973469 L287.105756,23.5973469 Z M91.5349576,37.8889369 C67.2905037,38.1417185 47.8068406,57.2946374 48.0327382,80.6524077 L48.0327382,80.6524077 C48.3075802,104.012064 68.1922114,122.753742 92.4969046,122.50096 L92.4969046,122.50096 C116.707474,122.250065 136.149722,103.104692 135.899353,79.7469215 L135.899353,79.7469215 C135.624511,56.5400656 116.059901,37.8851641 92.0168723,37.8851641 L92.0168723,37.8851641 C91.8568616,37.8851641 91.6949683,37.8870505 91.5349576,37.8889369 L91.5349576,37.8889369 Z M591.937548,86.8587608 C588.189531,109.93168 604.561455,131.595437 628.497183,135.230587 L628.497183,135.230587 C652.457382,138.860077 674.969955,123.098958 678.766916,100.024152 L678.766916,100.024152 C682.516815,76.9418008 666.094064,55.2704985 642.141394,51.6428945 L642.141394,51.6428945 C639.829709,51.2920187 637.531202,51.12224 635.262814,51.1203536 L635.262814,51.1203536 C614.028445,51.1203536 595.374955,66.0118282 591.937548,86.8587608 L591.937548,86.8587608 Z M336.1387,133.836515 C333.721596,151.950011 338.866413,158.986394 347.557821,167.886568 L347.557821,167.886568 C347.676417,168.003527 347.793131,168.122372 347.909844,168.237444 L347.909844,168.237444 C350.997111,176.007647 348.318342,180.951979 342.347117,184.174001 L342.347117,184.174001 L342.313233,184.168341 C340.204856,183.587321 338.021179,183.151556 335.779146,182.874251 L335.779146,182.874251 C311.726705,179.901238 289.665928,196.266014 286.554189,219.4408 L286.554189,219.4408 C283.493277,242.617473 300.51654,263.817168 324.578393,266.790181 L324.578393,266.790181 C348.613892,269.763194 370.648314,253.390872 373.735581,230.216086 L373.735581,230.216086 C375.441107,217.377046 370.941981,205.17562 362.542358,196.316947 L362.542358,196.316947 C359.665929,189.265474 365.797165,183.068553 374.162904,181.185896 L374.162904,181.185896 C398.198402,184.158909 420.217765,167.777155 423.321974,144.609914 L423.321974,144.609914 C426.375356,121.437014 409.416098,100.235433 385.365539,97.2624196 L385.365539,97.2624196 C383.844496,97.0737767 382.332865,96.9832281 380.826881,96.9832281 L380.826881,96.9832281 C358.519499,96.9851145 338.403323,116.864309 336.1387,133.836515 L336.1387,133.836515 Z M43.5562019,129.58073 C19.3023357,129.831625 -0.181327441,148.978885 0.00127307356,172.336655 L0.00127307356,172.336655 C0.345766827,195.696312 20.2153382,214.437989 44.4748519,214.185208 L44.4748519,214.185208 C68.7287181,213.934313 88.1464944,194.788939 87.913067,171.429283 L87.913067,171.429283 C87.6457549,148.224313 68.0717327,129.576957 44.0381166,129.578844 L44.0381166,129.578844 C43.8781059,129.578844 43.7162126,129.578844 43.5562019,129.58073 L43.5562019,129.58073 Z M625.645226,184.275868 C621.887797,207.358219 638.259721,229.012544 662.193566,232.64958 L662.193566,232.64958 C686.155648,236.28473 708.668221,220.517952 712.467064,197.443146 L712.467064,197.443146 C716.215081,174.360794 699.79233,152.697038 675.841543,149.061888 L675.841543,149.061888 C673.529858,148.711012 671.229468,148.541233 668.96108,148.539347 L668.96108,148.539347 C647.728593,148.539347 629.076986,163.428935 625.645226,184.275868 L625.645226,184.275868 Z M80.642931,224.671869 C56.4060071,224.924651 36.8959893,244.070024 37.1312993,267.429681 L37.1312993,267.429681 C37.4249661,290.789338 57.3510118,309.531015 81.6048781,309.278233 L81.6048781,309.278233 C105.866274,309.027338 125.289698,289.881965 125.065683,266.520422 L125.065683,266.520422 C124.773899,243.317339 105.167874,224.668097 81.1248458,224.669983 L81.1248458,224.669983 C80.964835,224.669983 80.8029418,224.669983 80.642931,224.671869 L80.642931,224.671869 Z M574.613089,273.179518 C570.85566,296.26187 587.227584,317.925626 611.170841,321.555117 L611.170841,321.555117 C635.13104,325.190266 657.634201,309.419716 661.433044,286.354342 L661.433044,286.354342 C665.182944,263.273877 648.760192,241.600688 624.807523,237.963652 L624.807523,237.963652 C622.501485,237.614662 620.206743,237.444884 617.944002,237.444884 L617.944002,237.444884 C596.707751,237.444884 578.042966,252.336358 574.613089,273.179518 L574.613089,273.179518 Z M378.957579,277.731473 C375.20015,300.813824 391.570192,322.475694 415.515332,326.105185 L415.515332,326.105185 C439.475531,329.742221 461.982456,313.97167 465.779417,290.906296 L465.779417,290.906296 C469.527434,267.823945 453.104683,246.150756 429.150131,242.515606 L429.150131,242.515606 C426.842211,242.166617 424.549351,241.996838 422.282845,241.996838 L422.282845,241.996838 C401.048476,241.996838 382.389339,256.890199 378.957579,277.731473 L378.957579,277.731473 Z M273.553785,260.485734 C249.324391,260.727197 229.823786,279.880116 230.049684,303.239773 L230.049684,303.239773 C230.35088,326.601316 250.278809,345.342993 274.474318,345.090211 L274.474318,345.090211 C298.709359,344.83743 318.159138,325.693943 317.92571,302.334286 L317.92571,302.334286 C317.635809,279.12743 298.086259,260.481961 274.0357,260.481961 L274.0357,260.481961 C273.877572,260.481961 273.713796,260.483847 273.553785,260.485734 L273.553785,260.485734 Z M474.896266,316.441006 C471.140719,339.513926 487.520173,361.177682 511.455901,364.814719 L511.455901,364.814719 C535.417982,368.440436 557.921143,352.679317 561.727516,329.606398 L561.727516,329.606398 C565.466121,306.524046 549.045252,284.850858 525.094465,281.223254 L525.094465,281.223254 C522.78278,280.872378 520.484272,280.702599 518.215885,280.702599 L518.215885,280.702599 C496.989045,280.700713 478.328026,295.592187 474.896266,316.441006 L474.896266,316.441006 Z M172.801599,281.393032 C148.566557,281.636382 129.071599,300.789301 129.299379,324.148957 L129.299379,324.148957 C129.583634,347.508614 149.468265,366.248405 173.729661,365.99751 L173.729661,365.99751 C197.966585,365.744728 217.425776,346.599355 217.165994,323.241585 L217.165994,323.241585 C216.893034,300.038502 197.328424,281.389259 173.287278,281.391146 L173.287278,281.391146 C173.125385,281.391146 172.963492,281.391146 172.801599,281.393032 L172.801599,281.393032 Z" id="path-1"></path>
        <polygon id="path-3" points="0 768 910 768 910 0 0 0"></polygon>
    </defs>
    <g id="页面-1" stroke="none" stroke-width="1" fill="none" fill-rule="evenodd">
        <g id="53.中国节能环保集团有限公司" transform="translate(-57.000000, 0.000000)">
            <g id="中国节能环保集团有限公司" transform="translate(57.000000, -0.000000)">
                <g id="编组" transform="translate(98.000000, 2.000000)">
                    <mask id="mask-2" fill="white">
                        <use xlink:href="#path-1"></use>
                    </mask>
                    <g id="Clip-2"></g>
                    <polygon id="Fill-1" fill="#C3D600" mask="url(#mask-2)" points="0.00315555309 368.440436 24.1139533 368.440436 24.1139533 -2.77682425 0.00315555309 -2.77682425"></polygon>
                    <polygon id="Fill-3" fill="#C3D600" mask="url(#mask-2)" points="21.4860119 368.440436 26.7400123 368.440436 26.7400123 -2.77682425 21.4860119 -2.77682425"></polygon>
                    <polygon id="Fill-4" fill="#C2D600" mask="url(#mask-2)" points="24.1139533 368.440436 29.3754836 368.440436 29.3754836 -2.77682425 24.1139533 -2.77682425"></polygon>
                    <polygon id="Fill-5" fill="#C0D501" mask="url(#mask-2)" points="26.7400123 368.440436 32.0015425 368.440436 32.0015425 -2.77682425 26.7400123 -2.77682425"></polygon>
                    <polygon id="Fill-6" fill="#BFD501" mask="url(#mask-2)" points="29.3754836 368.440436 34.629484 368.440436 34.629484 -2.77682425 29.3754836 -2.77682425"></polygon>
                    <polygon id="Fill-7" fill="#BDD402" mask="url(#mask-2)" points="32.003425 368.440436 37.2574254 368.440436 37.2574254 -2.77682425 32.003425 -2.77682425"></polygon>
                    <polygon id="Fill-8" fill="#BBD402" mask="url(#mask-2)" points="34.629484 368.440436 39.8910142 368.440436 39.8910142 -2.77682425 34.629484 -2.77682425"></polygon>
                    <polygon id="Fill-9" fill="#B8D203" mask="url(#mask-2)" points="37.2555429 368.440436 42.5170732 368.440436 42.5170732 -2.77682425 37.2555429 -2.77682425"></polygon>
                    <polygon id="Fill-10" fill="#B6D204" mask="url(#mask-2)" points="39.8910142 368.440436 45.1450146 368.440436 45.1450146 -2.77682425 39.8910142 -2.77682425"></polygon>
                    <polygon id="Fill-11" fill="#B5D104" mask="url(#mask-2)" points="42.5189557 368.440436 47.772956 368.440436 47.772956 -2.77682425 42.5189557 -2.77682425"></polygon>
                    <polygon id="Fill-12" fill="#B3D105" mask="url(#mask-2)" points="45.1450146 368.440436 50.4065449 368.440436 50.4065449 -2.77682425 45.1450146 -2.77682425"></polygon>
                    <polygon id="Fill-13" fill="#B2D005" mask="url(#mask-2)" points="47.772956 368.440436 53.0344863 368.440436 53.0344863 -2.77682425 47.772956 -2.77682425"></polygon>
                    <polygon id="Fill-14" fill="#B0D006" mask="url(#mask-2)" points="50.4065449 368.440436 55.6605452 368.440436 55.6605452 -2.77682425 50.4065449 -2.77682425"></polygon>
                    <polygon id="Fill-15" fill="#ADCE07" mask="url(#mask-2)" points="53.0344863 368.440436 58.2884867 368.440436 58.2884867 -2.77682425 53.0344863 -2.77682425"></polygon>
                    <polygon id="Fill-16" fill="#ABCE08" mask="url(#mask-2)" points="55.6605452 368.440436 60.9220755 368.440436 60.9220755 -2.77682425 55.6605452 -2.77682425"></polygon>
                    <polygon id="Fill-17" fill="#A9CD08" mask="url(#mask-2)" points="58.2884867 368.440436 63.5500169 368.440436 63.5500169 -2.77682425 58.2884867 -2.77682425"></polygon>
                    <polygon id="Fill-18" fill="#A8CD09" mask="url(#mask-2)" points="60.923958 368.440436 66.1779583 368.440436 66.1779583 -2.77682425 60.923958 -2.77682425"></polygon>
                    <polygon id="Fill-19" fill="#A6CC09" mask="url(#mask-2)" points="63.5500169 368.440436 68.8115472 368.440436 68.8115472 -2.77682425 63.5500169 -2.77682425"></polygon>
                    <polygon id="Fill-20" fill="#A5CC0A" mask="url(#mask-2)" points="66.1779583 368.440436 71.4394886 368.440436 71.4394886 -2.77682425 66.1779583 -2.77682425"></polygon>
                    <polygon id="Fill-21" fill="#A1CA0B" mask="url(#mask-2)" points="68.8134297 368.440436 74.06743 368.440436 74.06743 -2.77682425 68.8134297 -2.77682425"></polygon>
                    <polygon id="Fill-22" fill="#A0CA0B" mask="url(#mask-2)" points="71.4394886 368.440436 76.693489 368.440436 76.693489 -2.77682425 71.4394886 -2.77682425"></polygon>
                    <polygon id="Fill-23" fill="#9EC90C" mask="url(#mask-2)" points="74.0655476 368.440436 79.3270778 368.440436 79.3270778 -2.77682425 74.0655476 -2.77682425"></polygon>
                    <polygon id="Fill-24" fill="#9CC90D" mask="url(#mask-2)" points="76.693489 368.440436 81.9550193 368.440436 81.9550193 -2.77682425 76.693489 -2.77682425"></polygon>
                    <polygon id="Fill-25" fill="#9BC80D" mask="url(#mask-2)" points="79.3289603 368.440436 84.5829607 368.440436 84.5829607 -2.77682425 79.3289603 -2.77682425"></polygon>
                    <polygon id="Fill-26" fill="#99C80E" mask="url(#mask-2)" points="81.9550193 368.440436 87.2090196 368.440436 87.2090196 -2.77682425 81.9550193 -2.77682425"></polygon>
                    <polygon id="Fill-27" fill="#96C60F" mask="url(#mask-2)" points="84.5829607 368.440436 89.844491 368.440436 89.844491 -2.77682425 84.5829607 -2.77682425"></polygon>
                    <polygon id="Fill-28" fill="#94C60F" mask="url(#mask-2)" points="87.2090196 368.440436 92.4705499 368.440436 92.4705499 -2.77682425 87.2090196 -2.77682425"></polygon>
                    <polygon id="Fill-29" fill="#93C510" mask="url(#mask-2)" points="89.844491 368.440436 95.0984913 368.440436 95.0984913 -2.77682425 89.844491 -2.77682425"></polygon>
                    <polygon id="Fill-30" fill="#91C510" mask="url(#mask-2)" points="92.4724324 368.440436 97.7264327 368.440436 97.7264327 -2.77682425 92.4724324 -2.77682425"></polygon>
                    <polygon id="Fill-31" fill="#8FC411" mask="url(#mask-2)" points="95.0984913 368.440436 100.360022 368.440436 100.360022 -2.77682425 95.0984913 -2.77682425"></polygon>
                    <polygon id="Fill-32" fill="#8EC411" mask="url(#mask-2)" points="97.7264327 368.440436 102.987963 368.440436 102.987963 -2.77682425 97.7264327 -2.77682425"></polygon>
                    <polygon id="Fill-33" fill="#8BC212" mask="url(#mask-2)" points="100.361904 368.440436 105.615904 368.440436 105.615904 -2.77682425 100.361904 -2.77682425"></polygon>
                    <polygon id="Fill-34" fill="#89C213" mask="url(#mask-2)" points="102.987963 368.440436 108.249493 368.440436 108.249493 -2.77682425 102.987963 -2.77682425"></polygon>
                    <polygon id="Fill-35" fill="#87C114" mask="url(#mask-2)" points="105.614022 368.440436 110.875552 368.440436 110.875552 -2.77682425 105.614022 -2.77682425"></polygon>
                    <polygon id="Fill-36" fill="#86C114" mask="url(#mask-2)" points="108.249493 368.440436 113.503494 368.440436 113.503494 -2.77682425 108.249493 -2.77682425"></polygon>
                    <polygon id="Fill-37" fill="#84C015" mask="url(#mask-2)" points="110.877435 368.440436 116.131435 368.440436 116.131435 -2.77682425 110.877435 -2.77682425"></polygon>
                    <polygon id="Fill-38" fill="#81BF16" mask="url(#mask-2)" points="113.503494 368.440436 118.765024 368.440436 118.765024 -2.77682425 113.503494 -2.77682425"></polygon>
                    <polygon id="Fill-39" fill="#7FBE16" mask="url(#mask-2)" points="116.131435 368.440436 121.392965 368.440436 121.392965 -2.77682425 116.131435 -2.77682425"></polygon>
                    <polygon id="Fill-40" fill="#7EBE17" mask="url(#mask-2)" points="118.765024 368.440436 124.019024 368.440436 124.019024 -2.77682425 118.765024 -2.77682425"></polygon>
                    <polygon id="Fill-41" fill="#7CBD17" mask="url(#mask-2)" points="121.392965 368.440436 126.646966 368.440436 126.646966 -2.77682425 121.392965 -2.77682425"></polygon>
                    <polygon id="Fill-42" fill="#7ABD18" mask="url(#mask-2)" points="124.019024 368.440436 129.280555 368.440436 129.280555 -2.77682425 124.019024 -2.77682425"></polygon>
                    <polygon id="Fill-43" fill="#79BC18" mask="url(#mask-2)" points="126.646966 368.440436 131.908496 368.440436 131.908496 -2.77682425 126.646966 -2.77682425"></polygon>
                    <polygon id="Fill-44" fill="#75BB1A" mask="url(#mask-2)" points="129.282437 368.440436 134.536437 368.440436 134.536437 -2.77682425 129.282437 -2.77682425"></polygon>
                    <polygon id="Fill-45" fill="#74BA1A" mask="url(#mask-2)" points="131.908496 368.440436 137.162496 368.440436 137.162496 -2.77682425 131.908496 -2.77682425"></polygon>
                    <polygon id="Fill-46" fill="#72BA1B" mask="url(#mask-2)" points="134.536437 368.440436 139.797968 368.440436 139.797968 -2.77682425 134.536437 -2.77682425"></polygon>
                    <polygon id="Fill-47" fill="#71B91B" mask="url(#mask-2)" points="137.162496 368.440436 142.424027 368.440436 142.424027 -2.77682425 137.162496 -2.77682425"></polygon>
                    <polygon id="Fill-48" fill="#6FB91C" mask="url(#mask-2)" points="139.797968 368.440436 145.051968 368.440436 145.051968 -2.77682425 139.797968 -2.77682425"></polygon>
                    <polygon id="Fill-49" fill="#6DB81C" mask="url(#mask-2)" points="142.424027 368.440436 147.685557 368.440436 147.685557 -2.77682425 142.424027 -2.77682425"></polygon>
                    <polygon id="Fill-50" fill="#6AB71D" mask="url(#mask-2)" points="145.051968 368.440436 150.313498 368.440436 150.313498 -2.77682425 145.051968 -2.77682425"></polygon>
                    <polygon id="Fill-51" fill="#68B61E" mask="url(#mask-2)" points="147.687439 368.440436 152.94144 368.440436 152.94144 -2.77682425 147.687439 -2.77682425"></polygon>
                    <polygon id="Fill-52" fill="#67B61E" mask="url(#mask-2)" points="150.313498 368.440436 155.567499 368.440436 155.567499 -2.77682425 150.313498 -2.77682425"></polygon>
                    <polygon id="Fill-53" fill="#65B51F" mask="url(#mask-2)" points="152.94144 368.440436 158.20297 368.440436 158.20297 -2.77682425 152.94144 -2.77682425"></polygon>
                    <polygon id="Fill-54" fill="#64B51F" mask="url(#mask-2)" points="155.567499 368.440436 160.829029 368.440436 160.829029 -2.77682425 155.567499 -2.77682425"></polygon>
                    <polygon id="Fill-55" fill="#62B420" mask="url(#mask-2)" points="158.20297 368.440436 163.45697 368.440436 163.45697 -2.77682425 158.20297 -2.77682425"></polygon>
                    <polygon id="Fill-56" fill="#5FB321" mask="url(#mask-2)" points="160.830911 368.440436 166.084912 368.440436 166.084912 -2.77682425 160.830911 -2.77682425"></polygon>
                    <polygon id="Fill-57" fill="#5DB222" mask="url(#mask-2)" points="163.45697 368.440436 168.718501 368.440436 168.718501 -2.77682425 163.45697 -2.77682425"></polygon>
                    <polygon id="Fill-58" fill="#5BB222" mask="url(#mask-2)" points="166.084912 368.440436 171.346442 368.440436 171.346442 -2.77682425 166.084912 -2.77682425"></polygon>
                    <polygon id="Fill-59" fill="#5AB123" mask="url(#mask-2)" points="168.720383 368.440436 173.974383 368.440436 173.974383 -2.77682425 168.720383 -2.77682425"></polygon>
                    <polygon id="Fill-60" fill="#58B123" mask="url(#mask-2)" points="171.346442 368.440436 176.600442 368.440436 176.600442 -2.77682425 171.346442 -2.77682425"></polygon>
                    <polygon id="Fill-61" fill="#57B024" mask="url(#mask-2)" points="173.974383 368.440436 179.235914 368.440436 179.235914 -2.77682425 173.974383 -2.77682425"></polygon>
                    <polygon id="Fill-62" fill="#53AF25" mask="url(#mask-2)" points="176.600442 368.440436 181.861973 368.440436 181.861973 -2.77682425 176.600442 -2.77682425"></polygon>
                    <polygon id="Fill-63" fill="#52AE25" mask="url(#mask-2)" points="179.234031 368.440436 184.488032 368.440436 184.488032 -2.77682425 179.234031 -2.77682425"></polygon>
                    <polygon id="Fill-64" fill="#50AE26" mask="url(#mask-2)" points="181.861973 368.440436 187.123503 368.440436 187.123503 -2.77682425 181.861973 -2.77682425"></polygon>
                    <polygon id="Fill-65" fill="#4EAD27" mask="url(#mask-2)" points="184.489914 368.440436 189.751444 368.440436 189.751444 -2.77682425 184.489914 -2.77682425"></polygon>
                    <polygon id="Fill-66" fill="#4DAD27" mask="url(#mask-2)" points="187.123503 368.440436 192.377503 368.440436 192.377503 -2.77682425 187.123503 -2.77682425"></polygon>
                    <polygon id="Fill-67" fill="#4AAB28" mask="url(#mask-2)" points="189.751444 368.440436 195.005445 368.440436 195.005445 -2.77682425 189.751444 -2.77682425"></polygon>
                    <polygon id="Fill-68" fill="#48AB29" mask="url(#mask-2)" points="192.377503 368.440436 197.639034 368.440436 197.639034 -2.77682425 192.377503 -2.77682425"></polygon>
                    <polygon id="Fill-69" fill="#46AA29" mask="url(#mask-2)" points="195.005445 368.440436 200.266975 368.440436 200.266975 -2.77682425 195.005445 -2.77682425"></polygon>
                    <polygon id="Fill-70" fill="#45AA2A" mask="url(#mask-2)" points="197.640916 368.440436 202.894916 368.440436 202.894916 -2.77682425 197.640916 -2.77682425"></polygon>
                    <polygon id="Fill-71" fill="#43A92A" mask="url(#mask-2)" points="200.266975 368.440436 205.520975 368.440436 205.520975 -2.77682425 200.266975 -2.77682425"></polygon>
                    <polygon id="Fill-72" fill="#41A82B" mask="url(#mask-2)" points="202.894916 368.440436 208.156447 368.440436 208.156447 -2.77682425 202.894916 -2.77682425"></polygon>
                    <polygon id="Fill-73" fill="#3EA72C" mask="url(#mask-2)" points="205.520975 368.440436 210.782506 368.440436 210.782506 -2.77682425 205.520975 -2.77682425"></polygon>
                    <polygon id="Fill-74" fill="#3DA72C" mask="url(#mask-2)" points="208.156447 368.440436 213.410447 368.440436 213.410447 -2.77682425 208.156447 -2.77682425"></polygon>
                    <polygon id="Fill-75" fill="#3BA62D" mask="url(#mask-2)" points="210.782506 368.440436 216.036506 368.440436 216.036506 -2.77682425 210.782506 -2.77682425"></polygon>
                    <polygon id="Fill-76" fill="#39A62E" mask="url(#mask-2)" points="213.410447 368.440436 218.671977 368.440436 218.671977 -2.77682425 213.410447 -2.77682425"></polygon>
                    <polygon id="Fill-77" fill="#38A52E" mask="url(#mask-2)" points="216.036506 368.440436 221.298036 368.440436 221.298036 -2.77682425 216.036506 -2.77682425"></polygon>
                    <polygon id="Fill-78" fill="#36A42F" mask="url(#mask-2)" points="218.671977 368.440436 223.925978 368.440436 223.925978 -2.77682425 218.671977 -2.77682425"></polygon>
                    <polygon id="Fill-79" fill="#33A330" mask="url(#mask-2)" points="221.299919 368.440436 226.561449 368.440436 226.561449 -2.77682425 221.299919 -2.77682425"></polygon>
                    <polygon id="Fill-80" fill="#31A330" mask="url(#mask-2)" points="223.925978 368.440436 229.187508 368.440436 229.187508 -2.77682425 223.925978 -2.77682425"></polygon>
                    <polygon id="Fill-81" fill="#30A231" mask="url(#mask-2)" points="226.561449 368.440436 231.815449 368.440436 231.815449 -2.77682425 226.561449 -2.77682425"></polygon>
                    <polygon id="Fill-82" fill="#2EA231" mask="url(#mask-2)" points="229.18939 368.440436 234.443391 368.440436 234.443391 -2.77682425 229.18939 -2.77682425"></polygon>
                    <polygon id="Fill-83" fill="#2CA132" mask="url(#mask-2)" points="231.815449 368.440436 237.07698 368.440436 237.07698 -2.77682425 231.815449 -2.77682425"></polygon>
                    <polygon id="Fill-84" fill="#2BA032" mask="url(#mask-2)" points="234.443391 368.440436 239.704921 368.440436 239.704921 -2.77682425 234.443391 -2.77682425"></polygon>
                    <polygon id="Fill-85" fill="#279F34" mask="url(#mask-2)" points="237.078862 368.440436 242.332863 368.440436 242.332863 -2.77682425 237.078862 -2.77682425"></polygon>
                    <polygon id="Fill-86" fill="#269F34" mask="url(#mask-2)" points="239.704921 368.440436 244.958921 368.440436 244.958921 -2.77682425 239.704921 -2.77682425"></polygon>
                    <polygon id="Fill-87" fill="#249E35" mask="url(#mask-2)" points="242.332863 368.440436 247.594393 368.440436 247.594393 -2.77682425 242.332863 -2.77682425"></polygon>
                    <polygon id="Fill-88" fill="#239E35" mask="url(#mask-2)" points="244.958921 368.440436 250.220452 368.440436 250.220452 -2.77682425 244.958921 -2.77682425"></polygon>
                    <polygon id="Fill-89" fill="#219D36" mask="url(#mask-2)" points="247.59251 368.440436 252.846511 368.440436 252.846511 -2.77682425 247.59251 -2.77682425"></polygon>
                    <polygon id="Fill-90" fill="#1F9C36" mask="url(#mask-2)" points="250.220452 368.440436 255.474452 368.440436 255.474452 -2.77682425 250.220452 -2.77682425"></polygon>
                    <polygon id="Fill-91" fill="#1C9B37" mask="url(#mask-2)" points="252.848393 368.440436 258.109923 368.440436 258.109923 -2.77682425 252.848393 -2.77682425"></polygon>
                    <polygon id="Fill-92" fill="#1A9B38" mask="url(#mask-2)" points="255.474452 368.440436 260.735982 368.440436 260.735982 -2.77682425 255.474452 -2.77682425"></polygon>
                    <polygon id="Fill-93" fill="#199A38" mask="url(#mask-2)" points="258.109923 368.440436 263.363924 368.440436 263.363924 -2.77682425 258.109923 -2.77682425"></polygon>
                    <polygon id="Fill-94" fill="#179A39" mask="url(#mask-2)" points="260.735982 368.440436 265.997513 368.440436 265.997513 -2.77682425 260.735982 -2.77682425"></polygon>
                    <polygon id="Fill-95" fill="#169939" mask="url(#mask-2)" points="263.363924 368.440436 268.625454 368.440436 268.625454 -2.77682425 263.363924 -2.77682425"></polygon>
                    <polygon id="Fill-96" fill="#14983A" mask="url(#mask-2)" points="265.999395 368.440436 271.253395 368.440436 271.253395 -2.77682425 265.999395 -2.77682425"></polygon>
                    <polygon id="Fill-97" fill="#11973B" mask="url(#mask-2)" points="268.625454 368.440436 273.879454 368.440436 273.879454 -2.77682425 268.625454 -2.77682425"></polygon>
                    <polygon id="Fill-98" fill="#0F973C" mask="url(#mask-2)" points="271.253395 368.440436 276.514926 368.440436 276.514926 -2.77682425 271.253395 -2.77682425"></polygon>
                    <polygon id="Fill-99" fill="#0D963C" mask="url(#mask-2)" points="273.879454 368.440436 279.140985 368.440436 279.140985 -2.77682425 273.879454 -2.77682425"></polygon>
                    <polygon id="Fill-100" fill="#0C963D" mask="url(#mask-2)" points="276.514926 368.440436 281.768926 368.440436 281.768926 -2.77682425 276.514926 -2.77682425"></polygon>
                    <polygon id="Fill-101" fill="#0A953D" mask="url(#mask-2)" points="279.140985 368.440436 284.394985 368.440436 284.394985 -2.77682425 279.140985 -2.77682425"></polygon>
                    <polygon id="Fill-102" fill="#07943E" mask="url(#mask-2)" points="281.768926 368.440436 287.030456 368.440436 287.030456 -2.77682425 281.768926 -2.77682425"></polygon>
                    <polygon id="Fill-103" fill="#05933F" mask="url(#mask-2)" points="284.394985 368.440436 289.656515 368.440436 289.656515 -2.77682425 284.394985 -2.77682425"></polygon>
                    <polygon id="Fill-104" fill="#04933F" mask="url(#mask-2)" points="287.030456 368.440436 292.284457 368.440436 292.284457 -2.77682425 287.030456 -2.77682425"></polygon>
                    <polygon id="Fill-105" fill="#029240" mask="url(#mask-2)" points="289.658398 368.440436 294.912398 368.440436 294.912398 -2.77682425 289.658398 -2.77682425"></polygon>
                    <polygon id="Fill-106" fill="#009141" mask="url(#mask-2)" points="292.284457 368.440436 297.545987 368.440436 297.545987 -2.77682425 292.284457 -2.77682425"></polygon>
                    <polygon id="Fill-107" fill="#009143" mask="url(#mask-2)" points="294.912398 368.440436 300.173928 368.440436 300.173928 -2.77682425 294.912398 -2.77682425"></polygon>
                    <polygon id="Fill-108" fill="#009147" mask="url(#mask-2)" points="297.54787 368.440436 302.80187 368.440436 302.80187 -2.77682425 297.54787 -2.77682425"></polygon>
                    <polygon id="Fill-109" fill="#00914A" mask="url(#mask-2)" points="300.173928 368.440436 305.435459 368.440436 305.435459 -2.77682425 300.173928 -2.77682425"></polygon>
                    <polygon id="Fill-110" fill="#00914C" mask="url(#mask-2)" points="302.80187 368.440436 308.0634 368.440436 308.0634 -2.77682425 302.80187 -2.77682425"></polygon>
                    <polygon id="Fill-111" fill="#00914E" mask="url(#mask-2)" points="305.437341 368.440436 310.691342 368.440436 310.691342 -2.77682425 305.437341 -2.77682425"></polygon>
                    <polygon id="Fill-112" fill="#009150" mask="url(#mask-2)" points="308.0634 368.440436 313.3174 368.440436 313.3174 -2.77682425 308.0634 -2.77682425"></polygon>
                    <polygon id="Fill-113" fill="#009153" mask="url(#mask-2)" points="310.691342 368.440436 315.952872 368.440436 315.952872 -2.77682425 310.691342 -2.77682425"></polygon>
                    <polygon id="Fill-114" fill="#009157" mask="url(#mask-2)" points="313.3174 368.440436 318.578931 368.440436 318.578931 -2.77682425 313.3174 -2.77682425"></polygon>
                    <polygon id="Fill-115" fill="#00915A" mask="url(#mask-2)" points="315.950989 368.440436 321.20499 368.440436 321.20499 -2.77682425 315.950989 -2.77682425"></polygon>
                    <polygon id="Fill-116" fill="#00915C" mask="url(#mask-2)" points="318.578931 368.440436 323.832931 368.440436 323.832931 -2.77682425 318.578931 -2.77682425"></polygon>
                    <polygon id="Fill-117" fill="#00915E" mask="url(#mask-2)" points="321.20499 368.440436 326.46652 368.440436 326.46652 -2.77682425 321.20499 -2.77682425"></polygon>
                    <polygon id="Fill-118" fill="#009160" mask="url(#mask-2)" points="323.832931 368.440436 329.094461 368.440436 329.094461 -2.77682425 323.832931 -2.77682425"></polygon>
                    <polygon id="Fill-119" fill="#009163" mask="url(#mask-2)" points="326.468402 368.440436 331.722403 368.440436 331.722403 -2.77682425 326.468402 -2.77682425"></polygon>
                    <polygon id="Fill-120" fill="#009167" mask="url(#mask-2)" points="329.094461 368.440436 334.348462 368.440436 334.348462 -2.77682425 329.094461 -2.77682425"></polygon>
                    <polygon id="Fill-121" fill="#00916A" mask="url(#mask-2)" points="331.722403 368.440436 336.983933 368.440436 336.983933 -2.77682425 331.722403 -2.77682425"></polygon>
                    <polygon id="Fill-122" fill="#00916C" mask="url(#mask-2)" points="334.348462 368.440436 339.609992 368.440436 339.609992 -2.77682425 334.348462 -2.77682425"></polygon>
                    <polygon id="Fill-123" fill="#00916E" mask="url(#mask-2)" points="336.983933 368.440436 342.237933 368.440436 342.237933 -2.77682425 336.983933 -2.77682425"></polygon>
                    <polygon id="Fill-124" fill="#009170" mask="url(#mask-2)" points="339.611875 368.440436 344.865875 368.440436 344.865875 -2.77682425 339.611875 -2.77682425"></polygon>
                    <polygon id="Fill-125" fill="#009173" mask="url(#mask-2)" points="342.237933 368.440436 347.499464 368.440436 347.499464 -2.77682425 342.237933 -2.77682425"></polygon>
                    <polygon id="Fill-126" fill="#009177" mask="url(#mask-2)" points="344.863992 368.440436 350.125523 368.440436 350.125523 -2.77682425 344.863992 -2.77682425"></polygon>
                    <polygon id="Fill-127" fill="#00917A" mask="url(#mask-2)" points="347.499464 368.440436 352.753464 368.440436 352.753464 -2.77682425 347.499464 -2.77682425"></polygon>
                    <polygon id="Fill-128" fill="#00917C" mask="url(#mask-2)" points="350.127405 368.440436 355.388935 368.440436 355.388935 -2.77682425 350.127405 -2.77682425"></polygon>
                    <polygon id="Fill-129" fill="#00917E" mask="url(#mask-2)" points="352.753464 368.440436 358.014994 368.440436 358.014994 -2.77682425 352.753464 -2.77682425"></polygon>
                    <polygon id="Fill-130" fill="#009180" mask="url(#mask-2)" points="355.388935 368.440436 360.642936 368.440436 360.642936 -2.77682425 355.388935 -2.77682425"></polygon>
                    <polygon id="Fill-131" fill="#009185" mask="url(#mask-2)" points="358.016877 368.440436 363.270877 368.440436 363.270877 -2.77682425 358.016877 -2.77682425"></polygon>
                    <polygon id="Fill-132" fill="#009187" mask="url(#mask-2)" points="360.642936 368.440436 365.904466 368.440436 365.904466 -2.77682425 360.642936 -2.77682425"></polygon>
                    <polygon id="Fill-133" fill="#00918A" mask="url(#mask-2)" points="363.270877 368.440436 368.532407 368.440436 368.532407 -2.77682425 363.270877 -2.77682425"></polygon>
                    <polygon id="Fill-134" fill="#00918C" mask="url(#mask-2)" points="365.904466 368.440436 371.158466 368.440436 371.158466 -2.77682425 365.904466 -2.77682425"></polygon>
                    <polygon id="Fill-135" fill="#00918E" mask="url(#mask-2)" points="368.532407 368.440436 373.786408 368.440436 373.786408 -2.77682425 368.532407 -2.77682425"></polygon>
                    <polygon id="Fill-136" fill="#009190" mask="url(#mask-2)" points="371.158466 368.440436 376.421879 368.440436 376.421879 -2.77682425 371.158466 -2.77682425"></polygon>
                    <polygon id="Fill-137" fill="#009195" mask="url(#mask-2)" points="373.786408 368.440436 379.049821 368.440436 379.049821 -2.77682425 373.786408 -2.77682425"></polygon>
                    <polygon id="Fill-138" fill="#009197" mask="url(#mask-2)" points="376.421879 368.440436 381.67588 368.440436 381.67588 -2.77682425 376.421879 -2.77682425"></polygon>
                    <polygon id="Fill-139" fill="#00919A" mask="url(#mask-2)" points="379.049821 368.440436 384.303821 368.440436 384.303821 -2.77682425 379.049821 -2.77682425"></polygon>
                    <polygon id="Fill-140" fill="#00919C" mask="url(#mask-2)" points="381.67588 368.440436 386.93741 368.440436 386.93741 -2.77682425 381.67588 -2.77682425"></polygon>
                    <polygon id="Fill-141" fill="#00919E" mask="url(#mask-2)" points="384.303821 368.440436 389.565351 368.440436 389.565351 -2.77682425 384.303821 -2.77682425"></polygon>
                    <polygon id="Fill-142" fill="#0091A0" mask="url(#mask-2)" points="386.93741 368.440436 392.19141 368.440436 392.19141 -2.77682425 386.93741 -2.77682425"></polygon>
                    <polygon id="Fill-143" fill="#0091A5" mask="url(#mask-2)" points="389.563469 368.440436 394.826882 368.440436 394.826882 -2.77682425 389.563469 -2.77682425"></polygon>
                    <polygon id="Fill-144" fill="#0091A7" mask="url(#mask-2)" points="392.19141 368.440436 397.454823 368.440436 397.454823 -2.77682425 392.19141 -2.77682425"></polygon>
                    <polygon id="Fill-145" fill="#0091AA" mask="url(#mask-2)" points="394.826882 368.440436 400.078999 368.440436 400.078999 -2.77682425 394.826882 -2.77682425"></polygon>
                    <polygon id="Fill-146" fill="#0091AC" mask="url(#mask-2)" points="397.454823 368.440436 402.706941 368.440436 402.706941 -2.77682425 397.454823 -2.77682425"></polygon>
                    <polygon id="Fill-147" fill="#0091AE" mask="url(#mask-2)" points="400.078999 368.440436 405.342412 368.440436 405.342412 -2.77682425 400.078999 -2.77682425"></polygon>
                    <polygon id="Fill-148" fill="#0091B0" mask="url(#mask-2)" points="402.706941 368.440436 407.970354 368.440436 407.970354 -2.77682425 402.706941 -2.77682425"></polygon>
                    <polygon id="Fill-149" fill="#0091B5" mask="url(#mask-2)" points="405.342412 368.440436 410.596413 368.440436 410.596413 -2.77682425 405.342412 -2.77682425"></polygon>
                    <polygon id="Fill-150" fill="#0091B7" mask="url(#mask-2)" points="407.970354 368.440436 413.224354 368.440436 413.224354 -2.77682425 407.970354 -2.77682425"></polygon>
                    <polygon id="Fill-151" fill="#0091BA" mask="url(#mask-2)" points="410.596413 368.440436 415.857943 368.440436 415.857943 -2.77682425 410.596413 -2.77682425"></polygon>
                    <polygon id="Fill-152" fill="#0091BC" mask="url(#mask-2)" points="413.224354 368.440436 418.485884 368.440436 418.485884 -2.77682425 413.224354 -2.77682425"></polygon>
                    <polygon id="Fill-153" fill="#0091BE" mask="url(#mask-2)" points="415.857943 368.440436 421.111943 368.440436 421.111943 -2.77682425 415.857943 -2.77682425"></polygon>
                    <polygon id="Fill-154" fill="#0091C0" mask="url(#mask-2)" points="418.485884 368.440436 423.739885 368.440436 423.739885 -2.77682425 418.485884 -2.77682425"></polygon>
                    <polygon id="Fill-155" fill="#0091C5" mask="url(#mask-2)" points="421.111943 368.440436 426.375356 368.440436 426.375356 -2.77682425 421.111943 -2.77682425"></polygon>
                    <polygon id="Fill-156" fill="#0091C7" mask="url(#mask-2)" points="423.739885 368.440436 429.003297 368.440436 429.003297 -2.77682425 423.739885 -2.77682425"></polygon>
                    <polygon id="Fill-157" fill="#0092CA" mask="url(#mask-2)" points="426.375356 368.440436 431.627474 368.440436 431.627474 -2.77682425 426.375356 -2.77682425"></polygon>
                    <polygon id="Fill-158" fill="#0092CA" mask="url(#mask-2)" points="429.003297 368.440436 434.264828 368.440436 434.264828 -2.77682425 429.003297 -2.77682425"></polygon>
                    <polygon id="Fill-159" fill="#0092CA" mask="url(#mask-2)" points="431.627474 368.440436 436.890887 368.440436 436.890887 -2.77682425 431.627474 -2.77682425"></polygon>
                    <polygon id="Fill-160" fill="#0092CA" mask="url(#mask-2)" points="434.264828 368.440436 439.518828 368.440436 439.518828 -2.77682425 434.264828 -2.77682425"></polygon>
                    <polygon id="Fill-161" fill="#0092CB" mask="url(#mask-2)" points="436.890887 368.440436 442.144887 368.440436 442.144887 -2.77682425 436.890887 -2.77682425"></polygon>
                    <polygon id="Fill-162" fill="#0092CB" mask="url(#mask-2)" points="439.518828 368.440436 444.780358 368.440436 444.780358 -2.77682425 439.518828 -2.77682425"></polygon>
                    <polygon id="Fill-163" fill="#0092CB" mask="url(#mask-2)" points="442.144887 368.440436 447.406417 368.440436 447.406417 -2.77682425 442.144887 -2.77682425"></polygon>
                    <polygon id="Fill-164" fill="#0092CC" mask="url(#mask-2)" points="444.780358 368.440436 450.034359 368.440436 450.034359 -2.77682425 444.780358 -2.77682425"></polygon>
                    <polygon id="Fill-165" fill="#0093CC" mask="url(#mask-2)" points="447.406417 368.440436 452.660418 368.440436 452.660418 -2.77682425 447.406417 -2.77682425"></polygon>
                    <polygon id="Fill-166" fill="#0093CC" mask="url(#mask-2)" points="450.034359 368.440436 455.297771 368.440436 455.297771 -2.77682425 450.034359 -2.77682425"></polygon>
                    <polygon id="Fill-167" fill="#0093CD" mask="url(#mask-2)" points="452.660418 368.440436 457.92383 368.440436 457.92383 -2.77682425 452.660418 -2.77682425"></polygon>
                    <polygon id="Fill-168" fill="#0093CD" mask="url(#mask-2)" points="455.295889 368.440436 460.549889 368.440436 460.549889 -2.77682425 455.295889 -2.77682425"></polygon>
                    <polygon id="Fill-169" fill="#0093CD" mask="url(#mask-2)" points="457.92383 368.440436 463.177831 368.440436 463.177831 -2.77682425 457.92383 -2.77682425"></polygon>
                    <polygon id="Fill-170" fill="#0093CD" mask="url(#mask-2)" points="460.549889 368.440436 465.811419 368.440436 465.811419 -2.77682425 460.549889 -2.77682425"></polygon>
                    <polygon id="Fill-171" fill="#0093CE" mask="url(#mask-2)" points="463.177831 368.440436 468.439361 368.440436 468.439361 -2.77682425 463.177831 -2.77682425"></polygon>
                    <polygon id="Fill-172" fill="#0094CE" mask="url(#mask-2)" points="465.811419 368.440436 471.06542 368.440436 471.06542 -2.77682425 465.811419 -2.77682425"></polygon>
                    <polygon id="Fill-173" fill="#0094CE" mask="url(#mask-2)" points="468.439361 368.440436 473.700891 368.440436 473.700891 -2.77682425 468.439361 -2.77682425"></polygon>
                    <polygon id="Fill-174" fill="#0094CF" mask="url(#mask-2)" points="471.06542 368.440436 476.32695 368.440436 476.32695 -2.77682425 471.06542 -2.77682425"></polygon>
                    <polygon id="Fill-175" fill="#0094CF" mask="url(#mask-2)" points="473.700891 368.440436 478.954892 368.440436 478.954892 -2.77682425 473.700891 -2.77682425"></polygon>
                    <polygon id="Fill-176" fill="#0094CF" mask="url(#mask-2)" points="476.32695 368.440436 481.58095 368.440436 481.58095 -2.77682425 476.32695 -2.77682425"></polygon>
                    <polygon id="Fill-177" fill="#0094CF" mask="url(#mask-2)" points="478.954892 368.440436 484.218304 368.440436 484.218304 -2.77682425 478.954892 -2.77682425"></polygon>
                    <polygon id="Fill-178" fill="#0094D0" mask="url(#mask-2)" points="481.58095 368.440436 486.844363 368.440436 486.844363 -2.77682425 481.58095 -2.77682425"></polygon>
                    <polygon id="Fill-179" fill="#0095D0" mask="url(#mask-2)" points="484.218304 368.440436 489.472305 368.440436 489.472305 -2.77682425 484.218304 -2.77682425"></polygon>
                    <polygon id="Fill-180" fill="#0095D0" mask="url(#mask-2)" points="486.844363 368.440436 492.098364 368.440436 492.098364 -2.77682425 486.844363 -2.77682425"></polygon>
                    <polygon id="Fill-181" fill="#0095D1" mask="url(#mask-2)" points="489.472305 368.440436 494.733835 368.440436 494.733835 -2.77682425 489.472305 -2.77682425"></polygon>
                    <polygon id="Fill-182" fill="#0095D1" mask="url(#mask-2)" points="492.098364 368.440436 497.359894 368.440436 497.359894 -2.77682425 492.098364 -2.77682425"></polygon>
                    <polygon id="Fill-183" fill="#0095D1" mask="url(#mask-2)" points="494.733835 368.440436 499.987835 368.440436 499.987835 -2.77682425 494.733835 -2.77682425"></polygon>
                    <polygon id="Fill-184" fill="#0095D2" mask="url(#mask-2)" points="497.359894 368.440436 502.613894 368.440436 502.613894 -2.77682425 497.359894 -2.77682425"></polygon>
                    <polygon id="Fill-185" fill="#0095D2" mask="url(#mask-2)" points="499.987835 368.440436 505.249366 368.440436 505.249366 -2.77682425 499.987835 -2.77682425"></polygon>
                    <polygon id="Fill-186" fill="#0095D2" mask="url(#mask-2)" points="502.613894 368.440436 507.875425 368.440436 507.875425 -2.77682425 502.613894 -2.77682425"></polygon>
                    <polygon id="Fill-187" fill="#0096D3" mask="url(#mask-2)" points="505.249366 368.440436 510.503366 368.440436 510.503366 -2.77682425 505.249366 -2.77682425"></polygon>
                    <polygon id="Fill-188" fill="#0096D3" mask="url(#mask-2)" points="507.875425 368.440436 513.138837 368.440436 513.138837 -2.77682425 507.875425 -2.77682425"></polygon>
                    <polygon id="Fill-189" fill="#0096D3" mask="url(#mask-2)" points="510.503366 368.440436 515.766779 368.440436 515.766779 -2.77682425 510.503366 -2.77682425"></polygon>
                    <polygon id="Fill-190" fill="#0096D4" mask="url(#mask-2)" points="513.138837 368.440436 518.392838 368.440436 518.392838 -2.77682425 513.138837 -2.77682425"></polygon>
                    <polygon id="Fill-191" fill="#0096D4" mask="url(#mask-2)" points="515.766779 368.440436 521.020779 368.440436 521.020779 -2.77682425 515.766779 -2.77682425"></polygon>
                    <polygon id="Fill-192" fill="#0096D4" mask="url(#mask-2)" points="518.392838 368.440436 523.654368 368.440436 523.654368 -2.77682425 518.392838 -2.77682425"></polygon>
                    <polygon id="Fill-193" fill="#0096D4" mask="url(#mask-2)" points="521.020779 368.440436 526.282309 368.440436 526.282309 -2.77682425 521.020779 -2.77682425"></polygon>
                    <polygon id="Fill-194" fill="#0097D5" mask="url(#mask-2)" points="523.654368 368.440436 528.908368 368.440436 528.908368 -2.77682425 523.654368 -2.77682425"></polygon>
                    <polygon id="Fill-195" fill="#0097D5" mask="url(#mask-2)" points="526.280427 368.440436 531.534427 368.440436 531.534427 -2.77682425 526.280427 -2.77682425"></polygon>
                    <polygon id="Fill-196" fill="#0097D5" mask="url(#mask-2)" points="528.908368 368.440436 534.171781 368.440436 534.171781 -2.77682425 528.908368 -2.77682425"></polygon>
                    <polygon id="Fill-197" fill="#0097D6" mask="url(#mask-2)" points="531.534427 368.440436 536.795957 368.440436 536.795957 -2.77682425 531.534427 -2.77682425"></polygon>
                    <polygon id="Fill-198" fill="#0097D6" mask="url(#mask-2)" points="534.171781 368.440436 539.423899 368.440436 539.423899 -2.77682425 534.171781 -2.77682425"></polygon>
                    <polygon id="Fill-199" fill="#0097D6" mask="url(#mask-2)" points="536.795957 368.440436 542.049958 368.440436 542.049958 -2.77682425 536.795957 -2.77682425"></polygon>
                    <polygon id="Fill-200" fill="#0097D6" mask="url(#mask-2)" points="539.423899 368.440436 544.687312 368.440436 544.687312 -2.77682425 539.423899 -2.77682425"></polygon>
                    <polygon id="Fill-201" fill="#0098D7" mask="url(#mask-2)" points="542.049958 368.440436 547.313371 368.440436 547.313371 -2.77682425 542.049958 -2.77682425"></polygon>
                    <polygon id="Fill-202" fill="#0098D7" mask="url(#mask-2)" points="544.687312 368.440436 549.941312 368.440436 549.941312 -2.77682425 544.687312 -2.77682425"></polygon>
                    <polygon id="Fill-203" fill="#0098D7" mask="url(#mask-2)" points="547.313371 368.440436 552.574901 368.440436 552.574901 -2.77682425 547.313371 -2.77682425"></polygon>
                    <polygon id="Fill-204" fill="#0098D8" mask="url(#mask-2)" points="549.941312 368.440436 555.202842 368.440436 555.202842 -2.77682425 549.941312 -2.77682425"></polygon>
                    <polygon id="Fill-205" fill="#0098D8" mask="url(#mask-2)" points="552.574901 368.440436 557.828901 368.440436 557.828901 -2.77682425 552.574901 -2.77682425"></polygon>
                    <polygon id="Fill-206" fill="#0098D8" mask="url(#mask-2)" points="555.202842 368.440436 560.456843 368.440436 560.456843 -2.77682425 555.202842 -2.77682425"></polygon>
                    <polygon id="Fill-207" fill="#0098D9" mask="url(#mask-2)" points="557.828901 368.440436 563.092314 368.440436 563.092314 -2.77682425 557.828901 -2.77682425"></polygon>
                    <polygon id="Fill-208" fill="#0099D9" mask="url(#mask-2)" points="560.456843 368.440436 565.720255 368.440436 565.720255 -2.77682425 560.456843 -2.77682425"></polygon>
                    <polygon id="Fill-209" fill="#0099D9" mask="url(#mask-2)" points="563.092314 368.440436 568.344432 368.440436 568.344432 -2.77682425 563.092314 -2.77682425"></polygon>
                    <polygon id="Fill-210" fill="#0099DA" mask="url(#mask-2)" points="565.720255 368.440436 570.972373 368.440436 570.972373 -2.77682425 565.720255 -2.77682425"></polygon>
                    <polygon id="Fill-211" fill="#0099DA" mask="url(#mask-2)" points="568.344432 368.440436 573.607845 368.440436 573.607845 -2.77682425 568.344432 -2.77682425"></polygon>
                    <polygon id="Fill-212" fill="#0099DA" mask="url(#mask-2)" points="570.972373 368.440436 576.235786 368.440436 576.235786 -2.77682425 570.972373 -2.77682425"></polygon>
                    <polygon id="Fill-213" fill="#0099DB" mask="url(#mask-2)" points="573.607845 368.440436 578.861845 368.440436 578.861845 -2.77682425 573.607845 -2.77682425"></polygon>
                    <polygon id="Fill-214" fill="#0099DB" mask="url(#mask-2)" points="576.235786 368.440436 581.489786 368.440436 581.489786 -2.77682425 576.235786 -2.77682425"></polygon>
                    <polygon id="Fill-215" fill="#0099DB" mask="url(#mask-2)" points="578.861845 368.440436 584.123375 368.440436 584.123375 -2.77682425 578.861845 -2.77682425"></polygon>
                    <polygon id="Fill-216" fill="#009ADB" mask="url(#mask-2)" points="581.489786 368.440436 586.751317 368.440436 586.751317 -2.77682425 581.489786 -2.77682425"></polygon>
                    <polygon id="Fill-217" fill="#009ADC" mask="url(#mask-2)" points="584.123375 368.440436 589.377376 368.440436 589.377376 -2.77682425 584.123375 -2.77682425"></polygon>
                    <polygon id="Fill-218" fill="#009ADC" mask="url(#mask-2)" points="586.751317 368.440436 592.014729 368.440436 592.014729 -2.77682425 586.751317 -2.77682425"></polygon>
                    <polygon id="Fill-219" fill="#009ADC" mask="url(#mask-2)" points="589.377376 368.440436 594.640788 368.440436 594.640788 -2.77682425 589.377376 -2.77682425"></polygon>
                    <polygon id="Fill-220" fill="#009ADD" mask="url(#mask-2)" points="592.012847 368.440436 597.266847 368.440436 597.266847 -2.77682425 592.012847 -2.77682425"></polygon>
                    <polygon id="Fill-221" fill="#009ADD" mask="url(#mask-2)" points="594.640788 368.440436 599.894789 368.440436 599.894789 -2.77682425 594.640788 -2.77682425"></polygon>
                    <polygon id="Fill-222" fill="#009ADD" mask="url(#mask-2)" points="597.266847 368.440436 602.528378 368.440436 602.528378 -2.77682425 597.266847 -2.77682425"></polygon>
                    <polygon id="Fill-223" fill="#009ADD" mask="url(#mask-2)" points="599.894789 368.440436 605.156319 368.440436 605.156319 -2.77682425 599.894789 -2.77682425"></polygon>
                    <polygon id="Fill-224" fill="#009BDE" mask="url(#mask-2)" points="602.528378 368.440436 607.782378 368.440436 607.782378 -2.77682425 602.528378 -2.77682425"></polygon>
                    <polygon id="Fill-225" fill="#009BDE" mask="url(#mask-2)" points="605.156319 368.440436 610.410319 368.440436 610.410319 -2.77682425 605.156319 -2.77682425"></polygon>
                    <polygon id="Fill-226" fill="#009BDE" mask="url(#mask-2)" points="607.782378 368.440436 613.043908 368.440436 613.043908 -2.77682425 607.782378 -2.77682425"></polygon>
                    <polygon id="Fill-227" fill="#009BDF" mask="url(#mask-2)" points="610.410319 368.440436 615.67185 368.440436 615.67185 -2.77682425 610.410319 -2.77682425"></polygon>
                    <polygon id="Fill-228" fill="#009BDF" mask="url(#mask-2)" points="613.043908 368.440436 618.297909 368.440436 618.297909 -2.77682425 613.043908 -2.77682425"></polygon>
                    <polygon id="Fill-229" fill="#009BDF" mask="url(#mask-2)" points="615.67185 368.440436 620.92585 368.440436 620.92585 -2.77682425 615.67185 -2.77682425"></polygon>
                    <polygon id="Fill-230" fill="#009CE0" mask="url(#mask-2)" points="618.297909 368.440436 623.561321 368.440436 623.561321 -2.77682425 618.297909 -2.77682425"></polygon>
                    <polygon id="Fill-231" fill="#009CE0" mask="url(#mask-2)" points="620.92585 368.440436 626.189263 368.440436 626.189263 -2.77682425 620.92585 -2.77682425"></polygon>
                    <polygon id="Fill-232" fill="#009CE0" mask="url(#mask-2)" points="623.561321 368.440436 628.815322 368.440436 628.815322 -2.77682425 623.561321 -2.77682425"></polygon>
                    <polygon id="Fill-233" fill="#009CE0" mask="url(#mask-2)" points="626.189263 368.440436 631.450793 368.440436 631.450793 -2.77682425 626.189263 -2.77682425"></polygon>
                    <polygon id="Fill-234" fill="#009CE1" mask="url(#mask-2)" points="628.815322 368.440436 634.076852 368.440436 634.076852 -2.77682425 628.815322 -2.77682425"></polygon>
                    <polygon id="Fill-235" fill="#009CE1" mask="url(#mask-2)" points="631.450793 368.440436 636.704793 368.440436 636.704793 -2.77682425 631.450793 -2.77682425"></polygon>
                    <polygon id="Fill-236" fill="#009CE2" mask="url(#mask-2)" points="634.076852 368.440436 639.330852 368.440436 639.330852 -2.77682425 634.076852 -2.77682425"></polygon>
                    <polygon id="Fill-237" fill="#009CE2" mask="url(#mask-2)" points="636.704793 368.440436 641.966324 368.440436 641.966324 -2.77682425 636.704793 -2.77682425"></polygon>
                    <polygon id="Fill-238" fill="#009DE2" mask="url(#mask-2)" points="639.330852 368.440436 644.592383 368.440436 644.592383 -2.77682425 639.330852 -2.77682425"></polygon>
                    <polygon id="Fill-239" fill="#009DE2" mask="url(#mask-2)" points="641.966324 368.440436 647.220324 368.440436 647.220324 -2.77682425 641.966324 -2.77682425"></polygon>
                    <polygon id="Fill-240" fill="#009DE3" mask="url(#mask-2)" points="644.592383 368.440436 649.846383 368.440436 649.846383 -2.77682425 644.592383 -2.77682425"></polygon>
                    <polygon id="Fill-241" fill="#009DE3" mask="url(#mask-2)" points="647.220324 368.440436 652.483737 368.440436 652.483737 -2.77682425 647.220324 -2.77682425"></polygon>
                    <polygon id="Fill-242" fill="#009DE3" mask="url(#mask-2)" points="649.846383 368.440436 655.109796 368.440436 655.109796 -2.77682425 649.846383 -2.77682425"></polygon>
                    <polygon id="Fill-243" fill="#009DE4" mask="url(#mask-2)" points="652.481854 368.440436 657.735855 368.440436 657.735855 -2.77682425 652.481854 -2.77682425"></polygon>
                    <polygon id="Fill-244" fill="#009DE4" mask="url(#mask-2)" points="655.109796 368.440436 660.363796 368.440436 660.363796 -2.77682425 655.109796 -2.77682425"></polygon>
                    <polygon id="Fill-245" fill="#009EE4" mask="url(#mask-2)" points="657.737737 368.440436 662.999267 368.440436 662.999267 -2.77682425 657.737737 -2.77682425"></polygon>
                    <polygon id="Fill-246" fill="#009EE4" mask="url(#mask-2)" points="660.363796 368.440436 665.625326 368.440436 665.625326 -2.77682425 660.363796 -2.77682425"></polygon>
                    <polygon id="Fill-247" fill="#009EE5" mask="url(#mask-2)" points="662.997385 368.440436 668.251385 368.440436 668.251385 -2.77682425 662.997385 -2.77682425"></polygon>
                    <polygon id="Fill-248" fill="#009EE5" mask="url(#mask-2)" points="665.625326 368.440436 670.888739 368.440436 670.888739 -2.77682425 665.625326 -2.77682425"></polygon>
                    <polygon id="Fill-249" fill="#009EE5" mask="url(#mask-2)" points="668.251385 368.440436 673.512916 368.440436 673.512916 -2.77682425 668.251385 -2.77682425"></polygon>
                    <polygon id="Fill-250" fill="#009EE6" mask="url(#mask-2)" points="670.888739 368.440436 676.140857 368.440436 676.140857 -2.77682425 670.888739 -2.77682425"></polygon>
                    <polygon id="Fill-251" fill="#009EE6" mask="url(#mask-2)" points="673.512916 368.440436 678.766916 368.440436 678.766916 -2.77682425 673.512916 -2.77682425"></polygon>
                    <polygon id="Fill-252" fill="#009EE6" mask="url(#mask-2)" points="676.140857 368.440436 681.40427 368.440436 681.40427 -2.77682425 676.140857 -2.77682425"></polygon>
                    <polygon id="Fill-253" fill="#009FE6" mask="url(#mask-2)" points="678.766916 368.440436 684.030329 368.440436 684.030329 -2.77682425 678.766916 -2.77682425"></polygon>
                    <polygon id="Fill-254" fill="#009FE7" mask="url(#mask-2)" points="681.40427 368.440436 686.65827 368.440436 686.65827 -2.77682425 681.40427 -2.77682425"></polygon>
                    <polygon id="Fill-255" fill="#009FE7" mask="url(#mask-2)" points="684.030329 368.440436 689.284329 368.440436 689.284329 -2.77682425 684.030329 -2.77682425"></polygon>
                    <polygon id="Fill-256" fill="#009FE7" mask="url(#mask-2)" points="686.65827 368.440436 691.9198 368.440436 691.9198 -2.77682425 686.65827 -2.77682425"></polygon>
                    <polygon id="Fill-257" fill="#009FE8" mask="url(#mask-2)" points="689.284329 368.440436 694.545859 368.440436 694.545859 -2.77682425 689.284329 -2.77682425"></polygon>
                    <polygon id="Fill-258" fill="#00A0E9" mask="url(#mask-2)" points="691.9198 368.440436 697.173801 368.440436 697.173801 -2.77682425 691.9198 -2.77682425"></polygon>
                    <polygon id="Fill-259" fill="#00A0E9" mask="url(#mask-2)" points="694.545859 368.440436 716.030598 368.440436 716.030598 -2.77682425 694.545859 -2.77682425"></polygon>
                </g>
                <polygon id="Fill-260" fill="#044F9D" points="399 569.581098 399 555.106017 378.407676 555.106017 378.458708 569.581098 347.164802 569.581098 347.164802 532.111983 399 532.111983 399 514.412701 347.164802 514.412701 347.164802 485.697402 399 485.748133 399 468 275 468 275 485.697402 322.113801 485.697402 322.113801 514.412701 275 514.412701 275 532.111983 322.113801 532.111983 322.113801 569.581098 275 569.581098 275 588 399 588"></polygon>
                <g id="编组">
                    <path d="M409.477492,595.432324 L265.929888,595.432324 L265.954375,460.756116 L409.477492,460.756116 L409.477492,595.432324 Z M415.759147,445.227057 L258.817585,445.227057 C246.276876,445.227057 240.430322,449.939453 240.430322,460.842754 L240.430322,606.846041 L435.348118,606.846041 L435.348118,459.413215 C435.348118,449.950754 428.806532,445.227057 415.759147,445.227057 L415.759147,445.227057 Z" id="Fill-261" fill="#044F9D"></path>
                    <path d="M648.142546,507.057195 L487.961269,507.057195 L487.961269,522.721862 L533.991584,522.721862 L533.991584,606.147468 L559.826423,606.844345 L559.826423,522.721862 L639.664665,522.721862 L639.702336,573.883942 L625.238518,573.883942 L625.238518,579.615285 L659.204664,579.615285 C661.165444,579.615285 665.499504,577.191283 665.499504,573.883942 L665.499504,521.241469 C665.499504,511.794076 660.619214,507.057195 648.142546,507.057195" id="Fill-263" fill="#044F9D"></path>
                    <mask id="mask-4" fill="white">
                        <use xlink:href="#path-3"></use>
                    </mask>
                    <g id="Clip-266"></g>
                    <path d="M110.253887,568.550007 L167.310532,568.550007 L167.310532,485.945586 L110.253887,485.945586 L110.253887,568.550007 Z M83.4640852,568.550007 L27.1024716,568.538706 L27.1024716,485.945586 L83.4640852,485.945586 L83.4640852,568.550007 Z M176.223514,470.876089 L110.253887,470.876089 L110.253887,445.413707 L83.4640852,445.413707 L83.4640852,470.876089 L19.2819516,470.876089 C5.57720609,470.876089 -0.122431069,475.115739 0.00188355491,486.504971 L0.00188355491,580.214223 L83.4640852,580.214223 L83.4640852,606.844345 L110.253887,606.844345 L110.253887,580.214223 L193.765061,580.214223 L194.062662,485.770425 C194.635263,475.364355 188.700182,470.390159 176.223514,470.876089 L176.223514,470.876089 Z" id="Fill-265" fill="#044F9D" mask="url(#mask-4)"></path>
                    <path d="M792.02674,477.266076 L752.114212,477.266076 L771.205924,445.413142 L746.427759,445.413142 L722.318257,484.950558 C721.314322,493.57865 729.754531,493.57865 738.209809,493.57865 L798.457197,493.57865 L811.999957,493.57865 L811.999957,460.755739 L792.100199,460.755739 L792.02674,477.266076 Z" id="Fill-267" fill="#044F9D" mask="url(#mask-4)"></path>
                    <path d="M845.742901,564.298303 L882.018285,564.298303 L909.998493,536.298912 L875.972074,536.298912 L845.742901,564.149511 L845.742901,549.641283 L845.742901,536.298912 L820.740593,536.298912 L820.740593,588.6551 C820.740593,600.952155 831.73867,606.845476 855.524202,606.845476 L909.998493,606.845476 L909.998493,595.369605 L856.432075,595.369605 C853.439106,595.032467 845.742901,596.910268 845.742901,589.811539 L845.742901,569.49663 L845.742901,564.298303 Z" id="Fill-268" fill="#044F9D" mask="url(#mask-4)"></path>
                    <path d="M845.742901,508.499354 L845.742901,470.875524 L845.84838,470.790769 L845.742901,470.790769 L845.742901,445.413142 L821.659768,445.413142 L821.995041,500.304456 C822.157026,512.141949 824.451196,522.647843 845.319101,522.647843 L909.998493,522.647843 L909.998493,512.452719 L853.776263,512.452719 C848.411898,512.452719 845.742901,511.83118 845.742901,508.499354" id="Fill-269" fill="#044F9D" mask="url(#mask-4)"></path>
                    <path d="M786.885577,536.298535 L747.619108,536.298535 L747.619108,523.36864 C747.619108,521.492722 748.538283,520.547229 750.325776,520.547229 L784.178909,520.547229 C785.968286,520.547229 786.885577,521.492722 786.885577,523.36864 L786.885577,536.298535 Z M747.619108,568.577129 L786.885577,568.577129 L786.885577,549.529783 L747.619108,549.529783 L747.619108,568.577129 Z M793.129562,500.305774 L738.719311,500.305774 C728.030137,500.305774 722.319198,503.799577 722.319198,512.789292 L722.319198,606.845099 L746.750789,606.845099 L746.750789,583.657926 L786.885577,583.657926 L786.885577,606.845099 L812.000898,606.845099 L812.000898,513.024723 C812.000898,502.157207 805.619414,500.305774 793.129562,500.305774 L793.129562,500.305774 Z" id="Fill-270" fill="#044F9D" mask="url(#mask-4)"></path>
                    <polygon id="Fill-271" fill="#044F9D" mask="url(#mask-4)" points="636.535892 445.412954 610.665265 445.412954 610.665265 465.219331 546.481248 465.219331 546.481248 445.412954 520.610622 445.412954 520.610622 465.219331 487.961081 465.219331 487.961081 485.074678 520.610622 485.074678 520.610622 500.306151 546.481248 500.306151 546.481248 485.074678 610.665265 485.074678 610.665265 500.306151 636.535892 500.306151 636.535892 485.074678 665.499316 485.074678 665.499316 465.219331 636.535892 465.219331"></polygon>
                    <polygon id="Fill-272" fill="#044F9D" mask="url(#mask-4)" points="909.999058 445.412954 876.592328 445.412954 845.847062 470.790581 885.072093 470.850851"></polygon>
                    <path d="M312.847734,767.527254 L381.213243,767.527254 L381.213243,748.091916 L312.584037,748.091916 L312.584037,727.068829 C312.584037,723.518523 314.516564,722.565497 318.551139,722.565497 L376.161549,722.565497 L376.161549,703.371241 L312.584037,703.371241 L312.584037,684.482105 C312.584037,681.877291 315.67495,679.828096 318.522885,679.828096 L381.213243,679.828096 L381.213243,661.138605 L313.092596,661.138605 C266.246702,674.486627 277.651627,767.527254 312.847734,767.527254" id="Fill-273" fill="#044F9D" mask="url(#mask-4)"></path>
                    <path d="M165.37026,714.351011 C165.407953,748.769206 192.875834,767.500132 232.93528,767.500132 L264.597838,767.500132 L264.597838,748.119415 L253.379385,748.119415 C248.327691,748.119415 241.97446,748.006408 233.114218,747.853848 C210.916523,747.486575 197.814515,735.961735 197.814515,714.804922 C197.814515,693.101909 210.916523,680.292555 233.114218,679.866895 C241.908536,679.697384 247.536598,679.866895 252.051479,679.866895 L264.597838,679.866895 L264.597838,661.137852 L233.114218,661.137852 C192.97943,661.137852 165.342029,679.838643 165.37026,714.351011" id="Fill-274" fill="#044F9D" mask="url(#mask-4)"></path>
                    <path d="M406.013801,714.351011 C406.042076,748.769206 433.508073,767.500132 473.578821,767.500132 L505.230077,767.500132 L505.230077,748.119415 L494.022926,748.119415 C488.971231,748.119415 482.608583,748.006408 473.748341,747.853848 C451.560064,747.486575 438.458056,735.961735 438.458056,714.804922 C438.458056,693.101909 451.560064,680.292555 473.748341,679.866895 C482.542658,679.697384 488.168837,679.866895 492.685602,679.866895 L505.230077,679.866895 L505.230077,661.137852 L473.748341,661.137852 C433.621087,661.137852 405.985569,679.838643 406.013801,714.351011" id="Fill-275" fill="#044F9D" mask="url(#mask-4)"></path>
                    <path d="M555.432655,768 L623.798164,768 L623.798164,748.562779 L555.167073,748.562779 L555.167073,727.539692 C555.167073,723.979969 557.101484,723.036359 561.134175,723.036359 L618.746469,723.036359 L618.746469,703.843987 L555.167073,703.843987 L555.167073,684.954851 C555.167073,682.348154 558.259871,680.300842 561.107806,680.300842 L623.798164,680.300842 L623.798164,661.609468 L555.677517,661.609468 C508.831623,674.959373 520.234664,768 555.432655,768" id="Fill-276" fill="#044F9D" mask="url(#mask-4)"></path>
                    <path d="M694.087347,719.799083 C687.479837,719.902673 682.738929,719.978011 678.968052,719.978011 L678.438773,719.978011 L678.438773,671.795551 L679.956918,671.795551 C683.332249,671.795551 687.526926,671.682544 694.087347,671.795551 C710.649446,672.098787 720.423212,681.141238 720.423212,696.461234 C720.423212,711.397005 710.649446,719.533516 694.087347,719.799083 M694.087347,658.579371 L678.438773,658.579371 L670.597534,658.579371 L654.950843,658.579371 L654.950843,764.969903 L678.438773,764.969903 L678.438773,733.655636 L694.219196,733.655636 C724.116863,733.655636 744.609941,720.44134 744.628805,696.141047 C744.657029,671.776717 724.032103,658.579371 694.087347,658.579371" id="Fill-277" fill="#044F9D" mask="url(#mask-4)"></path>
                </g>
            </g>
        </g>
    </g>
</svg>