<?xml version="1.0" encoding="UTF-8"?>
<svg width="1025px" height="301px" viewBox="0 0 1025 301" version="1.1" xmlns="http://www.w3.org/2000/svg" xmlns:xlink="http://www.w3.org/1999/xlink">
    <title>中国联合网络通信集团有限公司@2x</title>
    <defs>
        <polygon id="path-1" points="0 0 399 0 399 301 0 301"></polygon>
        <polygon id="path-3" points="0 301 1025 301 1025 0 0 0"></polygon>
    </defs>
    <g id="页面-1" stroke="none" stroke-width="1" fill="none" fill-rule="evenodd">
        <g id="24.中国联合网络通信集团有限公司" transform="translate(0.000000, -234.000000)">
            <g id="中国联合网络通信集团有限公司" transform="translate(0.000000, 234.000000)">
                <g id="编组">
                    <mask id="mask-2" fill="white">
                        <use xlink:href="#path-1"></use>
                    </mask>
                    <g id="Clip-2"></g>
                    <path d="M261.64197,261.756532 C254.741273,268.709123 243.390061,268.709123 236.484265,261.756532 C229.721276,255.108002 223.786575,249.17677 223.786575,249.17677 L242.877992,230.009699 L218.855612,205.935817 L199.787657,225.142681 L180.557512,205.935817 L156.607556,230.009699 L175.743855,249.17677 C175.743855,249.17677 169.813235,255.108002 163.094109,261.756532 C156.188312,268.709123 144.744275,268.709123 137.748713,261.756532 C130.865357,254.854958 130.865357,243.404712 137.748713,236.498036 C144.997249,229.19853 199.603026,174.305303 199.603026,174.305303 C199.603026,174.305303 254.393433,229.19853 261.64197,236.498036 C268.707916,243.404712 268.707916,254.854958 261.64197,261.756532 L261.64197,261.756532 Z M137.748713,64.552522 C130.865357,57.4397377 130.865357,46.2721256 137.748713,39.2256634 C144.744275,32.2965402 156.188312,32.2965402 163.094109,39.2256634 C169.813235,45.9476578 175.743855,51.8788893 175.743855,51.8788893 L156.607556,70.9735163 L180.557512,95.0025034 L199.787657,75.885429 L218.855612,95.0025034 L242.877992,70.9735163 L223.786575,51.8788893 C223.786575,51.8788893 229.721276,45.9476578 236.484265,39.2256634 C243.390061,32.2965402 254.741273,32.2965402 261.64197,39.2256634 C268.707916,46.2721256 268.707916,57.4397377 261.64197,64.552522 C254.393433,71.7846859 199.603026,126.728929 199.603026,126.728929 C199.603026,126.728929 144.997249,71.7846859 137.748713,64.552522 L137.748713,64.552522 Z M223.786575,150.596703 C223.786575,150.596703 280.130532,206.790861 285.642928,212.446601 C305.984937,232.724822 305.984937,265.536888 285.642928,285.88041 C265.421287,306.040271 232.683526,306.040271 212.297655,285.88041 C204.397301,277.795243 199.787657,273.110866 199.787657,273.110866 C199.787657,273.110866 195.108648,277.795243 187.13893,285.88041 C166.868326,306.040271 134.063241,306.040271 113.748774,285.88041 C93.5220322,265.536888 93.5220322,232.724822 113.748774,212.446601 C119.352976,206.790861 175.743855,150.596703 175.743855,150.596703 C175.743855,150.596703 119.352976,94.2137812 113.748774,88.563143 C93.5220322,68.3094107 93.5220322,35.4973442 113.748774,15.1711678 C134.063241,-5.05705594 166.868326,-5.05705594 187.13893,15.1711678 C195.108648,23.2145014 199.787657,27.8499022 199.787657,27.8499022 C199.787657,27.8499022 204.397301,23.2145014 212.297655,15.1711678 C232.683526,-5.05705594 265.421287,-5.05705594 285.642928,15.1711678 C305.984937,35.4973442 305.984937,68.3094107 285.642928,88.563143 C280.130532,94.2137812 223.786575,150.596703 223.786575,150.596703 L223.786575,150.596703 Z M359.775687,163.087695 C352.87499,170.179052 341.523778,170.179052 334.525156,163.087695 C328.826089,157.38808 321.853988,150.596703 321.853988,150.596703 C321.853988,150.596703 328.826089,143.507386 334.525156,137.895521 C341.523778,130.827631 352.87499,130.827631 359.775687,137.895521 C363.301009,141.370796 364.945344,145.890898 364.945344,150.596703 C364.945344,155.044361 363.301009,159.634867 359.775687,163.087695 L359.775687,163.087695 Z M383.780726,113.822659 C363.626408,93.6352489 330.728498,93.6352489 310.481355,113.822659 C304.732305,119.660019 297.831609,126.496292 297.831609,126.496292 L278.742232,107.423092 L254.741273,131.317394 L273.782707,150.596703 L254.741273,169.598479 L278.742232,193.605018 L297.831609,174.53692 C297.831609,174.53692 304.732305,181.39564 310.481355,187.210553 C330.728498,207.441838 363.626408,207.441838 383.780726,187.210553 C393.974171,177.085727 399,163.73459 399,150.596703 C399,137.249646 393.974171,123.925037 383.780726,113.822659 L383.780726,113.822659 Z M64.5635888,163.087695 C57.4976429,170.179052 46.1454108,170.179052 39.2181928,163.087695 C35.7693747,159.634867 34.0546562,155.044361 34.0546562,150.596703 C34.0546562,145.890898 35.7693747,141.370796 39.2181928,137.895521 C46.1454108,130.827631 57.4976429,130.827631 64.5635888,137.895521 C70.1463695,143.507386 77.1449915,150.596703 77.1449915,150.596703 C77.1449915,150.596703 70.1463695,157.38808 64.5635888,163.087695 L64.5635888,163.087695 Z M120.142501,193.605018 L144.329111,169.598479 L125.189751,150.596703 L144.329111,131.317394 L120.142501,107.423092 L101.073526,126.496292 C101.073526,126.496292 94.3319588,119.660019 88.4962035,113.822659 C68.3418858,93.6352489 35.3501306,93.6352489 15.1958129,113.822659 C5.00338741,123.925037 0,137.249646 0,150.596703 C0,163.73459 5.00338741,177.085727 15.1958129,187.210553 C35.3501306,207.441838 68.3418858,207.441838 88.4962035,187.210553 C94.3319588,181.39564 101.073526,174.53692 101.073526,174.53692 L120.142501,193.605018 Z" id="Fill-1" fill="#D70010" mask="url(#mask-2)"></path>
                </g>
                <path d="M679.432183,247.356328 C676.706734,250.277041 673.181984,251.776477 668.611758,251.776477 C664.483413,251.776477 661.036945,250.214307 658.272354,247.237031 C655.666388,244.313233 654.384005,240.554358 654.384005,235.852422 C654.384005,231.470324 655.666388,227.707335 658.351667,224.786623 C661.136857,221.785693 664.622466,220.285228 668.773472,220.285228 C673.181984,220.285228 676.706734,221.785693 679.432183,224.786623 C682.197804,227.630204 683.559499,231.470324 683.559499,236.033424 C683.559499,240.654115 682.197804,244.39345 679.432183,247.356328 L679.432183,247.356328 Z M682.83848,211.300951 L682.83848,217.126951 C678.067399,212.282064 672.579419,210 666.525955,210 C659.574308,210 653.664017,212.502146 649.05362,217.383027 C644.405111,222.286534 642,228.487906 642,235.852422 C642,243.31258 644.405111,249.656903 649.05362,254.616973 C653.78247,259.598639 659.635079,262 666.888524,262 C672.579419,262 677.866544,259.880426 682.83848,255.378004 L682.83848,260.599292 L695,260.599292 L695,211.300951 L682.83848,211.300951 Z" id="Fill-3" fill="#010000"></path>
                <path d="M518,189 L530.309168,189 L530.309168,217.016495 C530.309168,217.016495 534.708875,210.579381 544.251083,210.579381 C552.976417,210.579381 561,216.576289 561,231.676289 L561,261 L549.784001,261 L549.784001,230.816495 C549.784001,225.641237 547.796876,219.163918 540.667249,219.163918 C533.754854,219.163918 530.309168,224.417526 530.309168,230.816495 L530.309168,261 L518,261 L518,189 Z" id="Fill-5" fill="#010000"></path>
                <path d="M513,248.338724 C510.216436,252.111469 506.831689,255.349478 502.4659,257.750687 C497.418633,260.586624 491.811358,262 485.684224,262 C476.672643,262 468.940637,258.742601 462.591147,252.527828 C456.18401,246.217129 453,238.650208 453,229.559699 C453,220.01099 456.544308,211.871575 463.793515,205.456786 C470.143004,199.840019 477.392211,197 485.622459,197 C491.530325,197 497.138629,198.551142 502.425753,201.36871 C506.671099,203.850538 510.216436,206.946699 513,210.817411 L502.185897,218.442499 C501.543536,216.594395 500.422493,215.047335 499.13983,213.498234 C495.575963,209.488735 491.11032,207.423267 485.484516,207.423267 C480.076949,207.423267 475.549541,209.488735 471.984644,213.636 C468.339453,217.784284 466.578108,223.107151 466.578108,229.559699 C466.578108,236.190831 468.339453,241.551456 471.984644,245.796687 C475.470275,249.865374 479.955477,251.851244 485.484516,251.851244 C490.891053,251.851244 495.416402,249.865374 499.13983,245.621163 C500.342198,244.090431 501.484859,242.464793 502.185897,240.634037 C502.185897,240.634037 510.216436,246.353874 513,248.338724" id="Fill-7" fill="#010000"></path>
                <path d="M619.290513,211.006104 C607.664346,210.773501 603.945455,217.266318 603.945455,217.266318 L603.379863,211.651776 L593,211.651776 L593,260 L605.035595,260 L605.035595,230.626922 C605.035595,224.46396 608.774508,219.258478 615.550599,219.258478 C622.717099,219.258478 624.8203,225.654042 624.8203,230.626922 L624.8203,260 L636,260 L636,231.523244 C636,216.699851 627.995623,211.006104 619.290513,211.006104" id="Fill-9" fill="#010000"></path>
                <mask id="mask-4" fill="white">
                    <use xlink:href="#path-3"></use>
                </mask>
                <g id="Clip-12"></g>
                <polygon id="Fill-11" fill="#D70010" mask="url(#mask-4)" points="571 260 582 260 582 211 571 211"></polygon>
                <path d="M576.348108,206 C572.496909,206 570,202.937876 570,199.488978 C570,195.826653 572.725237,193 576.5,193 C580.559928,193 583,195.826653 583,199.488978 C583,202.937876 580.559928,206 576.5,206 L576.348108,206 Z" id="Fill-13" fill="#D70010" mask="url(#mask-4)"></path>
                <path d="M830.347606,207 C826.496118,207 824,204.080653 824,200.656072 C824,196.86032 826.724463,194 830.49951,194 C834.559744,194 837,196.86032 837,200.656072 C837,204.080653 834.559744,207 830.49951,207 L830.347606,207 Z" id="Fill-14" fill="#D70010" mask="url(#mask-4)"></path>
                <path d="M1006.25914,212.009599 C998.89711,211.873562 993.74154,214.930865 989.501492,219.579295 C986.596369,214.403848 981.740517,212.205089 976.646322,212.009599 C966.099906,211.715356 961.663456,218.283418 961.663456,218.283418 L961.166311,212.442902 L950,212.442902 L950,261 L962.517603,261 L962.517603,231.71076 C962.517603,225.418803 965.900435,220.383424 972.34899,220.383424 C979.034865,220.383424 980.944676,226.712665 980.944676,231.771221 L980.944676,261 L992.329895,261 L992.329895,232.321414 L992.329895,232.475589 C992.409684,224.24284 996.210894,220.383424 1001.93931,220.383424 C1008.64769,220.383424 1010.63729,226.712665 1010.63729,231.771221 L1010.63729,261 L1022,261 L1022,232.53605 C1022,217.853138 1014.45691,212.205089 1006.25914,212.009599" id="Fill-15" fill="#010000" mask="url(#mask-4)"></path>
                <polygon id="Fill-16" fill="#D70010" mask="url(#mask-4)" points="825 261 836 261 836 212 825 212"></polygon>
                <path d="M919.563307,219.707664 C915.562274,219.707664 912.343669,221.33654 909.729716,224.55295 C906.996899,227.832406 905.709044,232.055494 905.709044,237.038241 C905.709044,242.265941 906.996899,246.550008 909.570543,249.767451 C912.284755,252.946653 915.501292,254.512482 919.563307,254.512482 C923.565375,254.512482 926.983463,252.946653 929.555039,249.686834 C932.288889,246.411512 933.720413,242.189458 933.720413,237.038241 C933.720413,231.97281 932.288889,227.832406 929.718346,224.472333 C927.062016,221.33654 923.723514,219.707664 919.563307,219.707664 M918.698191,211 C923.403101,211 927.70801,212.207187 931.848579,214.561616 C935.990181,216.831293 939.289406,220.110749 941.500258,223.992765 C943.77416,228.052552 945,232.414136 945,236.961759 C945,241.704723 943.77416,246.047702 941.419638,250.108523 C939.126098,254.172444 935.990181,257.389887 932.010853,259.600652 C927.989147,261.95198 923.565375,263 918.778811,263 C911.579845,263 905.567442,260.606297 900.561757,255.498489 C895.453747,250.451662 893,244.320639 893,237.038241 C893,229.339323 895.85478,222.906503 901.567442,217.836938 C906.553488,213.273811 912.284755,211 918.698191,211" id="Fill-17" fill="#010000" mask="url(#mask-4)"></path>
                <path d="M798.916061,212.001546 C787.215335,211.885334 783.263698,218.358151 783.263698,218.358151 L782.708222,212.724867 L772,212.724867 L772,261 L784.397113,261 L784.397113,231.824736 C784.397113,225.431064 788.071013,220.442957 794.983825,220.442957 C802.312223,220.442957 804.438143,226.678341 804.438143,231.824736 L804.438143,261 L816,261 L816,232.642229 C816,217.9464 807.815924,212.237978 798.916061,212.001546" id="Fill-18" fill="#010000" mask="url(#mask-4)"></path>
                <path d="M734.462827,260.997159 C746.077741,261.154574 749.892749,254.717606 749.892749,254.717606 L750.439617,260.314359 L761,260.314359 L761,212 L748.719596,212 L748.719596,241.337335 C748.719596,247.597838 745.238339,252.688256 738.29593,252.688256 C731.058976,252.688256 728.242204,246.330497 728.242204,241.337335 L728.242204,212 L716,212 L716,240.362766 C716,255.205893 725.662675,260.880853 734.462827,260.997159" id="Fill-19" fill="#010000" mask="url(#mask-4)"></path>
                <path d="M893,252.023093 C890.968472,255.173796 888.185391,257.642568 884.789707,259.506785 C880.884873,261.856916 876.404963,263 871.650194,263 C864.626565,263 858.608049,260.410523 853.556107,255.454408 C848.525464,250.376557 846,244.253631 846,237.048488 C846,229.363622 848.940289,222.899214 854.542965,217.680025 C859.45697,213.265534 865.179327,211 871.650194,211 C876.108804,211 880.608999,212.141021 884.672054,214.549956 C888.027169,216.398699 890.829521,218.946909 892.920889,221.956273 L883.825162,228.660027 C883.2724,227.212602 882.423479,226.090152 881.575572,225.029601 C879.068364,221.956273 875.833945,220.389175 871.767846,220.389175 C867.981679,220.389175 864.784786,221.956273 862.238023,225.029601 C859.595921,228.15967 858.332175,232.154273 858.332175,237.048488 C858.332175,241.988096 859.595921,246.041505 862.238023,249.190144 C864.784786,252.24387 867.981679,253.729466 871.767846,253.729466 C875.715278,253.729466 878.911157,252.24387 881.436621,249.13237 C882.423479,247.967622 883.2724,246.681136 883.825162,245.33791 L893,252.023093 Z" id="Fill-20" fill="#010000" mask="url(#mask-4)"></path>
                <path d="M923.505164,62.6454755 C914.154774,49.7276766 904.099903,42.725343 904.099903,42.725343 L894.171086,49.8553633 L910.77672,72.1606817 L923.505164,62.6454755 Z M984.563272,90.822335 L1004.25622,90.822335 L1004.25622,82.2734611 L984.563272,82.2734611 L984.563272,90.822335 Z M984.563272,111.20929 L1004.25622,111.20929 L1004.25622,102.692082 L984.563272,102.692082 L984.563272,111.20929 Z M948.126435,90.822335 L967.701463,90.822335 L967.701463,82.2734611 L948.126435,82.2734611 L948.126435,90.822335 Z M948.126435,111.20929 L967.701463,111.20929 L967.701463,102.692082 L948.126435,102.692082 L948.126435,111.20929 Z M973.462352,64.9908232 L994.491072,52.3304405 L930.309052,52.3304405 L930.309052,40 L1018.19641,40 L1018.19641,54.3386955 L992.243441,69.813291 L1011.85913,69.813291 C1017.44415,69.813291 1022.03294,74.5162442 1022.03294,80.2192389 L1022.03294,129.661537 C1022.03294,137.998962 1015.40594,144.66931 1007.09956,144.66931 L994.907865,144.66931 L991.52981,132.046723 L999.250642,132.046723 C1001.42406,132.046723 1004.25622,130.540021 1004.25622,128.19263 L1004.25622,123.111725 L984.563272,123.111725 L984.563272,133.3859 C984.266434,141.231987 979.514996,144.66931 973.047592,144.66931 L967.701463,144.66931 L967.701463,123.111725 L948.126435,123.111725 L948.126435,133.47477 C948.126435,140.935754 941.907073,144.66931 936.233609,144.66931 L931.22498,144.66931 L931.22498,69.813291 L956.43281,69.813291 L949.885097,64.1133608 L956.43281,55.475617 C956.43281,55.475617 965.446716,59.6290071 973.462352,64.9908232 L973.462352,64.9908232 Z M929.137966,150.499992 C924.716913,150.499992 921.129446,146.766435 921.129446,142.28106 L921.129446,77.8217952 L893,77.8217952 L893,90.320782 L902.429682,90.320782 L902.429682,147.353794 C902.429682,156.997708 910.77672,163 917.412874,163 L1024,163 L1024,150.499992 L929.137966,150.499992 Z" id="Fill-21" fill="#010000" mask="url(#mask-4)"></path>
                <path d="M857.049486,108.640376 L882,164.534392 L863.840336,164.534392 L845.674584,123.33419 L832.34451,156.659683 C830.431951,161.105462 825.39132,164.534392 820.394318,164.534392 L811.189688,164.534392 L832.761518,108.640376 L814.434442,108.640376 L814.434442,96.1169257 L835.179357,96.1169257 L835.179357,77.1058411 L814.434442,77.1058411 L814.434442,64.6344065 L830.14177,64.6344065 L817.439745,42.9430037 L827.186183,37 C827.186183,37 834.845547,44.658489 843.758982,57.0085546 L833.386524,64.6344065 L846.091592,64.6344065 L863.584652,37 L877.17041,46.7503202 L862.958631,64.6344065 L878.667989,64.6344065 L878.667989,77.1058411 L854.677305,77.1058411 L854.677305,96.1169257 L878.667989,96.1169257 L878.667989,108.640376 L857.049486,108.640376 Z M773.950099,99.0889376 L789.026334,99.0889376 L789.026334,83.9749213 L773.950099,83.9749213 L773.950099,99.0889376 Z M789.026334,126.7723 L773.950099,131.039595 L773.950099,111.610348 L789.026334,111.610348 L789.026334,126.7723 Z M815.058433,119.523814 L806.776092,121.867562 L806.776092,52.1548125 C806.776092,44.369855 802.026657,39.6334024 796.106351,39.6334024 L752.043444,39.6334024 L752.043444,52.1548125 L789.026334,52.1548125 L789.026334,71.4545311 L773.950099,71.4545311 L773.950099,58.5628943 L757.370198,58.5628943 L757.370198,135.85458 L750,137.945391 L750,151.845717 L789.026334,140.748099 L789.026334,166 L796.106351,166 C801.44325,166 805.269382,162.571069 806.776092,155.91209 L806.776092,135.85458 L815.058433,133.42006 L815.058433,119.523814 Z" id="Fill-22" fill="#010000" mask="url(#mask-4)"></path>
                <path d="M562.721003,109.684761 C562.721003,114.163177 559.162602,117.848105 554.682974,117.848105 L529.724174,117.848105 L529.724174,67.0189513 L562.721003,67.0189513 L562.721003,109.684761 Z M570.598864,54.377192 L529.724174,54.377192 L529.724174,37 L508.446197,37 L508.446197,54.377192 L481.688813,54.377192 L481.688813,67.0189513 L508.446197,67.0189513 L508.446197,117.848105 L475.447327,117.848105 L475.447327,54.377192 L454,54.377192 L454,130.031925 L508.446197,130.031925 L508.446197,166 L511.715887,166 C523.900964,165.502285 529.305898,160.34869 529.724174,151.306186 L529.724174,130.031925 L565.701981,130.031925 C575.373325,130.031925 583.541937,122.326521 584,112.536424 L584,67.1872361 C583.541937,60.1498711 577.886038,54.377192 570.598864,54.377192 L570.598864,54.377192 Z" id="Fill-23" fill="#010000" mask="url(#mask-4)"></path>
                <path d="M703.805211,125.895363 L703.805211,138.355975 L628.075341,138.355975 L628.075341,125.895363 L654.688707,125.895363 L654.688707,105.056681 L628.654203,105.056681 L628.654203,92.6337763 L654.688707,92.6337763 L654.688707,77.195337 L628.654203,77.195337 L628.654203,64.6847896 L703.218182,64.6847896 L703.218182,77.195337 L674.299576,77.195337 L674.299576,92.6337763 L703.218182,92.6337763 L703.218182,105.056681 L674.299576,105.056681 L674.299576,125.895363 L688.885473,125.895363 L678.198473,113.970802 L685.615464,106.559862 C685.615464,106.559862 692.238178,110.414122 700.532139,118.155252 L694.246329,125.895363 L703.805211,125.895363 Z M716.459526,40 L628.075341,40 L628.075341,52.3006115 L710.342168,52.3006115 L710.342168,142.541444 C710.342168,146.973536 706.817949,150.448688 702.298332,150.448688 L621.48938,150.448688 L621.48938,40 L602,40 L602,163 L712.147156,163 C721.997001,163 730,155.131481 730,145.140164 L730,53.3472335 C730,45.9852105 724.044968,40 716.459526,40 L716.459526,40 Z" id="Fill-24" fill="#010000" mask="url(#mask-4)"></path>
            </g>
        </g>
    </g>
</svg>