<?xml version="1.0" encoding="UTF-8"?>
<svg width="1024px" height="546px" viewBox="0 0 1024 546" version="1.1" xmlns="http://www.w3.org/2000/svg" xmlns:xlink="http://www.w3.org/1999/xlink">
    <title>中国盐业集团有限公司@2x</title>
    <g id="页面-1" stroke="none" stroke-width="1" fill="none" fill-rule="evenodd">
        <g id="62.中国盐业集团有限公司" transform="translate(0.000000, -111.000000)">
            <g id="中国盐业集团有限公司" transform="translate(0.000000, 111.000000)">
                <path d="M649.608331,227.567488 L649.608331,227.567488 C646.702462,230.427292 646.702462,235.145423 649.608331,238.016142 C652.478696,240.835014 657.159767,240.835014 660.030131,238.016142 C662.914152,235.159067 662.916883,230.427292 660.030131,227.567488 C657.159767,224.67221 652.478696,224.67221 649.608331,227.567488 L649.608331,227.567488 Z M634.702097,240.835014 L634.702097,240.835014 C631.766187,243.768496 631.359256,248.298338 633.541388,251.687533 C629.971867,249.215221 625.24983,249.447171 621.934299,252.306975 C624.684497,248.988729 624.916639,244.347006 622.647111,240.835014 C625.995415,242.94985 630.493503,242.556899 633.429414,239.66435 C636.805029,236.242409 636.805029,230.746564 633.429414,227.409217 C630.021027,223.973632 624.577985,223.973632 621.150479,227.409217 C618.233686,230.269021 617.832218,234.749744 619.932418,238.166227 C616.442098,235.764865 611.711868,236.010459 608.431841,238.752924 C611.220273,235.451051 611.422373,230.694717 609.01083,227.256403 C612.402831,229.439459 616.988314,229.04378 619.932418,226.102112 C623.329881,222.707459 623.329881,217.208886 619.932418,213.855165 C616.537686,210.403207 611.050946,210.403207 607.617979,213.855165 C604.687531,216.755902 604.310642,221.343049 606.50643,224.67221 C602.977875,222.276305 598.225796,222.464594 594.943038,225.258906 C597.712353,221.935203 597.884411,217.252547 595.552069,213.740555 C598.91949,215.934527 603.483124,215.555221 606.424497,212.610823 C609.830154,209.167052 609.830154,203.695767 606.424497,200.358419 C603.021572,196.958309 597.567606,196.958309 594.148294,200.358419 C591.195996,203.300088 590.838225,207.827201 593.006702,211.175464 C589.48634,208.749542 584.720606,208.94056 581.388689,211.723957 C584.133424,208.47666 584.411994,203.772174 582.04961,200.328402 C585.408838,202.440509 589.931506,202.058474 592.881073,199.086789 C596.28946,195.711238 596.28946,190.237224 592.881073,186.837114 C589.48634,183.46702 583.988677,183.46702 580.602138,186.837114 C577.663496,189.773325 577.281145,194.286794 579.44416,197.58048 C575.69985,195.102711 570.803024,195.626644 567.427409,198.819364 C567.080562,199.198671 566.780143,199.460637 566.304935,199.94091 L512.811275,253.076502 C509.768853,255.791679 507.007731,253.155638 507.007731,253.155638 L450.135725,196.690884 C448.019139,194.286794 450.182154,192.39845 450.182154,192.39845 L507.515712,135.123236 C510.047423,132.948366 512.34153,135.123236 512.34153,135.123236 L563.633939,186.250417 C569.590424,192.925112 575.1946,186.329553 575.1946,186.329553 L630.567243,131.324718 C637.217422,124.72643 630.96598,118.264583 630.96598,118.264583 L515.566935,3.00466308 C513.499507,0.739742062 511.45666,-0.010683575 509.648685,0.000114614314 C505.94261,0.0193334505 503.208799,3.23661282 503.208799,3.23661282 L318.579612,188.108744 C312.729639,195.179118 318.658813,200.358419 318.658813,200.358419 L504.776439,385.421568 C510.353304,391.22304 515.676178,385.421568 515.676178,385.421568 L635.300204,265.956535 C638.416366,262.810205 638.492836,257.827379 636.097679,254.233522 C639.462369,256.408392 643.982307,256.094578 646.972839,253.155638 C650.34026,249.720053 650.34026,244.270599 646.972839,240.835014 C643.567182,237.467649 638.107754,237.467649 634.702097,240.835014 L634.702097,240.835014 Z M642.06782,133.341317 C643.406049,131.946889 645.650996,131.946889 647.011074,133.341317 C648.423042,134.648422 648.423042,136.812376 647.011074,138.242278 C645.650996,139.67218 643.406049,139.67218 642.06782,138.204075 C640.661314,136.812376 640.661314,134.648422 642.06782,133.341317 L642.06782,133.341317 Z M632.107572,141.688778 C633.860925,139.906859 636.744945,139.906859 638.514685,141.688778 C640.32266,143.467969 640.32266,146.406909 638.514685,148.153354 C636.744945,150.000766 633.860925,150.000766 632.107572,148.153354 C630.294135,146.406909 630.294135,143.467969 632.107572,141.688778 L632.107572,141.688778 Z M620.361197,151.17143 L620.361197,151.17143 C618.195451,153.36813 618.195451,156.910139 620.361197,159.008602 C622.469591,161.169828 626.039112,161.169828 628.169355,159.008602 C630.335101,156.910139 630.335101,153.36813 628.169355,151.17143 C626.039112,148.99656 622.469591,148.993831 620.361197,151.17143 L620.361197,151.17143 Z M608.666714,161.950271 C611.220273,159.426112 615.28412,159.426112 617.78852,161.950271 C620.284727,164.493531 620.284727,168.556745 617.78852,171.102735 C615.28412,173.501368 611.220273,173.501368 608.666714,171.102735 C606.15412,168.556745 606.15412,164.493531 608.666714,161.950271 L608.666714,161.950271 Z M622.363079,175.427915 L622.363079,175.427915 C619.850486,177.949345 619.850486,182.03439 622.363079,184.517616 C624.875672,186.992656 628.936788,186.992656 631.465768,184.517616 C633.961975,182.03439 633.961975,177.949345 631.465768,175.427915 C628.936788,172.914671 624.875672,172.914671 622.363079,175.427915 L622.363079,175.427915 Z M635.832764,188.919204 C638.337165,186.373214 642.403742,186.373214 644.92726,188.919204 C647.43166,191.407888 647.43166,195.449271 644.92726,197.959786 C642.403742,200.516691 638.337165,200.47303 635.832764,197.959786 C633.331095,195.449271 633.331095,191.407888 635.832764,188.919204 Z M649.4035,202.421408 L649.400769,202.421408 C646.885444,204.885532 646.885444,208.978763 649.400769,211.453803 C651.896976,214.005251 655.996327,214.005251 658.489802,211.453803 C661.007858,209.00878 661.010589,204.885532 658.489802,202.421408 C655.996327,199.899977 651.896976,199.899977 649.4035,202.421408 L649.4035,202.421408 Z M662.589153,215.901781 C665.145444,213.391266 669.206559,213.391266 671.68638,215.901781 C674.223553,218.409567 674.223553,222.513713 671.68638,224.966922 C669.206559,227.567488 665.145444,227.567488 662.589153,224.966922 C660.112064,222.513713 660.109333,218.409567 662.589153,215.901781 L662.589153,215.901781 Z M634.865962,164.411667 L634.865962,164.411667 C632.708409,166.499214 632.71114,170.052139 634.865962,172.180619 C637.031708,174.358218 640.52476,174.358218 642.665926,172.180619 C644.87537,170.052139 644.87537,166.499214 642.665926,164.411667 C640.52476,162.20678 637.031708,162.20678 634.865962,164.411667 L634.865962,164.411667 Z M648.31653,177.791074 L648.31653,177.791074 C646.142591,179.9523 646.142591,183.46702 648.31653,185.587314 C650.482276,187.792201 653.975327,187.792201 656.135612,185.587314 C658.334131,183.46702 658.334131,179.9523 656.135612,177.791074 C653.975327,175.616204 650.482276,175.616204 648.31653,177.791074 L648.31653,177.791074 Z M661.556805,191.328752 L661.556805,191.328752 C659.396521,193.481792 659.396521,197.004699 661.556805,199.119535 C663.7444,201.324422 667.262031,201.324422 669.397735,199.119535 C671.593523,197.004699 671.593523,193.481792 669.397735,191.361498 C667.262031,189.162069 663.7444,189.162069 661.556805,191.328752 L661.556805,191.328752 Z M675.25317,204.6836 L675.25317,204.6836 C673.106541,206.934877 673.106541,210.362275 675.25317,212.528959 C677.435303,214.706557 680.958396,214.706557 683.0941,212.528959 C685.26804,210.403207 685.26804,206.934877 683.0941,204.6836 C680.958396,202.525103 677.435303,202.525103 675.25317,204.6836 L675.25317,204.6836 Z M645.604568,155.133677 C647.398887,153.288994 650.255597,153.288994 652.030799,155.133677 C653.85516,156.910139 653.85516,159.786316 652.030799,161.549134 C650.258328,163.377444 647.398887,163.377444 645.604568,161.549134 C643.821173,159.786316 643.821173,156.910139 645.604568,155.133677 L645.604568,155.133677 Z M659.120682,168.556745 C660.91227,166.815758 663.788097,166.815758 665.576954,168.556745 C667.354887,170.360495 667.354887,173.220299 665.576954,175.043151 C663.788097,176.860546 660.91227,176.860546 659.120682,175.043151 C657.326362,173.220299 657.326362,170.363224 659.120682,168.556745 L659.120682,168.556745 Z M672.691417,182.116254 C674.450233,180.339792 677.331522,180.339792 679.131303,182.116254 C680.895581,183.898174 680.895581,186.757978 679.131303,188.523525 C677.331522,190.31636 674.450233,190.31636 672.688686,188.523525 C670.872518,186.757978 670.872518,183.898174 672.688686,182.116254 L672.691417,182.116254 Z M686.182951,195.689407 C687.944498,193.863826 690.825787,193.863826 692.609182,195.689407 C694.395308,197.375818 694.395308,200.328402 692.609182,202.058474 C690.825787,203.829479 687.944498,203.829479 686.18022,202.058474 C684.388632,200.325673 684.388632,197.375818 686.18022,195.689407 L686.182951,195.689407 Z M655.548429,146.778029 C656.913969,145.389059 659.120682,145.391788 660.527188,146.778029 C661.906383,148.096049 661.906383,150.350055 660.527188,151.730838 C659.120682,153.130723 656.913969,153.130723 655.548429,151.730838 C654.185621,150.350055 654.185621,148.096049 655.548429,146.778029 L655.548429,146.778029 Z M669.050888,160.312978 C670.419159,158.973128 672.64772,158.975856 673.994142,160.312978 C675.386993,161.666473 675.386993,163.906835 673.994142,165.303991 C672.64772,166.622011 670.419159,166.622011 669.050888,165.303991 C667.66623,163.906835 667.66623,161.666473 669.050888,160.312978 L669.050888,160.312978 Z M682.564271,173.771521 C683.918886,172.374365 686.131061,172.442586 687.512987,173.771521 C688.897645,175.157762 688.897645,177.318988 687.512987,178.718873 C686.131061,180.1133 683.918886,180.1133 682.56154,178.718873 C681.165958,177.316259 681.165958,175.157762 682.56154,173.771521 L682.564271,173.771521 Z M695.995721,187.21642 C697.372185,185.895671 699.581629,185.895671 700.963555,187.21642 C702.345482,188.646322 702.345482,190.843022 700.963555,192.161042 C699.581629,193.560927 697.372185,193.560927 695.995721,192.161042 C694.621988,190.843022 694.619257,188.646322 695.995721,187.21642 L695.995721,187.21642 Z M595.614883,173.501368 L595.614883,173.501368 C592.744519,176.396646 592.744519,181.103862 595.614883,183.97731 C598.528946,186.837114 603.199092,186.834385 606.088574,183.97731 C608.975326,181.103862 608.975326,176.396646 606.088574,173.501368 C603.199092,170.685225 598.531677,170.685225 595.614883,173.501368 L595.614883,173.501368 Z M609.01083,187.096352 C611.916699,184.236548 616.603232,184.27748 619.498176,187.096352 C622.398583,189.997088 622.398583,194.682473 619.498176,197.531361 C616.603232,200.47303 611.916699,200.47303 609.01083,197.531361 C606.115885,194.682473 606.115885,189.997088 609.01083,187.096352 L609.01083,187.096352 Z M622.712657,200.598555 L622.712657,200.598555 C619.850486,203.458359 619.850486,208.154659 622.712657,211.033565 C625.607602,213.871538 630.294135,213.871538 633.150844,211.033565 C636.053982,208.154659 636.053982,203.458359 633.150844,200.598555 C630.294135,197.733294 625.607602,197.733294 622.712657,200.598555 L622.712657,200.598555 Z M636.299779,214.035268 C639.191993,211.172735 643.821173,211.172735 646.743428,214.035268 C649.643835,216.914173 649.641104,221.61866 646.743428,224.470277 C643.821173,227.409217 639.191993,227.409217 636.299779,224.470277 C633.391179,221.61866 633.391179,216.914173 636.299779,214.035268 L636.299779,214.035268 Z" id="Fill-1" fill="#D70110"></path>
                <path d="M42.4200061,467 L42.4200061,472.566046 C52.1440396,473.438398 65.3592409,472.673033 74.4755224,472.933641 C74.3964873,480.291027 74.4755224,490.877214 74.4755224,501.863914 C74.4755224,512.499479 75.6555971,524.11164 74.4755224,531.902459 C74.1239528,534.223245 72.6604421,535.677165 71.1587766,537.471248 C62.7565358,538.974547 51.1547391,538.110424 42.7879277,538.209181 C42.0003028,540.919508 42.7906531,543.210119 42.7879277,545.626919 C40.4196023,545.914959 35.08065,545.220918 32.1045725,546 C31.3087716,544.205917 31.9328757,540.97986 31.7339255,538.582263 L0.416977894,538.582263 C0.539618452,519.664838 0.00272534572,502.033995 0,482.620043 C0,479.443364 0.0136267286,476.22005 0.0490562229,472.933641 L31.3660038,472.933641 C32.1345513,471.603167 31.556778,468.925759 31.7339255,467 L42.4200061,467 Z M42.4200061,483.319571 L42.4200061,527.825995 C49.0616736,527.584589 56.6572121,528.311549 62.6856768,527.455657 C64.1382861,514.329224 63.4378722,497.06049 63.0535985,483.319571 C57.6247098,483.294882 49.0698496,483.338774 42.4200061,483.319571 L42.4200061,483.319571 Z M11.4709801,483.319571 C10.5852428,497.37322 11.3864944,514.307278 11.1030584,527.825995 C16.7254467,528.670915 25.4002221,527.900063 31.7339255,527.825995 L31.7339255,483.319571 L11.4709801,483.319571 Z" id="Fill-3" fill="#231916"></path>
                <path d="M509.465781,467 C509.465781,489.569136 509.465781,512.132829 509.465781,534.699243 C511.725314,535.512962 515.458456,534.857088 518.321077,535.069363 C519.147935,512.274345 518.585781,484.956247 518.321077,467 L529.021113,467 L529.021113,534.699243 C536.282729,535.548341 545.124381,534.827152 553,535.069363 C552.413285,537.679251 552.413285,542.390112 553,545 L477,545 L477,535.069363 L499.134147,535.069363 C499.273321,512.290674 498.844883,488.407069 499.134147,467 L509.465781,467 Z" id="Fill-5" fill="#231916"></path>
                <path d="M546.138783,522.53039 C542.505313,524.377589 538.141831,523.709338 533.427169,524 C532.594845,521.392189 533.275084,517.293037 533.056633,514.08217 C534.679804,514.087603 536.416348,514.207127 537.541783,513.715446 C539.717994,501.434288 539.223024,484.594893 540.530962,470.382325 C543.650105,470.137843 547.756423,470.86314 550.250631,470.012885 C550.571394,469.944973 550.601812,470.156858 550.623933,470.382325 C550.941931,470.311697 550.977878,470.523581 551,470.746332 C550.673707,477.65703 549.838617,485.502194 549.504028,492.782332 C549.014588,503.376564 549.943695,514.40543 546.138783,522.53039" id="Fill-7" fill="#231916"></path>
                <path d="M485.124827,470 C486.755895,484.010939 486.128988,500.236572 488.500693,513.511098 C489.291262,514.457525 491.266297,514.236601 493,514.252966 L493,523.837245 C485.097087,524.369099 478.800277,523.940888 477.624133,517.204073 C475.504854,505.017802 476.877947,484.259138 475,471.104619 L475,470 L485.124827,470 Z" id="Fill-9" fill="#231916"></path>
                <path d="M161.735083,468.036095 C181.61884,468.260305 211.487962,467.887522 235.959442,468.036095 C235.448487,485.356978 235.959442,502.915578 235.959442,525.009699 C235.959442,531.795423 236.573675,539.707598 233.021451,542.173906 C229.770908,544.432212 221.484197,543.635321 215.752261,543.635321 C196.879542,543.635321 177.748628,543.600204 161.735083,544 C161.02029,517.610775 161.414377,493.844535 161.000607,469.132832 C160.984958,468.511528 161.273049,468.187369 161.735083,468.036095 M172.391755,477.169268 C172.386319,496.164972 172.397191,517.086719 172.391755,534.869528 C187.965009,534.639916 207.653082,535.344961 223.835133,534.502148 C225.642501,513.326477 223.680216,498.712319 224.202042,476.801888 C205.016772,476.623601 190.845925,477.190879 172.391755,477.169268" id="Fill-11" fill="#231916"></path>
                <path d="M220.535991,483.045209 C220.422334,485.948893 220.698358,490.230178 220.535991,491.96524 C216.084431,491.849752 208.961934,492.047731 203.341331,491.96524 C202.491611,494.203497 203.21685,498.033831 202.976006,500.89077 C208.109507,501.745927 214.79632,501.025506 220.535991,501.25923 L220.535991,509.810802 L202.976006,509.810802 L202.976006,522.079969 C204.201876,522.940625 206.994588,522.209205 208.829334,522.451179 C210.258163,521.051581 210.701966,518.656591 211.754645,516.874784 L218.706657,516.874784 C218.866318,518.5686 218.338625,520.96634 219.071983,522.079969 C219.602381,523.152352 221.250406,521.263308 222,522.451179 L222,531 L177.36262,531 C177.484395,528.209053 177.192134,524.084501 177.36262,522.451179 L192,522.451179 C192.852426,519.102042 192.121775,514.15258 192.36262,510.184761 C188.384629,509.27186 181.118708,510.132517 177.730651,509.810802 C176.967527,508.930897 177.36262,502.834809 177.36262,501.25923 L192.36262,501.25923 L192.36262,492.339199 C188.078838,491.486792 182.255277,492.201714 177.36262,491.96524 C177.013531,489.215539 177.308497,487.189009 177,483.416418 C189.940646,483.265185 205.343857,482.866478 220.535991,483.045209" id="Fill-13" fill="#231916"></path>
                <path d="M827,468.370776 C824.561666,473.806085 821.193922,480.293299 817.760572,487.310587 C812.561344,497.942258 810.940344,511.070491 793,507.357233 C793.563113,504.698629 793.563113,500.364664 793,497.70606 C804.079112,498.782685 805.06046,490.375672 808.890175,482.111477 C811.388648,476.733845 813.261135,472.034597 815.174626,468 C819.485448,468.72782 823.030873,467.74183 827,468.370776" id="Fill-15" fill="#231916"></path>
                <path d="M847.785441,468.435902 C849.500582,472.125654 851.59066,477.271744 853.898787,482.396097 C857.087087,489.471292 858.629383,498.573404 868.638358,497.456697 C868.832475,499.63577 868.305966,504.934015 869,507.740726 C851.760844,509.862741 849.59897,498.619594 844.549277,486.433631 C841.932691,480.119211 839.539471,473.429837 837,468.805421 C839.05285,467.273006 845.288516,468.389712 847.785441,468.435902" id="Fill-17" fill="#231916"></path>
                <path d="M826.874631,498 C830.876476,498.077103 835.468938,498.055074 839.934445,498 C831.652006,509.964788 820.317125,522.103058 811.206718,534.486407 C824.5646,535.530056 839.012641,534.434087 852.621674,534.486407 C853.372365,530.890087 852.834186,526.010546 852.99702,521.827689 L864.936317,521.827689 C864.552692,531.37749 867.047636,543.00082 858.591323,544.53738 C852.856265,545.578275 845.065087,544.53738 838.071518,544.53738 C825.08898,544.53738 809.732935,544.966956 796.278456,544.909128 C796.841474,541.984708 795.431168,538.716077 796.278456,535.232658 C796.852513,532.872744 801.135868,528.68438 803.368621,525.925182 C810.88381,516.642489 819.988698,505.95266 826.874631,498" id="Fill-19" fill="#231916"></path>
                <path d="M1023.36741,468 C1023.30967,476.337354 1023.37016,488.6182 1023.36741,501.415324 C1023.36741,509.61537 1024.01086,518.32071 1024,525.880899 C1023.99711,529.57449 1023.83487,532.990718 1023.36741,535.942844 C1022.15476,543.604642 1014.81559,544.606992 1005.8953,543.74195 L1005.8953,534.086437 C1008.05388,534.015037 1010.70742,534.440692 1011.84583,533.344973 C1013.62494,514.835827 1011.5571,497.345509 1012.2143,477.284781 C988.436945,476.381293 969.765933,477.416596 948.270897,477.284781 L948.270897,469.114943 C947.85568,468.579441 947.872178,468.208708 948.642117,468 L1023.36741,468 Z" id="Fill-21" fill="#231916"></path>
                <path d="M1006.96732,486 C1007.01089,487.630314 1007.01089,493.372458 1006.96732,495 L951,495 C951.280517,491.855823 951.405797,488.825323 951,486 L1006.96732,486 Z" id="Fill-23" fill="#231916"></path>
                <path d="M1006.5274,501 C1005.20763,513.979454 1010.12854,531.561687 1003.17424,540.333591 C988.461098,543.487194 968.129964,541.049944 951.022495,541.815702 C951.069335,528.482188 950.953613,512.384812 951.022495,501.373273 C969.791391,501.170168 989.30421,501.790459 1006.5274,501 M961.825907,510.650192 C962.065616,517.827454 961.338224,525.979067 962.200624,532.538782 C970.33969,532.187467 985.692052,533.397858 994.97731,531.800471 C996.547814,526.061406 995.349272,517.572202 995.721233,510.650192 C985.072116,510.164389 973.420081,510.938381 961.825907,510.650192" id="Fill-25" fill="#231916"></path>
                <path d="M332.325914,467 L343.540402,467 L343.540402,471.033659 C347.983618,470.873507 353.148476,471.416395 357,470.669924 L357,480.208469 L343.913666,480.208469 C343.042718,485.10532 343.789244,491.587405 343.540402,497.092291 C347.162439,498.11835 353.516209,496.964712 356.626737,497.461455 L356.626737,506.63355 C341.676851,506.432682 330.595078,506.97557 317,507 L317,497.461455 L331.952651,497.461455 C332.812539,492.431596 332.088132,485.849077 332.325914,480.208469 L317.749291,480.208469 L317.749291,471.033659 L331.952651,471.033659 C332.646644,470.246471 332.207023,468.349077 332.325914,467" id="Fill-27" fill="#231916"></path>
                <path d="M372.613457,467 C372.85111,480.561899 372.120974,495.058436 373,508 L361.386543,508 C361.314961,493.076121 361.091625,483.589133 361,467 L372.613457,467 Z" id="Fill-29" fill="#231916"></path>
                <path d="M373,468 L383.001321,468 C385.167481,476.490615 386.012812,486.370857 388.355964,494.678042 C389.724343,494.994877 391.222164,495.16719 393,495.050462 L393,504.444334 C377.913486,507.356991 378.502576,498.466163 376.214899,486.031788 C374.835953,478.541704 373.272091,471.771445 373,468" id="Fill-31" fill="#231916"></path>
                <path d="M390.310992,511.390496 L390.310992,534.772313 C391.320558,536.21797 392.332852,534.49399 394,535.501897 L394,544.63791 C367.298351,544.446057 342.793189,544.867594 318.006986,545 L318.006986,536.231481 C317.835087,534.602077 320.888341,536.166629 321.327639,535.139807 C320.585472,527.838562 321.122997,519.267301 320.959284,511.390496 C345.723658,511.787714 365.502961,510.339355 390.310992,511.390496 L390.310992,511.390496 Z M350.471346,535.501897 L359.691137,535.501897 C360.302333,531.213564 360.302333,524.45005 359.691137,520.161717 C357.142665,520.375188 353.25993,521.012899 350.839701,520.161717 C350.007491,526.314542 351.292641,529.65982 350.471346,535.501897 L350.471346,535.501897 Z M370.389805,535.501897 C373.017404,535.261404 376.829197,535.342469 379.243969,535.139807 L379.243969,520.161717 C376.035187,519.948246 372.621764,520.50219 370.389805,520.161717 C369.786794,524.495987 369.786794,531.167627 370.389805,535.501897 L370.389805,535.501897 Z M332.026307,535.501897 L340.509388,535.501897 L340.509388,520.523807 L332.026307,520.523807 L332.026307,535.501897 Z" id="Fill-33" fill="#231916"></path>
                <path d="M705.7978,467.093489 L705.7978,472.187488 C706.93384,472.647886 709.591018,471.894017 711.747568,472.187488 C711.142414,480.902749 712.545272,493.048114 711.747568,500.944889 C710.826083,510.093625 702.860051,508.954745 692.03879,508.954745 C674.172983,508.952052 653.515213,508.954745 637,508.954745 L637,472.187488 C639.648926,472.085177 640.727201,472.712503 642.949768,472.187488 C643.805236,471.204766 643.081801,468.679305 643.323863,467.093489 L654.480709,467.093489 C655.421449,468.719691 655.905573,470.790138 657.080122,472.187488 C666.990901,472.260182 679.470834,472.147102 691.298852,472.187488 C693.075805,471.018991 693.463654,468.488146 695.012299,467.093489 C699.341903,467.171568 701.988078,466.848481 705.7978,467.093489 L705.7978,467.093489 Z M648.530942,481.651233 C647.755244,481.853162 647.74149,482.219327 648.154095,482.74165 L648.154095,499.485615 C665.274463,499.014447 684.336826,500.444105 700.222128,498.761362 C701.393927,493.279659 700.981322,487.919114 700.590722,481.651233 L648.530942,481.651233 Z" id="Fill-35" fill="#231916"></path>
                <path d="M667.728637,512 C667.91959,519.160161 667.319836,527.130646 668.094407,533.687905 C676.160168,534.50376 687.117124,533.878732 694.639609,534.058497 C694.878973,537.056417 694.155502,541.036128 695,543.406255 C685.425439,543.503051 668.035238,545.237088 659.003953,542.286183 C655.755056,535.280896 657.395641,521.259259 657.551631,512 L667.728637,512 Z" id="Fill-37" fill="#231916"></path>
                <path d="M652,514 C650.628341,522.901327 651.636914,537.507203 647.27181,544.550716 C644.052446,544.896615 639.135989,545.359674 636,544.550716 L636,536.251923 C636.053791,534.67306 639.006892,536.101289 639.270466,534.745588 C640.27097,528.114922 640.66633,520.856616 641.451673,514 L652,514 Z" id="Fill-39" fill="#231916"></path>
                <path d="M683.190645,514 C683.370593,516.065912 682.790463,518.917648 683.553226,520.383779 C684.581882,521.600001 687.509389,520.783633 689,521.133505 L689,529.769239 C683.6526,528.972308 678.86653,531.182611 675.563013,529.019513 C671.886172,526.606505 673.183407,519.556303 673.387526,514 L683.190645,514 Z" id="Fill-41" fill="#231916"></path>
                <path d="M696,514 L706.310702,514 C706.844649,520.995761 707.725793,527.616849 708.44386,534.416885 C708.796318,535.680707 711.226697,534.73284 712,535.546496 C710.989972,539.293226 712.334046,543.059529 711.644912,545 C708.470163,544.342924 703.530495,545.581582 699.908598,543.867593 C697.207299,535.647154 697.149433,522.61748 696,514" id="Fill-43" fill="#231916"></path>
            </g>
        </g>
    </g>
</svg>