<?xml version="1.0" encoding="UTF-8"?>
<svg width="1024px" height="200px" viewBox="0 0 1024 200" version="1.1" xmlns="http://www.w3.org/2000/svg" xmlns:xlink="http://www.w3.org/1999/xlink">
    <title>中国大唐集团有限公司@2x</title>
    <g id="页面-1" stroke="none" stroke-width="1" fill="none" fill-rule="evenodd">
        <g id="18.中国大唐集团有限公司" transform="translate(0.000000, -288.000000)">
            <g id="中国大唐集团有限公司" transform="translate(0.000000, 288.000000)">
                <path d="M995.77747,162.115267 L989.787219,162.115267 L989.787219,129.222225 L995.526915,129.222225 L995.526915,132.9728 C996.782834,131.474038 998.155119,130.343412 999.526356,129.714121 C1001.02444,128.970509 1002.77308,128.593983 1004.64753,128.593983 C1009.01494,128.593983 1012.26167,129.841028 1014.63722,132.469367 C1016.87963,134.972896 1018.1345,138.597613 1018.1345,143.352955 L1018.1345,162.115267 L1012.13587,162.115267 L1012.13587,144.610488 C1012.13587,141.101142 1011.50791,138.597613 1010.13457,136.848184 C1008.88914,135.223564 1006.88889,134.344654 1004.14432,134.344654 C1001.1492,134.344654 999.024198,135.349422 997.777714,137.351616 C996.406478,139.351713 995.77747,142.609343 995.77747,147.114018 L995.77747,162.115267 Z M952.08659,152.236446 C952.947282,154.36345 954.0774,156.238737 955.70024,157.862308 C957.32308,159.622225 959.07277,160.86927 961.073014,161.73979 C963.198012,162.617651 965.313575,162.996274 967.806543,162.996274 C970.184192,162.996274 972.30919,162.617651 974.435236,161.622322 C976.550799,160.617554 978.425242,159.244651 980.048082,157.495222 C981.546169,155.862211 982.666851,153.985875 983.420612,151.860969 C984.289691,149.732917 984.666047,147.481104 984.666047,145.228242 C984.666047,143.102287 984.174373,140.976333 983.420612,138.849329 C982.54105,136.723374 981.294566,134.848087 979.671726,133.223467 C978.048886,131.599896 976.174443,130.343412 974.057831,129.472893 C972.058635,128.593983 969.807836,128.216408 967.439621,128.216408 C965.187774,128.216408 963.062776,128.593983 960.946164,129.589312 C958.946968,130.59408 957.072525,131.966983 955.448637,133.716408 C953.825797,135.349422 952.705114,137.098851 951.951353,139.101045 C951.207028,141.227 950.705918,143.352955 950.705918,145.731675 C950.705918,147.983488 951.207028,150.110492 952.08659,152.236446 L952.08659,152.236446 Z M960.06765,137.351616 C962.067895,135.098755 964.696099,133.968128 967.690176,133.968128 C970.812151,133.968128 973.30407,135.098755 975.430117,137.351616 C977.430361,139.477571 978.425242,142.232817 978.425242,145.606866 C978.425242,148.863447 977.430361,151.608204 975.430117,153.861066 C973.30407,156.112879 970.812151,157.243505 967.806543,157.243505 C964.696099,157.243505 962.067895,156.112879 960.06765,153.861066 C957.952088,151.735111 956.946723,148.989305 956.946723,145.606866 C956.946723,142.348187 957.952088,139.603429 960.06765,137.351616 L960.06765,137.351616 Z M939.719249,162.115267 L945.584746,162.115267 L945.584746,129.222225 L939.719249,129.222225 L939.719249,162.115267 Z M939.719249,125.335304 L945.584746,125.335304 L945.584746,118.579865 L939.719249,118.579865 L939.719249,125.335304 Z M924.98579,162.115267 L924.98579,134.596371 L920.242023,134.596371 L920.242023,129.222225 L924.98579,129.222225 L924.98579,118.454007 L930.733873,118.454007 L930.733873,129.222225 L935.469253,129.222225 L935.469253,134.596371 L930.733873,134.596371 L930.733873,162.115267 L924.98579,162.115267 Z M915.990979,162.115267 L915.990979,129.222225 L909.99968,129.222225 L909.99968,133.097609 C908.502642,131.474038 906.763435,130.217554 904.879557,129.472893 C903.014549,128.718792 900.888503,128.216408 898.648187,128.216408 C896.145784,128.216408 893.903371,128.718792 891.903127,129.472893 C890.028684,130.343412 888.15424,131.599896 886.5314,133.349326 C885.033313,134.972896 883.787878,136.848184 883.034117,138.849329 C882.16399,140.976333 881.787633,143.228146 881.787633,145.481007 C881.787633,150.487017 883.410473,154.615166 886.657202,157.988166 C889.90393,161.245796 894.019738,162.870416 899.024543,162.870416 C901.140106,162.870416 903.14035,162.492841 905.014794,161.73979 C906.878753,160.86927 908.502642,159.737595 909.99968,158.114024 L909.99968,162.115267 L915.990979,162.115267 Z M891.275167,137.351616 C893.401214,135.098755 896.145784,133.968128 899.265663,133.968128 C902.260788,133.968128 904.879557,135.223564 907.004555,137.477475 C909.256403,139.854097 910.377085,142.609343 910.377085,145.857533 C910.377085,148.989305 909.256403,151.608204 907.004555,153.861066 C904.763191,156.112879 902.260788,157.243505 899.391464,157.243505 C896.145784,157.243505 893.401214,156.112879 891.275167,153.861066 C889.024368,151.608204 887.913121,148.863447 887.913121,145.481007 C887.913121,142.232817 889.024368,139.603429 891.275167,137.351616 L891.275167,137.351616 Z M871.806328,162.115267 L865.932444,162.115267 L865.932444,129.222225 L871.420537,129.222225 L871.420537,132.9728 C872.424853,131.474038 873.545535,130.468221 874.793067,129.714121 C876.048986,128.970509 877.546024,128.593983 879.169913,128.593983 L879.169913,134.848087 C876.541709,134.972896 874.667265,135.842367 873.545535,137.098851 C872.424853,138.472803 871.806328,140.724616 871.806328,143.731578 L871.806328,162.115267 Z M827.971825,152.236446 C828.85034,154.36345 830.096823,156.238737 831.59491,157.862308 C833.21775,159.622225 835.092193,160.86927 837.092438,161.73979 C839.091634,162.617651 841.334047,162.996274 843.701213,162.996274 C846.077814,162.996274 848.328613,162.617651 850.444176,161.622322 C852.444421,160.617554 854.318864,159.244651 856.067506,157.495222 C857.439791,155.862211 858.560473,153.985875 859.438987,151.860969 C860.183313,149.732917 860.686519,147.481104 860.686519,145.228242 C860.686519,143.102287 860.183313,140.976333 859.314234,138.849329 C858.445155,136.723374 857.189236,134.848087 855.565348,133.223467 C853.951943,131.599896 852.0775,130.343412 850.078303,129.472893 C848.07701,128.593983 845.826211,128.216408 843.459045,128.216408 C841.208246,128.216408 839.091634,128.593983 836.966636,129.589312 C834.966392,130.59408 833.091949,131.966983 831.342259,133.716408 C829.84522,135.349422 828.724538,137.098851 827.971825,139.101045 C827.101698,141.227 826.725342,143.352955 826.725342,145.731675 C826.725342,147.983488 827.227499,150.110492 827.971825,152.236446 L827.971825,152.236446 Z M835.961272,137.351616 C838.087319,135.098755 840.589721,133.968128 843.701213,133.968128 C846.831575,133.968128 849.323494,135.098755 851.44954,137.351616 C853.44035,139.477571 854.444666,142.232817 854.444666,145.606866 C854.444666,148.863447 853.44035,151.608204 851.44954,153.861066 C849.323494,156.112879 846.831575,157.243505 843.701213,157.243505 C840.705039,157.243505 838.087319,156.112879 835.961272,153.861066 C833.961028,151.735111 832.966147,148.989305 832.966147,145.606866 C832.966147,142.348187 833.961028,139.603429 835.961272,137.351616 L835.961272,137.351616 Z M800.260888,161.875087 C802.135331,162.617651 804.251942,162.996274 806.37694,162.996274 C808.995709,162.996274 811.120707,162.617651 813.122,161.73979 C815.121197,160.995129 816.860403,159.622225 818.609045,157.988166 C820.115518,156.364595 821.237249,154.489308 822.106328,152.362305 C822.850654,150.362208 823.352812,148.109346 823.352812,145.857533 C823.352812,140.850474 821.729972,136.723374 818.357442,133.474135 C815.121197,130.091696 810.994906,128.468125 806.126386,128.468125 C804.009774,128.468125 802.00953,128.970509 800.136135,129.714121 C798.260643,130.468221 796.512002,131.716315 795.014963,133.223467 L795.014963,129.222225 L789.149466,129.222225 L789.149466,172.884533 L795.014963,172.884533 L795.014963,158.239883 C796.512002,159.863454 798.260643,160.995129 800.260888,161.875087 L800.260888,161.875087 Z M798.13589,137.477475 C800.38669,135.223564 802.878609,134.092938 805.884218,134.092938 C808.995709,134.092938 811.622865,135.223564 813.865278,137.477475 C815.990276,139.729288 817.110958,142.609343 817.110958,145.983391 C817.110958,149.105724 815.990276,151.735111 813.865278,153.985875 C811.622865,156.238737 808.995709,157.243505 805.884218,157.243505 C802.878609,157.243505 800.260888,156.112879 798.010089,153.861066 C795.884042,151.482346 794.76336,148.737588 794.76336,145.481007 C794.76336,142.483485 795.884042,139.854097 798.13589,137.477475 L798.13589,137.477475 Z M777.535886,162.115267 L771.537248,162.115267 L771.537248,129.222225 L777.159529,129.222225 L777.159529,132.9728 C778.15441,131.474038 779.284527,130.468221 780.532059,129.714121 C781.777495,128.970509 783.275582,128.593983 784.89947,128.593983 L784.89947,134.848087 C782.280701,134.972896 780.406258,135.842367 779.284527,137.098851 C778.15441,138.472803 777.535886,140.724616 777.535886,143.731578 L777.535886,162.115267 Z M733.710818,152.236446 C734.589332,154.36345 735.835816,156.238737 737.333902,157.862308 C738.956743,159.622225 740.831186,160.86927 742.83143,161.73979 C744.821192,162.617651 747.073039,162.996274 749.44964,162.996274 C751.816806,162.996274 754.068654,162.617651 756.184217,161.622322 C758.183413,160.617554 760.057856,159.244651 761.806498,157.495222 C763.178783,155.862211 764.299466,153.985875 765.179028,151.860969 C765.922306,149.732917 766.425512,147.481104 766.425512,145.228242 C766.425512,143.102287 765.922306,140.976333 765.043791,138.849329 C764.173664,136.723374 762.928229,134.848087 761.30434,133.223467 C759.6815,131.599896 757.807057,130.343412 755.816247,129.472893 C753.816003,128.593983 751.565203,128.216408 749.198037,128.216408 C746.947238,128.216408 744.821192,128.593983 742.705629,129.589312 C740.705384,130.59408 738.830941,131.966983 737.082299,133.716408 C735.585261,135.349422 734.455144,137.098851 733.583968,139.101045 C732.839642,141.227 732.464334,143.352955 732.464334,145.731675 C732.464334,147.983488 732.966492,150.110492 733.710818,152.236446 L733.710818,152.236446 Z M741.701313,137.351616 C743.826311,135.098755 746.319278,133.968128 749.44964,133.968128 C752.570567,133.968128 755.063535,135.098755 757.062731,137.351616 C759.179342,139.477571 760.183658,142.232817 760.183658,145.606866 C760.183658,148.863447 759.179342,151.608204 757.062731,153.861066 C755.063535,156.112879 752.570567,157.243505 749.44964,157.243505 C746.444032,157.243505 743.826311,156.112879 741.701313,153.861066 C739.70002,151.735111 738.580386,148.989305 738.580386,145.606866 C738.580386,142.348187 739.70002,139.603429 741.701313,137.351616 L741.701313,137.351616 Z M728.339091,151.242167 C726.348282,154.991692 723.720078,157.988166 720.474398,159.989312 C717.101868,161.999896 713.236615,162.996274 708.743403,162.996274 C705.497723,162.996274 702.502597,162.366983 699.748592,161.120987 C697.005069,159.863454 694.502667,157.988166 692.260254,155.495125 C690.385811,153.48454 689.015622,151.10582 688.019693,148.486921 C687.141179,145.857533 686.637973,143.102287 686.637973,140.106862 C686.637973,136.974042 687.265932,134.092938 688.386615,131.34818 C689.516732,128.593983 691.265373,126.215263 693.507786,123.96345 C695.632784,121.837495 697.875197,120.212876 700.502353,119.208108 C703.121122,118.086921 705.875127,117.583488 708.869204,117.583488 C713.362416,117.583488 717.227669,118.704675 720.599151,120.70582 C723.971681,122.832824 726.59045,125.838737 728.339091,129.714121 L720.850754,129.714121 C719.478469,127.838834 717.729827,126.341121 715.729582,125.336353 C713.730386,124.331585 711.362172,123.838641 708.869204,123.838641 C706.744206,123.838641 704.74501,124.331585 702.99532,125.084637 C701.120877,125.838737 699.498037,126.969363 697.99995,128.468125 C696.501863,129.965838 695.382229,131.851613 694.502667,133.852758 C693.633588,135.842367 693.256183,137.970419 693.256183,140.106862 C693.256183,142.348187 693.633588,144.475191 694.376865,146.476336 C695.130626,148.61173 696.251308,150.362208 697.633029,151.860969 C699.130067,153.367073 700.869274,154.615166 702.869518,155.495125 C704.74501,156.364595 706.744206,156.741121 708.869204,156.741121 C711.362172,156.741121 713.604584,156.238737 715.603781,155.368218 C717.604025,154.36345 719.226865,152.991596 720.474398,151.242167 L728.339091,151.242167 Z M637.574319,172.381101 C640.202523,174.131578 643.439816,175 647.188702,175 C652.425192,175 656.425681,173.502287 659.419758,170.255146 C662.415932,166.997516 663.912971,162.492841 663.912971,156.741121 L663.912971,129.222225 L657.923768,129.222225 L657.923768,133.097609 C656.29988,131.474038 654.551238,130.217554 652.676795,129.472893 C650.811787,128.718792 648.685741,128.216408 646.570178,128.216408 C643.941974,128.216408 641.815928,128.718792 639.826166,129.472893 C637.82697,130.343412 636.078328,131.599896 634.328638,133.349326 C632.830552,134.972896 631.700434,136.848184 630.831355,138.849329 C630.088078,140.976333 629.709625,143.228146 629.709625,145.481007 C629.709625,150.487017 631.333513,154.615166 634.580242,157.988166 C637.82697,161.245796 641.941729,162.870416 646.812346,162.870416 C648.937344,162.870416 650.937589,162.492841 652.802597,161.73979 C654.67704,160.86927 656.425681,159.737595 657.923768,158.114024 L657.923768,158.616408 C657.923768,161.875087 656.926791,164.502377 654.801793,166.504571 C652.802597,168.495229 650.183828,169.501045 646.812346,169.501045 C644.821536,169.501045 643.198696,169.12452 641.691174,168.379859 C640.202523,167.4999 638.947652,166.378713 638.077525,164.870512 L631.826236,164.870512 C632.946918,168.128142 634.821361,170.631672 637.574319,172.381101 L637.574319,172.381101 Z M639.072405,137.351616 C641.324253,135.098755 643.941974,133.968128 647.062901,133.968128 C650.059074,133.968128 652.676795,135.223564 654.927595,137.477475 C657.052593,139.854097 658.174323,142.609343 658.174323,145.857533 C658.174323,148.989305 657.052593,151.608204 654.927595,153.861066 C652.676795,156.112879 650.059074,157.243505 647.188702,157.243505 C644.067775,157.243505 641.324253,156.112879 639.072405,153.861066 C636.947407,151.608204 635.825677,148.863447 635.825677,145.481007 C635.825677,142.232817 636.947407,139.603429 639.072405,137.351616 L639.072405,137.351616 Z M602.116102,162.115267 L596.125852,162.115267 L596.125852,129.222225 L601.865548,129.222225 L601.865548,132.9728 C603.110983,131.474038 604.483268,130.343412 605.99079,129.714121 C607.487829,128.970509 609.111717,128.593983 611.101478,128.593983 C615.343087,128.593983 618.714569,129.841028 620.966417,132.469367 C623.343018,134.972896 624.464748,138.597613 624.464748,143.352955 L624.464748,162.115267 L618.474498,162.115267 L618.474498,144.610488 C618.474498,141.101142 617.84549,138.597613 616.600055,136.848184 C615.226721,135.223564 613.227525,134.344654 610.609804,134.344654 C607.604195,134.344654 605.488632,135.349422 604.116347,137.351616 C602.734627,139.351713 602.116102,142.609343 602.116102,147.114018 L602.116102,162.115267 Z M589.257087,162.115267 L589.257087,129.222225 L583.391589,129.222225 L583.391589,133.097609 C581.758266,131.474038 580.020108,130.217554 578.135181,129.472893 C576.271221,128.718792 574.146223,128.216408 571.903811,128.216408 C569.401408,128.216408 567.158995,128.718792 565.159799,129.472893 C563.285356,130.343412 561.410913,131.599896 559.787024,133.349326 C558.289986,134.972896 557.043502,136.848184 556.289741,138.849329 C555.420662,140.976333 555.044306,143.228146 555.044306,145.481007 C555.044306,150.487017 556.667146,154.615166 559.912826,157.988166 C563.285356,161.245796 567.27641,162.870416 572.280167,162.870416 C574.396778,162.870416 576.395975,162.492841 578.270418,161.73979 C580.135426,160.86927 581.758266,159.737595 583.391589,158.114024 L583.391589,162.115267 L589.257087,162.115267 Z M564.541275,137.351616 C566.782639,135.098755 569.401408,133.968128 572.522335,133.968128 C575.51746,133.968128 578.135181,135.223564 580.261227,137.477475 C582.513075,139.854097 583.632709,142.609343 583.632709,145.857533 C583.632709,148.989305 582.513075,151.608204 580.261227,153.861066 C578.019863,156.112879 575.51746,157.243505 572.648137,157.243505 C569.401408,157.243505 566.782639,156.112879 564.541275,153.861066 C562.279992,151.608204 561.169793,148.863447 561.169793,145.481007 C561.169793,142.232817 562.279992,139.603429 564.541275,137.351616 L564.541275,137.351616 Z M541.932639,162.115267 L541.932639,134.596371 L537.18992,134.596371 L537.18992,129.222225 L541.932639,129.222225 L541.932639,118.454007 L547.798136,118.454007 L547.798136,129.222225 L552.425537,129.222225 L552.425537,134.596371 L547.798136,134.596371 L547.798136,162.115267 L541.932639,162.115267 Z M532.947263,162.115267 L532.947263,129.222225 L527.07233,129.222225 L527.07233,133.097609 C525.458925,131.474038 523.700849,130.217554 521.835841,129.472893 C519.961397,128.718792 517.8364,128.216408 515.593987,128.216408 C513.092633,128.216408 510.851268,128.718792 508.975777,129.472893 C506.975532,130.343412 505.101089,131.599896 503.478249,133.349326 C501.98121,134.972896 500.85948,136.848184 499.980966,138.849329 C499.110838,140.976333 498.734482,143.228146 498.734482,145.481007 C498.734482,150.487017 500.367805,154.615166 503.729852,157.988166 C506.975532,161.245796 511.101823,162.870416 515.961956,162.870416 C518.086954,162.870416 520.087199,162.492841 521.961642,161.73979 C523.836085,160.86927 525.574243,159.737595 527.07233,158.114024 L527.07233,162.115267 L532.947263,162.115267 Z M508.223064,137.351616 C510.473864,135.098755 513.092633,133.968128 516.21356,133.968128 C519.207637,133.968128 521.835841,135.223564 524.078253,137.477475 C526.203251,139.854097 527.333369,142.609343 527.333369,145.857533 C527.333369,148.989305 526.203251,151.608204 523.960839,153.861066 C521.835841,156.112879 519.207637,157.243505 516.338313,157.243505 C513.092633,157.243505 510.473864,156.112879 508.223064,153.861066 C505.9817,151.608204 504.976336,148.863447 504.976336,145.481007 C504.976336,142.232817 505.9817,139.603429 508.223064,137.351616 L508.223064,137.351616 Z M480.135771,161.245796 C482.251333,160.617554 484.251578,159.622225 486.251823,158.239883 C488.995345,156.238737 491.246144,153.735208 492.744231,150.612876 C494.242318,147.606962 494.985596,144.232914 494.985596,140.4729 C494.985596,133.968128 492.995834,128.593983 488.995345,124.582253 C484.879538,120.454104 479.633613,118.454007 473.140156,118.454007 L459.033608,118.454007 L459.033608,162.115267 L471.265713,162.115267 C475.014599,162.115267 477.884971,161.875087 480.135771,161.245796 L480.135771,161.245796 Z M465.275462,124.466883 L471.643117,124.466883 C477.014844,124.466883 481.130651,125.838737 484.125777,128.718792 C487.12195,131.599896 488.61794,135.476329 488.61794,140.4729 C488.61794,145.364589 487.12195,149.241021 484.37738,151.985779 C481.507008,154.866883 477.75917,156.238737 472.889601,156.238737 L465.275462,156.238737 L465.275462,124.466883 Z M434.686814,162.115267 L434.686814,129.222225 L428.695515,129.222225 L428.695515,133.097609 C427.072675,131.474038 425.449835,130.217554 423.44959,129.472893 C421.575147,128.718792 419.575951,128.216408 417.333538,128.216408 C414.706382,128.216408 412.46397,128.718792 410.589527,129.472893 C408.59033,130.343412 406.84064,131.599896 405.091999,133.349326 C403.593912,134.972896 402.474278,136.848184 401.605199,138.849329 C400.85039,140.976333 400.348232,143.228146 400.348232,145.481007 C400.348232,150.487017 401.97212,154.615166 405.343602,157.988166 C408.59033,161.245796 412.715573,162.870416 417.585141,162.870416 C419.700704,162.870416 421.700949,162.492841 423.575392,161.73979 C425.449835,160.86927 427.198477,159.737595 428.695515,158.114024 L428.695515,162.115267 L434.686814,162.115267 Z M409.835766,137.351616 C412.087613,135.098755 414.706382,133.968128 417.827309,133.968128 C420.821386,133.968128 423.44959,135.223564 425.70039,137.477475 C427.817001,139.854097 428.947118,142.609343 428.947118,145.857533 C428.947118,148.989305 427.817001,151.608204 425.70039,153.861066 C423.44959,156.112879 420.821386,157.243505 417.952062,157.243505 C414.706382,157.243505 412.087613,156.112879 409.835766,153.861066 C407.710768,151.608204 406.590085,148.863447 406.590085,145.481007 C406.590085,142.232817 407.710768,139.603429 409.835766,137.351616 L409.835766,137.351616 Z M372.879462,162.115267 L366.889212,162.115267 L366.889212,129.222225 L372.627859,129.222225 L372.627859,132.9728 C373.884827,131.474038 375.257112,130.343412 376.75415,129.714121 C378.252237,128.970509 379.875077,128.593983 381.74952,128.593983 C386.116931,128.593983 389.488413,129.841028 391.739212,132.469367 C393.981625,134.972896 395.236495,138.597613 395.236495,143.352955 L395.236495,162.115267 L389.237858,162.115267 L389.237858,144.610488 C389.237858,141.101142 388.609898,138.597613 387.237613,136.848184 C385.990081,135.223564 383.990885,134.344654 381.247362,134.344654 C378.37699,134.344654 376.126191,135.349422 374.879707,137.351616 C373.507422,139.351713 372.879462,142.609343 372.879462,147.114018 L372.879462,162.115267 Z M354.029148,162.115267 L359.778279,162.115267 L359.778279,129.222225 L354.029148,129.222225 L354.029148,162.115267 Z M354.029148,125.336353 L359.778279,125.336353 L359.778279,118.580914 L354.029148,118.580914 L354.029148,125.336353 Z M325.314943,162.115267 L319.449446,162.115267 L319.449446,118.454007 L325.314943,118.454007 L325.314943,132.9728 C326.309824,131.474038 327.565743,130.468221 329.053346,129.714121 C330.560868,128.970509 332.300075,128.593983 334.435556,128.593983 C338.425562,128.593983 341.420687,129.841028 343.671487,132.469367 C345.912851,134.972896 347.044017,138.597613 347.044017,143.228146 L347.044017,162.115267 L341.044331,162.115267 L341.044331,145.112872 C341.044331,141.478717 340.415323,138.849329 339.169888,136.974042 C337.923404,135.223564 336.048961,134.344654 333.555993,134.344654 C331.933153,134.344654 330.560868,134.722229 329.430751,135.476329 C328.184267,136.094083 327.315188,137.225758 326.561427,138.597613 C326.059269,139.351713 325.817101,140.34809 325.565498,141.478717 C325.440745,142.725762 325.314943,144.610488 325.314943,147.114018 L325.314943,162.115267 Z M313.325007,151.242167 C311.334197,154.991692 308.830746,157.988166 305.459265,159.989312 C302.087783,161.999896 298.22253,162.996274 293.845685,162.996274 C290.474203,162.996274 287.488513,162.366983 284.735555,161.120987 C281.990985,159.863454 279.498017,157.988166 277.247218,155.495125 C275.498576,153.48454 274.000489,151.10582 273.13141,148.486921 C272.126046,145.857533 271.623888,143.102287 271.623888,140.106862 C271.623888,136.974042 272.251848,134.092938 273.37253,131.34818 C274.493212,128.593983 276.241854,126.215263 278.492653,123.96345 C280.618699,121.837495 282.985865,120.212876 285.488268,119.208108 C288.107037,118.086921 290.851608,117.583488 293.845685,117.583488 C298.348332,117.583488 302.213585,118.704675 305.585066,120.70582 C309.082349,122.832824 311.575317,125.838737 313.325007,129.714121 L305.835621,129.714121 C304.464384,127.838834 302.715742,126.341121 300.715498,125.336353 C298.725736,124.331585 296.348087,123.838641 293.845685,123.838641 C291.730122,123.838641 289.855679,124.331585 287.981235,125.084637 C286.106792,125.838737 284.483952,126.969363 282.985865,128.468125 C281.487779,129.965838 280.368145,131.851613 279.498017,133.852758 C278.744256,135.842367 278.242098,137.970419 278.242098,140.106862 C278.242098,142.348187 278.619503,144.475191 279.362781,146.476336 C280.116542,148.61173 281.237224,150.362208 282.618944,151.860969 C284.117031,153.367073 285.865673,154.615166 287.855434,155.495125 C289.855679,156.364595 291.855923,156.741121 293.845685,156.741121 C296.348087,156.741121 298.599935,156.238737 300.589696,155.368218 C302.589941,154.36345 304.213829,152.991596 305.585066,151.242167 L313.325007,151.242167 Z M680.271366,63.6563947 L703.371676,63.6563947 L703.371676,58.6587752 L680.271366,58.6587752 L680.271366,63.6563947 Z M703.371676,35.7599241 L703.371676,40.8917923 L680.271366,40.8917923 L680.271366,35.8857823 C680.396119,35.8857823 680.396119,35.7599241 680.396119,35.7599241 L703.371676,35.7599241 Z M680.271366,52.2788132 L703.371676,52.2788132 L703.371676,47.1458962 L680.271366,47.1458962 L680.271366,52.2788132 Z M728.715448,82.050571 L745.825507,82.050571 L745.825507,75.6716578 L712.115933,75.6716578 L712.115933,70.0457961 L743.449955,70.0457961 L743.449955,63.6563947 L717.478224,63.6563947 L717.478224,58.6587752 L743.449955,58.6587752 L743.449955,52.2788132 L717.478224,52.2788132 L717.478224,47.146945 L743.449955,47.146945 L743.449955,40.8917923 L717.478224,40.8917923 L717.478224,35.7599241 L743.449955,35.7599241 L743.449955,29.379962 L717.478224,29.379962 L717.478224,24.4987614 L703.371676,24.4987614 L703.371676,29.379962 L684.019204,29.379962 C684.648212,27.5046748 685.139886,25.3776712 685.517291,23.1258582 L673.160433,23.1258582 C673.160433,23.1258582 672.405624,34.6387373 658.928084,33.6423598 L658.928084,45.1457996 C658.928084,45.1457996 662.047963,45.2716578 666.164818,44.265841 L666.164818,72.0469415 L680.271366,72.0469415 L680.271366,70.0457961 L697.99995,70.0457961 L697.99995,75.6716578 L663.536614,75.6716578 L663.536614,82.050571 L681.642603,82.050571 C675.527599,88.6812006 662.67697,87.9365396 662.67697,87.9365396 L662.67697,98.0681249 C685.139886,97.6905503 692.387104,87.183488 694.763705,82.050571 L697.99995,82.050571 L697.99995,98.1939831 L712.115933,98.1939831 L712.115933,82.050571 L715.603781,82.050571 C717.604025,87.183488 724.223284,97.6905503 746.695635,98.0681249 L746.695635,87.9365396 C746.695635,87.9365396 733.961372,88.6812006 728.715448,82.050571 L728.715448,82.050571 Z M962.31845,76.9187028 L985.912531,76.9187028 L985.912531,58.7846334 L962.31845,58.7846334 L962.31845,76.9187028 Z M946.965418,84.9306262 L1000.89759,84.9306262 L1000.89759,50.3940866 L946.965418,50.3940866 L946.965418,84.9306262 Z M944.589866,45.0199413 L1002.64833,45.0199413 L1002.64833,37.3939831 L944.589866,37.3939831 L944.589866,45.0199413 Z M944.212461,23.8799586 L944.212461,32.3858755 L1008.13538,32.3858755 L1008.13538,88.9339658 L990.907901,88.9339658 L990.907901,97.5657409 L1024,97.5657409 L1024,23.8799586 L944.212461,23.8799586 Z M878.540905,57.528149 L894.396094,57.528149 C894.396094,57.528149 890.773009,71.6693669 875.294177,88.430533 L913.255844,88.430533 L908.009919,77.0435122 L923.36295,77.0435122 L932.096723,97.0633569 L857.313989,97.0633569 L857.313989,88.430533 C857.313989,88.430533 871.178369,76.4257582 878.540905,57.528149 L878.540905,57.528149 Z M899.643067,24.8752872 L914.250724,24.8752872 C914.250724,24.8752872 915.748811,38.6399793 934.724927,47.649329 L934.724927,61.1623046 C934.724927,61.1623046 907.758316,55.9035294 899.643067,24.8752872 L899.643067,24.8752872 Z M871.420537,24.8752872 L885.912876,24.8752872 C885.912876,24.8752872 878.29035,55.5270036 853.323983,64.6611627 L853.323983,48.6446576 C853.323983,48.6446576 867.053126,42.1388373 871.420537,24.8752872 L871.420537,24.8752872 Z M619.845735,62.5352079 L631.952037,62.5352079 L631.952037,57.7798654 L619.845735,57.7798654 L619.845735,62.5352079 Z M619.845735,50.7811006 L631.952037,50.7811006 L631.952037,46.1411282 L619.845735,46.1411282 L619.845735,50.7811006 Z M595.990615,88.0540072 L632.202592,88.0540072 L632.202592,83.4234742 L595.990615,83.4234742 L595.990615,88.0540072 Z M650.560184,50.7811006 L646.434941,50.7811006 L646.434941,38.5141211 L619.845735,38.5141211 L619.845735,34.1363533 L647.313456,34.1363533 L647.313456,26.1317716 L619.845735,26.1317716 L619.845735,23 L604.859624,23 L604.859624,26.1317716 L579.140545,26.1317716 C579.140545,26.1317716 567.526965,25.251813 567.526965,37.6341625 L567.526965,65.2904537 C567.652767,69.2916957 567.034242,79.1705158 562.164674,84.0517164 C561.661468,84.429291 561.285111,84.8058168 560.917142,85.0564844 L560.917142,98.3187925 C564.783443,97.5657409 580.261227,89.0587752 580.387029,66.7881663 L580.387029,34.1363533 L604.859624,34.1363533 L604.859624,38.5141211 L583.632709,38.5141211 L583.632709,46.1411282 L604.859624,46.1411282 L604.859624,50.7811006 L583.758511,50.7811006 L583.758511,57.7798654 L604.859624,57.7798654 L604.859624,62.5352079 L583.758511,62.5352079 L583.758511,69.6682215 L604.859624,69.6682215 L604.859624,74.2987545 L582.387274,74.2987545 L582.387274,97.3140245 L646.183338,97.3140245 L646.183338,74.2987545 L619.845735,74.2987545 L619.845735,69.6682215 L646.434941,69.6682215 L646.434941,57.7798654 L650.560184,57.7798654 L650.560184,50.7811006 Z M514.096948,46.1411282 L549.430411,46.1411282 L549.430411,35.1411213 L513.468989,35.1411213 L513.468989,23.1258582 L498.358126,23.1258582 L498.358126,35.1411213 L466.521946,35.1411213 L466.521946,46.1411282 L497.111642,46.1411282 C495.363,57.1505744 486.743497,74.2987545 466.019788,83.297616 L466.019788,98.3187925 C488.252067,90.4316785 500.106767,74.9269967 506.357008,61.2881628 C513.092633,73.6705123 525.952697,88.430533 549.555165,97.9412179 L549.555165,81.9257616 C526.957012,72.2976091 516.714669,54.7823426 514.096948,46.1411282 L514.096948,46.1411282 Z M320.69593,81.2964706 L338.801918,81.2964706 L338.801918,39.0165051 L320.69593,39.0165051 L320.69593,81.2964706 Z M285.61407,81.2975194 L304.213829,81.2975194 L304.213829,39.0175539 L285.61407,39.0175539 L285.61407,81.2975194 Z M355.14983,31.0035329 L320.69593,31.0035329 L320.69593,23.1258582 L304.213829,23.1258582 L304.213829,31.0035329 L281.739382,31.0035329 C281.739382,31.0035329 270,29.7564878 270,42.6412213 L270,89.3104916 L304.213829,89.3104916 L304.213829,98.1939831 L320.69593,98.1939831 L320.69593,89.3104916 L355.14983,89.3104916 L355.14983,31.0035329 Z M805.497378,51.0317682 L805.884218,51.0317682 L805.884218,76.4257582 L798.010089,76.4257582 L798.010089,83.9258582 L818.859599,83.9258582 L818.859599,51.0317682 L822.608486,51.0317682 L822.608486,43.1446541 L818.859599,43.1446541 L818.859599,37.1422667 L805.884218,37.1422667 L805.884218,43.1446541 L778.657616,43.1446541 L778.657616,51.0317682 L793.014719,51.0317682 C792.145639,56.0293876 788.647308,65.1645955 777.535886,70.7998965 L777.535886,82.050571 C795.518169,76.5411282 804.251942,61.2881628 805.497378,51.0317682 L805.497378,51.0317682 Z M773.04477,88.5553424 L826.097382,88.5553424 L826.097382,33.0141176 L773.04477,33.0141176 L773.04477,88.5553424 Z M770.415518,24.4987614 C770.415518,24.4987614 758.676136,23.3775746 758.676136,36.2623081 L758.676136,96.8105917 L840.705039,96.8105917 L840.705039,24.4987614 L770.415518,24.4987614 Z M403.971316,56.0293876 L388.493532,56.0293876 L388.493532,63.5305365 L403.971316,63.5305365 L403.971316,76.5411282 L387.488168,76.5411282 L387.488168,84.0517164 L435.933298,84.0517164 L435.933298,70.5387407 L423.199036,70.5387407 L423.199036,76.5411282 L418.338902,76.5411282 L418.338902,63.5305365 L435.063171,63.5305365 L435.063171,56.0293876 L418.338902,56.0293876 L418.338902,45.0199413 L436.183853,45.0199413 L436.183853,37.5187925 L387.237613,37.5187925 L387.237613,45.0199413 L403.971316,45.0199413 L403.971316,56.0293876 Z M383.623963,89.0587752 L439.932739,89.0587752 L439.932739,33.0141176 L383.623963,33.0141176 L383.623963,89.0587752 Z M381.623719,24.4987614 C381.623719,24.4987614 369.759584,23.3775746 369.759584,36.2623081 L369.759584,96.8105917 L453.913485,96.8105917 L453.913485,24.4987614 L381.623719,24.4987614 Z" id="Fill-2" fill="#251612"></path>
                <path d="M129.872621,64.1265849 C131.987824,64.1265849 132.979162,65.1304621 132.979162,66.9946558 L132.979162,75.1262706 L108.618328,75.1262706 L108.618328,64.1265849 L129.872621,64.1265849 Z M108.618328,109.246568 L132.979162,109.246568 L132.979162,98.2468825 L108.618328,98.2468825 L108.618328,109.246568 Z M132.85394,165.869224 L132.85394,176.868909 L62.5127493,176.868909 C60.7721679,176.868909 59.5314298,175.863984 59.5314298,174.116106 L59.5314298,165.869224 L132.85394,165.869224 Z M162.801749,7.00199099 L108.618328,7.00199099 L108.618328,0 L85.0077804,0 L85.0077804,7.00199099 L29.3237867,7.00199099 C13.9163026,6.87624437 0,19.4991093 0,36.7473541 L0,200 L22.9959179,200 L22.9959179,36.8731007 C22.9959179,34.003982 25.2269508,30.0062873 29.6984082,30.0062873 L85.0077804,30.0062873 L85.0077804,41.1212407 L36.6617771,41.1212407 L36.6617771,64.1265849 L85.0077804,64.1265849 L85.0077804,75.1262706 L36.6617771,75.1262706 L36.6617771,98.2468825 L85.0077804,98.2468825 L85.0077804,109.246568 L36.7859553,109.246568 L36.7859553,132.376611 L85.0077804,132.376611 L85.0077804,142.875406 L36.5365554,142.875406 L36.5365554,185.744525 C36.5365554,191.993084 43.1242593,200 51.3273228,200 L155.723593,200 L155.723593,142.875406 L108.618328,142.875406 L108.618328,132.376611 L155.839423,132.376611 L155.839423,56.8741486 C155.839423,47.3708477 148.636046,41.1212407 140.807604,41.1212407 L108.618328,41.1212407 L108.618328,30.0062873 L163.552035,30.0062873 C166.408133,30.0062873 170.139739,32.3724196 170.139739,36.9988473 L170.139739,200 L193,200 L193,37.3750393 C193,20.7544797 180.574879,7.00199099 162.801749,7.00199099 L162.801749,7.00199099 Z" id="Fill-4" fill="#E00615"></path>
            </g>
        </g>
    </g>
</svg>