<?xml version="1.0" encoding="UTF-8"?>
<svg width="1024px" height="674px" viewBox="0 0 1024 674" version="1.1" xmlns="http://www.w3.org/2000/svg" xmlns:xlink="http://www.w3.org/1999/xlink">
    <title>中国航天科工集团有限公司@2x</title>
    <g id="页面-1" stroke="none" stroke-width="1" fill="none" fill-rule="evenodd">
        <g id="3.中国航天科工集团有限公司" transform="translate(0.000000, -47.000000)">
            <g id="编组" transform="translate(0.000000, 47.000000)">
                <g>
                    <path d="M517.705099,0 C331.562277,0 180.090553,151.171864 180.090553,337.001765 C180.090553,522.842254 331.562277,674 517.705099,674 C703.823174,674 855.291363,522.842254 855.291363,337.001765 C855.291363,151.171864 703.823174,0 517.705099,0 L517.705099,0 Z M517.705099,652.527546 C430.44579,652.527546 351.381404,617.089527 294.147754,559.82612 L302.957826,551.034555 C357.950069,606.039189 433.878607,640.054888 517.705099,640.054888 C601.510379,640.054888 677.438917,605.989779 732.47005,551.00985 L741.273051,559.82612 C684.011118,617.068351 604.921984,652.527546 517.705099,652.527546 L517.705099,652.527546 Z M517.772271,336.715889 L707.839322,526.456289 C659.154129,575.150478 591.858896,605.329794 517.705099,605.329794 C443.512414,605.329794 376.245463,575.157537 327.56027,526.473936 L517.772271,336.715889 Z M314.037587,511.806033 C273.515498,464.816511 248.927195,403.734368 248.927195,337.001765 C248.927195,195.754382 358.865723,79.6923093 497.825872,69.5172461 L314.037587,511.806033 Z M537.729276,69.5278341 C676.555082,79.7981893 786.433508,195.81438 786.433508,337.001765 C786.433508,403.692016 761.859347,464.745925 721.362005,511.753093 L537.729276,69.5278341 Z M795.671357,337.001765 C795.671357,189.352174 679.58487,68.3172733 533.730804,59.9809919 L528.837891,48.1930241 C683.350009,54.065832 807.292026,181.354708 807.292026,337.001765 C807.292026,412.614167 778.037071,481.499662 730.267532,533.045551 L725.339265,521.232878 C769.060838,472.192815 795.671357,407.651926 795.671357,337.001765 L795.671357,337.001765 Z M501.753637,59.9633452 C355.885429,68.218452 239.696417,189.292175 239.696417,337.001765 C239.696417,407.694278 266.328148,472.277519 310.102752,521.285818 L305.188626,533.102021 C257.376662,481.538485 228.072213,412.652989 228.072213,337.001765 C228.072213,181.29471 352.099078,53.9775987 506.685438,48.1930241 L501.753637,59.9633452 Z M321.069382,532.964377 C371.409116,583.324411 440.98818,614.516644 517.705099,614.516644 C594.439695,614.516644 664.008153,583.303235 714.351422,532.936142 L722.560486,541.124192 C670.099548,593.577119 597.617968,626.085793 517.705099,626.085793 C437.792231,626.085793 365.321257,593.587707 312.849712,541.13125 L321.069382,532.964377 Z M741.329616,559.716711 L736.178623,547.236994 C788.848147,492.712349 821.309656,418.578737 821.309656,337.001765 C821.309656,171.656105 687.974236,36.8391641 522.972759,34.029816 L517.772271,21.5148059 L512.554106,34.029816 C347.52081,36.7579894 214.068724,171.617282 214.068724,337.001765 C214.068724,418.610501 246.554981,492.76176 299.298747,547.286405 L294.080582,559.77671 C236.991881,502.68624 201.631391,423.911557 201.631391,337.001765 C201.631391,163.005713 343.405672,21.4759833 517.705099,21.4759833 C691.930284,21.4759833 833.739919,163.005713 833.739919,337.001765 C833.739919,423.879793 798.407712,502.598007 741.329616,559.716711 L741.329616,559.716711 Z" id="Fill-1" fill="#DFE0E0"></path>
                    <path d="M867.462131,451.169998 C876.763615,416.494314 917.193786,391.249004 960.971924,391.249004 C985.132451,391.249004 1005.77531,398.381784 1017.94396,410.413275 L1024,387.963197 C1004.38239,376.651688 977.432476,369.910665 946.098741,369.910665 C873.380293,369.910665 804.593146,406.252193 792.5447,451.169998 C780.478579,496.056038 829.729427,532.461094 902.472622,532.461094 C930.794246,532.461094 958.422943,526.891809 982.424379,517.556726 L988.293047,496.006627 C971.411789,506.188749 951.454784,510.865114 930.78364,510.865114 C887.019642,510.865114 858.114687,485.895092 867.462131,451.169998" id="Fill-3" fill="#004098"></path>
                    <path d="M76.7316503,450.684009 C86.0366702,416.011854 126.470376,390.759486 170.241444,390.759486 C194.387829,390.759486 215.041296,397.895795 227.217014,409.934345 L233.269519,387.46662 C213.655442,376.155112 186.712602,369.428205 155.375331,369.428205 C82.642742,369.428205 13.8591298,405.759146 1.82129057,450.684009 C-10.2554374,495.559461 39.0024814,531.964517 111.745677,531.964517 C140.067301,531.964517 167.692462,526.384644 191.686828,517.060149 L197.566101,495.520638 C180.691914,505.692172 160.717233,510.368537 140.067301,510.368537 C96.2997678,510.368537 67.3983477,485.398515 76.7316503,450.684009" id="Fill-5" fill="#004098"></path>
                    <polygon id="Fill-7" fill="#004098" points="687.290855 531.965576 748.056311 531.965576 791.279402 370.646884 730.503339 370.646884"></polygon>
                </g>
                <path d="M485.54374,413.282975 C480.781635,425.310937 483.26698,441.327044 497.100773,450.32684 C526.405222,469.441701 573.435876,459.824272 597.755493,474.732169 C603.189313,478.035623 603.726685,484.723707 602.934768,487.727168 C600.993866,494.538778 594.669139,498.639862 587.499466,501.671557 C577.759599,505.822052 512.493652,517.038268 460.934225,484.130779 L454.72263,507.350252 C508.901744,537.868383 586.795933,537.83309 636.516981,521.19582 C655.300253,514.941845 669.660812,500.475114 674.274433,483.749611 C678.403712,468.626425 670.657778,457.096098 660.369933,450.626833 C632.589216,433.146054 573.987389,434.688372 557.717745,426.906195 C552.071804,424.18508 550.353628,418.580502 552.404127,413.282975 C554.267252,408.468966 559.99097,404.904341 567.139432,402.384399 C575.977786,399.310351 622.771572,387.80473 680.118353,409.654822 L686.393585,386.671814 C680.71229,383.89423 604.992337,353.824324 525.521387,379.539035 C509.516894,384.769504 491.507862,398.237434 485.54374,413.282975 Z" id="Fill-9" fill="#004098"></path>
                <path d="M210.939946,558.246038 L212.83489,558.598972 C344.724355,110.762075 427.334689,323.241959 437.406878,366.846852 L437.809907,366.793912 C433.29174,326.983051 413.550391,249.701275 374.293955,242.762609 C372.034871,242.363795 369.694475,242.148505 367.297513,242.148505 C324.816845,242.141447 262.601898,308.616409 210.939946,558.246038" id="Fill-11" fill="#A30001"></path>
                <g transform="translate(261.198013, 302.078322)" fill="#A30001" id="Fill-13">
                    <path d="M1.26211706,138.494504 C0.33232214,140.89445 0.0424241029,143.128517 0.0424241029,144.476722 L0.0424241029,144.476722 C0.0424241029,145.464934 0,146.435501 0,147.406067 L0,147.406067 C0,150.571877 0.173231754,153.688277 0.466665132,156.751737 L0.466665132,156.751737 C5.18988192,203.561263 44.7291458,240.072199 92.8239372,240.072199 L92.8239372,240.072199 C144.086395,240.072199 185.640804,198.577847 185.640804,147.406067 L185.640804,147.406067 C185.640804,96.2378162 144.086395,54.7505223 92.8239372,54.7505223 L92.8239372,54.7505223 C82.0835685,54.7505223 71.7851175,56.5822455 62.1901995,59.9315812 L62.1901995,59.9315812 C77.5441895,42.020223 93.3259557,29.0393411 108.322876,25.675888 L108.322876,25.675888 C135.357636,19.6866121 155.491408,41.254358 160.868663,47.3883364 L160.868663,47.3883364 L161.218662,47.1801059 C154.130301,32.1875049 134.201579,0 108.177927,0 L108.177927,0 C87.0648652,0 46.7336847,29.0887517 1.26211706,138.494504"></path>
                </g>
            </g>
        </g>
    </g>
</svg>