<?xml version="1.0" encoding="UTF-8"?>
<svg width="953px" height="768px" viewBox="0 0 953 768" version="1.1" xmlns="http://www.w3.org/2000/svg" xmlns:xlink="http://www.w3.org/1999/xlink">
    <title>中国林业集团有限公司@2x</title>
    <defs>
        <polygon id="path-1" points="0 0 272 0 272 79 0 79"></polygon>
    </defs>
    <g id="页面-1" stroke="none" stroke-width="1" fill="none" fill-rule="evenodd">
        <g id="77.中国林业集团有限公司" transform="translate(-36.000000, 0.000000)">
            <g id="中国林业集团有限公司" transform="translate(36.000000, -0.000000)">
                <path d="M337.800136,544.743787 L609.921654,545 C605.848385,534.679871 484.863621,373.830551 479.060814,362.858585 C475.767532,366.988143 340.637483,537.701683 337.800136,544.743787 L337.800136,544.743787 Z M203.416162,435.397145 C207.112626,433.189187 232.840917,425.939853 251.443813,415.902313 C293.159969,393.381901 332.181964,359.633309 362.205839,326.657126 C391.611754,294.355387 425.772956,253.086177 450.547929,215.008331 C455.235391,207.807978 472.429034,179.839262 476.864037,175.852881 C515.290679,228.444467 553.826594,278.628401 595.69724,324.347437 C620.389316,351.310139 698.704606,439.063258 751.374503,434.971378 L752,537.664005 C730.386427,533.466625 684.762796,508.165543 668.221028,498.241038 C619.319188,468.889523 572.764847,430.412285 533.350974,390.638909 C523.278959,380.47703 514.751847,369.878081 504.171143,358.849597 C497.531827,351.935601 481.604252,330.315704 477.120264,326.909572 C457.560282,355.149573 444.104552,369.776349 420.870714,391.953887 C399.901479,411.97245 375.793452,430.073179 353.396123,446.369111 C330.75387,462.838363 305.251663,480.046113 280.073508,494.914031 C268.177753,501.937295 212.606453,536.070206 203.386018,537.878772 L203.416162,435.397145 Z M478.44662,122.556708 C531.32376,184.763836 572.889193,245.011684 661.23505,315.764285 C683.214125,329.633724 715.773903,349.124788 747.749632,350.620623 L747.73456,186.956722 C728.653121,191.319887 723.679286,195.174392 697.393322,188.256628 C635.891101,172.073732 572.557604,106.174116 531.979402,62.1506101 L476.830124,0 L452.729633,33.0440043 C415.403264,83.8835425 353.584526,148.829894 296.875273,176.598915 C284.320108,182.748038 268.818322,188.968751 251.862067,191.285976 C226.314643,194.786304 220.168942,190.475889 199.418254,186.47067 L199,351.106675 C268.652528,359.61447 364.037115,257.215735 403.782577,213.248747 C418.270755,195.852605 476.97331,123.408241 478.44662,122.556708 L478.44662,122.556708 Z" id="Fill-1" fill="#009944"></path>
                <path d="M611.224127,636.005 C608.187897,636.005 605.494466,636.038549 603.128768,636.094465 C600.759302,636.157837 598.548052,636.217481 596.483717,636.277125 C594.419381,636.336769 592.419086,636.411324 590.475295,636.504517 C588.539039,636.590255 586.474703,636.668538 584.29359,636.724454 L584.29359,630.875625 C586.595249,630.994913 588.765061,631.09929 590.795493,631.188755 C592.825925,631.278221 594.954301,631.337865 597.16555,631.371415 C599.3768,631.401237 601.761334,631.442242 604.30785,631.505614 C606.858133,631.565257 609.830324,631.595079 613.224423,631.595079 C614.015501,629.731208 614.746306,627.721954 615.409304,625.559863 C616.076069,623.4015 616.776738,620.877818 617.503776,618 C618.411631,618.480879 619.383526,618.868564 620.411927,619.166784 C621.447862,619.468731 622.506399,619.677484 623.598839,619.796772 C624.570734,619.919788 625.101886,620.277651 625.192295,620.877818 C625.278937,621.481712 624.872097,622.081879 623.964242,622.682045 C623.779657,622.801333 623.583771,622.995176 623.372817,623.267301 C623.158096,623.535699 622.871801,623.986756 622.506399,624.616744 C622.140996,625.246733 621.670117,626.119025 621.097528,627.229892 C620.521171,628.337032 619.805434,629.794579 618.957851,631.595079 L630.194918,631.595079 C633.438336,631.595079 636.338954,631.580168 638.88547,631.550346 C641.435753,631.520525 643.692207,631.490703 645.666134,631.457153 C647.636293,631.427331 649.500976,631.386326 651.260182,631.322954 C653.019387,631.267038 654.748456,631.207394 656.44739,631.144022 C658.146323,631.084379 659.995937,630.994913 662,630.875625 L662,636.724454 C658.903497,636.54925 655.961442,636.411324 653.173836,636.321858 C650.382462,636.232392 647.316095,636.172748 643.978502,636.142926 C640.648442,636.113104 636.824901,636.083282 632.515412,636.05346 C628.209691,636.023638 622.992346,636.005 616.867147,636.005 C616.015797,637.8055 615.074038,639.743926 614.045637,641.816551 C613.013469,643.885449 611.890893,645.853697 610.67414,647.713841 L629.422676,647.713841 L636.289982,647.713841 C638.689584,647.713841 640.991242,647.684019 643.206259,647.620647 C645.421276,647.564731 647.395203,647.50136 649.124272,647.441716 C650.853342,647.382072 652.137901,647.322428 652.989251,647.262784 C652.928978,647.684019 652.853638,648.299097 652.759462,649.108017 C652.67282,649.916937 652.582411,650.80414 652.488235,651.765898 C652.397826,652.723928 652.322486,653.700596 652.262213,654.692176 C652.198173,655.680028 652.168037,656.567231 652.168037,657.346329 L652.168037,692.465398 C652.168037,694.14661 652.036191,695.525875 651.761197,696.60692 C651.486204,697.687966 650.879711,698.571441 649.937952,699.261074 C648.99996,699.950706 647.621225,700.446496 645.801747,700.748443 C643.978502,701.046663 641.492258,701.288966 638.339249,701.467898 C638.339249,700.148276 638.203636,699.05232 637.93241,698.183756 C637.657416,697.311464 637.005719,696.185685 635.973551,694.802693 C638.218704,695.164284 640.034415,695.358126 641.435753,695.391676 C642.829556,695.41777 643.906928,695.283572 644.664102,694.981624 C645.421276,694.683405 645.922292,694.172704 646.163382,693.45325 C646.40824,692.733795 646.528785,691.772038 646.528785,690.575432 L646.528785,681.207613 L608.587202,681.207613 L608.587202,702.459477 L602.397963,702.459477 C602.64282,699.999167 602.793502,697.687966 602.850007,695.525875 C602.914047,693.367512 602.944183,691.380625 602.944183,689.583852 L602.944183,658.15525 C600.759302,660.678932 598.303195,663.169064 595.575861,665.629375 C592.844761,668.089685 589.687985,670.673011 586.109301,673.375625 C585.928483,672.413867 585.472672,671.511753 584.745634,670.673011 C584.014829,669.834269 582.865883,669.114814 581.287495,668.514648 C584.866179,666.229541 588.094529,663.966801 590.980078,661.711517 C593.86186,659.463687 596.513853,657.04811 598.939824,654.464784 C601.365795,651.885186 603.580812,649.093106 605.584875,646.092273 C607.585171,643.087712 609.464922,639.729015 611.224127,636.005 L611.224127,636.005 Z M608.587202,662.658363 L646.528785,662.658363 L646.528785,652.123761 L608.587202,652.123761 L608.587202,662.658363 Z M608.587202,676.887159 L646.528785,676.887159 L646.528785,666.889352 L608.587202,666.889352 L608.587202,676.887159 Z M529.065081,650.054864 L529.065081,650.95325 C524.277179,656.775985 518.890318,661.819621 512.915799,666.080432 C506.941281,670.34497 500.861285,673.614201 494.675813,675.895579 C495.704214,676.376458 496.645973,677.006447 497.497323,677.785545 C498.341139,678.568371 499.071944,679.466757 499.678436,680.488159 C502.46981,678.985878 505.287552,677.304666 508.139198,675.444522 C510.994611,673.584379 513.70311,671.64968 516.283529,669.636699 C518.860182,667.623717 521.240948,665.55482 523.425829,663.422551 C525.606942,661.294009 527.49046,659.236295 529.065081,657.256863 L529.065081,678.147136 C529.065081,679.04925 528.929468,679.750066 528.658241,680.264494 C528.387015,680.775195 527.840794,681.121875 527.019581,681.297079 C526.202134,681.476011 525.019285,681.49465 523.471033,681.341812 C521.926548,681.192702 519.911184,680.879572 517.421174,680.398693 C518.268757,681.476011 518.924221,682.620428 519.376265,683.817034 C519.832077,685.017367 520.061866,686.161784 520.061866,687.239102 C523.275147,687.239102 525.821663,687.089992 527.701414,686.791773 C529.584932,686.489825 530.993803,686.042496 531.935562,685.44233 C532.873554,684.842163 533.480047,684.074248 533.75504,683.14604 C534.026267,682.214104 534.165647,681.121875 534.165647,679.85817 L534.165647,650.054864 C537.073799,650.054864 539.884007,650.095869 542.577438,650.189062 C545.278402,650.278528 548.028338,650.412727 550.815944,650.595386 L550.815944,645.011227 C548.084844,645.249803 545.383879,645.413823 542.716818,645.507017 C540.04599,645.596483 537.198111,645.671038 534.165647,645.730682 L534.165647,638.256556 C534.165647,637.600474 534.286192,636.907113 534.53105,636.187659 C534.77214,635.464477 535.133775,634.957504 535.619723,634.655557 C536.286488,634.234322 536.546414,633.846636 536.391965,633.485045 C536.241284,633.127182 535.679995,632.978072 534.7081,633.033988 C533.6797,633.09736 532.737941,633.067538 531.886591,632.94825 C531.039008,632.821507 529.856158,632.553109 528.338043,632.135602 C528.586667,633.395579 528.763718,635.076792 528.88803,637.175511 C529.008575,639.277958 529.065081,642.133409 529.065081,645.730682 C522.819336,645.730682 516.995499,645.671038 511.597337,645.55175 C506.199175,645.428734 501.769141,645.249803 498.311002,645.011227 L498.311002,650.595386 C501.648596,650.412727 506.01459,650.263617 511.416519,650.144329 C516.814681,650.025042 522.698791,649.99522 529.065081,650.054864 L529.065081,650.054864 Z M493.489197,690.66117 L553.908681,690.66117 L553.908681,630.062977 L493.489197,630.062977 L493.489197,690.66117 Z M493.489197,695.164284 L493.489197,701.646829 L487.213316,701.646829 C487.333861,700.386852 487.458173,698.977765 487.578718,697.415841 C487.699263,695.857644 487.800973,694.232348 487.895149,692.554864 C487.985558,690.873651 488.04583,689.222261 488.079734,687.600693 C488.106103,685.979125 488.121171,684.480572 488.121171,683.101307 L488.121171,638.711341 C488.121171,635.587492 488.04583,632.978072 487.895149,630.875625 C487.744468,628.776906 487.514678,626.790018 487.213316,624.929875 C488.245483,625.112534 489.545111,625.246733 491.123498,625.336199 C492.701886,625.425664 494.852864,625.503947 497.583964,625.559863 C500.315065,625.623235 503.773204,625.667968 507.958381,625.694062 C512.143557,625.727612 517.391038,625.742523 523.700822,625.742523 C529.950334,625.742523 535.17898,625.727612 539.39806,625.694062 C543.613372,625.667968 547.086579,625.623235 549.813913,625.559863 C552.545014,625.503947 554.695991,625.410753 556.274379,625.291466 C557.852767,625.172178 559.126025,625.05289 560.09792,624.929875 C559.977375,625.772345 559.868131,626.763924 559.777722,627.900886 C559.687313,629.045303 559.596904,630.226998 559.506496,631.457153 C559.41232,632.691036 559.352047,633.936102 559.325678,635.196079 C559.291775,636.456056 559.276706,637.630296 559.276706,638.711341 L559.276706,683.638102 C559.276706,686.940882 559.340746,689.911894 559.461291,692.554864 C559.581836,695.194106 559.79279,697.807254 560.09792,700.386852 L553.908681,700.386852 L553.908681,695.164284 L493.489197,695.164284 Z M430.078687,674.814534 L430.078687,673.017762 C430.078687,671.809973 430.534498,670.974958 431.442354,670.494079 C432.293704,670.072844 432.655339,669.636699 432.534794,669.185642 C432.414249,668.734585 431.898165,668.514648 430.990309,668.514648 C429.958142,668.514648 428.880769,668.484826 427.758193,668.421454 C426.635616,668.36181 425.377426,668.238795 423.979856,668.063591 C424.104168,668.719674 424.194577,669.636699 424.25485,670.80721 C424.315122,671.977721 424.375395,673.315981 424.439434,674.814534 C419.523453,674.814534 415.247868,674.799623 411.608911,674.769801 C407.966188,674.743707 404.752906,674.680335 401.961533,674.590869 C399.17016,674.501403 396.698984,674.397027 394.54424,674.277739 C392.393263,674.154723 390.377899,674.035435 388.494381,673.916148 L388.494381,679.410841 C390.377899,679.284098 392.287786,679.183449 394.227809,679.093983 C396.171599,679.000789 398.277372,678.944873 400.552662,678.911324 C402.827951,678.881502 405.329263,678.85168 408.056597,678.821858 C410.787697,678.792036 413.880434,678.777125 417.338572,678.777125 C415.944769,680.577625 414.200632,682.348303 412.109927,684.089159 C410.015455,685.830015 407.664825,687.451583 405.058036,688.950136 C402.447481,690.448689 399.610903,691.772038 396.548303,692.916455 C393.485703,694.053416 390.28749,694.925708 386.949896,695.525875 C388.223154,696.304973 389.20635,697.158626 389.907019,698.090562 C390.603921,699.022498 391.165209,700.084905 391.590884,701.288966 C396.017151,699.607754 399.85576,697.907903 403.099178,696.200596 C406.346362,694.489562 409.164105,692.718884 411.563707,690.888562 C413.959541,689.054513 416.005042,687.138453 417.703975,685.125471 C419.402908,683.116218 420.917256,680.99886 422.254554,678.777125 L424.529843,678.777125 L424.529843,694.713227 C424.529843,697.173537 424.284986,699.786685 423.802805,702.548943 L430.624907,702.548943 C430.383817,700.990746 430.233135,699.592843 430.169096,698.362687 C430.108823,697.128804 430.078687,695.91356 430.078687,694.713227 L430.078687,678.777125 L432.08275,678.777125 C433.597098,681.058504 435.296031,683.265328 437.175782,685.393869 C439.055532,687.526138 441.225345,689.535392 443.681452,691.429085 C446.137559,693.319051 448.913865,695.044996 452.006601,696.60692 C455.103104,698.165117 458.587612,699.484738 462.471426,700.565784 C462.897101,699.186519 463.443321,697.926542 464.110086,696.785852 C464.776852,695.645163 465.778883,694.564117 467.112414,693.546443 C463.83886,693.184852 460.727288,692.539953 457.785233,691.608017 C454.843179,690.679809 452.09701,689.550303 449.550494,688.230682 C447.003978,686.91106 444.683484,685.44233 442.589012,683.817034 C440.498307,682.199193 438.633624,680.517981 436.994964,678.777125 C441.360958,678.777125 444.924574,678.792036 447.685811,678.821858 C450.447048,678.85168 452.808979,678.881502 454.782906,678.911324 C456.756833,678.944873 458.50097,679.000789 460.015319,679.093983 C461.533434,679.183449 463.2286,679.284098 465.112118,679.410841 L465.112118,673.916148 C463.2286,674.095079 461.213236,674.229278 459.058491,674.318744 C456.907514,674.411938 454.466475,674.501403 451.735374,674.590869 C449.004273,674.680335 445.881401,674.743707 442.36299,674.769801 C438.844578,674.799623 434.749811,674.814534 430.078687,674.814534 L430.078687,674.814534 Z M434.083045,632.225068 C433.295735,631.442242 432.384112,630.6035 431.351945,629.705114 C430.323544,628.803 429.242405,627.949347 428.123595,627.136699 C427.001019,626.327778 425.89351,625.559863 424.80107,624.840409 C423.708629,624.120954 422.710365,623.520788 421.798742,623.039909 L425.256881,619.438909 C427.803397,620.941189 430.364981,622.588852 432.945401,624.39308 C435.522053,626.189852 437.601457,627.785326 439.179845,629.164591 L436.17375,632.225068 C439.937019,632.225068 443.1503,632.206429 445.821128,632.180335 C448.48819,632.150513 450.763479,632.10578 452.646997,632.046136 C454.526748,631.986492 456.101369,631.90821 457.374627,631.818744 C458.651652,631.733006 459.770461,631.624901 460.742356,631.505614 L460.742356,636.817648 C459.710189,636.69836 458.542408,636.590255 457.24278,636.504517 C455.935619,636.411324 454.296958,636.336769 452.326799,636.277125 C450.352872,636.217481 447.960805,636.172748 445.139295,636.142926 C442.317785,636.113104 438.904851,636.094465 434.900492,636.094465 L431.351945,636.094465 L431.351945,642.580739 C434.930629,642.580739 438.027132,642.565828 440.63392,642.536006 C443.240709,642.506184 445.485862,642.457723 447.365613,642.401807 C449.245364,642.338435 450.83882,642.26388 452.145981,642.174415 C453.449375,642.084949 454.583253,641.980572 455.555148,641.857556 L455.555148,647.083852 C454.583253,646.960837 453.449375,646.85646 452.145981,646.766994 C450.83882,646.677528 449.245364,646.602973 447.365613,646.539602 C445.485862,646.483686 443.240709,646.438953 440.63392,646.405403 C438.027132,646.375581 434.930629,646.36067 431.351945,646.36067 L431.351945,652.574818 C434.990901,652.574818 438.147677,652.559907 440.814738,652.530085 C443.485566,652.500263 445.775924,652.45553 447.685811,652.392159 C449.595698,652.336242 451.204222,652.25796 452.507617,652.168494 C453.811011,652.079028 454.948656,651.974651 455.920551,651.855364 L455.920551,657.074204 C454.948656,656.954916 453.811011,656.854267 452.507617,656.761074 C451.204222,656.671608 449.595698,656.593325 447.685811,656.537409 C445.775924,656.477765 443.485566,656.429304 440.814738,656.40321 C438.147677,656.373388 434.990901,656.35475 431.351945,656.35475 L431.351945,661.849443 C439.481207,661.849443 446.137559,661.789799 451.324767,661.670511 C456.511975,661.551224 460.105727,661.368564 462.10979,661.126261 L462.10979,666.620954 C460.105727,666.442023 456.511975,666.274274 451.324767,666.125164 C446.137559,665.976055 439.451071,665.9015 431.261536,665.9015 L404.692634,665.9015 L404.692634,670.494079 L398.322577,670.494079 C398.623939,667.731822 398.883865,664.667617 399.094819,661.30892 C399.30954,657.950224 399.415017,654.528155 399.415017,651.042716 L399.415017,640.869704 C398.141759,642.606833 396.819529,644.306684 395.455863,645.958074 C394.092196,647.605736 392.773733,649.126656 391.496708,650.505921 C390.343995,649.663451 389.195049,649.033462 388.038569,648.612227 C386.889624,648.19472 385.612599,647.833129 384.218795,647.531181 C386.829351,646.092273 389.421071,644.049469 391.997724,641.410227 C394.574376,638.767257 397.079455,635.736602 399.505426,632.318262 C401.264631,629.913867 402.616997,627.680949 403.554989,625.608324 C404.496748,623.535699 405.389535,621.388519 406.237118,619.166784 C407.333326,619.830322 408.271318,620.385756 409.058628,620.836813 C409.845938,621.284142 410.576743,621.690466 411.243509,622.052057 C412.456494,622.648496 413.032851,623.148013 412.972578,623.535699 C412.912305,623.927112 412.456494,624.273792 411.608911,624.572011 C410.942146,624.810587 410.105864,625.530041 409.103832,626.734102 C408.105568,627.934436 406.817242,629.764757 405.238854,632.225068 L434.083045,632.225068 Z M404.692634,642.580739 L426.078095,642.580739 L426.078095,636.098193 L404.692634,636.098193 L404.692634,642.580739 Z M404.692634,652.574818 L426.078095,652.574818 L426.078095,646.36067 L404.692634,646.36067 L404.692634,652.574818 Z M404.692634,661.849443 L426.078095,661.849443 L426.078095,656.35475 L404.692634,656.35475 L404.692634,661.849443 Z M363.665849,643.661784 C363.300447,643.90036 362.950112,644.183668 362.618613,644.515437 C362.287114,644.847206 361.93678,645.309447 361.571377,645.909613 C361.205975,646.50978 360.799135,647.288878 360.343324,648.254364 C359.887512,649.212394 359.326224,650.442549 358.659459,651.944829 C357.687564,654.103193 356.749572,656.175818 355.841716,658.15525 C354.930094,660.138409 354.048607,662.058197 353.201024,663.91834 C352.349674,665.778484 351.471955,667.623717 350.560332,669.461495 C349.652477,671.288089 348.710718,673.196693 347.74259,675.176125 C347.011785,674.575958 346.284747,674.080168 345.557709,673.688755 C344.830671,673.30107 343.888912,672.924568 342.736199,672.566705 C343.949185,670.762477 345.237511,668.514648 346.601178,665.812034 C347.968612,663.10942 349.287074,660.198053 350.560332,657.074204 C351.837357,653.954083 353.020207,650.80414 354.10888,647.620647 C355.20132,644.440882 356.082806,641.440049 356.749572,638.618148 C359.299855,639.941496 361.450832,640.810061 363.210038,641.227568 C363.937076,641.410227 364.347683,641.786729 364.438091,642.353346 C364.5285,642.923691 364.272342,643.359837 363.665849,643.661784 L363.665849,643.661784 Z M334.64084,633.127182 L334.64084,690.843829 L321.260329,690.843829 L321.260329,629.794579 C321.260329,628.594246 321.444914,627.438646 321.80655,626.327778 C322.171952,625.216911 322.597627,624.512367 323.083575,624.21042 C323.75034,623.729541 324.036635,623.312034 323.946226,622.950443 C323.855817,622.588852 323.384938,622.439742 322.537355,622.503114 C321.505187,622.562758 320.337406,622.562758 319.034011,622.503114 C317.730617,622.439742 316.438524,622.320454 315.165266,622.141523 C315.285811,623.282212 315.410123,624.795676 315.530668,626.689369 C315.651213,628.579335 315.711486,630.663144 315.711486,632.94825 L315.711486,690.843829 C309.100339,690.843829 303.472387,690.765547 298.8314,690.616437 C294.194179,690.467327 290.811381,690.303307 288.686773,690.124375 L288.686773,696.06267 C289.960031,695.943382 291.357601,695.824094 292.871949,695.704807 C294.390065,695.585519 296.514673,695.496053 299.242006,695.432681 C301.973107,695.376765 305.581927,695.328305 310.072234,695.298483 C314.558773,695.268661 320.442883,695.257477 327.720796,695.257477 C333.5484,695.257477 338.596227,695.268661 342.871813,695.298483 C347.147398,695.328305 350.835326,695.391676 353.928062,695.481142 C357.024565,695.570608 359.601218,695.660074 361.661786,695.74954 C363.726122,695.842733 365.425055,695.943382 366.758585,696.06267 L366.758585,690.124375 C365.666145,690.243663 364.181933,690.333129 362.298415,690.392773 C360.418664,690.448689 358.309125,690.526971 355.97733,690.616437 C353.641767,690.709631 351.140456,690.765547 348.469628,690.795369 C345.802566,690.828919 343.131738,690.843829 340.46091,690.843829 L340.46091,630.335102 C340.46091,629.134769 340.596523,628.083545 340.871517,627.181431 C341.142743,626.283045 341.523214,625.679151 342.009162,625.380931 C342.917017,624.840409 343.28242,624.284975 343.101602,623.71463 C342.917017,623.148013 342.370797,622.860977 341.462941,622.860977 C340.430774,622.860977 339.293129,622.846066 338.050007,622.816244 C336.806885,622.786422 335.488423,622.711867 334.09462,622.588852 C334.27167,623.729541 334.411051,625.037979 334.50146,626.50671 C334.591868,627.979168 334.64084,630.182265 334.64084,633.127182 L334.64084,633.127182 Z M305.702472,674.277739 C304.854889,671.094246 304.018608,668.182879 303.201161,665.539909 C302.383714,662.900667 301.472092,660.332252 300.47006,657.842119 C299.468029,655.348259 298.330384,652.846943 297.060893,650.323261 C295.783868,647.803307 294.299656,645.070871 292.600723,642.133409 L297.87834,639.967591 C299.392688,642.729848 300.771423,645.357907 302.018312,647.84804 C303.261433,650.338172 304.429214,652.858126 305.521655,655.411631 C306.614095,657.965135 307.691467,660.604377 308.750004,663.333085 C309.812308,666.065521 310.88968,669.051443 311.982121,672.294579 L305.702472,674.277739 Z M212.264922,637.8055 L212.264922,628.445136 C212.264922,627.065871 212.370399,625.86181 212.581353,624.840409 C212.792307,623.819007 213.142641,623.013815 213.628588,622.413648 C214.355626,621.571178 214.675824,620.985922 214.585416,620.654153 C214.495007,620.326112 213.993991,620.158363 213.082368,620.158363 C212.050201,620.158363 210.897488,620.098719 209.62423,619.979432 C208.350972,619.860144 207.137986,619.677484 205.985273,619.438909 C206.286636,621.176037 206.501357,623.446233 206.621902,626.238312 C206.742447,629.030392 206.832856,632.884879 206.896896,637.8055 C203.860665,637.8055 200.907309,637.749583 198.025527,637.630296 C195.143745,637.50728 192.883523,637.324621 191.244863,637.086045 L191.244863,643.121261 C192.883523,642.882686 195.158813,642.700026 198.070731,642.580739 C200.98265,642.457723 203.920938,642.401807 206.896896,642.401807 L206.896896,643.031795 C206.230131,645.853697 205.258235,648.869441 203.984977,652.079028 C202.711719,655.292343 201.178536,658.516841 199.389194,661.759977 C197.599852,664.999386 195.610857,668.212701 193.429744,671.392466 C191.244863,674.575958 188.939437,677.517148 186.513466,680.216034 C187.846997,680.517981 188.879165,680.894483 189.606203,681.341812 C190.337007,681.792869 191.124318,682.437769 191.975668,683.280239 C195.064637,678.956056 197.840942,674.575958 200.300817,670.132488 C202.753157,665.692746 204.953106,660.921235 206.896896,655.814227 L206.896896,684.719147 C206.896896,687.119814 206.832856,689.807517 206.712311,692.778528 C206.591766,695.74954 206.410948,698.70564 206.169858,701.646829 L212.991959,701.646829 C212.750869,698.70564 212.566284,695.74954 212.445739,692.778528 C212.325194,689.807517 212.264922,687.119814 212.264922,684.719147 L212.264922,654.647443 C214.329257,656.746163 216.359689,658.982809 218.359985,661.353653 C220.364048,663.724498 222.243799,666.054337 224.003005,668.331988 L228.368999,664.011534 C227.156013,662.870845 225.882755,661.6556 224.549225,660.362074 C223.215694,659.072274 221.84826,657.782475 220.454457,656.492676 C219.060654,655.199149 217.663084,653.924261 216.26928,652.664284 C214.87171,651.404307 213.53818,650.203973 212.264922,649.063284 L212.264922,642.401807 C214.811438,642.401807 217.207272,642.457723 219.452426,642.580739 C221.697579,642.700026 223.517057,642.882686 224.91086,643.121261 L224.91086,637.086045 C223.517057,637.268704 221.697579,637.417814 219.452426,637.537102 C217.207272,637.65639 214.811438,637.749583 212.264922,637.8055 L212.264922,637.8055 Z M250.296913,642.938602 C251.999613,647.564731 253.709847,651.702526 255.438917,655.36317 C257.167986,659.027541 258.94226,662.389966 260.761738,665.450443 C262.581216,668.514648 264.49487,671.336549 266.495166,673.916148 C268.499229,676.495746 270.62007,678.956056 272.865223,681.297079 C271.591965,681.777958 270.544729,682.348303 269.727283,683.008113 C268.906069,683.667924 268.194099,684.45075 267.587606,685.349136 C265.583543,682.586878 263.748997,679.962547 262.0802,677.472415 C260.415171,674.978555 258.881987,672.488422 257.488184,669.99829 C256.090614,667.504429 254.817356,664.928559 253.664643,662.255767 C252.51193,659.582975 251.39312,656.656697 250.296913,653.476932 L250.296913,684.991273 C250.296913,688.230682 250.360953,691.205421 250.481498,693.904307 C250.602043,696.60692 250.782861,699.275985 251.027718,701.918954 L244.292258,701.918954 C244.537116,698.977765 244.717933,696.021665 244.838478,693.050653 C244.959024,690.075914 245.019296,687.391939 245.019296,684.991273 L245.019296,653.476932 C242.838182,659.418954 240.231394,665.062758 237.195163,670.404614 C234.1627,675.74647 230.553879,681.028682 226.368703,686.25125 C225.641665,685.229848 224.820451,684.432111 223.912596,683.865494 C223.000973,683.29515 221.818124,682.859004 220.364048,682.557056 C223.275967,680.096746 226.018369,677.185378 228.595021,673.826682 C231.17544,670.464258 233.511002,666.952723 235.605474,663.288352 C237.696179,659.627708 239.485521,655.978248 240.9735,652.351153 C242.457712,648.716604 243.595357,645.40264 244.382667,642.401807 C242.808046,642.401807 241.199522,642.416718 239.560862,642.44654 C237.922201,642.472634 236.34758,642.536006 234.829465,642.621744 C233.315117,642.714937 231.932614,642.804403 230.689493,642.897597 C229.446371,642.983335 228.489544,643.061617 227.822779,643.121261 L227.822779,637.268704 C228.553584,637.387992 229.551848,637.481186 230.828873,637.537102 C232.098364,637.600474 233.526071,637.671301 235.100691,637.764494 C236.679079,637.85396 238.332808,637.913604 240.061877,637.943426 C241.790947,637.973248 243.444675,637.988159 245.019296,637.988159 C244.959024,633.127182 244.853547,629.250329 244.702865,626.372511 C244.552184,623.494693 244.352531,621.176037 244.111441,619.438909 C245.264153,619.740856 246.462071,619.94961 247.705192,620.072625 C248.948314,620.188185 250.085959,620.247829 251.118127,620.247829 C252.025982,620.247829 252.526998,620.41185 252.617407,620.743619 C252.711583,621.075388 252.391385,621.656916 251.664347,622.503114 C251.178399,623.099553 250.831832,623.912201 250.617111,624.929875 C250.40239,625.955004 250.296913,627.15161 250.296913,628.534602 L250.296913,637.988159 C254.907765,637.988159 258.836783,637.928515 262.0802,637.8055 C265.327385,637.686212 267.738288,637.50728 269.316676,637.268704 L269.316676,643.121261 C267.678015,642.882686 265.20684,642.700026 261.899383,642.580739 C258.595692,642.457723 254.726947,642.401807 250.296913,642.401807 L250.296913,642.938602 Z M103.627382,690.213841 L159.771281,690.213841 L159.771281,630.245636 L103.627382,630.245636 L103.627382,690.213841 Z M103.627382,701.557363 L103.627382,694.802693 L159.771281,694.802693 L159.771281,700.20792 L165.685527,700.20792 C165.564981,697.687966 165.474573,695.227655 165.4143,692.823261 C165.354027,690.422595 165.320124,687.86909 165.320124,685.170204 L165.320124,636.187659 L165.320124,631.009824 C165.320124,629.29879 165.354027,627.390185 165.4143,625.291466 C164.56295,625.410753 163.515714,625.489036 162.272592,625.518858 C161.029471,625.544952 159.194924,625.593413 156.768953,625.653057 C154.342982,625.708973 151.144769,625.742523 147.170547,625.742523 L131.744536,625.742523 L116.277088,625.742523 C112.272729,625.742523 109.029311,625.708973 106.539301,625.653057 C104.053057,625.593413 102.158238,625.544952 100.854844,625.518858 C99.5476826,625.489036 98.5042137,625.410753 97.7169033,625.291466 C97.897721,627.334269 98.0333343,629.209324 98.1237431,630.920358 C98.214152,632.631392 98.2631235,634.383431 98.2631235,636.187659 L98.2631235,686.523375 C98.2631235,691.686299 98.0785387,696.696386 97.7169033,701.557363 L103.627382,701.557363 Z M133.748599,655.996886 L133.748599,642.401807 C138.235138,642.401807 141.953202,642.457723 144.895257,642.580739 C147.837312,642.700026 150.579714,642.882686 153.129997,643.121261 L153.129997,637.8055 C151.732427,637.928515 150.323555,638.032892 148.899616,638.122358 C147.471909,638.215551 145.912357,638.286378 144.209657,638.34975 C142.514491,638.409394 140.630973,638.454127 138.570404,638.483949 C136.506069,638.513771 134.20441,638.528682 131.654127,638.528682 C129.107611,638.528682 126.817253,638.513771 124.786821,638.483949 C122.752622,638.454127 120.887939,638.409394 119.189006,638.34975 C117.490073,638.286378 115.915452,638.215551 114.457609,638.122358 C113.003534,638.032892 111.605964,637.928515 110.272433,637.8055 L110.272433,643.121261 C112.698404,642.819314 115.293891,642.621744 118.051361,642.536006 C120.812599,642.44654 124.225533,642.401807 128.286397,642.401807 L128.286397,655.996886 C126.346374,655.996886 124.587168,655.978248 123.00878,655.952153 C121.434159,655.922331 119.961248,655.877598 118.597582,655.814227 C117.233915,655.758311 115.945589,655.680028 114.728836,655.590562 C113.515851,655.501096 112.302865,655.39672 111.08988,655.277432 L111.08988,660.678932 C112.302865,660.559644 113.515851,660.455267 114.728836,660.362074 C115.945589,660.272608 117.233915,660.198053 118.597582,660.138409 C119.961248,660.078765 121.434159,660.034032 123.00878,660.000482 C124.587168,659.974388 126.346374,659.959477 128.286397,659.959477 L128.286397,676.976625 C124.040948,676.916981 120.160901,676.827515 116.64249,676.7045 C113.124079,676.58894 110.182024,676.436102 107.816326,676.25717 L107.816326,681.748136 C110.543659,681.509561 114.031934,681.326901 118.281151,681.207613 C122.5266,681.088326 127.193957,681.028682 132.290756,681.028682 C137.447828,681.028682 142.118952,681.088326 146.304128,681.207613 C150.489305,681.326901 153.947444,681.509561 156.678544,681.748136 L156.678544,676.25717 C154.071756,676.495746 150.794435,676.674678 146.854116,676.793965 C142.906262,676.916981 138.540268,676.976625 133.748599,676.976625 L133.748599,659.959477 C135.993752,659.959477 137.994048,659.974388 139.753253,660.000482 C141.512459,660.034032 143.136051,660.078765 144.620263,660.138409 C146.108243,660.198053 147.486978,660.272608 148.760236,660.362074 C150.037261,660.455267 151.310519,660.559644 152.583777,660.678932 L152.583777,655.277432 C151.310519,655.39672 150.037261,655.501096 148.760236,655.590562 C147.486978,655.680028 146.108243,655.758311 144.620263,655.814227 C143.136051,655.877598 141.512459,655.922331 139.753253,655.952153 C137.994048,655.978248 135.993752,655.996886 133.748599,655.996886 L133.748599,655.996886 Z M148.3986,675.533988 C147.125342,673.614201 145.727772,671.903166 144.209657,670.404614 C142.695308,668.902333 140.87583,667.459697 138.751222,666.080432 L142.118952,662.837295 C143.998703,664.279932 145.772976,665.763573 147.441773,667.299404 C149.11057,668.827778 150.794435,670.464258 152.493368,672.205114 L148.3986,675.533988 Z M37.0337269,667.161477 L61.1465218,667.161477 L61.1465218,642.219147 L37.0337269,642.219147 L37.0337269,667.161477 Z M6.36629015,667.161477 L31.0253051,667.161477 L31.0253051,642.219147 L6.36629015,642.219147 L6.36629015,667.161477 Z M37.0337269,686.072318 C37.0337269,689.975265 37.0939995,693.229585 37.2145446,695.842733 C37.3350898,698.452153 37.5498108,700.837909 37.8511736,703 L30.2078584,703 C30.4527157,700.837909 30.6486016,698.452153 30.799283,695.842733 C30.9499644,693.229585 31.0253051,689.975265 31.0253051,686.072318 L31.0253051,671.843522 L6.37005719,671.843522 L6.37005719,679.679239 L0,679.679239 C0.180817708,677.755723 0.335266168,675.74647 0.455811307,673.644022 C0.576356446,671.541575 0.636629015,669.532322 0.636629015,667.612534 L0.636629015,646.002807 C0.636629015,644.440882 0.576356446,642.789492 0.455811307,641.052364 C0.335266168,639.30778 0.180817708,637.868871 0,636.724454 C2.30542578,637.026401 6.01972288,637.253794 11.1466583,637.402903 C16.2698267,637.552013 22.8998094,637.65639 31.0253051,637.716034 L31.0253051,631.237216 C31.0253051,629.011753 30.9687996,626.81984 30.8444874,624.661477 C30.7239423,622.503114 30.5129883,620.549776 30.2078584,618.80892 C31.6054286,619.110867 32.9841637,619.334532 34.3478305,619.483642 C35.7152645,619.632752 36.8227729,619.711034 37.6703559,619.711034 C38.7025237,619.711034 39.2788801,619.94961 39.3994253,620.426761 C39.5199704,620.90764 39.0942954,621.422068 38.1261672,621.958863 C37.7607648,622.257083 37.4895382,622.667134 37.3049535,623.177835 C37.1241358,623.684808 37.0337269,624.448996 37.0337269,625.474125 L37.0337269,637.716034 C45.1027172,637.65639 51.6083876,637.552013 56.5507383,637.402903 C61.493089,637.253794 65.1207443,637.026401 67.4261701,636.724454 C67.3621305,637.324621 67.3018579,638.092536 67.2415853,639.024472 C67.1813128,639.956407 67.1361083,640.929348 67.1059721,641.95075 C67.0758358,642.968424 67.0456995,644.004736 67.0155632,645.05596 C66.9854269,646.107184 66.9703588,647.020481 66.9703588,647.803307 L66.9703588,666.080432 C66.9703588,667.880931 67.0155632,669.99829 67.1059721,672.428778 C67.1963809,674.862994 67.3018579,677.036269 67.4261701,678.956056 L61.1465218,678.956056 L61.1465218,671.843522 L37.0337269,671.843522 L37.0337269,686.072318 Z" id="Fill-3" fill="#009944"></path>
                <g id="编组" transform="translate(681.000000, 624.000000)">
                    <mask id="mask-2" fill="white">
                        <use xlink:href="#path-1"></use>
                    </mask>
                    <g id="Clip-6"></g>
                    <path d="M258.577959,24.2849775 L258.577959,18.6893778 C256.873033,18.805252 255.107621,18.9136503 253.281724,19.0033594 C251.455828,19.0930684 249.399331,19.1678259 247.119796,19.2276319 C244.8327,19.2874379 242.250738,19.3360303 239.35501,19.3659333 C236.463062,19.3920984 233.072111,19.4107878 229.174597,19.4107878 C225.583289,19.4107878 222.358672,19.3920984 219.496967,19.3659333 C216.635261,19.3360303 214.049519,19.2874379 211.732181,19.2276319 C209.418622,19.1678259 207.305421,19.0930684 205.388797,19.0033594 C203.472172,18.9136503 201.657617,18.805252 199.956471,18.6893778 L199.956471,24.1018216 C201.657617,24.0457535 203.392785,23.970996 205.158197,23.881287 C206.923608,23.7878401 208.915839,23.7280341 211.13867,23.6981311 C213.3615,23.6682281 215.935901,23.6383251 218.854312,23.608422 C221.780283,23.578519 225.277082,23.5635675 229.359833,23.5635675 C233.193081,23.5635675 236.55757,23.578519 239.445738,23.608422 C242.337686,23.6383251 244.912087,23.6831796 247.16138,23.7392477 C249.414453,23.8027916 251.455828,23.881287 253.281724,23.970996 C255.107621,24.0569671 256.873033,24.1653655 258.577959,24.2849775 L258.577959,24.2849775 Z M272.00189,2.34364798 C271.88092,3.00898983 271.77129,3.71544831 271.680563,4.4667613 C271.586054,5.21807428 271.514228,6.22730069 271.449963,7.49070263 C271.393258,8.75784244 271.363015,10.3651289 271.363015,12.3237757 L271.363015,19.9527797 L271.363015,67.7116158 C271.363015,70.0627395 271.226924,71.9727939 270.94718,73.4455169 C270.674996,74.9219778 270.021,76.0657677 268.988972,76.8768867 C267.949383,77.6880057 266.429692,78.248687 264.42234,78.5477171 C262.414988,78.850485 259.704495,79 256.294643,79 C256.173673,77.7365981 255.931732,76.5890703 255.56504,75.5686302 C255.198349,74.5444523 254.498989,73.4305654 253.46318,72.2269695 C256.13965,72.5895434 258.271752,72.7689614 259.855708,72.7689614 C261.439664,72.7689614 262.656929,72.5745919 263.511282,72.182115 C264.358075,71.7933759 264.925123,71.221481 265.197307,70.4664301 C265.46949,69.7151171 265.605582,68.7955997 265.605582,67.7116158 L265.605582,7.40099361 L229.632016,7.40099361 C227.624664,7.40099361 225.674017,7.41594511 223.787635,7.44584812 C221.901253,7.47575112 219.99597,7.50565413 218.079345,7.53929501 C216.162721,7.56546014 214.200732,7.62526615 212.1896,7.71497516 C210.182248,7.80842205 208.050145,7.91308256 205.797072,8.03269458 L205.797072,2.25393896 C208.235381,2.37728886 210.393946,2.48194937 212.284108,2.56792051 C214.17049,2.6613674 216.257229,2.73612491 218.536764,2.79593092 C220.82008,2.8594748 223.541914,2.88563993 226.709825,2.88563993 L238.852227,2.88563993 L250.359534,2.88563993 C253.46318,2.88563993 256.219036,2.8594748 258.623323,2.79593092 C261.023829,2.73612491 263.246659,2.6763189 265.288034,2.61651289 C267.325629,2.55670688 269.563581,2.46699787 272.00189,2.34364798 L272.00189,2.34364798 Z M213.376622,65.36423 L207.165549,65.36423 C207.350785,63.861604 207.486877,62.4636385 207.581385,61.1665957 C207.668332,59.8732907 207.717476,58.4715874 207.717476,56.9689614 L207.717476,38.1898746 C207.717476,37.0460847 207.687234,36.1116158 207.622968,35.3902058 C207.566263,34.665058 207.445293,33.9772889 207.260057,33.311947 C210.061277,33.3754909 213.195166,33.4166075 216.665504,33.4502484 C220.135842,33.4801514 224.180788,33.4951029 228.807905,33.4951029 L235.884672,33.4951029 C237.986533,33.4951029 239.906937,33.4801514 241.642106,33.4502484 C243.377275,33.4166075 244.95367,33.3904424 246.386413,33.3605394 C247.815376,33.3268985 249.202755,33.311947 250.540989,33.311947 C250.359534,33.9772889 250.268806,34.6239413 250.268806,35.2556423 L250.268806,38.1898746 L250.268806,54.7112846 L250.268806,57.7838183 C250.268806,58.6248403 250.299049,59.3948427 250.359534,60.0826118 C250.420019,60.7778566 250.480504,61.4357227 250.540989,62.0674237 C250.605255,62.7028626 250.692202,63.379418 250.816953,64.100828 L244.696608,64.100828 L244.696608,57.9632363 L213.376622,57.9632363 L213.376622,65.36423 Z M213.376622,53.7170097 L244.696608,53.7170097 L244.696608,37.8273007 L213.376622,37.8273007 L213.376622,53.7170097 Z M178.230947,37.6478827 C175.675448,36.4442867 173.089706,34.6388928 170.469942,32.231701 C167.853957,29.8207712 164.992252,26.5725574 161.888606,22.4795836 C160.973767,21.3357937 160.047588,19.9340904 159.102507,18.2819494 C158.161206,16.6260705 157.227466,14.8356281 156.316408,12.9068843 C155.405349,10.9818784 154.581239,8.92230897 153.851636,6.72443814 C153.122034,4.52656731 152.543644,2.28384197 152.116467,0 L146.910961,1.26340194 C147.94677,5.59559972 149.254762,9.65867045 150.838718,13.4526141 C152.422674,17.24282 154.369541,21.0031228 156.683099,24.7372605 C158.936172,28.2845044 161.279973,31.4953395 163.710722,34.3510764 C166.149031,37.2105512 168.920009,40.0887154 172.023655,42.9743553 C172.753257,41.9539153 173.634073,40.9745919 174.673662,40.040123 C175.705691,39.109392 176.892712,38.3094866 178.230947,37.6478827 L178.230947,37.6478827 Z M129.29087,4.69477171 C131.112986,3.30801987 131.056281,2.52680388 129.105634,2.34364798 C128.436516,2.22403596 127.555701,1.99976343 126.459407,1.6670925 C125.363113,1.33442158 124.206333,0.841022001 122.989069,0.179418027 C122.319952,2.8295718 121.495841,5.39749231 120.520517,7.89813106 C119.548974,10.3950319 118.240982,13.2096522 116.596541,16.3382541 C113.79532,21.6983676 110.87691,26.2286728 107.829969,29.9291696 C104.786808,33.6296664 101.1955,36.8965697 97.0522644,39.7261415 C98.3337943,40.2643956 99.4754522,40.8699314 100.481018,41.5277975 C101.482804,42.1931393 102.382522,42.9743553 103.172609,43.8751833 C105.97383,40.8063875 108.42348,37.9768157 110.52534,35.3902058 C112.6272,32.7998581 114.498461,30.2618405 116.139121,27.7612018 C117.783563,25.2643009 119.27301,22.6889047 120.615025,20.0424888 C121.95326,17.392335 123.325518,14.4730542 124.724238,11.2809084 C125.2119,10.1408564 125.877237,8.92230897 126.73159,7.62526615 C127.585943,6.3319612 128.436516,5.35637568 129.29087,4.69477171 L129.29087,4.69477171 Z M157.870121,68.1638987 C151.598563,68.4629288 146.211601,68.7507452 141.705454,69.0236101 C137.203088,69.2927372 133.366059,69.5469127 130.201928,69.7898746 C127.034016,70.0290987 124.40291,70.2720606 122.30483,70.5112846 C120.20297,70.7542465 118.437559,70.9934705 117.008596,71.2364325 C115.575853,71.4756565 114.37371,71.7148805 113.402167,71.9578424 C112.426843,72.1970665 111.451519,72.4699314 110.479976,72.7689614 C110.17377,71.4457535 109.731472,70.1524485 109.156863,68.8890466 C108.574693,67.6256447 107.799726,66.3884079 106.824403,65.1848119 C107.678756,64.9455879 108.438601,64.6577715 109.107718,64.3288384 C109.780616,63.9961675 110.479976,63.5139815 111.209579,62.8822806 C111.939181,62.2505796 112.714148,61.4506742 113.538258,60.4900402 C114.362369,59.5294062 115.318791,58.3220724 116.415085,56.8792524 C120.42979,51.5826828 123.794278,46.6599006 126.50099,42.1183818 C129.211483,37.5731251 131.233956,33.162432 132.575971,28.8900402 C134.095662,29.7310622 135.377192,30.3814526 136.413,30.8299976 C137.445029,31.2822806 138.51108,31.659806 139.607374,31.9588361 C140.522213,32.261604 140.979632,32.6092264 140.979632,32.9979655 C140.979632,33.3904424 140.548675,33.7044239 139.698102,33.943648 C139.028985,34.1268039 138.204874,34.8183109 137.233331,36.0256447 C136.261787,37.2255027 135.252441,38.6085167 134.220412,40.1746865 C133.063633,41.9800804 131.751861,43.9835817 130.292655,46.1777147 C128.83345,48.3755855 127.340222,50.5884079 125.820532,52.8161817 C124.297061,55.0439555 122.773591,57.2380885 121.2539,59.4060563 C119.73043,61.5740241 118.301467,63.528933 116.963232,65.2745209 L154.675747,63.289709 C153.152276,61.1217412 151.492714,58.9126567 149.69706,56.651242 C147.901406,54.3973031 145.84869,51.9714218 143.531351,49.3848119 L148.373946,46.1365981 C153.243004,52.0910338 157.321974,57.3763899 160.607076,61.9814526 C163.895958,66.5827774 166.421214,70.4552165 168.190406,73.5800804 L162.708936,76.6526141 C161.918848,75.0864443 161.12876,73.6099834 160.334892,72.2269695 C159.544804,70.8439555 158.720694,69.4908446 157.870121,68.1638987 L157.870121,68.1638987 Z M56.7955915,52.3638987 C59.0486647,50.9210788 60.9199252,49.6726283 62.409373,48.6185474 C63.9026011,47.5644665 65.2294949,46.5851431 66.3824938,45.6843151 C67.539273,44.7797492 68.6053244,43.8602318 69.5806481,42.9295008 C70.5559717,41.9950319 71.6522658,40.8960965 72.8657498,39.6326946 C74.2644698,41.8604684 75.6972127,43.4864443 77.1601982,44.5068843 C77.8293156,44.9890703 78.0712563,45.4114502 77.8898008,45.7740241 C77.7045649,46.1365981 77.2169031,46.2861131 76.4268153,46.2263071 C76.0639042,46.2263071 75.5459997,46.3272297 74.8768823,46.5402886 C74.207765,46.7533475 73.2475626,47.220582 72.0000556,47.9382541 C70.7487683,48.6596641 69.1232288,49.6726283 67.1158767,50.9659333 C65.1047442,52.2592382 62.549245,53.9898746 59.4455988,56.1541046 C60.8443187,57.9632363 62.2430387,59.5294062 63.645539,60.8488763 C65.044259,62.1758221 66.5034641,63.3644665 68.0269348,64.4148096 C69.5504055,65.4726283 71.1797252,66.4482139 72.9148941,67.3490419 C74.6500629,68.2573456 76.5780283,69.1880767 78.7101311,70.1524485 C77.5533519,70.9299267 76.5062021,71.8083274 75.561121,72.7689614 C74.61604,73.7333333 73.9015587,74.7238704 73.4176772,75.7517861 C69.5806481,73.4044003 66.2312808,70.88881 63.3695753,68.2087533 C60.5078699,65.5324344 57.9221281,62.6841732 55.61235,59.6789212 C54.6937312,58.4715874 53.7524305,57.0474568 52.7808871,55.3878401 C51.8055635,53.7319612 50.8945053,51.9564703 50.040152,50.0613674 C49.1857988,48.1662645 48.4108323,46.2263071 47.7114723,44.2377573 C47.008332,42.2529454 46.448844,40.3242016 46.017887,38.4590017 L36.888404,38.4590017 L36.888404,69.6964277 L53.0530705,61.3946061 C53.0530705,62.4150461 53.128677,63.3009226 53.2798899,64.0597114 C53.4311029,64.8110244 53.6919453,65.66326 54.0548564,66.6313698 L39.2624476,74.2117814 C37.5008165,75.1163473 36.1285588,75.9162527 35.1532352,76.6040218 C34.1816918,77.2992666 33.3575811,77.9758221 32.6884638,78.6374261 C32.2008019,77.616986 31.5921697,76.7124202 30.8625671,75.9274663 C30.1329646,75.1462503 29.252149,74.3612964 28.2125598,73.5800804 C29.3731194,72.7390584 30.2236923,71.729832 30.7718394,70.5561391 C31.3199864,69.3824462 31.5921697,67.7452567 31.5921697,65.6370949 L31.5921697,11.2809084 C31.5921697,9.41570854 31.5468058,7.73366454 31.4560781,6.22730069 C31.3653503,4.72467471 31.199016,3.18840785 30.9532949,1.62597587 C31.8076482,1.74558789 32.9341848,1.86519991 34.3329048,1.98481192 C35.7354051,2.10442394 37.3004593,2.20908446 39.0356282,2.29879347 C40.770797,2.39224036 42.6118149,2.46699787 44.5624622,2.52680388 C46.5055489,2.58287201 48.4561962,2.61651289 50.4068435,2.61651289 C52.3499302,2.61651289 54.3156988,2.58287201 56.2928084,2.52680388 C58.2736983,2.46699787 60.1298375,2.39224036 61.8650063,2.29879347 C63.6001751,2.20908446 65.1690097,2.10442394 66.5677297,1.98481192 C67.9664496,1.86519991 69.0929862,1.74558789 69.9473395,1.62597587 C69.8225888,2.40345399 69.731861,3.06505796 69.6713759,3.61078779 C69.6108907,4.14904187 69.5655268,4.73962621 69.5352842,5.36758931 C69.5012613,5.99929028 69.48614,6.76929264 69.48614,7.67385853 L69.48614,11.2809084 L69.48614,27.8060563 C69.48614,30.0338301 69.5352842,32.0036906 69.626012,33.7193754 C69.7167397,35.4313225 69.8528314,37.2255027 70.034287,39.0944405 C69.1232288,38.9710906 68.1819281,38.8664301 67.2066044,38.7767211 C66.2312808,38.6870121 65.0593803,38.6272061 63.6909029,38.5935652 C62.3224255,38.5636622 60.6326206,38.537497 58.6214881,38.507594 C56.6141359,38.4739532 54.1191219,38.4590017 51.1364461,38.4590017 C51.6241079,41.1689614 52.3499302,43.6359593 53.3252538,45.8637331 C54.3005775,48.091507 55.4573567,50.2557369 56.7955915,52.3638987 L56.7955915,52.3638987 Z M26.7533547,49.1156849 C26.7533547,51.1004968 26.5265352,52.8647741 26.069116,54.3973031 C25.6116968,55.929832 24.821609,57.282943 23.6950724,58.4603738 C22.5685357,59.6303288 21.079088,60.5984386 19.2229488,61.3497516 C17.3630293,62.1010646 15.0343495,62.6841732 12.2369096,63.110291 C12.1159392,62.0263071 11.7946116,60.8675656 11.2767072,59.6303288 C10.7588028,58.4005678 10.1652919,57.3016324 9.49617451,56.3372605 C13.8813506,56.5166785 16.9698755,56.0045895 18.7617492,54.8009936 C20.5611836,53.5973977 21.4571204,51.5527797 21.4571204,48.6596641 C21.4571204,47.519612 21.2605436,46.2263071 20.8636095,44.7797492 C20.4704558,43.3369293 19.8618236,41.8156139 19.0377129,40.2232789 C18.2173825,38.6272061 17.1664524,37.0161817 15.8887028,35.3902058 C14.6109532,33.76423 13.1177251,32.231701 11.4127989,30.7851431 C13.3634462,26.1501774 15.0343495,21.7880767 16.4330695,17.691365 C17.8355698,13.6021292 18.9621064,9.77828247 19.8164597,6.22730069 L6.20729241,6.22730069 L6.20729241,59.4957653 L6.20729241,66.2687958 C6.20729241,68.0741897 6.23753501,69.6702626 6.30180052,71.0532766 C6.35850538,72.4400284 6.43789219,73.7183818 6.52861997,74.8920748 C6.61934776,76.0657677 6.72519683,77.4039271 6.84994753,78.9065531 L0,78.9065531 C0.181455564,77.2843151 0.332668534,75.7517861 0.457419234,74.3052283 C0.57838961,72.8586705 0.669117392,71.370996 0.72960258,69.8347291 C0.793868092,68.2984623 0.835451658,66.7061273 0.865694252,65.0502484 C0.895936846,63.3943695 0.911058143,61.5441211 0.911058143,59.4957653 L0.911058143,13.2694582 C0.911058143,12.3686302 0.895936846,11.3893068 0.865694252,10.3389638 C0.835451658,9.28114502 0.793868092,8.22706411 0.72960258,7.17672108 C0.669117392,6.12264017 0.593510907,5.09846227 0.4990028,4.10792524 C0.412055343,3.11365034 0.332668534,2.22403596 0.272183346,1.44281997 C2.4005059,1.56243198 4.60821526,1.652141 6.89531143,1.71194701 C9.17484695,1.77549089 11.3825563,1.80165602 13.5146592,1.80165602 C15.9454077,1.80165602 18.3081103,1.76053939 20.5914262,1.6670925 C22.8709617,1.57738349 24.9274581,1.4689851 26.7533547,1.34937308 C26.0842373,3.81637095 25.3546347,6.3170097 24.564547,8.84755145 C23.7706789,11.3743553 22.9654698,13.8862077 22.1413591,16.3868465 C21.3210287,18.8837473 20.4855771,21.3058907 19.6312238,23.6532766 C18.7768705,26.0006624 17.9603205,28.1686302 17.1664524,30.1534422 C18.6899231,31.2374261 20.0394988,32.530731 21.230301,34.033357 C22.4173228,35.5434587 23.4191087,37.1357937 24.2432194,38.8215756 C25.0635498,40.5073575 25.6910836,42.2379938 26.1144799,44.0134847 C26.5416565,45.7889756 26.7533547,47.489709 26.7533547,49.1156849 L26.7533547,49.1156849 Z M36.888404,34.1268039 L64.1899057,34.1268039 L64.1899057,23.1112846 L36.888404,23.1112846 L36.888404,34.1268039 Z M36.888404,18.8687958 L64.1899057,18.8687958 L64.1899057,7.22157559 L36.888404,7.22157559 L36.888404,18.8687958 Z" id="Fill-5" fill="#009944" mask="url(#mask-2)"></path>
                </g>
                <path d="M868.65838,743.977163 C868.65838,740.781104 867.599761,738.075307 865.474987,735.859772 C863.357749,733.64798 860.70555,732.540212 857.522157,732.540212 C854.338765,732.540212 851.675264,733.674177 849.539189,735.942106 C847.395579,738.206293 846.329425,740.874666 846.329425,743.947224 C846.329425,747.019782 847.425718,749.699381 849.618303,751.986023 C851.810888,754.268922 854.40281,755.410372 857.390301,755.410372 C860.377792,755.410372 863.00362,754.328802 865.267784,752.165661 C867.528181,750.006263 868.65838,747.278011 868.65838,743.977163 L868.65838,743.977163 Z M872,719 L872,757.779348 L868.443642,757.779348 L868.443642,752.985259 C865.230111,756.813794 861.541897,758.72619 857.390301,758.72619 C853.23117,758.72619 849.742624,757.270373 846.913361,754.354999 C844.087865,751.439624 842.671349,747.947911 842.671349,743.872375 C842.671349,739.796838 844.099167,736.308867 846.966104,733.412205 C849.829273,730.5118 853.261309,729.067211 857.258444,729.067211 C861.850818,729.067211 865.58424,731.01329 868.443642,734.912931 L868.443642,719 L872,719 Z M830.348418,753.355763 C830.348418,754.302604 830.47274,754.863973 830.721384,755.039869 C830.96626,755.215764 831.602939,755.301841 832.631419,755.301841 L834.805168,755.301841 L834.805168,758.359429 C833.317073,758.602688 832.152969,758.72619 831.301553,758.72619 C829.71174,758.72619 828.547636,758.340716 827.801705,757.56977 C827.059541,756.798824 826.686575,755.586267 826.686575,753.932101 L826.686575,732.858321 L821.7024,732.858321 L821.7024,729.804476 L826.686575,729.804476 L826.686575,719 L830.348418,719 L830.348418,729.804476 L836.078525,729.804476 L836.078525,732.858321 L830.348418,732.858321 L830.348418,753.355763 Z M797.18086,719.950584 L801.057441,719.950584 L801.057441,754.145421 L815.693511,754.145421 L815.693511,757.779348 L797.18086,757.779348 L797.18086,719.950584 Z M772.50486,750.825861 L776.004708,752.461315 L770.75682,762.206675 L768.153596,761.098908 L772.50486,750.825861 Z M752.598297,755.301841 C752.598297,754.426106 752.914753,753.681356 753.551431,753.063851 C754.18811,752.450088 754.937808,752.143206 755.808061,752.143206 C756.670779,752.143206 757.41671,752.450088 758.034552,753.063851 C758.656161,753.681356 758.961315,754.43359 758.961315,755.328038 C758.961315,756.222485 758.656161,756.982204 758.034552,757.595967 C757.41671,758.20973 756.670779,758.516612 755.808061,758.516612 C754.937808,758.516612 754.18811,758.202245 753.551431,757.56977 C752.914753,756.937295 752.598297,756.185061 752.598297,755.301841 L752.598297,755.301841 Z M739.00201,744.029558 C739.00201,740.938288 737.917019,738.258688 735.743271,735.994501 C733.569522,733.730314 730.985135,732.596349 727.997644,732.596349 C725.010152,732.596349 722.437067,733.730314 720.282155,735.994501 C718.123476,738.258688 717.04602,740.953257 717.04602,744.07821 C717.04602,747.206904 718.08957,749.856565 720.17667,752.034675 C722.26377,754.212785 724.851925,755.301841 727.944901,755.301841 C731.041645,755.301841 733.656171,754.205301 735.792246,752.008478 C737.935856,749.81914 739.00201,747.158253 739.00201,744.029558 L739.00201,744.029558 Z M713.335202,743.977163 C713.335202,739.864202 714.755485,736.353777 717.599818,733.438402 C720.447918,730.523028 723.91386,729.067211 727.997644,729.067211 C732.081427,729.067211 735.54737,730.523028 738.39547,733.438402 C741.24357,736.353777 742.663853,739.84549 742.663853,743.921027 C742.663853,747.996563 741.258639,751.484534 738.448212,754.381196 C735.634018,757.281601 732.164309,758.72619 728.024015,758.72619 C723.887488,758.72619 720.40271,757.281601 717.573446,754.381196 C714.74795,751.484534 713.335202,748.015275 713.335202,743.977163 L713.335202,743.977163 Z M705.20154,726.956465 L702.232885,729.224395 C698.695364,724.868174 694.151966,722.690063 688.598924,722.690063 C684.074363,722.690063 680.178946,724.269381 676.908905,727.431757 C673.635096,730.594134 672.000076,734.463836 672.000076,739.052089 C672.000076,743.632857 673.601191,747.461392 676.799652,750.533949 C679.998114,753.61025 684.002784,755.144657 688.813662,755.144657 C694.185872,755.144657 698.661458,753.075078 702.232885,748.928435 L705.20154,751.196364 C703.325411,753.651417 700.959529,755.522646 698.096359,756.806309 C695.23319,758.089972 692.064866,758.72619 688.598924,758.72619 C682.55613,758.72619 677.602093,756.832506 673.751884,753.037654 C669.89414,749.242801 667.969035,744.448713 667.969035,738.655388 C667.969035,735.070114 668.861892,731.761781 670.643838,728.722905 C672.433319,725.68403 674.908453,723.303826 678.073009,721.586038 C681.237565,719.864508 684.639462,719 688.282469,719 C691.925475,719 695.195516,719.688612 698.096359,721.054609 C700.993434,722.424349 703.363084,724.396624 705.20154,726.956465 L705.20154,726.956465 Z M645.726729,743.921027 C645.726729,740.796074 644.641738,738.120217 642.46799,735.889712 C640.294241,733.655465 637.63074,732.540212 634.485021,732.540212 C631.339302,732.540212 628.694637,733.640495 626.554795,735.833575 C624.414952,738.030398 623.345031,740.747422 623.345031,743.977163 C623.345031,747.206904 624.445091,749.920186 626.633909,752.117009 C628.826494,754.310089 631.452322,755.410372 634.511392,755.410372 C637.570463,755.410372 640.203825,754.29512 642.41148,752.060872 C644.622901,749.830367 645.726729,747.120828 645.726729,743.921027 L645.726729,743.921027 Z M620.007178,729.804476 L623.612512,729.804476 L623.612512,734.912931 C626.475681,731.01329 630.205336,729.067211 634.801477,729.067211 C638.764706,729.067211 642.177905,730.5118 645.041075,733.412205 C647.900477,736.308867 649.332062,739.796838 649.332062,743.872375 C649.332062,747.947911 647.919314,751.439624 645.093817,754.354999 C642.260787,757.270373 638.870191,758.72619 634.906962,758.72619 C630.597138,758.72619 626.82981,756.813794 623.612512,752.985259 L623.612512,768 L620.007178,768 L620.007178,729.804476 Z M609.48503,757.779348 L605.826955,757.779348 L605.826955,752.775682 C602.929879,756.604216 599.407427,758.516612 595.274668,758.516612 C593.149895,758.516612 591.23986,757.944016 589.544562,756.806309 C587.845497,755.661117 586.647486,754.171618 585.935461,752.326587 C585.230971,750.481555 584.876842,747.768273 584.876842,744.186741 L584.876842,729.804476 L588.482175,729.804476 L588.482175,743.131368 C588.482175,746.398534 588.632868,748.610326 588.934255,749.770488 C589.231874,750.93065 589.695255,751.914916 590.313097,752.723287 C590.930939,753.531658 591.71831,754.145421 592.671444,754.564576 C593.628346,754.987474 594.788683,755.197052 596.148688,755.197052 C597.504927,755.197052 598.846095,754.863973 600.153358,754.194073 C601.460621,753.531658 602.57575,752.599786 603.491211,751.4022 C604.410439,750.212098 605.028281,748.980829 605.348504,747.715879 C605.66496,746.450928 605.826955,743.902314 605.826955,740.077522 L605.826955,729.804476 L609.48503,729.804476 L609.48503,757.779348 Z M572.504936,744.029558 C572.504936,740.938288 571.416178,738.258688 569.238662,735.994501 C567.064914,733.730314 564.484294,732.596349 561.496803,732.596349 C558.509311,732.596349 555.936226,733.730314 553.781314,735.994501 C551.622635,738.258688 550.545179,740.953257 550.545179,744.07821 C550.545179,747.206904 551.588729,749.856565 553.675829,752.034675 C555.759162,754.212785 558.351084,755.301841 561.44406,755.301841 C564.537037,755.301841 567.15533,754.205301 569.295172,752.008478 C571.431247,749.81914 572.504936,747.158253 572.504936,744.029558 L572.504936,744.029558 Z M546.830594,743.977163 C546.830594,739.864202 548.254644,736.353777 551.102744,733.438402 C553.947077,730.523028 557.413019,729.067211 561.496803,729.067211 C565.580587,729.067211 569.046529,730.523028 571.894629,733.438402 C574.735194,736.353777 576.159244,739.84549 576.159244,743.921027 C576.159244,747.996563 574.754031,751.484534 571.943604,754.381196 C569.133177,757.281601 565.659701,758.72619 561.523174,758.72619 C557.386648,758.72619 553.901869,757.281601 551.072605,754.381196 C548.243342,751.484534 546.830594,748.015275 546.830594,743.977163 L546.830594,743.977163 Z M528.412126,729.804476 L532.122944,729.804476 L532.122944,733.8613 C533.113751,732.207134 534.07442,730.994577 535.012485,730.223631 C535.954317,729.452685 536.9941,729.067211 538.143135,729.067211 C539.29217,729.067211 540.44874,729.381578 541.616611,730.014053 L539.710343,733.067899 C539.17915,732.753532 538.62912,732.596349 538.064021,732.596349 C536.967728,732.596349 535.93548,733.153975 534.96351,734.280455 C533.987772,735.406935 533.275747,736.855266 532.816133,738.625449 C532.352751,740.403116 532.122944,743.625372 532.122944,748.29596 L532.122944,757.779348 L528.412126,757.779348 L528.412126,729.804476 Z M518.530424,726.275338 L515.610744,729.067211 C513.493506,727.027572 511.165297,725.466967 508.641187,724.377912 C506.109542,723.288857 503.502551,722.742458 500.812679,722.742458 C498.126574,722.742458 495.440469,723.464752 492.754364,724.901856 C490.068258,726.342702 487.969857,728.285038 486.466693,730.72512 C484.963529,733.165203 484.21383,735.807378 484.21383,738.655388 C484.21383,743.078973 485.882757,746.933705 489.224377,750.219583 C492.565997,753.505461 496.747732,755.144657 501.76958,755.144657 C505.589651,755.144657 508.867227,754.081799 511.609842,751.959826 C514.348689,749.830367 515.98371,746.944932 516.511136,743.288551 L504.369037,743.288551 L504.369037,739.654625 L520.809657,739.654625 C520.704172,745.661269 518.899622,750.343084 515.399774,753.696326 C511.899926,757.049568 507.322622,758.72619 501.664095,758.72619 C495.157919,758.72619 489.951471,756.742687 486.040985,752.775682 C482.134265,748.804934 480.182789,744.141832 480.182789,738.782632 C480.182789,733.430917 482.12673,728.79027 486.018381,724.875659 C489.906263,720.961048 495.014761,719 501.343872,719 C507.676751,719 513.40309,721.425113 518.530424,726.275338 L518.530424,726.275338 Z M436.673915,729.804476 L440.493986,729.804476 L450.198623,751.353548 L459.586805,729.804476 L463.459619,729.804476 L446.646033,768 L442.825962,768 L448.235845,755.672344 L436.673915,729.804476 Z M419.950744,729.804476 L423.66533,729.804476 L423.66533,733.8613 C424.656137,732.207134 425.616806,730.994577 426.554871,730.223631 C427.489168,729.452685 428.532718,729.067211 429.685521,729.067211 C430.834556,729.067211 431.991126,729.381578 433.158997,730.014053 L431.248962,733.067899 C430.717769,732.753532 430.167739,732.596349 429.60264,732.596349 C428.510114,732.596349 427.474099,733.153975 426.502128,734.280455 C425.52639,735.406935 424.814365,736.855266 424.350984,738.625449 C423.89137,740.403116 423.66533,743.625372 423.66533,748.29596 L423.66533,757.779348 L419.950744,757.779348 L419.950744,729.804476 Z M407.789809,753.355763 C407.789809,754.302604 407.914131,754.863973 408.159007,755.039869 C408.407651,755.215764 409.044329,755.301841 410.069042,755.301841 L412.242791,755.301841 L412.242791,758.359429 C410.758463,758.602688 409.594359,758.72619 408.742943,758.72619 C407.15313,758.72619 405.985258,758.340716 405.243095,757.56977 C404.500931,756.798824 404.127966,755.586267 404.127966,753.932101 L404.127966,732.858321 L399.14379,732.858321 L399.14379,729.804476 L404.127966,729.804476 L404.127966,719 L407.789809,719 L407.789809,729.804476 L413.516148,729.804476 L413.516148,732.858321 L407.789809,732.858321 L407.789809,753.355763 Z M392.125258,732.858321 L389.793282,735.231039 C387.84934,733.367296 385.958141,732.435424 384.115918,732.435424 C382.91414,732.435424 381.908263,732.817154 381.094521,733.569388 C380.280778,734.325365 379.873906,735.257237 379.873906,736.361262 C379.873906,737.469029 380.307149,738.419614 381.173634,739.209272 C382.04012,739.998931 383.535749,740.945773 385.656755,742.049798 C387.777761,743.157565 389.393945,744.355152 390.509074,745.635072 C391.620436,746.918735 392.178,748.490567 392.178,750.350569 C392.178,752.704575 391.356723,754.688078 389.714168,756.304819 C388.067845,757.921561 386.04479,758.72619 383.641234,758.72619 C382.047655,758.72619 380.518119,758.378141 379.052629,757.674559 C377.583371,756.974719 376.336385,755.98671 375.311672,754.725502 L377.594673,752.195601 C379.467035,754.268922 381.429813,755.301841 383.479239,755.301841 C384.929661,755.301841 386.169112,754.826549 387.193825,753.879707 C388.218538,752.932865 388.730895,751.817612 388.730895,750.533949 C388.730895,749.254029 388.282583,748.198656 387.382191,747.371573 C386.478033,746.548232 384.974869,745.608875 382.872699,744.553502 C380.766763,743.501871 379.19202,742.349194 378.14847,741.102956 C377.10492,739.856717 376.585029,738.243718 376.585029,736.256473 C376.585029,734.27297 377.319658,732.577637 378.785148,731.170473 C380.254406,729.767051 382.198348,729.067211 384.62074,729.067211 C387.043132,729.067211 389.544638,730.332162 392.125258,732.858321 L392.125258,732.858321 Z M364.793291,741.080501 C364.299771,738.408386 363.06032,736.320095 361.082473,734.808142 C359.104625,733.296189 356.821624,732.540212 354.241004,732.540212 C348.936606,732.540212 345.470664,735.388223 343.843178,741.080501 L364.793291,741.080501 Z M364.793291,748.718857 L367.871198,750.298175 C364.830964,755.915604 360.340309,758.72619 354.399232,758.72619 C350.157221,758.72619 346.653605,757.281601 343.899688,754.381196 C341.142004,751.484534 339.759395,747.996563 339.759395,743.921027 C339.759395,739.84549 341.149539,736.353777 343.922292,733.438402 C346.698813,730.523028 350.127082,729.067211 354.214633,729.067211 C358.298417,729.067211 361.726686,730.418239 364.503207,733.124036 C367.279728,735.82609 368.718847,739.516154 368.824332,744.186741 L343.47398,744.186741 C343.579465,747.558695 344.649387,750.271977 346.683744,752.326587 C348.714334,754.381196 351.181934,755.410372 354.079009,755.410372 C358.855982,755.410372 362.423642,753.179867 364.793291,748.718857 L364.793291,748.718857 Z M321.340927,729.804476 L325.051745,729.804476 L325.051745,733.8613 C326.042552,732.207134 327.006988,730.994577 327.945053,730.223631 C328.883118,729.452685 329.9229,729.067211 331.071936,729.067211 C332.220971,729.067211 333.381308,729.381578 334.545412,730.014053 L332.635377,733.067899 C332.107951,732.753532 331.561688,732.596349 330.992822,732.596349 C329.896529,732.596349 328.864281,733.153975 327.888543,734.280455 C326.92034,735.406935 326.20078,736.855266 325.741166,738.625449 C325.281552,740.403116 325.051745,743.625372 325.051745,748.29596 L325.051745,757.779348 L321.340927,757.779348 L321.340927,729.804476 Z M309.918387,744.029558 C309.918387,740.938288 308.833397,738.258688 306.659648,735.994501 C304.4859,733.730314 301.90528,732.596349 298.914021,732.596349 C295.92653,732.596349 293.357212,733.730314 291.198533,735.994501 C289.039854,738.258688 287.962398,740.953257 287.962398,744.07821 C287.962398,747.206904 289.005948,749.856565 291.08928,752.034675 C293.180148,754.212785 295.768302,755.301841 298.861279,755.301841 C301.954255,755.301841 304.572548,754.205301 306.712391,752.008478 C308.852233,749.81914 309.918387,747.158253 309.918387,744.029558 L309.918387,744.029558 Z M284.25158,743.977163 C284.25158,739.864202 285.671862,736.353777 288.519963,733.438402 C291.364295,730.523028 294.830237,729.067211 298.914021,729.067211 C302.997805,729.067211 306.463747,730.523028 309.311847,733.438402 C312.15618,736.353777 313.58023,739.84549 313.58023,743.921027 C313.58023,747.996563 312.175017,751.484534 309.36459,754.381196 C306.550396,757.281601 303.080686,758.72619 298.940393,758.72619 C294.803866,758.72619 291.322855,757.281601 288.493591,754.381196 C285.664328,751.484534 284.25158,748.015275 284.25158,743.977163 L284.25158,743.977163 Z M258.034742,719.950584 L277.123795,719.950584 L277.123795,723.6893 L261.851046,723.6893 L261.851046,735.493012 L277.123795,735.493012 L277.123795,739.231727 L261.851046,739.231727 L261.851046,757.779348 L258.034742,757.779348 L258.034742,719.950584 Z M232.925499,743.921027 C232.925499,740.72871 231.848043,738.030398 229.693131,735.833575 C227.534452,733.640495 224.893555,732.540212 221.762905,732.540212 C218.636023,732.540212 215.991358,733.674177 213.836447,735.942106 C211.677768,738.206293 210.600312,740.885893 210.600312,743.977163 C210.600312,747.064691 211.692837,749.744291 213.885422,752.008478 C216.078007,754.276407 218.703835,755.410372 221.762905,755.410372 C224.821976,755.410372 227.447804,754.321317 229.640389,752.143206 C231.832974,749.965096 232.925499,747.225617 232.925499,743.921027 L232.925499,743.921027 Z M236.270887,729.804476 L236.270887,757.779348 L232.714529,757.779348 L232.714529,752.985259 C229.49723,756.813794 225.820318,758.72619 221.683791,758.72619 C217.547265,758.72619 214.054952,757.262889 211.206852,754.328802 C208.362519,751.394715 206.938469,747.903002 206.938469,743.846177 C206.938469,739.785611 208.370053,736.308867 211.23699,733.412205 C214.10016,730.5118 217.528428,729.067211 221.525564,729.067211 C226.121704,729.067211 229.851359,731.01329 232.714529,734.912931 L232.714529,729.804476 L236.270887,729.804476 Z M173.454455,729.804476 L177.116298,729.804476 L177.116298,734.808142 C180.013373,730.979607 183.532058,729.067211 187.668584,729.067211 C189.793358,729.067211 191.699626,729.636065 193.398691,730.777515 C195.093988,731.918964 196.295766,733.412205 197.004024,735.257237 C197.712282,737.098526 198.06641,739.81555 198.06641,743.397082 L198.06641,757.779348 L194.461077,757.779348 L194.461077,744.448713 C194.461077,741.18529 194.306617,738.969755 194.008998,737.813335 C193.707612,736.653173 193.247998,735.668907 192.630156,734.856794 C192.008547,734.055908 191.224942,733.438402 190.268041,733.015504 C189.314907,732.596349 188.15457,732.383029 186.794564,732.383029 C185.434559,732.383029 184.100924,732.716108 182.789894,733.386008 C181.482631,734.055908 180.367502,734.984037 179.448274,736.177881 C178.529046,737.371725 177.911204,738.599252 177.590981,739.864202 C177.274526,741.129153 177.116298,743.677767 177.116298,747.502559 L177.116298,757.779348 L173.454455,757.779348 L173.454455,729.804476 Z M159.914677,757.78309 L163.57652,757.78309 L163.57652,729.804476 L159.914677,729.804476 L159.914677,757.78309 Z M158.746805,722.005194 C158.746805,721.196823 159.040657,720.496983 159.620825,719.894447 C160.204761,719.299397 160.913019,719 161.745598,719 C162.574411,719 163.282668,719.291912 163.862837,719.871993 C164.45054,720.452074 164.740624,721.151913 164.740624,721.978996 C164.740624,722.80608 164.45054,723.505919 163.862837,724.086 C163.282668,724.666081 162.574411,724.95425 161.745598,724.95425 C160.913019,724.95425 160.204761,724.658596 159.620825,724.059803 C159.040657,723.464752 158.746805,722.77614 158.746805,722.005194 L158.746805,722.005194 Z M125.688499,719 L129.346575,719 L129.346575,734.808142 C132.247418,730.979607 135.766103,729.067211 139.902629,729.067211 C142.023635,729.067211 143.93367,729.636065 145.632735,730.777515 C147.328033,731.918964 148.529811,733.412205 149.238069,735.257237 C149.946326,737.098526 150.296688,739.81555 150.296688,743.397082 L150.296688,757.779348 L146.638612,757.779348 L146.638612,744.448713 C146.638612,741.567021 146.551963,739.583518 146.371132,738.494463 C146.194067,737.405407 145.806032,736.372489 145.207027,735.388223 C144.604255,734.403956 143.801814,733.655465 142.79217,733.14649 C141.786293,732.641259 140.565679,732.383029 139.134094,732.383029 C137.702509,732.383029 136.331202,732.716108 135.023939,733.386008 C133.716676,734.055908 132.601547,734.984037 131.682319,736.177881 C130.763091,737.371725 130.141481,738.599252 129.825026,739.864202 C129.50857,741.129153 129.346575,743.677767 129.346575,747.502559 L129.346575,757.779348 L125.688499,757.779348 L125.688499,719 Z M116.228738,726.956465 L113.260083,729.224395 C109.722562,724.868174 105.179164,722.690063 99.6298897,722.690063 C95.1015611,722.690063 91.2061436,724.269381 87.9361027,727.431757 C84.6622944,730.594134 83.0272739,734.463836 83.0272739,739.052089 C83.0272739,743.632857 84.6283885,747.461392 87.8268502,750.533949 C91.0290792,753.61025 95.0299819,755.144657 99.8408601,755.144657 C105.216838,755.144657 109.688656,753.075078 113.260083,748.928435 L116.228738,751.196364 C114.356376,753.651417 111.986726,755.522646 109.123557,756.806309 C106.260387,758.089972 103.095832,758.72619 99.6298897,758.72619 C93.5833278,758.72619 88.6330584,756.832506 84.7790816,753.037654 C80.9251048,749.242801 79,744.448713 79,738.655388 C79,735.070114 79.8890895,731.761781 81.6785704,728.722905 C83.4605167,725.68403 85.9356514,723.303826 89.1002071,721.586038 C92.2685302,719.864508 95.6704277,719 99.3134341,719 C102.952673,719 106.222714,719.688612 109.123557,721.054609 C112.0244,722.424349 114.394049,724.396624 116.228738,726.956465 L116.228738,726.956465 Z" id="Fill-7" fill="#009944"></path>
            </g>
        </g>
    </g>
</svg>