<?xml version="1.0" encoding="UTF-8"?>
<svg width="1024px" height="351px" viewBox="0 0 1024 351" version="1.1" xmlns="http://www.w3.org/2000/svg" xmlns:xlink="http://www.w3.org/1999/xlink">
    <title>中国航空油料集团有限公司@2x</title>
    <g id="页面-1" stroke="none" stroke-width="1" fill="none" fill-rule="evenodd">
        <g id="85.中国航空油料集团有限公司" transform="translate(0.000000, -208.000000)">
            <g id="中国航空油料集团有限公司" transform="translate(0.000000, 208.000000)">
                <path d="M175.911288,0.0114378268 C196.948814,-0.210984564 212.702866,2.8348187 228.222874,7.02891746 L228.222874,7.33222072 C156.065164,3.97247198 111.097915,41.6959479 90.2721932,90.8427825 C77.1762932,121.712669 76.1151504,164.381584 89.4440358,196.235876 C103.90396,230.913549 129.650969,256.746473 164.01844,271.378461 C171.444321,273.663345 178.861731,276.019533 186.359626,278.304417 C190.674093,279.075978 194.988559,279.9082 199.304085,280.670183 C127.377243,284.863217 78.6928167,248.592404 57.3407598,199.444505 C48.1759597,178.485718 39.8488482,146.550545 46.3671455,116.147852 C48.8622078,104.185997 52.0350459,93.1383092 56.4310576,82.9941455 C71.5782884,48.0929862 99.811888,22.5644297 135.704355,8.47093822 C143.959452,5.1899419 153.195207,3.36267279 162.582402,1.46410081 C167.049369,1.00754959 171.444321,0.549934141 175.911288,0.0114378268" id="Fill-2" fill="#EF8200"></path>
                <path d="M211.422279,23.023869 C276.717947,21.9561604 314.165816,56.8303805 332.804224,103.224559 C338.245178,116.726491 343.674517,138.01673 340.27986,157.701143 C339.825831,161.290008 339.302115,164.869282 338.849142,168.458147 L338.849142,167.918965 C338.396169,163.801574 337.861893,159.765166 337.40892,155.637119 C335.675164,149.079555 333.943519,142.439942 332.20026,135.800328 C321.410214,108.175232 302.08654,85.8279408 275.658899,74.0746211 C267.509611,70.4143624 258.603256,67.7397629 248.860644,65.6043456 C239.350326,63.4699939 225.08432,63.3176163 215.421955,65.2995904 C171.79824,74.0746211 144.6167,95.8933858 129.524996,133.207778 C123.257287,148.540373 118.572344,172.423161 123.106296,193.256267 C127.409011,212.939614 134.581609,228.354258 144.767691,241.93824 C148.162348,245.597433 151.487316,249.338676 154.883029,253 C145.825684,249.338676 135.861336,240.178972 130.047657,232.929848 C126.118724,227.977044 121.364093,223.625225 117.666398,218.359141 C102.574694,196.763082 88.9020935,158.534424 98.0407418,121.230687 C101.888371,105.817109 107.178334,92.314111 114.492421,80.4798074 C128.617994,57.6636621 149.82536,40.7358981 176.170642,30.3539766 C183.566031,27.4566714 191.796622,25.8508461 200.097957,24.1725616 C203.876954,23.7974783 207.654896,23.4096081 211.422279,23.023869" id="Fill-4" fill="#FFE000"></path>
                <path d="M49.4907913,53 C47.3679192,57.4141034 45.2439873,61.9111706 43.1200554,66.4061106 C38.0433918,78.1391165 34.635986,90.9272526 31.5316963,104.789664 C22.8144608,144.318758 35.2422181,190.477516 49.4907913,215.077367 C71.3045471,252.547255 102.522319,281.186808 147.310362,295.344912 C214.519453,316.596426 287.715616,288.038773 318.398166,249.655219 C326.508109,239.526181 338.552202,229.317371 343.032172,215.910197 L343.335288,215.910197 C340.675074,234.949341 330.977481,252.618518 322.492352,266.562831 C299.305035,304.489019 265.963331,330.612002 219.141443,344.779679 C210.575765,347.368577 202.091696,347.753614 192.474651,349.50011 C174.432888,352.625083 151.32612,350.493549 135.793013,346.536811 C72.1439454,330.388638 29.7108804,290.706381 8.9495519,231.376577 C-0.515935103,204.035727 -3.70077313,160.771132 5.46053799,130.080881 C12.6611335,106.159632 22.6629027,86.0557843 35.9194598,68.3855435 C40.39943,63.2811381 44.9408713,58.105469 49.4907913,53" id="Fill-6" fill="#D70E25"></path>
                <path d="M187.825299,91.029251 C242.795505,90.1986682 281.193447,107.061727 301.74474,140.937413 C306.186128,148.377652 309.352078,157.112032 312.065148,166.23147 C323.963264,206.110053 301.070685,239.6028 276.670962,252.669364 C270.873039,255.785905 264.179887,257.911688 257.095995,259.652412 C250.925235,261.171434 241.056655,261.484361 234.434068,260.189161 C202.809322,254.339015 184.206468,238.467777 174.570647,210.58438 C171.716447,202.233999 168.851715,188.488543 170.811739,176.939942 C173.213059,163.265558 176.680227,152.030944 183.232249,142.688744 C188.879562,134.632196 197.23152,128.862669 200.999907,118.913709 C206.648274,104.095814 195.131419,97.3344671 187.825299,91.029251" id="Fill-8" fill="#D70E25"></path>
                <polygon id="Fill-10" fill="#231916" points="784.998961 67.6072431 807.362301 67.6072431 801.62372 58.0388881 816.058979 51 825.965114 66.8417747 850.83089 66.8417747 850.83089 83 784.766373 83"></polygon>
                <path d="M789.131328,93 L839.686785,93 L839.686785,175.873736 C839.686785,175.873736 839.160872,180.732561 842.569761,180.732561 C845.978649,180.732561 845.757045,175.417558 845.453797,174.122225 L845.453797,172.451341 L859.77961,174.425636 C859.77961,174.425636 861.448534,195.247506 847.193761,197.444586 C832.867948,199.651214 827.333143,197.444586 827.333143,197.444586 C827.333143,197.444586 820.818615,196.22988 819.603502,187.494603 L819.83677,107.961575 L809.901689,107.961575 L809.224153,147.540844 C809.224153,147.540844 810.66087,190.156348 793.45102,202 L777.759531,194.256645 C777.759531,194.256645 789.353992,178.069755 788.82808,142.904803 L789.131328,93 Z" id="Fill-12" fill="#231916"></path>
                <polygon id="Fill-14" fill="#231916" points="884.864125 70.2058842 899.067627 56 922.901271 77.4549687 910.168739 90"></polygon>
                <polygon id="Fill-16" fill="#231916" points="876.856305 105.244407 889.762009 91 914.893451 112.96705 901.997191 126"></polygon>
                <path d="M898.59767,135 L916.895406,140.806218 C916.895406,140.806218 911.7666,173.975884 895.68528,199 L875.855327,191.767231 C875.855327,191.767231 890.015755,164.172166 898.59767,135" id="Fill-18" fill="#231916"></path>
                <path d="M544.522101,61 L675.659824,61 L675.659824,194 L543.530792,194 L544.522101,61 Z M576.02053,87.1578062 L643.636086,87.1578062 L643.636086,102.257573 L618.494321,102.257573 L618.494321,116.59692 L643.404145,116.59692 L643.404145,131.697752 L635.158061,131.697752 L647.717823,143.586502 L639.321348,153.810636 L644.161395,153.810636 L644.161395,168.147853 L575.48463,168.147853 L575.48463,153.810636 L597.980785,153.810636 L599.414794,153.810636 L599.414794,131.392093 L577.152699,131.392093 L577.152699,116.362617 L599.647794,116.362617 L599.647794,101.952979 L575.71763,101.952979 L576.02053,87.1578062 Z M618.494321,131.697752 L631.065733,131.697752 L622.13124,141.381924 L635.68337,153.810636 L618.038912,153.810636 L618.494321,131.697752 Z M565.188146,179.276183 L654.459997,179.276183 L654.459997,75.715297 L566.177337,75.715297 L565.188146,179.276183 Z" id="Fill-20" fill="#231916"></path>
                <path d="M434.601391,56 L456.685862,56 L456.685862,78.6177123 L511.499511,78.6177123 L511.499511,160.850258 L455.710493,160.850258 L455.710493,198 L433.847456,198 L433.847456,161.083992 L378.369501,161.083992 L378.369501,78.1694564 L434.14903,78.1694564 L434.601391,56 Z M456.464427,93.680178 L490.843824,93.680178 L490.843824,146.562635 L455.931928,146.562635 L456.464427,93.680178 Z M400.001612,92.9160084 L433.624967,92.9160084 L433.624967,145.564732 L399.698984,145.564732 L400.001612,92.9160084 Z" id="Fill-22" fill="#231916"></path>
                <path d="M741.986856,52 L758.50692,55.9499635 L752.955838,65.1470837 L778.697517,65.1470837 L778.697517,176.421197 C778.697517,176.421197 781.595587,195.352573 748.077065,195.352573 L740.766897,177.636652 L752.183374,177.636652 C752.183374,177.636652 759.960217,176.959395 758.741323,166.76868 L758.741323,153.38912 L748.53415,160.458929 L737.107018,146.167513 C737.107018,146.167513 734.208948,179.845702 723.54469,199 L708.692082,186.915511 C708.692082,186.915511 718.370783,164.794229 718.370783,128.917605 L711.355749,128.917605 L711.355749,114.099669 L718.13638,114.099669 L718.13638,64.3870262 L734.971823,64.3870262 L741.986856,52 Z M738.326978,98.5927975 L738.326978,114.099669 L758.741323,114.099669 L759.046046,105.43013 L753.180651,110.747348 L738.326978,98.5927975 Z M737.869892,79.2049625 L758.50692,79.2049625 L758.50692,95.4729526 L748.077065,86.1940944 L738.09364,94.9464323 L737.869892,79.2049625 Z M737.869892,129.677662 L758.741323,129.677662 L758.741323,146.632464 L746.85604,134.46836 L737.330766,141.082771 L737.869892,129.677662 Z" id="Fill-24" fill="#231916"></path>
                <path d="M919.653525,85.2415624 L960.353339,85.2415624 L960.353339,57 L981.566077,57 L981.566077,85.0176599 L1018.18514,85.0176599 C1018.18514,85.0176599 1024,84.7830954 1024,92.0375348 L1024,199 L918.897361,199 L919.653525,85.2415624 Z M981.344297,134.185572 L1000.59164,134.185572 L1000.59164,100.359243 L981.566077,100.359243 L981.344297,134.185572 Z M940.643426,100.13534 L959.899218,100.13534 L959.899218,133.952073 L940.341383,133.952073 L940.643426,100.13534 Z M940.341383,150.524053 L959.668989,150.524053 L959.668989,184.187254 L939.665482,184.187254 L940.341383,150.524053 Z M981.111956,150.74689 L1000.59164,150.74689 L1000.59164,184.187254 L980.658891,184.187254 L981.111956,150.74689 Z" id="Fill-26" fill="#231916"></path>
                <path d="M464.453568,222 L426.305682,222 C426.305682,222 385.376344,221.929457 385.376344,257.98093 C385.376344,294.023852 414.496876,298 418.78429,298 L464.152586,298 L464.152586,283.386589 L427.430681,283.386589 C427.430681,283.386589 406.213557,284.457583 406.213557,256.217316 C406.213557,235.860937 428.26417,236.318408 428.26417,236.318408 L464.453568,236.318408 L464.453568,222 Z" id="Fill-28" fill="#231916"></path>
                <polygon id="Fill-30" fill="#231916" points="472.461388 222 499.013133 222 532.440768 273.81366 532.440768 222.445259 554.541544 222.445259 554.541544 299 531.001432 299 493.65572 245.129011 493.65572 298.624878 472.461388 298.624878"></polygon>
                <polygon id="Fill-32" fill="#231916" points="651.007143 299 671.958885 299 671.958885 266.61357 714.444159 266.61357 714.444159 252.179895 671.958885 252.179895 671.958885 236.974988 716.699902 236.974988 716.699902 223 650.635386 223"></polygon>
                <path d="M557.544477,298.925716 L587.060121,223 L616.886776,223 L646.631476,299.774851 L623.874033,300 L616.05461,277.964313 L588.112938,277.964313 L580.533077,299.386736 L557.544477,298.925716 Z M592.624709,264.532547 L602.539259,238.507428 L611.923197,264.993567 L592.624709,264.532547 Z" id="Fill-34" fill="#231916"></path>
            </g>
        </g>
    </g>
</svg>