<?xml version="1.0" encoding="UTF-8"?>
<svg width="664px" height="768px" viewBox="0 0 664 768" version="1.1" xmlns="http://www.w3.org/2000/svg" xmlns:xlink="http://www.w3.org/1999/xlink">
    <title>中国石油天然气集团有限公司@2x</title>
    <defs>
        <polygon id="path-1" points="0 -5.68434189e-14 664 -5.68434189e-14 664 149 0 149"></polygon>
        <path d="M201.845859,0.866615932 C173.747953,6.92299896 161.833727,43.5492235 139.751032,61.7013523 L139.751032,61.7013523 C115.989179,81.2335422 77.9693642,76.5203429 56.9635972,100.665029 L56.9635972,100.665029 C36.0428509,124.714685 53.1178301,159.936736 43.1675808,188.808805 L43.1675808,188.808805 C33.9754322,215.478165 -1.50226527,239.998716 0.0493614731,270.195529 L0.0493614731,270.195529 C1.64633256,301.390866 32.7256288,320.484784 41.6556303,348.355493 L41.6556303,348.355493 C50.3178169,375.393626 37.1707914,413.568696 54.1720861,436.523381 L54.1720861,436.523381 C73.3357391,462.395625 112.48066,460.005694 134.736231,476.248715 L134.736231,476.248715 C158.380472,493.507279 166.494275,528.804503 195.680445,540.226529 L195.680445,540.226529 C223.553046,551.136529 257.839037,526.394715 285.999291,525.573486 L285.999291,525.573486 C314.159546,526.394715 348.446954,551.136529 376.320972,540.226529 L376.320972,540.226529 C405.505725,528.804503 413.618111,493.507279 437.265186,476.248715 L437.265186,476.248715 C459.517923,460.005694 498.664261,462.395625 517.827914,436.523381 L517.827914,436.523381 C534.829209,413.568696 521.682183,375.393626 530.342953,348.355493 L530.342953,348.355493 C539.272954,320.484784 570.35225,301.390866 571.950639,270.195529 L571.950639,270.195529 C573.502265,239.998716 538.024568,215.478165 528.832419,188.808805 L528.832419,188.808805 C518.883587,159.936736 535.957149,124.714685 515.034986,100.665029 L515.034986,100.665029 C494.030636,76.5203429 456.009404,81.2335422 432.248968,61.7013523 L432.248968,61.7013523 C410.166273,43.5492235 398.25063,6.92299896 370.152724,0.866615932 L370.152724,0.866615932 C355.778568,-2.22823835 339.961894,3.53170814 324.148054,9.29023626 L324.148054,9.29023626 C311.377954,13.9410278 298.606436,18.5932377 286.600104,18.5790542 L286.600104,18.5790542 C286.401723,18.5818909 286.206175,18.5833092 286.012045,18.5833092 L286.012045,18.5833092 L285.987955,18.5833092 C285.793825,18.5833092 285.59686,18.5818909 285.399896,18.5790542 L285.399896,18.5790542 C273.392147,18.5932377 260.620629,13.9410278 247.850529,9.29023626 L247.850529,9.29023626 C235.094598,4.64369977 222.341502,0 210.342255,0 L210.342255,0 C207.464306,0 204.627451,0.268069413 201.845859,0.866615932" id="path-3"></path>
        <path d="M395.054435,254.996517 C389.023816,257.008609 385.627162,260.335098 386.032606,265.648101 L386.032606,265.648101 C386.301956,269.160737 387.698327,272.437491 393.357526,274.641414 L393.357526,274.641414 C447.525364,295.741384 523.140602,326.100387 576.863302,347 L576.863302,347 C586.439427,319.937645 616.381298,300.947814 617.95062,270.29467 L617.95062,270.29467 C619.400861,242.031596 588.514845,218.729124 576.94836,194 L576.94836,194 C518.991184,213.511326 452.596244,235.786437 395.054435,254.996517" id="path-5"></path>
        <linearGradient x1="79.5587531%" y1="50%" x2="0.209960717%" y2="50.0338222%" id="linearGradient-7">
            <stop stop-color="#F08300" offset="0%"></stop>
            <stop stop-color="#FFE100" offset="100%"></stop>
        </linearGradient>
        <path d="M373.294865,220.526868 C369.567598,225.681501 368.743258,230.366369 372.168314,234.436713 L372.168314,234.436713 C374.434185,237.128986 377.478995,238.969724 383.361464,237.45257 L383.361464,237.45257 C439.792591,222.8913 519.140661,203.290354 575,188.849718 L575,188.849718 C574.971623,188.765984 574.943247,188.685088 574.91487,188.601354 L574.91487,188.601354 C564.953264,159.711566 582.048748,124.4679 561.099722,100.403485 L561.099722,100.403485 C541.898695,78.3458567 508.490923,80.3583207 484.718426,66 L484.718426,66 C449.188084,115.394781 408.581168,171.728162 373.294865,220.526868" id="path-8"></path>
        <linearGradient x1="74.8826789%" y1="40.6004788%" x2="0%" y2="85.1980964%" id="linearGradient-10">
            <stop stop-color="#F08300" offset="0%"></stop>
            <stop stop-color="#FFE100" offset="100%"></stop>
        </linearGradient>
        <path d="M369.871782,9.28445147 C358.396748,13.4567128 346.923132,17.6289742 336,18.4313867 L336,18.4313867 C337.122249,79.2403595 338.332463,148.667469 339.291553,208.865418 L339.291553,208.865418 C339.392286,215.219504 341.536052,219.459814 346.715991,220.667686 L346.715991,220.667686 C350.143746,221.464428 353.683584,221.115676 357.485895,216.380592 L357.485895,216.380592 C393.673115,171.316483 444.956077,108.78927 481,63.8811071 L481,63.8811071 C480.015372,63.1807683 479.049187,62.4435696 478.107122,61.6709286 L478.107122,61.6709286 C455.996967,43.5273333 444.066506,6.91832703 415.93366,0.864791162 L415.93366,0.864791162 C413.148609,0.266526025 410.308226,0 407.426698,0 L407.426698,0 C395.41253,0 382.642156,4.64151705 369.871782,9.28445147" id="path-11"></path>
        <linearGradient x1="50%" y1="18.1064409%" x2="32.286365%" y2="97.029829%" id="linearGradient-13">
            <stop stop-color="#F08300" offset="0%"></stop>
            <stop stop-color="#FFE100" offset="100%"></stop>
        </linearGradient>
        <path d="M46.0493726,270.084675 C47.6435143,301.188696 78.5874514,320.258078 87.6204487,348 L87.6204487,348 C141.798577,326.975185 217.986924,296.462473 272.580607,275.253317 L272.580607,275.253317 C278.286329,273.035552 279.694677,269.740099 279.966986,266.205004 L279.966986,266.205004 C280.376868,260.861947 276.948895,257.514028 270.86733,255.489112 L270.86733,255.489112 C212.70952,236.121949 145.586791,213.659273 87.0446288,194 L87.0446288,194 C75.4573172,218.659171 44.5998949,241.898916 46.0493726,270.084675" id="path-14"></path>
        <linearGradient x1="100.307777%" y1="50.0777791%" x2="20.2087465%" y2="50.0777791%" id="linearGradient-16">
            <stop stop-color="#FFE100" offset="0%"></stop>
            <stop stop-color="#F08300" offset="100%"></stop>
        </linearGradient>
        <path d="M102.910382,101.083901 C99.8264364,104.620773 97.5695102,108.398538 95.9268198,112.363349 L95.9268198,112.363349 C94.4685419,116.185041 93.4372501,120.176776 92.715204,124.26345 L92.715204,124.26345 C89.5816089,144.900872 96.1849974,168.627389 89.0992991,189.144365 L89.0992991,189.144365 C89.0666722,189.239305 89.0326268,189.335662 89,189.429185 L89,189.429185 C145.322436,203.976272 225.52488,223.757817 282.53248,238.448023 L282.53248,238.448023 C288.460635,239.976983 291.530395,238.123526 293.814273,235.412774 L293.814273,235.412774 C297.267044,231.316181 296.435769,226.600351 292.678008,221.411238 L292.678008,221.411238 C257.144543,172.337138 216.253184,115.689086 180.46296,66 L180.46296,66 C156.631182,81.1422338 122.431162,78.692213 102.910382,101.083901" id="path-17"></path>
        <linearGradient x1="22.1649072%" y1="40.0899241%" x2="100%" y2="84.9238022%" id="linearGradient-19">
            <stop stop-color="#F08300" offset="0%"></stop>
            <stop stop-color="#FFE100" offset="100%"></stop>
        </linearGradient>
        <path d="M247.857989,0.864660913 C219.74868,6.9073812 207.829618,43.4509798 185.73796,61.5621588 L185.73796,61.5621588 C185.166673,62.0305758 184.586881,62.4848412 184,62.9263701 L184,62.9263701 C220.307208,108.116578 271.941355,171.01606 308.383234,216.352029 L308.383234,216.352029 C312.213551,221.115447 315.778779,221.467821 319.2306,220.665427 L319.2306,220.665427 C324.448734,219.449808 326.610552,215.184524 326.711201,208.788015 L326.711201,208.788015 C327.670906,148.66224 328.877272,79.3818155 330,18.5159139 L330,18.5159139 C318.409818,18.1791065 306.146283,13.7241924 293.881331,9.2692782 L293.881331,9.2692782 C281.120223,4.63322394 268.36195,0 256.359251,0 L256.359251,0 C253.478717,0 250.64071,0.267464669 247.857989,0.864660913" id="path-20"></path>
        <linearGradient x1="50%" y1="20.2601999%" x2="68.9989195%" y2="100%" id="linearGradient-22">
            <stop stop-color="#F08300" offset="0%"></stop>
            <stop stop-color="#FFE100" offset="100%"></stop>
        </linearGradient>
    </defs>
    <g id="页面-1" stroke="none" stroke-width="1" fill="none" fill-rule="evenodd">
        <g id="11.中国石油天然气集团有限公司" transform="translate(-180.000000, 0.000000)">
            <g id="中国石油天然气集团有限公司" transform="translate(180.000000, -0.000000)">
                <g id="编组" transform="translate(0.000000, 619.000000)">
                    <mask id="mask-2" fill="white">
                        <use xlink:href="#path-1"></use>
                    </mask>
                    <g id="Clip-2"></g>
                    <path d="M620.707181,95.838582 L639.768209,95.838582 C639.893013,107.195103 640.017818,118.551624 640.142622,129.906725 L620.707181,129.906725 L620.707181,95.838582 Z M579.596914,129.906725 L598.284946,129.906725 L598.284946,95.838582 L579.596914,95.838582 L579.596914,129.906725 Z M251.832337,81.2387613 L251.832337,102.9531 L269.024135,102.9531 C268.65114,102.453038 268.276727,101.954397 267.903733,101.454335 C263.54409,98.0860197 259.183029,94.7162839 254.823386,91.3465481 C255.196381,90.9729222 255.570794,90.5992964 255.945207,90.2242499 C258.186012,87.2281399 260.429654,84.2334506 262.670459,81.2387613 L251.832337,81.2387613 Z M536.617417,79.7414166 C542.846288,81.4873716 549.07516,83.2361679 555.30545,84.9821229 C550.795474,108.435314 541.727304,127.112344 534.00078,146.380357 C526.652925,143.510683 519.300814,140.638168 511.950122,137.769915 C521.293429,128.61111 532.938525,95.392504 536.617417,79.7414166 L536.617417,79.7414166 Z M399.830436,74.8743362 L399.830436,130.281771 L460.749139,130.281771 C460.873943,111.813573 460.998747,93.3425341 461.123552,74.8743362 L399.830436,74.8743362 Z M620.707181,80.1164631 L639.395214,80.1164631 L639.395214,45.2996482 L620.707181,45.2996482 L620.707181,80.1164631 Z M579.596914,80.1164631 L598.284946,80.1164631 L598.284946,45.2996482 L579.596914,45.2996482 L579.596914,80.1164631 Z M81.0361709,99.5833643 L116.541589,99.5833643 L116.541589,41.9299124 L81.0361709,41.9299124 L81.0361709,99.5833643 Z M23.1056809,99.5833643 L58.2366861,99.5833643 L58.2366861,41.9299124 L23.1056809,41.9299124 L23.1056809,99.5833643 Z M525.406299,35.5654873 C521.046657,40.5561626 516.684177,45.5496792 512.324535,50.5403545 C511.826736,51.0404165 511.327518,51.5376372 510.829719,52.0376992 C519.425618,58.1535139 528.021518,64.267908 536.617417,70.3823022 C537.488211,71.25599 538.360423,72.1296778 539.234054,73.0033657 C543.718501,68.3863162 548.204366,63.7678461 552.688813,59.1507966 C546.286917,50.5772909 534.895684,40.8559156 525.406299,35.5654873 L525.406299,35.5654873 Z M205.864627,34.8168149 L205.864627,50.5403545 L231.277912,50.5403545 L231.277912,65.1415959 L207.732437,65.1415959 C207.607633,70.5073177 207.482829,75.8730395 207.358024,81.2387613 L231.277912,81.2387613 L231.277912,102.9531 L205.864627,102.9531 L205.864627,119.050266 L277.994448,119.050266 C278.119252,113.809559 278.244056,108.567432 278.367442,103.326726 C276.749241,103.203131 275.129621,103.078116 273.508582,102.9531 C276.374828,99.9569902 279.239655,96.9623008 282.104482,93.9676115 L282.104482,93.2189392 C277.620035,89.2255466 273.135587,85.2321539 268.65114,81.2387613 L276.874045,81.2387613 L276.874045,65.1415959 L251.832337,65.1415959 L251.832337,50.5403545 L277.620035,50.5403545 L277.620035,34.8168149 L205.864627,34.8168149 Z M195.772494,130.281771 L288.83257,130.281771 L288.83257,23.2116835 L195.772494,23.2116835 L195.772494,130.281771 Z M348.628034,9.35911444 L494.012333,9.35911444 C493.887529,14.8498517 493.762725,20.340589 493.63792,25.8313263 C469.722288,25.9563418 445.796727,26.0813573 421.881094,26.2063728 C419.576469,38.331455 411.445749,50.0005149 405.435285,59.1507966 L405.435285,59.5244225 L461.87096,59.5244225 C469.232998,59.5244225 479.232946,58.2288073 482.425384,62.5205324 C486.746735,68.3266497 484.294613,99.1784846 484.294613,109.691151 C484.294613,118.554465 486.855939,136.369173 482.799797,142.261949 C479.422989,147.168807 467.760874,145.631685 459.628736,145.631685 L403.568893,145.631685 C397.151397,145.631685 385.499209,147.276775 381.143821,144.507966 C374.944733,140.567137 377.276305,104.099549 377.405364,92.4702669 C369.183878,99.5833643 360.962391,106.697882 352.740905,113.809559 C348.752839,109.817587 344.767609,105.821353 340.780961,101.829381 C338.421024,100.877559 335.715039,97.9595835 336.296514,96.2150492 C341.575171,94.3170867 345.602947,89.6673627 349.749855,86.4808882 C369.877393,71.0045384 385.46659,51.6484464 395.718983,26.2063728 L395.718983,25.8313263 L348.628034,25.8313263 L348.628034,9.35911444 Z M179.328103,7.86176978 L272.762593,7.86176978 C280.469261,7.86034915 303.324057,5.95528351 307.893598,8.98548859 C313.570777,12.7501597 311.630637,27.0729575 311.630637,36.3155802 L311.630637,114.183185 C311.630637,123.323522 313.899807,140.334153 308.266593,144.13292 C302.814912,147.810932 287.344846,145.631685 279.116268,145.631685 L203.620985,145.631685 C193.082109,145.631685 176.40371,148.093638 173.347422,140.389558 C173.224036,106.700724 173.099231,73.0005244 172.974427,39.3088489 C172.974427,25.0073606 170.103927,13.8213152 179.328103,7.86176978 L179.328103,7.86176978 Z M58.2381043,2.99468932 L81.0361709,2.99468932 L81.0361709,26.2063728 C90.2787837,26.0969843 130.735247,24.4746241 135.228203,27.328671 C139.830364,30.2537494 138.965243,37.7489965 138.965243,45.2996482 L138.965243,92.4702669 C138.965243,98.0902816 140.284198,107.903998 137.843422,111.563542 C134.035471,117.270215 92.5465354,115.063976 81.0361709,114.931857 L81.0361709,149 L58.2381043,149 L58.2381043,114.931857 C46.2242678,115.071079 5.34375335,117.426485 1.42943523,111.188496 C-0.887954557,107.494856 0.309032579,98.4070822 0.309032579,92.8453133 L0.309032579,47.1720393 C0.309032579,40.0575212 -0.751804361,31.1942069 3.29866396,28.078764 C9.18290522,23.5497936 47.0468419,26.0785161 58.2381043,26.2063728 L58.2381043,2.99468932 Z M598.283528,2.24743762 L598.283528,29.574688 C589.761377,29.4766645 564.967859,27.6312653 560.162891,31.0734533 C554.983511,34.7812992 556.798847,48.2204647 556.798847,56.9047796 C556.922233,84.6070765 557.048456,112.315056 557.17326,140.015932 C559.933138,147.272513 571.215167,145.631685 581.091729,145.631685 C606.503596,145.506669 631.922554,145.381654 657.334421,145.256638 C665.459467,142.887026 663.313683,130.443723 663.313683,120.173984 L663.313683,59.1507966 C663.313683,52.1328814 665.275097,39.4807452 662.566275,34.0695632 C658.627847,26.1921665 632.261511,29.4411487 620.707181,29.574688 L620.707181,2.24743762 L598.283528,2.24743762 Z M535.871427,-5.68434189e-14 C543.043423,2.6736268 557.264027,16.31026 562.405115,22.0879647 C560.55716,24.6806155 549.387171,35.9391131 547.829953,35.1918614 C538.736254,28.7024208 529.639719,22.2129802 520.547439,15.7221189 C525.655908,10.4828333 530.762959,5.24070631 535.871427,-5.68434189e-14 L535.871427,-5.68434189e-14 Z" id="Fill-1" fill="#000000" mask="url(#mask-2)"></path>
                </g>
                <g id="编组" transform="translate(46.000000, 0.000000)">
                    <mask id="mask-4" fill="white">
                        <use xlink:href="#path-3"></use>
                    </mask>
                    <g id="Clip-4"></g>
                    <path d="M285.728784,283.19647 C367.069451,306.334123 448.978339,329.711478 530.320422,352.847712 C521.510867,378.337 533.898374,414.944786 520.031507,437.797349 C505.033866,462.510795 465.956961,462.068268 441.305226,477.19647 C414.778785,493.47494 406.883201,531.057137 376.824153,543.240821 C346.888384,555.374862 318.634607,527.880018 287.648834,528.060149 C259.028051,528.226097 223.881934,554.018913 195.381597,542.864956 C165.940366,531.342227 157.755712,495.734382 133.901753,478.322636 C110.760551,461.434263 69.793354,461.662618 53.3007662,438.173213 C40.4498959,419.866483 45.8586258,378.755415 41.6784442,352.240655 C123.020528,329.229236 204.388118,306.209308 285.728784,283.19647" id="Fill-3" fill="#C6000D" mask="url(#mask-4)"></path>
                </g>
                <mask id="mask-6" fill="white">
                    <use xlink:href="#path-5"></use>
                </mask>
                <g id="Clip-6"></g>
                <path d="M386.032606,265.648101 C386.301956,269.160737 387.698327,272.437491 393.357526,274.641414 C447.525364,295.741384 523.140602,326.100387 576.863302,347 C586.439427,319.937645 616.381298,300.947814 617.95062,270.29467 C619.400861,242.031596 588.514845,218.729124 576.94836,194 C518.991184,213.511326 452.596244,235.786437 395.054435,254.996517 C389.023816,257.008609 385.627162,260.335098 386.032606,265.648101 Z" id="Fill-5" fill="url(#linearGradient-7)" mask="url(#mask-6)"></path>
                <mask id="mask-9" fill="white">
                    <use xlink:href="#path-8"></use>
                </mask>
                <g id="Clip-8"></g>
                <path d="M373.294865,220.526868 C369.567598,225.681501 368.743258,230.366369 372.168314,234.436713 L372.168314,234.436713 C374.434185,237.128986 377.478995,238.969724 383.361464,237.45257 L383.361464,237.45257 C439.792591,222.8913 519.140661,203.290354 575,188.849718 L575,188.849718 C574.971623,188.765984 574.943247,188.685088 574.91487,188.601354 L574.91487,188.601354 C564.953264,159.711566 582.048748,124.4679 561.099722,100.403485 L561.099722,100.403485 C541.898695,78.3458567 508.490923,80.3583207 484.718426,66 L484.718426,66 C449.188084,115.394781 408.581168,171.728162 373.294865,220.526868" id="Fill-7" fill="url(#linearGradient-10)" mask="url(#mask-9)"></path>
                <mask id="mask-12" fill="white">
                    <use xlink:href="#path-11"></use>
                </mask>
                <g id="Clip-10"></g>
                <path d="M369.871782,9.28445147 C358.396748,13.4567128 346.923132,17.6289742 336,18.4313867 L336,18.4313867 C337.122249,79.2403595 338.332463,148.667469 339.291553,208.865418 L339.291553,208.865418 C339.392286,215.219504 341.536052,219.459814 346.715991,220.667686 L346.715991,220.667686 C350.143746,221.464428 353.683584,221.115676 357.485895,216.380592 L357.485895,216.380592 C393.673115,171.316483 444.956077,108.78927 481,63.8811071 L481,63.8811071 C480.015372,63.1807683 479.049187,62.4435696 478.107122,61.6709286 L478.107122,61.6709286 C455.996967,43.5273333 444.066506,6.91832703 415.93366,0.864791162 L415.93366,0.864791162 C413.148609,0.266526025 410.308226,0 407.426698,0 L407.426698,0 C395.41253,0 382.642156,4.64151705 369.871782,9.28445147" id="Fill-9" fill="url(#linearGradient-13)" mask="url(#mask-12)"></path>
                <mask id="mask-15" fill="white">
                    <use xlink:href="#path-14"></use>
                </mask>
                <g id="Clip-12"></g>
                <path d="M46.0493726,270.084675 C47.6435143,301.188696 78.5874514,320.258078 87.6204487,348 L87.6204487,348 C141.798577,326.975185 217.986924,296.462473 272.580607,275.253317 L272.580607,275.253317 C278.286329,273.035552 279.694677,269.740099 279.966986,266.205004 L279.966986,266.205004 C280.376868,260.861947 276.948895,257.514028 270.86733,255.489112 L270.86733,255.489112 C212.70952,236.121949 145.586791,213.659273 87.0446288,194 L87.0446288,194 C75.4573172,218.659171 44.5998949,241.898916 46.0493726,270.084675" id="Fill-11" fill="url(#linearGradient-16)" mask="url(#mask-15)"></path>
                <mask id="mask-18" fill="white">
                    <use xlink:href="#path-17"></use>
                </mask>
                <g id="Clip-14"></g>
                <path d="M102.910382,101.083901 C99.8264364,104.620773 97.5695102,108.398538 95.9268198,112.363349 L95.9268198,112.363349 C94.4685419,116.185041 93.4372501,120.176776 92.715204,124.26345 L92.715204,124.26345 C89.5816089,144.900872 96.1849974,168.627389 89.0992991,189.144365 L89.0992991,189.144365 C89.0666722,189.239305 89.0326268,189.335662 89,189.429185 L89,189.429185 C145.322436,203.976272 225.52488,223.757817 282.53248,238.448023 L282.53248,238.448023 C288.460635,239.976983 291.530395,238.123526 293.814273,235.412774 L293.814273,235.412774 C297.267044,231.316181 296.435769,226.600351 292.678008,221.411238 L292.678008,221.411238 C257.144543,172.337138 216.253184,115.689086 180.46296,66 L180.46296,66 C156.631182,81.1422338 122.431162,78.692213 102.910382,101.083901" id="Fill-13" fill="url(#linearGradient-19)" mask="url(#mask-18)"></path>
                <mask id="mask-21" fill="white">
                    <use xlink:href="#path-20"></use>
                </mask>
                <g id="Clip-16"></g>
                <path d="M247.857989,0.864660913 C219.74868,6.9073812 207.829618,43.4509798 185.73796,61.5621588 L185.73796,61.5621588 C185.166673,62.0305758 184.586881,62.4848412 184,62.9263701 L184,62.9263701 C220.307208,108.116578 271.941355,171.01606 308.383234,216.352029 L308.383234,216.352029 C312.213551,221.115447 315.778779,221.467821 319.2306,220.665427 L319.2306,220.665427 C324.448734,219.449808 326.610552,215.184524 326.711201,208.788015 L326.711201,208.788015 C327.670906,148.66224 328.877272,79.3818155 330,18.5159139 L330,18.5159139 C318.409818,18.1791065 306.146283,13.7241924 293.881331,9.2692782 L293.881331,9.2692782 C281.120223,4.63322394 268.36195,0 256.359251,0 L256.359251,0 C253.478717,0 250.64071,0.267464669 247.857989,0.864660913" id="Fill-15" fill="url(#linearGradient-22)" mask="url(#mask-21)"></path>
            </g>
        </g>
    </g>
</svg>