<?xml version="1.0" encoding="UTF-8"?>
<svg width="566px" height="768px" viewBox="0 0 566 768" version="1.1" xmlns="http://www.w3.org/2000/svg" xmlns:xlink="http://www.w3.org/1999/xlink">
    <title>中国建材集团有限公司@2x</title>
    <defs>
        <polygon id="path-1" points="0 0 550 0 550 139 0 139"></polygon>
    </defs>
    <g id="页面-1" stroke="none" stroke-width="1" fill="none" fill-rule="evenodd">
        <g id="63.中国建材集团有限公司" transform="translate(-229.000000, 0.000000)">
            <g id="中国建材集团有限公司" transform="translate(229.000000, 0.000000)">
                <path d="M166.338905,0 L0,164.617801 L0,400.229291 L164.869658,565 L399.993481,565 L565,400.048216 L565,166.17505 L401.104473,0 L166.338905,0 Z M156.84314,334.56727 L104.803614,282.481892 L156.84314,230.456873 L156.84314,156.924101 L230.45041,156.924101 L282.510063,104.899082 L334.529463,156.924101 L408.15686,156.924101 L408.15686,230.456873 L460.152108,282.481892 L408.15686,334.56727 L408.15686,408.079923 L334.529463,408.079923 L282.510063,460.11299 L230.474562,408.079923 L156.84314,408.079923 L156.84314,334.56727 Z" id="Fill-1" fill="#C6000B"></path>
                <g id="编组" transform="translate(16.000000, 629.000000)">
                    <mask id="mask-2" fill="white">
                        <use xlink:href="#path-1"></use>
                    </mask>
                    <g id="Clip-3"></g>
                    <path d="M70.6423491,72.4562068 L100.229801,72.4562068 L100.229801,46.3628083 L70.6423491,46.3628083 L70.6423491,72.4562068 Z M20.1904067,72.4562068 L49.2361846,72.4562068 L49.2361846,46.3628083 L20.1904067,46.3628083 L20.1904067,72.4562068 Z M0,99.1725993 L0,29.6947055 L48.6945103,29.6947055 L48.6945103,0.586820114 C67.6691592,0.586820114 75.7581616,0.787785906 72.9855918,1.22991065 C72.9855918,1.59968771 72.7809593,2.39149293 72.3757067,3.57719111 C71.1800109,6.36257699 70.6423491,10.1246566 70.6423491,14.8513721 L70.6423491,29.6947055 L122.241838,29.6947055 L122.241838,97.4081196 L100.229801,97.4081196 L100.229801,88.493277 L70.6423491,88.493277 L70.6423491,139 L49.2361846,139 L49.2361846,88.493277 L20.1904067,88.493277 L20.1904067,99.1725993 L0,99.1725993 Z" id="Fill-2" fill="#C6000B" mask="url(#mask-2)"></path>
                    <path d="M212.265694,77.8388746 L221.096991,71.8902871 L209.244355,71.8902871 L209.244355,91.4643553 L221.096991,91.4643553 C217.586139,85.1178556 214.608937,80.5921059 212.265694,77.8388746 L212.265694,77.8388746 Z M165.938501,57.0147992 L190.273719,57.0147992 L190.273719,43.9841772 L163.61532,43.9841772 L163.61532,29.1287858 L238.314208,29.1287858 L238.314208,43.9841772 L209.244355,43.9841772 L209.244355,57.0147992 L235.970965,57.0147992 L235.970965,71.8902871 L228.804815,71.8902871 C232.363815,77.4329237 235.16046,81.9948472 237.166661,85.5720383 L228.219004,91.4643553 L239.485829,91.4643553 L239.485829,106.882451 L162.375488,106.882451 L162.375488,91.4643553 L190.273719,91.4643553 L190.273719,71.8902871 L165.938501,71.8902871 L165.938501,57.0147992 Z M158.230677,115.785236 L243.654715,115.785236 L243.654715,20.2018853 L158.230677,20.2018853 L158.230677,115.785236 Z M139.280102,138.4381 L139.280102,4.14873782 L263.259311,4.14873782 L263.259311,137.272498 L243.654715,137.272498 L243.654715,130.68082 L158.230677,130.68082 L158.230677,138.4381 L139.280102,138.4381 Z" id="Fill-4" fill="#C6000B" mask="url(#mask-2)"></path>
                    <path d="M365.11253,51.6763439 L377.554988,51.6763439 L377.554988,45.1730908 L365.11253,45.1730908 L365.11253,51.6763439 Z M365.11253,30.9005002 L376.941091,30.9005002 L376.941091,24.9639707 L365.11253,24.9639707 L365.11253,30.9005002 Z M325.947474,24.9639707 L325.947474,10.7195154 L346.747766,10.7195154 L346.747766,0 C360.197337,0 366.665329,0.586820114 366.308225,1.79261487 L366.308225,2.99037099 C365.537844,4.95179713 365.11253,7.52817858 365.11253,10.7195154 L395.959876,10.7195154 L395.959876,30.3217188 L409.008207,30.3217188 L409.008207,45.1771101 L395.959876,45.1771101 L395.959876,65.3460371 L365.11253,65.3460371 L365.11253,70.7319203 L395.959876,70.7319203 L395.959876,84.9241246 L365.11253,84.9241246 L365.11253,90.3019692 L400.128762,90.3019692 L400.128762,105.153341 L365.11253,105.153341 L365.11253,118.256311 C380.905344,118.256311 397.131497,117.400197 413.718767,115.784432 C409.774576,121.757135 407.182564,128.360871 406.010943,135.434867 L357.360569,135.434867 C330.90279,135.434867 312.947292,131.077928 303.437899,122.384148 C299.064381,127.54495 293.972643,132.850447 288.026263,138.437296 C283.741018,133.658329 278.556994,129.518434 272.634689,125.921146 C280.523071,121.564208 286.381178,116.041668 290.389568,109.305295 C284.439176,98.6058757 279.507934,87.512564 275.563742,76.0374172 C277.927047,75.6756788 281.49006,74.8356418 286.20062,73.641905 C288.583987,73.3002631 290.389568,72.8500998 291.581251,72.4562068 C291.990516,73.641905 292.732811,75.6756788 293.972643,78.4369488 C295.529455,83.9594888 297.126391,87.8984183 298.683203,90.3019692 C299.445559,85.5712344 299.89896,77.8380707 299.89896,67.1507099 L277.927047,67.1507099 L277.927047,51.1015817 C282.276491,50.7197467 285.791355,48.5533355 288.583987,44.5460776 C290.975378,40.9688864 292.933431,35.2453807 294.538391,27.3554637 C294.939632,26.9495128 295.096115,26.5435619 295.096115,26.137611 L277.369323,26.137611 L277.369323,10.1246566 L320.021156,10.1246566 C319.664053,10.9003846 319.278862,12.1101987 318.893671,13.6897898 C313.308408,30.3217188 308.369141,42.9544285 303.999635,51.6763439 L318.893671,51.6763439 C319.278862,76.632276 316.867408,95.6476593 311.751596,108.754648 C319.664053,114.297285 331.287981,117.400197 346.747766,118.256311 L346.747766,105.153341 L320.582893,105.153341 L320.582893,90.3019692 L346.747766,90.3019692 L346.747766,84.9241246 L324.190042,84.9241246 L324.190042,70.7319203 L346.747766,70.7319203 L346.747766,65.3460371 L325.381725,65.3460371 L325.381725,51.6763439 L346.747766,51.6763439 L346.747766,45.1771101 L319.45942,45.1771101 L319.45942,30.9005002 L346.747766,30.9005002 L346.747766,24.9639707 L325.947474,24.9639707 Z" id="Fill-5" fill="#C6000B" mask="url(#mask-2)"></path>
                    <path d="M500.788291,46.9383743 L475.887324,46.9383743 L475.887324,30.8972848 L513.226737,30.8972848 L513.226737,3.57397565 C529.830057,3.57397565 536.956082,3.95982997 534.564691,4.78378972 C534.564691,5.20179857 534.384133,5.73234826 533.998942,6.54425007 C533.188437,8.87947257 532.803246,11.5000665 532.803246,14.2532979 L532.803246,30.8972848 L550.000401,30.8972848 L550.000401,46.9383743 L532.803246,46.9383743 L532.803246,123.558592 C534.384133,134.258011 523.947875,138.819935 501.414226,137.272498 C500.20248,129.712165 498.035783,123.731423 494.813825,119.382523 C509.483166,119.836706 515.838811,118.032033 513.83261,114.05693 L513.83261,62.9995605 C504.752544,83.1684874 492.085391,101.1911 475.887324,117.027204 C471.128616,112.264315 465.049827,108.506255 457.474412,105.704791 C476.854313,90.302773 491.302973,70.7287049 500.788291,46.9383743 L500.788291,46.9383743 Z M414.168557,30.8972848 L436.722269,30.8972848 L436.722269,2.39229679 C452.137917,2.01850042 458.670108,2.57316601 456.350939,4.14873782 L456.350939,6.54425007 C455.540434,8.87947257 455.111107,11.3071393 455.111107,13.6905936 L455.111107,30.8972848 L469.981069,30.8972848 L469.981069,46.9383743 L455.111107,46.9383743 L455.111107,60.6161062 L466.963742,54.6112483 C472.528944,65.7407339 476.453073,73.6427088 478.83644,78.4377527 L462.838993,86.7336206 C461.667372,83.5503224 459.099435,78.4377527 455.111107,71.2833704 L455.111107,135.435671 L436.722269,135.435671 L436.722269,81.3718532 C433.207405,89.7360495 428.248076,97.4089235 421.872369,104.575364 C418.76677,99.7803198 414.613934,95.455536 409.457997,91.4643553 C420.52019,77.5816384 428.248076,62.7383049 432.577458,46.9383743 L414.168557,46.9383743 L414.168557,30.8972848 Z" id="Fill-6" fill="#C6000B" mask="url(#mask-2)"></path>
                </g>
            </g>
        </g>
    </g>
</svg>