<?xml version="1.0" encoding="UTF-8"?>
<svg width="663px" height="768px" viewBox="0 0 663 768" version="1.1" xmlns="http://www.w3.org/2000/svg" xmlns:xlink="http://www.w3.org/1999/xlink">
    <title>中核集团@2x</title>
    <defs>
        <polygon id="path-1" points="0 5.68434189e-14 156 5.68434189e-14 156 156 0 156"></polygon>
    </defs>
    <g id="页面-1" stroke="none" stroke-width="1" fill="none" fill-rule="evenodd">
        <g id="1.中核集团" transform="translate(-180.000000, 0.000000)">
            <g id="中核集团" transform="translate(180.000000, 0.000000)">
                <path d="M84.2966885,644.108509 L126.250756,644.108509 L126.250756,727.274061 C126.250756,729.579673 125.898118,731.034989 125.294063,731.685793 C124.641031,732.310434 122.783154,732.601497 119.622477,732.601497 L84.2966885,732.601497 L84.2966885,644.108509 Z M0,753.522065 L62.9000816,753.522065 L62.9000816,768 L84.2966885,768 L84.2966885,753.522065 L133.616961,753.522065 C137.342511,753.522065 140.281157,752.586738 142.361065,750.696463 C144.47036,748.842163 145.920092,746.752395 146.733117,744.433702 C147.565733,742.092115 148,739.551037 148,736.722165 L148,623.479005 L84.2966885,623.479005 L84.2966885,612 L62.9000816,612 L62.9000816,623.479005 L0,623.479005 L0,753.522065 Z M21.7557747,732.601497 L62.9033468,732.601497 L62.9033468,644.108509 L21.7557747,644.108509 L21.7557747,732.601497 Z" id="Fill-1" fill="#004DA1"></path>
                <g id="编组" transform="translate(169.000000, 612.000000)">
                    <mask id="mask-2" fill="white">
                        <use xlink:href="#path-1"></use>
                    </mask>
                    <g id="Clip-4"></g>
                    <path d="M133.040581,64.4756186 L156,64.4756186 L131.7574,115.162826 L137.316756,127.309837 C139.046261,131.102713 140.50994,133.666174 141.694667,134.954444 C142.869549,136.242714 144.188829,136.883579 145.718145,136.883579 L153.118586,136.883579 L153.118586,154.811457 L141.999874,154.811457 C138.737772,154.811457 135.682423,154.546609 132.981508,153.961329 C130.231366,153.447983 127.356516,150.521583 124.281477,145.348885 L119.975765,138.214355 L115.604418,145.744522 C113.792868,148.785362 111.915683,151.038199 109.917072,152.54554 C107.95456,154.052881 103.858883,154.811457 97.6923951,154.811457 L78.6776901,154.811457 L78.6776901,136.883579 L90.4297886,136.883579 C93.1011676,136.883579 95.0374251,136.501022 96.2976333,135.762065 C97.5775323,134.983871 98.6867782,133.525576 99.7927422,131.347942 L133.040581,64.4756186 Z M89.1662985,24.2384381 L73.9519091,24.2384381 L73.9519091,6.27786336 L98.0238561,6.27786336 L101.650237,5.68434189e-14 L123.24443,5.68434189e-14 L126.437614,6.27786336 L153.466456,6.27786336 L153.466456,24.2384381 L112.818176,24.2384381 L97.5775323,52.4822838 L108.213821,52.4822838 L119.040454,32.9228157 L141.694667,32.9228157 L103.478195,106.792341 C101.433638,110.768321 99.8321237,113.606439 98.7163143,115.385167 C97.6431682,117.157355 95.9497633,118.7399 93.616409,120.178577 C91.2830546,121.653221 86.9051436,122.382369 80.5187756,122.382369 L73.9519091,122.382369 L73.9519091,104.624517 L76.7315873,104.624517 C78.4348375,104.624517 80.0461975,104.11117 81.5328495,103.123715 C83.0588829,102.087214 84.5849164,100.02402 86.140486,96.9047065 L99.100284,70.3087999 L74.6246766,70.3087999 L74.6246766,52.4822838 L89.1662985,24.2384381 Z M51.7538656,41.6627786 L67.3751972,41.6627786 L71.424929,128.372497 C71.5627643,130.720156 71.8023351,132.204609 72.2125592,132.786619 C72.6654465,133.352281 73.4432313,133.617128 74.6246766,133.617128 L76.1474282,133.617128 L76.1474282,151.126482 L70.9392237,151.126482 C65.4356579,151.126482 61.9339855,150.191342 60.4013885,148.34068 C58.8983275,146.450781 57.9400442,144.377778 57.5462291,142.079165 C57.1425686,139.787091 56.899716,137.351149 56.7979804,134.807307 L51.7538656,41.6627786 Z M0,152.643632 L0,134.807307 L0.817166299,134.807307 C1.62120543,134.807307 2.35632692,134.441098 2.98643105,133.767535 C3.63294415,133.113591 4.05301357,130.687459 4.28930262,126.567611 L7.84676554,41.6627786 L22.8183023,41.6627786 L18.5060271,133.617128 C18.3288104,136.501022 18.0531398,139.437231 17.6199432,142.389788 C17.1900284,145.325997 15.979047,147.74886 13.9935626,149.713962 C11.9424424,151.665985 8.47030609,152.643632 3.54433575,152.643632 L0,152.643632 Z M70.9392237,12.9905996 L70.9392237,31.784953 L47.1035658,31.784953 L47.1035658,156.001635 L27.6064374,156.001635 L27.6064374,31.784953 L1.83780372,31.784953 L1.83780372,12.9905996 L27.6064374,12.9905996 L27.6064374,0.496997516 L47.1035658,0.496997516 L47.1035658,12.9905996 L70.9392237,12.9905996 Z" id="Fill-3" fill="#004DA1" mask="url(#mask-2)"></path>
                </g>
                <path d="M374.979142,687.479856 L415.632428,687.479856 L415.632428,681.516008 L374.979142,681.516008 L374.979142,687.479856 Z M374.979142,665.042555 L415.632428,665.042555 L415.632428,658.597275 L374.979142,658.597275 L374.979142,665.042555 Z M374.979142,708.214137 L374.979142,703.851783 L492,703.851783 L492,687.479856 L439.31405,687.479856 L439.31405,681.516008 L492,681.516008 L492,665.042555 L439.31405,665.042555 L439.31405,658.594 L492,658.594 L492,642.140197 L439.31405,642.140197 L439.31405,635.344488 L492,635.344488 L492,618.877585 L442.403384,618.877585 L439.878132,612 L417.859242,612 L413.451528,618.877585 L382.092483,618.877585 L386.713367,612 L364.113997,612 L354.780401,625.015011 C352.858586,627.638318 351.336875,629.383915 350.195592,630.163374 C349.054309,630.978859 347.686738,631.430815 346.135511,631.538891 L342,631.879495 L342,649.201184 L351.691067,649.201184 L351.691067,708.214137 L374.979142,708.214137 Z M440.789847,734.584763 L450.130001,756.167279 C452.212515,761.027439 455.242818,764.014276 459.240588,765.104864 C463.254755,766.188903 466.527745,766.729284 469.056277,766.729284 L490.232323,766.729284 L490.232323,750.282031 L479.291749,750.282031 C475.271022,750.282031 472.630985,749.957802 471.450348,749.315894 C470.236915,748.693637 468.734881,746.823589 466.934409,743.820377 L461.319822,734.584763 L440.789847,734.584763 Z M406.325069,729.619801 L406.325069,766.40833 L428.088154,766.40833 L428.088154,729.619801 L491.340811,729.619801 L491.340811,713.257699 L428.088154,713.257699 L428.088154,707.870258 L406.325069,707.870258 L406.325069,713.257699 L343.249508,713.257699 L343.249508,729.619801 L406.325069,729.619801 Z M367.58376,768 C370.984652,768 374.146137,767.22054 377.10429,765.60922 C380.049324,764.014276 382.859898,760.356056 385.562246,754.650935 L394.561328,735.757227 L373.139315,735.757227 L365.642267,747.514622 C364.573134,749.139042 363.317067,750.236181 361.893743,750.842063 C360.431064,751.431571 358.210809,751.729599 355.128034,751.729599 L342.94123,751.729599 L342.94123,768 L367.58376,768 Z M374.979142,642.140197 L415.632428,642.140197 L415.632428,635.344488 L374.979142,635.344488 L374.979142,642.140197 Z" id="Fill-5" fill="#004DA1"></path>
                <path d="M515,767 L644.375075,767 C647.809086,767 650.725375,766.515371 653.218965,765.582377 C655.722386,764.659274 657.622888,763.475724 658.949963,762.021836 C660.267208,760.614103 661.273164,758.537121 661.994044,755.833747 C662.691988,753.103999 663,750.36436 663,747.542302 L663,613 L515,613 L515,767 Z M544.592136,649.937318 L544.592136,668.346635 L602.783559,668.346635 L602.783559,717.040332 C602.783559,719.463478 602.337924,721.161329 601.404056,722.173446 C600.460358,723.152595 598.874422,723.637224 596.570881,723.637224 L587.559878,723.637224 L587.559878,741.380587 L607.161268,741.380587 C613.642637,741.380587 617.738548,740.477265 619.475214,738.637652 C621.162729,736.794742 622.384949,734.836445 623.11566,732.762759 C623.833263,730.689073 624.193703,728.140649 624.193703,725.157047 L624.193703,668.346635 L633.935417,668.346635 L633.935417,649.937318 L624.193703,649.937318 L624.193703,639.601858 L602.783559,639.601858 L602.783559,649.937318 L544.592136,649.937318 Z M544.313614,732.344066 L558.773817,732.344066 C563.34813,732.344066 566.962362,731.473711 569.514933,729.759377 C572.093719,728.031855 574.390706,724.596592 576.432108,719.483259 L593.457989,676.486427 L572.713021,676.486427 L559.360352,710.18629 C558.557553,712.157775 557.594195,713.496275 556.411296,714.162228 C555.221843,714.821588 553.403259,715.174345 550.971926,715.174345 L544.313614,715.174345 L544.313614,732.344066 Z M640.672371,740.144288 C640.672371,743.530099 640.036686,745.725766 638.82102,746.704915 C637.582416,747.651096 635.32475,748.139022 631.956273,748.139022 L536.744371,748.139022 L536.744371,631.8379 L640.672371,631.8379 L640.672371,740.144288 Z" id="Fill-7" fill="#004DA1"></path>
                <path d="M432.152107,106.404399 C437.675473,110.748475 440.609249,113.73073 442.857931,115.586865 C461.958615,106.404399 500.746739,90.5012206 534.345849,96.8749318 C582.872798,105.991925 539.84627,211.379128 439.747145,293.160356 C439.747145,293.160356 397.726951,326.574054 364,350.455011 L364,361.853708 C364,361.853708 381.396144,376.457265 397.726951,388 C454.763489,346.457938 566.151914,253.287833 587.419331,146.358762 C597.558068,95.0548068 560.431871,47.0997503 432.152107,106.404399" id="Fill-8" fill="#004DA1"></path>
                <path d="M396.874274,110.415969 C396.874274,110.415969 397.050877,12.529416 396.985468,9.3439042 C396.985468,-11.193316 388.989268,8.52870129 388.989268,8.52870129 L364.055514,65.3113488 C364.055514,65.3113488 245.116533,-20.8415207 183.812332,36.0098788 C122.65857,92.9627694 173.206329,222.471993 203.873146,273.086599 C234.448392,323.694657 254.156,351.745495 294.712597,393 L294.712597,314.724151 C294.712597,314.724151 242.444592,270.379078 206.267101,156.463475 C194.905629,120.859733 188.731058,57.6700492 222.717361,42.7672234 C258.306175,27.1736031 341.911435,60.9766955 396.874274,110.415969" id="Fill-9" fill="#004DA1"></path>
                <path d="M397,118 C378.757488,124.747833 292.791699,163.015064 218.076004,223.073402 C172.463175,259.606131 134.206302,302.571925 112.115505,350.259236 C72.6402818,435.607193 139.007653,464.736323 177.244874,469.113562 C209.649077,472.84815 251.597029,465.087158 295.339755,440.013942 L295.339755,388.782215 C295.339755,388.782215 224.865363,426.734678 174.886776,419.498299 C102.89927,409.192935 132.002135,328.271399 223.660112,248.323675 C319.199127,164.864324 397,132.613747 397,132.613747 L397,118 Z" id="Fill-10" fill="#004DA1"></path>
                <path d="M463.948912,144.079499 C463.948912,144.079499 433.738909,111.436988 414.005246,98 L414.005246,118.453572 C417.406697,121.211725 483.413867,168.214976 523.018823,268.124319 C546.052353,325.973466 572.795366,419.406719 499.654324,431.422046 C475.886762,435.336526 420.811426,433.174554 320,336.121635 C320,336.121635 320.072092,537.712484 320.072092,539.966176 C320.072092,585.619833 332.560467,552.725091 333.533714,549.904699 C334.293962,547.631352 365.224889,449.14367 365.224889,449.14367 C365.224889,449.14367 521.147697,541.335426 568.017605,424.769066 C603.323231,336.848844 512.958653,191.305499 463.948912,144.079499" id="Fill-11" fill="#004DA1"></path>
                <path d="M395.523061,245.722484 C387.095241,264.499649 366.218056,278.422452 348.869178,276.883822 C331.44467,275.325592 324.095401,258.929874 332.444302,240.17231 C340.881986,221.61075 361.755883,207.638945 379.190256,209.105707 C396.601611,210.592069 403.911421,226.987787 395.523061,245.722484" id="Fill-12" fill="#004DA1"></path>
            </g>
        </g>
    </g>
</svg>