<?xml version="1.0" encoding="UTF-8"?>
<svg width="1024px" height="480px" viewBox="0 0 1024 480" version="1.1" xmlns="http://www.w3.org/2000/svg" xmlns:xlink="http://www.w3.org/1999/xlink">
    <title>中粮集团有限公司@2x</title>
    <defs>
        <radialGradient cx="81.0578123%" cy="43.0119431%" fx="81.0578123%" fy="43.0119431%" r="43.2043945%" gradientTransform="translate(0.810578,0.430119),scale(0.846154,1.000000),translate(-0.810578,-0.430119)" id="radialGradient-1">
            <stop stop-color="#FEFDFD" offset="0%"></stop>
            <stop stop-color="#83C7E1" offset="31%"></stop>
            <stop stop-color="#207AAA" offset="55%"></stop>
            <stop stop-color="#1D2088" offset="100%"></stop>
        </radialGradient>
        <linearGradient x1="26.3784027%" y1="78.4744347%" x2="74.2956408%" y2="21.725381%" id="linearGradient-2">
            <stop stop-color="#C61019" offset="0%"></stop>
            <stop stop-color="#C61019" offset="35%"></stop>
            <stop stop-color="#F49E00" offset="65%"></stop>
            <stop stop-color="#F49E00" offset="100%"></stop>
        </linearGradient>
        <linearGradient x1="103.421407%" y1="44.0194117%" x2="-3.41070336%" y2="55.9323048%" id="linearGradient-3">
            <stop stop-color="#CFDB00" offset="0%"></stop>
            <stop stop-color="#CFDB00" offset="1%"></stop>
            <stop stop-color="#EAEC80" offset="99%"></stop>
            <stop stop-color="#EAEC80" offset="100%"></stop>
        </linearGradient>
        <linearGradient x1="-3.69986092%" y1="-0.19637883%" x2="103.716829%" y2="100.110724%" id="linearGradient-4">
            <stop stop-color="#CFDB00" offset="0%"></stop>
            <stop stop-color="#EAEC80" offset="100%"></stop>
        </linearGradient>
    </defs>
    <g id="页面-1" stroke="none" stroke-width="1" fill="none" fill-rule="evenodd">
        <g id="43.中粮集团有限公司" transform="translate(0.000000, -144.000000)">
            <g id="中粮集团有限公司" transform="translate(0.000000, 144.000000)">
                <path d="M283.605363,0 L283.381637,0 L283.15791,0 C279.578291,0 276.669849,0.673167706 276.669849,0.673167706 L276.669849,0.673167706 L79.7907623,53.6290273 C56.2995075,60.5850936 50.9300779,85.9410772 50.9300779,85.9410772 L50.9300779,85.9410772 L3.27638974,271.510975 C-1.19813497,288.564557 -1.19813497,285.871886 3.94756845,292.603563 L3.94756845,292.603563 C8.86954563,299.110851 19.6084049,297.764515 19.6084049,297.764515 L19.6084049,297.764515 L237.070306,240.54526 L403.075173,403.451845 C415.603842,413.77375 422.763081,398.290893 422.763081,398.290893 L422.763081,398.290893 L479.813271,189.384515 C484.287796,181.306502 474.667568,163.804142 474.667568,163.804142 L474.667568,163.804142 C474.667568,163.804142 324.099811,15.0340788 318.954108,8.30240171 L318.954108,8.30240171 C313.808405,1.79511388 305.083081,9.87312636 305.083081,9.87312636 L305.083081,9.87312636 L299.266199,16.3804142 L256.310762,172.330933 L297.252663,12.3414079 C296.805211,2.24389235 289.422245,0.224389235 283.605363,0 Z" id="路径" fill="url(#radialGradient-1)"></path>
                <path d="M238.467244,239 C238.467244,239 217.971367,156.612245 249.953944,89.7142857 C276.305786,34.4897959 298.378269,19 298.378269,19 C298.378269,19 318.648917,80.5102041 297.026893,137.081633 C275.404869,193.653061 267.972298,214.306122 238.467244,239 Z" id="路径" fill="#CFDB00"></path>
                <path d="M705.470316,102.992701 L754.602387,104.111922 L754.602387,192.530414 L706.363626,192.530414 L705.470316,102.992701 L705.470316,102.992701 Z M621.499139,102.097324 L670.631211,102.097324 L670.631211,192.530414 L620.382501,192.530414 L621.499139,102.097324 L621.499139,102.097324 Z M670.631211,87.7712895 L601.846311,87.323601 C593.136535,86.8759124 588,100.082725 588,100.082725 L588,191.635036 C588,202.379562 599.836363,207.080292 599.836363,207.080292 L670.184556,207.080292 L670.184556,242 L706.586954,242 L706.586954,205.513382 L773.138577,205.513382 C784.97494,206.632603 786.984888,195.216545 786.984888,195.216545 L786.984888,103.664234 C787.431544,93.8150852 777.828457,89.7858881 777.828457,89.7858881 L705.023661,89.7858881 L706.586954,58.4476886 L670.631211,58 L670.631211,87.7712895 L670.631211,87.7712895 Z" id="形状" fill="#000000" fill-rule="nonzero"></path>
                <path d="M817.676056,73.7379747 L841.760563,73.7379747 C841.760563,73.7379747 837.077465,108.241772 852.018779,113.394937 L852.018779,65 L874.988263,65 L874.988263,114.963291 C874.988263,114.963291 885.246479,110.93038 886.807512,73.7379747 L907.769953,73.7379747 C907.769953,73.7379747 905.762911,103.536709 897.734742,112.946835 C894.835681,116.307595 892.382629,120.340506 889.037559,121.236709 C885.692488,122.132911 876.549296,122.132911 874.765258,122.132911 L874.319249,134.007595 L903.978873,134.007595 L903.978873,146.33038 L875.211268,146.33038 L875.211268,158.205063 L887.476526,158.205063 C887.476526,158.205063 899.295775,154.172152 899.295775,176.129114 C899.295775,198.310127 905.316901,217.802532 910,224.075949 L890.598592,224.524051 C890.598592,224.524051 883.908451,223.403797 881.901408,189.572152 C881.901408,189.572152 883.462441,167.839241 874.319249,164.926582 L874.319249,242 L851.795775,242 L851.795775,165.822785 C851.795775,165.822785 846.666667,158.653165 845.774648,190.020253 C845.774648,190.020253 844.659624,223.403797 833.955399,224.972152 L815,224.972152 C815,224.972152 825.258216,211.529114 824.812207,194.725316 L825.258216,175.681013 C825.258216,175.681013 824.812207,156.188608 839.530516,157.756962 L851.349765,157.756962 L851.349765,146.55443 L821.244131,147.002532 L821.244131,133.559494 L850.457746,134.007595 L851.57277,121.68481 C851.57277,121.68481 834.178404,128.406329 825.035211,105.777215 C824.812207,105.553165 818.122066,87.6291139 817.676056,73.7379747 Z" id="路径" fill="#000000" fill-rule="nonzero"></path>
                <path d="M951.715726,69.928401 L940.078629,55.5704057 L966.038306,54 L976.556452,69.7040573 L998.040323,70.1527446 C998.040323,70.1527446 1010.125,70.8257757 1011.46774,81.5942721 L1010.34879,149.121718 C1010.34879,149.121718 1004.97782,160.114558 997.592742,160.114558 L972.304435,160.114558 C972.304435,160.114558 979.689516,184.568019 985.060484,190.849642 C985.060484,190.849642 989.08871,188.381862 996.02621,175.369928 L1017.28629,176.042959 C1017.28629,176.042959 1019.97177,184.119332 995.802419,208.572792 L1024,239.980907 L993.564516,241.102625 C993.564516,241.102625 964.247984,214.405728 946.120968,156.076372 L946.568548,146.653938 L985.284274,147.102625 L985.955645,124.443914 L951.715726,124.443914 L943.659274,109.861575 L985.284274,109.188544 L985.731855,84.7350835 L940.75,84.0620525 L938.959677,228.763723 L974.318548,227.642005 L957.758065,242 L925.979839,241.551313 C925.979839,241.551313 915.685484,240.878282 914.566532,227.642005 L913,82.9403341 C913,82.9403341 913.671371,69.0310263 930.231855,69.4797136 C946.792339,69.4797136 951.715726,69.928401 951.715726,69.928401 Z" id="路径" fill="#000000" fill-rule="nonzero"></path>
                <path d="M653.15842,300.307307 C653.15842,300.307307 658.062305,303.683729 659.176825,298.506548 C659.176825,298.506548 662.29748,296.2556 664.749423,293.554463 C667.424269,290.853325 665.19523,288.602377 660.960056,285.901239 C656.724882,283.200102 623.066393,279.37349 611.029582,290.403135 C598.992771,301.432781 591.859846,304.133918 590.076615,331.820578 C588.293384,359.507239 618.162507,370.761979 625.072528,371.212168 C631.759645,371.662358 647.585822,373.463116 662.29748,369.41141 C662.29748,369.41141 670.544924,367.160462 665.19523,361.533092 C659.845537,355.905722 656.05617,353.429679 651.152285,356.355911 C646.248399,359.282144 617.939603,361.983281 616.156372,341.499655 C614.373141,321.016028 617.047987,310.886762 617.047987,310.886762 C617.047987,310.886762 618.385411,295.355221 653.15842,300.307307 Z" id="路径" fill="#000000" fill-rule="nonzero"></path>
                <path d="M696.604745,307.752511 C696.604745,307.752511 698.854179,297.227571 709.876407,296.779702 C720.898635,296.331832 731.470976,296.779702 734.170297,307.752511 L733.495467,345.821439 C733.495467,345.821439 731.246033,358.361792 720.223805,358.361792 C709.201577,358.361792 696.829688,358.809662 696.829688,341.342742 L696.829688,307.752511 L696.604745,307.752511 Z M725.622447,282 L705.602482,282 C664.437834,287.374437 670.286363,341.118807 670.286363,341.118807 C681.308592,384.786107 730.571203,370.902145 730.571203,370.902145 C769.261472,360.601141 760.038792,320.740733 760.038792,320.740733 C757.789358,287.598372 725.622447,282 725.622447,282 Z" id="形状" fill="#000000" fill-rule="nonzero"></path>
                <path d="M799.036152,319.835859 L831.752026,319.386364 C831.752026,319.386364 837.093393,321.633838 836.64828,328.151515 C836.203166,334.669192 831.306912,334.669192 827.746001,335.343434 L799.92638,333.770202 L799.258709,368.606061 C799.258709,368.606061 797.700811,374 789.466203,374 C781.231595,374 781.899266,373.325758 781.899266,373.325758 C781.899266,373.325758 774.332329,377.820707 775.445114,357.143939 C776.557899,336.242424 775,298.934343 775,298.934343 C775,298.934343 777.670684,285.224747 793.694785,285 L837.538507,286.123737 C837.538507,286.123737 841.76709,289.494949 840.876862,294.439394 C840.209191,299.383838 837.983621,301.181818 833.087368,301.181818 C828.191115,301.181818 804.154963,300.507576 804.154963,300.507576 C804.154963,300.507576 798.591038,298.260101 798.145924,306.126263 C797.923367,313.767677 799.036152,319.835859 799.036152,319.835859 Z" id="路径" fill="#000000" fill-rule="nonzero"></path>
                <path d="M912.15842,300.307307 C912.15842,300.307307 917.062305,303.683729 918.176825,298.506548 C918.176825,298.506548 921.074576,296.2556 923.749423,293.554463 C926.424269,290.853325 924.19523,288.602377 919.960056,285.901239 C915.947786,283.200102 882.066393,279.37349 870.029582,290.403135 C857.992771,301.432781 850.859846,304.133918 849.076615,331.820578 C847.293384,359.507239 877.162507,370.761979 884.072528,371.212168 C890.759645,371.662358 906.585822,373.463116 921.29748,369.41141 C921.29748,369.41141 929.544924,367.160462 924.19523,361.533092 C918.845537,355.905722 915.05617,353.429679 910.152285,356.355911 C905.248399,359.282144 876.939603,361.983281 875.156372,341.499655 C873.373141,321.016028 876.047987,310.886762 876.047987,310.886762 C876.047987,310.886762 877.385411,295.355221 912.15842,300.307307 Z" id="路径" fill="#000000" fill-rule="nonzero"></path>
                <path d="M955.379801,307.752511 C955.379801,307.752511 957.629236,297.227571 968.651464,296.779702 C979.673692,296.331832 990.246033,296.779702 992.945354,307.752511 L992.270524,345.821439 C992.270524,345.821439 990.021089,358.361792 978.998861,358.361792 C967.976633,358.361792 955.604745,358.809662 955.604745,341.342742 L955.604745,307.752511 L955.379801,307.752511 Z M984.622447,282 L964.602482,282 C923.437834,287.374437 929.286363,341.118807 929.286363,341.118807 C940.308592,384.786107 989.571203,370.902145 989.571203,370.902145 C1028.26147,360.601141 1019.03879,320.740733 1019.03879,320.740733 C1016.78936,287.598372 984.622447,282 984.622447,282 Z" id="形状" fill="#000000" fill-rule="nonzero"></path>
                <path d="M1006.36806,430.426045 C1005.2496,429.764396 1004.35484,429.764396 1003.68377,430.646595 L1004.35484,433.293189 C1007.48652,435.498685 1010.17081,437.704181 1012.40772,439.909676 L1015.09201,440.350775 L1015.31571,437.483631 C1013.30249,435.498685 1010.3945,433.07264 1006.36806,430.426045 L1006.36806,430.426045 Z" id="路径" fill="#AA912E" fill-rule="nonzero"></path>
                <path d="M1001.22316,442.556271 L1016.21047,442.556271 C1017.32893,442.556271 1017.77631,443.21792 1017.77631,444.541217 C1017.77631,445.864514 1017.32893,446.526163 1016.21047,446.526163 L1001.67054,446.526163 C1002.11793,448.952208 1003.01269,452.260451 1004.13115,456.230343 L1004.57853,457.333091 C1006.14437,454.686497 1007.48652,451.819352 1008.82866,448.731658 L1011.28926,447.84946 C1012.40772,448.290559 1012.63141,449.172758 1012.18403,450.496055 C1011.06557,454.245397 1009.05235,457.99474 1006.14437,461.744082 C1009.05235,467.037272 1011.28926,469.904416 1012.63141,470.124966 C1013.52618,470.124966 1014.19725,467.69892 1014.42094,462.626281 C1014.64463,461.523533 1015.31571,460.861884 1016.43416,461.082434 C1017.55262,461.523533 1018,462.185182 1018,463.508479 C1017.55262,470.786614 1015.98678,474.535957 1013.30249,474.756506 C1010.17081,474.315407 1007.03913,471.007164 1003.46007,464.611227 C999.657324,467.91947 995.407192,470.345515 991.15706,472.109912 C990.038604,472.551011 989.143839,472.330461 988.472766,471.227713 C987.801692,470.124966 988.025383,469.463317 989.36753,468.801668 C994.95981,466.155074 999.209942,463.508479 1001.89424,460.861884 L1001.44685,459.759136 C999.881015,454.907046 998.762559,450.275505 998.091486,446.305613 L985.788472,446.305613 L985.788472,454.686497 L987.801692,454.024848 C990.709677,453.363199 992.946589,452.701551 994.288736,452.260451 C995.407192,452.039902 996.301957,452.481001 996.749339,453.583749 C996.97303,454.686497 996.301957,455.568695 995.183501,456.009794 C992.051824,457.112542 988.920148,457.99474 985.788472,458.656389 L985.788472,469.904416 C985.564781,472.330461 984.446325,473.874308 981.985722,474.315407 C979.525119,474.756506 976.617134,474.094858 973.038075,472.330461 L972.367002,469.904416 L974.827604,469.242767 C979.077737,471.007164 981.314648,471.007164 981.762031,469.683866 L981.762031,459.097488 C978.854045,459.759136 975.722369,460.200235 972.590693,460.420785 C971.248546,460.420785 970.577472,459.759136 970.13009,458.656389 C970.13009,457.553641 970.801163,456.671443 972.14331,456.450893 C975.722369,456.230343 978.854045,455.789244 981.762031,455.127596 L981.762031,446.085064 L971.919619,446.085064 C970.801163,446.085064 970.353781,445.423415 970.353781,444.100118 C970.353781,442.77682 970.801163,442.115172 971.919619,442.115172 L981.762031,442.115172 L981.762031,435.278135 C981.090957,435.278135 980.196192,435.498685 978.854045,435.719235 C976.169751,436.160334 974.380222,436.160334 973.038075,436.160334 L971.248546,434.616487 C971.248546,433.513739 971.695928,432.85209 972.814384,432.631541 C979.077737,432.190442 985.564781,431.087694 991.604442,429.102748 L993.841354,430.205496 C994.065045,431.308243 993.841354,432.190442 992.946589,432.631541 C990.485986,433.513739 988.249075,434.175388 985.788472,434.616487 L985.788472,442.335721 L997.644104,442.335721 C997.644104,441.674073 997.644104,440.791874 997.420412,439.468577 C996.97303,435.498685 996.749339,432.190442 996.749339,429.764396 C996.97303,428.661649 997.644104,428 998.762559,428 C999.881015,428.22055 1000.55209,428.882198 1000.77578,429.984946 C1000.3284,434.837036 1000.77578,439.027478 1001.22316,442.556271 L1001.22316,442.556271 Z" id="路径" fill="#AA912E" fill-rule="nonzero"></path>
                <path d="M961.182443,469.683866 C961.629825,470.786614 962.52459,471.227713 963.643046,471.007164 C964.761502,470.566065 965.208884,469.683866 964.985193,468.360569 C962.971973,458.876938 960.735061,451.598803 958.274458,446.746712 C957.603384,445.643965 956.70862,445.202866 955.590164,445.643965 C954.471708,446.305613 954.024326,447.187812 954.695399,448.511109 C957.379693,454.907046 959.616605,461.964632 961.182443,469.683866 L961.182443,469.683866 Z" id="路径" fill="#AA912E" fill-rule="nonzero"></path>
                <path d="M938.142253,447.187812 C937.247488,453.363199 935.234268,460.200235 931.8789,467.69892 C931.431518,469.022218 931.655209,470.124966 932.773665,470.786614 C934.115812,471.227713 935.010576,471.007164 935.68165,469.904416 C939.037017,462.84683 941.273929,455.568695 942.168694,448.290559 C942.392385,446.967262 941.721311,445.864514 940.602856,445.643965 C939.260709,445.202866 938.365944,445.864514 938.142253,447.187812 L938.142253,447.187812 Z" id="路径" fill="#AA912E" fill-rule="nonzero"></path>
                <path d="M926.286621,441.232973 C927.181386,437.483631 927.628768,434.395937 927.852459,431.749342 C927.852459,430.426045 927.181386,429.543847 926.06293,429.323297 C924.720783,429.323297 923.826018,429.984946 923.602327,431.087694 C923.154944,439.027478 921.141724,445.864514 917.338974,451.819352 C916.667901,452.9221 916.667901,454.024848 917.562665,454.907046 L920.246959,454.465947 C920.918033,453.583749 921.589106,452.481001 922.26018,450.937154 L922.26018,473.874308 C922.26018,474.977056 922.931253,475.418155 924.2734,475.638705 C925.615547,475.418155 926.286621,474.977056 926.286621,473.874308 L926.286621,441.232973 L926.286621,441.232973 Z" id="路径" fill="#AA912E" fill-rule="nonzero"></path>
                <path d="M939.708091,435.498685 L961.629825,435.498685 C964.31412,435.719235 965.879958,436.821982 966.103649,439.468577 C965.879958,442.556271 965.208884,444.982316 964.090428,447.187812 C963.419355,448.290559 962.52459,448.511109 961.182443,448.07001 C960.063987,447.408361 959.840296,446.526163 960.287678,445.202866 C960.958752,444.100118 961.406134,442.556271 961.406134,440.791874 C961.629825,439.689127 961.182443,439.027478 960.287678,439.248027 L950.892649,439.248027 L950.892649,471.227713 C950.892649,473.653759 950.221576,475.197605 948.432047,475.638705 C946.866208,476.300353 943.734532,476.079804 939.260709,474.756506 C938.142253,474.315407 937.69487,473.433209 937.918562,472.109912 C938.365944,470.786614 939.260709,470.345515 940.602856,470.566065 C943.28715,471.227713 945.076679,471.668813 945.747753,471.448263 L946.642517,470.124966 L946.642517,439.248027 L938.589635,439.248027 C937.023797,443.21792 934.786885,446.967262 931.8789,450.716604 L928.970915,451.157704 C928.07615,450.275505 928.07615,449.172758 928.970915,448.07001 C932.326282,443.438469 935.010576,437.704181 937.023797,430.646595 C937.471179,429.543847 938.142253,428.882198 939.4844,429.102748 C940.602856,429.543847 941.273929,430.205496 941.050238,431.528793 L940.379164,434.175388 L939.708091,435.498685 L939.708091,435.498685 Z" id="路径" fill="#AA912E" fill-rule="nonzero"></path>
                <path d="M890.496034,463.06738 C890.496034,462.185182 889.82496,461.744082 888.482813,461.744082 C887.140666,461.964632 886.469593,462.405731 886.469593,463.06738 L886.469593,464.831776 L871.482285,464.831776 C869.469064,465.934524 869.469064,467.257821 871.482285,468.581119 L886.469593,468.581119 L886.469593,471.007164 L867.008461,471.007164 C866.113696,471.007164 865.666314,471.668813 865.666314,472.99211 C865.666314,474.315407 866.113696,474.977056 867.008461,474.977056 L910.85193,474.977056 C912.64146,473.653759 912.64146,472.330461 910.85193,471.007164 L890.496034,471.007164 L890.496034,468.581119 L905.707033,468.581119 C906.601798,468.581119 907.04918,467.91947 907.272871,466.816722 C907.272871,465.713974 906.825489,465.052326 905.930724,464.831776 L890.496034,464.831776 L890.496034,463.06738 L890.496034,463.06738 Z" id="路径" fill="#AA912E" fill-rule="nonzero"></path>
                <path d="M910.85193,434.175388 L910.85193,452.481001 C911.299313,461.302983 907.272871,464.170128 899.219989,461.302983 L898.101534,459.097488 C898.548916,457.99474 899.443681,457.553641 900.562136,457.77419 C905.259651,459.538587 907.272871,458.435839 907.04918,454.465947 L907.04918,452.039902 L896.535695,452.039902 C894.522475,456.671443 891.167107,459.979686 886.469593,462.185182 L883.785299,461.302983 C883.337916,460.200235 883.561608,459.318037 884.456372,458.656389 C890.272343,455.789244 893.404019,451.378253 893.851401,445.643965 L893.851401,433.513739 C893.62771,431.528793 894.746166,430.426045 896.983078,430.426045 L907.943945,430.426045 C909.957166,430.205496 910.85193,431.528793 910.85193,434.175388 Z M907.272871,442.77682 L897.206769,442.77682 L897.206769,448.07001 L907.272871,448.07001 L907.272871,442.77682 Z M907.496563,436.380883 C907.496563,434.837036 906.825489,433.954838 905.259651,434.175388 L899.443681,434.175388 C897.877842,434.175388 896.983078,434.837036 897.206769,436.160334 L897.43046,436.160334 L897.43046,439.027478 L907.496563,439.027478 Z" id="形状结合" fill="#AA912E" fill-rule="nonzero"></path>
                <path d="M885.574828,435.057586 L890.496034,435.057586 C891.390799,435.057586 891.838181,435.719235 891.838181,437.042532 C891.838181,438.14528 891.390799,438.806928 890.496034,439.027478 L880.653622,439.027478 L880.653622,449.393307 L883.337916,449.393307 C884.680063,449.613857 885.351137,448.952208 885.351137,447.628911 L885.351137,442.77682 C885.351137,441.894622 886.02221,441.232973 887.140666,441.232973 L888.930196,442.556271 L888.930196,450.275505 C888.930196,452.481001 887.81174,453.583749 885.798519,453.583749 L880.653622,453.583749 C878.640402,458.876938 874.39027,462.405731 868.126917,463.949578 C867.008461,464.170128 866.113696,463.729028 865.442623,462.626281 C865.218932,461.082434 865.666314,460.420785 866.78477,459.979686 C871.705976,459.097488 874.837652,456.891992 876.179799,453.583749 L870.58752,453.583749 C868.350608,453.583749 867.232152,452.9221 867.232152,451.378253 L867.232152,442.77682 C868.574299,441.012424 869.692755,441.012424 871.034902,442.77682 L871.034902,447.628911 C870.811211,448.952208 871.482285,449.613857 873.048123,449.393307 L876.850873,449.393307 L876.850873,439.027478 L866.561079,439.027478 C865.666314,438.806928 865.218932,438.14528 865.218932,437.042532 C865.442623,435.719235 865.890005,435.057586 866.78477,435.057586 L872.824432,435.057586 L871.929667,433.07264 L871.034902,431.528793 L871.929667,429.102748 L874.613961,429.984946 C875.508726,431.749342 876.40349,433.293189 877.074564,435.057586 L881.772078,435.057586 C882.666843,433.734289 883.337916,431.969892 884.232681,429.764396 C884.680063,428.882198 885.351137,428.661649 886.693284,429.102748 L887.588049,431.308243 C887.364357,432.190442 886.916975,433.293189 886.469593,434.395937 L885.574828,435.057586 L885.574828,435.057586 Z" id="路径" fill="#AA912E" fill-rule="nonzero"></path>
                <path d="M853.810682,429.543847 L855.600212,430.867144 L854.705447,432.85209 C850.231623,433.513739 844.863035,433.954838 838.1523,434.175388 L838.1523,437.483631 L858.955579,437.483631 C859.850344,437.483631 860.297726,438.14528 860.297726,439.248027 L858.731888,440.791874 L838.1523,440.791874 L838.1523,443.659019 L852.692226,443.659019 C855.152829,443.659019 856.494976,444.982316 856.271285,447.628911 L856.271285,457.77419 C856.494976,460.200235 855.600212,461.302983 853.586991,461.082434 L838.375992,461.082434 L838.375992,464.170128 L856.494976,464.170128 C857.613432,464.170128 858.060814,464.831776 858.284506,465.934524 C858.060814,467.037272 857.613432,467.69892 856.494976,467.69892 L838.375992,467.69892 L838.375992,470.345515 L858.731888,470.345515 C859.850344,470.345515 860.297726,471.007164 860.297726,472.109912 C860.297726,473.212659 859.850344,473.874308 858.731888,473.874308 L814.217345,473.874308 C812.875198,473.874308 812.204125,473.212659 812.204125,472.109912 C812.427816,471.007164 813.098889,470.345515 814.217345,470.345515 L834.573242,470.345515 L834.573242,467.69892 L816.454257,467.69892 C815.335801,467.478371 814.664728,467.037272 814.664728,465.934524 C814.888419,464.831776 815.559492,464.170128 816.677948,464.170128 L834.573242,464.170128 L834.573242,461.082434 L820.480698,461.082434 C817.572713,461.302983 816.230566,459.979686 816.454257,457.112542 L816.454257,446.967262 C816.454257,444.761766 817.572713,443.659019 820.033316,443.659019 L834.573242,443.659019 L834.573242,440.791874 L813.322581,440.791874 C812.427816,440.791874 811.980434,440.130226 811.980434,439.027478 L813.322581,437.483631 L834.349551,437.483631 L834.349551,434.395937 C832.866125,434.500408 830.930979,434.555393 828.496565,434.560891 L827.666536,434.560891 C825.120586,434.555393 822.070083,434.500408 818.467478,434.395937 L818.020095,434.395937 C817.349022,434.395937 816.901639,433.734289 816.677948,432.631541 L818.020095,431.087694 C824.283448,431.087694 830.994183,431.087694 837.481227,430.867144 C843.968271,430.646595 849.336859,430.205496 853.810682,429.543847 Z M852.468535,454.245397 L838.1523,454.245397 L838.1523,458.215289 L851.126388,458.215289 C852.244844,458.435839 852.468535,457.77419 852.468535,456.671443 L852.468535,454.245397 Z M834.573242,454.245397 L820.257007,454.245397 L820.257007,457.112542 L821.375463,458.215289 L834.573242,458.215289 L834.573242,454.245397 Z M851.57377,447.187812 L838.1523,447.187812 L838.1523,451.157704 L852.468535,451.157704 L852.468535,448.511109 L851.57377,447.187812 Z M834.573242,447.187812 L821.375463,447.187812 L820.257007,448.290559 L820.257007,451.157704 L834.573242,451.157704 L834.573242,447.187812 Z" id="形状结合" fill="#AA912E" fill-rule="nonzero"></path>
                <path d="M754.044421,443.659019 C752.925965,442.77682 751.807509,442.77682 750.912745,443.659019 L751.360127,446.526163 C752.702274,447.628911 754.044421,448.731658 754.939186,449.393307 L756.505024,450.496055 C757.62348,451.598803 758.741935,451.598803 759.6367,450.716604 L758.965627,447.628911 C757.176097,446.085064 755.610259,444.761766 754.044421,443.659019 L754.044421,443.659019 Z" id="路径" fill="#AA912E" fill-rule="nonzero"></path>
                <path d="M756.505024,456.230343 C755.162877,460.641335 753.149656,464.831776 750.465362,469.242767 L750.912745,472.109912 C752.0312,472.77156 753.149656,472.551011 753.82073,471.227713 C756.952406,467.257821 758.965627,462.405731 760.307774,456.671443 C760.531465,455.348145 760.084082,454.465947 758.965627,454.024848 C757.847171,454.465947 756.952406,454.907046 756.505024,456.230343 L756.505024,456.230343 Z" id="路径" fill="#AA912E" fill-rule="nonzero"></path>
                <path d="M754.939186,430.426045 C753.597039,429.543847 752.254892,429.764396 751.360127,430.646595 C750.689053,431.528793 750.912745,432.631541 752.254892,433.513739 C754.044421,434.616487 755.83395,436.160334 758.070862,437.92473 L760.755156,437.92473 L760.307774,434.837036 C758.294553,432.85209 756.505024,431.308243 754.939186,430.426045 L754.939186,430.426045 Z" id="路径" fill="#AA912E" fill-rule="nonzero"></path>
                <path d="M791.177155,461.964632 L788.492861,461.744082 L788.26917,464.390677 C790.506081,467.037272 792.07192,469.463317 793.414067,471.668813 C794.308831,472.77156 795.203596,473.212659 796.098361,472.77156 C796.993125,472.330461 797.216816,471.448263 796.769434,470.124966 C795.650978,467.69892 793.637758,464.831776 791.177155,461.964632 L791.177155,461.964632 Z" id="路径" fill="#AA912E" fill-rule="nonzero"></path>
                <path d="M773.281861,462.405731 C771.04495,465.493425 768.808038,467.91947 766.347435,469.904416 L765.900053,472.551011 L768.584347,472.77156 C771.04495,471.227713 773.505553,468.801668 776.413538,464.831776 L776.189847,462.185182 L773.281861,462.405731 L773.281861,462.405731 Z" id="路径" fill="#AA912E" fill-rule="nonzero"></path>
                <path d="M765.900053,430.426045 L794.979905,430.426045 C796.769434,431.528793 796.769434,432.85209 794.979905,433.954838 L783.571655,433.954838 L784.019038,436.380883 L783.795346,437.042532 L783.347964,437.92473 L791.177155,437.92473 C793.414067,437.704181 794.532522,439.027478 794.308831,441.674073 L794.308831,453.363199 C794.308831,456.891992 793.414067,458.656389 791.400846,458.435839 L784.242729,458.435839 L784.242077,470.563493 C784.238164,472.195431 784.210773,473.086631 784.019038,473.653759 L782.676891,475.197605 C781.782126,475.638705 780.439979,475.638705 778.874141,475.638705 C777.531994,475.638705 776.189847,475.418155 775.071391,474.977056 L774.176626,472.77156 C774.400317,471.668813 775.071391,471.007164 775.742464,471.227713 C777.755685,471.889362 779.097832,472.109912 780.216288,471.668813 C780.887361,471.448263 781.111052,470.786614 781.111052,469.242767 L781.111052,458.435839 L773.05817,458.435839 C770.597567,458.656389 769.702803,457.553641 769.926494,454.907046 L769.926494,441.894622 C769.926494,439.248027 770.821259,437.92473 772.834479,437.92473 L779.097832,437.92473 C779.768905,437.042532 780.216288,436.160334 780.66367,435.057586 L781.334744,434.175388 L768.360656,434.175388 C767.018509,434.175388 766.347435,434.837036 766.347435,436.160334 L766.347435,456.450893 C766.347435,461.964632 764.781597,467.037272 761.873612,471.889362 C760.978847,473.212659 760.084082,473.653759 758.965627,473.212659 C757.847171,472.77156 757.62348,471.889362 758.070862,470.566065 C761.42623,465.052326 763.215759,460.200235 762.992068,456.230343 L762.992068,434.175388 C762.544685,431.528793 763.43945,430.205496 765.900053,430.426045 Z M791.177155,449.393307 L772.834479,449.393307 L772.834479,453.14265 C772.610788,454.465947 773.05817,455.127596 773.952935,454.907046 L790.28239,454.907046 C790.953464,455.127596 791.177155,454.465947 791.177155,453.14265 L791.177155,449.393307 Z M773.729244,441.232973 C773.05817,441.012424 772.610788,441.674073 772.610788,442.77682 L772.610788,445.864514 L790.953464,445.864514 L790.953464,442.77682 L789.835008,441.232973 Z" id="形状结合" fill="#AA912E" fill-rule="nonzero"></path>
                <path d="M726.754098,470.345515 C718.253834,470.566065 712.437864,469.022218 709.306187,465.934524 C724.740878,462.185182 735.701745,453.804298 741.965098,440.791874 C742.859863,437.483631 741.741407,435.719235 738.162348,435.498685 L722.727657,435.498685 C722.056584,434.175388 720.938128,432.190442 719.595981,429.543847 C718.701216,428.441099 717.58276,428 716.240613,428.661649 C715.122158,429.543847 714.898466,430.426045 715.56954,431.749342 C716.016922,432.410991 716.911687,433.734289 717.806452,435.498685 L699.687467,435.498685 C698.34532,435.719235 697.674246,436.380883 697.674246,437.704181 C697.674246,439.027478 698.34532,439.689127 699.687467,439.909676 L735.925436,439.909676 L737.043892,440.350775 L736.59651,441.894622 C731.227922,452.039902 720.714437,459.097488 705.503437,462.84683 C703.266526,463.06738 701.700687,463.949578 700.582232,465.934524 L699.687467,467.69892 C698.792702,469.242767 697.897938,470.566065 697.226864,471.448263 C696.555791,472.77156 696.779482,473.874308 698.121629,474.535957 C699.463776,474.977056 700.582232,474.535957 701.253305,473.433209 C702.819143,471.007164 703.937599,469.463317 704.16129,469.022218 L705.95082,469.022218 C709.529878,473.212659 717.58276,475.197605 730.333157,474.977056 L743.754627,474.977056 C744.873083,474.756506 745.320465,474.094858 745.320465,472.77156 C745.320465,471.448263 744.873083,470.786614 743.754627,470.566065 L726.754098,470.566065 L726.754098,470.345515 Z" id="路径" fill="#AA912E" fill-rule="nonzero"></path>
                <path d="M663.89688,463.287929 C663.449498,461.964632 662.554733,461.302983 661.436277,461.523533 C660.09413,461.964632 659.646748,462.84683 659.870439,463.949578 C661.212586,467.91947 661.883659,471.227713 662.107351,473.874308 C662.331042,475.197605 663.225806,475.859254 664.567953,475.638705 C665.686409,475.197605 666.357483,474.315407 666.133792,472.99211 C665.462718,469.022218 664.791645,465.713974 663.89688,463.287929 L663.89688,463.287929 Z" id="路径" fill="#AA912E" fill-rule="nonzero"></path>
                <path d="M675.528821,462.84683 C675.081438,461.523533 674.186674,461.082434 672.844527,461.302983 C671.50238,461.744082 671.054997,462.626281 671.726071,463.949578 C673.068218,467.69892 674.186674,471.007164 674.857747,473.874308 C675.081438,475.197605 675.976203,475.638705 677.31835,475.418155 C678.436806,474.977056 678.884188,474.094858 678.660497,472.77156 C677.989424,470.345515 676.870968,467.037272 675.528821,462.84683 L675.528821,462.84683 Z" id="路径" fill="#AA912E" fill-rule="nonzero"></path>
                <path d="M654.501851,464.611227 C654.725542,463.287929 654.27816,462.405731 653.383395,461.964632 C652.264939,461.744082 651.370175,462.185182 650.922792,463.287929 C649.580645,467.037272 647.791116,470.124966 645.330513,472.77156 C644.435748,473.874308 644.659439,474.977056 645.554204,475.638705 L648.462189,474.756506 C651.146483,471.448263 653.159704,468.14002 654.501851,464.611227 L654.501851,464.611227 Z" id="路径" fill="#AA912E" fill-rule="nonzero"></path>
                <path d="M685.371232,461.523533 L682.686938,460.641335 L682.015865,463.287929 C683.13432,465.052326 684.476467,467.478371 686.042306,470.124966 C686.713379,471.448263 687.160762,472.551011 687.608144,473.212659 C688.279217,474.315407 689.173982,474.756506 690.292438,474.535957 C691.410894,473.874308 691.858276,472.99211 691.410894,471.668813 C688.950291,467.037272 686.93707,463.729028 685.371232,461.523533 L685.371232,461.523533 Z" id="路径" fill="#AA912E" fill-rule="nonzero"></path>
                <path d="M683.358012,431.087694 L680.897409,431.087694 L681.1211,433.513739 C683.581703,435.278135 685.594923,437.042532 686.93707,438.806928 L689.397673,438.806928 L689.173982,436.380883 C686.93707,433.954838 684.92385,432.190442 683.358012,431.087694 L683.358012,431.087694 Z" id="路径" fill="#AA912E" fill-rule="nonzero"></path>
                <path d="M677.542041,428.22055 C678.660497,428.441099 679.331571,429.102748 679.331571,430.426045 L678.884188,430.426045 L678.884188,440.130226 L690.068747,440.130226 C691.187203,440.130226 691.634585,440.791874 691.858276,441.894622 C691.634585,442.99737 691.187203,443.659019 690.068747,443.659019 L679.331571,443.659019 C680.450026,448.952208 684.252776,454.024848 690.963511,458.656389 C692.305658,459.538587 692.52935,460.420785 691.858276,461.523533 C691.187203,462.405731 690.292438,462.626281 688.7266,461.744082 C683.581703,458.435839 679.778953,453.583749 677.31835,446.967262 C675.081438,452.481001 671.054997,457.112542 664.791645,460.641335 C663.449498,461.302983 662.554733,461.302983 661.659968,460.200235 C660.988895,459.097488 661.212586,458.215289 662.554733,457.333091 C669.265468,453.804298 673.5156,449.172758 675.081438,443.438469 L667.923321,443.438469 C665.015336,452.701551 658.08091,458.876938 646.896351,461.744082 C645.330513,461.964632 644.212057,461.744082 643.764675,460.861884 C643.317292,459.538587 643.988366,458.656389 645.330513,458.215289 C649.580645,457.112542 653.159704,455.568695 656.29138,453.583749 C654.27816,451.598803 651.817557,449.613857 648.68588,447.84946 L646.896351,449.613857 C645.777895,450.496055 644.659439,450.716604 643.764675,449.834406 C643.093601,448.952208 643.317292,447.84946 644.435748,446.967262 C649.356954,442.99737 651.817557,437.704181 652.264939,430.646595 C652.48863,429.102748 653.159704,428.441099 654.501851,428.22055 C655.620307,428.661649 656.29138,429.543847 656.29138,430.867144 L656.29138,431.749342 L665.462718,431.749342 C668.147012,431.528793 669.489159,432.85209 669.265468,435.278135 L669.265468,437.92473 L668.818086,439.909676 L675.528821,439.909676 L675.528821,430.426045 C675.528821,429.102748 676.199894,428.441099 677.542041,428.22055 Z M653.607086,441.012424 C653.159704,441.894622 652.712322,442.99737 651.817557,444.320667 L651.146483,445.202866 C654.27816,446.967262 656.962454,448.952208 659.199365,451.157704 C660.541512,449.834406 661.883659,448.290559 662.554733,446.746712 C660.541512,444.761766 657.409836,442.77682 653.607086,441.012424 Z M664.120571,435.278135 L655.620307,435.278135 C655.172924,436.601433 655.172924,437.263081 654.949233,437.704181 C657.409836,438.806928 660.541512,440.350775 663.89688,442.77682 C664.567953,441.453523 664.791645,439.248027 665.015336,436.601433 L664.120571,435.498685 L664.120571,435.278135 Z" id="形状结合" fill="#AA912E" fill-rule="nonzero"></path>
                <path d="M613.342676,430.867144 C613.790058,429.543847 614.684823,429.102748 616.02697,429.323297 C617.145426,429.764396 617.592808,430.646595 617.145426,431.969892 L615.803279,434.837036 L615.803279,435.057586 L631.46166,435.057586 C634.817028,435.057586 636.606557,436.380883 636.606557,439.468577 L636.606557,469.683866 C636.606557,472.77156 635.26441,474.315407 632.132734,474.094858 L599.473823,474.094858 C596.565838,473.874308 595.223691,472.77156 595,470.345515 L595,439.468577 C595.447382,436.821982 596.789529,435.278135 599.473823,435.057586 L611.553146,435.057586 C612.22422,433.954838 612.895293,432.631541 613.342676,430.867144 Z M632.580116,461.302983 L599.026441,461.302983 L599.026441,467.91947 C598.80275,469.242767 599.473823,469.904416 600.81597,469.904416 L630.790587,469.904416 C632.132734,469.904416 632.803808,469.242767 632.580116,468.14002 L632.580116,461.302983 Z M632.580116,450.054956 L599.026441,450.054956 L599.026441,457.553641 L632.580116,457.553641 L632.580116,450.054956 Z M601.710735,438.586379 C599.697515,438.365829 598.80275,439.027478 599.026441,440.350775 L599.026441,446.085064 L632.580116,446.085064 L632.580116,441.674073 C632.803808,439.689127 631.909043,438.586379 629.895822,438.586379 Z" id="形状结合" fill="#AA912E" fill-rule="nonzero"></path>
                <path d="M11.0611197,303.642626 C0.0799867674,311.722955 10.3888055,323.39454 10.3888055,323.39454 L10.3888055,323.39454 L167.038029,476.022963 C177.346847,484.103292 194.154704,477.369685 194.154704,477.369685 L194.154704,477.369685 L394.728459,423.051922 C417.138935,418.113944 399.210554,400.382112 399.210554,400.382112 L399.210554,400.382112 L237.855131,239 L11.0611197,303.642626 Z" id="路径" fill="url(#linearGradient-2)"></path>
                <path d="M181.159021,232 L180.261978,232 C171.740061,232 162.321101,232.451528 151.780836,233.354585 L151.780836,233.354585 C77.7747197,239.450215 17,298.600411 17,298.600411 C52.8817533,311.694729 74.6350663,307.856739 134.288481,298.148883 L134.288481,298.148883 C193.941896,288.441026 237,239.67598 237,239.67598 L237,239.67598 C237,239.67598 220.62895,232 181.159021,232 Z" id="路径" fill="url(#linearGradient-3)"></path>
                <path d="M275.162726,316.43454 C316.998609,377.047354 398,400 398,400 L398,400 C391.324061,362.562674 377.30459,345.849582 339.029207,299.498607 L339.029207,299.498607 C300.976356,252.924791 238,240 238,240 C238,240 240.447844,266.518106 275.162726,316.43454 L275.162726,316.43454 Z" id="路径" fill="url(#linearGradient-4)"></path>
            </g>
        </g>
    </g>
</svg>