<?xml version="1.0" encoding="UTF-8"?>
<svg width="1024px" height="577px" viewBox="0 0 1024 577" version="1.1" xmlns="http://www.w3.org/2000/svg" xmlns:xlink="http://www.w3.org/1999/xlink">
    <title>华润集团有限公司@2x</title>
    <defs>
        <polygon id="path-1" points="0 0 185 0 185 293 0 293"></polygon>
        <polygon id="path-3" points="0 0 68 0 68 72 0 72"></polygon>
        <polygon id="path-5" points="1 577 1024 577 1024 0 1 0"></polygon>
    </defs>
    <g id="页面-1" stroke="none" stroke-width="1" fill="none" fill-rule="evenodd">
        <g id="50.华润集团有限公司" transform="translate(0.000000, -95.000000)">
            <g id="华润集团有限公司" transform="translate(0.000000, 95.000000)">
                <path d="M225.940739,438 L131.276141,438 L178.595732,355.974336 L225.940739,438 Z M417.823549,438 L323.117088,438 L370.490502,355.974336 L417.823549,438 Z M1,0 L439,0 L439,246.199597 L386.324998,154.999498 C382.907223,149.12493 376.765394,145.826559 370.409767,145.853472 C364.134876,145.866929 358.033414,149.151843 354.654511,154.999498 L286.158469,273.627208 C281.112541,282.385982 284.116177,293.562465 292.848996,298.623655 C301.607232,303.696806 312.809939,300.706443 317.843906,291.934212 L370.490502,200.772988 L423.137098,291.934212 C426.502545,297.781867 432.656334,301.080238 439,301.080238 L439,401.399449 L386.324998,310.226264 C382.907223,304.324782 376.765394,301.066781 370.409767,301.066781 C364.134876,301.080238 358.033414,304.392065 354.654511,310.226264 L286.158469,428.853974 C284.476493,431.738179 283.702037,434.861614 283.702037,438 L265.382702,438 C265.382702,434.861614 264.608246,431.738179 262.92627,428.853974 L194.443683,310.226264 C191.039364,304.324782 184.870624,301.066781 178.540414,301.066781 C172.240105,301.080238 166.123693,304.392065 162.773197,310.226264 L94.2906106,428.853974 C92.5951788,431.738179 91.8192273,434.861614 91.8192273,438 L1,438 L1,0 Z M178.595732,200.772988 L231.255783,291.934212 C236.288255,300.706443 247.492458,303.696806 256.249199,298.623655 C264.968562,293.562465 267.987148,282.385982 262.92627,273.627208 L194.443683,154.999498 C191.039364,149.12493 184.870624,145.826559 178.540414,145.853309 C172.240105,145.866929 166.123693,149.151843 162.773197,154.999498 L94.2906106,273.627208 C89.2297318,282.385982 92.2214064,293.562465 100.966186,298.623655 C109.725917,303.696806 120.915169,300.706443 125.961097,291.934212 L178.595732,200.772988 Z" id="Fill-1" fill="#FAC541"></path>
                <path d="M668.051477,319.15545 C664.948469,325.370018 663.390255,330.024224 658.742453,327.688909 C654.096142,325.356579 653.696524,328.090571 656.799532,317.995258 C659.901049,307.899945 659.395561,314.114513 665.720866,313.341051 C672.059592,312.56759 671.141065,312.940882 668.051477,319.15545 M640.525514,240.359447 C642.590707,230.025227 641.299402,231.825988 647.503927,221.343944 C653.882913,214.423108 659.570021,208.92974 659.570021,217.463199 C659.570021,226.011589 660.834486,248.534545 651.538882,248.534545 C642.231349,248.534545 639.35499,246.187284 640.525514,240.359447 M619.205567,263.428903 C614.305767,268.083109 619.205567,263.428903 616.11747,266.74971 L611.456248,269.856994 C613.440921,261.749088 604.371966,258.934465 617.222386,258.162497 C621.603278,257.89522 624.120279,258.762751 619.205567,263.428903 M618.048463,290.431365 C614.598025,294.138902 607.580843,296.645932 607.580843,296.645932 C604.864033,292.765187 609.139057,288.872496 609.139057,288.872496 C613.746599,288.872496 617.302906,285.003696 620.004804,286.552112 C622.694774,288.099035 622.029737,286.138505 618.048463,290.431365 M595.56992,230.652358 C589.603974,220.864637 604.477835,217.463199 604.477835,217.463199 C604.477835,217.463199 617.689104,210.863393 620.004804,214.357408 C622.308575,217.84993 614.171567,220.183752 611.842447,226.011589 C610.257393,229.958034 609.511836,231.825988 609.511836,231.825988 C601.374827,232.597956 598.992027,236.292056 595.56992,230.652358 M764.170172,263.255695 C767.659379,258.601488 759.52237,252.773651 751.371941,249.28113 C743.236424,245.787115 729.867096,249.867945 722.302675,249.867945 C714.751674,249.867945 692.073323,262.682318 679.290003,268.495224 C666.493263,274.324554 669.394971,263.84251 669.98247,259.188304 C670.566986,254.520658 701.382347,241.719724 707.188745,239.385901 C713.007071,237.065517 726.963897,229.492166 713.579659,221.343944 C700.210331,213.197216 709.133157,188.834676 704.870062,173.604356 C698.665537,151.483063 683.884125,174.939249 677.493211,181.927278 C671.087385,188.913814 653.070256,186.273892 656.411842,180.686455 C660.861326,173.219119 686.322096,157.803645 691.688615,145.268495 C697.055134,132.70796 679.290003,142.161211 679.862591,136.334867 C680.448598,130.520468 693.245338,120.292263 704.870062,111.558719 C716.496278,102.823683 721.730088,89.1820937 714.167158,79.861735 C706.614666,70.5533216 695.562529,76.9545356 692.073323,79.861735 C688.585607,82.7823729 681.034606,78.1281662 675.21628,83.3557496 C669.394971,88.5952784 615.331653,156.137269 607.194645,166.61782 C599.057636,177.098371 595.170302,170.498565 596.342317,163.123805 C598.659508,148.375779 647.890126,106.063858 649.048721,97.9171303 C650.220737,89.768909 632.776195,102.569844 625.797782,93.2629236 C618.819369,83.9425649 610.683851,87.4350864 602.546842,93.2629236 C594.396414,99.0773224 576.966783,109.557873 565.327148,121.198616 C553.702424,132.85429 537.428406,146.815417 552.543828,157.297461 C567.657759,167.778012 567.657759,179.420248 575.794767,189.900799 C583.931776,200.382843 583.931776,214.357408 574.636172,221.343944 C565.327148,228.331973 551.371812,241.132908 546.72401,249.28113 C542.077699,257.441296 556.033035,266.74971 573.477576,260.935311 C590.908698,255.107474 574.636172,277.991776 574.636172,277.991776 C559.522241,305.540738 511.848347,333.116577 492.073194,341.278237 C472.311461,349.426458 466.491643,366.893545 492.073194,368.05523 C517.654744,369.213929 571.146965,331.957878 588.591507,323.809657 C606.022629,315.661435 607.194645,330.796193 602.546842,335.451893 C597.88562,340.104606 581.613094,348.266266 569.98837,364.561215 C558.350226,380.856165 586.260896,391.336716 595.56992,378.535781 C604.864033,365.721407 633.9333,369.213929 633.9333,369.213929 C633.9333,369.213929 631.616108,453.050869 633.9333,467.026928 C636.265402,481 652.537928,481 652.537928,481 L652.537928,361.067201 C654.868539,349.426458 709.519356,335.451893 715.324262,327.303671 C721.14408,319.15545 688.585607,306.339583 687.427012,299.353047 C686.268416,292.365018 760.680966,267.92334 764.170172,263.255695" id="Fill-3" fill="#7E6F60"></path>
                <path d="M807.255036,157 C821.130473,157 831.471447,195.318491 817.662726,202.537548 C795.326222,214.210502 795.326222,262.074557 811.889571,245.724635 C829.45959,228.395605 846.288321,197.859084 845.996253,213.047249 C845.732354,226.350555 821.237218,253.785067 815.358801,273.734038 C810.074897,291.63646 814.418847,317.132217 806.685726,330.958014 C786.455964,367.150611 788.758406,377.071949 787.606444,387.580153 C786.455964,398.089854 774.313659,391.658276 758.119472,382.325302 C741.94011,372.978854 747.143955,362.472147 759.855569,342.629472 C772.579044,322.78979 781.158717,265.577791 766.461932,238.731642 C751.765147,211.870522 762.172837,201.362318 771.413739,192.029344 C780.667984,182.684393 793.392941,157 807.255036,157" id="Fill-5" fill="#7E6F60"></path>
                <g id="编组" transform="translate(838.000000, 122.000000)">
                    <mask id="mask-2" fill="white">
                        <use xlink:href="#path-1"></use>
                    </mask>
                    <g id="Clip-8"></g>
                    <path d="M151.693729,219.493332 C151.07872,228.234165 149.327963,237.560708 144.665265,237.560708 C140.00107,237.560708 131.914671,242.218003 127.506356,237.560708 C123.081581,232.89146 116.519985,231.143294 119.499264,224.737832 C122.493506,218.333865 129.937962,204.935737 119.499264,203.761328 C109.077026,202.598872 108.488951,203.18757 103.236682,197.35736 C97.9844123,191.539104 94.4843958,194.194225 98.5724869,182.665291 C102.662074,171.149804 99.5226838,167.185799 96.7828248,164.157138 C93.9097886,160.941707 90.7554342,159.272731 96.2336559,155.591122 C101.726841,151.921466 101.780711,155.591122 102.368785,150.1733 C103.437196,140.271505 102.075496,146.089762 102.075496,141.432467 C102.075496,136.776666 99.7351688,129.196795 103.236682,126.861424 C106.738195,124.5395 121.18418,123.366585 119.499264,129.784 C117.829311,136.189461 109.077026,137.937628 124.832337,139.6843 C140.587649,141.432467 147.0026,130.944962 147.577207,139.6843 C148.165282,148.425133 152.307242,210.7525 151.693729,219.493332 M125.406944,44.7170208 C132.408474,44.7170208 138.836892,47.6395967 142.913012,44.7170208 C147.0026,41.8093866 148.165282,36.564887 149.327963,44.7170208 C150.504113,52.8840963 154.005626,115.212957 149.327963,114.637706 C144.665265,114.051995 141.750331,116.387366 140.00107,111.142867 C138.250314,105.898367 138.836892,105.311163 132.408474,105.311163 C125.995019,105.311163 123.657684,102.402034 122.493506,98.9057011 C121.330824,95.4108621 121.330824,87.8309913 125.406944,87.8309913 C129.496532,87.8309913 135.911483,95.9846194 140.00107,87.2572341 C144.089162,78.5164014 143.501087,63.9453586 139.411499,62.7858909 C135.335379,61.624929 134.748801,60.4505197 130.657717,62.7858909 C126.583094,65.1197679 119.580068,58.700859 119.580068,58.700859 C119.580068,55.7932247 118.418882,44.7170208 125.406944,44.7170208 M45.4811721,77.5168087 C39.0647245,79.0916528 40.6688364,83.5083881 33.7346438,77.5168087 C26.8109258,71.5252294 26.4368326,79.6923049 26.8109258,71.5252294 C27.292758,61.0227827 27.3585984,56.526857 27.3585984,56.526857 C28.4150377,55.3524477 33.8139516,54.1914858 36.1527826,54.6322628 C38.4781463,55.0580983 43.142341,49.9615204 45.4811721,54.6322628 C47.8185067,59.2895578 49.4211222,61.0362302 49.488459,66.2807298 C49.5692632,71.5252294 51.8961232,75.9285173 45.4811721,77.5168087 M44.8916011,122.204129 C37.3139681,123.952296 34.9766334,123.366585 31.4751206,125.700462 C27.9736077,128.035833 29.1497569,137.350423 22.7228347,135.0285 C16.3063872,132.693128 18.05864,130.357757 18.6467146,122.791334 C19.2213219,115.212957 18.6467146,98.9057011 18.6467146,98.9057011 C24.4720948,97.7312917 29.1497569,92.4882863 32.6512698,95.9846194 C36.1527826,99.4809524 37.8885753,104.150201 41.3900882,107.059329 C44.8916011,109.968458 48.3946103,113.51858 48.3946103,114.664601 C48.3946103,115.800157 52.4827014,120.455963 44.8916011,122.204129 M177.925148,43.5560589 C178.499756,31.3203873 188.429687,23.1667593 183.752025,8.60916393 C181.253082,0.803675038 169.853712,-0.971386371 163.920593,0.443582614 C163.920593,0.443582614 145.251843,16.762792 134.748801,22.0057974 C124.244263,27.250297 115.491977,30.7466301 111.990464,24.9149258 C108.488951,19.0847157 98.5724869,9.18292115 92.3326114,15.5883826 C85.8518199,22.2329097 82.2425681,30.1594255 83.40525,40.6484247 C84.5694282,51.1359298 85.744081,100.653868 84.5694282,108.807496 C83.40525,116.95963 84.5694282,118.707796 80.4933081,122.791334 C76.4037206,126.861424 74.6529641,130.944962 72.3141331,132.105924 C69.9887694,133.278839 65.3111074,136.776666 65.3111074,133.278839 C65.3111074,129.784 63.5738183,59.8752683 65.899182,52.2968916 C68.238013,44.7170208 73.4887859,49.3877632 73.4887859,40.6484247 C73.4887859,31.907592 75.2410387,23.1667593 64.7365001,20.259125 C54.2334579,17.3365492 45.6397876,14.026986 43.1019389,17.5636614 C36.1527826,27.250297 20.9720783,23.7554581 17.4705654,30.7466301 C13.9690526,37.7392963 0.0303378479,41.8093866 0.00489950651,44.1447578 C-0.0235315809,46.4651874 0.913197932,49.9615204 0.913197932,49.9615204 C-0.610109806,61.624929 1.26035647,190.951899 0.913197932,215.423242 C0.552572033,239.882632 -0.970735705,257.364297 0.953600003,260.859136 C2.89140307,264.353975 16.8959582,269.012764 16.8959582,245.714336 L16.8959582,151.320814 C16.8959582,151.320814 36.7273899,138.523338 42.5662374,143.180633 C48.3946103,147.837928 55.3961397,155.190687 60.0723054,155.591122 C64.7365001,155.991556 78.7410552,167.653471 65.899182,171.149804 C53.070776,174.63269 36.7273899,171.149804 42.5662374,178.127528 C48.3946103,185.120195 43.142341,186.294604 48.9811886,188.04277 C54.8215325,189.790937 58.8961562,191.539104 54.8215325,196.782109 C50.731945,202.013161 54.2334579,210.7525 47.8185067,211.339704 C41.3900882,211.928403 31.5274936,215.996999 35.5916427,224.164075 C39.6408281,232.316209 43.142341,232.316209 45.4811721,238.72167 C47.8185067,245.125638 63.5738183,243.96617 67.0618638,239.882632 C70.5633767,235.814036 100.911318,221.241499 106.163587,229.982332 C111.415857,238.72167 154.580233,289.987775 159.257895,291.737435 C163.920593,293.485602 177.33857,295.232274 177.925148,283.583807 C178.499756,271.93534 177.310139,56.4342191 177.925148,43.5560589" id="Fill-7" fill="#7E6F60" mask="url(#mask-2)"></path>
                </g>
                <path d="M58.579497,566.55818 C57.9635648,569.769547 56.2641315,571.869517 53.4407343,572.886549 C50.6293261,573.890101 46.5081253,574.598579 41.0606472,575 C40.8598323,573.180126 39.855758,570.879445 38.0364352,568.057517 C43.8705568,568.258227 47.605114,568.163864 49.211633,567.762443 C50.830141,567.361022 51.874678,566.451834 52.3827097,565.03338 C52.89224,563.628408 53.9352784,555.081739 55.5537864,539.39038 L7.54854119,539.39038 C10.1576359,523.297599 11.5768276,511.834639 11.7776425,505 C14.3867372,505.401421 16.7965157,505.694997 19.0174683,505.882227 C18.2276963,508.316215 17.5188498,511.740275 16.9164052,516.155904 L53.1455065,516.155904 C57.1603053,516.155904 60.786962,516.06154 64,515.860829 L64,521.587067 C60.786962,521.386357 57.3611202,521.291993 53.7479511,521.291993 L16.3019716,521.291993 L14.4946378,534.562845 L62.4998829,534.562845 C62.0862642,536.983353 61.6846345,539.7918 61.2964923,543.01515 L58.579497,566.55818 Z M38.3436519,551.456969 C41.9703086,551.456969 45.2897485,551.362605 48.3139606,551.148414 L48.3139606,557.19519 C45.2897485,556.994479 42.6656676,556.886635 40.4582026,556.886635 L11.4689271,556.886635 C7.85575797,556.886635 4.02828642,556.994479 0,557.19519 L0,551.148414 C4.02828642,551.362605 7.85575797,551.456969 11.4689271,551.456969 L38.3436519,551.456969 Z" id="Fill-9" fill="#FAC541"></path>
                <path d="M190,563.999027 C187.96988,565.420075 186.355422,566.829105 185.146084,568.238136 C183.518072,565.621365 179.576807,561.074312 173.308735,554.607492 C174.923193,553.211981 176.349398,551.897587 177.573795,550.677829 C183.423193,556.956878 187.566265,561.382256 190,563.999027 L190,563.999027 Z M183.626506,544.627109 C182.198795,542.211628 178.365964,537.879384 172.099398,531.613855 C173.512048,530.607404 174.829819,529.401166 176.039157,527.992135 C183.114458,534.848016 187.271084,539.100644 188.480422,540.695943 C186.86747,541.917203 185.239458,543.2331 183.626506,544.627109 L183.626506,544.627109 Z M162.079819,543.124944 L162.079819,531.31943 C162.079819,529.4943 161.98494,527.080321 161.783133,524.062472 L167.849398,524.062472 C167.64759,526.073871 167.539157,528.702659 167.539157,531.921799 L167.539157,544.023239 C167.539157,546.03614 166.987952,547.470707 165.885542,548.262348 C164.769578,549.079526 161.878012,549.778032 157.237952,550.383405 C156.618976,548.169214 155.825301,546.142793 154.816265,544.331182 C158.635542,544.331182 161.070783,543.930104 162.079819,543.124944 L162.079819,543.124944 Z M149.652108,553.722717 C150.861446,552.702747 152.072289,551.496509 153.296687,550.085976 C158.756024,555.331536 162.186747,558.753467 163.599398,560.362286 C161.581325,561.784836 160.048193,563.193866 159.052711,564.601395 C157.438253,562.388706 154.292169,558.753467 149.652108,553.722717 L149.652108,553.722717 Z M144.796687,546.450737 C143.384036,545.444287 141.864458,544.532472 140.237952,543.728814 C145.495482,538.683043 149.543675,533.653795 152.381024,528.596006 C154.197289,529.614473 155.918675,530.607404 157.533133,531.613855 C152.879518,537.664575 148.629518,542.61571 144.796687,546.450737 L144.796687,546.450737 Z M152.691265,520.131307 C149.652108,523.739507 146.814759,526.973667 144.191265,529.815763 C142.362952,528.193425 140.746988,527.080321 139.335843,526.476451 C142.563253,523.85968 145.549699,520.627021 148.278614,516.790492 C151.009036,512.953963 153.081325,509.224088 154.493976,505.602368 C156.725904,506.796589 158.850904,507.816559 160.88253,508.621719 C159.052711,510.846426 157.237952,513.155253 155.408133,515.584254 L187.875,515.584254 C186.86747,517.395864 185.146084,521.432181 182.724398,527.682689 C180.908133,527.080321 179.079819,526.677741 177.263554,526.476451 C178.070783,524.062472 178.971386,521.942917 179.993976,520.131307 L152.691265,520.131307 Z M171.951807,573.22983 C170.63253,574.140142 169.368976,574.58328 168.159639,574.58328 C159.671687,574.99938 152.381024,575.107536 146.302711,574.891224 C142.066265,574.689934 139.739458,573.669964 139.335843,571.873375 C138.918675,570.048245 138.730422,567.125032 138.730422,563.09923 C138.730422,559.264203 138.623494,556.138198 138.420181,553.722717 L144.796687,553.722717 C144.59488,555.936908 144.486446,558.552177 144.486446,561.570026 C144.486446,564.601395 144.540663,566.77653 144.634036,568.090924 C144.74247,569.391799 146.209337,570.048245 149.046687,570.048245 C153.902108,570.465847 159.76506,570.356189 166.638554,569.75382 C168.253012,569.136431 169.368976,567.030396 169.974398,563.395157 C171.802711,564.413624 173.914157,565.206767 176.349398,565.809135 C174.721386,569.848457 173.256024,572.315011 171.951807,573.22983 L171.951807,573.22983 Z M125.980422,572.786691 C124.164157,571.766721 122.240964,570.760271 120.210843,569.75382 C122.240964,567.539629 125.066265,562.187416 128.697289,553.722717 C130.135542,554.526375 132.060241,555.426172 134.480422,556.432622 C130.634036,563.50181 127.810241,568.94866 125.980422,572.786691 L125.980422,572.786691 Z M135.677711,516.496068 L135.677711,540.092073 C135.677711,543.124944 135.798193,546.357603 136,549.778032 L129.611446,549.778032 C129.611446,546.357603 129.71988,543.124944 129.920181,540.092073 L129.920181,523.445082 C126.894578,526.275161 124.460843,528.810815 122.644578,531.009984 C121.433735,529.401166 120.210843,527.992135 119,526.772377 C123.25,523.149156 126.787651,519.620571 129.611446,516.186622 C132.462349,512.752673 134.97741,509.036317 137.197289,505 C138.825301,506.004948 140.746988,507.104533 142.980422,508.324291 C139.941265,511.759742 137.50753,514.483167 135.677711,516.496068 L135.677711,516.496068 Z" id="Fill-11" fill="#FAC541"></path>
                <path d="M301.099894,513.120686 C298.877677,513.520896 296.976346,514.333263 295.368912,515.533894 C294.752629,513.721001 293.347624,511.134567 291.137402,507.7059 C292.744836,507.119024 294.458733,506.212578 296.265597,505 C297.270243,506.612788 298.877677,509.320181 301.099894,513.120686 L301.099894,513.120686 Z M280.263231,541.698391 L293.547054,541.698391 L293.547054,537.178105 L280.263231,537.178105 L280.263231,541.698391 Z M280.263231,533.285014 L293.547054,533.285014 L293.547054,528.470544 L280.263231,528.470544 L280.263231,533.285014 Z M280.263231,524.564013 L293.547054,524.564013 L293.547054,519.748049 L280.263231,519.748049 L280.263231,524.564013 Z M307.447159,551.022694 L305.6268,557.650058 L315,557.650058 C314.397212,559.449511 313.741943,562.370449 313.031193,566.372552 C312.335438,570.373162 311.116367,572.84013 309.402471,573.74807 C307.70207,574.639584 304.421225,575.401178 299.586927,576 C299.586927,574.400652 298.877677,572.187549 297.484667,569.372636 C302.720824,569.786287 305.6268,569.680261 306.241584,569.079945 C306.832376,568.47963 307.555121,566.064928 308.345343,561.850773 L298.381352,561.850773 L300.189715,555.250289 L289.931827,555.250289 C288.712756,561.464003 286.54452,565.932022 283.436114,568.625975 C280.303717,571.333368 275.923759,573.694311 270.287244,575.693869 C270.086315,573.880976 268.67981,572.093469 266.055734,570.279083 C271.492819,569.079945 275.616367,567.425344 278.454868,565.318267 C281.267878,563.211189 283.169208,559.851215 284.18735,555.250289 C278.750264,555.250289 274.424287,555.342875 271.197423,555.54298 L271.197423,550.730003 C274.424287,550.928615 277.732122,551.022694 281.173411,551.022694 L307.447159,551.022694 Z M280.557128,515.828079 L302.908258,515.828079 C306.737909,515.828079 310.366631,515.733999 313.794424,515.533894 L313.794424,520.042234 C310.366631,519.842129 305.425871,519.748049 298.997635,519.748049 L298.997635,524.564013 C304.220296,524.564013 308.559768,524.456494 311.987561,524.242949 L311.987561,528.764728 C308.759197,528.564623 304.421225,528.470544 298.997635,528.470544 L298.997635,533.285014 C304.220296,533.285014 308.759197,533.190935 312.575354,532.978883 L312.575354,537.499169 C308.759197,537.299064 304.220296,537.178105 298.997635,537.178105 L298.997635,541.699884 C306.832376,541.699884 312.080528,541.620738 314.691109,541.407193 L314.691109,545.914039 C312.080528,545.727374 308.960127,545.621348 305.331404,545.621348 L280.263231,545.621348 L280.263231,548.621432 L274.518754,548.621432 C274.719683,545.621348 274.81265,542.900515 274.81265,540.499253 L274.81265,526.963782 C273.808004,529.37699 272.509461,531.884278 270.890032,534.485645 C269.483527,533.285014 267.675164,532.284488 265.452946,531.470628 C268.065026,528.670649 270.702598,524.456494 273.299683,518.841603 C275.923759,513.240151 277.343759,509.214155 277.531193,506.8114 C279.540486,507.599874 281.963633,508.306215 284.790137,508.919971 C283.169208,510.119108 281.762703,512.426291 280.557128,515.828079 L280.557128,515.828079 Z M254.887666,515.828079 C254.887666,512.827995 254.779704,509.520286 254.580275,505.904953 L261.221436,505.904953 C260.819578,509.320181 260.618648,512.532317 260.618648,515.533894 L260.618648,523.349942 C263.0283,523.349942 264.956621,523.242423 266.363126,523.055758 L266.363126,527.870228 C264.956621,527.670123 263.0283,527.564097 260.618648,527.564097 L260.618648,540.806878 C263.242724,540.006457 265.653875,538.992491 267.862598,537.79186 C267.862598,538.992491 267.97056,540.806878 268.183485,543.206646 L260.618648,546.22017 L260.618648,569.372636 C260.618648,571.987443 259.50754,573.640551 257.297318,574.346892 C255.0751,575.041287 252.555987,575.601283 249.744477,576 C249.744477,574.200547 248.847793,571.879924 247.025935,569.079945 C250.654657,569.291997 252.878374,569.291997 253.668596,569.079945 C254.472313,568.87984 254.887666,568.185445 254.887666,566.984814 L254.887666,548.327248 C250.857086,549.729477 248.030581,551.022694 246.424646,552.235272 C245.821859,549.4338 245.018141,547.314775 244,545.914039 C248.23151,544.913514 251.861732,543.912988 254.887666,542.900515 L254.887666,527.564097 C250.039873,527.564097 246.424646,527.764202 244,528.162919 L244,523.055758 C246.424646,523.242423 250.039873,523.349942 254.887666,523.349942 L254.887666,515.828079 Z" id="Fill-13" fill="#FAC541"></path>
                <path d="M406.821285,516.977973 L406.821285,528.937222 L420.587623,528.937222 C424.044001,528.937222 427.498862,528.830323 430.967378,528.632858 L430.967378,534.320739 C427.498862,534.320739 424.044001,534.213841 420.587623,534.028254 L406.821285,534.028254 L406.821285,545.087775 L428.529099,545.087775 C431.590983,545.087775 434.7348,544.980876 438,544.781927 L438,550.471292 C434.7348,550.272343 431.590983,550.177322 428.529099,550.177322 L406.821285,550.177322 L406.821285,566.327875 C407.024602,569.312119 406.062642,571.407029 403.908096,572.614089 C401.780861,573.806302 398.162133,574.603585 393.068603,575 C392.863769,572.614089 391.835049,570.32023 390.005202,568.118421 C393.880351,568.118421 396.644847,567.866023 398.257722,567.36271 C399.897908,566.871274 400.601929,565.625612 400.412268,563.636116 L400.412268,550.177322 L378.407066,550.177322 C374.720061,550.377756 371.2652,550.471292 368,550.471292 L368,544.781927 C371.454861,544.980876 374.93855,545.087775 378.407066,545.087775 L400.412268,545.087775 L400.412268,534.028254 L386.956974,534.028254 C383.285141,534.028254 379.504064,534.135152 375.642571,534.320739 L375.642571,528.632858 C379.314403,528.830323 383.081825,528.937222 386.956974,528.937222 L400.412268,528.937222 L400.412268,517.573337 C389.801886,518.171671 381.7542,518.568086 376.25252,518.767035 C375.642571,516.578589 374.720061,514.682629 373.50168,513.079154 C380.833207,513.278104 390.357213,512.932169 402.079766,512.045804 C413.800802,511.143107 422.106427,509.790547 426.998158,508 C428.218056,510.798657 429.545681,513.079154 430.967378,514.883063 C428.122467,515.082013 420.061125,515.772398 406.821285,516.977973" id="Fill-15" fill="#FAC541"></path>
                <path d="M624.342391,535.665612 C625.772041,539.086451 627.29529,542.36064 628.912138,545.47471 C630.544082,548.588781 632.053744,551.155158 633.483394,553.157382 C636.718599,547.131258 638.755133,538.793151 639.564312,528.128094 L625.569746,528.128094 C623.735507,531.348412 621.807669,534.570225 619.784722,537.775578 C621.606884,537.17551 623.128623,536.466202 624.342391,535.665612 L624.342391,535.665612 Z M645.806763,565.827654 C649.769626,568.459874 653.154287,570.251101 656,571.267177 C654.568841,572.269785 652.951993,574.180726 651.131341,577 C648.489432,575.382359 645.698068,573.471418 642.758756,571.267177 C639.819444,569.049468 636.516304,566.134422 632.87651,562.513062 C629.411836,565.734875 625.812802,568.459874 622.064312,570.665612 C618.302234,572.869853 614.096316,574.981316 609.431461,577 C608.622283,575.181838 607.20622,573.37864 605.184783,571.560477 C609.431461,570.345376 613.853261,568.540682 618.41093,566.134422 C622.982186,563.729659 626.782005,560.802642 629.830012,557.395271 C628.199577,554.975544 626.472524,552.061995 624.653382,548.641156 C622.832729,545.220317 621.105676,541.907221 619.488829,538.686904 L617.951993,540.798367 C615.930556,539.393219 614.298611,538.284364 613.084843,537.46881 C615.10779,535.064047 617.508152,531.188294 620.243659,525.868485 C622.982186,520.538202 625.272343,514.242721 627.092995,507 C629.520531,508.215101 631.75785,508.924409 633.779287,509.124931 C632.580616,511.130147 631.44686,513.386763 630.435386,515.899269 C629.411836,518.425243 628.400362,520.883877 627.390399,523.290136 L642.610809,523.290136 C646.857488,523.290136 650.417271,523.197358 653.261473,522.99534 L653.261473,528.421395 C651.238527,528.234341 648.596618,528.128094 645.334239,528.128094 C644.134058,540.395827 641.289855,550.351576 636.827295,557.983368 C638.848732,560.602121 641.842391,563.220873 645.806763,565.827654 L645.806763,565.827654 Z M612.479469,514.550986 C612.262077,519.173458 612.180556,523.797426 612.180556,528.421395 C612.180556,533.058831 612.262077,537.388003 612.479469,541.398435 L594.520531,541.398435 L594.520531,564.932789 C602.029589,560.908889 607.610809,557.48805 611.2657,554.668776 C611.66878,557.087007 612.262077,558.999444 613.084843,560.401599 C609.242754,562.620805 605.467089,564.825046 601.827295,567.044252 C598.173913,569.248493 594.425423,571.66822 590.569746,574.273505 C589.342391,572.470307 587.926329,570.758391 586.309481,569.142246 C588.14221,567.551541 588.937802,565.438582 588.735507,562.81983 L588.735507,546.222925 C588.735507,543.403651 588.643418,540.195305 588.439614,536.573945 L606.694444,536.573945 L606.694444,519.387447 L596.649155,519.387447 C593.198068,519.387447 589.651872,519.481722 586,519.680747 L586,514.242721 C589.651872,514.443243 593.198068,514.550986 596.649155,514.550986 L612.479469,514.550986 Z" id="Fill-17" fill="#FAC541"></path>
                <g id="编组" transform="translate(711.000000, 505.000000)">
                    <mask id="mask-4" fill="white">
                        <use xlink:href="#path-3"></use>
                    </mask>
                    <g id="Clip-20"></g>
                    <path d="M67.4107166,31.4650295 C65.7898126,32.6699135 63.9679824,34.1838961 61.9602205,36.0069772 C58.5309813,31.9736916 54.3010364,27.5382778 49.2643881,22.6872316 C51.0727233,21.2812834 52.6951268,19.8723343 54.1001103,18.4528819 C58.3300551,22.2986077 62.7624256,26.6139832 67.4107166,31.4650295 L67.4107166,31.4650295 Z M34.7632194,56.5635296 C39.5974421,53.3465042 43.7209261,49.4077487 47.1501654,44.7697704 L22.0553914,44.7697704 C25.6840573,49.6088128 29.9289967,53.5475683 34.7632194,56.5635296 L34.7632194,56.5635296 Z M38.3918853,9.68858824 L51.9978831,9.68858824 C57.821742,9.68858824 63.071312,9.58205428 67.7046086,9.38099019 L67.7046086,15.1293225 C62.8718853,14.9282584 57.821742,14.8217244 52.5871665,14.8217244 L45.3283352,14.8217244 L45.3283352,28.1264653 C45.3283352,31.356995 45.4362955,34.5860243 45.6372216,37.8030497 L38.9811687,37.8030497 C39.1955899,34.5860243 39.2750606,31.356995 39.2750606,28.1264653 L39.2750606,14.8217244 L28.7099449,14.8217244 L28.7099449,28.1264653 C28.7099449,30.3531751 28.8044101,33.5822043 29.0188313,37.8030497 L22.3627784,37.8030497 C22.5637045,33.5822043 22.6566703,30.3531751 22.6566703,28.1264653 L22.6566703,14.8217244 L16.0171114,14.8217244 C10.1632635,14.8217244 5.03514884,14.9282584 0.60277839,15.1293225 L0.60277839,9.38099019 C4.83422271,9.58205428 9.96233738,9.68858824 16.0171114,9.68858824 L31.4284454,9.68858824 C31.0265932,8.06657122 29.9289967,5.45423854 28.1071665,1.8095768 C30.1164278,1.62201702 32.2321499,1.01882475 34.454333,0 C35.8758104,3.02946564 37.174333,6.2584949 38.3918853,9.68858824 L38.3918853,9.68858824 Z M58.3300551,39.9337289 C56.3087982,42.9481897 53.6577729,46.3377702 50.3229989,50.0649582 C47.0032194,53.8026496 43.533495,56.8711277 39.8913341,59.2838967 C41.9140904,60.5037856 45.6372216,61.6681567 51.0727233,62.7665068 C56.5232194,63.8798617 62.1611466,64.5220664 68,64.7366348 C65.5888864,67.3489675 64.183903,69.5741768 63.7820507,71.3837536 C57.3269239,70.5779967 51.5420507,69.3325998 46.3989416,67.6190536 C41.2588313,65.8890021 37.2672988,64.1214387 34.454333,62.3238657 C31.0265932,64.3345066 26.702183,66.1440834 21.452613,67.7525961 C16.216538,69.3596084 10.3641896,70.7805613 3.92405733,72.0004501 C3.12035281,69.9763049 1.90280044,67.9521598 0.293891951,65.9445198 C4.7262624,65.7419552 9.90835722,64.9782118 15.8551709,63.6923019 C21.8139802,62.3658791 26.394796,60.9044133 29.6081147,59.2838967 C25.1757442,56.0668713 20.5409482,51.2293293 15.7082249,44.7697704 C13.0961852,44.7697704 10.3641896,44.8763043 7.55272326,45.0788689 L7.55272326,39.6246304 C11.1813892,39.8256944 15.5072988,39.9337289 20.5409482,39.9337289 L58.3300551,39.9337289 Z M12.6958324,27.2306798 C10.4721499,30.0575809 8.04904079,32.9655078 5.4370011,36.0069772 C3.4277398,34.5860243 1.60740904,33.3796398 0,32.3623155 C4.83422271,27.9389055 8.55735391,22.9948296 11.1813892,17.5540954 C12.9897244,18.961544 15.1054465,20.275963 17.5285557,21.4823475 C16.523925,22.4876679 14.9045204,24.4022782 12.6958324,27.2306798 L12.6958324,27.2306798 Z" id="Fill-19" fill="#FAC541" mask="url(#mask-4)"></path>
                </g>
                <path d="M849.068742,517.907324 C848.273568,520.016442 847.463531,522.073244 846.666871,524.076233 L864.651177,524.076233 L864.651177,513.529148 C864.651177,510.925262 864.545649,508.403587 864.346484,506 L871.250377,506 C871.036349,508.203288 870.944198,510.724963 870.944198,513.529148 L870.944198,524.076233 L884.138139,524.076233 C887.323293,524.076233 890.906778,523.980568 894.903456,523.781764 L894.903456,529.802691 C891.11932,529.61435 887.522459,529.494768 884.138139,529.494768 L870.944198,529.494768 L870.944198,543.056801 L880.235099,543.056801 C883.036786,543.056801 886.421106,542.964126 890.416297,542.750374 L890.416297,548.798206 C886.620271,548.58296 883.234465,548.490284 880.235099,548.490284 L870.944198,548.490284 L870.944198,566.55157 L888.9181,566.55157 C892.115145,566.55157 895.81902,566.472347 900,566.258595 L900,572 C896.004809,571.784753 892.315796,571.690583 888.9181,571.690583 L845.776573,571.690583 C842.378877,571.690583 838.887543,571.784753 835.290682,572 L835.290682,566.258595 C839.073332,566.472347 842.578042,566.55157 845.776573,566.55157 L864.651177,566.55157 L864.651177,548.490284 L853.567791,548.490284 C850.769076,548.490284 847.873751,548.58296 844.875872,548.798206 L844.875872,542.750374 C847.873751,542.964126 850.769076,543.056801 853.567791,543.056801 L864.651177,543.056801 L864.651177,529.494768 L844.569692,529.494768 C842.778693,533.726457 840.986208,537.330344 839.193723,540.348281 C836.976154,539.346786 834.587659,538.653214 832,538.251121 C834.175952,535.835575 836.537693,531.964126 839.034688,526.638266 C841.516819,521.324365 843.281065,515.638266 844.27689,509.617339 L852.069594,512.621824 C850.874604,514.035874 849.865402,515.784753 849.068742,517.907324" id="Fill-21" fill="#FAC541"></path>
                <mask id="mask-6" fill="white">
                    <use xlink:href="#path-5"></use>
                </mask>
                <g id="Clip-24"></g>
                <path d="M986.85492,565.239165 L1012.91755,565.239165 L1012.91755,552.080438 L986.85492,552.080438 L986.85492,565.239165 Z M1019.80656,514.975439 C1016.60724,515.387948 1013.66203,515.784134 1010.96646,516.181804 C1008.27386,516.592829 1005.32716,516.977144 1002.1427,517.376298 L1002.1427,529.937036 L1015.00238,529.937036 C1018.20021,529.937036 1021.19892,529.831683 1024,529.646203 L1024,535.011782 C1021.59865,534.827786 1018.59846,534.720949 1015.00238,534.720949 L1002.1427,534.720949 L1002.1427,547.284654 L1018.90308,547.284654 C1018.70396,551.074392 1018.59846,556.175847 1018.59846,562.55044 C1018.59846,568.936903 1018.70396,573.309791 1018.90308,575.709167 L1012.91755,575.709167 L1012.91755,570.023077 L986.85492,570.023077 L986.85492,576 L981.162125,576 C981.347873,573.401789 981.453377,568.619361 981.453377,561.649746 C981.453377,554.466458 981.347873,549.682546 981.162125,547.284654 L996.436529,547.284654 L996.436529,534.720949 L986.85492,534.720949 C982.462359,534.720949 978.653788,534.827786 975.46933,535.011782 L975.46933,529.646203 C978.866284,529.831683 982.753611,529.937036 987.159546,529.937036 L996.436529,529.937036 L996.436529,518.58118 C991.04836,519.16433 985.859313,519.866188 980.857499,520.661529 C980.656891,518.475827 979.861891,516.592829 978.466554,514.975439 C982.847228,515.175758 989.601014,514.592607 998.678875,513.187407 C1007.78348,511.795562 1013.40941,510.497198 1015.61163,509.290833 C1016.60724,511.093704 1018.02784,512.990056 1019.80656,514.975439 L1019.80656,514.975439 Z M976.967199,518.58118 C974.964096,520.170376 973.464741,521.774411 972.469133,523.365092 C969.470422,520.170376 965.382487,516.885146 960.19344,513.479724 C961.58729,512.101234 962.979655,510.604035 964.388366,509 C968.580319,511.795562 972.773759,514.975439 976.967199,518.58118 L976.967199,518.58118 Z M967.984441,564.630789 C965.581609,569.626891 963.789515,573.204438 962.582898,575.403495 C960.591683,573.814298 958.401346,572.515935 956,571.521759 C957.592972,569.732244 959.597561,566.936682 961.984048,563.145461 C964.388366,559.357208 967.372217,553.168095 970.969778,544.592962 C972.773759,546.382477 974.473722,547.694195 976.080068,548.477665 C973.065012,554.267623 970.385787,559.661396 967.984441,564.630789 L967.984441,564.630789 Z M973.983348,537.120324 C972.574638,538.722876 971.168899,540.405554 969.775049,542.19507 C964.97087,538.418688 960.392561,535.131974 956,532.323057 C957.395337,530.73386 958.69557,529.141696 959.887328,527.539145 C964.095627,530.348061 968.780927,533.527938 973.983348,537.120324 L973.983348,537.120324 Z" id="Fill-23" fill="#FAC541" mask="url(#mask-6)"></path>
            </g>
        </g>
    </g>
</svg>