<?xml version="1.0" encoding="UTF-8"?>
<svg width="725px" height="728px" viewBox="0 0 725 728" version="1.1" xmlns="http://www.w3.org/2000/svg" xmlns:xlink="http://www.w3.org/1999/xlink">
    <title>哈尔滨电气集团有限公司@2x</title>
    <defs>
        <polygon id="path-1" points="0 0 347 0 347 347 0 347"></polygon>
    </defs>
    <g id="页面-1" stroke="none" stroke-width="1" fill="none" fill-rule="evenodd">
        <g id="32.哈尔滨电气集团有限公司" transform="translate(-147.000000, -22.000000)">
            <g id="哈尔滨电气集团有限公司" transform="translate(147.000000, 22.000000)">
                <g id="编组">
                    <mask id="mask-2" fill="white">
                        <use xlink:href="#path-1"></use>
                    </mask>
                    <g id="Clip-2"></g>
                    <path d="M347,26.406266 C347,11.819221 336.747083,-0.00702748211 324.095409,-0.00702748211 L215.655379,-0.00702748211 C203.003704,-0.00702748211 192.750788,11.819221 192.750788,26.406266 L192.750788,190.578287 L154.249212,190.578287 L154.249212,26.406266 C154.249212,11.819221 143.996296,-0.00702748211 131.344621,-0.00702748211 L22.9045911,-0.00702748211 C10.2529168,-0.00702748211 0,11.819221 0,26.406266 L0,346.809254 L151.334267,346.809254 L151.334267,347 L202.689943,347 L202.689943,346.809254 L347,346.809254 L347,26.406266 Z" id="Fill-1" fill="#153E89" mask="url(#mask-2)"></path>
                </g>
                <path d="M698.586477,347 C713.173649,347 725,336.736962 725,324.085288 L725,215.645257 C725,202.993583 713.173649,192.750788 698.586477,192.750788 L534.413031,192.750788 L534.413031,154.249212 L698.586477,154.249212 C713.173649,154.249212 725,143.986174 725,131.3345 L725,22.9045911 C725,10.2529168 713.173649,0 698.586477,0 L378.170669,0 L378.170669,151.334267 L378,151.334267 L378,202.679821 L378.170669,202.679821 L378.170669,347 L698.586477,347 Z" id="Fill-3" fill="#153E89"></path>
                <path d="M347,701.586477 C347,716.173649 336.747083,728 324.095409,728 L215.655379,728 C203.003704,728 192.750788,716.173649 192.750788,701.586477 L192.750788,537.413031 L154.249212,537.413031 L154.249212,701.586477 C154.249212,716.173649 143.996296,728 131.344621,728 L22.9045911,728 C10.2529168,728 0,716.173649 0,701.586477 L0,381.180708 L151.334267,381.180708 L151.334267,381 L202.689943,381 L202.689943,381.180708 L347,381.180708 L347,701.586477 Z" id="Fill-5" fill="#153E89"></path>
                <path d="M698.586477,381 C713.173649,381 725,391.263038 725,403.914712 L725,512.354743 C725,525.006417 713.173649,535.249212 698.586477,535.249212 L534.413031,535.249212 L534.413031,573.740666 L698.586477,573.740666 C713.173649,573.740666 725,584.013826 725,596.6655 L725,705.095409 C725,717.747083 713.173649,728 698.586477,728 L378.180708,728 L378.180708,576.665733 L378,576.665733 L378,525.310057 L378.180708,525.310057 L378.180708,381 L698.586477,381 Z" id="Fill-7" fill="#E50113"></path>
            </g>
        </g>
    </g>
</svg>