<?xml version="1.0" encoding="UTF-8"?>
<svg width="1024px" height="449px" viewBox="0 0 1024 449" version="1.1" xmlns="http://www.w3.org/2000/svg" xmlns:xlink="http://www.w3.org/1999/xlink">
    <title>国家开发投资集团有限公司@2x</title>
    <defs>
        <polygon id="path-1" points="0 449 1024 449 1024 0 0 0"></polygon>
    </defs>
    <g id="页面-1" stroke="none" stroke-width="1" fill="none" fill-rule="evenodd">
        <g id="48.国家开发投资集团有限公司" transform="translate(0.000000, -159.000000)">
            <g id="国家开发投资集团有限公司" transform="translate(0.000000, 159.000000)">
                <path d="M495.416355,40 L552,40 L552,89.2208541 L500.617099,89.2208541 C477.100301,89.2208541 459.377334,108.471807 459.377334,132 C459.377334,155.528193 477.104794,174.779146 500.617099,174.779146 L552,174.779146 L552,224 L495.416355,224 C447.897506,224 409.023349,185.107007 409.023349,137.569628 L409.023349,126.43262 C409.023349,78.8974885 447.897506,40 495.416355,40 L495.416355,40 Z M169.391488,104.952018 L224.193626,104.952018 L224.193626,174.779146 L233.599896,174.779146 C257.112201,174.779146 274.839661,155.528193 274.839661,132 C274.839661,108.471807 257.114447,89.2208541 233.599896,89.2208541 L169.391488,89.2208541 L169.391488,40 L238.80064,40 C286.319489,40 325.193646,78.8974885 325.193646,126.43262 L325.193646,137.569628 C325.193646,185.107007 286.319489,224 238.80064,224 L169.391488,224 L169.391488,104.952018 Z M105.019083,223.494283 L6.40713684,223.494283 L6.40713684,174.2532 L101.011253,174.2532 C105.92444,174.2532 109.947996,170.229942 109.947996,165.30988 C109.947996,160.392065 105.92444,156.366559 101.011253,156.366559 L53.0453419,156.366559 C23.8695052,156.366559 0,132.485488 0,103.295515 L0,93.0710447 C0,63.881071 23.8672587,40 53.0453419,40 L151.657288,40 L151.657288,89.2410828 L57.0554188,89.2410828 C52.1399856,89.2410828 48.1164295,93.2643409 48.1164295,98.1844034 C48.1164295,103.102218 52.1399856,107.127724 57.0554188,107.127724 L105.019083,107.127724 C134.197167,107.127724 158.066672,131.008795 158.066672,160.201016 L158.066672,170.420991 C158.066672,199.613212 134.197167,223.494283 105.019083,223.494283 L105.019083,223.494283 Z M340.205038,224 L395.007175,224 L395.007175,40 L340.205038,40 L340.205038,224 Z" id="Fill-1" fill="#B4B5B5"></path>
                <path d="M605.158709,139.315538 L613.694156,147.846023 L735.913492,25.6655755 L727.378045,17.1350902 L605.158709,139.315538 Z M621.319665,155.471352 L629.852866,164.001837 L752.074448,41.8213893 L743.541247,33.2886579 L621.319665,155.471352 Z M653.641577,187.780733 L662.174777,196.311218 L710.397021,148.106564 L713.048199,150.7569 L835.265288,28.576452 L822.728359,16.0412654 L700.506776,138.221713 L701.861574,139.576079 L653.641577,187.780733 Z M669.800286,203.936547 L678.335733,212.467032 L726.55573,164.262378 L729.092324,166.795919 L851.311659,44.6154714 L838.77473,32.0825308 L716.553148,154.262978 L718.020283,155.729647 L669.800286,203.936547 Z M684.462652,122.180448 L685.702864,123.420265 L637.480621,171.624919 L646.016068,180.157651 L694.233818,131.952997 L697.001828,134.715634 L819.218917,12.5351865 L806.681988,0 L684.462652,122.180448 Z M901.780664,1.29596894 L854.87727,48.1821935 L854.818854,48.1215502 L732.599519,170.301998 L734.183486,171.885461 L685.961242,220.090115 L694.496689,228.622846 L742.718933,180.418192 L745.138695,182.837184 L792.042089,135.948714 L795.547037,139.454793 L748.643643,186.343263 L750.342195,188.041275 L702.122198,236.248175 L710.655398,244.77866 L758.877642,196.57176 L761.182819,198.87845 L808.086214,151.992225 L811.593408,155.496058 L764.690014,202.384529 L777.22919,214.919715 L824.132585,168.031245 L827.637533,171.537323 L780.734138,218.423548 L793.275561,230.958735 L840.178956,184.07251 L843.683904,187.576343 L796.780509,234.464813 L809.319686,247 L856.22308,200.111529 L901.780664,245.654618 L1024,123.476417 L901.780664,1.29596894 Z M589,123.159724 L711.219336,0.979276355 L719.752536,9.51200771 L597.5332,131.690209 L589,123.159724 Z" id="Fill-3" fill="#E50113"></path>
                <mask id="mask-2" fill="white">
                    <use xlink:href="#path-1"></use>
                </mask>
                <g id="Clip-6"></g>
                <path d="M21.296034,386.81871 L92.0955476,386.81871 L92.0955476,301.433579 L21.296034,301.433579 L21.296034,386.81871 Z M75.2206564,365.851976 C74.5152895,364.749051 73.6661536,363.507703 72.7361476,362.156955 C71.7881705,360.781648 69.3014154,358.191784 65.2826214,354.362804 C67.4032148,352.922751 69.5867071,350.964724 71.8465767,348.48426 L63.7865248,348.48426 L63.7865248,365.851976 L75.2206564,365.851976 Z M7,402.471757 L106.519626,402.471757 L106.519626,286.026122 L7,286.026122 L7,402.471757 Z M130.477389,321.64568 L146.166185,321.64568 L146.166185,307.03081 L220.649781,306.896852 L220.649781,322.119 L235.19741,322.119 L235.19741,292.527573 L193.311199,292.527573 L193.311199,284.329315 L171.613306,284.329315 L171.613306,292.527573 L130.477389,292.527573 C130.812101,302.764233 130.924421,311.406787 130.477389,321.64568 L130.477389,321.64568 Z M127.709835,386.086403 C140.761368,383.181737 151.651873,379.104934 160.340914,373.880554 C169.047927,368.633847 175.775869,363.992186 180.504522,359.960036 C180.221477,358.948649 179.877779,358.024336 179.432994,357.191561 C173.008315,361.446975 167.210379,365.072784 162.057157,368.068989 C156.9264,371.065193 149.409974,374.284662 139.548317,377.77428 C138.76208,375.79616 137.993814,374.014512 137.265983,372.462827 C136.538152,370.906676 134.940968,368.091315 132.496894,364.036839 C137.164896,363.159411 141.206153,362.168118 144.640886,361.040634 C148.075618,359.915383 152.278616,358.113641 157.267851,355.590757 C162.259332,353.090199 167.086827,350.163206 171.734611,346.829873 L170.442936,345.56843 C164.683189,348.002009 160.278015,349.689886 157.24988,350.681179 C154.197034,351.672472 149.288669,353.159411 142.500075,355.141996 C141.832897,353.338022 141.185936,351.719357 140.559193,350.252512 C139.912232,348.812458 138.175772,345.726948 135.347565,341.02054 C139.083314,340.6142 144.1961,339.87073 150.661214,338.743246 C157.146546,337.617995 165.330149,334.262335 175.229996,328.676267 L158.137204,328.676267 L148.075618,329.015628 L148.075618,315.095111 L158.137204,315.409913 L206.728894,315.409913 L217.922662,315.095111 L217.922662,329.015628 L206.728894,328.676267 L189.555233,328.676267 C191.031112,330.004689 192.628296,331.313016 194.364756,332.641438 C190.141541,335.273722 186.080065,337.796606 182.220765,340.230185 C185.857673,343.137084 188.018701,345.16209 188.726314,346.356553 L190.990677,349.848404 C200.02117,343.000893 205.315914,338.72092 206.850199,337.05537 L212.650381,331.065193 C213.780316,332.594552 214.872062,333.900647 215.882938,334.983478 C216.87135,336.064077 219.762456,338.497656 224.551762,342.27975 C219.173902,346.175709 214.467712,349.645233 210.406236,352.641438 C211.11385,355.275954 212.347118,359.127261 214.103796,364.217683 C215.862721,369.285778 219.216583,374.17303 224.1856,378.834785 C229.156864,383.496539 234.530232,387.124581 240.289979,389.712213 C238.349097,392.101139 236.814812,394.081491 235.642196,395.682295 C234.471826,397.280866 232.753337,400.0739 230.471003,404.039071 C222.893925,398.926323 217.336353,394.262335 213.820751,390.051574 C210.325366,385.818486 207.49716,381.471534 205.336131,377.010717 C203.193074,372.552132 201.153351,366.896852 199.212469,360.096227 L194.951064,362.663764 C195.23411,364.894173 195.454256,366.966064 195.636214,368.834785 C195.797954,370.705738 195.901288,374.240009 195.919259,379.419737 C195.939477,384.624023 195.656431,388.857111 195.029688,392.145791 C194.425409,395.456798 192.888877,398.428444 190.444804,401.065193 C188.00073,403.701942 182.139895,405.097343 172.866792,405.231302 C171.754828,399.602813 170.907939,396.04175 170.319384,394.601697 L168.077486,388.926323 C174.158467,390.029248 177.939143,389.982362 179.432994,388.790132 C180.92909,387.595669 181.816415,385.726948 182.09946,383.159411 C182.384752,380.567314 182.524028,378.519982 182.524028,376.98839 L182.524028,375.389819 C178.381683,378.564635 173.149837,382.011833 166.823999,385.751507 C160.522872,389.488948 155.147258,392.212771 150.721867,393.949766 L135.466624,400.277071 C133.770598,396.222594 132.375589,393.384907 131.326525,391.76401 L127.709835,386.086403 Z M301.524359,333.335789 L324.134287,333.335789 L324.134287,302.532038 L301.524359,302.532038 L301.524359,333.335789 Z M256.064139,332.842376 L268.673133,333.335789 L286.37245,333.335789 L286.37245,302.532038 L275.825643,302.532038 L263.863609,303.027685 L263.863609,286.139987 L275.825643,286.611074 L344.722463,286.611074 L358.461392,286.139987 L358.461392,303.027685 L344.843768,302.532038 L339.167137,302.532038 L339.167137,333.335789 L351.65258,333.335789 L365.573467,332.842376 L365.573467,350.227953 L351.65258,349.730074 L339.167137,349.730074 L339.167137,386.91248 L339.571488,403.521098 L323.709719,403.521098 L324.134287,386.91248 L324.134287,349.730074 L301.344648,349.730074 C301.221096,351.714892 301.102037,353.652824 300.978486,355.541639 C300.859427,357.430453 300.596599,360.006921 300.151814,363.244251 C299.727246,366.454789 298.112091,371.842152 295.322073,379.399643 C292.554519,386.93704 283.400474,395.063854 267.88465,403.780085 C266.914209,401.440277 265.84268,399.031257 264.692528,396.550793 C263.560347,394.094887 261.379101,390.832998 258.186979,386.841036 C264.530788,385.164322 270.065896,382.424872 274.794549,378.549006 C279.502985,374.699933 282.452497,370.542755 283.604896,366.030587 C284.775266,361.542978 285.442444,358.236437 285.583967,356.10873 L286.069187,349.730074 L268.673133,349.730074 L256.064139,350.227953 L256.064139,332.842376 Z M435.941673,344.29136 C436.936824,352.911587 443.011066,361.498326 448.164288,365.380889 C452.003371,358.787899 456.271514,353.190668 456.561299,344.29136 L435.941673,344.29136 Z M454.189109,301.759545 L474.404384,301.759545 L474.404384,288.435142 L454.189109,288.435142 L454.189109,301.759545 Z M377.77811,380.357446 C393.154659,372.002902 416.225097,343.271043 418.8691,321.114311 L387.289331,321.114311 L385.267579,311.179058 C389.535722,304.889708 392.283059,296.59098 393.536545,286.273945 L409.553315,286.273945 C408.782803,293.228622 407.032864,299.843938 404.462992,306.693682 L423.759493,306.693682 C424.262685,303.563519 424.718702,300.652154 425.111821,297.919402 C425.507186,295.182184 425.129792,292.661532 425.996899,284.061398 L442.750485,284.061398 C442.125988,292.51641 440.787139,299.154052 438.60814,306.693682 L485.827284,306.693682 L485.827284,321.114311 L435.294712,321.114311 L432.223896,331.509489 L471.340307,331.509489 L474.006773,334.898638 C470.682114,352.290913 468.202098,359.227729 458.028192,373.86046 C467.988691,381.2572 473.150898,384.068096 488.177009,387.551016 C485.391484,393.152713 483.740387,397.269703 482.284725,403.239786 C470.787694,399.868497 459.546753,393.733199 448.173274,385.28935 C434.573621,394.365037 425.114067,398.841482 409.324183,403.518866 C407.084531,396.986158 406.594818,393.382675 404.397847,388.948649 C420.603314,386.07524 430.103302,381.306318 437.127768,374.912034 C431.857734,368.17169 426.073276,359.225497 423.878552,351.469301 C412.794858,369.638535 406.857645,377.566644 389.214488,391.989507 C383.930976,386.285108 381.192625,383.889484 377.77811,380.357446 L377.77811,380.357446 Z M511.503536,346.657959 L513.037821,351.822058 C513.644347,353.829203 514.493483,357.446082 515.582983,362.679393 L519.262572,361.022773 L524.292242,358.60259 C525.161595,358.209645 526.513923,357.664881 528.373935,356.943737 L528.373935,382.759768 C528.373935,387.124581 522.560274,387.004019 515.955884,386.816477 C518.173072,393.063407 518.559451,395.327305 519.455761,402.07658 C527.223782,402.762 542.052211,398.83925 542.052211,391.362134 L542.052211,351.518419 C545.810424,350.013619 549.247402,348.555704 552.419307,347.093324 L552.295755,342.690556 C552.214885,341.076356 552.25532,339.486716 552.419307,337.939495 C552.558583,336.390042 552.801193,334.64635 553.124674,332.728511 C549.487766,334.603929 545.810424,336.215896 542.052211,337.588971 L542.052211,319.95557 L547.385144,319.95557 L554.29729,320.216789 L554.29729,305.590757 L547.506449,305.918955 L542.052211,305.918955 L542.052211,292.75307 L542.416126,281.636749 L528.030237,281.636749 L528.373935,292.449431 L528.373935,305.918955 L521.34273,305.918955 L512.393107,305.590757 L512.393107,320.216789 L521.039467,319.95557 L528.373935,319.95557 L528.373935,341.926993 L523.281366,343.715338 C522.978103,343.844831 519.037933,344.827194 511.503536,346.657959 L511.503536,346.657959 Z M620.729819,319.580487 L620.729819,332.875865 L601.278317,332.875865 C595.318641,332.875865 591.120135,328.410583 591.120135,323.114758 L591.120135,299.363921 L575.552644,299.363921 L575.552644,314.979013 C575.552644,322.882563 571.522618,329.991293 561.41835,335.972539 C557.887023,331.755079 554.852148,328.997767 551.224227,324.824961 C557.096293,322.384684 561.961977,320.788346 561.923788,312.163653 L561.802483,284.155169 L604.38283,284.155169 L604.081813,293.583612 L604.288481,316.923644 C604.313191,319.739004 605.661026,319.580487 607.655822,319.580487 L620.729819,319.580487 Z M585.24133,366.767359 C589.731866,362.208305 593.166598,356.631168 594.786246,350.748158 L575.512209,350.748158 C577.286858,356.78522 581.07652,361.913597 585.24133,366.767359 L585.24133,366.767359 Z M574.60242,375.646573 C568.256365,367.821165 563.197492,361.212547 559.848123,350.748158 L555.418239,350.748158 L555.418239,337.573342 L607.388501,337.573342 L611.393817,341.397857 L611.393817,347.647019 C606.948208,359.71891 603.073183,365.233534 596.158791,375.514847 C605.766607,382.295378 611.537586,384.188658 623.351357,386.631168 C620.664673,391.690333 619.240461,395.367493 618.40705,397.617995 L616.870519,401.761777 C611.476933,400.321724 606.546104,398.555704 602.140931,396.50614 C597.717787,394.434249 594.381896,392.496316 592.11978,390.707971 L585.553578,385.80509 C582.442326,388.093548 580.01847,389.814914 578.279763,390.949096 C576.541056,392.060951 573.571327,393.739897 569.350358,395.916722 C565.127142,398.120339 562.296689,399.428667 560.881463,399.841706 L554.13555,402.219469 C553.407719,399.995758 552.720323,398.120339 552.055391,396.550793 C551.388213,395.00134 549.427114,391.732753 546.194557,386.765126 C552.356408,385.959143 557.305208,384.824961 561.043203,383.362581 C564.801415,381.92476 569.327894,379.352757 574.60242,375.646573 L574.60242,375.646573 Z M746.96353,389.453226 C723.565118,380.533825 709.62626,375.175486 705.119999,373.362581 L703.340858,377.568877 C702.956725,378.609288 701.018089,381.574235 697.542922,386.465952 L712.876788,392.04309 C719.748499,394.501228 728.900297,398.595892 740.336675,404.284662 L741.772119,400.542755 C742.520168,398.506586 744.256628,394.809332 746.96353,389.453226 L746.96353,389.453226 Z M687.076985,335.35633 C691.055344,333.364814 694.51254,331.371065 697.462052,329.357223 C700.391346,327.345613 703.947383,323.559053 708.150381,317.979683 C712.393814,322.252958 715.808329,325.374191 718.375954,327.345613 C720.939087,329.31257 725.222955,331.993972 731.223066,335.35633 L687.076985,335.35633 Z M682.085503,335.35633 L668.649837,335.35633 L657.173024,334.847287 L657.597592,343.59031 L657.597592,371.147801 L657.173024,380.953561 L672.32718,380.953561 L671.922829,371.480464 L671.922829,348.658406 L719.930457,348.658406 L719.930457,369.156285 L719.505889,378.674034 L734.195042,378.674034 L733.82888,369.466622 L733.82888,336.46372 C736.982813,337.85912 741.06226,339.120563 746.076205,340.290467 C747.347662,335.311677 748.277668,332.036392 748.863977,330.442286 C749.450285,328.828087 750.317392,326.791918 751.46979,324.33378 C745.671855,324.023443 740.475952,322.960706 735.873096,321.123242 C731.285965,319.285778 727.687246,317.492967 725.124114,315.702389 C722.556488,313.931904 720.213502,311.938156 718.050228,309.701049 C715.909417,307.488502 714.757018,306.070775 714.615495,305.47466 C714.473973,304.853985 714.41332,304.280196 714.41332,303.704175 L728.981167,303.704175 C727.869204,306.316365 726.577529,309.017861 725.061215,311.826524 C730.859151,313.686314 735.10483,315.302746 737.789268,316.673588 C740.599503,310.167671 743.549015,303.617102 746.680484,297.041974 L741.590162,290.156508 L700.211635,290.156508 C701.66505,287.876981 703.138682,285.597455 704.654996,283.360348 C699.319817,282.324403 694.449641,280.85979 690.026497,279 L689.01562,281.790802 C687.984527,284.735655 686.248066,287.943961 683.74334,291.397857 C681.256585,294.84952 677.59946,298.524447 672.751748,302.420406 C676.651483,305.653271 679.115774,307.843492 680.167085,308.970976 C681.218396,310.100692 682.33036,311.319714 683.520947,312.66823 C685.965021,309.857334 688.512429,306.87006 691.158678,303.704175 L699.906125,303.704175 L698.369594,307.535387 C697.340747,310.254744 695.503198,312.936146 692.834486,315.52601 C690.168019,318.113641 687.582423,319.928779 685.057479,320.96919 C682.532535,322.0096 678.630554,323.11699 673.338056,324.33378 C676.853658,328.140433 679.014687,330.663318 679.843605,331.88234 C680.670277,333.121456 681.418325,334.271266 682.085503,335.35633 L682.085503,335.35633 Z M649.717252,403.06564 C648.486229,398.084617 647.495571,394.744586 646.68687,393.018754 L644.161926,387.439384 C659.781085,387.57111 670.28521,385.668899 675.683288,381.750614 C681.05441,377.854655 684.430736,373.715338 685.805527,369.332664 C687.157855,364.972315 687.964309,360.388703 688.247355,355.588524 L688.492211,351.64568 C691.055344,352.422639 693.200647,352.99866 694.914644,353.396071 C696.633133,353.773387 699.726414,354.237776 704.169776,354.746818 C703.421728,358.133735 702.592809,361.853315 701.685267,365.968073 C700.775479,370.085064 699.281629,374.402992 697.179006,378.939719 C695.096602,383.476446 691.846073,387.506363 687.418436,391.002679 C682.997538,394.501228 677.439966,397.26747 670.750213,399.303639 C664.064953,401.339808 657.053966,402.578924 649.717252,403.06564 L649.717252,403.06564 Z M642.969092,293.014289 C649.840803,297.46171 655.942002,302.065416 661.256964,306.825407 L663.68082,302.75307 C664.386187,301.491628 666.428156,298.767805 669.782018,294.563742 C663.862777,289.937709 657.880638,285.577361 651.840091,281.482697 L649.962108,284.447645 C648.80971,286.307435 646.486941,289.16075 642.969092,293.014289 L642.969092,293.014289 Z M638.28312,327.187095 C643.939533,324.378433 649.535294,320.991516 655.072648,317.008484 C660.610003,313.023219 664.426622,309.98906 666.529244,307.865818 L671.316304,303.195133 C672.185657,305.784997 672.97414,307.952891 673.681754,309.678723 C674.407338,311.406787 675.640607,313.70864 677.417502,316.564188 C665.65989,325.639875 655.173736,334.027908 645.981503,341.708194 C645.314325,339.850636 644.626929,338.144898 643.939533,336.595445 C643.252138,335.045992 641.374154,331.904666 638.28312,327.187095 L638.28312,327.187095 Z M829.556597,284.677607 C834.48518,285.465729 839.779924,285.735879 845.41612,285.465729 C845.297061,287.314356 845.254379,288.979906 845.274597,290.466845 C845.274597,291.929225 845.456555,293.77562 845.759817,296.006028 C846.083298,298.21411 847.154826,302.020764 848.992375,307.403662 C850.829923,312.808886 853.455954,317.245144 856.872715,320.736995 C860.28723,324.251172 863.054784,326.796383 865.218059,328.439607 C867.35887,330.060505 869.259317,331.321947 870.894689,332.199375 C872.532309,333.079035 875.623343,334.184193 880.167793,335.557267 C879.138945,336.999553 878.148287,338.461933 877.238498,339.90422 C876.308492,341.368832 874.309204,345.534941 871.21817,352.449431 C864.833926,349.16075 859.157295,345.197812 854.165814,340.603036 C849.19455,336.006028 845.297061,331.388926 842.486825,326.75173 C839.658619,322.112302 837.394256,317.403662 835.678013,312.652601 C833.961771,307.921634 832.748719,303.958696 832.061324,300.828533 C831.373928,297.673811 830.545009,292.288681 829.556597,284.677607 L829.556597,284.677607 Z M779.772074,382.201608 L781.95332,386.166778 C783.307894,388.555704 784.80399,392.878098 786.459581,399.162983 C790.399751,398.057825 793.933325,397.294262 797.026605,396.863362 C800.11764,396.414601 808.460737,395.537173 822.040172,394.231078 C835.617361,392.900424 846.060834,392.020764 853.397548,391.572003 C855.457489,395.264791 856.791845,397.810002 857.438806,399.207636 C858.065549,400.58071 858.730481,402.179281 859.44034,403.983255 L862.693115,400.694575 C862.852609,400.513731 866.26937,397.676044 872.934413,392.181514 C866.711909,381.933691 858.308159,368.845948 847.720917,352.922751 L845.297061,354.949989 C843.760529,356.323063 840.16181,358.283322 834.527861,360.828533 L839.436226,367.428221 C840.647031,369.049118 843.032698,372.786559 846.525837,378.642777 C832.142194,379.343827 817.453041,379.948873 802.503307,380.422192 C807.27015,375.197812 811.190102,370.533825 814.220484,366.481581 C817.250866,362.404778 820.240813,358.147131 823.149889,353.710873 L829.132029,344.407457 C829.877831,343.259879 831.03023,341.525117 832.566762,339.183077 C827.233829,336.233758 822.14126,332.808886 817.230648,328.890601 L816.181584,332.268587 C815.653682,333.844831 814.240702,337.202724 811.915687,342.315472 C809.572701,347.448314 807.007322,352.110069 804.217304,356.300737 C801.409315,360.511498 798.621543,364.34271 795.833772,367.832329 C793.066218,371.301853 790.723231,373.889484 788.865466,375.579594 C786.985236,377.269703 783.954855,379.475553 779.772074,382.201608 L779.772074,382.201608 Z M778.457935,350.533825 C774.5582,344.724492 771.669341,340.940165 769.831793,339.183077 L766.862063,336.34539 C771.568253,334.228846 776.397994,330.58071 781.387229,325.400982 C786.378711,320.196696 790.824319,314.632954 794.681373,308.709757 C798.560891,302.764233 801.510402,296.682518 803.572589,290.489172 L804.866511,286.660192 C809.714223,289.968966 814.624835,292.491851 819.616316,294.248939 C815.188679,302.51641 811.412495,309.453226 808.301243,315.039294 C805.187745,320.625363 800.68373,326.75173 794.804924,333.440723 C788.923872,340.129716 783.467388,345.827417 778.457935,350.533825 L778.457935,350.533825 Z M919.140435,368.794597 L948.790553,368.794597 L948.790553,350.949096 L919.140435,350.949096 L919.140435,368.794597 Z M904.208672,382.215003 L964.4479,382.215003 L964.4479,335.249163 L904.208672,335.249163 L904.208672,382.215003 Z M898.839797,301.467069 L978.034074,301.467069 L978.034074,380.294932 C978.034074,384.851753 978.991037,387.254075 974.296079,387.350078 C970.933232,387.417057 967.478282,387.175932 964.113188,387.010717 C965.732836,391.681402 967.891618,395.224604 968.127489,402.889261 C982.050622,402.978567 993.298303,400.152043 993.298303,388.586961 L993.298303,286.04175 L898.839797,286.04175 L898.839797,301.467069 Z M894.780568,327.133512 L970.993884,327.133512 L970.993884,311.83992 L894.780568,311.83992 L894.780568,327.133512 Z M129.192453,434.231078 L129.192453,441.179058 L148.805695,441.179058 L148.805695,446.253851 L123.825824,446.253851 L123.825824,417.548783 L148.805695,417.548783 L148.805695,422.623577 L129.192453,422.623577 L129.192453,429.156285 L146.202128,429.156285 L146.202128,434.231078 L129.192453,434.231078 Z M108.997395,423.081268 L108.997395,446.260549 L103.109604,446.260549 L103.109604,423.081268 L93.6478039,423.081268 L93.6478039,417.673811 L118.677095,417.673811 L118.677095,423.081268 L108.997395,423.081268 Z M82.2024404,435.104041 L78.0398774,423.219692 L73.5178918,435.104041 L82.2024404,435.104041 Z M72.0173024,440.181067 L69.5440256,446.273945 L63.9258011,446.273945 L74.2187659,417.568877 L81.8632353,417.568877 L91.5878631,446.273945 L85.7090572,446.273945 L83.5794783,440.181067 L72.0173024,440.181067 Z M52.069348,423.081268 L52.069348,446.260549 L46.1838029,446.260549 L46.1838029,423.081268 L36.7197565,423.081268 L36.7197565,417.673811 L61.7490479,417.673811 L61.7490479,423.081268 L52.069348,423.081268 Z M180.821263,422.333333 L180.821263,441.386693 L187.394204,441.386693 C188.014208,441.386693 188.7353,441.304086 189.548493,441.12994 C190.363934,440.962492 191.159156,440.658852 191.929668,440.221255 C192.693441,439.776959 193.365112,439.147354 193.942435,438.321277 C194.519757,437.497432 194.944325,436.526234 195.211646,435.409913 C195.478966,434.293592 195.631721,433.161643 195.658678,432.018531 C195.687881,430.882117 195.645199,429.881893 195.530633,429.031257 C195.398096,428.218576 195.191428,427.430453 194.888166,426.673588 C194.584903,425.916722 194.180552,425.258093 193.668375,424.704398 C193.162937,424.148471 192.630542,423.706408 192.066698,423.378209 C191.498361,423.047779 190.768284,422.791025 189.867481,422.610181 C188.964432,422.422639 188.207398,422.333333 187.603119,422.333333 L180.821263,422.333333 Z M175.367025,417.631391 L187.985005,417.631391 C188.915011,417.631391 189.887699,417.713999 190.898575,417.888145 C191.91619,418.055593 192.830471,418.276624 193.661636,418.546774 C194.483815,418.816923 195.436285,419.352757 196.523538,420.14088 C197.606299,420.933467 198.486884,421.889038 199.165295,423.012056 C199.843705,424.135075 200.355882,425.459031 200.708565,426.97946 C201.061249,428.488725 201.234221,430.216789 201.243349,432.143559 C201.249946,434.070328 201.018567,435.881 200.535593,437.559946 C200.059358,439.180844 199.410151,440.540522 198.594711,441.643447 C197.772532,442.739674 196.849265,443.639428 195.804693,444.353874 C194.757875,445.061621 193.623447,445.546104 192.392425,445.79616 C191.159156,446.046216 189.759654,446.171244 188.19392,446.171244 L175.367025,446.171244 L175.367025,417.631391 Z M212.331394,434.231078 L212.331394,441.179058 L231.944636,441.179058 L231.944636,446.253851 L206.964765,446.253851 L206.964765,417.548783 L231.944636,417.548783 L231.944636,422.623577 L212.331394,422.623577 L212.331394,429.156285 L229.338822,429.156285 L229.338822,434.231078 L212.331394,434.231078 Z M248.837498,439.868497 L256.677404,417.562179 L262.886429,417.562179 L252.319405,446.267247 L245.409505,446.267247 L235.651181,417.562179 L241.839989,417.562179 L248.837498,439.868497 Z M273.534324,434.231078 L273.534324,441.179058 L293.147566,441.179058 L293.147566,446.253851 L268.167695,446.253851 L268.167695,417.548783 L293.147566,417.548783 L293.147566,422.623577 L273.534324,422.623577 L273.534324,429.156285 L290.541752,429.156285 L290.541752,434.231078 L273.534324,434.231078 Z M298.022235,417.479571 L303.734808,417.479571 L303.734808,440.596338 L321.263399,440.596338 L321.263399,446.253851 L298.022235,446.253851 L298.022235,417.479571 Z M337.075747,441.435812 C338.145029,441.498326 339.234529,441.357669 340.337507,441.02054 C341.449471,440.672248 342.449115,440.040411 343.358904,439.125028 C344.268692,438.211878 344.875218,437.053137 345.176234,435.64434 C345.481743,434.231078 345.623266,432.936146 345.609788,431.741683 C345.573845,430.105157 345.328989,428.732083 344.895435,427.631391 C344.455142,426.526234 343.916009,425.604153 343.264555,424.862916 C342.617594,424.128377 341.844836,423.518866 340.950772,423.038848 C340.054462,422.554365 339.016629,422.290913 337.835027,422.235097 C336.78147,422.19491 335.815522,422.333333 334.941675,422.64367 C334.067829,422.95624 333.261375,423.400536 332.517819,423.976557 C331.783249,424.552579 331.140781,425.307211 330.585923,426.249386 C330.037803,427.184863 329.705337,428.149364 329.581786,429.122795 C329.46722,430.098459 329.408814,430.998214 329.424538,431.824291 C329.438017,432.960706 329.552583,434.077026 329.761497,435.168788 C329.972658,436.256084 330.390487,437.274168 331.010491,438.225273 C331.630495,439.169681 332.481877,439.922081 333.555652,440.484706 C334.631673,441.045099 335.806536,441.3666 337.075747,441.435812 L337.075747,441.435812 Z M337.623867,446.550793 C335.678492,446.566421 333.946524,446.302969 332.416732,445.769368 C330.886939,445.233534 329.525626,444.402992 328.335039,443.277741 C327.144451,442.154722 326.214445,440.998214 325.549514,439.805983 C324.880089,438.613753 324.424072,437.394731 324.1882,436.137754 C323.941097,434.889708 323.84001,433.552355 323.869213,432.130163 C323.898416,430.243581 324.10733,428.620451 324.511681,427.263005 C324.916031,425.903327 325.441687,424.704398 326.084155,423.655057 C326.733362,422.614646 327.620686,421.632284 328.737143,420.703505 C329.855846,419.774727 331.140781,419.017861 332.576225,418.428444 C334.011669,417.839027 335.649289,417.519759 337.480098,417.479571 C339.124456,417.466175 340.705915,417.720697 342.219983,418.236437 C343.734051,418.747712 345.068407,419.482251 346.223052,420.440054 C347.384437,421.391159 348.393066,422.596785 349.260173,424.045769 C350.125034,425.494753 350.688878,426.867828 350.947213,428.178388 C351.207795,429.482251 351.331346,430.799509 351.315621,432.130163 C351.279679,434.161866 350.99888,435.985934 350.470978,437.600134 C349.952062,439.223264 349.332058,440.513731 348.604227,441.48493 C347.87415,442.453896 346.973347,443.329091 345.899572,444.110516 C344.823551,444.903103 343.583543,445.503684 342.177302,445.921188 C340.7778,446.343157 339.261486,446.550793 337.623867,446.550793 L337.623867,446.550793 Z M361.781558,430.111855 L371.58481,430.111855 C372.53054,430.111855 373.244893,429.960036 373.734606,429.654164 C374.21758,429.348292 374.592728,428.837017 374.853309,428.102478 C375.111644,427.372405 375.241935,426.720473 375.241935,426.15115 C375.228456,425.383121 375.03976,424.68877 374.671351,424.072561 C374.30519,423.454119 373.887361,423.047779 373.40214,422.831212 C372.925905,422.623577 372.44967,422.514177 371.966696,422.498549 L361.781558,422.498549 L361.781558,430.111855 Z M361.781558,435.104041 L361.781558,446.233758 L356.329567,446.233758 L356.329567,417.591203 L370.991762,417.591203 C371.910537,417.591203 372.932645,417.653717 374.060333,417.783211 C375.183529,417.908238 376.273028,418.2476 377.310861,418.79683 C378.357679,419.343827 379.195583,420.252512 379.829066,421.534048 C380.464794,422.811119 380.804,424.260103 380.85342,425.881 C380.905087,427.50413 380.71639,428.912927 380.291822,430.120786 C379.757181,431.616656 379.02935,432.712882 378.099344,433.400536 C377.167092,434.092655 376.194405,434.550346 375.17005,434.771378 C374.145696,434.992409 372.752933,435.104041 370.991762,435.104041 L361.781558,435.104041 Z M399.806223,437.961822 L404.653936,417.479571 L414.369578,417.479571 L414.369578,446.184639 L409.306212,446.184639 L409.306212,422.395847 L402.569285,446.184639 L397.216134,446.184639 L389.569418,422.395847 L389.569418,446.184639 L384.378008,446.184639 L384.378008,417.479571 L393.797127,417.479571 L399.806223,437.961822 Z M425.358924,434.231078 L425.358924,441.179058 L444.96992,441.179058 L444.96992,446.253851 L419.990049,446.253851 L419.990049,417.548783 L444.96992,417.548783 L444.96992,422.623577 L425.358924,422.623577 L425.358924,429.156285 L442.366352,429.156285 L442.366352,434.231078 L425.358924,434.231078 Z M450.199519,417.562179 L455.752598,417.562179 L468.161663,435.680063 L468.161663,417.562179 L473.786627,417.562179 L473.786627,446.184639 L468.152678,446.184639 L455.566147,427.539853 L455.566147,446.267247 L450.199519,446.267247 L450.199519,417.562179 Z M493.305521,423.081268 L493.305521,446.260549 L487.419975,446.260549 L487.419975,423.081268 L477.955929,423.081268 L477.955929,417.673811 L502.985221,417.673811 L502.985221,423.081268 L493.305521,423.081268 Z M563.022274,446.184639 L568.952746,446.184639 L568.952746,417.479571 L563.022274,417.479571 L563.022274,446.184639 Z M574.234012,417.562179 L579.787092,417.562179 L592.19391,435.680063 L592.19391,417.562179 L597.821121,417.562179 L597.821121,446.184639 L592.187171,446.184639 L579.598395,427.539853 L579.598395,446.267247 L574.234012,446.267247 L574.234012,417.562179 Z M615.046449,439.868497 L622.886354,417.562179 L629.09538,417.562179 L618.528355,446.267247 L611.618456,446.267247 L601.857886,417.562179 L608.046694,417.562179 L615.046449,439.868497 Z M638.790805,434.231078 L638.790805,441.179058 L658.4018,441.179058 L658.4018,446.253851 L633.421929,446.253851 L633.421929,417.548783 L658.4018,417.548783 L658.4018,422.623577 L638.790805,422.623577 L638.790805,429.156285 L655.798233,429.156285 L655.798233,434.231078 L638.790805,434.231078 Z M680.719698,425.849743 C680.510783,425.175486 680.28839,424.65528 680.054766,424.289127 C679.818895,423.918509 679.477443,423.6238 679.032658,423.384907 C678.57664,423.143782 677.943158,422.965171 677.127718,422.831212 C676.312278,422.706184 675.505823,422.630275 674.71734,422.603483 C673.520014,422.574459 672.403557,422.679393 671.372463,422.929449 C670.332384,423.172806 669.597814,423.525564 669.155275,423.989953 C668.723968,424.46104 668.479112,424.952221 668.420705,425.47466 C668.362299,425.992632 668.434184,426.436928 668.62962,426.803081 C668.840781,427.26747 669.155275,427.609065 669.57535,427.843492 C669.98644,428.073454 670.655865,428.294485 671.581378,428.511052 C672.504645,428.732083 673.326824,428.899531 674.03893,429.017861 L677.359096,429.529136 C678.65751,429.745702 679.897518,430.035946 681.088106,430.404331 C682.276447,430.763787 683.368193,431.297388 684.354359,431.998437 C685.342771,432.690556 686.086326,433.523331 686.589518,434.487832 C687.103941,435.445635 687.317349,436.707077 687.247711,438.265461 C687.160101,439.805983 686.807418,441.136638 686.180675,442.252958 C685.551685,443.369279 684.781173,444.21545 683.862399,444.784773 C682.954857,445.351864 681.901299,445.749274 680.719698,445.963608 C679.538096,446.177942 678.289102,446.309667 676.974963,446.349855 C675.793361,446.385577 674.58031,446.378879 673.333563,446.316365 C672.084569,446.253851 670.988331,446.115428 670.044846,445.898861 C669.105855,445.684528 668.146646,445.282652 667.180697,444.699933 C666.221488,444.117214 665.363367,443.271043 664.619811,442.16142 C663.869517,441.05403 663.415746,439.868497 663.242773,438.607055 L662.923786,436.720473 L668.840781,436.720473 C668.89694,437.231748 668.982303,437.760884 669.099115,438.301183 C669.206942,438.84818 669.496727,439.39741 669.966223,439.951105 C670.426733,440.5048 671.183767,440.915606 672.223846,441.185756 C673.268418,441.455905 674.58031,441.560839 676.175248,441.491628 C677.327647,441.449207 678.338523,441.304086 679.196644,441.05403 C680.054766,440.803974 680.656799,440.422192 680.987018,439.897522 C681.312745,439.375084 681.463253,438.758875 681.440789,438.037732 C681.413832,437.510828 681.290281,437.079929 681.07912,436.740567 C680.863467,436.401206 680.546725,436.102032 680.12665,435.851976 C679.702082,435.604153 679.133745,435.380889 678.417146,435.186649 C677.696055,434.985711 676.651483,434.76468 675.26546,434.510159 C673.888422,434.244474 672.560804,433.994418 671.284854,433.746595 C670.006658,433.496539 668.840781,433.224157 667.787223,432.940612 C666.72468,432.657066 665.862066,432.261889 665.190395,431.761777 C664.511985,431.263898 663.999807,430.694575 663.651617,430.056039 C663.307919,429.417504 663.074294,428.781201 662.961975,428.149364 C662.838423,427.513061 662.793495,426.816477 662.822698,426.07524 C662.917047,424.114981 663.422485,422.574459 664.323288,421.464836 C665.224091,420.357446 666.221488,419.540299 667.308742,419.017861 C668.400488,418.490958 669.537162,418.124805 670.723256,417.901541 C671.904858,417.673811 673.30436,417.562179 674.906037,417.562179 C676.615541,417.575575 678.11613,417.736325 679.407805,418.042197 C680.706219,418.343603 681.793473,418.790132 682.674058,419.370618 C683.554643,419.953338 684.354359,420.687877 685.068711,421.585399 C685.792049,422.478455 686.187414,423.275508 686.259298,423.983255 L686.533358,425.849743 L680.719698,425.849743 Z M705.769207,423.081268 L705.769207,446.260549 L699.883661,446.260549 L699.883661,423.081268 L690.419615,423.081268 L690.419615,417.673811 L715.451153,417.673811 L715.451153,423.081268 L705.769207,423.081268 Z M735.473238,437.961822 L740.320951,417.479571 L750.036593,417.479571 L750.036593,446.184639 L744.970981,446.184639 L744.970981,422.395847 L738.234053,446.184639 L732.885396,446.184639 L725.236433,422.395847 L725.236433,446.184639 L720.045023,446.184639 L720.045023,417.479571 L729.464142,417.479571 L735.473238,437.961822 Z M761.275288,434.231078 L761.275288,441.179058 L780.88853,441.179058 L780.88853,446.253851 L755.90866,446.253851 L755.90866,417.548783 L780.88853,417.548783 L780.88853,422.623577 L761.275288,422.623577 L761.275288,429.156285 L778.284963,429.156285 L778.284963,434.231078 L761.275288,434.231078 Z M785.163413,417.562179 L790.718739,417.562179 L803.125558,435.680063 L803.125558,417.562179 L808.752768,417.562179 L808.752768,446.184639 L803.118818,446.184639 L790.532288,427.539853 L790.532288,446.267247 L785.163413,446.267247 L785.163413,417.562179 Z M828.875941,423.081268 L828.875941,446.260549 L822.990396,446.260549 L822.990396,423.081268 L813.526349,423.081268 L813.526349,417.673811 L838.557887,417.673811 L838.557887,423.081268 L828.875941,423.081268 Z M893.147441,427.539853 L887.378708,427.559946 C887.255157,427.236213 887.104649,426.86113 886.938416,426.436928 C886.765444,426.021657 886.361093,425.459031 885.711886,424.76468 C885.062679,424.065863 884.195572,423.50547 883.121797,423.081268 C882.039036,422.650368 880.873159,422.471757 879.601702,422.540969 C877.503572,422.672695 875.850228,423.266577 874.639424,424.329315 C873.426372,425.383121 872.541294,426.561956 871.984189,427.865818 C871.42933,429.162983 871.139546,430.611967 871.119328,432.219469 C871.096865,433.822505 871.334982,435.215673 871.824695,436.394508 C872.417743,437.870284 873.33427,439.04242 874.581017,439.917616 C875.827765,440.790578 877.373282,441.297388 879.197351,441.435812 C880.749608,441.567537 882.0615,441.393391 883.142015,440.915606 C884.218036,440.435588 885.089636,439.750167 885.754568,438.870507 C886.410514,437.988614 886.814864,437.213887 886.958633,436.539629 L887.378708,434.751284 L893.235051,434.751284 C893.035122,435.860906 892.823961,436.858897 892.599322,437.747488 C892.376929,438.633847 891.907433,439.70998 891.193081,440.962492 C890.478728,442.226167 889.591404,443.259879 888.517629,444.06363 C887.448347,444.867381 886.19486,445.485823 884.759416,445.921188 C883.321726,446.349855 881.506642,446.550793 879.305178,446.510605 C877.530529,446.483813 875.996244,446.289574 874.695583,445.927886 C873.406155,445.575128 872.143683,444.979013 870.917153,444.146238 C869.690624,443.313463 868.652791,442.259656 867.801409,440.998214 C866.950026,439.730074 866.330022,438.348069 865.954875,436.849967 C865.572988,435.354097 865.393277,433.786783 865.42248,432.150257 C865.462915,429.924313 865.869512,427.901541 866.626546,426.061844 C867.390319,424.231078 868.434891,422.679393 869.762508,421.40902 C871.096865,420.147578 872.545787,419.205403 874.120507,418.589194 C875.692981,417.970752 877.496833,417.631391 879.536557,417.562179 C881.398815,417.519759 883.092594,417.727395 884.62014,418.17169 C886.152179,418.622684 887.479796,419.281313 888.618716,420.156508 C889.750898,421.029471 890.674164,421.991739 891.395256,423.047779 C892.107362,424.10605 892.55664,425.016968 892.722873,425.791695 L893.147441,427.539853 Z M911.85988,441.435812 C912.926916,441.498326 914.016416,441.357669 915.121641,441.02054 C916.231358,440.672248 917.233248,440.040411 918.143037,439.125028 C919.052825,438.211878 919.657105,437.053137 919.960367,435.64434 C920.26363,434.231078 920.407399,432.936146 920.391675,431.741683 C920.357979,430.105157 920.110876,428.732083 919.679568,427.631391 C919.239276,426.526234 918.697896,425.604153 918.048688,424.862916 C917.399481,424.128377 916.628969,423.518866 915.734905,423.038848 C914.840842,422.554365 913.800763,422.290913 912.616914,422.235097 C911.565603,422.19491 910.597409,422.333333 909.723562,422.64367 C908.854209,422.95624 908.045508,423.400536 907.301953,423.976557 C906.565136,424.552579 905.924915,425.307211 905.370056,426.249386 C904.821937,427.184863 904.487224,428.149364 904.365919,429.122795 C904.251353,430.098459 904.190701,430.998214 904.206425,431.824291 C904.22215,432.960706 904.336716,434.077026 904.547877,435.168788 C904.754545,436.256084 905.17462,437.274168 905.792378,438.225273 C906.414628,439.169681 907.26601,439.922081 908.339785,440.484706 C909.415807,441.045099 910.590669,441.3666 911.85988,441.435812 L911.85988,441.435812 Z M912.410246,446.550793 C910.460379,446.566421 908.730657,446.302969 907.200865,445.769368 C905.671073,445.233534 904.307513,444.402992 903.116926,443.277741 C901.928585,442.154722 900.998579,440.998214 900.333647,439.805983 C899.664222,438.613753 899.210451,437.394731 898.970087,436.137754 C898.725231,434.889708 898.624143,433.552355 898.653346,432.130163 C898.680303,430.243581 898.891464,428.620451 899.295814,427.263005 C899.697918,425.903327 900.22582,424.704398 900.868288,423.655057 C901.517495,422.614646 902.402573,421.632284 903.523523,420.703505 C904.642225,419.774727 905.924915,419.017861 907.360359,418.428444 C908.793556,417.839027 910.433422,417.519759 912.264231,417.479571 C913.910836,417.466175 915.490049,417.720697 917.004116,418.236437 C918.518184,418.747712 919.852541,419.482251 921.007186,420.440054 C922.166324,421.391159 923.179446,422.596785 924.04206,424.045769 C924.909167,425.494753 925.470765,426.867828 925.731347,428.178388 C925.989682,429.482251 926.113233,430.799509 926.099755,432.130163 C926.063812,434.161866 925.783014,435.985934 925.255112,437.600134 C924.736195,439.223264 924.116191,440.513731 923.386114,441.48493 C922.658283,442.453896 921.75748,443.329091 920.681459,444.110516 C919.607684,444.903103 918.367676,445.503684 916.959189,445.921188 C915.561933,446.343157 914.045619,446.550793 912.410246,446.550793 L912.410246,446.550793 Z M937.491205,430.404331 L945.964593,430.404331 C947.033875,430.404331 947.876272,430.263675 948.489536,429.986827 C949.102801,429.703282 949.644182,429.245591 950.106938,428.607055 C950.574188,427.970752 950.733681,427.095557 950.589912,425.992632 C950.482086,425.16209 950.176576,424.481134 949.693602,423.963161 C949.210628,423.436258 948.635552,423.081268 947.984098,422.900424 C947.330399,422.712882 946.708148,422.623577 946.130826,422.623577 L937.491205,422.623577 L937.491205,430.404331 Z M937.491205,435.104041 L937.491205,446.253851 L931.863995,446.253851 L931.863995,417.631391 L947.725763,417.631391 C948.640045,417.631391 949.628457,417.772047 950.684261,418.042197 C951.742311,418.310114 952.746448,418.816923 953.696671,419.55816 C954.649141,420.299397 955.36574,421.243804 955.853207,422.389149 C956.336181,423.532262 956.59227,424.800402 956.610241,426.19357 C956.632705,427.588971 956.42379,428.794597 955.970019,429.805983 C955.507263,430.832998 954.959143,431.596562 954.341386,432.081045 L953.265364,432.976334 C953.755078,433.322393 954.159428,433.641661 954.46943,433.918509 C954.779432,434.197589 955.031028,434.521322 955.226464,434.889708 C955.428639,435.264791 955.601611,435.722483 955.747627,436.262782 C955.898135,436.803081 955.970019,437.238446 955.970019,437.566644 L955.970019,446.233758 L950.430419,446.233758 L950.430419,440.810672 C950.430419,440.056039 950.372012,439.361688 950.264186,438.736548 C950.147373,438.120339 949.947444,437.573342 949.659906,437.108953 C949.370122,436.637866 949.037656,436.276178 948.662509,436.019424 C948.287361,435.76267 947.817865,435.546104 947.256268,435.380889 C946.685684,435.208975 946.058941,435.117437 945.364806,435.104041 L937.491205,435.104041 Z M968.969886,430.111855 L978.773137,430.111855 C979.716621,430.111855 980.43322,429.960036 980.922934,429.654164 C981.403661,429.348292 981.778809,428.837017 982.041636,428.102478 C982.299971,427.372405 982.430262,426.720473 982.430262,426.15115 C982.416784,425.383121 982.228087,424.68877 981.859679,424.072561 C981.493517,423.454119 981.073442,423.047779 980.590468,422.831212 C980.114233,422.623577 979.637998,422.514177 979.152777,422.498549 L968.969886,422.498549 L968.969886,430.111855 Z M968.969886,435.104041 L968.969886,446.233758 L963.517894,446.233758 L963.517894,417.591203 L978.182336,417.591203 C979.096617,417.591203 980.120972,417.653717 981.246414,417.783211 C982.371856,417.908238 983.459109,418.2476 984.499188,418.79683 C985.546007,419.343827 986.381664,420.252512 987.017393,421.534048 C987.653122,422.811119 987.990081,424.260103 988.041748,425.881 C988.093415,427.50413 987.904718,428.912927 987.48015,430.120786 C986.945509,431.616656 986.215431,432.712882 985.285425,433.400536 C984.355419,434.092655 983.380486,434.550346 982.356131,434.771378 C981.331777,434.992409 979.941261,435.104041 978.182336,435.104041 L968.969886,435.104041 Z M991.725829,449 L998,449 L998,442.924983 L991.725829,442.924983 L991.725829,449 Z M535.016514,441.315249 C533.706867,442.420406 531.992871,443.014289 529.879017,443.11699 C526.960955,442.918285 525.399713,441.567537 525.195291,439.062514 C525.195291,437.160304 526.051166,435.463496 527.765163,433.958696 L535.016514,441.315249 Z M540.756043,446.87006 L548.007394,446.87006 L542.265618,441.163429 C543.979615,438.665104 545.18368,435.809556 545.884555,432.605716 C546.091223,431.607725 546.091223,431.511721 545.884555,432.311007 C546.091223,431.107613 546.187817,430.205626 546.187817,429.609511 L540.151764,429.609511 L540.151764,430.960259 C540.04843,431.556374 539.994517,432.0096 539.994517,432.311007 C539.796834,434.414155 539.34531,436.059612 538.637696,437.263005 L532.900413,431.556374 C536.427247,429.654164 538.235592,427.303193 538.338926,424.503461 C538.132258,420.701273 535.31753,418.703059 529.879017,418.497656 C524.440503,418.799062 521.625775,420.803974 521.425846,424.503461 C521.522441,426.905783 522.681579,428.906229 524.898767,430.507033 C520.870988,433.009824 518.851482,435.963608 518.851482,439.361688 C519.053657,444.367269 522.681579,446.972762 529.730755,447.171467 C533.455272,447.068765 536.427247,446.119893 538.637696,444.320384 L540.756043,446.87006 Z M530.027279,428.56017 C528.120092,427.05537 527.10697,425.802858 527.010375,424.804867 C527.10697,423.300067 528.068425,422.500781 529.879017,422.404778 C531.792942,422.404778 532.747658,423.154945 532.747658,424.653048 C532.651064,426.055146 531.741275,427.354543 530.027279,428.56017 L530.027279,428.56017 Z M24.9059848,425.849743 C24.6970704,425.175486 24.4724313,424.65528 24.2432994,424.289127 C24.0051819,423.918509 23.6637304,423.6238 23.2189449,423.384907 C22.7629275,423.143782 22.1294452,422.965171 21.3140052,422.831212 C20.4985651,422.706184 19.6898643,422.630275 18.9036273,422.603483 C17.7063008,422.574459 16.5875979,422.679393 15.5565043,422.929449 C14.5186716,423.172806 13.7818552,423.525564 13.3438089,423.989953 C12.9102554,424.46104 12.6653988,424.952221 12.6069926,425.47466 C12.5485864,425.992632 12.6227173,426.436928 12.815907,426.803081 C13.0248214,427.26747 13.3438089,427.609065 13.7616377,427.843492 C14.1727273,428.073454 14.8421519,428.294485 15.7676651,428.511052 C16.6886855,428.732083 17.5108647,428.899531 18.2252172,429.017861 L21.5431371,429.529136 C22.8437976,429.745702 24.0838056,430.035946 25.274393,430.404331 C26.4627339,430.763787 27.5522337,431.297388 28.5406459,431.998437 C29.529058,432.690556 30.2726135,433.523331 30.7780516,434.487832 C31.2879824,435.445635 31.5058823,436.707077 31.4339978,438.265461 C31.3463885,439.805983 30.9914587,441.136638 30.366962,442.252958 C29.7379724,443.369279 28.9674602,444.21545 28.0509326,444.784773 C27.1411441,445.351864 26.0875866,445.749274 24.9059848,445.963608 C23.7221366,446.177942 22.473143,446.309667 21.1612505,446.349855 C19.9796487,446.385577 18.7665975,446.378879 17.5176039,446.316365 C16.2708568,446.253851 15.1746178,446.115428 14.2311335,445.898861 C13.2921419,445.684528 12.3329329,445.282652 11.3669846,444.699933 C10.4055292,444.117214 9.54965409,443.271043 8.80609858,442.16142 C8.0558039,441.05403 7.59978647,439.868497 7.42906073,438.607055 L7.11007317,436.720473 L13.0248214,436.720473 C13.0832275,437.231748 13.1685904,437.760884 13.2854028,438.301183 C13.3932295,438.84818 13.6807676,439.39741 14.1502634,439.951105 C14.6107736,440.5048 15.3700539,440.915606 16.4078866,441.185756 C17.454705,441.455905 18.7665975,441.560839 20.3615353,441.491628 C21.5161804,441.449207 22.52481,441.304086 23.3829315,441.05403 C24.2432994,440.803974 24.8408394,440.422192 25.1733053,439.897522 C25.4967857,439.375084 25.6495403,438.758875 25.6270764,438.037732 C25.5978733,437.510828 25.4743218,437.079929 25.2654074,436.740567 C25.0497538,436.401206 24.7330127,436.102032 24.3129375,435.851976 C23.8883695,435.604153 23.3177862,435.380889 22.6034337,435.186649 C21.8823421,434.985711 20.8355238,434.76468 19.4517468,434.510159 C18.0747089,434.244474 16.7470917,433.994418 15.4711415,433.746595 C14.1929448,433.496539 13.0248214,433.224157 11.9712639,432.940612 C10.9109672,432.657066 10.0461066,432.261889 9.37443557,431.761777 C8.6982718,431.263898 8.18609459,430.694575 7.84015033,430.056039 C7.49420608,429.417504 7.26058139,428.781201 7.14601543,428.149364 C7.0247103,427.513061 6.97978248,426.816477 7.00898557,426.07524 C7.103334,424.114981 7.60877203,422.574459 8.50957493,421.464836 C9.41262422,420.357446 10.4055292,419.540299 11.4972753,419.017861 C12.5845287,418.490958 13.7256955,418.124805 14.9072973,417.901541 C16.0911455,417.673811 17.4906472,417.562179 19.0923242,417.562179 C20.8018279,417.575575 22.3024173,417.736325 23.5940923,418.042197 C24.89026,418.343603 25.9820062,418.790132 26.8603452,419.370618 C27.7409306,419.953338 28.5406459,420.687877 29.2549983,421.585399 C29.9760899,422.478455 30.3737011,423.275508 30.4455856,423.983255 L30.7196454,425.849743 L24.9059848,425.849743 Z M23.2346697,365.512614 L33.6017654,365.851976 L49.8858557,365.851976 L49.8858557,348.48426 L37.865416,348.48426 L27.8015831,348.823621 L27.8015831,334.769145 L37.865416,335.039294 L49.8858557,335.039294 L49.8858557,322.357892 L34.8530053,322.357892 L24.7914188,322.764233 L24.7914188,308.573566 L34.8530053,308.890601 L78.3521258,308.890601 L89.244877,308.573566 L89.244877,322.945077 L79.059739,322.357892 L63.7865248,322.357892 L63.7865248,335.039294 L78.3521258,335.039294 L85.8707974,334.769145 L85.8707974,349.026792 L77.1008859,348.48426 C78.2937196,350.040411 79.2214792,351.143336 79.8909038,351.864479 L83.9703504,356.209198 L86.8210209,359.386247 C85.1227491,361.321947 83.3031721,363.46305 81.3645365,365.851976 L90.134448,365.512614 L90.134448,379.296941 L79.2416967,378.982139 L33.4782139,378.982139 L23.2346697,379.296941 L23.2346697,365.512614 Z" id="Fill-5" fill="#231916" mask="url(#mask-2)"></path>
            </g>
        </g>
    </g>
</svg>