<?xml version="1.0" encoding="UTF-8"?>
<svg width="1025px" height="247px" viewBox="0 0 1025 247" version="1.1" xmlns="http://www.w3.org/2000/svg" xmlns:xlink="http://www.w3.org/1999/xlink">
    <title>国家能源投资集团有限责任公司@2x</title>
    <defs>
        <linearGradient x1="50.0015968%" y1="0.0125904942%" x2="50.0015968%" y2="83.0028329%" id="linearGradient-1">
            <stop stop-color="#F6AB00" offset="0%"></stop>
            <stop stop-color="#D84C14" offset="50%"></stop>
            <stop stop-color="#CC2A1C" offset="75%"></stop>
            <stop stop-color="#C11920" offset="99%"></stop>
            <stop stop-color="#C11920" offset="100%"></stop>
        </linearGradient>
    </defs>
    <g id="页面-1" stroke="none" stroke-width="1" fill="none" fill-rule="evenodd">
        <g id="22.国家能源投资集团有限责任公司" transform="translate(0.000000, -261.000000)">
            <g id="国家能源投资集团有限责任公司" transform="translate(0.000000, 261.000000)">
                <path d="M453,105.222185 L448.737995,105.222185 C447.461793,100.246391 445.79764,95.3763317 443.760545,90.6559283 L431.812622,90.6559283 C433.684913,95.4060088 435.231741,100.275861 436.44257,105.232315 L427.887897,105.232315 L427.887897,88.1843241 L450.373297,88.1843241 L450.373297,77.7205247 L427.887897,77.7205247 L427.887897,65.5650947 L450.833225,65.5650947 L450.833225,55 L391.788611,55 L391.788611,65.5650947 L413.94695,65.5650947 L413.94695,77.7205247 L392.974205,77.7205247 L392.974205,88.1843241 L413.998053,88.1843241 L413.998053,105.222185 L390,105.222185 L390,116 L453,116 L453,105.222185 Z" id="路径" fill="#000000" fill-rule="nonzero"></path>
                <path d="M460.351803,38 L383.826764,38 C378.320125,38 374,41.983871 374,47.0709677 L374,123.632796 C374,129.414516 379.151699,133 383.928176,133 L461.000836,133 C463.429012,132.927923 465.759228,132.01933 467.602718,130.425806 C469.733042,128.695288 470.980014,126.093181 471,123.336559 L471,47.3876344 C471,41.6876344 466.82185,38 460.341662,38 L460.351803,38 Z M456.944381,48.8586022 L456.944381,48.8586022 L456.944381,121.926882 L387.852797,121.926882 L387.852797,48.8688172 L456.944381,48.8586022 Z" id="形状" fill="#000000" fill-rule="nonzero"></path>
                <path d="M635.862127,43.4524127 L622.602629,43.4524127 L628.722397,57.474372 L609.965308,57.474372 L622.602629,38 L607.221612,38 L594.421096,57.6389731 C592.860555,60.1697156 592.574966,62.4741315 593.615327,64.5316457 C594.838826,66.7182683 597.154473,68.0500832 599.643299,67.9985572 L637.912249,67.9985572 C638.065244,67.9985572 641.665707,67.6693549 643.267047,64.9122858 C644.378805,62.9987976 644.22581,60.44748 642.808064,57.330346 C640.992533,53.349056 635.862127,43.4524127 635.862127,43.4524127 Z" id="路径" fill="#000000" fill-rule="nonzero"></path>
                <path d="M640.339404,74.1322358 C638.771874,72.6292102 636.648376,71.8624184 634.490893,72.0203481 L603.467476,72.0203481 C596.080948,72.0203481 596,78.4478325 596,78.5090466 L596,132 L609.154091,132 L609.154091,113.870413 L628.834634,113.870413 L628.834634,121.012062 L615.538884,121.012062 L615.538884,131.755143 L633.681411,131.755143 C639.19601,131.755143 641.998843,129.14334 641.998843,123.99115 L641.998843,78.6008678 C642.029768,76.9698151 641.439512,75.388844 640.349523,74.1832476 L640.339404,74.1322358 Z M628.834634,82.3451325 L628.834634,82.3451325 L628.834634,88.4053321 L609.133854,88.4053321 L609.133854,82.3451325 L628.834634,82.3451325 Z M628.834634,104.167972 L609.133854,104.167972 L609.133854,98.1179752 L628.814397,98.1179752 L628.834634,104.167972 Z" id="形状" fill="#000000" fill-rule="nonzero"></path>
                <path d="M656.092643,82 L691.773842,82 L691.773842,71.0745209 L661.845368,71.0745209 L661.845368,67.3309676 C681.739782,60.2100781 693,42.0009463 693,42.0009463 L678.15327,42.0009463 C678.15327,42.0009463 671.501362,51.5836291 661.804496,54.9609652 L661.804496,39 L648,39 L648,75.0011829 C648.010218,79.4263071 650.952997,82 656.092643,82 Z" id="路径" fill="#000000" fill-rule="nonzero"></path>
                <path d="M662.714286,101.854963 L662.714286,85 L649,85 L649,123.607864 C649,129.101633 651.755102,132 656.969388,132 L692.602041,132 L692.602041,121.052858 L662.714286,121.052858 L662.714286,114.932961 C681.081633,108.055651 694,87.454018 694,87.454018 L679.081633,87.454018 C679.081633,87.454018 672.77551,97.411474 662.714286,101.854963 Z" id="路径" fill="#000000" fill-rule="nonzero"></path>
                <path d="M498.159798,54.6988906 L568.564714,54.6988906 L568.564714,70.4098257 L581.845987,70.4098257 L581.845987,53.7049128 C581.845987,48.1264659 578.211858,44.525832 572.60376,44.525832 L541.273319,44.525832 L541.273319,37 L526.27115,37 L526.27115,44.525832 L495.740419,44.525832 C489.120029,44.525832 485,48.0453249 485,53.7049128 L485,70.4098257 L498.159798,70.4098257 L498.159798,54.6988906 Z M560.355025,99.3264659 C565.497469,108.525832 577.644975,116.650079 583,118.871315 L583,130.971474 C564.778742,125.535024 553.724512,111.974326 547.782357,101.557845 L547.782357,121.183835 C547.782357,129.054517 543.601591,133 535.543745,133 L515.70282,133 L515.70282,122.441521 L531.231381,122.441521 C533.191591,122.389738 534.77614,120.824277 534.855387,118.861173 L534.855387,111.568621 C517.899494,123.202219 491.397686,128.882092 486.700651,129.72393 L486.700651,118.100475 C507.898048,113.211727 521.584237,107.531854 534.855387,98.5353407 C534.673174,95.9388273 534.632683,94.7318542 534.420101,93.4640254 C515.419378,106.264025 490.89154,110.544216 486.700651,111.213629 L486.700651,99.7017433 C492.45047,98.6874802 519.539407,93.6161648 530.684743,82.5708399 C530.219089,81.8304279 529.328272,80.4206022 528.812003,79.7207607 C512.078814,89.4272583 490.739696,92.6019017 486.700651,93.1293185 L486.700651,81.7290016 C491.195228,81.0494453 512.878525,77.4893819 523.092552,69.466561 L502.704989,69.466561 L502.704989,59.3949287 L564.221981,59.3949287 L564.221981,69.466561 L539.623283,69.466561 L539.623283,69.5375594 C538.904555,70.8256735 538.337672,71.7892235 537.932755,72.377496 C539.803445,74.5677652 541.496012,76.9046637 542.994215,79.3657686 L550.849602,79.3657686 C552.131398,83.4537294 553.753384,87.4266818 555.698482,91.2427892 L565.021692,74.2843106 L578.849602,74.2843106 L566.206074,99.3670365 L560.355025,99.3264659 Z" id="形状" fill="#000000" fill-rule="nonzero"></path>
                <polygon id="路径" fill="#000000" fill-rule="nonzero" points="729 87 717.756757 63 703 63 713.4 87"></polygon>
                <polygon id="路径" fill="#000000" fill-rule="nonzero" points="729 60 718.689151 38 704 38 713.366111 60"></polygon>
                <path d="M728,92 L713.534981,92 L713.463118,92.6029412 C710.688777,106.452762 706.513118,119.987445 701,133 L716.265779,133 C724.673764,114.35992 727.897338,92.9810568 727.917871,92.746012 L728,92 Z" id="路径" fill="#000000" fill-rule="nonzero"></path>
                <path d="M800.47193,87.7007584 L800.47193,62.0162514 C800.47193,57.4231853 797.43049,54.8873239 791.905208,54.8873239 L780.803954,54.8873239 L780.803954,49.5304442 L804,49.5304442 L804,39 L741.143581,39 C735.34457,39 732.161196,41.8210184 732.161196,46.9232936 L732.161196,88.1590466 C732.41465,99.5551463 730.802687,117.021018 724.405525,131.859372 L724,132.806501 L738.193385,132.806501 L738.365733,132.378765 C743.21176,120.04572 745.594221,104.596316 745.594221,89.9921993 L745.594221,49.5304442 L768.029907,49.5304442 L768.029907,54.8975081 L758.398682,54.8975081 C753.03561,54.8975081 750.146243,58.5638137 750.146243,62.0264355 L750.146243,87.6192849 C750.146243,94.4019502 754.079838,95.3388949 758.337853,95.3388949 L769.175516,95.3388949 L769.175516,122.469556 L762.403244,122.469556 L762.403244,133 L774.001267,133 C779.364339,133 782.689646,130.056771 782.689646,125.310943 L782.689646,95.3287107 L791.560512,95.3287107 C796.041566,95.3287107 800.421239,94.7380282 800.421239,87.7007584 L800.47193,87.7007584 Z M787.292358,64.684507 L787.292358,64.684507 L787.292358,70.3163597 L763.325814,70.3163597 L763.325814,64.684507 L787.292358,64.684507 Z M787.292358,85.6333694 L763.325814,85.6333694 L763.325814,80.0015168 L787.23153,80.0015168 L787.292358,85.6333694 Z" id="形状" fill="#000000" fill-rule="nonzero"></path>
                <path d="M764,100 L752.198884,100 C750.504313,113.67423 744,130 744,130 L756.328767,130 C760.274949,120.408509 762.857206,110.310039 764,100 L764,100 Z" id="路径" fill="#000000" fill-rule="nonzero"></path>
                <path d="M797.787879,100 L786,100 C786.535354,102.875042 789.555556,118.164578 794.606061,130 L807,130 C802.10101,116.356248 798.636364,103.423637 797.787879,100 Z" id="路径" fill="#000000" fill-rule="nonzero"></path>
                <path d="M915.979577,102.275131 L873.612274,102.275131 L873.612274,97.2117045 L910.771738,97.2117045 L910.771738,87.3380237 L875.583084,87.3380237 L875.583084,82.6999254 L907.575554,82.6999254 L907.575554,73.2313186 L875.583084,73.2313186 L875.583084,69.3122268 L907.881898,69.3122268 L907.881898,59.6208293 L875.583084,59.6208293 L875.583084,55.4384394 L910.792161,55.4384394 L910.792161,45.3115873 L875.69541,45.3115873 C874.235173,38.7493871 873.826715,38 873.826715,38 L859.888087,38 C860.327179,39.64055 861.031769,42.3444196 861.756782,45.3115873 L842.620526,45.3115873 C844.08942,43.1029678 845.070763,40.6112661 845.500155,38 L832.061888,38 C829.498935,45.9074529 824.152693,52.6364365 817,56.9574672 L817,69.6362861 C819.462261,68.9425699 821.772213,67.7988799 823.811037,66.2640443 L823.811037,90.4368404 C823.547785,92.3495682 824.216708,94.2725429 825.613158,95.6174559 C827.009607,96.9623689 828.967398,97.5691683 830.887571,97.2522119 L859.581743,97.2522119 L859.581743,102.315638 L817.745436,102.315638 L817.745436,112.98934 L832.582671,112.98934 C830.693553,118.407206 822.881795,131.71389 822.881795,131.71389 L838.311294,131.71389 C838.311294,131.71389 845.663538,118.660377 847.501599,112.98934 L859.571532,112.98934 L859.571532,133 L873.632697,133 L873.632697,112.948833 L885.70263,112.948833 C888.041052,119.470526 895.178855,131.673382 895.178855,131.673382 L910.57772,131.673382 C910.57772,131.673382 902.408561,117.769214 900.580712,112.948833 L916,112.948833 L916,102.275131 L915.979577,102.275131 Z M861.74657,87.3380237 L837.239092,87.3380237 L837.239092,82.6999254 L861.74657,82.6999254 L861.74657,87.3380237 Z M861.74657,73.2313186 L837.239092,73.2313186 L837.239092,69.3122268 L861.74657,69.3122268 L861.74657,73.2819529 L861.74657,73.2313186 Z M861.74657,59.5701951 L837.239092,59.5701951 L837.239092,55.4384394 L861.74657,55.4384394 L861.74657,59.5701951 Z" id="形状" fill="#000000" fill-rule="nonzero"></path>
                <path d="M1025,48.4433079 C1025,41.8050054 1021.02417,38 1014.08177,38 L938.642985,38 C931.782133,38 928,41.6208923 928,48.2285092 L928,122.559086 C928,129.555386 932.934104,132 939.020179,132 L1013.52107,132 C1019.77026,132 1024.95922,129.340588 1024.95922,122.559086 L1024.95922,48.4433079 L1025,48.4433079 Z M1010.97246,120.88161 L941.85423,120.88161 L941.85423,48.8831338 L1010.97246,48.8831338 L1010.97246,120.88161 Z" id="形状" fill="#000000" fill-rule="nonzero"></path>
                <path d="M995.624518,63.4587581 L995.624518,52 L981.538152,52 L981.538152,63.4587581 L946.214825,63.4587581 L946.214825,74.4689527 L969.651182,74.4689527 C965.559282,82.7367933 955.687573,94.939759 946,100.62836 L946,113.310473 C963.257588,106.174235 974.060205,91.5551437 981.538152,78.4958295 L981.538152,107.040778 L963.042764,107.040778 L963.042764,118 L983.778467,118 C991.195036,118 995.624518,113.993513 995.624518,107.295644 L995.624518,74.4689527 L1007,74.4689527 L1007,63.4587581 L995.624518,63.4587581 Z" id="路径" fill="#000000" fill-rule="nonzero"></path>
                <path d="M402.915794,220 C386.318976,220 374,207.491043 374,191.663382 L374,191.5 C374,175.835722 386.107101,163 403.400078,163 C414.024059,163 420.400466,166.471874 425.59643,171.516302 L417.696546,180.400215 C413.348079,176.540308 408.918898,174.181476 403.268917,174.181476 C393.764843,174.181476 386.924331,181.90129 386.924331,191.346829 L386.924331,191.5 C386.924331,200.945539 393.603415,208.859369 403.268917,208.859369 C409.726038,208.859369 413.670935,206.347367 418.110206,202.405769 L426,210.207273 C420.228948,216.231996 413.792006,220 402.915794,220 Z" id="路径" fill="#000000" fill-rule="nonzero"></path>
                <polygon id="路径" fill="#000000" fill-rule="nonzero" points="469.522843 164 469.522843 184.958688 446.497462 184.958688 446.497462 164 434 164 434 219 446.497462 219 446.497462 196.115598 469.522843 196.115598 469.522843 219 482 219 482 164"></polygon>
                <polygon id="路径" fill="#000000" fill-rule="nonzero" points="531.249648 219 503.465069 184.041682 503.465069 219 491 219 491 164 502.63338 164 529.534931 197.878288 529.534931 164 542 164 542 219"></polygon>
                <path d="M828.792754,219.999383 C811.154308,219.999383 799,207.96028 799,191.663072 L799,191.499691 C799,175.835583 811.55979,163 828.721795,163 C838.919655,163 845.052562,165.317961 851.692322,169.800715 L844.707903,178.704953 C839.821851,175.386286 836.446217,174.05882 828.316313,174.181355 C819.168355,174.492018 811.953674,182.127459 812.097053,191.346522 L812.097053,191.499691 C812.097053,201.578228 819.192979,208.981408 829.248921,208.981408 C833.405136,209.109748 837.501001,207.955361 840.98761,205.672952 L840.98761,197.800053 L833.060447,197.800053 L833.060447,187.333488 L853,187.333488 L853,211.258524 C846.205561,216.954582 837.632258,220.050267 828.792754,219.999383 L828.792754,219.999383 Z" id="路径" fill="#000000" fill-rule="nonzero"></path>
                <polygon id="路径" fill="#000000" fill-rule="nonzero" points="667.249648 219 639.454802 184.041682 639.454802 219 627 219 627 164 638.623113 164 665.534931 197.878288 665.534931 164 678 164 678 219"></polygon>
                <polygon id="路径" fill="#000000" fill-rule="nonzero" points="875.08245 219 875.08245 194.92349 856 164 870.67174 164 882.648045 185.72286 894.72645 164 909 164 889.90734 194.760467 889.90734 219"></polygon>
                <polygon id="路径" fill="#000000" fill-rule="nonzero" points="619 175.167099 619 164 573 164 573 219 619 219 619 207.832901 585.734985 207.832901 585.734985 196.889959 615.467069 196.889959 615.467069 185.72286 585.734985 185.72286 585.734985 175.167099"></polygon>
                <polygon id="路径" fill="#000000" fill-rule="nonzero" points="733 175.167099 733 164 687 164 687 219 733 219 733 207.832901 699.734985 207.832901 699.734985 196.889959 729.467069 196.889959 729.467069 185.72286 699.734985 185.72286 699.734985 175.167099"></polygon>
                <path d="M792,218.97963 L781.146737,197.794444 C787.343891,194.847172 791.274577,188.551599 791.2197,181.661111 C791.2197,171.913889 783.62951,164 774.26591,164 L742,164 L742,219 L754.505067,219 L754.505067,199.342593 L769.533441,199.342593 L779.606405,219 L792,218.97963 Z M754.444264,175.183333 L772.907985,175.183333 C776.381931,175.321539 779.127346,178.192267 779.127346,181.686574 C779.127346,185.180881 776.381931,188.051609 772.907985,188.189815 L754.505067,188.189815 L754.444264,175.183333 Z" id="形状" fill="#000000" fill-rule="nonzero"></path>
                <path d="M330.961549,120.961527 L297.44662,87.4882811 L209.839209,174.986736 L202.066598,167.223792 L287.188404,82.2180253 C288.554769,80.8482994 288.554769,78.6328968 287.188404,77.2631709 L253.632728,43.7492277 L166.025317,131.247683 L158.262892,123.494913 L243.629184,38.2347901 C244.859681,37.0035452 244.859681,35.0097184 243.629184,33.7784735 L209.829022,0.020348478 L86.2210771,123.474564 L130.024783,167.223792 L122.252172,174.986736 L70.6860419,123.474564 L155.583736,38.6519339 C156.298563,37.9466034 156.700881,36.9847891 156.700881,35.9811962 C156.700881,34.9776033 156.298563,34.015789 155.583736,33.3104585 L122.231798,0 L1.0075892,121.073444 C0.362500482,121.716622 0,122.589625 0,123.5 C0,124.410375 0.362500482,125.283378 1.0075892,125.926556 L122.231798,247 L166.035504,203.250772 L209.839209,247 L330.961549,125.977427 C332.34615,124.591405 332.34615,122.34755 330.961549,120.961527 Z" id="路径" fill="#C11920"></path>
                <path d="M120.486699,88.396034 L85.6761409,123.243626 L129.482228,167.096317 L121.709194,174.87762 L70.1402612,123.243626 L101.425957,91.9144476 C67.57452,99.3295237 35.2793493,112.614071 6,131.167705 L121.709194,247 L165.515281,203.147309 L209.321368,247 L325,131.177904 C309.894558,121.604054 293.958051,113.41229 277.383802,106.701983 L209.311181,174.847025 L201.538147,167.065722 L266.136844,102.408499 C247.417216,95.7063765 228.07269,90.9026821 208.394309,88.0696884 L165.505094,130.994334 L157.742248,123.223229 L194.518986,86.4073654 C184.963146,85.4759207 175.285057,85.0067989 165.484719,85 C150.421757,85.0068033 135.38042,86.1419841 120.486699,88.396034 Z" id="路径" fill="url(#linearGradient-1)"></path>
            </g>
        </g>
    </g>
</svg>