<?xml version="1.0" encoding="UTF-8"?>
<svg width="1024px" height="331px" viewBox="0 0 1024 331" version="1.1" xmlns="http://www.w3.org/2000/svg" xmlns:xlink="http://www.w3.org/1999/xlink">
    <title>国家石油天然气管网集团有限公司@2x</title>
    <defs>
        <polygon id="path-1" points="0 331 1024 331 1024 0 0 0"></polygon>
    </defs>
    <g id="页面-1" stroke="none" stroke-width="1" fill="none" fill-rule="evenodd">
        <g id="14.国家石油天然气管网集团有限公司" transform="translate(0.000000, -218.000000)">
            <g id="国家石油天然气管网集团有限公司" transform="translate(0.000000, 218.000000)">
                <path d="M153,86 L310,86 C292.08205,53.8325068 263.610891,33 231.501184,33 C199.389109,33 170.922688,53.8325068 153,86" id="Fill-1" fill="#B21E23"></path>
                <path d="M123.634336,244.904743 L83.6951215,244.904743 C75.0040418,244.897644 67.9693072,237.846281 67.9693072,229.171684 C67.9693072,220.471058 75.0040418,213.433892 83.6951215,213.426793 L112.692993,213.426793 C110.144588,203.296965 108.298946,192.802738 107.418717,181.955942 L36.5508055,181.955942 C27.4574705,181.955942 20.0843683,174.587504 20.0843683,165.496451 C20.0843683,156.41013 27.4574705,149.044058 36.5508055,149.032226 L107.47314,149.032226 C108.388862,138.183065 110.272363,127.69357 112.839698,117.563742 L83.6951215,117.563742 L83.6951215,117.554277 L83.6856567,117.554277 C74.9969432,117.554277 67.9527438,110.51711 67.9527438,101.818851 C67.9527438,93.1347893 74.9969432,86.0857919 83.6856567,86.0857919 L83.6951215,86.0952568 L83.6951215,86.0857919 L123.90645,86.0857919 C141.813907,47.1613182 172.35218,17.7017622 209,5.81619187 C195.131658,2.04205597 180.570018,0 165.50201,0 C74.1025168,0 0,74.0913751 0,165.496451 C0,256.906259 74.1025168,331 165.50201,331 C180.210355,331 194.46912,329.054959 208.051151,325.455925 C171.639952,313.298238 141.340666,283.784258 123.634336,244.904743" id="Fill-3" fill="#B21E23"></path>
                <path d="M231.498818,298 C263.640122,298 292.143457,277.169154 310,245 L153,245 C170.854179,277.169154 199.362242,298 231.498818,298" id="Fill-5" fill="#B21E23"></path>
                <path d="M140.904652,117 C138.036138,127.131729 136.019916,137.845714 135,149 L321.753202,149 L321.753202,148.954286 C330.207644,148.720902 337,141.683308 337,133 C337,124.316692 330.207644,117.276692 321.753202,117.045714 L321.753202,117 L140.904652,117 Z" id="Fill-7" fill="#B21E23"></path>
                <path d="M321.328258,182 L321.328258,182 L135,182 C135.986713,193.142256 138.000269,203.853835 140.84238,214 L321.328258,214 L321.328258,213.98797 C329.984423,213.980752 337,206.825263 337,198 C337,189.169925 329.984423,182.016842 321.328258,182" id="Fill-9" fill="#B21E23"></path>
                <polygon id="Fill-11" fill="#050101" points="593.774745 73.3496955 687.825995 73.3496955 687.825995 91 707 91 707 57.9006814 651.909325 57.9006814 649.820927 52 626.420457 52 628.620016 57.9006814 574 57.9006814 574 91 593.774745 91"></polygon>
                <path d="M492.43788,126.869574 L499.896799,120.327557 L488.823667,120.327557 L488.823667,138.566842 L502.921713,138.566842 L492.43788,126.869574 Z M519.517154,105.073142 L519.517154,120.327557 L508.876492,120.327557 L519.372206,131.993956 L511.827743,138.566842 L521.325449,138.566842 L521.325449,153.975606 L440.078122,153.975606 L440.078122,138.635705 L469.559743,138.635705 L469.559743,120.327557 L441.280484,120.327557 L441.280484,105.073142 L469.559743,105.073142 L469.559743,93.696444 L441.280484,93.696444 L441.280484,78.4396538 L519.517154,78.4396538 L519.517154,93.696444 L488.823667,93.696444 L488.823667,105.073142 L519.517154,105.073142 Z M436.461533,160.859565 L525.536091,160.859565 L525.536091,70.812446 L436.461533,70.812446 L436.461533,160.859565 Z M416,176 L546,176 L546,55 L416,55 L416,176 Z" id="Fill-13" fill="#050101"></path>
                <mask id="mask-2" fill="white">
                    <use xlink:href="#path-1"></use>
                </mask>
                <g id="Clip-16"></g>
                <path d="M763.142461,163.176353 L835.477246,163.176353 L835.477246,158.32203 L763.142461,158.32203 L763.142461,163.176353 Z M763.137713,125.387756 L832.136526,125.387756 L832.136526,119.408999 L763.137713,119.408999 L763.137713,125.387756 Z M743.288089,105.965711 L850.787099,105.965711 L850.787099,139.461013 L763.137713,139.461013 L763.137713,144.398539 L854.101702,144.398539 L854.101702,177 L743.288089,177 L743.288089,105.965711 Z M739.028492,86.9168917 L767.741591,86.9168917 L758.882865,77.0893842 L763.899881,73.9062607 L754.953304,73.9062607 C750.461021,78.3754707 745.045113,82.9207523 739.028492,86.9168917 L739.028492,86.9168917 Z M731.212109,106.022764 L731.212109,86.9168917 L738.430154,86.9168917 C735.616541,84.0142825 731.803324,80.1916816 727,75.4562208 C737.827068,68.5574721 745.439256,60.7292229 749.853186,52 L769.698061,52 C769.296795,52.7298125 765.690146,59.6309383 764.894737,59.6832376 L801.569054,59.6832376 L801.569054,73.9062607 L775.600712,73.9062607 L782.932727,81.4658819 L774.510882,86.9168917 L788.436486,86.9168917 L785.717847,81.2257807 L802.920063,81.2257807 L805.641076,86.9168917 L837.258013,86.9168917 L827.354571,76.0362672 L831.531065,73.9847096 L825.414721,73.9847096 C822.821923,77.365144 814.798971,85.8281161 814.798971,85.8281161 C814.798971,85.8281161 807.046696,80.7479556 799.769292,76.0101175 C806.984962,69.4632003 812.602691,61.4590354 816.608231,52 L836.462604,52 C836.049466,52.7298125 833.247725,59.6309383 833.086268,59.7046328 L865,59.7046328 L865,73.9847096 L845.15275,73.9847096 L851.648991,80.662375 L841.859517,86.9168917 L864.508508,86.9168917 L864.508508,106.022764 L844.651761,106.022764 L844.651761,101.268286 L750.461021,101.268286 L750.461021,106.022764 L731.212109,106.022764 Z" id="Fill-15" fill="#050101" mask="url(#mask-2)"></path>
                <path d="M959.502364,95.4873861 C955.928223,103.107203 951.67093,109.38597 948.099153,116.266551 C949.285806,118.80649 958.164425,134.614768 958.164425,134.614768 L968.23206,114.837836 C968.23206,114.837836 962.669922,102.375075 959.502364,95.4873861 L959.502364,95.4873861 Z M914.066811,83.9463013 L914.066811,144.186926 C915.244008,142.011866 929.223814,115.780835 929.223814,115.780835 C929.223814,115.780835 915.631679,87.2159989 914.066811,83.9463013 L914.066811,83.9463013 Z M914.066811,82.1882465 L927.155446,76.2080169 L938.596478,97.7240489 L950.370813,75.660698 L959.899491,79.4706065 L967.641098,76.2080169 C971.215239,83.8159873 973.855659,88.9835311 977.831654,96.6033482 C979.734553,93.0256355 989.07885,74.5707988 989.07885,74.5707988 L1004.5597,80.5605057 L987.457249,116.406343 L1003.37305,148.537045 L987.66054,156.505156 L977.831654,135.233167 L964.078777,160.506982 C964.078777,160.506982 958.906674,157.059583 958.117148,156.694704 L950.370813,159.966771 C946.8014,151.621934 938.178077,134.541318 938.178077,134.541318 L922.950158,162.516187 L914.066811,155.059855 L914.066811,176.924181 L895,176.924181 L895,55 L1024,55 L1024,155.780136 C1024,168.475093 1017.88236,177 1006.17421,177 L979.547808,177 L979.517078,161.224894 L995.624349,161.224894 C1001.58125,161.224894 1004.5597,158.507254 1004.5597,153.062496 L1004.5597,71.3153172 L914.066811,71.3153172 L914.066811,82.1882465 Z" id="Fill-17" fill="#050101" mask="url(#mask-2)"></path>
                <path d="M641.868598,101.966286 C643.067432,101.228807 650.851581,96.4210147 650.851581,96.4210147 L682,96.4210147 L682,82 L599.351349,82 L599.351349,96.4210147 L622.708525,96.4210147 C602.704303,105.043841 573.598868,110.277102 573.598868,110.277102 L583.182452,123.59899 C583.182452,123.59899 603.751805,118.410639 625.702065,109.731084 C626.219905,110.232191 628.71925,113.340474 629.300933,114.16541 C614.125153,121.717474 595.350505,128.196412 572.998269,133.027842 C574.192374,134.507527 581.463413,145.512976 582.586581,146.89102 C602.425284,141.293747 620.526031,133.436764 635.883883,124.152099 C636.354431,124.913214 637.884305,128.040407 638.281552,129.139534 C620.608791,140.428628 598.266014,150.51932 570,157.981563 C572.397669,160.203454 580.978677,171.658008 581.375924,172.404941 C597.322552,167.263865 626.05202,155.84713 642.471562,143.558185 C644.864502,155.405116 640.267787,161.475131 629.300933,161.475131 L616.991006,161.475131 L616.991006,177 L637.170206,177 C655.573618,177 661.931934,165.644721 663.147321,152.086462 C664.916016,132.340001 648.262382,109.74763 641.868598,101.966286" id="Fill-18" fill="#050101" mask="url(#mask-2)"></path>
                <path d="M679.754151,121.178108 C681.734056,120.058124 699.87573,112.103363 703.056291,110.598085 L692.328078,96 C682.440325,101.161979 670.259554,107.168732 656,113.922141 C657.624417,117.612346 662.82255,127.060418 662.791945,126.964693 C671.03174,142.632507 683.975281,160.765244 695.906504,169 C700.666751,164.503311 711.60449,155.89762 712,155.521899 C698.491445,147.275177 684.895783,130.781734 679.754151,121.178108" id="Fill-19" fill="#050101" mask="url(#mask-2)"></path>
                <path d="M440.872775,240.534055 L446.94114,240.534055 C451.712163,240.534055 455.06833,239.69773 456.995541,238.015576 C458.925103,236.340549 459.891059,234.19509 459.891059,231.579197 C459.891059,229.039335 459.056717,226.881996 457.380984,225.116684 C455.7029,223.344245 452.548854,222.455649 447.923548,222.455649 L440.872775,222.455649 L440.872775,240.534055 Z M416,206 L457.160059,206 C466.130992,206 472.845678,208.147835 477.299416,212.464889 C481.762555,216.765312 484,222.907075 484,230.864044 C484,239.034847 481.565133,245.430834 476.7001,250.037751 C471.837417,254.635164 464.412954,256.944562 454.431411,256.944562 L440.872775,256.944562 L440.872775,287 L416,287 L416,206 Z" id="Fill-20" fill="#050101" mask="url(#mask-2)"></path>
                <path d="M497,287 L519,287 L519,228.320908 L497,228.320908 L497,287 Z M497,221.29158 L519,221.29158 L519,206 L497,206 L497,221.29158 Z" id="Fill-21" fill="#050101" mask="url(#mask-2)"></path>
                <path d="M554.339978,257.709182 C554.339978,262.330467 555.307392,265.763894 557.239868,268.004732 C559.172343,270.236106 561.615594,271.355341 564.569621,271.355341 C567.16587,271.355341 569.333726,270.285797 571.092019,268.137242 C572.843251,265.988688 573.718867,262.354129 573.718867,257.217002 C573.718867,252.484504 572.800883,249.003751 570.98139,246.791308 C569.152483,244.564668 566.930489,243.454897 564.305995,243.454897 C561.455535,243.454897 559.085252,244.583598 557.183376,246.810238 C555.281501,249.051076 554.339978,252.683269 554.339978,257.709182 L554.339978,257.709182 Z M532,309 L532,228.315635 L552.864141,228.315635 L552.864141,236.961909 C555.742847,233.324984 558.393233,230.878282 560.794115,229.588677 C564.044722,227.866047 567.638985,227 571.583965,227 C579.35388,227 585.37021,229.995671 589.623538,235.970451 C593.874513,241.947596 596,249.346858 596,258.151671 C596,267.869856 593.681501,275.297513 589.049209,280.408611 C584.409857,285.529174 578.548878,288.089456 571.470982,288.089456 C568.039132,288.089456 564.910923,287.502626 562.081648,286.324234 C559.259434,285.155307 556.729092,283.411381 554.500037,281.099556 L554.500037,309 L532,309 Z" id="Fill-22" fill="#050101" mask="url(#mask-2)"></path>
                <path d="M649.451202,252.339479 C649.013248,248.013054 647.858641,244.92005 645.992065,243.051015 C644.113779,241.184343 641.661703,240.248644 638.610074,240.248644 C635.085361,240.248644 632.2773,241.661644 630.167156,244.482918 C628.825189,246.236171 627.975042,248.863689 627.60969,252.339479 L649.451202,252.339479 Z M672,263.057484 L627.548798,263.057484 C627.951622,266.646692 628.909501,269.32383 630.445854,271.084173 C632.586444,273.614813 635.375769,274.8695 638.82788,274.8695 C641.0036,274.8695 643.078614,274.316587 645.043554,273.213124 C646.233291,272.520801 647.521393,271.30392 648.903174,269.536489 L670.744687,271.568562 C667.409676,277.437945 663.376748,281.639139 658.652929,284.17923 C653.929111,286.738224 647.158382,288 638.33606,288 C630.668345,288 624.644715,286.91544 620.248777,284.734506 C615.857522,282.555934 612.218051,279.091958 609.33973,274.347304 C606.454383,269.609738 605,264.028626 605,257.615781 C605,248.487992 607.904083,241.11582 613.693512,235.468547 C619.482942,229.823637 627.473853,227 637.687325,227 C645.963961,227 652.502831,228.268864 657.29691,230.797141 C662.083963,233.323055 665.739828,236.990239 668.241086,241.786876 C670.744687,246.581151 672,252.83332 672,260.53157 L672,263.057484 Z" id="Fill-23" fill="#050101" mask="url(#mask-2)"></path>
                <path d="M738.014533,253.375046 L760,260.022237 C758.525568,266.190544 756.196014,271.336756 753.020865,275.479933 C749.848097,279.615963 745.898812,282.739428 741.196828,284.845563 C736.492462,286.949315 730.501839,288 723.220195,288 C714.385515,288 707.182476,286.715829 701.587258,284.154636 C695.987276,281.59106 691.16143,277.073829 687.100193,270.614857 C683.038956,264.155884 681,255.883824 681,245.803443 C681,232.370877 684.572936,222.04748 691.723572,214.826105 C698.874209,207.607113 708.983236,204 722.0578,204 C732.283543,204 740.327414,206.065632 746.175119,210.20881 C752.034734,214.342457 756.379425,220.698982 759.2211,229.268854 L737.071278,234.200641 C736.292378,231.725218 735.48013,229.912131 734.632153,228.766146 C733.217271,226.850611 731.511789,225.371075 729.477598,224.334685 C727.445788,223.298295 725.178164,222.781292 722.667581,222.781292 C716.972321,222.781292 712.618103,225.075645 709.590635,229.64529 C707.299192,233.040361 706.15347,238.372408 706.15347,245.634285 C706.15347,254.647304 707.52786,260.815611 710.255201,264.155884 C712.989688,267.498539 716.827022,269.168676 721.783875,269.168676 C726.578755,269.168676 730.21124,267.815413 732.66942,265.116034 C735.125219,262.419037 736.897395,258.502198 738.014533,253.375046" id="Fill-24" fill="#050101" mask="url(#mask-2)"></path>
                <path d="M770,206 L792.113025,206 L792.113025,235.835103 C795.114212,232.668182 798.101386,230.399308 801.076882,229.037983 C804.0407,227.674283 807.553373,226.992433 811.603224,226.992433 C817.617275,226.992433 822.346772,228.852672 825.812735,232.570775 C829.276361,236.293629 831,242.00264 831,249.704933 L831,287 L808.78421,287 L808.78421,254.739221 C808.78421,251.052003 808.113906,248.441016 806.78264,246.911011 C805.43269,245.383381 803.55724,244.62313 801.121257,244.62313 C798.444712,244.62313 796.272647,245.647093 794.607397,247.716402 C792.942147,249.780959 792.113025,253.477679 792.113025,258.820819 L792.113025,287 L770,287 L770,206 Z" id="Fill-25" fill="#050101" mask="url(#mask-2)"></path>
                <path d="M847,287 L869,287 L869,228.320908 L847,228.320908 L847,287 Z M847,221.29158 L869,221.29158 L869,206 L847,206 L847,221.29158 Z" id="Fill-26" fill="#050101" mask="url(#mask-2)"></path>
                <path d="M884,228.332436 L904.585602,228.332436 L904.585602,237.892249 C907.668888,233.985195 910.77086,231.194442 913.928891,229.51524 C917.079916,227.843164 920.913,227 925.44216,227 C931.559678,227 936.35045,228.85021 939.814474,232.56013 C943.276163,236.260549 945,241.975061 945,249.710791 L945,287 L922.783994,287 L922.783994,254.736521 C922.783994,251.050352 922.111277,248.442483 920.775187,246.912913 C919.434425,245.395218 917.558759,244.623308 915.122497,244.623308 C912.436301,244.623308 910.263986,245.654105 908.603217,247.727575 C906.937775,249.786794 906.108558,253.482464 906.108558,258.824084 L906.108558,287 L884,287 L884,228.332436 Z" id="Fill-27" fill="#050101" mask="url(#mask-2)"></path>
                <path d="M997.408284,258.983886 C994.334025,260.08026 991.14669,261.049039 987.825076,261.894949 C983.292606,263.109467 980.425653,264.297993 979.214796,265.467617 C977.978025,266.677409 977.356106,268.054966 977.356106,269.588472 C977.356106,271.348815 977.96389,272.787806 979.188882,273.90072 C980.411519,275.020724 982.211315,275.580725 984.585915,275.580725 C987.068879,275.580725 989.384586,274.982918 991.514187,273.768399 C993.6485,272.558607 995.167962,271.08181 996.070216,269.342733 C996.958335,267.603657 997.408284,265.340022 997.408284,262.549465 L997.408284,258.983886 Z M978.065188,247.223853 L956.752681,244.964944 C957.558349,241.238689 958.71738,238.294546 960.23213,236.149055 C961.749235,234.003564 963.930663,232.146343 966.783482,230.572668 C968.82592,229.436125 971.633979,228.559498 975.217081,227.92861 C978.802539,227.316625 982.665975,227 986.83566,227 C993.516578,227 998.885342,227.37806 1002.94431,228.129455 C1006.9962,228.883212 1010.37435,230.449799 1013.06934,232.824489 C1014.97514,234.476139 1016.47576,236.801209 1017.57118,239.830415 C1018.66425,242.852533 1019.21314,245.737605 1019.21314,248.487992 L1019.21314,274.257515 C1019.21314,277.007902 1019.38747,279.158119 1019.73376,280.71998 C1020.08242,282.277115 1020.83626,284.266656 1022,286.681515 L1001.07619,286.681515 C1000.23283,285.174001 999.691009,284.037457 999.436588,283.243531 C999.179811,282.454331 998.923034,281.230361 998.663901,279.540905 C995.752189,282.357453 992.840477,284.375349 989.95939,285.580415 C986.011146,287.196622 981.429204,288 976.197075,288 C969.264091,288 963.994269,286.388519 960.397032,283.16083 C956.799796,279.935505 955,275.968237 955,271.23776 C955,266.805005 956.302732,263.163813 958.891706,260.307096 C961.487747,257.445654 966.267571,255.323791 973.242959,253.924969 C981.612953,252.240239 987.028832,251.063526 989.516508,250.37593 C991.992405,249.707236 994.628494,248.821157 997.408284,247.717694 C997.408284,244.964944 996.838191,243.051015 995.705074,241.949915 C994.574312,240.851178 992.590767,240.295902 989.737949,240.295902 C986.084174,240.295902 983.342077,240.881895 981.516367,242.063333 C980.093492,242.980129 978.943884,244.695576 978.065188,247.223853 L978.065188,247.223853 Z" id="Fill-28" fill="#050101" mask="url(#mask-2)"></path>
            </g>
        </g>
    </g>
</svg>