<svg id="图层_1" data-name="图层 1" xmlns="http://www.w3.org/2000/svg" xmlns:xlink="http://www.w3.org/1999/xlink" viewBox="0 0 1127.75 619.25"><defs><style>.cls-1{fill:none;}.cls-2{clip-path:url(#clip-path);}.cls-3{fill:url(#linear-gradient);}.cls-4{clip-path:url(#clip-path-2);}.cls-5{fill:url(#linear-gradient-2);}.cls-6{clip-path:url(#clip-path-3);}.cls-7{fill:url(#linear-gradient-3);}.cls-8{clip-path:url(#clip-path-4);}.cls-9{fill:url(#linear-gradient-4);}.cls-10{fill:#151861;}</style><clipPath id="clip-path" transform="translate(103.75 117.98)"><path class="cls-1" d="M.55,277.47C.65,333.56,101.06,389.28,263,383.23c0,0,.2-33.57.2-50.74,0-39.09-41.68-34.7-77.06-33.8-76.89,1.92-123.45-19.1-161-54.11C9.7,229,1.28,208,.55,191.36Z"/></clipPath><linearGradient id="linear-gradient" x1="109.37" y1="494.01" x2="112.74" y2="494.01" gradientTransform="matrix(0, -71.74, -71.74, 0, 35571.57, 8286.63)" gradientUnits="userSpaceOnUse"><stop offset="0" stop-color="#ee7800"/><stop offset="0.3" stop-color="#e60012"/><stop offset="0.44" stop-color="#e10011"/><stop offset="0.62" stop-color="#d2000d"/><stop offset="0.81" stop-color="#ba0006"/><stop offset="0.95" stop-color="#a40000"/><stop offset="1" stop-color="#a40000"/></linearGradient><clipPath id="clip-path-2" transform="translate(103.75 117.98)"><path class="cls-1" d="M41.11,2.24S40.93,35.77,40.93,53c0,39.07,41.64,34.68,77,33.79,76.88-1.93,123.44,19.12,161,54.08,15.4,15.66,23.81,36.56,24.54,53.25V108C303.4,54.71,212.89,1.78,65.17,1.78q-11.79,0-24.06.46"/></clipPath><linearGradient id="linear-gradient-2" x1="105.33" y1="491.53" x2="108.7" y2="491.53" gradientTransform="matrix(0, 75.11, 75.11, 0, -36743.88, -7960.55)" gradientUnits="userSpaceOnUse"><stop offset="0" stop-color="#6fba2c"/><stop offset="0.48" stop-color="#006c3b"/><stop offset="1" stop-color="#004532"/></linearGradient><clipPath id="clip-path-3" transform="translate(103.75 117.98)"><path class="cls-1" d="M270.17,146.15c-17.6,5.77-41.35,9.47-63,12.35-51.22,6.79-106.55,12.86-106.55,62.82V318.7c88.52-7.57,199.41-63.91,203.35-117.78.11-1.61,0-3.32,0-5,0-7.68-.49-85.17-.49-85.17-7.78,26.67-33.33,35.44-33.33,35.44"/></clipPath><linearGradient id="linear-gradient-3" x1="110.08" y1="492.22" x2="113.45" y2="492.22" gradientTransform="matrix(-61.18, 0, 0, 61.18, 7144.59, -29780.05)" gradientUnits="userSpaceOnUse"><stop offset="0" stop-color="#c3d82d"/><stop offset="0.23" stop-color="#7fbe26"/><stop offset="1" stop-color="#00833e"/></linearGradient><clipPath id="clip-path-4" transform="translate(103.75 117.98)"><path class="cls-1" d="M0,184.52c-.08,1.61,0,3.29,0,5,0,7.66.48,85.39.48,85.39,7.79-26.7,33.36-35.64,33.36-35.64,17.56-5.76,41.33-9.48,62.94-12.36C148,220.15,203.4,214.07,203.4,164.1V66.74C114.86,74.33,4,130.66,0,184.52"/></clipPath><linearGradient id="linear-gradient-4" x1="105.98" y1="494.01" x2="109.35" y2="494.01" gradientTransform="matrix(77.33, 0, 0, -77.33, -8221.19, 38371.2)" gradientUnits="userSpaceOnUse"><stop offset="0" stop-color="#f39800"/><stop offset="0.1" stop-color="#ee6007"/><stop offset="0.21" stop-color="#ea2d0d"/><stop offset="0.29" stop-color="#e70c11"/><stop offset="0.33" stop-color="#e60012"/><stop offset="0.47" stop-color="#e10011"/><stop offset="0.64" stop-color="#d2000d"/><stop offset="0.82" stop-color="#ba0006"/><stop offset="0.95" stop-color="#a40000"/><stop offset="1" stop-color="#a40000"/></linearGradient></defs><g class="cls-2"><rect class="cls-3" x="-18.66" y="127.39" width="301.04" height="325.86" transform="translate(-82.11 381.41) rotate(-60.74)"/></g><g class="cls-4"><rect class="cls-5" x="20.17" y="-64.53" width="304.09" height="324.91" transform="translate(100.19 307.29) rotate(-57.09)"/></g><g class="cls-6"><rect class="cls-7" x="204.42" y="228.69" width="203.45" height="207.99"/></g><g class="cls-8"><rect class="cls-9" x="-43.65" y="25.36" width="290.65" height="290.95" transform="translate(15.06 231.49) rotate(-42.48)"/></g><path class="cls-10" d="M657.85,122.52c13.25-7.37,25.73-17.23,31.19-28.83H666.79c-6.85,10.37-19,18.46-28.64,23.15-2.58-11.43-7.24-22-14.54-29.57h46.25v-4.7h20.68V66.33c0-7.54,0-19.37-24.57-19.37H627.46c0-3.27-2.52-6.28-8.31-6.28H602.91V47H541.09V82.57h21.24v4.7H588.5c-7.88,6.42-27.4,14.93-48.26,17.57l1.86,6.48c1.35,4.85,3.4,4.67,7.8,4.13a144.89,144.89,0,0,0,54.23-17.61,46.91,46.91,0,0,1,4.43,6.36c-14.55,12.7-40.69,25.71-68.32,30.41,0,0,1,4.19,1.31,5.1,2,5.68,3.48,5.14,8.85,4.53,23.4-2.63,51.31-13.85,64.44-23.77a82.06,82.06,0,0,1,1.59,8.77c-17,16.57-48.2,29-75.93,35.18,0,0,.74,2.92,1.25,4.34,1.88,5.42,3,5.68,8.27,4.8,27.7-4.67,52-12.92,67-23.4-.71,8.26-2.4,14.53-4.2,16.44-3.43,3.61-6.07,3.39-15.37,3.61-4,.07-5,2.27-5.67,6.17l-.87,4.91s34.76,6.42,43.39-7.51c4.82-7.76,7.57-25.1,6-43,.59-.27,1.21-.52,1.83-.77a86.66,86.66,0,0,0,37,43.48c5.6,3.3,6.9,2.16,11.57-1,1.21-.83,4-3.19,4-3.19-19-13.07-31.66-30.06-36.84-46.8M564.4,74.1v-14h95.54c8.17,0,7.3,6,7.3,6v8Z" transform="translate(103.75 117.98)"/><path class="cls-10" d="M928.11,116.17V102.42l-13.32,2.47V66.67h13.32V57.75c0-3-1.91-5.5-6.52-5.5h-6.8V47.72c0-4.18-2.52-7.76-9.53-7.76H891.92V52.25h-14V66.67h14V109.2l-15.53,2.94V126L891.94,123V159.6c0,6.06-1.35,8.52-7.27,8.81-7.27.4-7.3,5.16-7.3,13.22h9.29c19.16,0,28.13-9.68,28.13-26.37V118.7Z" transform="translate(103.75 117.98)"/><path class="cls-10" d="M831.4,52.5H795V48.12c0-4.41-2.69-8.16-10.09-8.16h-14V52.5H710.23v77.18c0,14.38,11.74,19,25,19h35.59v4.55c0,17.1,12,29,32.54,29h53.08c0-5.91,0-13.56-6.51-13.56H816.28c-17.65,0-21.3-6.24-21.3-14.76v-5.23h61.49V71.51c0-14.34-11.7-19-25.07-19m1.16,20.83V94H795V66.19h31c3.37,0,6.61.48,6.61,7.14M770.85,94H734.14V66.19h36.71Zm-31.11,40.6c-2.29,0-5.6-.57-5.6-7.28V108.48h36.71v26.13ZM795,108.48h37.58v26.13H795Z" transform="translate(103.75 117.98)"/><path class="cls-10" d="M482.09,66.22H405.88V72c0,4.76,2,6.74,6,6.74h23.44v21.79h-28.9v5.35c0,4.55,1.08,7.12,5.93,7.12h23v30.45H405.88v5.64c0,5.78,2.27,6.73,6.06,6.73H488.8l-.95-14c-.3-3.64-1.67-7.22-7-7.22H468l.91,8.88H458.12V113h30.12v-4.37c0-4.15.66-8.1-6.23-8.1H458.12V78.78H488.8V74.45c0-3.07,1.18-8.23-6.71-8.23" transform="translate(103.75 117.98)"/><path class="cls-10" d="M495.44,40H374.23V162.08c0,14.37,11.62,19,25,19h121.2V59c0-14.37-11.68-19-25-19m1.08,127.08H403.59c-2.21,0-5.44-.5-5.44-7.27V53.54h91.72c3.44,0,6.65.51,6.65,7.31Z" transform="translate(103.75 117.98)"/><path class="cls-10" d="M961.93,59.31H985.5c4.94,0,5.83,1.54,5.83,6V78.79c.43,10.59,6.76,14.53,17,14.53h15.51V86.75c0-6.47-2-7-6.53-7-4.77,0-4.7-3.34-4.7-6V59.45c0-7.55-3.39-14.94-16.17-14.94H940.74V57.28c0,15.26-.07,18.27-4.26,21.53-3.28,2.55-6.05,1-6.05,8v6.36c20.56-1.48,31.5-5.58,31.5-33.9" transform="translate(103.75 117.98)"/><path class="cls-10" d="M1024,176.45c0-6.3-1.08-6.67-4.34-7.56a114.2,114.2,0,0,1-30-12.24c17.14-13,27-28.65,31.5-42.88,1.88-5.94.75-14.59-11.44-14.59H933.48V112.8h64a76.57,76.57,0,0,1-23.35,32,87.44,87.44,0,0,1-17.07-23.25H933.48a96.9,96.9,0,0,0,24.61,34,147,147,0,0,1-25.24,10.6c-6,1.9-6,1.58-6,9.88v5.58c18.71-3,34.18-8.27,46.86-14.91,13.06,7.6,29.46,13.35,50.26,16.2Z" transform="translate(103.75 117.98)"/><path class="cls-10" d="M582.36,219.76h-59V344.22h32.85V298.54h26.13c53.87,0,56.7-30.17,56.7-40.83,0-11.46-6.54-37.95-56.7-37.95M576.26,284h-20V235.55h20c26.34,0,31.66,14.3,31.66,23.2S603.79,284,576.26,284" transform="translate(103.75 117.98)"/><path class="cls-10" d="M839.24,324.64c-10.54,2-37.74,7.62-55-9.73-8.23-8.35-12.61-19.82-12.61-33.14s4-25.32,12.32-33.57c19.1-19,52.44-9.88,57-9.43,4.72.47,8,.58,10.24-3,1.09-1.84,5.29-10.34,5.29-10.34a69.33,69.33,0,0,0-18.1-5.26,140.7,140.7,0,0,0-23.91-1.74q-37.08,0-57.77,18.36Q736,255.27,736,282c0,18.15,6.81,33.34,20.47,45.4s32.84,18.13,57.71,18.13q27.5,0,42.33-7s-5.08-10-6.63-12.32c-2.28-3.58-6.81-2.18-10.59-1.52" transform="translate(103.75 117.98)"/><path class="cls-10" d="M687.51,219.63H670V344.27h35V232c0-7.51-4.9-12.35-17.51-12.35" transform="translate(103.75 117.98)"/><path class="cls-10" d="M453.09,273q-21.33-6-29.14-10.74c-5.21-3.17-7.75-7.14-7.58-11.94.18-5.43,2.93-9.59,8.22-12.62s12.7-4.35,22.11-4a88.08,88.08,0,0,1,17.38,2.21c2.26.49,4.41,1.07,6.46,1.7a11.23,11.23,0,0,0,12.58-4.53l4.11-6.24a90.09,90.09,0,0,0-18.9-5.58,167.17,167.17,0,0,0-26.27-2.66q-27.92-.92-45.24,8.8T379,252.08c-.26,6.79,2.77,13.14,9,19s16.07,10.72,29.62,14.51,22.69,7.29,27.48,10.57,7.15,7.18,7,11.74c-.18,5.63-3.31,9-9.43,12.24s-14.21,4.64-24.21,4.31A110.23,110.23,0,0,1,399,322.26c-2.43-.53-4.73-1.07-6.87-1.69-4.92-1.4-10.18,1.55-12.92,5.77l-5,7.77a101.91,101.91,0,0,0,21,5.87,219.39,219.39,0,0,0,29.86,2.65q28.88.9,47.81-8.89t19.5-26c.26-7.14-2.7-13.73-8.82-19.74s-16.28-11-30.52-15" transform="translate(103.75 117.98)"/></svg>