<?xml version="1.0" encoding="UTF-8"?>
<svg width="1025px" height="208px" viewBox="0 0 1025 208" version="1.1" xmlns="http://www.w3.org/2000/svg" xmlns:xlink="http://www.w3.org/1999/xlink">
    <title>招商局集团有限公司@2x</title>
    <defs>
        <polygon id="path-1" points="0 0 209 0 209 208 0 208"></polygon>
        <polygon id="path-3" points="0 208 1025 208 1025 0 0 0"></polygon>
    </defs>
    <g id="页面-1" stroke="none" stroke-width="1" fill="none" fill-rule="evenodd">
        <g id="49.招商局集团有限公司" transform="translate(0.000000, -282.000000)">
            <g id="招商局集团有限公司" transform="translate(0.000000, 282.000000)">
                <g id="编组">
                    <mask id="mask-2" fill="white">
                        <use xlink:href="#path-1"></use>
                    </mask>
                    <g id="Clip-2"></g>
                    <path d="M105.182708,-0.000201304803 C156.402905,-0.000201304803 199.065586,36.2064807 208.43796,84.1512457 L192.49032,84.1512457 C183.374793,44.7941436 147.744665,15.435851 105.182708,15.435851 C55.7120873,15.435851 15.6108186,55.0858517 15.6108186,104.001912 C15.6108186,152.913947 55.7120873,192.563948 105.182708,192.563948 C148.864717,192.563948 185.24121,161.639504 193.146033,120.723296 L209,120.723296 C200.910851,170.209049 157.51087,208 105.182708,208 C47.0911153,208 -0.000402896225,161.439205 -0.000402896225,104.001912 C-0.000402896225,46.5605932 47.0911153,-0.000201304803 105.182708,-0.000201304803" id="Fill-1" fill="#BE9B66" mask="url(#mask-2)"></path>
                </g>
                <polygon id="Fill-3" fill="#BE9B66" points="51.370695 166 71.5688296 132.725808 44.9291878 132.725808 64.5425572 101.496765 104.670178 166 122.502993 133.747879 97.3277887 133.747879 114.012282 101.496765 154.118694 166 179 125.139325 132.455111 44 107.865682 88.0698769 81.2290705 44 30 130.101654"></polygon>
                <path d="M494.431487,101.269593 C495.176401,101.105358 496.086182,100.77991 497.157812,100.312393 C498.254575,99.8690586 499.536309,99.2614886 501.005026,98.5370395 C502.449617,97.8135979 503.731351,97.2281947 504.828114,96.7606781 C505.898739,96.3173435 506.831641,95.9898804 507.554439,95.8034783 L507.554439,96.3415254 L507.554439,96.7606781 C507.554439,96.8553905 507.50719,97.1828536 507.414704,97.7198931 C507.321213,98.2790993 506.948254,99.1919657 506.318947,100.452447 C505.688635,101.73711 504.640126,102.881719 503.172414,103.886275 C501.726819,104.891839 500.30535,105.568932 498.953246,105.942743 C497.579025,106.294388 496.437025,106.573488 495.527245,106.75989 L494.431487,101.269593 Z M520.654268,107.85815 L520.654268,111.128751 C519.557506,112.228019 518.25265,113.138871 516.691447,113.862312 C515.153365,114.610943 513.428301,115.007929 511.51726,115.100626 C509.605214,115.194331 507.95052,115.334385 506.59741,115.521794 C505.22319,115.708196 504.081189,116.058834 503.172414,116.619048 C502.449617,116.970693 501.353859,117.389845 499.909269,117.835195 C498.439547,118.300697 496.761731,118.441758 494.849685,118.254348 C492.940654,118.066938 491.517175,117.48355 490.6084,116.478994 C489.699625,115.473431 489.16381,114.422526 488.977833,113.32628 L488.977833,112.788233 L488.977833,112.228019 L488.977833,111.689972 L488.977833,111.128751 C488.79085,110.2179 488.557625,109.120647 488.300273,107.85815 C488.020804,106.573488 487.742341,105.101415 487.460862,103.467122 C487.205521,101.830814 487.018538,100.358742 486.925047,99.0982608 C486.833566,97.8135979 486.785313,96.7143295 486.785313,95.8034783 L486.785313,93.6079643 C487.694088,93.981776 488.79085,94.3072239 490.072585,94.5651641 C491.332203,94.845271 492.79891,94.8926272 494.431487,94.7052175 C496.086182,94.5188154 497.530772,94.2155342 498.812506,93.7480177 C500.072125,93.3046831 501.167882,92.8835151 502.077662,92.5097034 C502.986437,91.9716564 504.267166,91.2492224 505.898739,90.3363561 C507.554439,89.4244973 509.512728,88.7715863 511.772602,88.4219565 C514.056602,88.0471372 515.922406,88.3282516 517.391123,89.2391028 C518.836718,90.149954 519.930465,91.2492224 520.654268,92.5097034 C521.563043,93.2573268 522.169228,94.168178 522.425575,95.2664389 C522.705043,96.3415254 522.308962,97.5798397 521.21421,98.9582074 C520.117448,100.312393 518.975447,101.457003 517.786199,102.368861 C516.597955,103.279713 515.735423,104.027336 515.198603,104.564376 C515.385585,104.564376 515.642937,104.611732 516.015897,104.703421 C516.388857,104.797126 516.877424,105.031892 517.50673,105.383537 C518.160164,105.756341 518.742222,106.15232 519.302164,106.619836 C519.838984,107.063171 520.303425,107.484339 520.654268,107.85815 L520.654268,107.85815 Z M496.621997,53.0972533 C497.530772,52.7234415 498.626529,52.1400534 499.909269,51.3218995 C501.167882,50.5037456 502.635594,49.6170763 504.267166,48.7042099 C505.898739,47.7933587 507.367456,47.3036755 508.649191,47.2099706 C509.908809,47.1162658 511.002556,47.2563193 511.913341,47.6311386 C511.190544,48.7042099 510.37526,50.2246463 509.46548,52.1400534 C508.556705,54.0544531 507.367456,56.1119289 505.898739,58.3074429 C504.453144,60.4797827 502.916067,61.9982039 501.260368,62.8163578 C499.629801,63.6335042 498.090714,64.0546721 496.621997,64.0546721 L497.717754,64.0546721 C497.157812,63.4934507 496.669245,62.8163578 496.202794,61.9982039 C495.76047,61.1810575 495.527245,60.1754939 495.527245,58.9845359 C495.527245,57.7925702 495.666979,56.6953169 495.946447,55.6907609 C496.202794,54.6851974 496.437025,53.8206948 496.621997,53.0972533 L496.621997,53.0972533 Z M544.708656,16.9554037 C543.240944,17.8672625 541.375141,18.731765 539.09114,19.5489114 C536.831266,20.3902396 534.126052,20.9736277 531.048884,21.348447 C527.9496,21.6980768 525.268513,21.9318351 522.984512,22.0255399 C520.699506,22.1192448 518.836718,22.2603058 517.391123,22.4235335 C517.018163,21.6980768 516.434094,20.7418846 515.594684,19.5489114 C514.7794,18.38012 513.638405,17.0501161 512.19281,15.577036 C510.724093,14.1291453 509.418231,12.9835283 508.229988,12.1663819 C507.040739,11.348228 506.085722,10.740658 505.363929,10.3910282 C504.267166,9.82980681 502.916067,9.24641871 501.260368,8.61567442 C499.629801,7.96175582 497.717754,7.42471634 495.527245,6.95719981 C493.33573,6.51285758 491.423684,6.23174311 489.793116,6.14005345 C488.160538,6.04634862 486.785313,6 485.691566,6 C485.876538,7.09725325 486.249497,8.5219696 486.785313,10.2509747 C487.345255,11.9799798 487.975567,14.0354405 488.696354,16.4183642 C489.420157,18.7781136 489.886608,20.8335743 490.072585,22.563587 C490.259567,24.3157664 490.259567,25.7163009 490.072585,26.8145617 C487.88107,27.5400184 485.154745,28.3098086 481.867473,29.1501292 C478.604328,29.9692908 474.782246,30.6927323 470.399216,31.3234766 C466.040314,31.9773952 462.19511,32.422745 458.931965,32.7028519 C455.645698,32.9819512 452.918368,33.1935427 450.725848,33.3789372 L450.725848,36.6737197 C450.913835,37.5845709 451.28579,38.8692338 451.82261,40.5055417 C452.382552,42.1398344 453.384819,44.0552416 454.830414,46.2527708 C456.29712,48.4482849 457.835202,50.1762825 459.46778,51.461953 C461.122474,52.7234415 462.56807,53.6353003 463.848799,54.1955141 C464.945561,54.0081044 466.342903,53.5174136 468.068973,52.6760853 C469.817158,51.858939 471.89206,50.6679809 474.362038,49.1263854 C476.809899,47.5837824 478.999404,46.2991195 480.91145,45.2945635 C482.823496,44.2900074 484.430942,43.611907 485.691566,43.2380952 C486.600341,42.5146537 487.742341,41.9060761 489.117567,41.4627415 C490.468666,40.995225 492.077117,40.995225 493.895672,41.4627415 C495.713222,41.9060761 497.297546,42.5610023 498.672772,43.3781487 C500.025882,44.195295 501.167882,44.8744031 502.077662,45.4336093 L502.077662,45.9716564 L502.077662,46.3928243 C502.077662,46.4865291 501.866553,46.8825076 501.400102,47.6311386 C500.956773,48.3545801 499.954507,49.4528409 498.394309,50.9017392 C496.855222,52.3728041 494.99143,53.0972533 492.79891,53.0972533 C490.6084,53.0972533 488.744607,52.3728041 487.205521,50.9017392 C485.643312,49.4528409 484.430942,47.981776 483.522167,46.5328777 L481.331658,46.5328777 C481.144675,47.0699172 480.865207,47.7016691 480.516374,48.4482849 C480.142409,49.1717265 479.723207,49.990888 479.280883,50.9017392 C478.814432,51.8125904 478.511842,52.6297367 478.324859,53.3773601 C478.138882,54.1018093 478.045391,54.7335611 478.045391,55.2927673 C478.418351,56.018224 478.767184,56.9754238 479.141148,58.1673895 C479.514108,59.3583476 480.049923,60.7608972 480.771716,62.3951899 C481.517635,64.0546721 482.42641,65.4552066 483.522167,66.6481798 C484.594803,67.8391379 485.691566,68.7963377 486.785313,69.5207868 C486.249497,69.8945985 485.549821,70.2442283 484.734537,70.6200552 C483.919254,70.9928593 482.962225,71.3908529 481.867473,71.8563543 C480.771716,72.3017041 479.816698,72.8155693 478.999404,73.3526088 C478.18412,73.9128225 477.509576,74.449862 476.948628,74.9869015 C476.762651,74.8246813 476.506304,74.6372717 476.133345,74.449862 C475.76139,74.2634599 475.318061,74.1244141 474.782246,74.0297017 C474.222304,73.9601787 473.778974,73.9128225 473.40702,73.9128225 L472.591736,73.9128225 C472.404754,76.0861699 472.171528,78.8660796 471.89206,82.2525518 C471.634708,85.6410391 471.307991,89.5887326 470.935032,94.168178 C470.586199,98.7244491 470.259482,102.696325 469.980014,106.082797 C469.723667,109.447102 469.490441,112.228019 469.304464,114.422526 C469.304464,114.797345 469.350707,115.239672 469.444198,115.801901 C469.53769,116.338941 469.677424,117.016034 469.863401,117.835195 C470.026257,118.674508 470.165991,119.445306 470.259482,120.170763 C470.352973,120.894204 470.399216,121.54913 470.399216,122.08617 C470.399216,122.624217 470.586199,123.767819 470.935032,125.519998 C471.307991,127.249003 472.125285,129.118062 473.40702,131.126166 C474.688754,133.136286 476.039853,134.094493 477.509576,134.000789 C478.954166,133.907084 480.2359,133.229991 481.331658,131.945328 C481.867473,129.211767 482.240433,125.777938 482.42641,121.665002 C482.589266,117.577255 482.544028,112.788233 482.286676,107.296929 C482.008213,101.830814 481.867473,97.0417926 481.867473,92.9308713 C481.867473,88.8179349 482.05345,85.4072809 482.42641,82.6737197 C482.776248,82.3009156 483.243704,81.8797477 483.77952,81.4354054 C484.337451,80.9688965 484.967763,80.4792132 485.691566,79.9169843 C486.43648,79.3799448 487.065786,78.8660796 487.602607,78.4217374 C488.160538,77.9552285 488.602862,77.5582424 488.977833,77.1844307 C488.977833,77.7436369 488.884341,78.4690936 488.696354,79.3799448 C488.511382,80.290796 488.300273,81.3900644 488.020804,82.6737197 C487.742341,83.9352083 487.602607,85.0334691 487.602607,85.9443203 C487.602607,86.8561791 487.694088,87.5806282 487.88107,88.140842 C487.88107,88.3282516 487.927313,88.5841766 488.020804,88.9589959 C488.114295,89.3328076 488.348526,89.7761423 488.696354,90.3363561 C489.070319,90.8733955 489.4664,91.3409121 489.932851,91.6915495 C490.375175,92.0663688 490.795383,92.3454681 491.168342,92.5097034 C492.077117,91.5978447 492.940654,90.4300609 493.755938,88.9589959 C494.571222,87.5090901 495.176401,85.7569107 495.527245,83.7498138 C495.900204,81.7396942 496.13343,80.0106891 496.202794,78.5627984 C496.29528,77.0907259 496.437025,75.8977527 496.621997,74.9869015 C497.157812,74.8246813 497.857488,74.590923 498.672772,74.3098086 C499.490066,74.0297017 500.398841,73.7264205 501.400102,73.3526088 C502.402368,72.978797 503.219663,72.6755158 503.871085,72.3944014 C504.501397,72.1142945 504.989964,71.9037105 505.363929,71.7163009 C505.549906,72.8155693 505.503663,74.1244141 505.22319,75.6881763 C504.943721,77.2307793 504.361663,78.9587769 503.451883,80.8751917 C502.543108,82.7905989 501.774067,84.450081 501.120634,85.8052745 C500.491327,87.1826346 500.072125,88.3282516 499.909269,89.2391028 C501.005026,89.0516932 502.402368,88.7715863 504.128438,88.4219565 C505.852496,88.0471372 507.857028,87.3236956 510.142034,86.2244272 C512.426035,85.127174 514.338081,83.8415035 515.876163,82.3936128 C517.436361,80.9225479 518.648731,79.5663469 519.557506,78.281684 L516.295365,74.9869015 L514.103851,74.9869015 L514.103851,73.6327156 L514.103851,71.8563543 L514.103851,70.3379331 L514.103851,69.5207868 C514.640671,69.3333771 515.340348,69.1469751 516.155631,68.9837473 C516.970915,68.7963377 517.973181,68.6562842 519.161424,68.563587 C520.351678,68.4698822 521.423309,68.422526 522.425575,68.422526 L525.035287,68.422526 L525.035287,69.0996189 L525.035287,70.0578263 L525.035287,71.039208 L525.035287,71.7163009 L526.131044,106.75989 C526.131044,107.111535 526.085807,107.624392 525.992316,108.256144 C525.897819,108.909055 525.75909,109.728217 525.572108,110.730757 C525.386131,111.736321 525.268513,112.647172 525.177032,113.466334 C525.082535,114.28348 525.035287,114.960573 525.035287,115.521794 L526.131044,122.08617 C525.944062,122.459982 525.665599,122.903316 525.292639,123.464538 C524.942801,124.002585 524.429102,124.633329 523.800801,125.380952 C523.171494,126.104394 522.565309,126.735138 522.029494,127.29636 C521.469552,127.834407 521.026223,128.299908 520.654268,128.651553 C520.117448,128.651553 519.39465,128.556841 518.485875,128.393613 C517.553979,128.207211 516.434094,127.879748 515.058869,127.436413 C513.683643,126.968896 512.472278,126.547729 511.377526,126.198099 C510.280763,125.824287 509.371988,125.54418 508.649191,125.380952 C508.813052,125.380952 509.000034,125.426293 509.185006,125.519998 C509.371988,125.590529 509.512728,125.730582 509.605214,125.917992 C509.698705,126.104394 509.744948,126.291804 509.744948,126.478206 C510.468751,127.739694 511.610751,129.398169 513.147828,131.384107 C514.685909,133.393219 516.784938,135.496035 519.441898,137.692557 C522.075737,139.888071 524.429102,141.430674 526.528131,142.341525 C528.625149,143.252377 530.302965,143.81259 531.585705,144 C531.959669,144 532.354745,143.953651 532.821196,143.859947 C533.26352,143.766242 533.729971,143.578832 534.172295,143.298725 C534.638746,143.0428 534.989589,142.761686 535.268052,142.481579 C535.547521,142.201472 535.780746,141.98988 535.967729,141.804486 C536.689521,141.617076 537.64655,141.288606 538.834793,140.845271 C539.999915,140.377754 541.281649,139.606957 542.65788,138.509703 C544.008979,137.411443 545.011246,136.266833 545.664679,135.098042 C546.29298,133.907084 546.689061,132.856179 546.877049,131.945328 C546.877049,128.463136 546.643823,124.142638 546.200494,118.931441 C545.735049,113.745433 545.104737,107.624392 544.289453,100.5925 C543.473164,93.5606081 542.914227,87.3690367 542.65788,81.9734525 C542.378412,76.5990275 542.331164,72.0679459 542.518146,68.422526 C541.957199,66.2270119 540.816204,64.0546721 539.09114,61.8571429 C537.367081,59.6626364 534.825728,58.2137381 531.444965,57.4661147 C528.088329,56.7416656 525.082535,56.7416656 522.425575,57.4661147 C519.790731,58.2137381 517.739956,58.9391948 516.295365,59.6626364 L516.295365,57.4661147 C516.644198,57.3028869 517.110649,57.1154773 517.646464,56.9290752 C518.206407,56.7416656 518.881956,56.5079073 519.69724,56.2519823 C520.514534,55.9708678 521.305691,55.6444123 522.029494,55.2927673 C522.751286,54.9199632 523.380593,54.5461515 523.94154,54.1955141 C525.035287,53.6353003 526.224536,52.7234415 527.483149,51.461953 C528.764883,50.1762825 529.487681,48.5883384 529.675669,46.6729312 C529.860641,44.7565164 529.300699,43.2380952 528.043091,42.1398344 C526.761356,41.0425812 525.386131,40.318132 523.94154,39.9443203 C523.03176,39.4062733 521.88976,38.9397643 520.514534,38.5891269 C519.161424,38.2163228 517.553979,38.2163228 515.735423,38.5891269 C513.916868,38.9397643 512.332544,39.5009857 510.957318,40.2234196 C509.605214,40.9488763 508.463213,41.6027949 507.554439,42.1398344 C507.740416,41.6027949 508.043006,40.995225 508.509456,40.3654882 C508.951781,39.7337364 509.605214,39.0788102 510.421503,38.450081 C511.236787,37.8183292 511.959584,37.2571078 512.612012,36.8137732 C513.241319,36.3462566 513.731896,35.948263 514.103851,35.5754589 C516.109388,35.2016472 518.555239,34.8036536 521.469552,34.3381522 C524.382859,33.8928024 527.763622,33.5673544 531.585705,33.3789372 C535.407787,33.1935427 538.78855,33.2398914 541.701857,33.5199982 C544.614159,33.8001051 547.062021,34.1043939 549.067558,34.4782056 C549.790356,35.2016472 550.745374,35.7628685 551.933617,36.1124984 C553.123871,36.4863101 554.405606,36.299908 555.756705,35.5754589 C557.13193,34.8520173 558.134197,33.9411662 558.764508,32.8418978 C559.393815,31.7436369 559.813018,30.8327857 560,30.1093442 C559.440058,29.0110834 558.624774,27.7717615 557.528012,26.3954089 C556.433259,25.039208 554.987664,23.6608402 553.170114,22.3056468 C551.351559,20.9272791 549.696865,19.8290183 548.252275,19.0118719 C546.782552,18.193718 545.617431,17.4934507 544.708656,16.9554037 L544.708656,16.9554037 Z M318.516187,65.1519254 L309.776265,70.6200552 L309.776265,69.2406799 L309.776265,67.3252727 L309.776265,65.4098655 L309.776265,64.0546721 C311.058,62.9564113 312.433225,61.5316949 313.878821,59.8016822 C315.346533,58.0736847 316.51266,55.9708678 317.444556,53.5174136 C318.353331,51.0417926 318.797666,48.8462785 318.797666,46.9298638 C318.797666,45.0144566 318.704174,43.4255049 318.516187,42.1398344 L313.062532,36.6737197 C313.248509,36.299908 313.528983,35.8092172 313.878821,35.1552985 C314.250775,34.5245543 314.646856,33.7074079 315.114312,32.7028519 C315.556637,31.6972883 315.883353,30.7864371 316.068325,29.9692908 C316.256313,29.1501292 316.349804,28.4508696 316.349804,27.9138301 C316.349804,26.44075 315.883353,24.9928593 314.973573,23.5207868 C314.064798,22.0718886 312.433225,20.6471722 310.054728,19.2929864 C307.701363,17.9146187 305.510854,16.581592 303.505316,15.3190958 C301.501789,14.0354405 299.963708,12.7507776 298.866945,11.4902966 L295.580678,15.8571429 L292.293406,14.7598896 C292.480388,16.2329697 292.714619,18.0063083 292.993082,20.1101327 C293.250434,22.211942 293.529903,24.5716914 293.808366,27.2357296 C294.08884,29.8755859 294.252701,32.1406229 294.345187,34.0570377 C294.438678,35.9966268 294.485926,37.5845709 294.485926,38.8692338 L294.485926,39.4062733 L294.485926,39.8284488 C294.485926,39.8979717 294.135083,40.2234196 293.389163,40.7856486 C292.666366,41.322688 291.175532,42.4672975 288.890526,44.195295 C286.606526,45.9253077 283.926444,47.8407149 280.826154,49.9435318 C277.72687,52.0463486 275.045783,53.6806413 272.761782,54.8736146 C270.499898,56.0645727 268.636105,56.9290752 267.167388,57.4661147 C268.636105,59.1245893 270.453655,61.0399965 272.644164,63.2365182 C274.812558,65.4098655 277.42227,67.5116748 280.430073,69.5207868 C283.437877,71.5309064 286.115948,72.9092741 288.472329,73.6327156 C290.848816,74.3571648 292.853348,74.8246813 294.485926,74.9869015 L294.485926,80.4792132 L294.485926,81.5754589 L293.950111,81.5754589 C293.762123,81.5754589 293.623394,81.6238227 293.529903,81.7155123 C293.436412,81.7860428 293.389163,81.9271039 293.389163,82.1135059 L293.389163,82.6737197 C291.757591,83.7498138 289.754064,85.2672274 287.376572,87.1826346 C285.022201,89.0990494 282.295877,91.2945635 279.194582,93.7480177 C276.094292,96.2236387 273.367967,98.1390459 270.98947,99.4952469 C268.636105,100.874622 266.630567,101.830814 265,102.368861 C265.16185,102.368861 265.348833,102.414202 265.53481,102.508915 C265.721792,102.60262 265.861527,102.741666 265.955018,102.930083 C266.025388,103.115477 266.070625,103.233364 266.070625,103.326061 C266.070625,103.419766 266.352104,104.121041 266.910036,105.383537 C267.446856,106.667192 268.821077,108.162439 270.98947,109.913611 C273.180985,111.643624 276.000801,111.947913 279.475055,110.872826 C282.923173,109.774565 285.930976,108.067727 288.472329,105.80269 C291.035798,103.513471 293.041336,101.643405 294.485926,100.194507 L294.485926,120.987909 L292.293406,125.380952 C291.944573,125.54418 291.478122,125.730582 290.942307,125.917992 C290.382365,126.104394 289.754064,126.244447 289.031266,126.338152 C288.308468,126.431857 287.655035,126.478206 287.11922,126.478206 L285.743994,126.478206 C286.115948,127.389057 286.701022,128.556841 287.516306,130.028913 C288.33159,131.477811 289.520838,133.089937 291.082041,134.817935 C292.621128,136.547948 294.08884,137.878959 295.440944,138.78981 C296.81617,139.700661 297.95817,140.332413 298.866945,140.706225 C299.590748,140.519823 300.359789,140.122837 301.175072,139.466903 C301.990356,138.837167 302.877015,137.925308 303.786795,136.73435 C304.69557,135.543392 305.556091,134.537828 306.373386,133.720682 C307.188669,132.902528 307.958715,132.31914 308.703629,131.945328 C309.052462,129.935208 309.332936,127.389057 309.518913,124.281684 C309.682774,121.175319 309.682774,117.529899 309.518913,113.32628 C309.332936,109.120647 309.145953,105.475227 308.960981,102.368861 C308.773999,99.2614886 308.703629,96.7143295 308.703629,94.7052175 C308.33067,93.2573268 308.285432,91.4346169 308.563895,89.2391028 C308.821247,87.0435887 309.730022,84.4964297 311.291225,81.5754589 C312.829307,78.6544881 314.390509,76.0861699 315.929596,73.9128225 C317.467678,71.7163009 318.704174,69.8945985 319.612949,68.422526 L318.516187,65.1519254 Z M345.834725,111.128751 C346.931487,110.591712 348.352956,109.961975 350.077015,109.212336 C351.803084,108.489902 353.853859,107.811802 356.230346,107.156876 C358.585722,106.528146 360.636497,106.105971 362.361561,105.942743 C364.085619,105.756341 365.508093,105.662636 366.602845,105.662636 L364.412336,125.380952 C363.690544,125.380952 362.733515,125.519998 361.546277,125.777938 C360.356023,126.058045 358.910428,126.385508 357.186369,126.735138 C355.438184,127.10895 353.900102,127.249003 352.524876,127.155299 C351.172772,127.062601 350.030772,126.828843 349.121997,126.478206 L345.834725,111.128751 Z M375.344778,34.4782056 C376.06657,33.7527489 376.74212,32.7955491 377.395553,31.6035835 C378.025865,30.4126254 378.490305,29.0110834 378.747657,27.3526088 C379.02612,25.7163009 379.214108,24.3157664 379.307599,23.1227932 C379.39908,21.9318351 379.540825,20.9736277 379.70368,20.2501862 C378.444062,18.9655233 376.835611,17.4229202 374.92457,15.577036 C373.012523,13.7553336 370.75265,11.9799798 368.095689,10.2509747 C365.460845,8.5219696 363.084358,7.37736014 361.009456,6.81714636 C358.910428,6.28010689 357.141131,6 355.671409,6 C355.321571,7.47005739 354.715386,9.29276734 353.900102,11.4902966 C353.084819,13.6616288 351.942818,16.2329697 350.473096,19.1519254 C349.028506,22.0718886 347.699523,24.6190476 346.534401,26.8145617 C345.345152,29.0110834 344.390135,30.8327857 343.666332,32.2806764 C342.921418,34.1043939 341.872909,36.3936128 340.520804,39.127174 C339.146584,41.8597275 337.559243,45.0597976 335.741694,48.7042099 C333.924144,52.3728041 332.502675,55.5507075 331.500409,58.3074429 C330.497138,61.0399965 329.821588,63.3060411 329.448628,65.1519254 C329.634606,65.8763745 329.867831,66.740877 330.125183,67.745433 C330.403646,68.749989 330.730363,69.8482499 331.079196,71.039208 C331.454166,72.2079993 331.779877,73.2125553 332.036224,74.0297017 C332.315693,74.8710299 332.547913,75.5491304 332.7359,76.0861699 C333.084733,75.8977527 333.504941,75.7355325 333.948271,75.5491304 C334.413716,75.3627283 334.92641,75.2206597 335.463231,75.1289701 C335.999046,75.0352653 336.510734,74.9869015 336.954064,74.9869015 L338.189555,74.9869015 C339.09833,75.5491304 340.333822,75.8755859 341.872909,75.9461164 C343.434111,76.0398213 345.159175,75.5017742 347.071222,74.3098086 C348.982263,73.1188505 350.449974,71.7646647 351.428114,70.1988873 C352.431385,68.6562842 353.131062,67.3252727 353.4809,66.2270119 C353.853859,66.0627765 354.32031,65.8763745 354.856125,65.6899724 C355.390935,65.5035703 356.044369,65.4098655 356.766161,65.4098655 C357.489964,65.4098655 358.141387,65.5035703 358.678208,65.6899724 C359.214023,65.8763745 359.680474,66.0627765 360.052428,66.2270119 C358.771699,67.8854865 357.301976,69.9409471 355.671409,72.3944014 C354.039836,74.8710299 352.361016,77.7436369 350.61283,81.0142375 C348.888772,84.30902 347.489419,87.1826346 346.395672,89.6360888 C345.29891,92.1117098 344.390135,94.168178 343.666332,95.8034783 L342.432851,95.8034783 C341.9664,95.8034783 341.475822,95.849827 340.91588,95.9435318 C340.380065,96.0372366 339.867371,96.1772901 339.425047,96.3415254 C338.958596,96.5269199 338.562515,96.7143295 338.189555,96.9027467 C337.467763,97.4377711 336.510734,97.8135979 335.322491,98 C334.133242,98.1874096 332.7359,98.0473562 331.079196,97.5798397 C329.448628,97.1344899 328.049276,96.7143295 326.862038,96.3415254 C325.671784,95.9898804 324.717771,95.8034783 323.993968,95.8034783 L321.802454,99.0982608 C322.176418,101.643405 322.712234,104.797126 323.435032,108.536251 C324.180951,112.27336 325.533055,116.619048 327.537587,121.54913 C329.543125,126.478206 331.827126,130.800718 334.366468,134.537828 C336.907821,138.276953 339.285313,141.430674 341.475822,144 C343.293372,143.626188 345.532135,143.298725 348.164968,143.0428 C350.800818,142.761686 353.853859,142.575284 357.301976,142.481579 C360.776231,142.387874 363.830278,142.294169 366.463111,142.201472 C369.097955,142.107767 371.334708,141.98988 373.152258,141.804486 C374.24902,142.341525 375.880593,142.575284 378.071102,142.481579 C380.262617,142.387874 382.406884,141.523371 384.481786,139.888071 C386.578804,138.229597 387.535832,136.454243 387.371971,134.537828 C387.184989,132.622421 386.43907,131.034477 385.181462,129.749814 C385.367439,129.398169 385.576538,128.93166 385.857011,128.393613 C386.135475,127.834407 386.43907,127.202655 386.812029,126.478206 C387.184989,125.730582 387.487579,125.09883 387.768052,124.561791 C388.047521,124.002585 388.280746,123.558242 388.444607,123.183423 C388.629579,122.08617 389.09603,120.68362 389.818828,118.931441 C390.541625,117.203443 391.4504,115.100626 392.546158,112.647172 C393.64292,110.171551 394.364713,107.998204 394.736667,106.082797 C395.109627,104.144215 395.179997,102.556271 395.018146,101.269593 C394.458204,99.6353003 393.454933,97.9526438 392.010342,96.2236387 C390.541625,94.4714592 388.489845,93.022561 385.857011,91.8326105 C383.222167,90.6396373 380.891924,89.8224909 378.886386,89.3791563 C376.883864,88.9116397 375.344778,88.5136461 374.24902,88.140842 C373.33924,88.8652911 372.243483,89.542384 370.961748,90.1963026 C369.70414,90.8270469 368.281666,91.2945635 366.743585,91.5525036 C365.181377,91.8326105 363.876521,92.018005 362.781769,92.1117098 C361.685006,92.2054146 360.776231,92.3454681 360.052428,92.5097034 C360.403271,91.9716564 360.869722,91.3409121 361.405538,90.5932886 C361.964474,89.8698471 362.593781,89.0516932 363.317584,88.140842 C364.062498,87.2299908 364.691804,86.4128444 365.22762,85.665221 C365.787562,84.9397643 366.229886,84.30902 366.602845,83.7498138 C367.886591,82.3009156 369.610649,80.4792132 371.801159,78.281684 C373.969552,76.0861699 376.393287,73.5390108 379.02612,70.6200552 C381.660964,67.6990844 383.619254,65.1519254 384.899983,62.9564113 C386.182723,60.7608972 386.999012,58.9391948 387.371971,57.4661147 C386.43907,56.3920357 385.272943,55.2474263 383.806236,54.0544531 C382.360641,52.863495 380.565207,51.858939 378.490305,51.0417926 C376.393287,50.2246463 374.527483,49.6634249 372.873795,49.4054847 C371.242222,49.1263854 369.889112,48.8926272 368.795365,48.7042099 C368.422406,49.2654313 367.931828,49.8971832 367.280406,50.6206247 C366.651099,51.3692557 365.881053,52.1400534 364.972278,52.9571998 C364.062498,53.7743462 363.270336,54.475621 362.640024,55.0126604 C362.011723,55.5507075 361.498024,56.018224 361.149191,56.3920357 C361.685006,55.2927673 362.455052,53.868051 363.457318,52.1400534 C364.459584,50.4100407 365.787562,48.3092391 367.419134,45.8316029 C369.049702,43.3781487 370.564662,41.1826346 371.917771,39.2672274 C373.294002,37.3508126 374.436003,35.7628685 375.344778,34.4782056 L375.344778,34.4782056 Z" id="Fill-5" fill="#005D97"></path>
                <path d="M671.573352,110.497642 L670.469643,101.696477 C671.221299,101.345281 672.183377,100.969794 673.354867,100.616574 C674.552659,100.242099 676.028655,99.9141806 677.765657,99.6560968 C679.500635,99.3747348 681.04947,99.1399291 682.433406,98.9516797 C683.817342,98.7644424 684.942296,98.5994712 685.881106,98.4112218 L683.676723,106.109205 C683.863878,106.484692 683.723259,106.883457 683.253854,107.353068 C682.807716,107.799401 681.753578,108.268 680.088403,108.714334 C678.445485,109.182933 676.851126,109.535142 675.278012,109.817516 C673.730188,110.097865 672.487883,110.332671 671.573352,110.497642 L671.573352,110.497642 Z M710.065591,122.606329 C711.894652,121.31591 713.724726,118.898019 715.554799,115.332413 C717.384872,111.739481 718.768808,107.3055 719.683339,101.978851 C720.59787,96.6754814 721.067275,92.7809456 721.067275,90.2922077 L721.067275,86.3025351 L721.067275,76.4002122 C718.674725,75.1330711 715.743977,74.3810857 712.269974,74.2171265 C708.775738,74.0298892 704.788829,74.6634597 700.307223,76.1411163 C695.804373,77.5954946 691.909524,78.7938133 688.62571,79.7087459 C685.317618,80.6236784 682.574025,80.9991651 680.369642,80.8119278 C679.455111,80.2481917 678.492021,79.6146212 677.483407,78.887938 C676.475804,78.1592307 675.606798,77.3151447 674.879422,76.4002122 C674.153058,75.4842676 673.637117,74.6634597 673.354867,73.9357645 C673.097908,73.2090814 672.863205,72.5512206 672.675038,72.0107627 C675.418631,70.3448568 678.867343,68.7497974 682.972615,67.2002822 C687.101155,65.6274889 691.909524,64.4777507 697.423011,63.7510676 C702.911208,63.0233723 707.718565,62.6013293 711.847105,62.5314949 C715.97868,62.4363581 719.403112,62.2966892 722.146705,62.1074277 C723.436558,62.1074277 725.173559,62.2481087 727.377943,62.5314949 C729.582326,62.7885666 731.905073,63.6103866 734.391706,64.9949305 C736.853049,66.3794744 738.566782,68.0221022 739.481313,69.9460919 C740.395844,71.8710938 740.840969,73.6544025 740.840969,75.2960182 C740.840969,78.4183267 740.888517,82.2673183 740.9826,86.8662711 C741.075672,91.4419459 740.794434,96.7210256 740.161141,102.65999 C739.528861,108.620209 738.426163,113.807188 736.853049,118.217892 C735.306237,122.606329 733.710866,126.266059 732.045692,129.20113 C731.318316,130.490538 730.356238,131.594732 729.160468,132.509664 C727.963688,133.424597 726.509948,134.059179 724.773958,134.433654 C723.0147,134.809141 721.466877,135.254462 720.081929,135.818198 C718.722273,136.358656 717.573039,137.084327 716.658508,138.000271 C716.283186,138.915204 715.69643,139.924261 714.874971,141.028455 C714.053512,142.129613 712.949803,142.952445 711.566878,143.515169 C710.20621,144.054615 709.008417,144.148739 708.001827,143.773253 C706.992201,143.422056 706.218289,142.952445 705.654801,142.412999 C704.74027,141.849263 703.872275,140.887774 703.051827,139.525496 C702.23138,138.140952 701.456457,136.263519 700.705813,133.894208 C699.978437,131.500607 699.204526,129.434924 698.384078,127.697159 C697.563631,125.961419 696.670344,124.624444 695.755814,123.708499 C696.319302,123.708499 697.046678,123.896748 697.96222,124.247945 C698.876751,124.624444 700.119056,124.952362 701.66688,125.211458 C703.239994,125.49282 704.74027,125.351127 706.218289,124.811681 C707.673041,124.247945 708.961882,123.521262 710.065591,122.606329 L710.065591,122.606329 Z M674.879422,42.3017699 L679.265933,28.0120217 C680.369642,27.636535 681.70603,27.1891896 683.253854,26.6264657 C684.825956,26.0870198 686.514399,25.5232837 688.344472,24.9828258 C690.173534,24.4201018 691.698089,24.0678933 692.871602,23.8796439 C694.067371,23.6934187 695.02945,23.599294 695.755814,23.599294 C696.670344,23.2470854 697.375464,23.2936417 697.819578,23.7389629 C698.289995,24.2085743 698.195911,25.3583125 697.563631,27.1891896 C696.905047,29.0210789 696.178683,30.7082388 695.357224,32.2577539 C694.536776,33.8305472 693.926752,34.9802855 693.57571,35.7079807 L674.879422,42.3017699 Z M708.961882,32.3984349 C710.6048,30.5685699 712.621017,28.643568 715.01559,26.6264657 C717.384872,24.6083512 719.54272,22.7784861 721.466877,21.1348463 C723.390022,19.4932306 724.351088,18.2007872 724.351088,17.2858547 C724.351088,16.3709222 724.000046,15.5501143 723.249402,14.7991409 C722.522027,13.695959 721.512401,12.6858897 720.22356,11.7709572 C718.956975,10.8560246 717.290789,10.1293415 715.274572,9.58989567 C713.255321,9.02615958 711.425247,8.48570165 709.783341,7.92297766 C708.141434,7.38251973 706.75851,6.74996129 705.654801,6 C705.115592,6.3744746 703.427149,7.10216983 700.566205,8.20535175 C697.727518,9.30650948 693.435091,10.3165788 687.664644,11.2315113 C681.893185,12.1464439 676.945209,12.2405686 672.815658,11.5138854 C668.687117,10.7618999 665.708822,9.68402036 663.878749,8.20535175 C663.504439,8.01710236 663.010754,8.11122705 662.377462,8.48570165 C661.720901,8.83892229 661.135157,9.72956457 660.571668,11.0908303 C660.032459,12.4753743 659.797756,13.7900837 659.89184,15.0805029 C659.985923,16.3709222 660.220626,17.3799794 660.571668,18.1086867 C658.389541,31.1323059 655.224091,43.7804385 651.09555,56.0530844 C646.965999,68.3510325 642.298249,78.324202 637.067012,86.0211731 C631.860054,93.7414223 628.012752,99.8666122 625.52713,104.465565 C623.064776,109.043264 621.540221,113.993413 621,119.297795 C623.01824,117.842405 625.433047,116.411305 628.271734,115.049027 C631.133689,113.664483 634.276883,111.975299 637.77112,109.958197 C641.243099,107.93907 644.221394,105.521179 646.70904,102.65999 C649.172405,99.8200559 651.23617,96.9325532 652.877065,94.0005183 C653.065231,94.5622302 653.394017,95.3850622 653.840155,96.487232 C654.308548,97.5904139 654.895305,99.1854733 655.62268,101.298725 C656.373324,103.409952 656.959069,105.474622 657.428474,107.493749 C657.8736,109.488585 658.202386,111.247604 658.389541,112.702994 C658.553428,116.01254 659.116917,119.226949 660.032459,122.325979 C660.94699,125.445251 662.377462,127.276129 664.300607,127.839865 C666.223752,128.37931 667.913206,127.839865 669.367957,126.171935 C670.845977,124.530319 671.948674,122.981816 672.675038,121.503147 L683.676723,119.297795 C684.591254,119.297795 685.881106,119.390908 687.524025,119.578145 C689.164919,119.766395 691.089076,119.718826 693.292448,119.437464 C695.498855,119.179381 697.233833,118.475976 698.523686,117.372794 C699.791282,116.29289 700.705813,115.097607 701.26829,113.807188 C701.996677,112.702994 702.535886,111.599812 702.911208,110.497642 C703.285518,109.417739 703.051827,108.572641 702.23138,108.033195 C701.410932,107.493749 700.353759,107.210363 699.063906,107.210363 L695.755814,107.210363 C698.523686,104.091091 700.987051,100.829113 703.191435,97.4497329 C705.397842,94.0460625 705.983587,91.2071402 704.974972,88.9309419 C703.966358,86.6314655 701.902594,85.1527968 698.782668,84.5192263 C695.66173,83.8846437 692.824054,83.3694881 690.268629,83.0172795 L688.063234,86.3025351 C686.960536,86.6780218 685.599868,87.1709113 683.933682,87.82776 C682.292787,88.4623426 680.321083,89.2365941 678.046895,90.1515267 C675.748428,91.0664592 673.683653,91.8629768 671.854591,92.4975594 C670.025529,93.13113 668.452415,93.6472976 667.186842,94.0005183 C666.623353,93.4610724 665.896989,92.8973364 664.982458,92.3568784 C664.065904,91.8174326 662.964218,91.3012649 661.675377,90.8559438 C660.406769,90.3863324 659.306095,89.9632773 658.389541,89.6120808 C657.47501,89.2365941 656.724366,88.8833735 656.185157,88.5078868 C657.099688,86.8662711 658.202386,84.8016004 659.492238,82.3128625 C660.759835,79.8494269 662.143771,76.9629362 663.598522,73.6544025 C665.074518,70.3448568 666.272311,67.4593782 667.186842,64.9949305 C668.101373,62.5314949 668.827737,60.465812 669.367957,58.798894 C671.760508,57.6967242 674.78635,56.4761394 678.445485,55.0926076 C682.10462,53.7303298 686.280708,52.2526732 690.947445,50.7031581 C695.639474,49.1303648 699.533312,47.7701111 702.62997,46.5738166 C705.748884,45.3754979 708.235518,44.3198843 710.065591,43.4049518 C710.6048,43.0304772 711.074205,42.443463 711.425247,41.621643 C711.800569,40.8008352 711.847105,39.6966412 711.566878,38.3120973 C711.28564,36.9518436 710.886038,35.7555491 710.32255,34.7454798 C709.783341,33.7364225 709.337203,32.962171 708.961882,32.3984349 L708.961882,32.3984349 Z" id="Fill-7" fill="#005D97"></path>
                <mask id="mask-4" fill="white">
                    <use xlink:href="#path-3"></use>
                </mask>
                <g id="Clip-10"></g>
                <path d="M942.784808,120.574042 L1014.12138,120.574042 L1014.12138,42.6405558 L942.784808,42.6405558 L942.784808,120.574042 Z M933.054485,135 C935.749966,134.769831 937.451261,134.635565 938.17751,134.597204 C938.884621,134.558842 940.74003,134.693108 943.740717,135 L943.511057,127.586128 L1014.4286,127.586128 L1014.19995,135 C1017.50584,134.769831 1019.47507,134.635565 1020.10563,134.597204 C1020.73719,134.558842 1022.38007,134.693108 1025,135 L1024.54068,126.91581 L1024.1005,120.286331 L1024.1005,48.1969219 C1024.1005,45.5146427 1024.11964,43.2916925 1024.15791,41.5684517 C1024.19619,39.843192 1024.36944,37.4112723 1024.65551,34.2676451 C1018.52017,34.6330892 1013.85445,34.8238874 1010.70166,34.8238874 L946.550021,34.8238874 C943.625887,34.8238874 939.248249,34.6330892 933.398974,34.2676451 L933.838148,41.9126961 C933.914702,43.0241712 933.952978,45.0916563 933.952978,48.1010181 L933.952978,118.140103 C933.952978,119.865363 933.838148,122.279112 933.609496,125.382358 C933.398974,128.505795 933.206584,131.704946 933.054485,135 L933.054485,135 Z M982.237947,88.6198893 L995.235887,88.6198893 L992.101232,85.9376101 L993.994918,84.4818906 L982.237947,84.4818906 L982.237947,88.6198893 Z M982.237947,70.458729 L995.905728,70.458729 L995.905728,65.2849687 L982.237947,65.2849687 L982.237947,70.458729 Z M982.237947,78.7337168 L995.657937,78.7337168 L995.657937,74.8268969 L982.237947,74.8268969 L982.237947,78.7337168 Z M960.561284,70.458729 L973.407124,70.458729 L973.407124,65.2849687 L960.561284,65.2849687 L960.561284,70.458729 Z M960.561284,78.7337168 L973.407124,78.7337168 L973.407124,74.8268969 L960.561284,74.8268969 L960.561284,78.7337168 Z M972.966943,43.7136694 C974.267341,43.8671156 975.299803,43.9630194 976.083467,44.0013809 C976.847992,44.0397425 977.44128,44.0397425 977.823039,44.0397425 C978.357905,44.115456 980.020924,43.9822002 982.792958,43.5985848 C982.65899,44.9392196 982.526029,46.0698755 982.411199,46.9703622 C982.295362,47.8698393 982.237947,48.5028047 982.237947,48.8682489 L982.237947,49.9968857 L998.255712,49.9968857 C1001.08516,49.9968857 1005.77002,49.767726 1012.24884,49.3265683 C1012.03933,50.3229588 1011.88522,51.0710088 1011.80866,51.5868706 C1011.73312,52.1047514 1011.71398,52.5267283 1011.75225,52.8709727 C1011.79053,53.2162265 1011.96177,54.4034152 1012.24884,56.415377 C1006.64837,55.9742193 1001.98466,55.7440501 998.255712,55.7440501 L982.237947,55.7440501 L982.237947,60.9168008 L995.696214,60.9168008 C998.007921,60.9168008 1001.12344,60.7260026 1005.04276,60.3625775 C1004.75569,62.4300626 1004.58344,63.9826954 1004.54517,65.0547995 C1004.5079,66.1289226 1004.48876,67.4685479 1004.48876,69.0797326 L1004.48876,76.2634356 C1004.48876,78.6186322 1004.52704,80.094542 1004.60258,80.6689555 L1005.04276,85.3046447 L999.194497,84.7675832 L1008.96108,93.4847382 C1006.43885,94.8072018 1003.95289,96.1670175 1001.54448,97.5651946 L999.536972,94.3670536 L995.77176,94.5780421 L995.77176,99.1168179 L1001.81141,99.0027428 C1004.06872,99.0027428 1007.05027,98.8876582 1010.77721,98.6776793 C1010.62511,99.405539 1010.52841,100.055666 1010.50927,100.591718 C1010.47099,101.14897 1010.41358,101.646661 1010.33703,102.086809 L1010.45186,102.967105 L1010.77721,105.957286 C1008.38895,105.880563 1006.47713,105.78365 1005.00449,105.631213 C1003.55199,105.477767 1002.53867,105.401044 1001.92725,105.401044 L995.77176,105.401044 L995.77176,109.674317 C995.77176,111.838716 995.677075,113.313616 995.50483,114.099018 C995.31244,114.88442 994.721167,115.669822 993.706836,116.455224 C992.694519,117.240626 988.69864,118.120923 981.704089,119.099142 C981.396868,117.891763 981.110801,116.934743 980.862003,116.168522 C980.595073,115.421482 979.600888,113.600318 977.879447,110.669698 C983.48093,111.359197 986.539032,111.474281 987.01749,111.072495 C987.495948,110.650518 987.743739,109.845935 987.743739,108.657737 L987.743739,105.401044 L968.245822,105.401044 L973.520947,111.915439 C970.673367,113.18036 968.036308,114.597718 965.569479,116.186693 L964.557163,114.38572 C963.658669,112.738193 962.511378,111.014952 961.078018,109.212969 L959.185339,106.857773 L961.651161,105.401044 L957.943363,105.401044 C957.503182,105.401044 953.507303,105.631213 945.976878,106.072371 C946.109839,104.730726 946.205531,103.754526 946.243808,103.179103 C946.282084,102.60368 946.282084,102.010086 946.243808,101.397311 C946.205531,100.783526 946.109839,99.5589852 945.976878,97.7186408 C953.43075,98.1597985 957.312806,98.3889582 957.618012,98.3889582 L987.743739,98.3889582 L987.743739,94.3670536 L975.871938,94.3670536 C963.696946,94.5204998 954.921524,94.8829154 949.551715,95.4967 C948.958427,93.007238 948.251316,90.4955667 947.429376,87.9495719 C953.030859,88.3887106 958.210293,88.6198893 962.989836,88.6198893 L973.407124,88.6198893 L973.407124,84.4818906 L961.135433,84.4818906 C958.305984,84.4818906 955.247882,84.6726888 951.978252,85.0371235 C952.189781,83.1402463 952.342887,81.665346 952.418433,80.6114132 C952.494986,79.5574804 952.533263,78.0058571 952.533263,75.9747145 L952.533263,68.8869154 C952.533263,66.7023266 952.494986,65.2839592 952.418433,64.6328225 L951.978252,60.3625775 C956.35589,60.7260026 959.339453,60.9168008 960.906781,60.9168008 L973.407124,60.9168008 L973.407124,55.7440501 L957.503182,55.7440501 C955.113914,55.7440501 951.232865,55.9742193 945.862048,56.415377 C945.938602,55.2857306 945.976878,54.422596 946.015155,53.8481824 C946.053432,53.2737688 946.090701,52.8517919 946.128978,52.6226322 C946.167254,52.3722726 946.071563,51.2809878 945.862048,49.3265683 C951.673046,49.767726 955.553088,49.9968857 957.503182,49.9968857 L973.407124,49.9968857 L973.407124,48.8682489 C973.407124,47.8324873 973.254018,46.1082371 972.966943,43.7136694 L972.966943,43.7136694 Z M785.656197,121.858144 C788.5622,124.539414 790.282634,126.187951 790.799368,126.799716 C791.314088,127.393311 792.366696,128.888401 793.934023,131.283978 L795.84584,130.498576 C802.03759,127.950562 806.951101,125.785154 810.564214,123.985191 C814.195458,122.183208 818.362575,119.443386 823.102834,115.745536 C827.863239,112.029514 830.825649,109.462319 832.011217,108.045971 L833.023534,108.161056 L833.023534,121.187827 C833.023534,123.658108 832.986264,125.593347 832.909711,127.011714 C832.833158,128.448253 832.681059,130.460215 832.46953,133.083942 C835.814706,132.624613 839.141752,132.624613 842.409368,133.083942 L841.971201,127.240874 C841.892633,126.41711 841.854356,124.44351 841.854356,121.302911 L841.854356,107.833973 C844.914473,111.723631 847.112357,114.308997 848.470171,115.631461 C849.806831,116.934743 852.464036,119.06078 856.421638,122.030771 C860.378234,124.980572 867.086718,127.797116 876.56925,130.498576 L879.703905,131.399063 C880.391878,128.85004 880.966027,127.164151 881.442471,126.341397 C881.940067,125.517633 883.69777,123.428948 886.777025,120.057171 L883.641363,119.942086 C882.514216,119.942086 879.072341,119.424205 873.318758,118.371282 C867.584314,117.335521 863.169406,115.937343 860.111304,114.213093 C857.051188,112.509033 854.318438,110.477891 851.928163,108.161056 L867.163271,108.161056 C871.580193,108.161056 877.506021,108.428577 884.97903,108.945448 L884.636555,106.05319 C884.558995,106.05319 884.558995,105.439405 884.636555,104.251207 L884.636555,102.776307 C884.636555,102.067628 884.750378,100.995524 884.97903,99.5589852 C877.506021,100.074847 871.580193,100.343378 867.163271,100.343378 L841.854356,100.343378 L841.854356,98.4273197 C841.854356,97.5460138 841.873495,96.7616213 841.911771,96.0721231 C841.952063,95.4007962 842.1233,94.4629575 842.409368,93.2747593 C839.772309,93.6391939 838.184836,93.8108113 837.650978,93.7724498 C837.115105,93.7350978 835.393663,93.5796326 832.46953,93.2747593 L832.909711,95.9752098 C832.986264,96.4153579 833.023534,97.202779 833.023534,98.3324254 L833.023534,100.343378 L804.350304,100.343378 C800.165057,100.343378 794.67941,100.074847 787.893366,99.5589852 C788.10288,102.412882 788.236848,104.022047 788.275125,104.404653 C788.313401,104.807449 788.294263,105.344511 788.21771,106.05319 C788.141157,106.742688 788.046472,107.719898 787.893366,108.945448 C794.83151,108.428577 800.318163,108.161056 804.350304,108.161056 L820.809258,108.161056 C815.896754,111.742812 810.334554,114.731984 804.121652,117.08718 C797.928895,119.443386 792.824001,120.879925 788.791859,121.397806 L785.656197,121.858144 Z M810.315416,57.9286388 L835.203287,57.9286388 L835.203287,51.7221455 L810.315416,51.7221455 L810.315416,57.9286388 Z M810.315416,70.9170484 L835.203287,70.9170484 L835.203287,64.9397149 L810.315416,64.9397149 L810.315416,70.9170484 Z M810.315416,84.4818906 L835.203287,84.4818906 L835.203287,77.9301435 L810.315416,77.9301435 L810.315416,84.4818906 Z M783,66.5488805 L785.695481,64.4228436 C787.855089,62.7187836 790.301772,60.6300988 793.03553,58.1971696 C795.749142,55.7440501 798.674282,51.8745821 801.808937,46.5867468 C804.943592,41.2989114 806.98837,37.4496338 807.963417,35.0550661 L810.201593,29.209979 C813.985944,31.2411215 817.751156,32.8502871 821.478092,34.0384853 L819.128108,37.2961877 C818.840026,37.7555166 818.172199,38.6166322 817.177007,39.8815535 C816.16469,41.1464748 814.959984,42.7556404 813.545763,44.7100599 L840.344444,44.7100599 L839.446958,43.0241712 C838.567602,41.3756345 836.924729,39.1728745 834.534454,36.3946915 L832.201593,33.7144313 C833.616822,33.1763602 834.477039,32.8311064 834.821528,32.6403082 C835.165011,32.44951 836.407994,31.6822792 838.567602,30.3416444 L840.689941,29 L850.075775,39.8815535 C846.577492,41.6835363 843.957557,43.2916925 842.256261,44.7100599 L865.884025,44.7100599 C871.483494,44.7100599 876.931871,44.5192617 882.226134,44.1538176 C881.997482,45.2844735 881.863514,46.1657794 881.787968,46.7977353 C881.711414,47.4307007 881.692276,47.9657432 881.730553,48.4260817 C881.768829,48.8864201 881.920929,50.2088837 882.226134,52.3934724 C876.855318,51.9513052 871.483494,51.7221455 866.09354,51.7221455 L844.033103,51.7221455 L844.033103,57.9286388 L861.84987,57.9286388 C865.884025,57.9286388 870.127696,57.7368311 874.619157,57.3723965 C874.46605,58.44551 874.35122,59.3076352 874.27366,59.9779526 C874.198114,60.6300988 874.198114,61.1287988 874.27366,61.4346816 L874.390504,62.7187836 L874.619157,65.4959572 C870.127696,65.1315226 865.845749,64.9407244 861.73504,64.9407244 L844.033103,64.9407244 L844.033103,70.9170484 L862.059384,70.9170484 C865.653358,70.9170484 869.935305,70.7646118 874.943501,70.4769002 C874.714848,71.5500138 874.581887,72.3737774 874.504327,72.9673717 C874.428781,73.5427948 874.409642,74.0394758 874.446912,74.4230912 C874.485188,74.8077161 874.657433,76.1281607 874.943501,78.3692822 C869.935305,78.0825802 865.653358,77.929134 862.059384,77.929134 L844.033103,77.929134 L844.033103,84.4818906 L866.552859,84.4818906 C871.406941,84.4818906 876.263037,84.2517214 881.098988,83.8105637 C880.966027,84.9987619 880.868321,85.9184293 880.830044,86.5312045 C880.792775,87.1631604 880.754498,87.7567547 880.716222,88.3119875 C880.677945,88.8682298 880.697083,89.2316549 880.773637,89.3861106 L881.098988,92.04719 C875.957832,91.6847744 871.101735,91.4939762 866.552859,91.4939762 L810.315416,91.4939762 L810.315416,93.503919 L810.430246,94.9788192 L810.544068,96.3204636 C807.848588,96.0913039 806.224852,95.9570385 805.612426,95.918677 C805.019138,95.8994962 803.452818,96.0145808 800.930589,96.3204636 C801.140103,93.6200131 801.292203,91.4939762 801.368756,89.9403339 C801.445309,88.3695298 801.483586,86.4363101 801.483586,84.1356273 L801.483586,60.7451834 L791.963784,72.6614889 C789.804176,70.745431 786.803489,68.6951077 783,66.5488805 L783,66.5488805 Z" id="Fill-9" fill="#005D97" mask="url(#mask-4)"></path>
                <path d="M431.659298,186.090094 L425.234425,167.816995 L425.045429,167.816995 L418.623572,186.090094 L431.659298,186.090094 Z M417.337793,189.595133 L415.136185,195.692567 C414.885866,196.549624 414.211309,196.984217 413.113522,196.984217 C411.88404,196.984217 411.273822,196.487973 411.273822,195.502559 C411.273822,195.014401 411.460808,194.337245 411.828748,193.479177 L422.107942,165.603606 C422.72017,163.995613 423.698327,163.137546 425.045429,163.012222 C426.519199,163.137546 427.498361,163.995613 427.985932,165.603606 L438.452111,193.479177 C438.694389,194.337245 438.883385,195.014401 439,195.502559 C438.883385,196.487973 438.208829,196.984217 436.987389,196.984217 C435.881559,196.984217 435.208008,196.549624 434.964725,195.692567 L432.944072,189.595133 L417.337793,189.595133 Z M375.539424,170.580195 L375.539424,195.139725 C375.421804,196.369723 374.747247,196.984217 373.517765,196.984217 C372.1777,196.984217 371.505154,196.369723 371.505154,195.139725 L371.505154,165.603606 C371.379492,163.995613 371.989709,163.137546 373.336811,163.012222 C374.316979,162.893972 375.296141,163.63379 376.275304,165.232686 L393.167362,189.595133 L393.354347,189.595133 L393.354347,165.232686 C393.354347,163.877364 394.028904,163.137546 395.368969,163.012222 C396.598451,163.137546 397.273007,163.877364 397.390628,165.232686 L397.390628,194.770827 C397.390628,196.244399 396.779405,196.984217 395.555955,196.984217 C394.452135,197.109541 393.471968,196.487973 392.618468,195.139725 L375.727415,170.580195 L375.539424,170.580195 Z M355.41231,165.232686 L355.41231,195.139725 C355.29469,196.369723 354.620133,196.984217 353.390651,196.984217 C352.050586,196.984217 351.37804,196.369723 351.37804,195.139725 L351.37804,165.232686 C351.37804,163.877364 352.050586,163.137546 353.390651,163.012222 C354.620133,163.137546 355.29469,163.877364 355.41231,165.232686 L355.41231,165.232686 Z M313.621983,181.844227 L313.621983,194.770827 C313.504363,196.244399 312.830812,196.984217 311.60133,196.984217 C310.26026,196.984217 309.587714,196.244399 309.587714,194.770827 L309.587714,165.603606 C309.587714,163.995613 310.26026,163.137546 311.60133,163.012222 C312.830812,163.137546 313.504363,163.995613 313.621983,165.603606 L313.621983,178.339187 L331.250926,178.339187 L331.250926,165.603606 C331.250926,163.995613 331.986806,163.137546 333.452534,163.012222 C334.682016,163.137546 335.355567,163.995613 335.473187,165.603606 L335.473187,194.770827 C335.355567,196.244399 334.682016,196.984217 333.452534,196.984217 C331.986806,196.984217 331.250926,196.244399 331.250926,194.770827 L331.250926,181.844227 L313.621983,181.844227 Z M274.402209,180.182668 C274.770149,188.926063 278.195207,193.416515 284.689446,193.660089 C286.648775,193.660089 288.850383,193.046606 291.295273,191.816608 C292.399092,191.076791 293.190263,190.706882 293.683866,190.706882 C294.664033,190.833217 295.211922,191.446699 295.336579,192.548341 C294.358422,195.38431 290.809713,196.857881 284.689446,196.984217 C275.508039,196.614308 270.611222,191.013118 270,180.182668 C270.611222,169.352219 275.562326,163.63379 284.8704,163.012222 C290.010499,163.38112 293.252592,165.043689 294.6007,167.996897 C294.483079,169.352219 293.927148,170.030385 292.947986,170.030385 C292.336764,170.030385 291.598873,169.723138 290.745374,169.108645 C288.911706,167.508738 286.954387,166.705247 284.8704,166.705247 C278.25653,167.077178 274.770149,171.566619 274.402209,180.182668 L274.402209,180.182668 Z" id="Fill-11" fill="#005D97" mask="url(#mask-4)"></path>
                <path d="M790.151709,163.012221 C794.185829,163.382128 796.516923,164.673768 797.131904,166.895228 C797.033266,168.124207 796.516923,168.738696 795.582875,168.738696 C795.173222,168.738696 794.602527,168.556775 793.872802,168.186868 C792.635793,167.203483 791.337386,166.705221 789.992679,166.705221 C787.097936,166.950815 785.5942,168.556775 785.495561,171.509962 C785.495561,173.724347 787.356611,175.629466 791.078711,177.229362 C796.358899,179.324488 799,182.458586 799,186.641762 C798.484663,193.416305 795.271861,196.857648 789.376691,196.983982 C784.508168,196.857648 781.8721,195.628669 781.454395,193.289971 C781.454395,191.934658 781.970739,191.202931 783.011477,191.077607 C783.216807,191.077607 783.73315,191.382831 784.560507,191.998331 C786.217234,193.109061 787.819609,193.660888 789.376691,193.660888 C792.994113,193.534554 794.959841,191.257507 795.271861,186.831769 C795.271861,184.49206 793.250775,182.523269 789.216655,180.923373 C784.143809,178.829258 781.659725,175.755801 781.765409,171.692894 C782.387437,166.398987 785.184547,163.507451 790.151709,163.012221 L790.151709,163.012221 Z M761.339153,195.140514 L761.339153,167.265134 L756.059971,167.265134 C754.920594,167.265134 754.351912,166.587983 754.351912,165.233681 C754.351912,163.996617 754.920594,163.382128 756.059971,163.382128 L770.036466,163.382128 C771.070159,163.382128 771.638841,163.996617 771.73748,165.233681 C771.638841,166.587983 771.070159,167.265134 770.036466,167.265134 L764.757285,167.265134 L764.757285,195.140514 C764.6516,196.370503 764.081912,196.983982 763.049225,196.983982 C761.908841,196.983982 761.339153,196.370503 761.339153,195.140514 L761.339153,195.140514 Z M724.451311,170.581153 L724.451311,195.140514 C724.352672,196.370503 723.781977,196.983982 722.743251,196.983982 C721.609913,196.983982 721.041231,196.370503 721.041231,195.140514 L721.041231,165.603587 C720.93454,163.996617 721.45189,163.138555 722.590261,163.012221 C723.418624,162.893972 724.245981,163.633785 725.073338,165.233681 L739.355815,189.59495 L739.513838,189.59495 L739.513838,165.233681 C739.513838,163.878368 740.083526,163.138555 741.216865,163.012221 C742.25559,163.138555 742.826285,163.878368 742.92593,165.233681 L742.92593,194.770608 C742.92593,196.244169 742.409587,196.983982 741.374888,196.983982 C740.441846,197.110316 739.612476,196.488752 738.890804,195.140514 L724.611347,170.581153 L724.451311,170.581153 Z M703.250036,186.089935 L697.817864,167.816962 L697.658834,167.816962 L692.228675,186.089935 L703.250036,186.089935 Z M691.14063,189.59495 L689.27958,195.692342 C689.067205,196.550403 688.497516,196.983982 687.569508,196.983982 C686.529776,196.983982 686.013432,196.488752 686.013432,195.502335 C686.013432,195.01418 686.171455,194.337029 686.483476,193.478967 L695.17475,165.603587 C695.6921,163.996617 696.519457,163.138555 697.658834,163.012221 C698.903896,163.138555 699.731253,163.996617 700.143925,165.603587 L708.992216,193.478967 C709.197545,194.337029 709.357581,195.01418 709.45622,195.502335 C709.357581,196.488752 708.786886,196.983982 707.7542,196.983982 C706.820152,196.983982 706.249457,196.550403 706.044127,195.692342 L704.336068,189.59495 L691.14063,189.59495 Z M655.961854,181.845107 L655.961854,194.770608 C655.862209,196.244169 655.29252,196.983982 654.252788,196.983982 C653.11945,196.983982 652.551774,196.244169 652.551774,194.770608 L652.551774,165.603587 C652.551774,163.996617 653.11945,163.138555 654.252788,163.012221 C655.29252,163.138555 655.862209,163.996617 655.961854,165.603587 L655.961854,178.339081 L670.865351,178.339081 L670.865351,165.603587 C670.865351,163.996617 671.488385,163.138555 672.727408,163.012221 C673.766133,163.138555 674.336828,163.996617 674.435467,165.603587 L674.435467,194.770608 C674.336828,196.244169 673.766133,196.983982 672.727408,196.983982 C671.488385,196.983982 670.865351,196.244169 670.865351,194.770608 L670.865351,181.845107 L655.961854,181.845107 Z M622.803157,180.182549 C623.115177,188.925884 626.010927,193.416305 631.500471,193.660888 C633.157198,193.660888 635.018248,193.046399 637.085634,191.81742 C638.018675,191.077607 638.688009,190.70669 639.104707,190.70669 C639.934077,190.833024 640.396068,191.446503 640.502759,192.549148 C639.675402,195.384086 636.674975,196.857648 631.500471,196.983982 C623.738211,196.614076 619.598407,191.012924 619.082064,180.182549 C619.598407,169.353185 623.783505,163.633785 631.653461,163.012221 C635.998595,163.382128 638.740348,165.043674 639.880731,167.997872 C639.781086,169.353185 639.310036,170.030336 638.482679,170.030336 C637.966336,170.030336 637.343302,169.723092 636.621629,169.108602 C635.071593,167.508707 633.415873,166.705221 631.653461,166.705221 C626.063266,167.077149 623.115177,171.56656 622.803157,180.182549 L622.803157,180.182549 Z M594.143592,166.895228 L594.143592,178.890909 L598.959776,178.890909 C602.58223,179.017243 604.337596,176.921107 604.238957,172.614628 C603.927944,169.04493 602.165532,167.139811 598.959776,166.895228 L594.143592,166.895228 Z M594.143592,182.215013 L594.143592,195.140514 C594.044953,196.370503 593.474258,196.983982 592.435532,196.983982 C591.302194,196.983982 590.733512,196.370503 590.733512,195.140514 L590.733512,165.603587 C590.627828,164.12194 591.249855,163.382128 592.593555,163.382128 L599.11176,163.382128 C604.390941,163.996617 607.240391,167.013477 607.65105,172.432707 C607.551405,178.583664 605.013975,181.782445 600.045807,182.034103 L598.488726,182.034103 L607.498059,193.848874 C607.907712,194.464374 608.120087,195.078863 608.120087,195.692342 C608.014403,196.550403 607.498059,196.983982 606.564012,196.983982 C605.939971,196.983982 605.424634,196.74041 605.013975,196.244169 L594.143592,182.215013 Z M567.663135,182.034103 L567.663135,193.109061 L576.201419,193.109061 C577.242158,193.227309 577.804801,193.904461 577.910485,195.140514 C577.804801,196.370503 577.242158,196.983982 576.201419,196.983982 L566.113099,196.983982 C564.769399,196.983982 564.147371,196.244169 564.253056,194.770608 L564.253056,165.603587 C564.147371,164.12194 564.769399,163.382128 566.113099,163.382128 L576.201419,163.382128 C577.242158,163.507451 577.804801,164.12194 577.910485,165.233681 C577.804801,166.587983 577.242158,167.265134 576.201419,167.265134 L567.663135,167.265134 L567.663135,178.151096 L575.427408,178.151096 C576.460094,178.27743 577.029783,178.955592 577.135467,180.182549 C577.029783,181.412539 576.460094,182.034103 575.427408,182.034103 L567.663135,182.034103 Z M527.829218,168.36879 L524.570116,195.502335 C524.471477,196.488752 523.84945,196.983982 522.709066,196.983982 C521.570695,196.983982 521,196.370503 521,195.140514 C521,194.888856 521.054352,194.464374 521.160036,193.848874 C521.160036,193.596205 521.205329,193.416305 521.31202,193.289971 L525.19315,166.155415 C525.50517,164.185613 526.384866,163.138555 527.829218,163.012221 C529.174931,163.012221 530.055634,163.752034 530.472332,165.233681 L536.367502,189.784956 L536.526531,189.784956 L542.580731,165.233681 C542.786061,163.752034 543.614424,163.012221 545.063809,163.012221 C546.515206,163.138555 547.442209,164.185613 547.859913,166.155415 L551.742049,193.289971 C551.840688,194.029784 551.893027,194.644273 551.893027,195.140514 C551.793382,196.370503 551.270999,196.983982 550.343997,196.983982 C549.098936,196.983982 548.482947,196.488752 548.482947,195.502335 L545.063809,168.36879 L538.235597,195.502335 C537.924584,196.488752 537.353888,196.983982 536.526531,196.983982 C535.59349,196.983982 534.96945,196.488752 534.665482,195.502335 L527.989254,168.36879 L527.829218,168.36879 Z" id="Fill-12" fill="#005D97" mask="url(#mask-4)"></path>
                <path d="M1003.72759,166.886234 L1003.72759,180.736888 L1009.97563,180.736888 C1014.13932,180.493113 1016.40475,178.213162 1016.77394,173.903103 C1016.40475,169.471663 1014.085,167.131021 1009.79657,166.886234 L1003.72759,166.886234 Z M1003.72759,184.433969 L1003.72759,195.155 C1003.61089,196.386011 1002.93589,197 1001.7056,197 C1000.36465,197 999.691655,196.386011 999.691655,195.155 L999.691655,165.59352 C999.56591,164.110642 1000.30228,163.370214 1001.89271,163.370214 L1009.97563,163.370214 C1016.83631,163.866867 1020.51412,167.374795 1021,173.903103 C1020.38737,180.429387 1016.77394,183.945408 1010.16475,184.433969 L1003.72759,184.433969 Z M957.685587,183.693541 L957.685587,165.223306 C957.685587,163.866867 958.357571,163.126439 959.699528,163 C960.929823,163.126439 961.603819,163.866867 961.721517,165.223306 L961.721517,185.356469 C961.964961,190.653765 964.967765,193.429358 970.729931,193.674144 C976.241612,193.429358 979.181041,190.653765 979.549224,185.356469 L979.549224,165.223306 C979.549224,163.866867 980.224226,163.126439 981.565177,163 C982.795472,163.126439 983.470474,163.866867 983.587166,165.223306 L983.587166,183.693541 C983.470474,192.561479 979.181041,197 970.729931,197 C962.028336,197 957.685587,192.561479 957.685587,183.693541 L957.685587,183.693541 Z M913.656523,180.184601 C914.384842,169.346235 919.285902,163.622081 928.35568,163 C937.293676,163.622081 942.191718,169.346235 943.055842,180.184601 C942.319476,191.023979 937.419422,196.629786 928.35568,197 C919.168204,196.629786 914.267144,191.023979 913.656523,180.184601 L913.656523,180.184601 Z M918.061643,180.184601 C918.30408,188.935204 921.73945,193.429358 928.35568,193.674144 C934.84717,193.429358 938.273486,188.935204 938.641669,180.184601 C938.273486,171.561449 934.84717,167.068307 928.35568,166.69607 C921.73945,167.068307 918.30408,171.561449 918.061643,180.184601 L918.061643,180.184601 Z M884.139507,166.886234 L884.139507,178.891887 L889.840309,178.891887 C894.126724,179.018326 896.205047,176.920447 896.087349,172.609377 C895.719166,169.037723 893.633802,167.131021 889.840309,166.886234 L884.139507,166.886234 Z M884.139507,182.218755 L884.139507,195.155 C884.021809,196.386011 883.347812,197 882.117517,197 C880.775561,197 880.10257,196.386011 880.10257,195.155 L880.10257,165.59352 C879.977831,164.110642 880.714197,163.370214 882.304627,163.370214 L890.01937,163.370214 C896.268423,163.985214 899.640417,167.004582 900.125292,172.428316 C900.0086,178.584387 897.005795,181.785827 891.125931,182.037694 L889.283004,182.037694 L899.945224,193.862285 C900.431105,194.478297 900.68159,195.092286 900.68159,195.707286 C900.555845,196.566061 899.945224,197 898.839669,197 C898.102297,197 897.49067,196.756225 897.005795,196.259572 L884.139507,182.218755 Z M861.805078,181.668491 L855.924208,181.668491 C854.576215,181.668491 853.902219,180.989766 853.902219,179.632315 C853.902219,178.521673 854.576215,177.907685 855.924208,177.781245 L862.902585,177.781245 C864.98795,177.66391 866.031136,178.765448 866.031136,181.108113 C865.90539,191.702704 861.131082,197 851.699156,197 C842.511681,196.629786 837.611627,191.023979 837,180.184601 C837.611627,169.227888 842.690742,163.495642 852.248413,163 C858.244969,163.370214 862.110891,165.159581 863.820025,168.361021 C863.702327,169.59001 863.028331,170.268735 861.805078,170.395174 C861.185404,170.395174 860.394715,170.023949 859.412894,169.28251 C856.959346,167.56496 854.513846,166.69607 852.059292,166.69607 C845.325364,167.068307 841.773303,171.561449 841.405119,180.184601 C841.773303,188.935204 845.387734,193.429358 852.248413,193.674144 C858.002531,193.429358 861.185404,190.038765 861.805078,183.511469 L861.805078,181.668491 Z" id="Fill-13" fill="#005D97" mask="url(#mask-4)"></path>
            </g>
        </g>
    </g>
</svg>