<?xml version="1.0" encoding="UTF-8"?>
<svg width="1024px" height="506px" viewBox="0 0 1024 506" version="1.1" xmlns="http://www.w3.org/2000/svg" xmlns:xlink="http://www.w3.org/1999/xlink">
    <title>新兴际华集团有限公司@2x</title>
    <g id="页面-1" stroke="none" stroke-width="1" fill="none" fill-rule="evenodd">
        <g id="83.新兴际华集团有限公司" transform="translate(0.000000, -131.000000)">
            <g id="新兴际华集团有限公司" transform="translate(0.000000, 131.000000)">
                <polygon id="Fill-1" fill="#E50113" points="393.864263 0 442.134604 91.4325361 497.745961 0"></polygon>
                <polygon id="Fill-2" fill="#E50113" points="517.575059 234.332417 620.514229 234.332417 572.989343 143.622168"></polygon>
                <path d="M523.70259,42.0181847 L445.933093,191.460409 C430.534087,193.532926 425.17735,210.812485 424.11891,217 L477.232357,217 C477.232357,217 493.3542,203.756057 482.922546,191.460409 L562.587338,45.8027814 C562.587338,45.8027814 604.320408,23.1016376 573.969867,22.1554884 L533.185521,21.2093392 C533.185521,21.2093392 517.065829,17.426888 523.70259,42.0181847 L523.70259,42.0181847 Z M620.011602,0 L496.721749,235 L394.135335,235 L516.485869,0 L620.011602,0 Z" id="Fill-3" fill="#00A0E8"></path>
                <polygon id="Clip-5" points="0 506 1024 506 1024 0.000428656989 0 0.000428656989"></polygon>
                <g id="XINXING" transform="translate(33.308930, 474.269587)" fill="#231916" fill-rule="nonzero">
                    <path d="M26.0098139,27.7304132 L21.5479724,27.7304132 L16.0822165,20.0687488 C14.743664,18.1901676 13.9008717,16.931641 13.5538396,16.293169 L13.4794755,16.293169 C13.4794755,16.5141785 10.7775826,20.3265933 5.3737967,27.7304132 L1.02350117,27.7304132 L11.5831929,13.6594719 L2.2505076,0.730413201 L6.54503011,0.730413201 L12.2896511,8.79726177 C12.9093513,9.66902166 13.3679295,10.399581 13.6653856,10.9889398 C14.1487518,10.1662931 16.7019167,6.74678428 21.3248803,0.730413201 L25.2475827,0.730413201 L15.6918053,13.4384623 L26.0098139,27.7304132 Z" id="路径"></path>
                    <polygon id="路径" points="38.0032441 27.7304132 34.005434 27.7304132 34.005434 0.730413201 38.0032441 0.730413201"></polygon>
                    <polygon id="路径" points="69.9857244 27.7304132 66.1907521 27.7304132 51.5829692 6.53191388 51.5066883 6.53191388 51.5066883 27.7304132 47.9977692 27.7304132 47.9977692 0.730413201 51.7736713 0.730413201 66.3814542 21.9289125 66.4577351 21.9289125 66.4577351 0.730413201 69.9857244 0.730413201"></polygon>
                    <path d="M102.967657,27.7304132 L98.5058157,27.7304132 L93.0400598,20.0687488 C91.7015073,18.1901676 90.858715,16.931641 90.5116829,16.293169 L90.4373189,16.293169 C90.4373189,16.5141785 87.7354259,20.3265933 82.33164,27.7304132 L77.9813445,27.7304132 L88.5410362,13.6594719 L79.208351,0.730413201 L83.5028735,0.730413201 L89.2474945,8.79726177 C89.8671947,9.66902166 90.3257729,10.399581 90.623229,10.9889398 C91.1065951,10.1662931 93.65976,6.74678428 98.2827237,0.730413201 L102.205426,0.730413201 L92.6496487,13.4384623 L102.967657,27.7304132 Z" id="路径"></path>
                    <polygon id="路径" points="114.961087 27.7304132 110.963277 27.7304132 110.963277 0.730413201 114.961087 0.730413201"></polygon>
                    <polygon id="路径" points="147.94302 27.7304132 144.148048 27.7304132 129.540265 6.53191388 129.463984 6.53191388 129.463984 27.7304132 125.955065 27.7304132 125.955065 0.730413201 129.730967 0.730413201 144.33875 21.9289125 144.415031 21.9289125 144.415031 0.730413201 147.94302 0.730413201"></polygon>
                    <path d="M181.924406,24.3306771 C178.385538,27.2638345 174.514502,28.7304132 170.311298,28.7304132 C166.005889,28.7304132 162.534093,27.420057 159.895912,24.7993446 C157.257731,22.1786322 155.93864,18.6939136 155.93864,14.3451889 C155.93864,11.6925944 156.478414,9.22172806 157.55796,6.93258998 C158.637506,4.6434519 160.22808,2.87080458 162.329682,1.61464803 C164.431284,0.358491477 167.002393,-0.269586799 170.043009,-0.269586799 C173.198605,-0.269586799 175.731387,0.422255769 177.641354,1.80594091 C179.55132,3.18962604 180.838472,5.26515375 181.502808,8.03252402 L178.168351,8.96985911 C177.644548,6.95490748 176.705534,5.44050555 175.35131,4.42665331 C173.997086,3.41280106 172.227653,2.90587494 170.043009,2.90587494 C166.657449,2.90587494 164.10231,3.93885647 162.377591,6.00481953 C160.652872,8.07078259 159.790513,10.7743886 159.790513,14.1156375 C159.790513,16.6151977 160.208917,18.6939136 161.045725,20.3517852 C161.882533,22.0096568 163.121775,23.2626252 164.763452,24.1106902 C166.405129,24.9587553 168.190533,25.3827879 170.119663,25.3827879 C173.058073,25.3827879 175.792072,24.4199471 178.321659,22.4942654 L178.321659,17.2910992 L170.043009,17.2910992 L170.043009,13.9434739 L181.924406,13.9434739 L181.924406,24.3306771 Z" id="路径"></path>
                </g>
                <g id="-CATHAY" transform="translate(240.956993, 474.269587)" fill="#231916" fill-rule="nonzero">
                    <path d="M25.2484205,19.3570623 C24.4251907,22.5070183 22.9877541,24.8567325 20.9361109,26.4062048 C18.8844678,27.9556771 16.4244254,28.7304132 13.5559838,28.7304132 C8.92531581,28.7304132 5.55200279,27.2925284 3.43604478,24.4167588 C1.32008676,21.5409893 0.262107747,18.0817764 0.262107747,14.0391203 C0.262107747,9.56286703 1.50659977,6.05901918 3.99558383,3.52757679 C6.48456788,0.996134397 9.68423084,-0.269586799 13.5945727,-0.269586799 C16.3472476,-0.269586799 18.7011705,0.425443983 20.6563414,1.81550555 C22.6115124,3.20556711 23.9814183,5.23964803 24.7660593,7.91774829 L21.1001138,8.77856623 C20.4826914,6.8273789 19.5436948,5.36080018 18.2831241,4.37883009 C17.0225533,3.39685999 15.4468399,2.90587494 13.5559838,2.90587494 C10.4688718,2.90587494 8.12781187,3.91016254 6.532804,5.91873774 C4.93779614,7.92731294 4.1402922,10.6213543 4.1402922,14.0008617 C4.1402922,17.9032364 4.97960078,20.8045117 6.65821793,22.7046876 C8.33683508,24.6048635 10.5267552,25.5549515 13.2279782,25.5549515 C15.4404084,25.5549515 17.238008,24.9619435 18.6207769,23.7759277 C20.0035459,22.5899119 20.9714841,20.8045117 21.5245917,18.4197272 L25.2484205,19.3570623 Z" id="路径"></path>
                    <path d="M56.2314484,27.7304132 L52.0775195,27.7304132 L48.815073,19.5162249 L37.2068333,19.5162249 L34.134064,27.7304132 L30.2456831,27.7304132 L40.9245049,0.730413201 L44.8887567,0.730413201 L56.2314484,27.7304132 Z M47.695978,16.6799357 C45.4198526,10.8354609 44.1363708,7.51724813 43.8455325,6.72529724 C43.5546943,5.93334635 43.2322432,4.87434226 42.8781792,3.54828496 L42.7833406,3.54828496 C42.4292767,5.36547459 41.9550839,7.04760283 41.3607622,8.59466968 L38.2500575,16.6799357 L47.695978,16.6799357 Z" id="形状"></path>
                    <polygon id="路径" points="83.2166662 3.93505167 74.0313446 3.93505167 74.0313446 27.7304132 70.3382772 27.7304132 70.3382772 3.93505167 61.2287109 3.93505167 61.2287109 0.730413201 83.2166662 0.730413201"></polygon>
                    <polygon id="路径" points="113.200241 27.7304132 109.475088 27.7304132 109.475088 15.0223641 94.918336 15.0223641 94.918336 27.7304132 91.2122863 27.7304132 91.2122863 0.730413201 94.918336 0.730413201 94.918336 11.8177256 109.475088 11.8177256 109.475088 0.730413201 113.200241 0.730413201"></polygon>
                    <path d="M146.182174,27.7304132 L142.028245,27.7304132 L138.765799,19.5162249 L127.157559,19.5162249 L124.08479,27.7304132 L120.196409,27.7304132 L130.875231,0.730413201 L134.839483,0.730413201 L146.182174,27.7304132 Z M137.646704,16.6799357 C135.370579,10.8354609 134.087097,7.51724813 133.796258,6.72529724 C133.50542,5.93334635 133.182969,4.87434226 132.828905,3.54828496 L132.734067,3.54828496 C132.380003,5.36547459 131.90581,7.04760283 131.311488,8.59466968 L128.200783,16.6799357 L137.646704,16.6799357 Z" id="形状"></path>
                    <path d="M176.16575,0.730413201 L165.308602,16.293169 L165.308602,27.7304132 L161.683356,27.7304132 L161.683356,16.293169 L151.179437,0.730413201 L155.566914,0.730413201 L161.553219,9.8102222 C162.160525,10.7310953 162.879377,11.9405087 163.709775,13.4384623 C164.230323,12.431641 166.981792,8.19562466 171.964182,0.730413201 L176.16575,0.730413201 Z" id="路径"></path>
                </g>
                <g id="-INTERNATIONAL" transform="translate(442.926686, 474.269587)" fill="#231916" fill-rule="nonzero">
                    <polygon id="路径" points="4.17963172 27.7304132 0.181821673 27.7304132 0.181821673 0.730413201 4.17963172 0.730413201"></polygon>
                    <polygon id="路径" points="37.1615646 27.7304132 33.3665923 27.7304132 18.7588093 6.53191388 18.6825285 6.53191388 18.6825285 27.7304132 15.1736093 27.7304132 15.1736093 0.730413201 18.9495115 0.730413201 33.5572944 21.9289125 33.6335752 21.9289125 33.6335752 0.730413201 37.1615646 0.730413201"></polygon>
                    <polygon id="路径" points="67.1451399 3.93505167 57.9598184 3.93505167 57.9598184 27.7304132 54.266751 27.7304132 54.266751 3.93505167 45.1571847 3.93505167 45.1571847 0.730413201 67.1451399 0.730413201"></polygon>
                    <polygon id="路径" points="95.1298102 27.7304132 75.14076 27.7304132 75.14076 0.730413201 94.5091456 0.730413201 94.5091456 3.93505167 78.682199 3.93505167 78.682199 12.1860749 93.4868746 12.1860749 93.4868746 15.3907133 78.682199 15.3907133 78.682199 24.5257747 95.1298102 24.5257747"></polygon>
                    <path d="M130.110648,27.7304132 L125.391871,27.7304132 C122.56834,23.4821185 120.814915,20.872978 120.131594,19.9029916 C119.448274,18.9330053 118.729499,18.1011499 117.975268,17.4074255 C117.221037,16.7137011 116.511931,16.2747515 115.84795,16.0905769 C115.183969,15.9064023 114.304033,15.814315 113.208142,15.814315 L108.87615,15.814315 L108.87615,27.7304132 L105.124335,27.7304132 L105.124335,0.730413201 L117.675509,0.730413201 C119.390256,0.730413201 120.827807,0.834778821 121.988163,1.04351006 C123.148518,1.2522413 124.167052,1.69119083 125.043764,2.36035863 C125.920477,3.02952643 126.594128,3.87366013 127.064716,4.89275972 C127.535304,5.91185931 127.770599,6.98621129 127.770599,8.11581566 C127.770599,10.1540148 127.093725,11.793169 125.739977,13.0332781 C124.38623,14.2733873 122.413626,15.059199 119.822166,15.3907133 L119.822166,15.4643832 C121.717413,16.2624732 123.496624,17.9016274 125.1598,20.3818457 L130.110648,27.7304132 Z M108.87615,12.6096765 L116.921279,12.6096765 C118.545776,12.6096765 119.831836,12.4776847 120.779459,12.2137011 C121.727083,11.9497174 122.484537,11.4370981 123.051821,10.6758429 C123.619106,9.91458783 123.902748,9.0612454 123.902748,8.11581566 C123.902748,6.88798482 123.43216,5.84432862 122.490983,4.98484703 C121.549806,4.12536545 119.99622,3.69562466 117.830223,3.69562466 L108.87615,3.69562466 L108.87615,12.6096765 Z" id="形状"></path>
                    <polygon id="路径" points="160.094223 27.7304132 156.299251 27.7304132 141.691468 6.53191388 141.615187 6.53191388 141.615187 27.7304132 138.106268 27.7304132 138.106268 0.730413201 141.88217 0.730413201 156.489953 21.9289125 156.566234 21.9289125 156.566234 0.730413201 160.094223 0.730413201"></polygon>
                    <path d="M192.076704,27.7304132 L187.922775,27.7304132 L184.660328,19.5162249 L173.052089,19.5162249 L169.979319,27.7304132 L166.090939,27.7304132 L176.76976,0.730413201 L180.734012,0.730413201 L192.076704,27.7304132 Z M183.541233,16.6799357 C181.265108,10.8354609 179.981626,7.51724813 179.690788,6.72529724 C179.39995,5.93334635 179.077499,4.87434226 178.723435,3.54828496 L178.628596,3.54828496 C178.274532,5.36547459 177.800339,7.04760283 177.206018,8.59466968 L174.095313,16.6799357 L183.541233,16.6799357 Z" id="形状"></path>
                    <polygon id="路径" points="220.061374 3.93505167 210.876053 3.93505167 210.876053 27.7304132 207.182985 27.7304132 207.182985 3.93505167 198.073419 3.93505167 198.073419 0.730413201 220.061374 0.730413201"></polygon>
                    <polygon id="路径" points="232.054804 27.7304132 228.056994 27.7304132 228.056994 0.730413201 232.054804 0.730413201"></polygon>
                    <path d="M254.070542,-0.269586799 C257.873638,-0.269586799 260.985262,1.0630869 263.405414,3.72843431 C265.825566,6.39378171 267.035642,9.9071942 267.035642,14.2686718 C267.035642,18.6173965 265.819392,22.1148679 263.386892,24.761086 C260.954393,27.4073041 257.848942,28.7304132 254.070542,28.7304132 C250.156316,28.7304132 247.007649,27.3594809 244.62454,24.6176164 C242.241431,21.8757518 241.049877,18.5281265 241.049877,14.5747404 C241.049877,9.9709585 242.256866,6.3459585 244.670844,3.69974038 C247.084822,1.05352226 250.218055,-0.269586799 254.070542,-0.269586799 Z M254.033499,25.5549515 C256.787039,25.5549515 259.018888,24.5602285 260.729047,22.5707826 C262.439205,20.5813367 263.300458,17.8139664 263.312806,14.2686718 C263.312806,10.6213543 262.439205,7.81572543 260.692004,5.85178523 C258.944802,3.88784504 256.749996,2.90587494 254.107585,2.90587494 C251.391088,2.90587494 249.156151,3.86871575 247.402776,5.79439737 C245.649401,7.72007899 244.772713,10.6723657 244.772713,14.6512575 C244.772713,17.9032364 245.630879,20.5335135 247.347211,22.5420887 C249.063544,24.5506639 251.292306,25.5549515 254.033499,25.5549515 Z" id="形状"></path>
                    <polygon id="路径" points="299.018122 27.7304132 295.22315 27.7304132 280.615367 6.53191388 280.539086 6.53191388 280.539086 27.7304132 277.030167 27.7304132 277.030167 0.730413201 280.806069 0.730413201 295.413852 21.9289125 295.490133 21.9289125 295.490133 0.730413201 299.018122 0.730413201"></polygon>
                    <path d="M332.999508,27.7304132 L328.845579,27.7304132 L325.583133,19.5162249 L313.974893,19.5162249 L310.902124,27.7304132 L307.013743,27.7304132 L317.692564,0.730413201 L321.656816,0.730413201 L332.999508,27.7304132 Z M324.464038,16.6799357 C322.187912,10.8354609 320.90443,7.51724813 320.613592,6.72529724 C320.322754,5.93334635 320.000303,4.87434226 319.646239,3.54828496 L319.5514,3.54828496 C319.197336,5.36547459 318.723143,7.04760283 318.128822,8.59466968 L315.018117,16.6799357 L324.464038,16.6799357 Z" id="形状"></path>
                    <polygon id="路径" points="356.986368 27.7304132 338.996223 27.7304132 338.996223 0.730413201 342.802208 0.730413201 342.802208 24.5257747 356.986368 24.5257747"></polygon>
                </g>
                <g id="-GROUP" transform="translate(823.214873, 474.269587)" fill="#231916" fill-rule="nonzero">
                    <path d="M25.6713544,24.3306771 C22.1324866,27.2638345 18.2614508,28.7304132 14.0582469,28.7304132 C9.75283737,28.7304132 6.28104204,27.420057 3.64286085,24.7993446 C1.00467966,22.1786322 -0.314410928,18.6939136 -0.314410928,14.3451889 C-0.314410928,11.6925944 0.22536222,9.22172806 1.30490852,6.93258998 C2.38445481,4.6434519 3.97502894,2.87080458 6.0766309,1.61464803 C8.17823286,0.358491477 10.7493416,-0.269586799 13.7899573,-0.269586799 C16.9455541,-0.269586799 19.4783358,0.422255769 21.3883023,1.80594091 C23.2982689,3.18962604 24.5854202,5.26515375 25.2497564,8.03252402 L21.9152998,8.96985911 C21.3914963,6.95490748 20.4524826,5.44050555 19.0982589,4.42665331 C17.7440351,3.41280106 15.9746012,2.90587494 13.7899573,2.90587494 C10.4043979,2.90587494 7.8492587,3.93885647 6.12453976,6.00481953 C4.39982083,8.07078259 3.53746136,10.7743886 3.53746136,14.1156375 C3.53746136,16.6151977 3.9558654,18.6939136 4.79267347,20.3517852 C5.62948155,22.0096568 6.86872404,23.2626252 8.51040096,24.1106902 C10.1520779,24.9587553 11.9374814,25.3827879 13.8666114,25.3827879 C16.8050215,25.3827879 19.5390204,24.4199471 22.0686081,22.4942654 L22.0686081,17.2910992 L13.7899573,17.2910992 L13.7899573,13.9434739 L25.6713544,13.9434739 L25.6713544,24.3306771 Z" id="路径"></path>
                    <path d="M60.6521922,27.7304132 L55.9334149,27.7304132 C53.1098842,23.4821185 51.3564588,20.872978 50.6731385,19.9029916 C49.9898183,18.9330053 49.2710428,18.1011499 48.516812,17.4074255 C47.7625812,16.7137011 47.0534753,16.2747515 46.3894944,16.0905769 C45.7255134,15.9064023 44.8455775,15.814315 43.7496865,15.814315 L39.4176942,15.814315 L39.4176942,27.7304132 L35.6658795,27.7304132 L35.6658795,0.730413201 L48.2170536,0.730413201 C49.9318006,0.730413201 51.3693516,0.834778821 52.5297067,1.04351006 C53.6900618,1.2522413 54.7085957,1.69119083 55.5853084,2.36035863 C56.4620211,3.02952643 57.1356717,3.87366013 57.6062602,4.89275972 C58.0768486,5.91185931 58.3121428,6.98621129 58.3121428,8.11581566 C58.3121428,10.1540148 57.635269,11.793169 56.2815214,13.0332781 C54.9277738,14.2733873 52.9551702,15.059199 50.3637105,15.3907133 L50.3637105,15.4643832 C52.2589571,16.2624732 54.0381683,17.9016274 55.7013439,20.3818457 L60.6521922,27.7304132 Z M39.4176942,12.6096765 L47.4628228,12.6096765 C49.0873199,12.6096765 50.3733801,12.4776847 51.3210035,12.2137011 C52.2686268,11.9497174 53.0260808,11.4370981 53.5933655,10.6758429 C54.1606502,9.91458783 54.4442926,9.0612454 54.4442926,8.11581566 C54.4442926,6.88798482 53.9737041,5.84432862 53.0325272,4.98484703 C52.0913503,4.12536545 50.5377638,3.69562466 48.3717676,3.69562466 L39.4176942,3.69562466 L39.4176942,12.6096765 Z" id="形状"></path>
                    <path d="M79.6695723,-0.269586799 C83.4726684,-0.269586799 86.5842925,1.0630869 89.0044445,3.72843431 C91.4245966,6.39378171 92.6346726,9.9071942 92.6346726,14.2686718 C92.6346726,18.6173965 91.4184227,22.1148679 88.9859229,24.761086 C86.5534232,27.4073041 83.447973,28.7304132 79.6695723,28.7304132 C75.7553468,28.7304132 72.6066796,27.3594809 70.2235707,24.6176164 C67.8404618,21.8757518 66.6489073,18.5281265 66.6489073,14.5747404 C66.6489073,9.9709585 67.8558964,6.3459585 70.2698746,3.69974038 C72.6838528,1.05352226 75.8170854,-0.269586799 79.6695723,-0.269586799 Z M79.6325292,25.5549515 C82.3860695,25.5549515 84.6179189,24.5602285 86.3280774,22.5707826 C88.0382359,20.5813367 88.8994889,17.8139664 88.9118367,14.2686718 C88.9118367,10.6213543 88.0382359,7.81572543 86.2910342,5.85178523 C84.5438326,3.88784504 82.3490264,2.90587494 79.7066155,2.90587494 C76.9901183,2.90587494 74.7551819,3.86871575 73.0018065,5.79439737 C71.248431,7.72007899 70.3717433,10.6723657 70.3717433,14.6512575 C70.3717433,17.9032364 71.2299094,20.5335135 72.9462417,22.5420887 C74.6625741,24.5506639 76.8913365,25.5549515 79.6325292,25.5549515 Z" id="形状"></path>
                    <path d="M124.617153,16.08655 C124.617153,17.4507351 124.537694,18.7123045 124.378775,19.8712583 C124.219857,21.030212 123.800312,22.2223649 123.120141,23.447717 C122.43997,24.6730691 121.333898,25.6931899 119.801924,26.5080792 C118.26995,27.3229685 116.226259,27.7304132 113.670851,27.7304132 C111.17901,27.7304132 109.170281,27.3682402 107.644664,26.6438941 C106.119047,25.919548 105.000261,24.9839343 104.288306,23.837053 C103.576352,22.6901718 103.121845,21.4950007 102.924786,20.25154 C102.727727,19.0080792 102.629198,17.6197492 102.629198,16.08655 L102.629198,0.730413201 L106.328819,0.730413201 L106.328819,16.0322241 C106.328819,17.6257854 106.449597,18.9990249 106.691153,20.1519424 C106.932709,21.3048599 107.568383,22.3279987 108.598174,23.2213589 C109.627966,24.114719 111.21715,24.5613991 113.365727,24.5613991 C115.539732,24.5613991 117.173413,24.2052623 118.266772,23.4929887 C119.360131,22.780715 120.072086,21.8300108 120.402636,20.640876 C120.733186,19.4517412 120.898461,17.9155239 120.898461,16.0322241 L120.898461,0.730413201 L124.617153,0.730413201 L124.617153,16.08655 Z" id="路径"></path>
                    <path d="M133.612226,0.730413201 L143.499475,0.730413201 C145.060933,0.730413201 146.40486,0.810222205 147.531256,0.969840213 C148.657651,1.12945822 149.70359,1.54385113 150.669072,2.21301893 C151.634553,2.88218673 152.364625,3.79078155 152.859285,4.93880338 C153.353946,6.08682521 153.601276,7.28702984 153.601276,8.53941729 C153.601276,11.0319139 152.823527,13.0302086 151.268028,14.5343013 C149.712529,16.0383941 147.218368,16.7904405 143.785544,16.7904405 L137.080809,16.7904405 L137.080809,27.7304132 L133.612226,27.7304132 L133.612226,0.730413201 Z M137.080809,13.585802 L143.821302,13.585802 C147.945459,13.585802 150.007538,11.9405087 150.007538,8.64992207 C150.007538,7.56943094 149.739348,6.61479246 149.20297,5.78600665 C148.666591,4.95722084 148.008037,4.44153189 147.227308,4.2389398 C146.446578,4.03634772 145.287404,3.93505167 143.749785,3.93505167 L137.080809,3.93505167 L137.080809,13.585802 Z" id="形状"></path>
                </g>
                <g id="新兴际华集团" transform="translate(30.261748, 288.866874)" fill="#231916" fill-rule="nonzero">
                    <path d="M143.994035,60.8665692 L125.143219,60.8665692 L125.143219,146.133126 L112.735088,146.133126 L112.735088,60.8665692 L94.838744,60.8665692 L94.838744,79.3263393 C94.838744,105.16469 88.2634948,127.113969 75.1129963,145.174177 L64.2161115,137.822234 C76.3591121,122.052849 82.4306124,100.503132 82.4306124,73.1730826 L82.4306124,15.5562244 C99.7701809,13.5850512 116.075738,8.44401855 131.347285,0.133126377 L139.142137,10.2820043 C127.105189,17.3142977 112.337391,22.4020554 94.838744,25.5452774 L94.838744,48.8797055 L143.994035,48.8797055 L143.994035,60.8665692 Z M75.5902321,28.9815117 L3.6071609,28.9815117 L3.6071609,16.994648 L33.9116362,16.994648 L33.9116362,0.932250624 L46.7970036,0.932250624 L46.7970036,16.994648 L75.5902321,16.994648 L75.5902321,28.9815117 Z M76.9424003,66.4604389 L46.3197678,66.4604389 L46.3197678,81.1643251 L72.965435,81.1643251 L72.965435,93.0712763 L46.3197678,93.0712763 L46.3197678,99.4642703 L52.7624515,94.5896124 C61.6708537,100.343307 68.9089305,107.8018 74.4766818,116.965091 L65.3296617,125.355896 C60.6103296,116.565529 54.2736983,109.186949 46.3197678,103.220154 L46.3197678,146.133126 L33.9116362,146.133126 L33.9116362,103.939366 C27.1242821,114.647631 18.5340372,123.810922 8.1409013,131.42924 L-0.926579497,121.919662 C10.2089232,114.940643 19.2233778,105.324515 26.1167843,93.0712763 L6.23195797,93.0712763 L6.23195797,81.1643251 L33.9116362,81.1643251 L33.9116362,66.4604389 L1.77775688,66.4604389 L1.77775688,54.4735752 L23.969223,54.4735752 C20.9467294,46.4290578 17.2083821,39.7164141 12.754181,34.3356442 L23.4919872,29.9404608 C29.0067124,35.6408804 33.2488086,43.8185852 36.218276,54.4735752 L46.9560822,54.4735752 C50.2437069,48.1338562 53.2662005,39.9561514 56.023563,29.9404608 L67.7953802,34.495469 C65.4092011,41.7408622 62.6253254,48.4002309 59.4437532,54.4735752 L76.9424003,54.4735752 L76.9424003,66.4604389 Z" id="形状"></path>
                    <path d="M246.195643,54.8878112 L234.222449,61.5658351 C231.402096,43.2807698 223.286932,25.7642072 209.876955,9.01614739 L220.333544,3.13312638 C233.637093,17.9201792 242.257792,35.1717408 246.195643,54.8878112 Z M303.587151,85.1774194 L164.777925,85.1774194 L164.777925,73.3318771 L252.421703,73.3318771 C264.18204,54.6228103 272.61649,32.0977298 277.725053,5.75663575 L289.538604,10.1291514 C282.51433,39.703257 274.45238,60.7708322 265.352753,73.3318771 L303.587151,73.3318771 L303.587151,85.1774194 Z M212.6707,59.9758294 L201.57554,67.1308549 C197.531262,51.4427989 187.713243,35.7017427 172.121484,19.9076863 L181.77986,13.8656647 C196.466978,27.9637151 206.763924,43.33377 212.6707,59.9758294 Z M223.446574,97.2614625 C210.302668,119.150541 191.890557,134.123094 168.210241,142.179123 L161.98418,130.969583 C185.824139,123.337556 203.544466,109.398506 215.14516,89.1524336 L223.446574,97.2614625 Z M303.906436,133.434092 L294.726988,143.133126 C283.977721,126.597067 266.550072,111.836515 242.444042,98.8514682 L250.106886,90.106437 C270.753993,99.5934709 288.687177,114.036022 303.906436,133.434092 Z" id="形状"></path>
                    <path d="M380.470884,17.7118007 L361.926565,50.6409074 C373.972447,65.4881696 379.995389,78.0818295 379.995389,88.4218872 C379.995389,94.0956624 378.053783,98.7089189 374.170571,102.261657 C370.287358,105.814394 364.304041,107.590763 356.22062,107.590763 C354.582803,107.590763 352.76007,107.511224 350.752423,107.352147 L346.155968,95.1031552 C349.325937,95.262233 351.941162,95.3417719 354.001642,95.3417719 C361.556735,95.3417719 365.941859,94.4801004 367.157014,92.7567575 C368.372169,91.0334146 368.979746,89.4558929 368.979746,88.0241927 C368.979746,80.6535875 361.979397,68.6962388 347.9787,52.1521465 L365.968275,18.4276509 L344.253986,18.4276509 L344.253986,145.133126 L331.891107,145.133126 L331.891107,7.13312638 L380.470884,7.13312638 L380.470884,17.7118007 Z M459.165369,21.1319736 L384.195598,21.1319736 L384.195598,9.91698805 L459.165369,9.91698805 L459.165369,21.1319736 Z M463.999572,61.0605039 L426.990182,61.0605039 L426.990182,131.611513 C426.990182,134.262809 426.158065,136.768285 424.493831,139.127939 C422.829597,141.487593 420.901199,143.038602 418.708637,143.780965 C416.516075,144.523328 412.778153,144.89451 407.494871,144.89451 C405.381559,144.89451 402.951249,144.814971 400.203942,144.655893 L395.528238,132.725057 C399.543532,133.308343 404.958896,133.599985 411.77433,133.599985 C413.729144,133.599985 414.706551,131.744077 414.706551,128.032262 L414.706551,61.0605039 L374.289444,61.0605039 L374.289444,49.8455183 L463.999572,49.8455183 L463.999572,61.0605039 Z M409.159105,84.0472474 C399.437866,102.447247 386.784406,116.896815 371.198724,127.395951 L363.4323,117.930821 C377.591496,109.234567 389.927959,95.6599275 400.44169,77.2069016 L409.159105,84.0472474 Z M470.815006,121.350994 L461.067351,128.668573 C452.508434,109.208054 441.915453,94.7054607 429.28841,85.1607921 L438.402071,78.3204463 C453.882087,91.2587748 464.686399,105.602291 470.815006,121.350994 Z" id="形状"></path>
                    <path d="M541.878656,6.0319719 C539.317251,11.8245319 537.26279,16.3682372 535.715274,19.6630879 L530.752551,29.7070681 L530.752551,89.4129505 L518.2657,89.4129505 L518.2657,46.5267492 L518.105612,46.5267492 L518.105612,47.005034 C511.061747,56.3050157 502.603772,63.4792873 492.731689,68.5278488 L484.807341,59.2012957 C505.245222,48.2538887 520.827105,28.5644989 531.55299,0.133126377 L541.878656,6.0319719 Z M628.726309,60.2375794 C627.072068,66.5615669 625.097652,71.756271 622.803059,75.8216915 C620.508467,79.8871121 617.30671,81.9198224 613.197789,81.9198224 L583.981758,81.9198224 C577.951783,81.9198224 573.749477,80.7373961 571.374841,78.3725436 C569.000204,76.0076912 567.812886,72.0884132 567.812886,66.6147097 L567.812886,55.4547317 C561.676186,59.0684388 552.871354,63.2135735 541.398392,67.8901357 L533.394,58.0852979 C552.070915,50.8047408 563.543877,45.4107514 567.812886,41.9033298 L567.812886,0.292554634 L579.579342,0.292554634 L579.579342,34.56963 C587.316921,29.1490692 595.347995,21.6559411 603.672562,12.0902457 L612.717525,19.105089 C603.379068,30.265067 592.333007,40.2824758 579.579342,49.1573155 L579.579342,68.2089922 C579.579342,69.3781328 579.752771,70.1088456 580.099628,70.4011308 C580.446485,70.6934159 581.260265,70.8395585 582.540967,70.8395585 L609.595813,70.8395585 C610.98324,70.8395585 612.063833,70.6535588 612.837591,70.2815596 C613.611349,69.9095603 614.598558,67.8502787 615.799216,64.1037146 C616.999875,60.3571506 617.867018,56.9958715 618.400644,54.0198773 L628.726309,60.2375794 Z M630.727407,104.797777 L565.011349,104.797777 L565.011349,145.133126 L553.164849,145.133126 L553.164849,104.797777 L488.089142,104.797777 L488.409317,93.0000862 L553.164849,93.0000862 L553.164849,74.4266943 L565.011349,74.4266943 L565.011349,93.0000862 L630.727407,93.0000862 L630.727407,104.797777 Z" id="形状"></path>
                    <path d="M792.41159,83.5730394 L688.32106,83.5730394 L688.32106,91.5121367 L675.81095,91.5121367 L675.81095,41.7339964 C672.60323,45.2801266 668.459924,48.9850386 663.381033,52.8487327 L653.196521,45.5447631 C667.203567,35.5415005 678.804823,20.4042882 688.000288,0.133126377 L699.147117,4.49962991 C697.543257,8.46917858 695.458238,12.4916546 692.892062,16.5670579 L728.417566,16.5670579 C730.930281,11.1155444 732.77472,5.69049451 733.950884,0.291908323 L746.300608,4.49962991 C745.712526,7.67526885 744.349245,11.6977448 742.210765,16.5670579 L789.845414,16.5670579 L789.845414,28.3963129 L737.399184,28.3963129 L737.399184,35.4621095 L779.500515,35.4621095 L779.500515,46.6562368 L737.399184,46.6562368 L737.399184,53.0075146 L779.981674,53.0075146 L779.981674,64.8367697 L737.399184,64.8367697 L737.399184,72.2995212 L792.41159,72.2995212 L792.41159,83.5730394 Z M724.969267,35.4621095 L724.969267,28.3963129 L688.802218,28.3963129 L688.802218,35.4621095 L724.969267,35.4621095 Z M724.969267,53.0075146 L724.969267,46.6562368 L688.32106,46.6562368 L688.32106,53.0075146 L724.969267,53.0075146 Z M724.969267,72.2995212 L724.969267,64.6779877 L688.000288,64.6779877 L688.160674,72.2995212 L724.969267,72.2995212 Z M801.633787,127.158684 L795.218346,138.352811 C765.279621,133.007152 744.696748,122.659862 733.469726,107.31094 L733.469726,146.133126 L721.039809,146.133126 L721.039809,106.993377 C708.262389,122.395225 687.839902,133.007152 659.772348,138.829157 L652.715363,127.63503 C674.4744,123.87719 692.250518,116.387975 706.043716,105.167384 L660.253506,105.167384 L660.253506,93.3381291 L721.039809,93.3381291 L721.039809,86.6692873 L733.469726,86.6692873 L733.469726,93.3381291 L794.737188,93.3381291 L794.737188,105.167384 L747.904469,105.167384 C759.773034,116.229193 777.682807,123.559626 801.633787,127.158684 Z" id="形状"></path>
                    <path d="M948.553306,146.133126 L936.072086,146.133126 L936.072086,135.98189 L837.102414,135.98189 L837.102414,146.133126 L824.621195,146.133126 L824.621195,7.13312638 L948.553306,7.13312638 L948.553306,146.133126 Z M936.072086,124.072172 L936.072086,19.1227756 L837.102414,19.1227756 L837.102414,124.072172 L936.072086,124.072172 Z M931.671656,55.9709642 L906.869232,55.9709642 L906.869232,107.84618 C906.869232,110.403972 905.815796,112.735292 903.708924,114.840142 C901.602051,116.944991 899.26849,117.997416 896.708239,117.997416 L881.186723,117.997416 L877.106324,105.688043 L892.307809,106.487353 C894.174658,106.700502 895.108083,105.501537 895.108083,102.890458 L895.108083,55.9709642 L891.027684,55.9709642 C883.986996,83.6803758 869.238888,101.904643 846.78336,110.643765 L840.222719,100.332666 C859.424596,92.8724402 872.972586,78.0852061 880.866691,55.9709642 L843.983087,55.9709642 L843.983087,43.981315 L895.108083,43.981315 L895.108083,23.5189803 L906.869232,23.5189803 L906.869232,43.981315 L931.671656,43.981315 L931.671656,55.9709642 Z" id="形状"></path>
                </g>
            </g>
        </g>
    </g>
</svg>