<?xml version="1.0" encoding="UTF-8"?>
<svg width="768px" height="768px" viewBox="0 0 768 768" version="1.1" xmlns="http://www.w3.org/2000/svg" xmlns:xlink="http://www.w3.org/1999/xlink">
    <title>矿冶科技集团有限公司@2x</title>
    <defs>
        <polygon id="path-1" points="0 0 768 0 768 768 0 768"></polygon>
    </defs>
    <g id="页面-1" stroke="none" stroke-width="1" fill="none" fill-rule="evenodd">
        <g id="67.矿冶科技集团有限公司" transform="translate(-128.000000, 0.000000)">
            <g id="矿冶科技集团有限公司" transform="translate(128.000000, 0.000000)">
                <mask id="mask-2" fill="white">
                    <use xlink:href="#path-1"></use>
                </mask>
                <g id="Clip-2"></g>
                <path d="M276.270848,573.556121 L286.282356,573.556121 L286.282356,550.847233 L276.270848,550.847233 L276.270848,573.556121 Z M342.543059,505 C343.177474,505.281947 343.97513,510.050776 344.928607,519.302753 L364,519.302753 L364,531.079185 L323.471666,531.079185 L323.471666,553.78994 C324.106081,574.260055 318.860102,590.661541 307.739297,603 C303.287264,599.635305 298.51988,597.108984 293.435288,595.430371 C296.295719,592.904049 298.202673,591.223569 299.158004,590.379594 L286.282356,590.379594 L286.282356,584.072192 L276.270848,584.072192 L276.270848,592.904049 L263.397055,592.904049 L263.397055,565.144384 L259.106409,569.351186 C256.878538,565.148119 254.177638,561.083224 251,557.154635 C261.169184,546.220311 267.051431,534.865866 268.641178,523.085701 L253.383692,523.085701 L253.383692,512.151377 L304.400273,512.151377 L304.400273,523.085701 L284.375402,523.085701 C282.785656,529.81509 281.038233,535.422292 279.131279,539.909174 L300.586365,539.909174 L300.586365,588.697247 C306.309081,578.88511 309.008126,566.408479 308.692774,551.267353 L308.692774,519.302753 L327.764167,519.302753 C327.44325,517.060246 326.489773,513.555511 324.903736,508.786682 C324.582819,507.948309 324.426998,507.386282 324.426998,507.104335 L342.543059,505 Z" id="Fill-1" fill="#0076C2" mask="url(#mask-2)"></path>
                <path d="M463.800274,580.46901 L491.198541,580.46901 L491.198541,565.923164 L463.800274,565.923164 L463.800274,580.46901 Z M447.935462,554.700133 L508.02276,554.700133 L508.02276,599.586724 L491.198541,599.586724 L491.198541,591.275075 L463.798404,591.275075 L463.798404,600 L447.935462,600 L447.935462,554.700133 Z M495.524287,534.3389 C492.958388,531.014241 489.754755,527.82611 485.909647,524.778198 C490.394359,522.839121 494.56114,520.623297 498.408119,518.12888 C505.137058,524.226549 512.666438,532.957008 521,544.312878 C516.193615,546.528703 511.385359,548.882901 506.578974,551.375473 C505.296024,549.436396 503.852238,547.220572 502.253227,544.726155 C468.922721,545.560087 450.819293,546.528703 447.935462,547.637538 L445.051631,547.637538 C443.127206,542.929141 442.005093,538.908923 441.687161,535.584264 C448.092558,535.309361 453.703124,530.597275 458.50951,521.453539 C461.713143,515.636308 464.279042,509.820921 466.201596,504 C472.606993,505.108835 478.857164,506.359733 484.948369,507.741626 C485.909647,508.575558 486.227579,509.129053 485.909647,509.403955 C484.948369,510.51279 483.506454,512.311648 481.5839,514.80422 C474.213485,523.949801 468.283117,530.735649 463.798404,535.169143 L495.524287,534.3389 Z M410.441916,520.208176 C414.924758,518.270943 419.89385,515.636308 425.34358,512.311648 C429.186819,515.636308 433.514436,521.040263 438.320821,528.517979 C438.960425,529.905406 439.6019,531.014241 440.243375,531.844483 C439.283968,532.401668 437.997278,533.093537 436.398267,533.921934 C431.591881,536.418196 427.903869,538.217055 425.34358,539.325889 C422.459749,531.569581 417.488787,525.198855 410.441916,520.208176 L410.441916,520.208176 Z M424.862942,547.637538 C430.630604,550.962197 434.956351,553.039648 437.840182,553.871735 C434.314876,563.568966 429.987259,576.72554 424.862942,593.350681 C419.733014,590.854419 414.44599,587.808352 409,584.208791 C415.72894,574.234813 421.015963,562.04501 424.862942,547.637538 L424.862942,547.637538 Z" id="Fill-3" fill="#0076C2" mask="url(#mask-2)"></path>
                <path d="M613.054265,462.241417 L599.429823,462.241417 L579.197107,409.317453 L578.785487,409.650847 L578.785487,462.241417 L563.507114,462.241417 L563.507114,400.662248 L590.34624,400.662248 L606.447854,445.597794 L606.861337,445.597794 L624.201536,400.662248 L649.800214,400.662248 L649.800214,462.241417 L634.523704,462.241417 L634.523704,409.650847 L634.523704,409.317453 L613.054265,462.241417 Z M498.808242,462.241417 L485.1838,462.241417 L464.951084,409.317453 L464.539464,409.650847 L464.539464,462.241417 L449.262953,462.241417 L449.262953,400.662248 L476.100217,400.662248 L492.201831,445.597794 L492.615314,445.597794 L509.955513,400.662248 L535.556054,400.662248 L535.556054,462.241417 L520.277681,462.241417 L520.277681,409.650847 L520.277681,409.317453 L498.808242,462.241417 Z M405.586512,462.241417 L422.101608,462.241417 L422.101608,400.662248 L405.586512,400.662248 L405.586512,462.241417 Z M336.741638,427.290927 L350.367942,427.290927 C358.075111,427.290927 361.928696,424.407721 361.928696,418.637584 C361.928696,413.310731 358.075111,410.759056 350.367942,410.982561 L336.741638,410.982561 L336.741638,427.290927 Z M336.741638,462.241417 L320.226542,462.241417 L320.226542,400.662248 L352.845114,400.662248 C370.187175,400.885752 378.99324,406.210743 379.268895,416.640945 C378.99324,424.629363 373.763242,429.620959 363.580764,431.619461 L363.580764,431.950992 C372.113036,432.172634 376.653896,436.72281 377.205207,445.597794 C377.480862,446.486224 377.618689,447.151149 377.618689,447.596295 C378.443792,454.917925 379.818343,459.799632 381.747929,462.241417 L363.992385,462.241417 C362.342179,456.916426 361.377386,451.367931 361.103593,445.597794 C360.552283,440.272803 358.212939,437.609377 354.083699,437.609377 L336.741638,437.609377 L336.741638,462.241417 Z M260.4727,439.607878 L260.4727,429.289428 L291.441066,429.289428 L291.441066,460.244778 C285.933551,461.576491 280.291933,462.241417 274.510625,462.241417 C270.10573,462.6847 264.326284,462.906342 257.170425,462.906342 C233.771401,461.798133 221.800889,451.367931 221.251442,431.619461 C221.800889,411.425844 233.771401,400.662248 257.170425,399.332397 C281.117036,399.332397 292.955307,405.989101 292.677789,419.302509 L275.33759,419.302509 C275.33759,412.424163 270.243557,408.984059 260.062942,408.984059 C246.023155,409.205701 238.865433,416.750835 238.591641,431.619461 C238.865433,446.264582 246.023155,453.697964 260.062942,453.919605 C264.190319,453.919605 269.006834,453.476322 274.510625,452.587892 C274.234969,452.811396 274.510625,452.811396 275.33759,452.587892 L275.33759,439.607878 L260.4727,439.607878 Z M168.510043,451.922967 C177.593626,452.36625 181.994795,449.704686 181.722865,443.934549 C181.994795,437.942771 177.593626,435.169454 168.510043,435.612738 L155.708842,435.612738 L155.708842,451.922967 L168.510043,451.922967 Z M168.510043,425.294288 C175.665902,425.294288 179.245694,422.964255 179.245694,418.30419 C179.245694,413.422483 175.665902,410.982561 168.510043,410.982561 L155.708842,410.982561 L155.708842,425.294288 L168.510043,425.294288 Z M139.193745,462.241417 L139.193745,400.662248 L168.096561,400.662248 C185.714277,400.662248 194.935687,405.989101 195.76079,416.640945 C195.485135,423.076007 190.94055,427.512568 182.134486,429.954353 L182.134486,430.287747 C193.145791,432.506028 198.787409,437.832881 199.064927,446.264582 C198.237961,456.249638 187.913931,461.576491 168.096561,462.241417 L139.193745,462.241417 Z M255.103012,180.674384 L332.089026,180.674384 L383.617914,275.041638 L439.493958,177.569536 L516.47811,177.569536 L595.946883,343.335249 L514.615575,343.335249 L471.777274,250.208444 L414.660782,343.955474 L350.714374,343.955474 L294.216243,253.933516 L251.377942,345.81801 L171.911032,345.81801 L255.103012,180.674384 Z M620.826623,487.931377 C579.245533,576.729649 489.080223,638.236178 384.549181,638.236178 C279.869137,638.236178 189.5958,576.550845 148.094799,487.547695 C301.528555,487.547695 500.564612,487.931377 620.826623,487.931377 L620.826623,487.931377 Z M123.794308,377.481124 C123.794308,233.469832 240.53799,116.726069 384.549181,116.726069 C510.73964,116.726069 615.993345,206.364344 640.109445,325.440002 C692.316296,325.440002 712.73899,325.635569 747.482715,325.635569 C745.702132,323.478752 744.918004,323.622167 742.154003,321.60504 L446.396512,25.8454823 C411.937756,-8.61516075 356.063574,-8.61516075 321.604817,25.8454823 L25.8454643,321.60504 C-8.61515478,356.063821 -8.61515478,411.936179 25.8454643,446.396822 L321.604817,742.154518 C356.063574,776.615161 411.937756,776.615161 446.396512,742.154518 L742.154003,446.396822 C761.211459,427.341215 769.728831,401.736931 767.709843,376.827373 C617.505723,376.827373 453.671573,377.481124 123.794308,377.481124 L123.794308,377.481124 Z" id="Fill-4" fill="#0076C2" mask="url(#mask-2)"></path>
            </g>
        </g>
    </g>
</svg>