<?xml version="1.0" encoding="UTF-8"?>
<svg width="768px" height="768px" viewBox="0 0 768 768" version="1.1" xmlns="http://www.w3.org/2000/svg" xmlns:xlink="http://www.w3.org/1999/xlink">
    <title>鞍钢集团有限公司@2x</title>
    <defs>
        <polygon id="path-1" points="0 0 546 0 546 370 0 370"></polygon>
        <polygon id="path-3" points="0 0 122 0 122 113 0 113"></polygon>
        <polygon id="path-5" points="0 0 76 0 76 113 0 113"></polygon>
        <polygon id="path-7" points="0 768 768 768 768 0 0 0"></polygon>
    </defs>
    <g id="页面-1" stroke="none" stroke-width="1" fill="none" fill-rule="evenodd">
        <g id="34.鞍钢集团有限公司" transform="translate(-128.000000, 0.000000)">
            <g id="鞍钢集团有限公司" transform="translate(128.000000, 0.000000)">
                <g id="编组" transform="translate(111.000000, 0.000000)">
                    <mask id="mask-2" fill="white">
                        <use xlink:href="#path-1"></use>
                    </mask>
                    <g id="Clip-2"></g>
                    <path d="M0,270.149232 L251.45811,270.149232 C250.012535,306.139515 233.483858,312.093235 204.579932,318.677237 L104.772953,343.392251 C94.5670095,345.735997 90.4135819,350.878275 90.3228792,357.822709 L90.3228792,370 L273.045351,370 L455.677121,370 L455.677121,357.822709 C455.677121,350.878275 451.521804,345.735997 441.313971,343.392251 L341.418178,318.677237 C312.514252,312.093235 295.985575,306.139515 294.54189,270.149232 L546,270.149232 L480.335027,152.167453 C477.264363,146.485472 472.205798,143.418976 464.348677,143.688828 L352.25904,143.688828 C347.740912,143.688828 343.587484,144.95128 340.875851,148.829218 C332.206185,166.780957 315.044479,180.669825 293.910751,186.353693 L293.910751,88.3975474 C296.709307,74.7766443 310.53013,64.2222372 327.508541,63.5013748 L330.849424,63.5013748 C333.470354,63.5013748 335.548958,61.3369004 335.548958,58.7195282 L335.548958,11.0048518 C335.548958,4.96243957 330.581095,-0.000566122322 324.52858,-0.000566122322 L221.47142,-0.000566122322 C215.418905,-0.000566122322 210.451042,4.96243957 210.451042,11.0048518 L210.451042,58.7195282 C210.451042,61.3369004 212.618459,63.5013748 215.237499,63.5013748 L218.941193,63.5013748 C235.83268,64.2222372 249.651614,74.7766443 252.45206,88.3975474 L252.992497,88.3975474 L252.992497,186.623544 C231.405255,181.032143 213.884517,167.050809 205.122259,148.829218 C202.412516,144.95128 198.257199,143.688828 193.74096,143.688828 L81.6513234,143.688828 C73.8830154,143.418976 68.8244504,146.485472 65.7537862,152.167453 L0,270.149232 Z" id="Fill-1" fill="#DA251D" mask="url(#mask-2)"></path>
                </g>
                <g id="编组" transform="translate(0.000000, 458.000000)">
                    <mask id="mask-4" fill="white">
                        <use xlink:href="#path-3"></use>
                    </mask>
                    <g id="Clip-4"></g>
                    <path d="M41.6695821,72.55158 L59.8144495,22.1067498 L77.0486657,72.6429932 L41.6695821,72.55158 Z M50.6965779,0.184730766 C41.9441027,1.01125811 38.2958181,8.53189517 34.8311783,18.1607483 L-0.000757298307,113 L28.81255,113 L34.9220541,92.7310356 L84.068821,92.6396225 L90.7254732,112.908587 L122,112.817174 L80.7878261,0 L50.6965779,0.184730766 Z" id="Fill-3" fill="#19205D" mask="url(#mask-4)"></path>
                </g>
                <polygon id="Fill-5" fill="#19205D" points="208.196752 526.480055 161.630231 458 140.422236 458 136 458 136 571 161.630231 571 161.630231 502.613339 208.196752 571 235 571 235 458 208.196752 458"></polygon>
                <path d="M336.590414,518.428608 C320.272589,510.003164 303.954765,501.490272 287.63694,493.066729 C282.89737,490.684716 281.074604,486.565145 281.347167,481.346769 L338.231471,481.346769 C341.23913,481.346769 343.51806,479.149157 344.612098,473.290128 L347.894213,458 L278.886528,458 C262.843159,458.184402 254.090854,462.762125 254,478.143503 L254,481.346769 L254,488.854007 C254.272563,508.083106 268.220603,511.927025 281.256313,519.069262 C289.643308,523.280083 297.939448,527.308403 306.051987,531.429875 C314.62069,536.005697 320.181735,539.212765 320.363444,543.606086 L320.272589,547.910059 L254,547.910059 L254,570.983077 L322.460666,570.983077 C338.41318,571.348078 348.441232,565.85405 347.985067,550.105769 L347.985067,537.929557 C347.528902,528.498459 343.336351,522.363778 336.590414,518.428608" id="Fill-7" fill="#19205D"></path>
                <path d="M361.171591,466.084236 L358,480.690418 L397.590339,480.690418 L397.590339,571 L425.58537,571 L425.58537,480.690418 L464,480.690418 L464,458 L368.600188,458 C364.160713,458.551285 362.258887,461.765522 361.171591,466.084236" id="Fill-9" fill="#19205D"></path>
                <path d="M506.767102,523.081687 L553.643459,523.081687 C558.942591,522.9902 560.314332,519.778619 561.502036,514.544791 L564.334691,502.153997 L506.767102,502.153997 L506.767102,480.580178 L556.018866,480.580178 C560.223262,480.397203 562.68974,477.000742 563.968514,471.400965 L566.803066,458 L506.767102,458 L481,458 L481,571 L506.767102,571 L559.217698,571 C564.51683,570.906607 565.886674,567.418658 567.167345,561.818881 L570,548.417916 L506.767102,548.417916 L506.767102,523.081687 Z" id="Fill-11" fill="#19205D"></path>
                <path d="M611.702332,523.081687 L658.626705,523.081687 C663.931265,522.9902 665.304411,519.778619 666.582595,514.544791 L669.420051,502.153997 L611.702332,502.153997 L611.702332,480.580178 L661.095709,480.580178 C665.304411,480.397203 667.771516,477.000742 669.053499,471.400965 L671.889055,458 L611.702332,458 L586,458 L586,571 L611.702332,571 L664.295918,571 C669.602377,570.906607 670.975523,567.418658 672.164444,561.818881 L675,548.417916 L611.702332,548.417916 L611.702332,523.081687 Z" id="Fill-13" fill="#19205D"></path>
                <g id="编组" transform="translate(692.000000, 458.000000)">
                    <mask id="mask-6" fill="white">
                        <use xlink:href="#path-5"></use>
                    </mask>
                    <g id="Clip-16"></g>
                    <path d="M26.250862,90.3080572 L26.250862,0 L0,0 L0.0895738721,113 L65.2612362,113 C70.6756909,112.908439 71.6857793,109.232634 72.7873473,104.913992 L76.0005717,90.3080572 L26.250862,90.3080572 Z" id="Fill-15" fill="#19205D" mask="url(#mask-6)"></path>
                </g>
                <mask id="mask-8" fill="white">
                    <use xlink:href="#path-7"></use>
                </mask>
                <g id="Clip-18"></g>
                <path d="M627.478965,749.718012 L742.607838,749.718012 L742.607838,637.100059 L627.478965,637.100059 L627.478965,749.718012 Z M748.703994,619 L622.382797,619 C611.735749,619 603,627.776188 603,638.472108 L603,768 L768,768 L768,638.472108 C768,627.776188 759.354816,619 748.703994,619 L748.703994,619 Z" id="Fill-17" fill="#19205D" mask="url(#mask-8)"></path>
                <path d="M660.321766,680 L638,734.996817 L655.712773,734.996817 C662.491365,735.086979 663.666096,733.274351 666.015559,727.930386 L684,680 L660.321766,680 Z" id="Fill-19" fill="#19205D" mask="url(#mask-8)"></path>
                <path d="M699.896909,717.814502 C699.805708,723.054948 697.789774,725.262455 692.19798,725.262455 L682.667419,725.262455 L682.667419,741.997948 L699.896909,741.997948 L704.755291,741.997948 C716.026281,742.089451 723.449706,739.146109 723.72521,728.020885 L723.72521,673.307888 L735,673.307888 L735,655.745056 L723.72521,655.745056 L723.72521,646 L699.896909,646 L699.896909,655.745056 L644.816882,655.745056 C642.156837,655.838465 641.14982,657.310136 640.323306,659.149725 L634,673.307888 L699.896909,673.307888 L699.896909,717.814502 Z" id="Fill-20" fill="#19205D" mask="url(#mask-8)"></path>
                <path d="M491.194648,648.545671 L449.607412,648.545671 C445.411818,648.636134 444.591229,651.180412 443.679883,653.364723 L439.575046,662.8219 L439.575046,641.819352 L491.194648,641.819352 L491.194648,648.545671 Z M491.194648,670.090999 L449.607412,670.090999 C445.411818,670.179577 444.591229,672.72574 443.679883,674.817703 L439.575046,684.363459 L439.575046,663.453259 L491.194648,663.453259 L491.194648,670.090999 Z M491.194648,692.088643 L449.607412,692.088643 C445.411818,692.180991 444.591229,694.727154 443.679883,696.907695 L439.575046,706.368642 L439.575046,685.000471 L491.194648,685.000471 L491.194648,692.088643 Z M517.825983,619 L493.202634,619 L492.563557,619 L490.10179,626.909879 L449.607412,626.909879 C445.411818,627.000343 444.591229,629.546506 443.679883,631.636584 L439.575046,641.18234 L439.575046,619 L420.240149,619 L402,654.634977 L413.310518,654.634977 L413.310518,707 L439.302777,707 L439.575046,707 L572,707 L572,692.088643 L517.825983,692.088643 L517.825983,685.000471 L572,685.000471 L572,670.090999 L517.825983,670.090999 L517.825983,663.453259 L572,663.453259 L572,648.545671 L517.825983,648.545671 L517.825983,641.819352 L572,641.819352 L572,626.909879 L517.825983,626.909879 L517.825983,619 Z" id="Fill-21" fill="#19205D" mask="url(#mask-8)"></path>
                <path d="M500.332511,710 L475.296522,710 L475.296522,714.80206 L413.523653,714.80206 C411.25569,714.80206 409.711744,715.724944 408.444242,718.49551 L403,730.964017 L475.296522,730.964017 L475.296522,768 L500.332511,768 L500.332511,730.964017 L570,730.964017 L570,714.80206 L500.332511,714.80206 L500.332511,710 Z" id="Fill-22" fill="#19205D" mask="url(#mask-8)"></path>
                <path d="M524,737 L537.244042,761.081252 C539.822088,765.750957 543.111446,768.406614 547.644679,767.949135 L568,767.949135 L549.153914,737 L524,737 Z" id="Fill-23" fill="#19205D" mask="url(#mask-8)"></path>
                <path d="M409,767.949106 L430.238903,767.949106 C434.968486,768.406585 438.398395,765.752828 441.088105,761.081229 L455,737 L428.662376,737 L409,767.949106 Z" id="Fill-24" fill="#19205D" mask="url(#mask-8)"></path>
                <path d="M331.211648,694.54566 L351,646 L331.4845,646.184541 L321.5,670.777939 L311.425177,646.184541 L292,646 L311.788352,694.54566 L292,743 L306.976749,742.906778 C311.062002,742.815459 312.69535,739.512749 315.327901,733.455243 L321.5,718.404699 L327.581776,733.455243 C330.30465,739.512749 331.937998,742.815459 336.023251,742.906778 L351,743 L331.211648,694.54566 Z" id="Fill-25" fill="#19205D" mask="url(#mask-8)"></path>
                <path d="M354.561288,619 L285.438712,619 C275.356925,619 267,627.408539 267,637.556777 L267,768 L289.890215,768 L289.890215,750.997202 L289.890215,748.164034 L289.890215,637.372952 L350.563597,637.372952 L350.563597,747.982105 C350.563597,749.627048 349.20216,750.997202 347.567683,750.997202 L335.849535,750.997202 L335.849535,768 L354.561288,768 C364.733461,768 373,759.68053 373,749.536083 L373,637.556777 C373,627.408539 364.733461,619 354.561288,619" id="Fill-26" fill="#19205D" mask="url(#mask-8)"></path>
                <path d="M239.889431,620 L216.312433,620 L202,655 L221.632283,655 C225.761491,655 228.78945,652.957643 230.25588,647.804788 L230.807456,646.20442 L262,646.20442 L262,628.616943 L236.954669,628.616943 L239.889431,620 Z" id="Fill-27" fill="#19205D" mask="url(#mask-8)"></path>
                <path d="M243.493928,682.84918 L259.466021,682.84918 L259.466021,665 L212.273706,665 C208.844701,665.090624 206.859881,666.912547 205.686948,669.91636 L200.361046,682.84918 L220.123191,682.84918 L220.123191,705.342847 L212.273706,705.342847 C208.663242,705.435359 206.678422,707.257282 205.505489,710.262982 L200,723.192026 L220.123191,723.192026 L220.123191,750.422693 C220.212985,761.897975 226.348902,767.543103 237.990309,768 L243.493928,768 L257.120155,768 L257.120155,750.877701 L248.546706,750.877701 C245.117701,750.787077 243.583722,749.422051 243.493928,745.961342 L243.493928,723.192026 L261,723.192026 L261,705.342847 L243.493928,705.342847 L243.493928,682.84918 Z" id="Fill-28" fill="#19205D" mask="url(#mask-8)"></path>
                <path d="M114.496803,643.538197 L151.232418,643.538197 L151.232418,651 L173,651 L173,635.811215 C173,630.837294 168.827379,626.660746 163.658142,626.660746 L145.335464,626.660746 L141.253103,620 L122.116209,620 L117.763069,626.660746 L102.343738,626.660746 C97.1726213,626.660746 93,630.837294 93,635.811215 L93,651 L114.496803,651 L114.496803,643.538197 Z" id="Fill-29" fill="#19205D" mask="url(#mask-8)"></path>
                <path d="M30.4575173,655.543096 L61.7355028,655.543096 L61.7355028,642.753486 L30.4575173,642.753486 L30.4575173,655.543096 Z M57.357152,710.173084 L66.7490548,710.173084 L66.7490548,695.739555 L57.357152,695.739555 L57.357152,710.173084 Z M26.262543,710.173084 L35.8378223,710.173084 L35.8378223,695.739555 L26.262543,695.739555 L26.262543,710.173084 Z M57.357152,726.61795 L88.7258805,726.61795 L88.7258805,691.171431 C88.7258805,684.684771 83.4382089,679.478398 77.0540592,679.478398 L57.357152,679.478398 L57.357152,671.711451 L71.0347721,671.711451 C77.6022983,671.711451 82.9807129,666.323262 82.9807129,659.652892 L82.9807129,642.753486 L88.0887888,642.753486 L88.0887888,625.943094 L82.9807129,625.943094 L82.9807129,619 L61.7355028,619 L61.7355028,625.943094 L30.4575173,625.943094 L30.4575173,619 L8.93629721,619 L8.93629721,625.943094 L8.29731509,625.943094 C6.56563575,626.126803 5.56179107,627.770722 4.55983687,630.511217 L0,642.753486 L8.93629721,642.753486 L8.93629721,659.652892 C8.93629721,666.323262 14.3166022,671.711451 20.882238,671.711451 L35.8378223,671.711451 L35.8378223,679.478398 L16.5965207,679.478398 C10.2142614,679.478398 4.92469943,684.684771 4.92469943,691.171431 L4.92469943,726.61795 L35.8378223,726.61795 L35.8378223,734.655727 L13.0405285,734.655727 C9.3919028,734.748529 7.29536089,736.392447 6.11003016,739.132943 L0.911211181,751.373317 L35.8378223,751.373317 L35.8378223,768 L57.357152,768 L57.357152,751.373317 L89,751.373317 L89,734.655727 L57.357152,734.655727 L57.357152,726.61795 Z" id="Fill-30" fill="#19205D" mask="url(#mask-8)"></path>
                <path d="M142.908503,715.860326 L133.545434,726.414677 L123.545344,715.860326 L123.545344,684.110514 L142.908503,684.110514 L142.908503,715.860326 Z M166.546107,658 L142.908503,658 L142.908503,665.915763 L123.545344,665.915763 L123.545344,658 L100.00009,658 L100.00009,665.915763 L98.54512,665.915763 C96.3626655,666.187355 94.8172313,668.099812 93.9088176,671.191053 L90,684.110514 L100.00009,684.110514 L100.00009,716.497811 C100.00009,721.774987 101.726453,724.777583 104.27265,727.959354 L118.818578,743.062864 L96.6359435,767.990823 L113.818533,767.990823 C122.180839,768.169998 127.363698,765.716243 130.635495,761.438676 L133.453085,758.256905 L136.453489,761.438676 C139.636706,765.716243 144.81768,768.169998 153.181871,767.990823 L172.908773,767.990823 L148.272291,741.97084 L162.271663,726.505207 C164.727395,723.319664 166.453758,720.317068 166.546107,715.041779 L166.546107,684.110514 L174,684.110514 L174,665.915763 L166.546107,665.915763 L166.546107,658 Z" id="Fill-31" fill="#19205D" mask="url(#mask-8)"></path>
            </g>
        </g>
    </g>
</svg>