<svg xmlns="http://www.w3.org/2000/svg" viewBox="0 0 188.08 223.98"><defs><style>.cls-1{fill:#004ea2;fill-rule:evenodd;}</style></defs><g id="图层_2" data-name="图层 2"><g id="图层_1-2" data-name="图层 1"><path class="cls-1" d="M121.57,32.22c1.66,1.3,2.55,2.2,3.23,2.75,5.73-2.75,17.38-7.54,27.48-5.63,14.58,2.74,1.67,34.46-28.43,59.08,0,0-12.62,10-22.76,17.24v3.43s5.23,4.39,10.14,7.86c17.14-12.5,50.62-40.53,57-72.72C171.28,28.8,160.12,14.36,121.57,32.22Z"/><path class="cls-1" d="M111.17,33.22s.06-29.45,0-30.41c0-6.17-2.41-.25-2.41-.25l-7.51,17.09S65.46-6.27,47,10.84s-3.21,56.1,6,71.34,15.14,23.66,27.36,36.08V94.7S64.66,81.36,53.76,47.08c-3.43-10.71-5.28-29.72,5-34.21C69.43,8.18,94.61,18.35,111.17,33.22Z"/><path class="cls-1" d="M111,35.67c-5.48,2-31.34,13.53-53.81,31.57-13.72,11-25.23,23.89-31.87,38.22-11.88,25.64,8.08,34.39,19.59,35.71,9.75,1.12,22.36-1.22,35.52-8.75V117s-21.2,11.4-36.23,9.23c-21.65-3.1-12.9-27.41,14.67-51.43C87.58,49.76,111,40.06,111,40.06Z"/><path class="cls-1" d="M131.39,43.46s-9.09-9.82-15-13.86v6.15c1,.83,20.86,15,32.77,45,6.92,17.41,15,45.5-7,49.12-7.14,1.17-23.7.52-54-28.66,0,0,0,60.62,0,61.29,0,13.74,3.76,3.85,4,3,.24-.68,9.54-30.3,9.54-30.3s46.87,27.73,61-7.32C173.29,101.43,146.12,57.66,131.39,43.46Z"/><path class="cls-1" d="M110.79,73.87c-2.51,5.66-8.77,9.86-14,9.4S89.4,77.85,91.91,72.2s8.77-9.82,14-9.37S113.32,68.23,110.79,73.87Z"/><path class="cls-1" d="M90.92,180.55V223.9H79.17L60.31,197.13v21.55c0,3.25-1.33,5.22-4.27,5.22H48.55V185.76c0-3.82,1.43-5.21,4.26-5.21h7.5l18.86,27.12V185.76c0-3.82,1.43-5.21,4.26-5.21Z"/><path class="cls-1" d="M42.62,188.26V180.5H6.75C2,180.5,0,182.61,0,187.91v29.73c0,3.48,1.44,6.28,5.41,6.34H42.62v-6.2s.45-5.6-5.78-5.6H13V192.73H37C43.06,192.73,42.62,188.26,42.62,188.26Z"/><path class="cls-1" d="M188.07,188v-7.75H152.2c-4.76,0-6.75,2.1-6.75,7.4v29.74c0,3.47,1.45,6.28,5.42,6.33h37.2v-6.19s.45-5.61-5.78-5.61h-23.8V192.47h23.94C188.52,192.47,188.07,188,188.07,188Z"/><path class="cls-1" d="M139.39,180.28v43.37H127.63l-18.86-26.78v21.55c0,3.25-1.32,5.23-4.25,5.23H97V185.5c0-3.82,1.41-5.22,4.25-5.22h7.49l18.86,27.13V185.5c0-3.82,1.43-5.22,4.27-5.22Z"/></g></g></svg>